G04 #@! TF.GenerationSoftware,KiCad,Pcbnew,5.1.5*
G04 #@! TF.CreationDate,2020-03-31T00:43:33+02:00*
G04 #@! TF.ProjectId,gameboy-dmg,67616d65-626f-4792-9d64-6d672e6b6963,rev?*
G04 #@! TF.SameCoordinates,Original*
G04 #@! TF.FileFunction,Legend,Top*
G04 #@! TF.FilePolarity,Positive*
%FSLAX46Y46*%
G04 Gerber Fmt 4.6, Leading zero omitted, Abs format (unit mm)*
G04 Created by KiCad (PCBNEW 5.1.5) date 2020-03-31 00:43:33*
%MOMM*%
%LPD*%
G04 APERTURE LIST*
%ADD10C,0.150000*%
%ADD11C,0.300000*%
%ADD12C,0.120000*%
%ADD13C,1.000000*%
%ADD14C,0.127000*%
G04 APERTURE END LIST*
D10*
X86227380Y-95336904D02*
X86227380Y-94536904D01*
X86532142Y-94536904D01*
X86608333Y-94575000D01*
X86646428Y-94613095D01*
X86684523Y-94689285D01*
X86684523Y-94803571D01*
X86646428Y-94879761D01*
X86608333Y-94917857D01*
X86532142Y-94955952D01*
X86227380Y-94955952D01*
X87179761Y-94536904D02*
X87332142Y-94536904D01*
X87408333Y-94575000D01*
X87484523Y-94651190D01*
X87522619Y-94803571D01*
X87522619Y-95070238D01*
X87484523Y-95222619D01*
X87408333Y-95298809D01*
X87332142Y-95336904D01*
X87179761Y-95336904D01*
X87103571Y-95298809D01*
X87027380Y-95222619D01*
X86989285Y-95070238D01*
X86989285Y-94803571D01*
X87027380Y-94651190D01*
X87103571Y-94575000D01*
X87179761Y-94536904D01*
X87789285Y-94536904D02*
X87979761Y-95336904D01*
X88132142Y-94765476D01*
X88284523Y-95336904D01*
X88475000Y-94536904D01*
X88779761Y-94917857D02*
X89046428Y-94917857D01*
X89160714Y-95336904D02*
X88779761Y-95336904D01*
X88779761Y-94536904D01*
X89160714Y-94536904D01*
X89960714Y-95336904D02*
X89694047Y-94955952D01*
X89503571Y-95336904D02*
X89503571Y-94536904D01*
X89808333Y-94536904D01*
X89884523Y-94575000D01*
X89922619Y-94613095D01*
X89960714Y-94689285D01*
X89960714Y-94803571D01*
X89922619Y-94879761D01*
X89884523Y-94917857D01*
X89808333Y-94955952D01*
X89503571Y-94955952D01*
X86075000Y-96648809D02*
X86189285Y-96686904D01*
X86379761Y-96686904D01*
X86455952Y-96648809D01*
X86494047Y-96610714D01*
X86532142Y-96534523D01*
X86532142Y-96458333D01*
X86494047Y-96382142D01*
X86455952Y-96344047D01*
X86379761Y-96305952D01*
X86227380Y-96267857D01*
X86151190Y-96229761D01*
X86113095Y-96191666D01*
X86075000Y-96115476D01*
X86075000Y-96039285D01*
X86113095Y-95963095D01*
X86151190Y-95925000D01*
X86227380Y-95886904D01*
X86417857Y-95886904D01*
X86532142Y-95925000D01*
X86798809Y-95886904D02*
X86989285Y-96686904D01*
X87141666Y-96115476D01*
X87294047Y-96686904D01*
X87484523Y-95886904D01*
X87789285Y-96686904D02*
X87789285Y-95886904D01*
X88055952Y-95886904D02*
X88513095Y-95886904D01*
X88284523Y-96686904D02*
X88284523Y-95886904D01*
X89236904Y-96610714D02*
X89198809Y-96648809D01*
X89084523Y-96686904D01*
X89008333Y-96686904D01*
X88894047Y-96648809D01*
X88817857Y-96572619D01*
X88779761Y-96496428D01*
X88741666Y-96344047D01*
X88741666Y-96229761D01*
X88779761Y-96077380D01*
X88817857Y-96001190D01*
X88894047Y-95925000D01*
X89008333Y-95886904D01*
X89084523Y-95886904D01*
X89198809Y-95925000D01*
X89236904Y-95963095D01*
X89579761Y-96686904D02*
X89579761Y-95886904D01*
X89579761Y-96267857D02*
X90036904Y-96267857D01*
X90036904Y-96686904D02*
X90036904Y-95886904D01*
X86284523Y-97617857D02*
X86398809Y-97655952D01*
X86436904Y-97694047D01*
X86475000Y-97770238D01*
X86475000Y-97884523D01*
X86436904Y-97960714D01*
X86398809Y-97998809D01*
X86322619Y-98036904D01*
X86017857Y-98036904D01*
X86017857Y-97236904D01*
X86284523Y-97236904D01*
X86360714Y-97275000D01*
X86398809Y-97313095D01*
X86436904Y-97389285D01*
X86436904Y-97465476D01*
X86398809Y-97541666D01*
X86360714Y-97579761D01*
X86284523Y-97617857D01*
X86017857Y-97617857D01*
X86970238Y-97655952D02*
X86970238Y-98036904D01*
X86703571Y-97236904D02*
X86970238Y-97655952D01*
X87236904Y-97236904D01*
X87503571Y-98036904D02*
X87503571Y-97236904D01*
X87808333Y-97236904D01*
X87884523Y-97275000D01*
X87922619Y-97313095D01*
X87960714Y-97389285D01*
X87960714Y-97503571D01*
X87922619Y-97579761D01*
X87884523Y-97617857D01*
X87808333Y-97655952D01*
X87503571Y-97655952D01*
X88265476Y-97808333D02*
X88646428Y-97808333D01*
X88189285Y-98036904D02*
X88455952Y-97236904D01*
X88722619Y-98036904D01*
X88951190Y-97998809D02*
X89065476Y-98036904D01*
X89255952Y-98036904D01*
X89332142Y-97998809D01*
X89370238Y-97960714D01*
X89408333Y-97884523D01*
X89408333Y-97808333D01*
X89370238Y-97732142D01*
X89332142Y-97694047D01*
X89255952Y-97655952D01*
X89103571Y-97617857D01*
X89027380Y-97579761D01*
X88989285Y-97541666D01*
X88951190Y-97465476D01*
X88951190Y-97389285D01*
X88989285Y-97313095D01*
X89027380Y-97275000D01*
X89103571Y-97236904D01*
X89294047Y-97236904D01*
X89408333Y-97275000D01*
X89713095Y-97998809D02*
X89827380Y-98036904D01*
X90017857Y-98036904D01*
X90094047Y-97998809D01*
X90132142Y-97960714D01*
X90170238Y-97884523D01*
X90170238Y-97808333D01*
X90132142Y-97732142D01*
X90094047Y-97694047D01*
X90017857Y-97655952D01*
X89865476Y-97617857D01*
X89789285Y-97579761D01*
X89751190Y-97541666D01*
X89713095Y-97465476D01*
X89713095Y-97389285D01*
X89751190Y-97313095D01*
X89789285Y-97275000D01*
X89865476Y-97236904D01*
X90055952Y-97236904D01*
X90170238Y-97275000D01*
X89261904Y-90284523D02*
X89261904Y-90132142D01*
X89300000Y-90055952D01*
X89376190Y-89979761D01*
X89528571Y-89941666D01*
X89795238Y-89941666D01*
X89947619Y-89979761D01*
X90023809Y-90055952D01*
X90061904Y-90132142D01*
X90061904Y-90284523D01*
X90023809Y-90360714D01*
X89947619Y-90436904D01*
X89795238Y-90475000D01*
X89528571Y-90475000D01*
X89376190Y-90436904D01*
X89300000Y-90360714D01*
X89261904Y-90284523D01*
X90061904Y-89598809D02*
X89261904Y-89598809D01*
X90061904Y-89141666D01*
X89261904Y-89141666D01*
X89223809Y-88189285D02*
X90252380Y-88875000D01*
X89261904Y-87770238D02*
X89261904Y-87617857D01*
X89300000Y-87541666D01*
X89376190Y-87465476D01*
X89528571Y-87427380D01*
X89795238Y-87427380D01*
X89947619Y-87465476D01*
X90023809Y-87541666D01*
X90061904Y-87617857D01*
X90061904Y-87770238D01*
X90023809Y-87846428D01*
X89947619Y-87922619D01*
X89795238Y-87960714D01*
X89528571Y-87960714D01*
X89376190Y-87922619D01*
X89300000Y-87846428D01*
X89261904Y-87770238D01*
X89642857Y-86817857D02*
X89642857Y-87084523D01*
X90061904Y-87084523D02*
X89261904Y-87084523D01*
X89261904Y-86703571D01*
X89642857Y-86132142D02*
X89642857Y-86398809D01*
X90061904Y-86398809D02*
X89261904Y-86398809D01*
X89261904Y-86017857D01*
X90061904Y-84722619D02*
X90061904Y-85103571D01*
X89261904Y-85103571D01*
X89642857Y-84455952D02*
X89642857Y-84189285D01*
X90061904Y-84075000D02*
X90061904Y-84455952D01*
X89261904Y-84455952D01*
X89261904Y-84075000D01*
X90061904Y-83732142D02*
X89261904Y-83732142D01*
X89261904Y-83541666D01*
X89300000Y-83427380D01*
X89376190Y-83351190D01*
X89452380Y-83313095D01*
X89604761Y-83275000D01*
X89719047Y-83275000D01*
X89871428Y-83313095D01*
X89947619Y-83351190D01*
X90023809Y-83427380D01*
X90061904Y-83541666D01*
X90061904Y-83732142D01*
X100551190Y-76836904D02*
X101046428Y-76836904D01*
X100779761Y-77141666D01*
X100894047Y-77141666D01*
X100970238Y-77179761D01*
X101008333Y-77217857D01*
X101046428Y-77294047D01*
X101046428Y-77484523D01*
X101008333Y-77560714D01*
X100970238Y-77598809D01*
X100894047Y-77636904D01*
X100665476Y-77636904D01*
X100589285Y-77598809D01*
X100551190Y-77560714D01*
X101389285Y-77560714D02*
X101427380Y-77598809D01*
X101389285Y-77636904D01*
X101351190Y-77598809D01*
X101389285Y-77560714D01*
X101389285Y-77636904D01*
X101694047Y-76836904D02*
X102189285Y-76836904D01*
X101922619Y-77141666D01*
X102036904Y-77141666D01*
X102113095Y-77179761D01*
X102151190Y-77217857D01*
X102189285Y-77294047D01*
X102189285Y-77484523D01*
X102151190Y-77560714D01*
X102113095Y-77598809D01*
X102036904Y-77636904D01*
X101808333Y-77636904D01*
X101732142Y-77598809D01*
X101694047Y-77560714D01*
X102417857Y-76836904D02*
X102684523Y-77636904D01*
X102951190Y-76836904D01*
X103789285Y-77408333D02*
X104170238Y-77408333D01*
X103713095Y-77636904D02*
X103979761Y-76836904D01*
X104246428Y-77636904D01*
X104513095Y-77636904D02*
X104513095Y-77103571D01*
X104513095Y-77179761D02*
X104551190Y-77141666D01*
X104627380Y-77103571D01*
X104741666Y-77103571D01*
X104817857Y-77141666D01*
X104855952Y-77217857D01*
X104855952Y-77636904D01*
X104855952Y-77217857D02*
X104894047Y-77141666D01*
X104970238Y-77103571D01*
X105084523Y-77103571D01*
X105160714Y-77141666D01*
X105198809Y-77217857D01*
X105198809Y-77636904D01*
X105579761Y-77103571D02*
X105579761Y-77903571D01*
X105579761Y-77141666D02*
X105655952Y-77103571D01*
X105808333Y-77103571D01*
X105884523Y-77141666D01*
X105922619Y-77179761D01*
X105960714Y-77255952D01*
X105960714Y-77484523D01*
X105922619Y-77560714D01*
X105884523Y-77598809D01*
X105808333Y-77636904D01*
X105655952Y-77636904D01*
X105579761Y-77598809D01*
X101446428Y-78948809D02*
X101560714Y-78986904D01*
X101751190Y-78986904D01*
X101827380Y-78948809D01*
X101865476Y-78910714D01*
X101903571Y-78834523D01*
X101903571Y-78758333D01*
X101865476Y-78682142D01*
X101827380Y-78644047D01*
X101751190Y-78605952D01*
X101598809Y-78567857D01*
X101522619Y-78529761D01*
X101484523Y-78491666D01*
X101446428Y-78415476D01*
X101446428Y-78339285D01*
X101484523Y-78263095D01*
X101522619Y-78225000D01*
X101598809Y-78186904D01*
X101789285Y-78186904D01*
X101903571Y-78225000D01*
X102589285Y-78453571D02*
X102589285Y-78986904D01*
X102246428Y-78453571D02*
X102246428Y-78872619D01*
X102284523Y-78948809D01*
X102360714Y-78986904D01*
X102475000Y-78986904D01*
X102551190Y-78948809D01*
X102589285Y-78910714D01*
X102970238Y-78453571D02*
X102970238Y-79253571D01*
X102970238Y-78491666D02*
X103046428Y-78453571D01*
X103198809Y-78453571D01*
X103275000Y-78491666D01*
X103313095Y-78529761D01*
X103351190Y-78605952D01*
X103351190Y-78834523D01*
X103313095Y-78910714D01*
X103275000Y-78948809D01*
X103198809Y-78986904D01*
X103046428Y-78986904D01*
X102970238Y-78948809D01*
X103694047Y-78453571D02*
X103694047Y-79253571D01*
X103694047Y-78491666D02*
X103770238Y-78453571D01*
X103922619Y-78453571D01*
X103998809Y-78491666D01*
X104036904Y-78529761D01*
X104075000Y-78605952D01*
X104075000Y-78834523D01*
X104036904Y-78910714D01*
X103998809Y-78948809D01*
X103922619Y-78986904D01*
X103770238Y-78986904D01*
X103694047Y-78948809D01*
X104532142Y-78986904D02*
X104455952Y-78948809D01*
X104417857Y-78872619D01*
X104417857Y-78186904D01*
X104760714Y-78453571D02*
X104951190Y-78986904D01*
X105141666Y-78453571D02*
X104951190Y-78986904D01*
X104875000Y-79177380D01*
X104836904Y-79215476D01*
X104760714Y-79253571D01*
X137926190Y-90417857D02*
X138040476Y-90455952D01*
X138078571Y-90494047D01*
X138116666Y-90570238D01*
X138116666Y-90684523D01*
X138078571Y-90760714D01*
X138040476Y-90798809D01*
X137964285Y-90836904D01*
X137659523Y-90836904D01*
X137659523Y-90036904D01*
X137926190Y-90036904D01*
X138002380Y-90075000D01*
X138040476Y-90113095D01*
X138078571Y-90189285D01*
X138078571Y-90265476D01*
X138040476Y-90341666D01*
X138002380Y-90379761D01*
X137926190Y-90417857D01*
X137659523Y-90417857D01*
X138802380Y-90836904D02*
X138802380Y-90417857D01*
X138764285Y-90341666D01*
X138688095Y-90303571D01*
X138535714Y-90303571D01*
X138459523Y-90341666D01*
X138802380Y-90798809D02*
X138726190Y-90836904D01*
X138535714Y-90836904D01*
X138459523Y-90798809D01*
X138421428Y-90722619D01*
X138421428Y-90646428D01*
X138459523Y-90570238D01*
X138535714Y-90532142D01*
X138726190Y-90532142D01*
X138802380Y-90494047D01*
X139526190Y-90798809D02*
X139450000Y-90836904D01*
X139297619Y-90836904D01*
X139221428Y-90798809D01*
X139183333Y-90760714D01*
X139145238Y-90684523D01*
X139145238Y-90455952D01*
X139183333Y-90379761D01*
X139221428Y-90341666D01*
X139297619Y-90303571D01*
X139450000Y-90303571D01*
X139526190Y-90341666D01*
X139869047Y-90836904D02*
X139869047Y-90036904D01*
X139945238Y-90532142D02*
X140173809Y-90836904D01*
X140173809Y-90303571D02*
X139869047Y-90608333D01*
X140630952Y-90836904D02*
X140554761Y-90798809D01*
X140516666Y-90722619D01*
X140516666Y-90036904D01*
X140935714Y-90836904D02*
X140935714Y-90303571D01*
X140935714Y-90036904D02*
X140897619Y-90075000D01*
X140935714Y-90113095D01*
X140973809Y-90075000D01*
X140935714Y-90036904D01*
X140935714Y-90113095D01*
X141659523Y-90303571D02*
X141659523Y-90951190D01*
X141621428Y-91027380D01*
X141583333Y-91065476D01*
X141507142Y-91103571D01*
X141392857Y-91103571D01*
X141316666Y-91065476D01*
X141659523Y-90798809D02*
X141583333Y-90836904D01*
X141430952Y-90836904D01*
X141354761Y-90798809D01*
X141316666Y-90760714D01*
X141278571Y-90684523D01*
X141278571Y-90455952D01*
X141316666Y-90379761D01*
X141354761Y-90341666D01*
X141430952Y-90303571D01*
X141583333Y-90303571D01*
X141659523Y-90341666D01*
X142040476Y-90836904D02*
X142040476Y-90036904D01*
X142383333Y-90836904D02*
X142383333Y-90417857D01*
X142345238Y-90341666D01*
X142269047Y-90303571D01*
X142154761Y-90303571D01*
X142078571Y-90341666D01*
X142040476Y-90379761D01*
X142650000Y-90303571D02*
X142954761Y-90303571D01*
X142764285Y-90036904D02*
X142764285Y-90722619D01*
X142802380Y-90798809D01*
X142878571Y-90836904D01*
X142954761Y-90836904D01*
X136897619Y-91386904D02*
X137164285Y-92186904D01*
X137430952Y-91386904D01*
X138040476Y-92148809D02*
X137964285Y-92186904D01*
X137811904Y-92186904D01*
X137735714Y-92148809D01*
X137697619Y-92110714D01*
X137659523Y-92034523D01*
X137659523Y-91805952D01*
X137697619Y-91729761D01*
X137735714Y-91691666D01*
X137811904Y-91653571D01*
X137964285Y-91653571D01*
X138040476Y-91691666D01*
X138726190Y-92148809D02*
X138650000Y-92186904D01*
X138497619Y-92186904D01*
X138421428Y-92148809D01*
X138383333Y-92110714D01*
X138345238Y-92034523D01*
X138345238Y-91805952D01*
X138383333Y-91729761D01*
X138421428Y-91691666D01*
X138497619Y-91653571D01*
X138650000Y-91653571D01*
X138726190Y-91691666D01*
X139869047Y-92453571D02*
X139869047Y-91310714D01*
X141469047Y-91425000D02*
X141392857Y-91386904D01*
X141278571Y-91386904D01*
X141164285Y-91425000D01*
X141088095Y-91501190D01*
X141050000Y-91577380D01*
X141011904Y-91729761D01*
X141011904Y-91844047D01*
X141050000Y-91996428D01*
X141088095Y-92072619D01*
X141164285Y-92148809D01*
X141278571Y-92186904D01*
X141354761Y-92186904D01*
X141469047Y-92148809D01*
X141507142Y-92110714D01*
X141507142Y-91844047D01*
X141354761Y-91844047D01*
X141850000Y-92186904D02*
X141850000Y-91386904D01*
X142154761Y-91386904D01*
X142230952Y-91425000D01*
X142269047Y-91463095D01*
X142307142Y-91539285D01*
X142307142Y-91653571D01*
X142269047Y-91729761D01*
X142230952Y-91767857D01*
X142154761Y-91805952D01*
X141850000Y-91805952D01*
X142650000Y-92186904D02*
X142650000Y-91386904D01*
X143183333Y-91386904D02*
X143335714Y-91386904D01*
X143411904Y-91425000D01*
X143488095Y-91501190D01*
X143526190Y-91653571D01*
X143526190Y-91920238D01*
X143488095Y-92072619D01*
X143411904Y-92148809D01*
X143335714Y-92186904D01*
X143183333Y-92186904D01*
X143107142Y-92148809D01*
X143030952Y-92072619D01*
X142992857Y-91920238D01*
X142992857Y-91653571D01*
X143030952Y-91501190D01*
X143107142Y-91425000D01*
X143183333Y-91386904D01*
X92617857Y-78542857D02*
X92884523Y-78542857D01*
X92998809Y-78961904D02*
X92617857Y-78961904D01*
X92617857Y-78161904D01*
X92998809Y-78161904D01*
X93265476Y-78161904D02*
X93798809Y-78961904D01*
X93798809Y-78161904D02*
X93265476Y-78961904D01*
X93989285Y-78161904D02*
X94446428Y-78161904D01*
X94217857Y-78961904D02*
X94217857Y-78161904D01*
X91455952Y-79511904D02*
X91608333Y-79511904D01*
X91684523Y-79550000D01*
X91760714Y-79626190D01*
X91798809Y-79778571D01*
X91798809Y-80045238D01*
X91760714Y-80197619D01*
X91684523Y-80273809D01*
X91608333Y-80311904D01*
X91455952Y-80311904D01*
X91379761Y-80273809D01*
X91303571Y-80197619D01*
X91265476Y-80045238D01*
X91265476Y-79778571D01*
X91303571Y-79626190D01*
X91379761Y-79550000D01*
X91455952Y-79511904D01*
X92141666Y-80311904D02*
X92141666Y-79511904D01*
X92598809Y-80311904D01*
X92598809Y-79511904D01*
X93551190Y-79473809D02*
X92865476Y-80502380D01*
X93970238Y-79511904D02*
X94122619Y-79511904D01*
X94198809Y-79550000D01*
X94275000Y-79626190D01*
X94313095Y-79778571D01*
X94313095Y-80045238D01*
X94275000Y-80197619D01*
X94198809Y-80273809D01*
X94122619Y-80311904D01*
X93970238Y-80311904D01*
X93894047Y-80273809D01*
X93817857Y-80197619D01*
X93779761Y-80045238D01*
X93779761Y-79778571D01*
X93817857Y-79626190D01*
X93894047Y-79550000D01*
X93970238Y-79511904D01*
X94922619Y-79892857D02*
X94655952Y-79892857D01*
X94655952Y-80311904D02*
X94655952Y-79511904D01*
X95036904Y-79511904D01*
X95608333Y-79892857D02*
X95341666Y-79892857D01*
X95341666Y-80311904D02*
X95341666Y-79511904D01*
X95722619Y-79511904D01*
X92960714Y-81661904D02*
X92579761Y-81661904D01*
X92579761Y-80861904D01*
X93227380Y-81242857D02*
X93494047Y-81242857D01*
X93608333Y-81661904D02*
X93227380Y-81661904D01*
X93227380Y-80861904D01*
X93608333Y-80861904D01*
X93951190Y-81661904D02*
X93951190Y-80861904D01*
X94141666Y-80861904D01*
X94255952Y-80900000D01*
X94332142Y-80976190D01*
X94370238Y-81052380D01*
X94408333Y-81204761D01*
X94408333Y-81319047D01*
X94370238Y-81471428D01*
X94332142Y-81547619D01*
X94255952Y-81623809D01*
X94141666Y-81661904D01*
X93951190Y-81661904D01*
X98023809Y-147885714D02*
X98061904Y-147923809D01*
X98176190Y-147961904D01*
X98252380Y-147961904D01*
X98366666Y-147923809D01*
X98442857Y-147847619D01*
X98480952Y-147771428D01*
X98519047Y-147619047D01*
X98519047Y-147504761D01*
X98480952Y-147352380D01*
X98442857Y-147276190D01*
X98366666Y-147200000D01*
X98252380Y-147161904D01*
X98176190Y-147161904D01*
X98061904Y-147200000D01*
X98023809Y-147238095D01*
X97680952Y-147961904D02*
X97680952Y-147161904D01*
X97680952Y-147542857D02*
X97223809Y-147542857D01*
X97223809Y-147961904D02*
X97223809Y-147161904D01*
X96880952Y-147733333D02*
X96500000Y-147733333D01*
X96957142Y-147961904D02*
X96690476Y-147161904D01*
X96423809Y-147961904D01*
X95700000Y-147961904D02*
X95966666Y-147580952D01*
X96157142Y-147961904D02*
X96157142Y-147161904D01*
X95852380Y-147161904D01*
X95776190Y-147200000D01*
X95738095Y-147238095D01*
X95700000Y-147314285D01*
X95700000Y-147428571D01*
X95738095Y-147504761D01*
X95776190Y-147542857D01*
X95852380Y-147580952D01*
X96157142Y-147580952D01*
X94938095Y-147200000D02*
X95014285Y-147161904D01*
X95128571Y-147161904D01*
X95242857Y-147200000D01*
X95319047Y-147276190D01*
X95357142Y-147352380D01*
X95395238Y-147504761D01*
X95395238Y-147619047D01*
X95357142Y-147771428D01*
X95319047Y-147847619D01*
X95242857Y-147923809D01*
X95128571Y-147961904D01*
X95052380Y-147961904D01*
X94938095Y-147923809D01*
X94900000Y-147885714D01*
X94900000Y-147619047D01*
X95052380Y-147619047D01*
X94557142Y-147961904D02*
X94557142Y-147161904D01*
X94176190Y-147961904D02*
X94176190Y-147161904D01*
X93719047Y-147961904D01*
X93719047Y-147161904D01*
X92919047Y-147200000D02*
X92995238Y-147161904D01*
X93109523Y-147161904D01*
X93223809Y-147200000D01*
X93300000Y-147276190D01*
X93338095Y-147352380D01*
X93376190Y-147504761D01*
X93376190Y-147619047D01*
X93338095Y-147771428D01*
X93300000Y-147847619D01*
X93223809Y-147923809D01*
X93109523Y-147961904D01*
X93033333Y-147961904D01*
X92919047Y-147923809D01*
X92880952Y-147885714D01*
X92880952Y-147619047D01*
X93033333Y-147619047D01*
X98026190Y-150035714D02*
X98064285Y-150073809D01*
X98178571Y-150111904D01*
X98254761Y-150111904D01*
X98369047Y-150073809D01*
X98445238Y-149997619D01*
X98483333Y-149921428D01*
X98521428Y-149769047D01*
X98521428Y-149654761D01*
X98483333Y-149502380D01*
X98445238Y-149426190D01*
X98369047Y-149350000D01*
X98254761Y-149311904D01*
X98178571Y-149311904D01*
X98064285Y-149350000D01*
X98026190Y-149388095D01*
X97683333Y-150111904D02*
X97683333Y-149311904D01*
X97683333Y-149692857D02*
X97226190Y-149692857D01*
X97226190Y-150111904D02*
X97226190Y-149311904D01*
X96883333Y-149883333D02*
X96502380Y-149883333D01*
X96959523Y-150111904D02*
X96692857Y-149311904D01*
X96426190Y-150111904D01*
X95702380Y-150111904D02*
X95969047Y-149730952D01*
X96159523Y-150111904D02*
X96159523Y-149311904D01*
X95854761Y-149311904D01*
X95778571Y-149350000D01*
X95740476Y-149388095D01*
X95702380Y-149464285D01*
X95702380Y-149578571D01*
X95740476Y-149654761D01*
X95778571Y-149692857D01*
X95854761Y-149730952D01*
X96159523Y-149730952D01*
X94940476Y-149350000D02*
X95016666Y-149311904D01*
X95130952Y-149311904D01*
X95245238Y-149350000D01*
X95321428Y-149426190D01*
X95359523Y-149502380D01*
X95397619Y-149654761D01*
X95397619Y-149769047D01*
X95359523Y-149921428D01*
X95321428Y-149997619D01*
X95245238Y-150073809D01*
X95130952Y-150111904D01*
X95054761Y-150111904D01*
X94940476Y-150073809D01*
X94902380Y-150035714D01*
X94902380Y-149769047D01*
X95054761Y-149769047D01*
X94559523Y-149692857D02*
X94292857Y-149692857D01*
X94178571Y-150111904D02*
X94559523Y-150111904D01*
X94559523Y-149311904D01*
X94178571Y-149311904D01*
X93835714Y-150111904D02*
X93835714Y-149311904D01*
X93645238Y-149311904D01*
X93530952Y-149350000D01*
X93454761Y-149426190D01*
X93416666Y-149502380D01*
X93378571Y-149654761D01*
X93378571Y-149769047D01*
X93416666Y-149921428D01*
X93454761Y-149997619D01*
X93530952Y-150073809D01*
X93645238Y-150111904D01*
X93835714Y-150111904D01*
X131325000Y-79161904D02*
X131325000Y-78361904D01*
X131515476Y-78361904D01*
X131629761Y-78400000D01*
X131705952Y-78476190D01*
X131744047Y-78552380D01*
X131782142Y-78704761D01*
X131782142Y-78819047D01*
X131744047Y-78971428D01*
X131705952Y-79047619D01*
X131629761Y-79123809D01*
X131515476Y-79161904D01*
X131325000Y-79161904D01*
X132125000Y-79161904D02*
X132125000Y-78628571D01*
X132125000Y-78361904D02*
X132086904Y-78400000D01*
X132125000Y-78438095D01*
X132163095Y-78400000D01*
X132125000Y-78361904D01*
X132125000Y-78438095D01*
X132467857Y-79123809D02*
X132544047Y-79161904D01*
X132696428Y-79161904D01*
X132772619Y-79123809D01*
X132810714Y-79047619D01*
X132810714Y-79009523D01*
X132772619Y-78933333D01*
X132696428Y-78895238D01*
X132582142Y-78895238D01*
X132505952Y-78857142D01*
X132467857Y-78780952D01*
X132467857Y-78742857D01*
X132505952Y-78666666D01*
X132582142Y-78628571D01*
X132696428Y-78628571D01*
X132772619Y-78666666D01*
X133496428Y-79161904D02*
X133496428Y-78742857D01*
X133458333Y-78666666D01*
X133382142Y-78628571D01*
X133229761Y-78628571D01*
X133153571Y-78666666D01*
X133496428Y-79123809D02*
X133420238Y-79161904D01*
X133229761Y-79161904D01*
X133153571Y-79123809D01*
X133115476Y-79047619D01*
X133115476Y-78971428D01*
X133153571Y-78895238D01*
X133229761Y-78857142D01*
X133420238Y-78857142D01*
X133496428Y-78819047D01*
X133877380Y-79161904D02*
X133877380Y-78361904D01*
X133877380Y-78666666D02*
X133953571Y-78628571D01*
X134105952Y-78628571D01*
X134182142Y-78666666D01*
X134220238Y-78704761D01*
X134258333Y-78780952D01*
X134258333Y-79009523D01*
X134220238Y-79085714D01*
X134182142Y-79123809D01*
X134105952Y-79161904D01*
X133953571Y-79161904D01*
X133877380Y-79123809D01*
X134715476Y-79161904D02*
X134639285Y-79123809D01*
X134601190Y-79047619D01*
X134601190Y-78361904D01*
X135325000Y-79123809D02*
X135248809Y-79161904D01*
X135096428Y-79161904D01*
X135020238Y-79123809D01*
X134982142Y-79047619D01*
X134982142Y-78742857D01*
X135020238Y-78666666D01*
X135096428Y-78628571D01*
X135248809Y-78628571D01*
X135325000Y-78666666D01*
X135363095Y-78742857D01*
X135363095Y-78819047D01*
X134982142Y-78895238D01*
X131229761Y-79711904D02*
X131496428Y-80511904D01*
X131763095Y-79711904D01*
X132144047Y-80511904D02*
X132067857Y-80473809D01*
X132029761Y-80435714D01*
X131991666Y-80359523D01*
X131991666Y-80130952D01*
X132029761Y-80054761D01*
X132067857Y-80016666D01*
X132144047Y-79978571D01*
X132258333Y-79978571D01*
X132334523Y-80016666D01*
X132372619Y-80054761D01*
X132410714Y-80130952D01*
X132410714Y-80359523D01*
X132372619Y-80435714D01*
X132334523Y-80473809D01*
X132258333Y-80511904D01*
X132144047Y-80511904D01*
X132867857Y-80511904D02*
X132791666Y-80473809D01*
X132753571Y-80397619D01*
X132753571Y-79711904D01*
X133782142Y-79978571D02*
X133782142Y-80778571D01*
X133782142Y-80016666D02*
X133858333Y-79978571D01*
X134010714Y-79978571D01*
X134086904Y-80016666D01*
X134125000Y-80054761D01*
X134163095Y-80130952D01*
X134163095Y-80359523D01*
X134125000Y-80435714D01*
X134086904Y-80473809D01*
X134010714Y-80511904D01*
X133858333Y-80511904D01*
X133782142Y-80473809D01*
X134620238Y-80511904D02*
X134544047Y-80473809D01*
X134505952Y-80435714D01*
X134467857Y-80359523D01*
X134467857Y-80130952D01*
X134505952Y-80054761D01*
X134544047Y-80016666D01*
X134620238Y-79978571D01*
X134734523Y-79978571D01*
X134810714Y-80016666D01*
X134848809Y-80054761D01*
X134886904Y-80130952D01*
X134886904Y-80359523D01*
X134848809Y-80435714D01*
X134810714Y-80473809D01*
X134734523Y-80511904D01*
X134620238Y-80511904D01*
X135115476Y-79978571D02*
X135420238Y-79978571D01*
X135229761Y-79711904D02*
X135229761Y-80397619D01*
X135267857Y-80473809D01*
X135344047Y-80511904D01*
X135420238Y-80511904D01*
X101967857Y-79311904D02*
X101586904Y-79311904D01*
X101548809Y-79692857D01*
X101586904Y-79654761D01*
X101663095Y-79616666D01*
X101853571Y-79616666D01*
X101929761Y-79654761D01*
X101967857Y-79692857D01*
X102005952Y-79769047D01*
X102005952Y-79959523D01*
X101967857Y-80035714D01*
X101929761Y-80073809D01*
X101853571Y-80111904D01*
X101663095Y-80111904D01*
X101586904Y-80073809D01*
X101548809Y-80035714D01*
X102272619Y-79578571D02*
X102463095Y-80111904D01*
X102653571Y-79578571D01*
X103529761Y-79883333D02*
X103910714Y-79883333D01*
X103453571Y-80111904D02*
X103720238Y-79311904D01*
X103986904Y-80111904D01*
X104253571Y-80111904D02*
X104253571Y-79578571D01*
X104253571Y-79654761D02*
X104291666Y-79616666D01*
X104367857Y-79578571D01*
X104482142Y-79578571D01*
X104558333Y-79616666D01*
X104596428Y-79692857D01*
X104596428Y-80111904D01*
X104596428Y-79692857D02*
X104634523Y-79616666D01*
X104710714Y-79578571D01*
X104825000Y-79578571D01*
X104901190Y-79616666D01*
X104939285Y-79692857D01*
X104939285Y-80111904D01*
X105320238Y-79578571D02*
X105320238Y-80378571D01*
X105320238Y-79616666D02*
X105396428Y-79578571D01*
X105548809Y-79578571D01*
X105625000Y-79616666D01*
X105663095Y-79654761D01*
X105701190Y-79730952D01*
X105701190Y-79959523D01*
X105663095Y-80035714D01*
X105625000Y-80073809D01*
X105548809Y-80111904D01*
X105396428Y-80111904D01*
X105320238Y-80073809D01*
X101796428Y-81423809D02*
X101910714Y-81461904D01*
X102101190Y-81461904D01*
X102177380Y-81423809D01*
X102215476Y-81385714D01*
X102253571Y-81309523D01*
X102253571Y-81233333D01*
X102215476Y-81157142D01*
X102177380Y-81119047D01*
X102101190Y-81080952D01*
X101948809Y-81042857D01*
X101872619Y-81004761D01*
X101834523Y-80966666D01*
X101796428Y-80890476D01*
X101796428Y-80814285D01*
X101834523Y-80738095D01*
X101872619Y-80700000D01*
X101948809Y-80661904D01*
X102139285Y-80661904D01*
X102253571Y-80700000D01*
X102939285Y-80928571D02*
X102939285Y-81461904D01*
X102596428Y-80928571D02*
X102596428Y-81347619D01*
X102634523Y-81423809D01*
X102710714Y-81461904D01*
X102825000Y-81461904D01*
X102901190Y-81423809D01*
X102939285Y-81385714D01*
X103320238Y-80928571D02*
X103320238Y-81728571D01*
X103320238Y-80966666D02*
X103396428Y-80928571D01*
X103548809Y-80928571D01*
X103625000Y-80966666D01*
X103663095Y-81004761D01*
X103701190Y-81080952D01*
X103701190Y-81309523D01*
X103663095Y-81385714D01*
X103625000Y-81423809D01*
X103548809Y-81461904D01*
X103396428Y-81461904D01*
X103320238Y-81423809D01*
X104044047Y-80928571D02*
X104044047Y-81728571D01*
X104044047Y-80966666D02*
X104120238Y-80928571D01*
X104272619Y-80928571D01*
X104348809Y-80966666D01*
X104386904Y-81004761D01*
X104425000Y-81080952D01*
X104425000Y-81309523D01*
X104386904Y-81385714D01*
X104348809Y-81423809D01*
X104272619Y-81461904D01*
X104120238Y-81461904D01*
X104044047Y-81423809D01*
X104882142Y-81461904D02*
X104805952Y-81423809D01*
X104767857Y-81347619D01*
X104767857Y-80661904D01*
X105110714Y-80928571D02*
X105301190Y-81461904D01*
X105491666Y-80928571D02*
X105301190Y-81461904D01*
X105225000Y-81652380D01*
X105186904Y-81690476D01*
X105110714Y-81728571D01*
X151128571Y-77200000D02*
X151052380Y-77161904D01*
X150938095Y-77161904D01*
X150823809Y-77200000D01*
X150747619Y-77276190D01*
X150709523Y-77352380D01*
X150671428Y-77504761D01*
X150671428Y-77619047D01*
X150709523Y-77771428D01*
X150747619Y-77847619D01*
X150823809Y-77923809D01*
X150938095Y-77961904D01*
X151014285Y-77961904D01*
X151128571Y-77923809D01*
X151166666Y-77885714D01*
X151166666Y-77619047D01*
X151014285Y-77619047D01*
X151509523Y-77961904D02*
X151509523Y-77161904D01*
X151814285Y-77161904D01*
X151890476Y-77200000D01*
X151928571Y-77238095D01*
X151966666Y-77314285D01*
X151966666Y-77428571D01*
X151928571Y-77504761D01*
X151890476Y-77542857D01*
X151814285Y-77580952D01*
X151509523Y-77580952D01*
X152576190Y-77542857D02*
X152690476Y-77580952D01*
X152728571Y-77619047D01*
X152766666Y-77695238D01*
X152766666Y-77809523D01*
X152728571Y-77885714D01*
X152690476Y-77923809D01*
X152614285Y-77961904D01*
X152309523Y-77961904D01*
X152309523Y-77161904D01*
X152576190Y-77161904D01*
X152652380Y-77200000D01*
X152690476Y-77238095D01*
X152728571Y-77314285D01*
X152728571Y-77390476D01*
X152690476Y-77466666D01*
X152652380Y-77504761D01*
X152576190Y-77542857D01*
X152309523Y-77542857D01*
X153033333Y-77161904D02*
X153566666Y-77161904D01*
X153223809Y-77961904D01*
X151078571Y-99100000D02*
X151002380Y-99061904D01*
X150888095Y-99061904D01*
X150773809Y-99100000D01*
X150697619Y-99176190D01*
X150659523Y-99252380D01*
X150621428Y-99404761D01*
X150621428Y-99519047D01*
X150659523Y-99671428D01*
X150697619Y-99747619D01*
X150773809Y-99823809D01*
X150888095Y-99861904D01*
X150964285Y-99861904D01*
X151078571Y-99823809D01*
X151116666Y-99785714D01*
X151116666Y-99519047D01*
X150964285Y-99519047D01*
X151459523Y-99861904D02*
X151459523Y-99061904D01*
X151764285Y-99061904D01*
X151840476Y-99100000D01*
X151878571Y-99138095D01*
X151916666Y-99214285D01*
X151916666Y-99328571D01*
X151878571Y-99404761D01*
X151840476Y-99442857D01*
X151764285Y-99480952D01*
X151459523Y-99480952D01*
X152526190Y-99442857D02*
X152640476Y-99480952D01*
X152678571Y-99519047D01*
X152716666Y-99595238D01*
X152716666Y-99709523D01*
X152678571Y-99785714D01*
X152640476Y-99823809D01*
X152564285Y-99861904D01*
X152259523Y-99861904D01*
X152259523Y-99061904D01*
X152526190Y-99061904D01*
X152602380Y-99100000D01*
X152640476Y-99138095D01*
X152678571Y-99214285D01*
X152678571Y-99290476D01*
X152640476Y-99366666D01*
X152602380Y-99404761D01*
X152526190Y-99442857D01*
X152259523Y-99442857D01*
X153211904Y-99061904D02*
X153288095Y-99061904D01*
X153364285Y-99100000D01*
X153402380Y-99138095D01*
X153440476Y-99214285D01*
X153478571Y-99366666D01*
X153478571Y-99557142D01*
X153440476Y-99709523D01*
X153402380Y-99785714D01*
X153364285Y-99823809D01*
X153288095Y-99861904D01*
X153211904Y-99861904D01*
X153135714Y-99823809D01*
X153097619Y-99785714D01*
X153059523Y-99709523D01*
X153021428Y-99557142D01*
X153021428Y-99366666D01*
X153059523Y-99214285D01*
X153097619Y-99138095D01*
X153135714Y-99100000D01*
X153211904Y-99061904D01*
X85395238Y-138107142D02*
X86004761Y-138107142D01*
X87945238Y-138107142D02*
X88554761Y-138107142D01*
X88250000Y-138411904D02*
X88250000Y-137802380D01*
X85692857Y-143692857D02*
X85807142Y-143730952D01*
X85845238Y-143769047D01*
X85883333Y-143845238D01*
X85883333Y-143959523D01*
X85845238Y-144035714D01*
X85807142Y-144073809D01*
X85730952Y-144111904D01*
X85426190Y-144111904D01*
X85426190Y-143311904D01*
X85692857Y-143311904D01*
X85769047Y-143350000D01*
X85807142Y-143388095D01*
X85845238Y-143464285D01*
X85845238Y-143540476D01*
X85807142Y-143616666D01*
X85769047Y-143654761D01*
X85692857Y-143692857D01*
X85426190Y-143692857D01*
X86569047Y-144111904D02*
X86569047Y-143692857D01*
X86530952Y-143616666D01*
X86454761Y-143578571D01*
X86302380Y-143578571D01*
X86226190Y-143616666D01*
X86569047Y-144073809D02*
X86492857Y-144111904D01*
X86302380Y-144111904D01*
X86226190Y-144073809D01*
X86188095Y-143997619D01*
X86188095Y-143921428D01*
X86226190Y-143845238D01*
X86302380Y-143807142D01*
X86492857Y-143807142D01*
X86569047Y-143769047D01*
X86835714Y-143578571D02*
X87140476Y-143578571D01*
X86950000Y-143311904D02*
X86950000Y-143997619D01*
X86988095Y-144073809D01*
X87064285Y-144111904D01*
X87140476Y-144111904D01*
X87292857Y-143578571D02*
X87597619Y-143578571D01*
X87407142Y-143311904D02*
X87407142Y-143997619D01*
X87445238Y-144073809D01*
X87521428Y-144111904D01*
X87597619Y-144111904D01*
X88169047Y-144073809D02*
X88092857Y-144111904D01*
X87940476Y-144111904D01*
X87864285Y-144073809D01*
X87826190Y-143997619D01*
X87826190Y-143692857D01*
X87864285Y-143616666D01*
X87940476Y-143578571D01*
X88092857Y-143578571D01*
X88169047Y-143616666D01*
X88207142Y-143692857D01*
X88207142Y-143769047D01*
X87826190Y-143845238D01*
X88550000Y-144111904D02*
X88550000Y-143578571D01*
X88550000Y-143730952D02*
X88588095Y-143654761D01*
X88626190Y-143616666D01*
X88702380Y-143578571D01*
X88778571Y-143578571D01*
X88969047Y-143578571D02*
X89159523Y-144111904D01*
X89350000Y-143578571D02*
X89159523Y-144111904D01*
X89083333Y-144302380D01*
X89045238Y-144340476D01*
X88969047Y-144378571D01*
D11*
X92561740Y-145355444D02*
X93241969Y-145023226D01*
X93130779Y-143987420D02*
G75*
G03X92570456Y-145255826I3562685J-2331795D01*
G01*
X92561740Y-145355444D02*
X92209786Y-144666717D01*
D10*
X96147619Y-147160714D02*
X96109523Y-147198809D01*
X95995238Y-147236904D01*
X95919047Y-147236904D01*
X95804761Y-147198809D01*
X95728571Y-147122619D01*
X95690476Y-147046428D01*
X95652380Y-146894047D01*
X95652380Y-146779761D01*
X95690476Y-146627380D01*
X95728571Y-146551190D01*
X95804761Y-146475000D01*
X95919047Y-146436904D01*
X95995238Y-146436904D01*
X96109523Y-146475000D01*
X96147619Y-146513095D01*
X96604761Y-147236904D02*
X96528571Y-147198809D01*
X96490476Y-147160714D01*
X96452380Y-147084523D01*
X96452380Y-146855952D01*
X96490476Y-146779761D01*
X96528571Y-146741666D01*
X96604761Y-146703571D01*
X96719047Y-146703571D01*
X96795238Y-146741666D01*
X96833333Y-146779761D01*
X96871428Y-146855952D01*
X96871428Y-147084523D01*
X96833333Y-147160714D01*
X96795238Y-147198809D01*
X96719047Y-147236904D01*
X96604761Y-147236904D01*
X97214285Y-146703571D02*
X97214285Y-147236904D01*
X97214285Y-146779761D02*
X97252380Y-146741666D01*
X97328571Y-146703571D01*
X97442857Y-146703571D01*
X97519047Y-146741666D01*
X97557142Y-146817857D01*
X97557142Y-147236904D01*
X97938095Y-146703571D02*
X97938095Y-147236904D01*
X97938095Y-146779761D02*
X97976190Y-146741666D01*
X98052380Y-146703571D01*
X98166666Y-146703571D01*
X98242857Y-146741666D01*
X98280952Y-146817857D01*
X98280952Y-147236904D01*
X98966666Y-147198809D02*
X98890476Y-147236904D01*
X98738095Y-147236904D01*
X98661904Y-147198809D01*
X98623809Y-147122619D01*
X98623809Y-146817857D01*
X98661904Y-146741666D01*
X98738095Y-146703571D01*
X98890476Y-146703571D01*
X98966666Y-146741666D01*
X99004761Y-146817857D01*
X99004761Y-146894047D01*
X98623809Y-146970238D01*
X99690476Y-147198809D02*
X99614285Y-147236904D01*
X99461904Y-147236904D01*
X99385714Y-147198809D01*
X99347619Y-147160714D01*
X99309523Y-147084523D01*
X99309523Y-146855952D01*
X99347619Y-146779761D01*
X99385714Y-146741666D01*
X99461904Y-146703571D01*
X99614285Y-146703571D01*
X99690476Y-146741666D01*
X99919047Y-146703571D02*
X100223809Y-146703571D01*
X100033333Y-146436904D02*
X100033333Y-147122619D01*
X100071428Y-147198809D01*
X100147619Y-147236904D01*
X100223809Y-147236904D01*
X96680952Y-148167857D02*
X96795238Y-148205952D01*
X96833333Y-148244047D01*
X96871428Y-148320238D01*
X96871428Y-148434523D01*
X96833333Y-148510714D01*
X96795238Y-148548809D01*
X96719047Y-148586904D01*
X96414285Y-148586904D01*
X96414285Y-147786904D01*
X96680952Y-147786904D01*
X96757142Y-147825000D01*
X96795238Y-147863095D01*
X96833333Y-147939285D01*
X96833333Y-148015476D01*
X96795238Y-148091666D01*
X96757142Y-148129761D01*
X96680952Y-148167857D01*
X96414285Y-148167857D01*
X97328571Y-148586904D02*
X97252380Y-148548809D01*
X97214285Y-148510714D01*
X97176190Y-148434523D01*
X97176190Y-148205952D01*
X97214285Y-148129761D01*
X97252380Y-148091666D01*
X97328571Y-148053571D01*
X97442857Y-148053571D01*
X97519047Y-148091666D01*
X97557142Y-148129761D01*
X97595238Y-148205952D01*
X97595238Y-148434523D01*
X97557142Y-148510714D01*
X97519047Y-148548809D01*
X97442857Y-148586904D01*
X97328571Y-148586904D01*
X98052380Y-148586904D02*
X97976190Y-148548809D01*
X97938095Y-148510714D01*
X97900000Y-148434523D01*
X97900000Y-148205952D01*
X97938095Y-148129761D01*
X97976190Y-148091666D01*
X98052380Y-148053571D01*
X98166666Y-148053571D01*
X98242857Y-148091666D01*
X98280952Y-148129761D01*
X98319047Y-148205952D01*
X98319047Y-148434523D01*
X98280952Y-148510714D01*
X98242857Y-148548809D01*
X98166666Y-148586904D01*
X98052380Y-148586904D01*
X98623809Y-148548809D02*
X98700000Y-148586904D01*
X98852380Y-148586904D01*
X98928571Y-148548809D01*
X98966666Y-148472619D01*
X98966666Y-148434523D01*
X98928571Y-148358333D01*
X98852380Y-148320238D01*
X98738095Y-148320238D01*
X98661904Y-148282142D01*
X98623809Y-148205952D01*
X98623809Y-148167857D01*
X98661904Y-148091666D01*
X98738095Y-148053571D01*
X98852380Y-148053571D01*
X98928571Y-148091666D01*
X99195238Y-148053571D02*
X99500000Y-148053571D01*
X99309523Y-147786904D02*
X99309523Y-148472619D01*
X99347619Y-148548809D01*
X99423809Y-148586904D01*
X99500000Y-148586904D01*
D11*
X112108215Y-140216587D02*
G75*
G03X110865917Y-141132185I1853992J-3816110D01*
G01*
X110865917Y-141132185D02*
X111621120Y-141184589D01*
X110865917Y-141132185D02*
X110905478Y-140359752D01*
X110498049Y-145099085D02*
G75*
G03X110095353Y-146946964I3855049J-1807921D01*
G01*
X110112717Y-147045443D02*
X109594500Y-146471276D01*
X110112717Y-147045443D02*
X110683783Y-146548489D01*
D10*
X93402380Y-149710714D02*
X93364285Y-149748809D01*
X93250000Y-149786904D01*
X93173809Y-149786904D01*
X93059523Y-149748809D01*
X92983333Y-149672619D01*
X92945238Y-149596428D01*
X92907142Y-149444047D01*
X92907142Y-149329761D01*
X92945238Y-149177380D01*
X92983333Y-149101190D01*
X93059523Y-149025000D01*
X93173809Y-148986904D01*
X93250000Y-148986904D01*
X93364285Y-149025000D01*
X93402380Y-149063095D01*
X93745238Y-149786904D02*
X93745238Y-148986904D01*
X94088095Y-149786904D02*
X94088095Y-149367857D01*
X94050000Y-149291666D01*
X93973809Y-149253571D01*
X93859523Y-149253571D01*
X93783333Y-149291666D01*
X93745238Y-149329761D01*
X94811904Y-149786904D02*
X94811904Y-149367857D01*
X94773809Y-149291666D01*
X94697619Y-149253571D01*
X94545238Y-149253571D01*
X94469047Y-149291666D01*
X94811904Y-149748809D02*
X94735714Y-149786904D01*
X94545238Y-149786904D01*
X94469047Y-149748809D01*
X94430952Y-149672619D01*
X94430952Y-149596428D01*
X94469047Y-149520238D01*
X94545238Y-149482142D01*
X94735714Y-149482142D01*
X94811904Y-149444047D01*
X95192857Y-149786904D02*
X95192857Y-149253571D01*
X95192857Y-149405952D02*
X95230952Y-149329761D01*
X95269047Y-149291666D01*
X95345238Y-149253571D01*
X95421428Y-149253571D01*
X96030952Y-149253571D02*
X96030952Y-149901190D01*
X95992857Y-149977380D01*
X95954761Y-150015476D01*
X95878571Y-150053571D01*
X95764285Y-150053571D01*
X95688095Y-150015476D01*
X96030952Y-149748809D02*
X95954761Y-149786904D01*
X95802380Y-149786904D01*
X95726190Y-149748809D01*
X95688095Y-149710714D01*
X95650000Y-149634523D01*
X95650000Y-149405952D01*
X95688095Y-149329761D01*
X95726190Y-149291666D01*
X95802380Y-149253571D01*
X95954761Y-149253571D01*
X96030952Y-149291666D01*
X96716666Y-149748809D02*
X96640476Y-149786904D01*
X96488095Y-149786904D01*
X96411904Y-149748809D01*
X96373809Y-149672619D01*
X96373809Y-149367857D01*
X96411904Y-149291666D01*
X96488095Y-149253571D01*
X96640476Y-149253571D01*
X96716666Y-149291666D01*
X96754761Y-149367857D01*
X96754761Y-149444047D01*
X96373809Y-149520238D01*
X98088095Y-149786904D02*
X97707142Y-149786904D01*
X97707142Y-148986904D01*
X98354761Y-149367857D02*
X98621428Y-149367857D01*
X98735714Y-149786904D02*
X98354761Y-149786904D01*
X98354761Y-148986904D01*
X98735714Y-148986904D01*
X99078571Y-149786904D02*
X99078571Y-148986904D01*
X99269047Y-148986904D01*
X99383333Y-149025000D01*
X99459523Y-149101190D01*
X99497619Y-149177380D01*
X99535714Y-149329761D01*
X99535714Y-149444047D01*
X99497619Y-149596428D01*
X99459523Y-149672619D01*
X99383333Y-149748809D01*
X99269047Y-149786904D01*
X99078571Y-149786904D01*
X99840476Y-149748809D02*
X99916666Y-149786904D01*
X100069047Y-149786904D01*
X100145238Y-149748809D01*
X100183333Y-149672619D01*
X100183333Y-149634523D01*
X100145238Y-149558333D01*
X100069047Y-149520238D01*
X99954761Y-149520238D01*
X99878571Y-149482142D01*
X99840476Y-149405952D01*
X99840476Y-149367857D01*
X99878571Y-149291666D01*
X99954761Y-149253571D01*
X100069047Y-149253571D01*
X100145238Y-149291666D01*
X95040476Y-150717857D02*
X95307142Y-150717857D01*
X95421428Y-151136904D02*
X95040476Y-151136904D01*
X95040476Y-150336904D01*
X95421428Y-150336904D01*
X95764285Y-150603571D02*
X95764285Y-151136904D01*
X95764285Y-150679761D02*
X95802380Y-150641666D01*
X95878571Y-150603571D01*
X95992857Y-150603571D01*
X96069047Y-150641666D01*
X96107142Y-150717857D01*
X96107142Y-151136904D01*
X96830952Y-151136904D02*
X96830952Y-150717857D01*
X96792857Y-150641666D01*
X96716666Y-150603571D01*
X96564285Y-150603571D01*
X96488095Y-150641666D01*
X96830952Y-151098809D02*
X96754761Y-151136904D01*
X96564285Y-151136904D01*
X96488095Y-151098809D01*
X96450000Y-151022619D01*
X96450000Y-150946428D01*
X96488095Y-150870238D01*
X96564285Y-150832142D01*
X96754761Y-150832142D01*
X96830952Y-150794047D01*
X97211904Y-151136904D02*
X97211904Y-150336904D01*
X97211904Y-150641666D02*
X97288095Y-150603571D01*
X97440476Y-150603571D01*
X97516666Y-150641666D01*
X97554761Y-150679761D01*
X97592857Y-150755952D01*
X97592857Y-150984523D01*
X97554761Y-151060714D01*
X97516666Y-151098809D01*
X97440476Y-151136904D01*
X97288095Y-151136904D01*
X97211904Y-151098809D01*
X98050000Y-151136904D02*
X97973809Y-151098809D01*
X97935714Y-151022619D01*
X97935714Y-150336904D01*
X98659523Y-151098809D02*
X98583333Y-151136904D01*
X98430952Y-151136904D01*
X98354761Y-151098809D01*
X98316666Y-151022619D01*
X98316666Y-150717857D01*
X98354761Y-150641666D01*
X98430952Y-150603571D01*
X98583333Y-150603571D01*
X98659523Y-150641666D01*
X98697619Y-150717857D01*
X98697619Y-150794047D01*
X98316666Y-150870238D01*
D12*
X124300000Y-137230000D02*
X124410000Y-136750000D01*
X123980000Y-137220000D02*
X124130000Y-136620000D01*
X123520000Y-136780000D02*
X124490000Y-137010000D01*
D10*
X123923809Y-141509523D02*
X123961904Y-141395238D01*
X123961904Y-141204761D01*
X123923809Y-141128571D01*
X123885714Y-141090476D01*
X123809523Y-141052380D01*
X123733333Y-141052380D01*
X123657142Y-141090476D01*
X123619047Y-141128571D01*
X123580952Y-141204761D01*
X123542857Y-141357142D01*
X123504761Y-141433333D01*
X123466666Y-141471428D01*
X123390476Y-141509523D01*
X123314285Y-141509523D01*
X123238095Y-141471428D01*
X123200000Y-141433333D01*
X123161904Y-141357142D01*
X123161904Y-141166666D01*
X123200000Y-141052380D01*
X123428571Y-140709523D02*
X124228571Y-140709523D01*
X123466666Y-140709523D02*
X123428571Y-140633333D01*
X123428571Y-140480952D01*
X123466666Y-140404761D01*
X123504761Y-140366666D01*
X123580952Y-140328571D01*
X123809523Y-140328571D01*
X123885714Y-140366666D01*
X123923809Y-140404761D01*
X123961904Y-140480952D01*
X123961904Y-140633333D01*
X123923809Y-140709523D01*
X123923809Y-139680952D02*
X123961904Y-139757142D01*
X123961904Y-139909523D01*
X123923809Y-139985714D01*
X123847619Y-140023809D01*
X123542857Y-140023809D01*
X123466666Y-139985714D01*
X123428571Y-139909523D01*
X123428571Y-139757142D01*
X123466666Y-139680952D01*
X123542857Y-139642857D01*
X123619047Y-139642857D01*
X123695238Y-140023809D01*
X123961904Y-138957142D02*
X123542857Y-138957142D01*
X123466666Y-138995238D01*
X123428571Y-139071428D01*
X123428571Y-139223809D01*
X123466666Y-139300000D01*
X123923809Y-138957142D02*
X123961904Y-139033333D01*
X123961904Y-139223809D01*
X123923809Y-139300000D01*
X123847619Y-139338095D01*
X123771428Y-139338095D01*
X123695238Y-139300000D01*
X123657142Y-139223809D01*
X123657142Y-139033333D01*
X123619047Y-138957142D01*
X123961904Y-138576190D02*
X123161904Y-138576190D01*
X123657142Y-138500000D02*
X123961904Y-138271428D01*
X123428571Y-138271428D02*
X123733333Y-138576190D01*
X123923809Y-137623809D02*
X123961904Y-137700000D01*
X123961904Y-137852380D01*
X123923809Y-137928571D01*
X123847619Y-137966666D01*
X123542857Y-137966666D01*
X123466666Y-137928571D01*
X123428571Y-137852380D01*
X123428571Y-137700000D01*
X123466666Y-137623809D01*
X123542857Y-137585714D01*
X123619047Y-137585714D01*
X123695238Y-137966666D01*
X123961904Y-137242857D02*
X123428571Y-137242857D01*
X123580952Y-137242857D02*
X123504761Y-137204761D01*
X123466666Y-137166666D01*
X123428571Y-137090476D01*
X123428571Y-137014285D01*
X123200122Y-97203687D02*
X123447741Y-96774798D01*
X123578339Y-97158119D01*
X123635482Y-97059145D01*
X123706569Y-97012209D01*
X123758608Y-96998266D01*
X123843638Y-97003369D01*
X124008595Y-97098607D01*
X124055531Y-97169694D01*
X124069474Y-97221733D01*
X124064371Y-97306764D01*
X123950085Y-97504712D01*
X123878998Y-97551648D01*
X123826959Y-97565591D01*
X124246007Y-96839780D02*
X124298046Y-96825836D01*
X124311990Y-96877875D01*
X124259951Y-96891819D01*
X124246007Y-96839780D01*
X124311990Y-96877875D01*
X123771550Y-96213943D02*
X124019169Y-95785055D01*
X124149768Y-96168376D01*
X124206910Y-96069401D01*
X124277997Y-96022466D01*
X124330036Y-96008522D01*
X124415067Y-96013626D01*
X124580024Y-96108864D01*
X124626959Y-96179951D01*
X124640903Y-96231990D01*
X124635799Y-96317020D01*
X124521513Y-96514969D01*
X124450427Y-96561904D01*
X124398388Y-96575848D01*
X124133455Y-95587106D02*
X124959609Y-95756166D01*
X124400122Y-95125226D01*
X121148827Y-96477863D02*
X121077741Y-96524798D01*
X121020598Y-96623772D01*
X120996446Y-96741794D01*
X121024334Y-96845872D01*
X121071269Y-96916959D01*
X121184188Y-97026141D01*
X121283162Y-97083284D01*
X121434175Y-97126483D01*
X121519206Y-97131587D01*
X121623284Y-97103699D01*
X121713418Y-97023772D01*
X121751513Y-96957789D01*
X121775665Y-96839767D01*
X121761721Y-96787728D01*
X121530781Y-96654395D01*
X121454590Y-96786361D01*
X121999133Y-96528901D02*
X121306312Y-96128901D01*
X122227704Y-96133003D01*
X121534884Y-95733003D01*
X122418180Y-95803089D02*
X121725360Y-95403089D01*
X121820598Y-95238132D01*
X121910732Y-95158205D01*
X122014810Y-95130317D01*
X122099841Y-95135421D01*
X122250854Y-95178620D01*
X122349829Y-95235763D01*
X122462747Y-95344945D01*
X122509682Y-95416031D01*
X122537570Y-95520110D01*
X122513418Y-95638132D01*
X122418180Y-95803089D01*
X119630769Y-96008327D02*
X119644712Y-96060366D01*
X119620561Y-96178388D01*
X119582466Y-96244371D01*
X119492332Y-96324297D01*
X119388253Y-96352185D01*
X119303223Y-96347081D01*
X119152210Y-96303882D01*
X119053235Y-96246739D01*
X118940317Y-96137557D01*
X118893382Y-96066471D01*
X118865494Y-95962393D01*
X118889646Y-95844371D01*
X118927741Y-95778388D01*
X119017875Y-95698461D01*
X119069914Y-95684517D01*
X119816141Y-95763443D02*
X119906275Y-95683516D01*
X120001513Y-95518559D01*
X120006617Y-95433528D01*
X119992673Y-95381489D01*
X119945738Y-95310403D01*
X119879755Y-95272307D01*
X119794725Y-95267204D01*
X119742686Y-95281147D01*
X119671599Y-95328083D01*
X119562417Y-95441001D01*
X119491330Y-95487936D01*
X119439291Y-95501880D01*
X119354261Y-95496776D01*
X119288278Y-95458681D01*
X119241343Y-95387594D01*
X119227399Y-95335555D01*
X119232503Y-95250525D01*
X119327741Y-95085567D01*
X119417875Y-95005641D01*
X116032466Y-98187191D02*
X115569218Y-98227655D01*
X115803894Y-98583088D02*
X115111074Y-98183088D01*
X115263455Y-97919157D01*
X115334542Y-97872221D01*
X115386581Y-97858278D01*
X115471611Y-97863381D01*
X115570586Y-97920524D01*
X115617521Y-97991611D01*
X115631465Y-98043650D01*
X115626361Y-98128681D01*
X115473980Y-98392612D01*
X115840989Y-97680744D02*
X115974322Y-97449804D01*
X116394371Y-97560353D02*
X116203894Y-97890268D01*
X115511074Y-97490268D01*
X115701550Y-97160353D01*
X116513760Y-97277374D02*
X116603894Y-97197448D01*
X116699133Y-97032490D01*
X116704236Y-96947460D01*
X116690292Y-96895421D01*
X116643357Y-96824334D01*
X116577374Y-96786239D01*
X116492344Y-96781135D01*
X116440305Y-96795079D01*
X116369218Y-96842014D01*
X116260036Y-96954932D01*
X116188949Y-97001868D01*
X116136910Y-97015811D01*
X116051880Y-97010708D01*
X115985897Y-96972612D01*
X115938962Y-96901526D01*
X115925018Y-96849487D01*
X115930122Y-96764456D01*
X116025360Y-96599499D01*
X116115494Y-96519572D01*
X116583846Y-96394078D02*
X116717179Y-96163138D01*
X117137228Y-96273687D02*
X116946752Y-96603602D01*
X116253931Y-96203602D01*
X116444407Y-95873687D01*
X116558693Y-95675739D02*
X116787265Y-95279841D01*
X117365799Y-95877790D02*
X116672979Y-95477790D01*
X114408656Y-96558815D02*
X113715836Y-96158815D01*
X113811074Y-95993858D01*
X113901208Y-95913931D01*
X114005287Y-95886043D01*
X114090317Y-95891147D01*
X114241330Y-95934346D01*
X114340305Y-95991489D01*
X114453223Y-96100671D01*
X114500158Y-96171758D01*
X114528046Y-96275836D01*
X114503894Y-96393858D01*
X114408656Y-96558815D01*
X114971245Y-95432002D02*
X114985189Y-95484041D01*
X114961037Y-95602063D01*
X114922942Y-95668046D01*
X114832808Y-95747973D01*
X114728730Y-95775860D01*
X114643699Y-95770757D01*
X114492686Y-95727558D01*
X114393711Y-95670415D01*
X114280793Y-95561233D01*
X114233858Y-95490146D01*
X114205970Y-95386068D01*
X114230122Y-95268046D01*
X114268217Y-95202063D01*
X114358351Y-95122136D01*
X114410390Y-95108193D01*
X110784847Y-97894670D02*
X110092026Y-97494670D01*
X110720231Y-97549444D01*
X110358693Y-97032789D01*
X111051513Y-97432789D01*
X110625360Y-96570909D02*
X110701550Y-96438943D01*
X110772637Y-96392008D01*
X110876715Y-96364120D01*
X111027728Y-96407319D01*
X111258669Y-96540653D01*
X111371587Y-96649835D01*
X111399474Y-96753913D01*
X111394371Y-96838943D01*
X111318180Y-96970909D01*
X111247093Y-97017844D01*
X111143015Y-97045732D01*
X110992002Y-97002533D01*
X110761062Y-96869200D01*
X110648144Y-96760018D01*
X110620256Y-96655940D01*
X110625360Y-96570909D01*
X111608998Y-96391007D02*
X111699133Y-96311080D01*
X111794371Y-96146123D01*
X111799474Y-96061092D01*
X111785531Y-96009053D01*
X111738595Y-95937967D01*
X111672612Y-95899872D01*
X111587582Y-95894768D01*
X111535543Y-95908712D01*
X111464456Y-95955647D01*
X111355274Y-96068565D01*
X111284188Y-96115500D01*
X111232148Y-96129444D01*
X111147118Y-96124340D01*
X111081135Y-96086245D01*
X111034200Y-96015158D01*
X111020256Y-95963119D01*
X111025360Y-95878089D01*
X111120598Y-95713132D01*
X111210732Y-95633205D01*
X112041990Y-95717234D02*
X111349169Y-95317234D01*
X108716141Y-97402673D02*
X108806275Y-97322747D01*
X108901513Y-97157789D01*
X108906617Y-97072759D01*
X108892673Y-97020720D01*
X108845738Y-96949633D01*
X108779755Y-96911538D01*
X108694725Y-96906434D01*
X108642686Y-96920378D01*
X108571599Y-96967313D01*
X108462417Y-97080231D01*
X108391330Y-97127167D01*
X108339291Y-97141110D01*
X108254261Y-97136007D01*
X108188278Y-97097911D01*
X108141343Y-97026825D01*
X108127399Y-96974786D01*
X108132503Y-96889755D01*
X108227741Y-96724798D01*
X108317875Y-96644871D01*
X109311721Y-96294908D02*
X109325665Y-96346947D01*
X109301513Y-96464969D01*
X109263418Y-96530952D01*
X109173284Y-96610879D01*
X109069206Y-96638766D01*
X108984175Y-96633662D01*
X108833162Y-96590463D01*
X108734188Y-96533321D01*
X108621269Y-96424139D01*
X108574334Y-96353052D01*
X108546446Y-96248974D01*
X108570598Y-96130952D01*
X108608693Y-96064969D01*
X108698827Y-95985042D01*
X108750866Y-95971098D01*
X109549133Y-96036080D02*
X108856312Y-95636080D01*
X109777704Y-95640183D02*
X109210378Y-95708534D01*
X109084884Y-95240183D02*
X109252210Y-95864652D01*
X106656275Y-96676336D02*
X106465799Y-97006251D01*
X105772979Y-96606251D01*
X106426703Y-96235872D02*
X106560036Y-96004932D01*
X106980085Y-96115482D02*
X106789609Y-96445396D01*
X106096788Y-96045396D01*
X106287265Y-95715482D01*
X107151513Y-95818559D02*
X106458693Y-95418559D01*
X106553931Y-95253602D01*
X106644066Y-95173675D01*
X106748144Y-95145787D01*
X106833174Y-95150891D01*
X106984188Y-95194090D01*
X107083162Y-95251233D01*
X107196080Y-95360415D01*
X107243015Y-95431502D01*
X107270903Y-95535580D01*
X107246752Y-95653602D01*
X107151513Y-95818559D01*
X103534847Y-97669670D02*
X102842026Y-97269670D01*
X103470231Y-97324444D01*
X103108693Y-96807789D01*
X103801513Y-97207789D01*
X103991990Y-96877875D02*
X103299169Y-96477875D01*
X104130427Y-96561904D02*
X104220561Y-96481978D01*
X104315799Y-96317020D01*
X104320903Y-96231990D01*
X104306959Y-96179951D01*
X104260024Y-96108864D01*
X104194041Y-96070769D01*
X104109010Y-96065665D01*
X104056971Y-96079609D01*
X103985885Y-96126544D01*
X103876703Y-96239462D01*
X103805616Y-96286398D01*
X103753577Y-96300341D01*
X103668547Y-96295238D01*
X103602564Y-96257142D01*
X103555628Y-96186056D01*
X103541685Y-96134017D01*
X103546788Y-96048986D01*
X103642026Y-95884029D01*
X103732161Y-95804102D01*
X103946788Y-95356166D02*
X104022979Y-95224200D01*
X104094066Y-95177265D01*
X104198144Y-95149377D01*
X104349157Y-95192576D01*
X104580097Y-95325909D01*
X104693015Y-95435091D01*
X104720903Y-95539169D01*
X104715799Y-95624200D01*
X104639609Y-95756166D01*
X104568522Y-95803101D01*
X104464444Y-95830989D01*
X104313430Y-95787790D01*
X104082490Y-95654456D01*
X103969572Y-95545274D01*
X103941685Y-95441196D01*
X103946788Y-95356166D01*
X81842857Y-82017857D02*
X82109523Y-82017857D01*
X82223809Y-82436904D02*
X81842857Y-82436904D01*
X81842857Y-81636904D01*
X82223809Y-81636904D01*
X82490476Y-81636904D02*
X83023809Y-82436904D01*
X83023809Y-81636904D02*
X82490476Y-82436904D01*
X83214285Y-81636904D02*
X83671428Y-81636904D01*
X83442857Y-82436904D02*
X83442857Y-81636904D01*
X80852380Y-83786904D02*
X80852380Y-82986904D01*
X81157142Y-82986904D01*
X81233333Y-83025000D01*
X81271428Y-83063095D01*
X81309523Y-83139285D01*
X81309523Y-83253571D01*
X81271428Y-83329761D01*
X81233333Y-83367857D01*
X81157142Y-83405952D01*
X80852380Y-83405952D01*
X81804761Y-82986904D02*
X81957142Y-82986904D01*
X82033333Y-83025000D01*
X82109523Y-83101190D01*
X82147619Y-83253571D01*
X82147619Y-83520238D01*
X82109523Y-83672619D01*
X82033333Y-83748809D01*
X81957142Y-83786904D01*
X81804761Y-83786904D01*
X81728571Y-83748809D01*
X81652380Y-83672619D01*
X81614285Y-83520238D01*
X81614285Y-83253571D01*
X81652380Y-83101190D01*
X81728571Y-83025000D01*
X81804761Y-82986904D01*
X82414285Y-82986904D02*
X82604761Y-83786904D01*
X82757142Y-83215476D01*
X82909523Y-83786904D01*
X83100000Y-82986904D01*
X83404761Y-83367857D02*
X83671428Y-83367857D01*
X83785714Y-83786904D02*
X83404761Y-83786904D01*
X83404761Y-82986904D01*
X83785714Y-82986904D01*
X84585714Y-83786904D02*
X84319047Y-83405952D01*
X84128571Y-83786904D02*
X84128571Y-82986904D01*
X84433333Y-82986904D01*
X84509523Y-83025000D01*
X84547619Y-83063095D01*
X84585714Y-83139285D01*
X84585714Y-83253571D01*
X84547619Y-83329761D01*
X84509523Y-83367857D01*
X84433333Y-83405952D01*
X84128571Y-83405952D01*
X80700000Y-85098809D02*
X80814285Y-85136904D01*
X81004761Y-85136904D01*
X81080952Y-85098809D01*
X81119047Y-85060714D01*
X81157142Y-84984523D01*
X81157142Y-84908333D01*
X81119047Y-84832142D01*
X81080952Y-84794047D01*
X81004761Y-84755952D01*
X80852380Y-84717857D01*
X80776190Y-84679761D01*
X80738095Y-84641666D01*
X80700000Y-84565476D01*
X80700000Y-84489285D01*
X80738095Y-84413095D01*
X80776190Y-84375000D01*
X80852380Y-84336904D01*
X81042857Y-84336904D01*
X81157142Y-84375000D01*
X81423809Y-84336904D02*
X81614285Y-85136904D01*
X81766666Y-84565476D01*
X81919047Y-85136904D01*
X82109523Y-84336904D01*
X82414285Y-85136904D02*
X82414285Y-84336904D01*
X82680952Y-84336904D02*
X83138095Y-84336904D01*
X82909523Y-85136904D02*
X82909523Y-84336904D01*
X83861904Y-85060714D02*
X83823809Y-85098809D01*
X83709523Y-85136904D01*
X83633333Y-85136904D01*
X83519047Y-85098809D01*
X83442857Y-85022619D01*
X83404761Y-84946428D01*
X83366666Y-84794047D01*
X83366666Y-84679761D01*
X83404761Y-84527380D01*
X83442857Y-84451190D01*
X83519047Y-84375000D01*
X83633333Y-84336904D01*
X83709523Y-84336904D01*
X83823809Y-84375000D01*
X83861904Y-84413095D01*
X84204761Y-85136904D02*
X84204761Y-84336904D01*
X84204761Y-84717857D02*
X84661904Y-84717857D01*
X84661904Y-85136904D02*
X84661904Y-84336904D01*
X123485714Y-100775000D02*
X123409523Y-100736904D01*
X123295238Y-100736904D01*
X123180952Y-100775000D01*
X123104761Y-100851190D01*
X123066666Y-100927380D01*
X123028571Y-101079761D01*
X123028571Y-101194047D01*
X123066666Y-101346428D01*
X123104761Y-101422619D01*
X123180952Y-101498809D01*
X123295238Y-101536904D01*
X123371428Y-101536904D01*
X123485714Y-101498809D01*
X123523809Y-101460714D01*
X123523809Y-101194047D01*
X123371428Y-101194047D01*
X123866666Y-101536904D02*
X123866666Y-100736904D01*
X124171428Y-100736904D01*
X124247619Y-100775000D01*
X124285714Y-100813095D01*
X124323809Y-100889285D01*
X124323809Y-101003571D01*
X124285714Y-101079761D01*
X124247619Y-101117857D01*
X124171428Y-101155952D01*
X123866666Y-101155952D01*
X124666666Y-101536904D02*
X124666666Y-100736904D01*
X125200000Y-100736904D02*
X125352380Y-100736904D01*
X125428571Y-100775000D01*
X125504761Y-100851190D01*
X125542857Y-101003571D01*
X125542857Y-101270238D01*
X125504761Y-101422619D01*
X125428571Y-101498809D01*
X125352380Y-101536904D01*
X125200000Y-101536904D01*
X125123809Y-101498809D01*
X125047619Y-101422619D01*
X125009523Y-101270238D01*
X125009523Y-101003571D01*
X125047619Y-100851190D01*
X125123809Y-100775000D01*
X125200000Y-100736904D01*
X126495238Y-101117857D02*
X126761904Y-101117857D01*
X126876190Y-101536904D02*
X126495238Y-101536904D01*
X126495238Y-100736904D01*
X126876190Y-100736904D01*
X127142857Y-101536904D02*
X127561904Y-101003571D01*
X127142857Y-101003571D02*
X127561904Y-101536904D01*
X127866666Y-101003571D02*
X127866666Y-101803571D01*
X127866666Y-101041666D02*
X127942857Y-101003571D01*
X128095238Y-101003571D01*
X128171428Y-101041666D01*
X128209523Y-101079761D01*
X128247619Y-101155952D01*
X128247619Y-101384523D01*
X128209523Y-101460714D01*
X128171428Y-101498809D01*
X128095238Y-101536904D01*
X127942857Y-101536904D01*
X127866666Y-101498809D01*
X128933333Y-101536904D02*
X128933333Y-101117857D01*
X128895238Y-101041666D01*
X128819047Y-101003571D01*
X128666666Y-101003571D01*
X128590476Y-101041666D01*
X128933333Y-101498809D02*
X128857142Y-101536904D01*
X128666666Y-101536904D01*
X128590476Y-101498809D01*
X128552380Y-101422619D01*
X128552380Y-101346428D01*
X128590476Y-101270238D01*
X128666666Y-101232142D01*
X128857142Y-101232142D01*
X128933333Y-101194047D01*
X129314285Y-101003571D02*
X129314285Y-101536904D01*
X129314285Y-101079761D02*
X129352380Y-101041666D01*
X129428571Y-101003571D01*
X129542857Y-101003571D01*
X129619047Y-101041666D01*
X129657142Y-101117857D01*
X129657142Y-101536904D01*
X130000000Y-101498809D02*
X130076190Y-101536904D01*
X130228571Y-101536904D01*
X130304761Y-101498809D01*
X130342857Y-101422619D01*
X130342857Y-101384523D01*
X130304761Y-101308333D01*
X130228571Y-101270238D01*
X130114285Y-101270238D01*
X130038095Y-101232142D01*
X130000000Y-101155952D01*
X130000000Y-101117857D01*
X130038095Y-101041666D01*
X130114285Y-101003571D01*
X130228571Y-101003571D01*
X130304761Y-101041666D01*
X130685714Y-101536904D02*
X130685714Y-101003571D01*
X130685714Y-100736904D02*
X130647619Y-100775000D01*
X130685714Y-100813095D01*
X130723809Y-100775000D01*
X130685714Y-100736904D01*
X130685714Y-100813095D01*
X131180952Y-101536904D02*
X131104761Y-101498809D01*
X131066666Y-101460714D01*
X131028571Y-101384523D01*
X131028571Y-101155952D01*
X131066666Y-101079761D01*
X131104761Y-101041666D01*
X131180952Y-101003571D01*
X131295238Y-101003571D01*
X131371428Y-101041666D01*
X131409523Y-101079761D01*
X131447619Y-101155952D01*
X131447619Y-101384523D01*
X131409523Y-101460714D01*
X131371428Y-101498809D01*
X131295238Y-101536904D01*
X131180952Y-101536904D01*
X131790476Y-101003571D02*
X131790476Y-101536904D01*
X131790476Y-101079761D02*
X131828571Y-101041666D01*
X131904761Y-101003571D01*
X132019047Y-101003571D01*
X132095238Y-101041666D01*
X132133333Y-101117857D01*
X132133333Y-101536904D01*
X126400000Y-102467857D02*
X126666666Y-102467857D01*
X126780952Y-102886904D02*
X126400000Y-102886904D01*
X126400000Y-102086904D01*
X126780952Y-102086904D01*
X127123809Y-102353571D02*
X127123809Y-102886904D01*
X127123809Y-102429761D02*
X127161904Y-102391666D01*
X127238095Y-102353571D01*
X127352380Y-102353571D01*
X127428571Y-102391666D01*
X127466666Y-102467857D01*
X127466666Y-102886904D01*
X128190476Y-102886904D02*
X128190476Y-102467857D01*
X128152380Y-102391666D01*
X128076190Y-102353571D01*
X127923809Y-102353571D01*
X127847619Y-102391666D01*
X128190476Y-102848809D02*
X128114285Y-102886904D01*
X127923809Y-102886904D01*
X127847619Y-102848809D01*
X127809523Y-102772619D01*
X127809523Y-102696428D01*
X127847619Y-102620238D01*
X127923809Y-102582142D01*
X128114285Y-102582142D01*
X128190476Y-102544047D01*
X128571428Y-102886904D02*
X128571428Y-102086904D01*
X128571428Y-102391666D02*
X128647619Y-102353571D01*
X128800000Y-102353571D01*
X128876190Y-102391666D01*
X128914285Y-102429761D01*
X128952380Y-102505952D01*
X128952380Y-102734523D01*
X128914285Y-102810714D01*
X128876190Y-102848809D01*
X128800000Y-102886904D01*
X128647619Y-102886904D01*
X128571428Y-102848809D01*
X129409523Y-102886904D02*
X129333333Y-102848809D01*
X129295238Y-102772619D01*
X129295238Y-102086904D01*
X130019047Y-102848809D02*
X129942857Y-102886904D01*
X129790476Y-102886904D01*
X129714285Y-102848809D01*
X129676190Y-102772619D01*
X129676190Y-102467857D01*
X129714285Y-102391666D01*
X129790476Y-102353571D01*
X129942857Y-102353571D01*
X130019047Y-102391666D01*
X130057142Y-102467857D01*
X130057142Y-102544047D01*
X129676190Y-102620238D01*
X124533333Y-104198809D02*
X124647619Y-104236904D01*
X124838095Y-104236904D01*
X124914285Y-104198809D01*
X124952380Y-104160714D01*
X124990476Y-104084523D01*
X124990476Y-104008333D01*
X124952380Y-103932142D01*
X124914285Y-103894047D01*
X124838095Y-103855952D01*
X124685714Y-103817857D01*
X124609523Y-103779761D01*
X124571428Y-103741666D01*
X124533333Y-103665476D01*
X124533333Y-103589285D01*
X124571428Y-103513095D01*
X124609523Y-103475000D01*
X124685714Y-103436904D01*
X124876190Y-103436904D01*
X124990476Y-103475000D01*
X125333333Y-104236904D02*
X125333333Y-103436904D01*
X125523809Y-103436904D01*
X125638095Y-103475000D01*
X125714285Y-103551190D01*
X125752380Y-103627380D01*
X125790476Y-103779761D01*
X125790476Y-103894047D01*
X125752380Y-104046428D01*
X125714285Y-104122619D01*
X125638095Y-104198809D01*
X125523809Y-104236904D01*
X125333333Y-104236904D01*
X126095238Y-104008333D02*
X126476190Y-104008333D01*
X126019047Y-104236904D02*
X126285714Y-103436904D01*
X126552380Y-104236904D01*
X129219047Y-104198809D02*
X129333333Y-104236904D01*
X129523809Y-104236904D01*
X129600000Y-104198809D01*
X129638095Y-104160714D01*
X129676190Y-104084523D01*
X129676190Y-104008333D01*
X129638095Y-103932142D01*
X129600000Y-103894047D01*
X129523809Y-103855952D01*
X129371428Y-103817857D01*
X129295238Y-103779761D01*
X129257142Y-103741666D01*
X129219047Y-103665476D01*
X129219047Y-103589285D01*
X129257142Y-103513095D01*
X129295238Y-103475000D01*
X129371428Y-103436904D01*
X129561904Y-103436904D01*
X129676190Y-103475000D01*
X130476190Y-104160714D02*
X130438095Y-104198809D01*
X130323809Y-104236904D01*
X130247619Y-104236904D01*
X130133333Y-104198809D01*
X130057142Y-104122619D01*
X130019047Y-104046428D01*
X129980952Y-103894047D01*
X129980952Y-103779761D01*
X130019047Y-103627380D01*
X130057142Y-103551190D01*
X130133333Y-103475000D01*
X130247619Y-103436904D01*
X130323809Y-103436904D01*
X130438095Y-103475000D01*
X130476190Y-103513095D01*
X130819047Y-104236904D02*
X130819047Y-103436904D01*
X131276190Y-104236904D02*
X130933333Y-103779761D01*
X131276190Y-103436904D02*
X130819047Y-103894047D01*
X99273809Y-102475000D02*
X99197619Y-102436904D01*
X99083333Y-102436904D01*
X98969047Y-102475000D01*
X98892857Y-102551190D01*
X98854761Y-102627380D01*
X98816666Y-102779761D01*
X98816666Y-102894047D01*
X98854761Y-103046428D01*
X98892857Y-103122619D01*
X98969047Y-103198809D01*
X99083333Y-103236904D01*
X99159523Y-103236904D01*
X99273809Y-103198809D01*
X99311904Y-103160714D01*
X99311904Y-102894047D01*
X99159523Y-102894047D01*
X99654761Y-103236904D02*
X99654761Y-102436904D01*
X99959523Y-102436904D01*
X100035714Y-102475000D01*
X100073809Y-102513095D01*
X100111904Y-102589285D01*
X100111904Y-102703571D01*
X100073809Y-102779761D01*
X100035714Y-102817857D01*
X99959523Y-102855952D01*
X99654761Y-102855952D01*
X100454761Y-103236904D02*
X100454761Y-102436904D01*
X100988095Y-102436904D02*
X101140476Y-102436904D01*
X101216666Y-102475000D01*
X101292857Y-102551190D01*
X101330952Y-102703571D01*
X101330952Y-102970238D01*
X101292857Y-103122619D01*
X101216666Y-103198809D01*
X101140476Y-103236904D01*
X100988095Y-103236904D01*
X100911904Y-103198809D01*
X100835714Y-103122619D01*
X100797619Y-102970238D01*
X100797619Y-102703571D01*
X100835714Y-102551190D01*
X100911904Y-102475000D01*
X100988095Y-102436904D01*
X102283333Y-103236904D02*
X102283333Y-102436904D01*
X102664285Y-102703571D02*
X102664285Y-103236904D01*
X102664285Y-102779761D02*
X102702380Y-102741666D01*
X102778571Y-102703571D01*
X102892857Y-102703571D01*
X102969047Y-102741666D01*
X103007142Y-102817857D01*
X103007142Y-103236904D01*
X103273809Y-102703571D02*
X103578571Y-102703571D01*
X103388095Y-102436904D02*
X103388095Y-103122619D01*
X103426190Y-103198809D01*
X103502380Y-103236904D01*
X103578571Y-103236904D01*
X104150000Y-103198809D02*
X104073809Y-103236904D01*
X103921428Y-103236904D01*
X103845238Y-103198809D01*
X103807142Y-103122619D01*
X103807142Y-102817857D01*
X103845238Y-102741666D01*
X103921428Y-102703571D01*
X104073809Y-102703571D01*
X104150000Y-102741666D01*
X104188095Y-102817857D01*
X104188095Y-102894047D01*
X103807142Y-102970238D01*
X104530952Y-103236904D02*
X104530952Y-102703571D01*
X104530952Y-102855952D02*
X104569047Y-102779761D01*
X104607142Y-102741666D01*
X104683333Y-102703571D01*
X104759523Y-102703571D01*
X105026190Y-103236904D02*
X105026190Y-102703571D01*
X105026190Y-102855952D02*
X105064285Y-102779761D01*
X105102380Y-102741666D01*
X105178571Y-102703571D01*
X105254761Y-102703571D01*
X105864285Y-102703571D02*
X105864285Y-103236904D01*
X105521428Y-102703571D02*
X105521428Y-103122619D01*
X105559523Y-103198809D01*
X105635714Y-103236904D01*
X105750000Y-103236904D01*
X105826190Y-103198809D01*
X105864285Y-103160714D01*
X106245238Y-102703571D02*
X106245238Y-103503571D01*
X106245238Y-102741666D02*
X106321428Y-102703571D01*
X106473809Y-102703571D01*
X106550000Y-102741666D01*
X106588095Y-102779761D01*
X106626190Y-102855952D01*
X106626190Y-103084523D01*
X106588095Y-103160714D01*
X106550000Y-103198809D01*
X106473809Y-103236904D01*
X106321428Y-103236904D01*
X106245238Y-103198809D01*
X106854761Y-102703571D02*
X107159523Y-102703571D01*
X106969047Y-102436904D02*
X106969047Y-103122619D01*
X107007142Y-103198809D01*
X107083333Y-103236904D01*
X107159523Y-103236904D01*
X98702380Y-104586904D02*
X98702380Y-103786904D01*
X99007142Y-103786904D01*
X99083333Y-103825000D01*
X99121428Y-103863095D01*
X99159523Y-103939285D01*
X99159523Y-104053571D01*
X99121428Y-104129761D01*
X99083333Y-104167857D01*
X99007142Y-104205952D01*
X98702380Y-104205952D01*
X99616666Y-104586904D02*
X99540476Y-104548809D01*
X99502380Y-104510714D01*
X99464285Y-104434523D01*
X99464285Y-104205952D01*
X99502380Y-104129761D01*
X99540476Y-104091666D01*
X99616666Y-104053571D01*
X99730952Y-104053571D01*
X99807142Y-104091666D01*
X99845238Y-104129761D01*
X99883333Y-104205952D01*
X99883333Y-104434523D01*
X99845238Y-104510714D01*
X99807142Y-104548809D01*
X99730952Y-104586904D01*
X99616666Y-104586904D01*
X100226190Y-104586904D02*
X100226190Y-104053571D01*
X100226190Y-104205952D02*
X100264285Y-104129761D01*
X100302380Y-104091666D01*
X100378571Y-104053571D01*
X100454761Y-104053571D01*
X100607142Y-104053571D02*
X100911904Y-104053571D01*
X100721428Y-103786904D02*
X100721428Y-104472619D01*
X100759523Y-104548809D01*
X100835714Y-104586904D01*
X100911904Y-104586904D01*
X101750000Y-104358333D02*
X102130952Y-104358333D01*
X101673809Y-104586904D02*
X101940476Y-103786904D01*
X102207142Y-104586904D01*
X103692857Y-104586904D02*
X103692857Y-103786904D01*
X103997619Y-103786904D01*
X104073809Y-103825000D01*
X104111904Y-103863095D01*
X104150000Y-103939285D01*
X104150000Y-104053571D01*
X104111904Y-104129761D01*
X104073809Y-104167857D01*
X103997619Y-104205952D01*
X103692857Y-104205952D01*
X104607142Y-104586904D02*
X104530952Y-104548809D01*
X104492857Y-104510714D01*
X104454761Y-104434523D01*
X104454761Y-104205952D01*
X104492857Y-104129761D01*
X104530952Y-104091666D01*
X104607142Y-104053571D01*
X104721428Y-104053571D01*
X104797619Y-104091666D01*
X104835714Y-104129761D01*
X104873809Y-104205952D01*
X104873809Y-104434523D01*
X104835714Y-104510714D01*
X104797619Y-104548809D01*
X104721428Y-104586904D01*
X104607142Y-104586904D01*
X105216666Y-104586904D02*
X105216666Y-104053571D01*
X105216666Y-104205952D02*
X105254761Y-104129761D01*
X105292857Y-104091666D01*
X105369047Y-104053571D01*
X105445238Y-104053571D01*
X105597619Y-104053571D02*
X105902380Y-104053571D01*
X105711904Y-103786904D02*
X105711904Y-104472619D01*
X105750000Y-104548809D01*
X105826190Y-104586904D01*
X105902380Y-104586904D01*
X107045238Y-104167857D02*
X107159523Y-104205952D01*
X107197619Y-104244047D01*
X107235714Y-104320238D01*
X107235714Y-104434523D01*
X107197619Y-104510714D01*
X107159523Y-104548809D01*
X107083333Y-104586904D01*
X106778571Y-104586904D01*
X106778571Y-103786904D01*
X107045238Y-103786904D01*
X107121428Y-103825000D01*
X107159523Y-103863095D01*
X107197619Y-103939285D01*
X107197619Y-104015476D01*
X107159523Y-104091666D01*
X107121428Y-104129761D01*
X107045238Y-104167857D01*
X106778571Y-104167857D01*
X142347619Y-82036904D02*
X142347619Y-81236904D01*
X142652380Y-81236904D01*
X142728571Y-81275000D01*
X142766666Y-81313095D01*
X142804761Y-81389285D01*
X142804761Y-81503571D01*
X142766666Y-81579761D01*
X142728571Y-81617857D01*
X142652380Y-81655952D01*
X142347619Y-81655952D01*
X143071428Y-81236904D02*
X143261904Y-82036904D01*
X143414285Y-81465476D01*
X143566666Y-82036904D01*
X143757142Y-81236904D01*
X144061904Y-82036904D02*
X144061904Y-81236904D01*
X144328571Y-81808333D01*
X144595238Y-81236904D01*
X144595238Y-82036904D01*
X145547619Y-81808333D02*
X145928571Y-81808333D01*
X145471428Y-82036904D02*
X145738095Y-81236904D01*
X146004761Y-82036904D01*
X146614285Y-81503571D02*
X146614285Y-82036904D01*
X146271428Y-81503571D02*
X146271428Y-81922619D01*
X146309523Y-81998809D01*
X146385714Y-82036904D01*
X146500000Y-82036904D01*
X146576190Y-81998809D01*
X146614285Y-81960714D01*
X147338095Y-82036904D02*
X147338095Y-81236904D01*
X147338095Y-81998809D02*
X147261904Y-82036904D01*
X147109523Y-82036904D01*
X147033333Y-81998809D01*
X146995238Y-81960714D01*
X146957142Y-81884523D01*
X146957142Y-81655952D01*
X146995238Y-81579761D01*
X147033333Y-81541666D01*
X147109523Y-81503571D01*
X147261904Y-81503571D01*
X147338095Y-81541666D01*
X147719047Y-82036904D02*
X147719047Y-81503571D01*
X147719047Y-81236904D02*
X147680952Y-81275000D01*
X147719047Y-81313095D01*
X147757142Y-81275000D01*
X147719047Y-81236904D01*
X147719047Y-81313095D01*
X148214285Y-82036904D02*
X148138095Y-81998809D01*
X148100000Y-81960714D01*
X148061904Y-81884523D01*
X148061904Y-81655952D01*
X148100000Y-81579761D01*
X148138095Y-81541666D01*
X148214285Y-81503571D01*
X148328571Y-81503571D01*
X148404761Y-81541666D01*
X148442857Y-81579761D01*
X148480952Y-81655952D01*
X148480952Y-81884523D01*
X148442857Y-81960714D01*
X148404761Y-81998809D01*
X148328571Y-82036904D01*
X148214285Y-82036904D01*
X143890476Y-82967857D02*
X144157142Y-82967857D01*
X144271428Y-83386904D02*
X143890476Y-83386904D01*
X143890476Y-82586904D01*
X144271428Y-82586904D01*
X144614285Y-82853571D02*
X144614285Y-83386904D01*
X144614285Y-82929761D02*
X144652380Y-82891666D01*
X144728571Y-82853571D01*
X144842857Y-82853571D01*
X144919047Y-82891666D01*
X144957142Y-82967857D01*
X144957142Y-83386904D01*
X145680952Y-83386904D02*
X145680952Y-82967857D01*
X145642857Y-82891666D01*
X145566666Y-82853571D01*
X145414285Y-82853571D01*
X145338095Y-82891666D01*
X145680952Y-83348809D02*
X145604761Y-83386904D01*
X145414285Y-83386904D01*
X145338095Y-83348809D01*
X145300000Y-83272619D01*
X145300000Y-83196428D01*
X145338095Y-83120238D01*
X145414285Y-83082142D01*
X145604761Y-83082142D01*
X145680952Y-83044047D01*
X146061904Y-83386904D02*
X146061904Y-82586904D01*
X146061904Y-82891666D02*
X146138095Y-82853571D01*
X146290476Y-82853571D01*
X146366666Y-82891666D01*
X146404761Y-82929761D01*
X146442857Y-83005952D01*
X146442857Y-83234523D01*
X146404761Y-83310714D01*
X146366666Y-83348809D01*
X146290476Y-83386904D01*
X146138095Y-83386904D01*
X146061904Y-83348809D01*
X146900000Y-83386904D02*
X146823809Y-83348809D01*
X146785714Y-83272619D01*
X146785714Y-82586904D01*
X147509523Y-83348809D02*
X147433333Y-83386904D01*
X147280952Y-83386904D01*
X147204761Y-83348809D01*
X147166666Y-83272619D01*
X147166666Y-82967857D01*
X147204761Y-82891666D01*
X147280952Y-82853571D01*
X147433333Y-82853571D01*
X147509523Y-82891666D01*
X147547619Y-82967857D01*
X147547619Y-83044047D01*
X147166666Y-83120238D01*
X128844512Y-128976729D02*
X129302448Y-128895917D01*
X129167761Y-129299978D02*
X129733447Y-128734292D01*
X129517947Y-128518793D01*
X129437135Y-128491856D01*
X129383260Y-128491856D01*
X129302448Y-128518793D01*
X129221636Y-128599605D01*
X129194699Y-128680418D01*
X129194699Y-128734292D01*
X129221636Y-128815105D01*
X129437135Y-129030604D01*
X128359639Y-128491856D02*
X128655951Y-128195544D01*
X128736763Y-128168607D01*
X128817575Y-128195544D01*
X128925325Y-128303294D01*
X128952262Y-128384106D01*
X128386577Y-128464918D02*
X128413514Y-128545731D01*
X128548201Y-128680418D01*
X128629013Y-128707355D01*
X128709825Y-128680418D01*
X128763700Y-128626543D01*
X128790638Y-128545731D01*
X128763700Y-128464918D01*
X128629013Y-128330231D01*
X128602076Y-128249419D01*
X128144140Y-128222482D02*
X128063328Y-128195544D01*
X127955578Y-128087795D01*
X127928641Y-128006983D01*
X127955578Y-127926170D01*
X127982516Y-127899233D01*
X128063328Y-127872296D01*
X128144140Y-127899233D01*
X128224952Y-127980045D01*
X128305764Y-128006983D01*
X128386577Y-127980045D01*
X128413514Y-127953108D01*
X128440451Y-127872296D01*
X128413514Y-127791483D01*
X128332702Y-127710671D01*
X128251890Y-127683734D01*
X128009453Y-127387422D02*
X127443768Y-127953108D01*
X127982516Y-127414360D02*
X127955578Y-127333548D01*
X127847829Y-127225798D01*
X127767016Y-127198861D01*
X127713142Y-127198861D01*
X127632329Y-127225798D01*
X127470705Y-127387422D01*
X127443768Y-127468235D01*
X127443768Y-127522109D01*
X127470705Y-127602922D01*
X127578455Y-127710671D01*
X127659267Y-127737609D01*
X127120519Y-127252735D02*
X127686204Y-126687050D01*
X127470705Y-126902549D02*
X127443768Y-126821737D01*
X127336018Y-126713987D01*
X127255206Y-126687050D01*
X127201331Y-126687050D01*
X127120519Y-126713987D01*
X126958894Y-126875612D01*
X126931957Y-126956424D01*
X126931957Y-127010299D01*
X126958894Y-127091111D01*
X127066644Y-127198861D01*
X127147456Y-127225798D01*
X126420146Y-126498488D02*
X126447084Y-126579300D01*
X126554833Y-126687050D01*
X126635646Y-126713987D01*
X126716458Y-126687050D01*
X126931957Y-126471551D01*
X126958894Y-126390739D01*
X126931957Y-126309926D01*
X126824207Y-126202177D01*
X126743395Y-126175239D01*
X126662583Y-126202177D01*
X126608708Y-126256052D01*
X126824207Y-126579300D01*
X126123835Y-126256052D02*
X126500959Y-125878928D01*
X126393209Y-125986678D02*
X126420146Y-125905865D01*
X126420146Y-125851991D01*
X126393209Y-125771178D01*
X126339334Y-125717304D01*
X125773649Y-125905865D02*
X126150772Y-125528742D01*
X126043023Y-125636491D02*
X126069960Y-125555679D01*
X126069960Y-125501804D01*
X126043023Y-125420992D01*
X125989148Y-125367117D01*
X125854461Y-125232430D02*
X125342650Y-125474867D01*
X125585087Y-124963056D02*
X125342650Y-125474867D01*
X125261838Y-125663429D01*
X125261838Y-125717304D01*
X125288776Y-125798116D01*
X124561466Y-124693682D02*
X125127151Y-124127997D01*
X124911652Y-123912498D01*
X124830840Y-123885560D01*
X124776965Y-123885560D01*
X124696153Y-123912498D01*
X124615340Y-123993310D01*
X124588403Y-124074122D01*
X124588403Y-124127997D01*
X124615340Y-124208809D01*
X124830840Y-124424308D01*
X123995780Y-124127997D02*
X124372904Y-123750873D01*
X124561466Y-123562311D02*
X124561466Y-123616186D01*
X124507591Y-123616186D01*
X124507591Y-123562311D01*
X124561466Y-123562311D01*
X124507591Y-123616186D01*
X123914968Y-122915814D02*
X123537844Y-122538690D01*
X123349283Y-123481499D01*
X122972159Y-123104376D01*
X122568098Y-122646440D02*
X122595035Y-122727252D01*
X122702785Y-122835002D01*
X122783597Y-122861939D01*
X122864409Y-122835002D01*
X123079909Y-122619502D01*
X123106846Y-122538690D01*
X123079909Y-122457878D01*
X122972159Y-122350128D01*
X122891347Y-122323191D01*
X122810535Y-122350128D01*
X122756660Y-122404003D01*
X122972159Y-122727252D01*
X122271787Y-122404003D02*
X122648910Y-122026880D01*
X122541161Y-122134629D02*
X122568098Y-122053817D01*
X122568098Y-121999942D01*
X122541161Y-121919130D01*
X122487286Y-121865255D01*
X121840788Y-121973005D02*
X121921600Y-121999942D01*
X121975475Y-121999942D01*
X122056287Y-121973005D01*
X122217912Y-121811380D01*
X122244849Y-121730568D01*
X122244849Y-121676693D01*
X122217912Y-121595881D01*
X122137100Y-121515069D01*
X122056287Y-121488132D01*
X122002413Y-121488132D01*
X121921600Y-121515069D01*
X121759976Y-121676693D01*
X121733039Y-121757506D01*
X121733039Y-121811380D01*
X121759976Y-121892193D01*
X121840788Y-121973005D01*
X121221228Y-120275948D02*
X121302040Y-120302886D01*
X121382852Y-120383698D01*
X121436727Y-120491448D01*
X121436727Y-120599197D01*
X121409790Y-120680010D01*
X121328978Y-120814697D01*
X121248165Y-120895509D01*
X121113478Y-120976321D01*
X121032666Y-121003258D01*
X120924917Y-121003258D01*
X120817167Y-120949384D01*
X120763292Y-120895509D01*
X120709417Y-120787759D01*
X120709417Y-120733884D01*
X120897979Y-120545323D01*
X121005729Y-120653072D01*
X120170669Y-120302886D02*
X120466981Y-120006574D01*
X120547793Y-119979637D01*
X120628605Y-120006574D01*
X120736355Y-120114324D01*
X120763292Y-120195136D01*
X120197607Y-120275948D02*
X120224544Y-120356761D01*
X120359231Y-120491448D01*
X120440043Y-120518385D01*
X120520855Y-120491448D01*
X120574730Y-120437573D01*
X120601668Y-120356761D01*
X120574730Y-120275948D01*
X120440043Y-120141261D01*
X120413106Y-120060449D01*
X119901295Y-120033512D02*
X120278419Y-119656388D01*
X120224544Y-119710263D02*
X120224544Y-119656388D01*
X120197607Y-119575576D01*
X120116794Y-119494764D01*
X120035982Y-119467826D01*
X119955170Y-119494764D01*
X119658859Y-119791075D01*
X119955170Y-119494764D02*
X119982107Y-119413952D01*
X119955170Y-119333139D01*
X119874358Y-119252327D01*
X119793546Y-119225390D01*
X119712733Y-119252327D01*
X119416422Y-119548639D01*
X118958486Y-119036828D02*
X118985424Y-119117640D01*
X119093173Y-119225390D01*
X119173985Y-119252327D01*
X119254798Y-119225390D01*
X119470297Y-119009891D01*
X119497234Y-118929078D01*
X119470297Y-118848266D01*
X119362547Y-118740517D01*
X119281735Y-118713579D01*
X119200923Y-118740517D01*
X119147048Y-118794391D01*
X119362547Y-119117640D01*
X118662175Y-118794391D02*
X119227860Y-118228706D01*
X119012361Y-118444205D02*
X118985424Y-118363393D01*
X118877674Y-118255643D01*
X118796862Y-118228706D01*
X118742987Y-118228706D01*
X118662175Y-118255643D01*
X118500550Y-118417268D01*
X118473613Y-118498080D01*
X118473613Y-118551955D01*
X118500550Y-118632767D01*
X118608300Y-118740517D01*
X118689112Y-118767454D01*
X118069552Y-118201769D02*
X118150364Y-118228706D01*
X118204239Y-118228706D01*
X118285051Y-118201769D01*
X118446676Y-118040144D01*
X118473613Y-117959332D01*
X118473613Y-117905457D01*
X118446676Y-117824645D01*
X118365863Y-117743833D01*
X118285051Y-117716895D01*
X118231176Y-117716895D01*
X118150364Y-117743833D01*
X117988740Y-117905457D01*
X117961802Y-117986269D01*
X117961802Y-118040144D01*
X117988740Y-118120956D01*
X118069552Y-118201769D01*
X118069552Y-117447521D02*
X117557741Y-117689958D01*
X117800178Y-117178147D02*
X117557741Y-117689958D01*
X117476929Y-117878520D01*
X117476929Y-117932395D01*
X117503867Y-118013207D01*
X116776557Y-116908773D02*
X117342242Y-116343088D01*
X117207555Y-116208401D01*
X117099806Y-116154526D01*
X116992056Y-116154526D01*
X116911244Y-116181464D01*
X116776557Y-116262276D01*
X116695745Y-116343088D01*
X116614932Y-116477775D01*
X116587995Y-116558587D01*
X116587995Y-116666337D01*
X116641870Y-116774086D01*
X116776557Y-116908773D01*
X116210871Y-116343088D02*
X116776557Y-115777402D01*
X116183934Y-115992902D01*
X116399433Y-115400279D01*
X115833748Y-115965964D01*
X115806810Y-114861531D02*
X115887622Y-114888468D01*
X115968435Y-114969280D01*
X116022309Y-115077030D01*
X116022309Y-115184780D01*
X115995372Y-115265592D01*
X115914560Y-115400279D01*
X115833748Y-115481091D01*
X115699061Y-115561903D01*
X115618248Y-115588841D01*
X115510499Y-115588841D01*
X115402749Y-115534966D01*
X115348874Y-115481091D01*
X115295000Y-115373341D01*
X115295000Y-115319467D01*
X115483561Y-115130905D01*
X115591311Y-115238654D01*
X125627177Y-127668581D02*
X126192862Y-127102896D01*
X125977363Y-127318395D02*
X125950426Y-127237583D01*
X125842676Y-127129833D01*
X125761864Y-127102896D01*
X125707989Y-127102896D01*
X125627177Y-127129833D01*
X125465552Y-127291458D01*
X125438615Y-127372270D01*
X125438615Y-127426145D01*
X125465552Y-127506957D01*
X125573302Y-127614707D01*
X125654114Y-127641644D01*
X125546365Y-126833522D02*
X125034554Y-127075959D01*
X125276991Y-126564148D02*
X125034554Y-127075959D01*
X124953742Y-127264520D01*
X124953742Y-127318395D01*
X124980679Y-127399207D01*
X124441931Y-126160087D02*
X124172557Y-125890713D01*
X124334182Y-126375586D02*
X124711305Y-125621339D01*
X123957058Y-125998463D01*
X123687684Y-125729088D02*
X123768496Y-125756026D01*
X123849308Y-125729088D01*
X124334182Y-125244215D01*
X123283623Y-125271153D02*
X123310560Y-125351965D01*
X123418310Y-125459714D01*
X123499122Y-125486652D01*
X123579934Y-125459714D01*
X123795433Y-125244215D01*
X123822371Y-125163403D01*
X123795433Y-125082591D01*
X123687684Y-124974841D01*
X123606872Y-124947904D01*
X123526059Y-124974841D01*
X123472185Y-125028716D01*
X123687684Y-125351965D01*
X123041186Y-125082591D02*
X123121998Y-124409156D01*
X123418310Y-124705467D02*
X122744875Y-124786279D01*
X122098377Y-124139782D02*
X122664063Y-123574096D01*
X122394689Y-123843470D02*
X122071440Y-123520222D01*
X121775128Y-123816533D02*
X122340814Y-123250848D01*
X121424942Y-123466347D02*
X121505754Y-123493284D01*
X121559629Y-123493284D01*
X121640441Y-123466347D01*
X121802066Y-123304722D01*
X121829003Y-123223910D01*
X121829003Y-123170035D01*
X121802066Y-123089223D01*
X121721254Y-123008411D01*
X121640441Y-122981474D01*
X121586567Y-122981474D01*
X121505754Y-123008411D01*
X121344130Y-123170035D01*
X121317193Y-123250848D01*
X121317193Y-123304722D01*
X121344130Y-123385535D01*
X121424942Y-123466347D01*
X121451880Y-122739037D02*
X121236380Y-122523538D01*
X120993944Y-123035348D02*
X121478817Y-122550475D01*
X121505754Y-122469663D01*
X121478817Y-122388851D01*
X121424942Y-122334976D01*
X121128631Y-122415788D02*
X120913132Y-122200289D01*
X120670695Y-122712100D02*
X121155568Y-122227226D01*
X121182506Y-122146414D01*
X121155568Y-122065602D01*
X121101693Y-122011727D01*
X120347446Y-122388851D02*
X120724570Y-122011727D01*
X120670695Y-122065602D02*
X120670695Y-122011727D01*
X120643758Y-121930915D01*
X120562945Y-121850103D01*
X120482133Y-121823165D01*
X120401321Y-121850103D01*
X120105010Y-122146414D01*
X120401321Y-121850103D02*
X120428258Y-121769291D01*
X120401321Y-121688478D01*
X120320509Y-121607666D01*
X120239697Y-121580729D01*
X120158884Y-121607666D01*
X119862573Y-121903978D01*
X119350762Y-121392167D02*
X119647074Y-121095855D01*
X119727886Y-121068918D01*
X119808698Y-121095855D01*
X119916448Y-121203605D01*
X119943385Y-121284417D01*
X119377700Y-121365230D02*
X119404637Y-121446042D01*
X119539324Y-121580729D01*
X119620136Y-121607666D01*
X119700948Y-121580729D01*
X119754823Y-121526854D01*
X119781761Y-121446042D01*
X119754823Y-121365230D01*
X119620136Y-121230542D01*
X119593199Y-121149730D01*
X119458512Y-120745669D02*
X119081388Y-121122793D01*
X119404637Y-120799544D02*
X119404637Y-120745669D01*
X119377700Y-120664857D01*
X119296887Y-120584045D01*
X119216075Y-120557107D01*
X119135263Y-120584045D01*
X118838952Y-120880356D01*
D12*
X87265000Y-86300000D02*
X87265000Y-88585000D01*
X87265000Y-88585000D02*
X88735000Y-88585000D01*
X88735000Y-88585000D02*
X88735000Y-86300000D01*
X139920000Y-77300000D02*
G75*
G03X139920000Y-77300000I-2620000J0D01*
G01*
X136260000Y-77300000D02*
X134720000Y-77300000D01*
X139880000Y-77300000D02*
X138340000Y-77300000D01*
X136260000Y-77340000D02*
X134720000Y-77340000D01*
X139880000Y-77340000D02*
X138340000Y-77340000D01*
X139879000Y-77380000D02*
X138340000Y-77380000D01*
X136260000Y-77380000D02*
X134721000Y-77380000D01*
X139878000Y-77420000D02*
X138340000Y-77420000D01*
X136260000Y-77420000D02*
X134722000Y-77420000D01*
X139876000Y-77460000D02*
X138340000Y-77460000D01*
X136260000Y-77460000D02*
X134724000Y-77460000D01*
X139873000Y-77500000D02*
X138340000Y-77500000D01*
X136260000Y-77500000D02*
X134727000Y-77500000D01*
X139869000Y-77540000D02*
X138340000Y-77540000D01*
X136260000Y-77540000D02*
X134731000Y-77540000D01*
X139865000Y-77580000D02*
X138340000Y-77580000D01*
X136260000Y-77580000D02*
X134735000Y-77580000D01*
X139861000Y-77620000D02*
X138340000Y-77620000D01*
X136260000Y-77620000D02*
X134739000Y-77620000D01*
X139856000Y-77660000D02*
X138340000Y-77660000D01*
X136260000Y-77660000D02*
X134744000Y-77660000D01*
X139850000Y-77700000D02*
X138340000Y-77700000D01*
X136260000Y-77700000D02*
X134750000Y-77700000D01*
X139843000Y-77740000D02*
X138340000Y-77740000D01*
X136260000Y-77740000D02*
X134757000Y-77740000D01*
X139836000Y-77780000D02*
X138340000Y-77780000D01*
X136260000Y-77780000D02*
X134764000Y-77780000D01*
X139828000Y-77820000D02*
X138340000Y-77820000D01*
X136260000Y-77820000D02*
X134772000Y-77820000D01*
X139820000Y-77860000D02*
X138340000Y-77860000D01*
X136260000Y-77860000D02*
X134780000Y-77860000D01*
X139811000Y-77900000D02*
X138340000Y-77900000D01*
X136260000Y-77900000D02*
X134789000Y-77900000D01*
X139801000Y-77940000D02*
X138340000Y-77940000D01*
X136260000Y-77940000D02*
X134799000Y-77940000D01*
X139791000Y-77980000D02*
X138340000Y-77980000D01*
X136260000Y-77980000D02*
X134809000Y-77980000D01*
X139780000Y-78021000D02*
X138340000Y-78021000D01*
X136260000Y-78021000D02*
X134820000Y-78021000D01*
X139768000Y-78061000D02*
X138340000Y-78061000D01*
X136260000Y-78061000D02*
X134832000Y-78061000D01*
X139755000Y-78101000D02*
X138340000Y-78101000D01*
X136260000Y-78101000D02*
X134845000Y-78101000D01*
X139742000Y-78141000D02*
X138340000Y-78141000D01*
X136260000Y-78141000D02*
X134858000Y-78141000D01*
X139728000Y-78181000D02*
X138340000Y-78181000D01*
X136260000Y-78181000D02*
X134872000Y-78181000D01*
X139714000Y-78221000D02*
X138340000Y-78221000D01*
X136260000Y-78221000D02*
X134886000Y-78221000D01*
X139698000Y-78261000D02*
X138340000Y-78261000D01*
X136260000Y-78261000D02*
X134902000Y-78261000D01*
X139682000Y-78301000D02*
X138340000Y-78301000D01*
X136260000Y-78301000D02*
X134918000Y-78301000D01*
X139665000Y-78341000D02*
X138340000Y-78341000D01*
X136260000Y-78341000D02*
X134935000Y-78341000D01*
X139648000Y-78381000D02*
X138340000Y-78381000D01*
X136260000Y-78381000D02*
X134952000Y-78381000D01*
X139629000Y-78421000D02*
X138340000Y-78421000D01*
X136260000Y-78421000D02*
X134971000Y-78421000D01*
X139610000Y-78461000D02*
X138340000Y-78461000D01*
X136260000Y-78461000D02*
X134990000Y-78461000D01*
X139590000Y-78501000D02*
X138340000Y-78501000D01*
X136260000Y-78501000D02*
X135010000Y-78501000D01*
X139568000Y-78541000D02*
X138340000Y-78541000D01*
X136260000Y-78541000D02*
X135032000Y-78541000D01*
X139547000Y-78581000D02*
X138340000Y-78581000D01*
X136260000Y-78581000D02*
X135053000Y-78581000D01*
X139524000Y-78621000D02*
X138340000Y-78621000D01*
X136260000Y-78621000D02*
X135076000Y-78621000D01*
X139500000Y-78661000D02*
X138340000Y-78661000D01*
X136260000Y-78661000D02*
X135100000Y-78661000D01*
X139475000Y-78701000D02*
X138340000Y-78701000D01*
X136260000Y-78701000D02*
X135125000Y-78701000D01*
X139449000Y-78741000D02*
X138340000Y-78741000D01*
X136260000Y-78741000D02*
X135151000Y-78741000D01*
X139422000Y-78781000D02*
X138340000Y-78781000D01*
X136260000Y-78781000D02*
X135178000Y-78781000D01*
X139395000Y-78821000D02*
X138340000Y-78821000D01*
X136260000Y-78821000D02*
X135205000Y-78821000D01*
X139365000Y-78861000D02*
X138340000Y-78861000D01*
X136260000Y-78861000D02*
X135235000Y-78861000D01*
X139335000Y-78901000D02*
X138340000Y-78901000D01*
X136260000Y-78901000D02*
X135265000Y-78901000D01*
X139304000Y-78941000D02*
X138340000Y-78941000D01*
X136260000Y-78941000D02*
X135296000Y-78941000D01*
X139271000Y-78981000D02*
X138340000Y-78981000D01*
X136260000Y-78981000D02*
X135329000Y-78981000D01*
X139237000Y-79021000D02*
X138340000Y-79021000D01*
X136260000Y-79021000D02*
X135363000Y-79021000D01*
X139201000Y-79061000D02*
X138340000Y-79061000D01*
X136260000Y-79061000D02*
X135399000Y-79061000D01*
X139164000Y-79101000D02*
X138340000Y-79101000D01*
X136260000Y-79101000D02*
X135436000Y-79101000D01*
X139126000Y-79141000D02*
X138340000Y-79141000D01*
X136260000Y-79141000D02*
X135474000Y-79141000D01*
X139085000Y-79181000D02*
X138340000Y-79181000D01*
X136260000Y-79181000D02*
X135515000Y-79181000D01*
X139043000Y-79221000D02*
X138340000Y-79221000D01*
X136260000Y-79221000D02*
X135557000Y-79221000D01*
X138999000Y-79261000D02*
X138340000Y-79261000D01*
X136260000Y-79261000D02*
X135601000Y-79261000D01*
X138953000Y-79301000D02*
X138340000Y-79301000D01*
X136260000Y-79301000D02*
X135647000Y-79301000D01*
X138905000Y-79341000D02*
X135695000Y-79341000D01*
X138854000Y-79381000D02*
X135746000Y-79381000D01*
X138800000Y-79421000D02*
X135800000Y-79421000D01*
X138743000Y-79461000D02*
X135857000Y-79461000D01*
X138683000Y-79501000D02*
X135917000Y-79501000D01*
X138619000Y-79541000D02*
X135981000Y-79541000D01*
X138551000Y-79581000D02*
X136049000Y-79581000D01*
X138478000Y-79621000D02*
X136122000Y-79621000D01*
X138398000Y-79661000D02*
X136202000Y-79661000D01*
X138311000Y-79701000D02*
X136289000Y-79701000D01*
X138215000Y-79741000D02*
X136385000Y-79741000D01*
X138105000Y-79781000D02*
X136495000Y-79781000D01*
X137977000Y-79821000D02*
X136623000Y-79821000D01*
X137818000Y-79861000D02*
X136782000Y-79861000D01*
X137584000Y-79901000D02*
X137016000Y-79901000D01*
X138775000Y-74495225D02*
X138775000Y-74995225D01*
X139025000Y-74745225D02*
X138525000Y-74745225D01*
X95190000Y-139447936D02*
X95190000Y-140652064D01*
X97910000Y-139447936D02*
X97910000Y-140652064D01*
X117037221Y-147210000D02*
X117362779Y-147210000D01*
X117037221Y-146190000D02*
X117362779Y-146190000D01*
D13*
X112650000Y-133190000D02*
X107360000Y-135840000D01*
X108790000Y-127580000D02*
X103500000Y-130230000D01*
X113517821Y-128430944D02*
G75*
G02X112707912Y-133167392I-2797821J-1959056D01*
G01*
X108770944Y-127602179D02*
G75*
G02X113507392Y-128412088I1959056J-2797821D01*
G01*
X107449056Y-135787821D02*
G75*
G02X102712608Y-134977912I-1959056J2797821D01*
G01*
X102702179Y-134959056D02*
G75*
G02X103512088Y-130222608I2797821J1959056D01*
G01*
D14*
X113014838Y-130338808D02*
G75*
G03X113014838Y-130338808I-2300001J0D01*
G01*
D12*
X107725000Y-79550000D02*
G75*
G02X108425000Y-80250000I0J-700000D01*
G01*
X108425000Y-80850000D02*
G75*
G02X107725000Y-81550000I-700000J0D01*
G01*
X106325000Y-81550000D02*
G75*
G02X105625000Y-80850000I0J700000D01*
G01*
X105625000Y-80250000D02*
G75*
G02X106325000Y-79550000I700000J0D01*
G01*
X105625000Y-80850000D02*
X105625000Y-80250000D01*
X107725000Y-81550000D02*
X106325000Y-81550000D01*
X108425000Y-80250000D02*
X108425000Y-80850000D01*
X106325000Y-79550000D02*
X107725000Y-79550000D01*
X112450000Y-77615000D02*
X110950000Y-77615000D01*
X112450000Y-77615000D02*
X113950000Y-77615000D01*
X112450000Y-80835000D02*
X110950000Y-80835000D01*
X112450000Y-80835000D02*
X115375000Y-80835000D01*
X121375279Y-138610000D02*
X121049721Y-138610000D01*
X121375279Y-137590000D02*
X121049721Y-137590000D01*
X121375279Y-141560000D02*
X121049721Y-141560000D01*
X121375279Y-140540000D02*
X121049721Y-140540000D01*
X121649721Y-78835000D02*
X121975279Y-78835000D01*
X121649721Y-77815000D02*
X121975279Y-77815000D01*
X107725000Y-78950000D02*
X106325000Y-78950000D01*
X105625000Y-78250000D02*
X105625000Y-77650000D01*
X106325000Y-76950000D02*
X107725000Y-76950000D01*
X108425000Y-77650000D02*
X108425000Y-78250000D01*
X108425000Y-78250000D02*
G75*
G02X107725000Y-78950000I-700000J0D01*
G01*
X107725000Y-76950000D02*
G75*
G02X108425000Y-77650000I0J-700000D01*
G01*
X105625000Y-77650000D02*
G75*
G02X106325000Y-76950000I700000J0D01*
G01*
X106325000Y-78950000D02*
G75*
G02X105625000Y-78250000I0J700000D01*
G01*
X107162779Y-82290000D02*
X106837221Y-82290000D01*
X107162779Y-83310000D02*
X106837221Y-83310000D01*
X131625000Y-78725000D02*
X131625000Y-80125000D01*
X130925000Y-80825000D02*
X130325000Y-80825000D01*
X129625000Y-80125000D02*
X129625000Y-78725000D01*
X130325000Y-78025000D02*
X130925000Y-78025000D01*
X130925000Y-78025000D02*
G75*
G02X131625000Y-78725000I0J-700000D01*
G01*
X129625000Y-78725000D02*
G75*
G02X130325000Y-78025000I700000J0D01*
G01*
X130325000Y-80825000D02*
G75*
G02X129625000Y-80125000I0J700000D01*
G01*
X131625000Y-80125000D02*
G75*
G02X130925000Y-80825000I-700000J0D01*
G01*
X121987779Y-80685000D02*
X121662221Y-80685000D01*
X121987779Y-79665000D02*
X121662221Y-79665000D01*
X118212221Y-79665000D02*
X118537779Y-79665000D01*
X118212221Y-80685000D02*
X118537779Y-80685000D01*
X118537779Y-78835000D02*
X118212221Y-78835000D01*
X118537779Y-77815000D02*
X118212221Y-77815000D01*
X112362221Y-82485000D02*
X112687779Y-82485000D01*
X112362221Y-81465000D02*
X112687779Y-81465000D01*
X85590000Y-87262779D02*
X85590000Y-86937221D01*
X86610000Y-87262779D02*
X86610000Y-86937221D01*
X113600000Y-148350000D02*
X114050000Y-148350000D01*
X113600000Y-150200000D02*
X113600000Y-148350000D01*
X121400000Y-152750000D02*
X121400000Y-152500000D01*
X113600000Y-152750000D02*
X113600000Y-152500000D01*
X121400000Y-150200000D02*
X121400000Y-148350000D01*
X121400000Y-148350000D02*
X120950000Y-148350000D01*
X115800000Y-147800000D02*
X116250000Y-147800000D01*
X115800000Y-147800000D02*
X115800000Y-148250000D01*
X102850000Y-137800000D02*
X102850000Y-141100000D01*
X102850000Y-141100000D02*
X108250000Y-141100000D01*
X102850000Y-137800000D02*
X108250000Y-137800000D01*
X124260000Y-122415000D02*
X126075000Y-122415000D01*
X124260000Y-122660000D02*
X124260000Y-122415000D01*
X120400000Y-122660000D02*
X124260000Y-122660000D01*
X116540000Y-122660000D02*
X116540000Y-122415000D01*
X120400000Y-122660000D02*
X116540000Y-122660000D01*
X124260000Y-104540000D02*
X124260000Y-104785000D01*
X120400000Y-104540000D02*
X124260000Y-104540000D01*
X116540000Y-104540000D02*
X116540000Y-104785000D01*
X120400000Y-104540000D02*
X116540000Y-104540000D01*
X102770000Y-94480000D02*
X102770000Y-93150000D01*
X104100000Y-94480000D02*
X102770000Y-94480000D01*
X105370000Y-94480000D02*
X105370000Y-91820000D01*
X105370000Y-91820000D02*
X125750000Y-91820000D01*
X105370000Y-94480000D02*
X125750000Y-94480000D01*
X125750000Y-94480000D02*
X125750000Y-91820000D01*
X124025000Y-101900000D02*
X124025000Y-103300000D01*
X123325000Y-104000000D02*
X122725000Y-104000000D01*
X122025000Y-103300000D02*
X122025000Y-101900000D01*
X122725000Y-101200000D02*
X123325000Y-101200000D01*
X123325000Y-101200000D02*
G75*
G02X124025000Y-101900000I0J-700000D01*
G01*
X122025000Y-101900000D02*
G75*
G02X122725000Y-101200000I700000J0D01*
G01*
X122725000Y-104000000D02*
G75*
G02X122025000Y-103300000I0J700000D01*
G01*
X124025000Y-103300000D02*
G75*
G02X123325000Y-104000000I-700000J0D01*
G01*
X121350000Y-101900000D02*
X121350000Y-103300000D01*
X120650000Y-104000000D02*
X120050000Y-104000000D01*
X119350000Y-103300000D02*
X119350000Y-101900000D01*
X120050000Y-101200000D02*
X120650000Y-101200000D01*
X120650000Y-101200000D02*
G75*
G02X121350000Y-101900000I0J-700000D01*
G01*
X119350000Y-101900000D02*
G75*
G02X120050000Y-101200000I700000J0D01*
G01*
X120050000Y-104000000D02*
G75*
G02X119350000Y-103300000I0J700000D01*
G01*
X121350000Y-103300000D02*
G75*
G02X120650000Y-104000000I-700000J0D01*
G01*
X105350000Y-100200000D02*
X105350000Y-101600000D01*
X104650000Y-102300000D02*
X104050000Y-102300000D01*
X103350000Y-101600000D02*
X103350000Y-100200000D01*
X104050000Y-99500000D02*
X104650000Y-99500000D01*
X104650000Y-99500000D02*
G75*
G02X105350000Y-100200000I0J-700000D01*
G01*
X103350000Y-100200000D02*
G75*
G02X104050000Y-99500000I700000J0D01*
G01*
X104050000Y-102300000D02*
G75*
G02X103350000Y-101600000I0J700000D01*
G01*
X105350000Y-101600000D02*
G75*
G02X104650000Y-102300000I-700000J0D01*
G01*
X102600000Y-100200000D02*
X102600000Y-101600000D01*
X101900000Y-102300000D02*
X101300000Y-102300000D01*
X100600000Y-101600000D02*
X100600000Y-100200000D01*
X101300000Y-99500000D02*
X101900000Y-99500000D01*
X101900000Y-99500000D02*
G75*
G02X102600000Y-100200000I0J-700000D01*
G01*
X100600000Y-100200000D02*
G75*
G02X101300000Y-99500000I700000J0D01*
G01*
X101300000Y-102300000D02*
G75*
G02X100600000Y-101600000I0J700000D01*
G01*
X102600000Y-101600000D02*
G75*
G02X101900000Y-102300000I-700000J0D01*
G01*
X142400000Y-93100000D02*
X142400000Y-94500000D01*
X141700000Y-95200000D02*
X141100000Y-95200000D01*
X140400000Y-94500000D02*
X140400000Y-93100000D01*
X141100000Y-92400000D02*
X141700000Y-92400000D01*
X141700000Y-92400000D02*
G75*
G02X142400000Y-93100000I0J-700000D01*
G01*
X140400000Y-93100000D02*
G75*
G02X141100000Y-92400000I700000J0D01*
G01*
X141100000Y-95200000D02*
G75*
G02X140400000Y-94500000I0J700000D01*
G01*
X142400000Y-94500000D02*
G75*
G02X141700000Y-95200000I-700000J0D01*
G01*
X139600000Y-93100000D02*
X139600000Y-94500000D01*
X138900000Y-95200000D02*
X138300000Y-95200000D01*
X137600000Y-94500000D02*
X137600000Y-93100000D01*
X138300000Y-92400000D02*
X138900000Y-92400000D01*
X138900000Y-92400000D02*
G75*
G02X139600000Y-93100000I0J-700000D01*
G01*
X137600000Y-93100000D02*
G75*
G02X138300000Y-92400000I700000J0D01*
G01*
X138300000Y-95200000D02*
G75*
G02X137600000Y-94500000I0J700000D01*
G01*
X139600000Y-94500000D02*
G75*
G02X138900000Y-95200000I-700000J0D01*
G01*
X95660000Y-147387221D02*
X95660000Y-147712779D01*
X94640000Y-147387221D02*
X94640000Y-147712779D01*
X104252064Y-145110000D02*
X103047936Y-145110000D01*
X104252064Y-142390000D02*
X103047936Y-142390000D01*
X101850000Y-146450000D02*
G75*
G02X102550000Y-147150000I0J-700000D01*
G01*
X102550000Y-147750000D02*
G75*
G02X101850000Y-148450000I-700000J0D01*
G01*
X100450000Y-148450000D02*
G75*
G02X99750000Y-147750000I0J700000D01*
G01*
X99750000Y-147150000D02*
G75*
G02X100450000Y-146450000I700000J0D01*
G01*
X99750000Y-147750000D02*
X99750000Y-147150000D01*
X101850000Y-148450000D02*
X100450000Y-148450000D01*
X102550000Y-147150000D02*
X102550000Y-147750000D01*
X100450000Y-146450000D02*
X101850000Y-146450000D01*
X101850000Y-151150000D02*
X100450000Y-151150000D01*
X99750000Y-150450000D02*
X99750000Y-149850000D01*
X100450000Y-149150000D02*
X101850000Y-149150000D01*
X102550000Y-149850000D02*
X102550000Y-150450000D01*
X102550000Y-150450000D02*
G75*
G02X101850000Y-151150000I-700000J0D01*
G01*
X101850000Y-149150000D02*
G75*
G02X102550000Y-149850000I0J-700000D01*
G01*
X99750000Y-149850000D02*
G75*
G02X100450000Y-149150000I700000J0D01*
G01*
X100450000Y-151150000D02*
G75*
G02X99750000Y-150450000I0J700000D01*
G01*
X115450000Y-137350000D02*
X117750000Y-137350000D01*
X117750000Y-137350000D02*
X117750000Y-144750000D01*
X117750000Y-144750000D02*
X115450000Y-144750000D01*
X112650000Y-144750000D02*
X110350000Y-144750000D01*
X110350000Y-144750000D02*
X110350000Y-137350000D01*
X110350000Y-137350000D02*
X112650000Y-137350000D01*
X104510000Y-148437221D02*
X104510000Y-148762779D01*
X103490000Y-148437221D02*
X103490000Y-148762779D01*
X98012779Y-144590000D02*
X97687221Y-144590000D01*
X98012779Y-145610000D02*
X97687221Y-145610000D01*
X90712779Y-151310000D02*
X90387221Y-151310000D01*
X90712779Y-150290000D02*
X90387221Y-150290000D01*
X99637221Y-137990000D02*
X99962779Y-137990000D01*
X99637221Y-139010000D02*
X99962779Y-139010000D01*
X99637221Y-141710000D02*
X99962779Y-141710000D01*
X99637221Y-140690000D02*
X99962779Y-140690000D01*
X108950000Y-151560000D02*
X110900000Y-151560000D01*
X108950000Y-151560000D02*
X107000000Y-151560000D01*
X108950000Y-146440000D02*
X110900000Y-146440000D01*
X108950000Y-146440000D02*
X105500000Y-146440000D01*
X90690000Y-147050000D02*
X90690000Y-149500000D01*
X93910000Y-148850000D02*
X93910000Y-147050000D01*
X86940000Y-147050000D02*
X86940000Y-148850000D01*
X90160000Y-148850000D02*
X90160000Y-146400000D01*
X106390000Y-142450000D02*
X106390000Y-144250000D01*
X109610000Y-144250000D02*
X109610000Y-141800000D01*
X89620000Y-142680000D02*
X89620000Y-140020000D01*
X87020000Y-142680000D02*
X89620000Y-142680000D01*
X87020000Y-140020000D02*
X89620000Y-140020000D01*
X87020000Y-142680000D02*
X87020000Y-140020000D01*
X85750000Y-142680000D02*
X84420000Y-142680000D01*
X84420000Y-142680000D02*
X84420000Y-141350000D01*
X153480000Y-78240000D02*
X150820000Y-78240000D01*
X153480000Y-96080000D02*
X153480000Y-78240000D01*
X150820000Y-96080000D02*
X150820000Y-78240000D01*
X153480000Y-96080000D02*
X150820000Y-96080000D01*
X153480000Y-97350000D02*
X153480000Y-98680000D01*
X153480000Y-98680000D02*
X152150000Y-98680000D01*
X140210000Y-81587221D02*
X140210000Y-81912779D01*
X139190000Y-81587221D02*
X139190000Y-81912779D01*
X89728608Y-81692335D02*
G75*
G03X89885516Y-78460000I-1078608J1672335D01*
G01*
X87571392Y-81692335D02*
G75*
G02X87414484Y-78460000I1078608J1672335D01*
G01*
X89729837Y-81061130D02*
G75*
G03X89730000Y-78979039I-1079837J1041130D01*
G01*
X87570163Y-81061130D02*
G75*
G02X87570000Y-78979039I1079837J1041130D01*
G01*
X89886000Y-78460000D02*
X89730000Y-78460000D01*
X87570000Y-78460000D02*
X87414000Y-78460000D01*
X127280000Y-136280000D02*
X124620000Y-136280000D01*
X127280000Y-138880000D02*
X127280000Y-136280000D01*
X124620000Y-138880000D02*
X124620000Y-136280000D01*
X127280000Y-138880000D02*
X124620000Y-138880000D01*
X127280000Y-140150000D02*
X127280000Y-141480000D01*
X127280000Y-141480000D02*
X125950000Y-141480000D01*
X88800000Y-91900000D02*
G75*
G02X89500000Y-92600000I0J-700000D01*
G01*
X89500000Y-93200000D02*
G75*
G02X88800000Y-93900000I-700000J0D01*
G01*
X87400000Y-93900000D02*
G75*
G02X86700000Y-93200000I0J700000D01*
G01*
X86700000Y-92600000D02*
G75*
G02X87400000Y-91900000I700000J0D01*
G01*
X86700000Y-93200000D02*
X86700000Y-92600000D01*
X88800000Y-93900000D02*
X87400000Y-93900000D01*
X89500000Y-92600000D02*
X89500000Y-93200000D01*
X87400000Y-91900000D02*
X88800000Y-91900000D01*
X141490000Y-78787221D02*
X141490000Y-79112779D01*
X142510000Y-78787221D02*
X142510000Y-79112779D01*
X136590000Y-81962779D02*
X136590000Y-81637221D01*
X137610000Y-81962779D02*
X137610000Y-81637221D01*
X84180000Y-91305000D02*
X82850000Y-91305000D01*
X84180000Y-89975000D02*
X84180000Y-91305000D01*
X84180000Y-88705000D02*
X81520000Y-88705000D01*
X81520000Y-88705000D02*
X81520000Y-86105000D01*
X84180000Y-88705000D02*
X84180000Y-86105000D01*
X84180000Y-86105000D02*
X81520000Y-86105000D01*
D13*
X156700000Y-105300000D02*
G75*
G03X156700000Y-105300000I-4000000J0D01*
G01*
X142200000Y-112100000D02*
G75*
G03X142200000Y-112100000I-4000000J0D01*
G01*
X98200000Y-119200000D02*
G75*
G03X98200000Y-119200000I-4000000J0D01*
G01*
X89000000Y-110200000D02*
G75*
G03X89000000Y-110200000I-4000000J0D01*
G01*
X107300000Y-110200000D02*
G75*
G03X107300000Y-110200000I-4000000J0D01*
G01*
D14*
X128214838Y-130338808D02*
G75*
G03X128214838Y-130338808I-2300001J0D01*
G01*
D13*
X117902179Y-134959056D02*
G75*
G02X118712088Y-130222608I2797821J1959056D01*
G01*
X122649056Y-135787821D02*
G75*
G02X117912608Y-134977912I-1959056J2797821D01*
G01*
X123970944Y-127602179D02*
G75*
G02X128707392Y-128412088I1959056J-2797821D01*
G01*
X128717821Y-128430944D02*
G75*
G02X127907912Y-133167392I-2797821J-1959056D01*
G01*
X123990000Y-127580000D02*
X118700000Y-130230000D01*
X127850000Y-133190000D02*
X122560000Y-135840000D01*
X98200000Y-100900000D02*
G75*
G03X98200000Y-100900000I-4000000J0D01*
G01*
D12*
X128350000Y-80150000D02*
G75*
G02X127650000Y-80850000I-700000J0D01*
G01*
X127050000Y-80850000D02*
G75*
G02X126350000Y-80150000I0J700000D01*
G01*
X126350000Y-78750000D02*
G75*
G02X127050000Y-78050000I700000J0D01*
G01*
X127650000Y-78050000D02*
G75*
G02X128350000Y-78750000I0J-700000D01*
G01*
X127050000Y-78050000D02*
X127650000Y-78050000D01*
X126350000Y-80150000D02*
X126350000Y-78750000D01*
X127650000Y-80850000D02*
X127050000Y-80850000D01*
X128350000Y-78750000D02*
X128350000Y-80150000D01*
X141000000Y-81500000D02*
G75*
G02X141700000Y-80800000I700000J0D01*
G01*
X142300000Y-80800000D02*
G75*
G02X143000000Y-81500000I0J-700000D01*
G01*
X143000000Y-82900000D02*
G75*
G02X142300000Y-83600000I-700000J0D01*
G01*
X141700000Y-83600000D02*
G75*
G02X141000000Y-82900000I0J700000D01*
G01*
X142300000Y-83600000D02*
X141700000Y-83600000D01*
X143000000Y-81500000D02*
X143000000Y-82900000D01*
X141700000Y-80800000D02*
X142300000Y-80800000D01*
X141000000Y-82900000D02*
X141000000Y-81500000D01*
D10*
X136950000Y-68800000D02*
G75*
G03X136950000Y-68800000I-8000000J0D01*
G01*
D12*
X139571917Y-75260490D02*
X139265499Y-75003374D01*
X139418708Y-75131932D02*
X139868659Y-74595701D01*
X139753311Y-74629453D01*
X139659389Y-74637670D01*
X139586893Y-74620352D01*
X140353821Y-75002800D02*
X140404890Y-75045652D01*
X140434534Y-75114040D01*
X140438642Y-75161001D01*
X140421325Y-75233497D01*
X140361154Y-75357062D01*
X140254023Y-75484736D01*
X140142783Y-75565449D01*
X140074396Y-75595092D01*
X140027435Y-75599201D01*
X139954939Y-75581883D01*
X139903869Y-75539031D01*
X139874226Y-75470644D01*
X139870117Y-75423682D01*
X139887435Y-75351187D01*
X139947605Y-75227621D01*
X140054737Y-75099947D01*
X140165976Y-75019234D01*
X140234364Y-74989591D01*
X140281325Y-74985482D01*
X140353821Y-75002800D01*
X140842207Y-75717200D02*
X140542240Y-76074687D01*
X140612394Y-75524363D02*
X140376705Y-75805246D01*
X140359387Y-75877742D01*
X140389031Y-75946130D01*
X140465635Y-76010408D01*
X140538131Y-76027726D01*
X140585092Y-76023618D01*
X141212020Y-76158051D02*
X141033277Y-76008067D01*
X140797588Y-76288950D02*
X141247539Y-75752719D01*
X141502887Y-75966981D01*
X96050000Y-136783333D02*
X96083333Y-136750000D01*
X96150000Y-136716666D01*
X96316666Y-136716666D01*
X96383333Y-136750000D01*
X96416666Y-136783333D01*
X96450000Y-136850000D01*
X96450000Y-136916666D01*
X96416666Y-137016666D01*
X96016666Y-137416666D01*
X96450000Y-137416666D01*
X96716666Y-136783333D02*
X96750000Y-136750000D01*
X96816666Y-136716666D01*
X96983333Y-136716666D01*
X97050000Y-136750000D01*
X97083333Y-136783333D01*
X97116666Y-136850000D01*
X97116666Y-136916666D01*
X97083333Y-137016666D01*
X96683333Y-137416666D01*
X97116666Y-137416666D01*
X97716666Y-136950000D02*
X97716666Y-137416666D01*
X97416666Y-136950000D02*
X97416666Y-137316666D01*
X97450000Y-137383333D01*
X97516666Y-137416666D01*
X97616666Y-137416666D01*
X97683333Y-137383333D01*
X97716666Y-137350000D01*
X114237500Y-147316666D02*
X113837500Y-147316666D01*
X114037500Y-147316666D02*
X114037500Y-146616666D01*
X113970833Y-146716666D01*
X113904166Y-146783333D01*
X113837500Y-146816666D01*
X114670833Y-146616666D02*
X114737500Y-146616666D01*
X114804166Y-146650000D01*
X114837500Y-146683333D01*
X114870833Y-146750000D01*
X114904166Y-146883333D01*
X114904166Y-147050000D01*
X114870833Y-147183333D01*
X114837500Y-147250000D01*
X114804166Y-147283333D01*
X114737500Y-147316666D01*
X114670833Y-147316666D01*
X114604166Y-147283333D01*
X114570833Y-147250000D01*
X114537500Y-147183333D01*
X114504166Y-147050000D01*
X114504166Y-146883333D01*
X114537500Y-146750000D01*
X114570833Y-146683333D01*
X114604166Y-146650000D01*
X114670833Y-146616666D01*
X115504166Y-146850000D02*
X115504166Y-147316666D01*
X115204166Y-146850000D02*
X115204166Y-147216666D01*
X115237500Y-147283333D01*
X115304166Y-147316666D01*
X115404166Y-147316666D01*
X115470833Y-147283333D01*
X115504166Y-147250000D01*
X109225000Y-77141666D02*
X109225000Y-76441666D01*
X109491666Y-76441666D01*
X109558333Y-76475000D01*
X109591666Y-76508333D01*
X109625000Y-76575000D01*
X109625000Y-76675000D01*
X109591666Y-76741666D01*
X109558333Y-76775000D01*
X109491666Y-76808333D01*
X109225000Y-76808333D01*
X109891666Y-76941666D02*
X110225000Y-76941666D01*
X109825000Y-77141666D02*
X110058333Y-76441666D01*
X110291666Y-77141666D01*
X110525000Y-77141666D02*
X110525000Y-76441666D01*
X110758333Y-76941666D01*
X110991666Y-76441666D01*
X110991666Y-77141666D01*
X111425000Y-76741666D02*
X111358333Y-76708333D01*
X111325000Y-76675000D01*
X111291666Y-76608333D01*
X111291666Y-76575000D01*
X111325000Y-76508333D01*
X111358333Y-76475000D01*
X111425000Y-76441666D01*
X111558333Y-76441666D01*
X111625000Y-76475000D01*
X111658333Y-76508333D01*
X111691666Y-76575000D01*
X111691666Y-76608333D01*
X111658333Y-76675000D01*
X111625000Y-76708333D01*
X111558333Y-76741666D01*
X111425000Y-76741666D01*
X111358333Y-76775000D01*
X111325000Y-76808333D01*
X111291666Y-76875000D01*
X111291666Y-77008333D01*
X111325000Y-77075000D01*
X111358333Y-77108333D01*
X111425000Y-77141666D01*
X111558333Y-77141666D01*
X111625000Y-77108333D01*
X111658333Y-77075000D01*
X111691666Y-77008333D01*
X111691666Y-76875000D01*
X111658333Y-76808333D01*
X111625000Y-76775000D01*
X111558333Y-76741666D01*
X111925000Y-76441666D02*
X112358333Y-76441666D01*
X112125000Y-76708333D01*
X112225000Y-76708333D01*
X112291666Y-76741666D01*
X112325000Y-76775000D01*
X112358333Y-76841666D01*
X112358333Y-77008333D01*
X112325000Y-77075000D01*
X112291666Y-77108333D01*
X112225000Y-77141666D01*
X112025000Y-77141666D01*
X111958333Y-77108333D01*
X111925000Y-77075000D01*
X112791666Y-76441666D02*
X112858333Y-76441666D01*
X112925000Y-76475000D01*
X112958333Y-76508333D01*
X112991666Y-76575000D01*
X113025000Y-76708333D01*
X113025000Y-76875000D01*
X112991666Y-77008333D01*
X112958333Y-77075000D01*
X112925000Y-77108333D01*
X112858333Y-77141666D01*
X112791666Y-77141666D01*
X112725000Y-77108333D01*
X112691666Y-77075000D01*
X112658333Y-77008333D01*
X112625000Y-76875000D01*
X112625000Y-76708333D01*
X112658333Y-76575000D01*
X112691666Y-76508333D01*
X112725000Y-76475000D01*
X112791666Y-76441666D01*
X113291666Y-76508333D02*
X113325000Y-76475000D01*
X113391666Y-76441666D01*
X113558333Y-76441666D01*
X113625000Y-76475000D01*
X113658333Y-76508333D01*
X113691666Y-76575000D01*
X113691666Y-76641666D01*
X113658333Y-76741666D01*
X113258333Y-77141666D01*
X113691666Y-77141666D01*
X113958333Y-76941666D02*
X114291666Y-76941666D01*
X113891666Y-77141666D02*
X114125000Y-76441666D01*
X114358333Y-77141666D01*
X114558333Y-76941666D02*
X114891666Y-76941666D01*
X114491666Y-77141666D02*
X114725000Y-76441666D01*
X114958333Y-77141666D01*
X115158333Y-77108333D02*
X115258333Y-77141666D01*
X115425000Y-77141666D01*
X115491666Y-77108333D01*
X115525000Y-77075000D01*
X115558333Y-77008333D01*
X115558333Y-76941666D01*
X115525000Y-76875000D01*
X115491666Y-76841666D01*
X115425000Y-76808333D01*
X115291666Y-76775000D01*
X115225000Y-76741666D01*
X115191666Y-76708333D01*
X115158333Y-76641666D01*
X115158333Y-76575000D01*
X115191666Y-76508333D01*
X115225000Y-76475000D01*
X115291666Y-76441666D01*
X115458333Y-76441666D01*
X115558333Y-76475000D01*
X120066666Y-139283333D02*
X120100000Y-139250000D01*
X120166666Y-139216666D01*
X120333333Y-139216666D01*
X120400000Y-139250000D01*
X120433333Y-139283333D01*
X120466666Y-139350000D01*
X120466666Y-139416666D01*
X120433333Y-139516666D01*
X120033333Y-139916666D01*
X120466666Y-139916666D01*
X120733333Y-139283333D02*
X120766666Y-139250000D01*
X120833333Y-139216666D01*
X121000000Y-139216666D01*
X121066666Y-139250000D01*
X121100000Y-139283333D01*
X121133333Y-139350000D01*
X121133333Y-139416666D01*
X121100000Y-139516666D01*
X120700000Y-139916666D01*
X121133333Y-139916666D01*
X121566666Y-139216666D02*
X121633333Y-139216666D01*
X121700000Y-139250000D01*
X121733333Y-139283333D01*
X121766666Y-139350000D01*
X121800000Y-139483333D01*
X121800000Y-139650000D01*
X121766666Y-139783333D01*
X121733333Y-139850000D01*
X121700000Y-139883333D01*
X121633333Y-139916666D01*
X121566666Y-139916666D01*
X121500000Y-139883333D01*
X121466666Y-139850000D01*
X121433333Y-139783333D01*
X121400000Y-139650000D01*
X121400000Y-139483333D01*
X121433333Y-139350000D01*
X121466666Y-139283333D01*
X121500000Y-139250000D01*
X121566666Y-139216666D01*
X122100000Y-139450000D02*
X122100000Y-140150000D01*
X122100000Y-139483333D02*
X122166666Y-139450000D01*
X122300000Y-139450000D01*
X122366666Y-139483333D01*
X122400000Y-139516666D01*
X122433333Y-139583333D01*
X122433333Y-139783333D01*
X122400000Y-139850000D01*
X122366666Y-139883333D01*
X122300000Y-139916666D01*
X122166666Y-139916666D01*
X122100000Y-139883333D01*
X120029166Y-142183333D02*
X120062500Y-142150000D01*
X120129166Y-142116666D01*
X120295833Y-142116666D01*
X120362500Y-142150000D01*
X120395833Y-142183333D01*
X120429166Y-142250000D01*
X120429166Y-142316666D01*
X120395833Y-142416666D01*
X119995833Y-142816666D01*
X120429166Y-142816666D01*
X120695833Y-142183333D02*
X120729166Y-142150000D01*
X120795833Y-142116666D01*
X120962500Y-142116666D01*
X121029166Y-142150000D01*
X121062500Y-142183333D01*
X121095833Y-142250000D01*
X121095833Y-142316666D01*
X121062500Y-142416666D01*
X120662500Y-142816666D01*
X121095833Y-142816666D01*
X121529166Y-142116666D02*
X121595833Y-142116666D01*
X121662500Y-142150000D01*
X121695833Y-142183333D01*
X121729166Y-142250000D01*
X121762500Y-142383333D01*
X121762500Y-142550000D01*
X121729166Y-142683333D01*
X121695833Y-142750000D01*
X121662500Y-142783333D01*
X121595833Y-142816666D01*
X121529166Y-142816666D01*
X121462500Y-142783333D01*
X121429166Y-142750000D01*
X121395833Y-142683333D01*
X121362500Y-142550000D01*
X121362500Y-142383333D01*
X121395833Y-142250000D01*
X121429166Y-142183333D01*
X121462500Y-142150000D01*
X121529166Y-142116666D01*
X122062500Y-142350000D02*
X122062500Y-143050000D01*
X122062500Y-142383333D02*
X122129166Y-142350000D01*
X122262500Y-142350000D01*
X122329166Y-142383333D01*
X122362500Y-142416666D01*
X122395833Y-142483333D01*
X122395833Y-142683333D01*
X122362500Y-142750000D01*
X122329166Y-142783333D01*
X122262500Y-142816666D01*
X122129166Y-142816666D01*
X122062500Y-142783333D01*
X121608333Y-77191666D02*
X121208333Y-77191666D01*
X121408333Y-77191666D02*
X121408333Y-76491666D01*
X121341666Y-76591666D01*
X121275000Y-76658333D01*
X121208333Y-76691666D01*
X122208333Y-76725000D02*
X122208333Y-77191666D01*
X121908333Y-76725000D02*
X121908333Y-77091666D01*
X121941666Y-77158333D01*
X122008333Y-77191666D01*
X122108333Y-77191666D01*
X122175000Y-77158333D01*
X122208333Y-77125000D01*
X103825000Y-83141666D02*
X103425000Y-83141666D01*
X103625000Y-83141666D02*
X103625000Y-82441666D01*
X103558333Y-82541666D01*
X103491666Y-82608333D01*
X103425000Y-82641666D01*
X104258333Y-82441666D02*
X104325000Y-82441666D01*
X104391666Y-82475000D01*
X104425000Y-82508333D01*
X104458333Y-82575000D01*
X104491666Y-82708333D01*
X104491666Y-82875000D01*
X104458333Y-83008333D01*
X104425000Y-83075000D01*
X104391666Y-83108333D01*
X104325000Y-83141666D01*
X104258333Y-83141666D01*
X104191666Y-83108333D01*
X104158333Y-83075000D01*
X104125000Y-83008333D01*
X104091666Y-82875000D01*
X104091666Y-82708333D01*
X104125000Y-82575000D01*
X104158333Y-82508333D01*
X104191666Y-82475000D01*
X104258333Y-82441666D01*
X105091666Y-82675000D02*
X105091666Y-83141666D01*
X104791666Y-82675000D02*
X104791666Y-83041666D01*
X104825000Y-83108333D01*
X104891666Y-83141666D01*
X104991666Y-83141666D01*
X105058333Y-83108333D01*
X105091666Y-83075000D01*
X121708333Y-81891666D02*
X121308333Y-81891666D01*
X121508333Y-81891666D02*
X121508333Y-81191666D01*
X121441666Y-81291666D01*
X121375000Y-81358333D01*
X121308333Y-81391666D01*
X122308333Y-81425000D02*
X122308333Y-81891666D01*
X122008333Y-81425000D02*
X122008333Y-81791666D01*
X122041666Y-81858333D01*
X122108333Y-81891666D01*
X122208333Y-81891666D01*
X122275000Y-81858333D01*
X122308333Y-81825000D01*
X117558333Y-81921666D02*
X117158333Y-81921666D01*
X117358333Y-81921666D02*
X117358333Y-81221666D01*
X117291666Y-81321666D01*
X117225000Y-81388333D01*
X117158333Y-81421666D01*
X117991666Y-81221666D02*
X118058333Y-81221666D01*
X118125000Y-81255000D01*
X118158333Y-81288333D01*
X118191666Y-81355000D01*
X118225000Y-81488333D01*
X118225000Y-81655000D01*
X118191666Y-81788333D01*
X118158333Y-81855000D01*
X118125000Y-81888333D01*
X118058333Y-81921666D01*
X117991666Y-81921666D01*
X117925000Y-81888333D01*
X117891666Y-81855000D01*
X117858333Y-81788333D01*
X117825000Y-81655000D01*
X117825000Y-81488333D01*
X117858333Y-81355000D01*
X117891666Y-81288333D01*
X117925000Y-81255000D01*
X117991666Y-81221666D01*
X118658333Y-81221666D02*
X118725000Y-81221666D01*
X118791666Y-81255000D01*
X118825000Y-81288333D01*
X118858333Y-81355000D01*
X118891666Y-81488333D01*
X118891666Y-81655000D01*
X118858333Y-81788333D01*
X118825000Y-81855000D01*
X118791666Y-81888333D01*
X118725000Y-81921666D01*
X118658333Y-81921666D01*
X118591666Y-81888333D01*
X118558333Y-81855000D01*
X118525000Y-81788333D01*
X118491666Y-81655000D01*
X118491666Y-81488333D01*
X118525000Y-81355000D01*
X118558333Y-81288333D01*
X118591666Y-81255000D01*
X118658333Y-81221666D01*
X119591666Y-81921666D02*
X119358333Y-81588333D01*
X119191666Y-81921666D02*
X119191666Y-81221666D01*
X119458333Y-81221666D01*
X119525000Y-81255000D01*
X119558333Y-81288333D01*
X119591666Y-81355000D01*
X119591666Y-81455000D01*
X119558333Y-81521666D01*
X119525000Y-81555000D01*
X119458333Y-81588333D01*
X119191666Y-81588333D01*
X117558333Y-77211666D02*
X117158333Y-77211666D01*
X117358333Y-77211666D02*
X117358333Y-76511666D01*
X117291666Y-76611666D01*
X117225000Y-76678333D01*
X117158333Y-76711666D01*
X117991666Y-76511666D02*
X118058333Y-76511666D01*
X118125000Y-76545000D01*
X118158333Y-76578333D01*
X118191666Y-76645000D01*
X118225000Y-76778333D01*
X118225000Y-76945000D01*
X118191666Y-77078333D01*
X118158333Y-77145000D01*
X118125000Y-77178333D01*
X118058333Y-77211666D01*
X117991666Y-77211666D01*
X117925000Y-77178333D01*
X117891666Y-77145000D01*
X117858333Y-77078333D01*
X117825000Y-76945000D01*
X117825000Y-76778333D01*
X117858333Y-76645000D01*
X117891666Y-76578333D01*
X117925000Y-76545000D01*
X117991666Y-76511666D01*
X118658333Y-76511666D02*
X118725000Y-76511666D01*
X118791666Y-76545000D01*
X118825000Y-76578333D01*
X118858333Y-76645000D01*
X118891666Y-76778333D01*
X118891666Y-76945000D01*
X118858333Y-77078333D01*
X118825000Y-77145000D01*
X118791666Y-77178333D01*
X118725000Y-77211666D01*
X118658333Y-77211666D01*
X118591666Y-77178333D01*
X118558333Y-77145000D01*
X118525000Y-77078333D01*
X118491666Y-76945000D01*
X118491666Y-76778333D01*
X118525000Y-76645000D01*
X118558333Y-76578333D01*
X118591666Y-76545000D01*
X118658333Y-76511666D01*
X119591666Y-77211666D02*
X119358333Y-76878333D01*
X119191666Y-77211666D02*
X119191666Y-76511666D01*
X119458333Y-76511666D01*
X119525000Y-76545000D01*
X119558333Y-76578333D01*
X119591666Y-76645000D01*
X119591666Y-76745000D01*
X119558333Y-76811666D01*
X119525000Y-76845000D01*
X119458333Y-76878333D01*
X119191666Y-76878333D01*
X112041666Y-83721666D02*
X111641666Y-83721666D01*
X111841666Y-83721666D02*
X111841666Y-83021666D01*
X111775000Y-83121666D01*
X111708333Y-83188333D01*
X111641666Y-83221666D01*
X112475000Y-83021666D02*
X112541666Y-83021666D01*
X112608333Y-83055000D01*
X112641666Y-83088333D01*
X112675000Y-83155000D01*
X112708333Y-83288333D01*
X112708333Y-83455000D01*
X112675000Y-83588333D01*
X112641666Y-83655000D01*
X112608333Y-83688333D01*
X112541666Y-83721666D01*
X112475000Y-83721666D01*
X112408333Y-83688333D01*
X112375000Y-83655000D01*
X112341666Y-83588333D01*
X112308333Y-83455000D01*
X112308333Y-83288333D01*
X112341666Y-83155000D01*
X112375000Y-83088333D01*
X112408333Y-83055000D01*
X112475000Y-83021666D01*
X113008333Y-83721666D02*
X113008333Y-83021666D01*
X113408333Y-83721666D02*
X113108333Y-83321666D01*
X113408333Y-83021666D02*
X113008333Y-83421666D01*
X86366666Y-84962500D02*
X86366666Y-85362500D01*
X86366666Y-85162500D02*
X85666666Y-85162500D01*
X85766666Y-85229166D01*
X85833333Y-85295833D01*
X85866666Y-85362500D01*
X86366666Y-84662500D02*
X85666666Y-84662500D01*
X86366666Y-84262500D02*
X85966666Y-84562500D01*
X85666666Y-84262500D02*
X86066666Y-84662500D01*
X102383333Y-140933333D02*
X102416666Y-140833333D01*
X102416666Y-140666666D01*
X102383333Y-140600000D01*
X102350000Y-140566666D01*
X102283333Y-140533333D01*
X102216666Y-140533333D01*
X102150000Y-140566666D01*
X102116666Y-140600000D01*
X102083333Y-140666666D01*
X102050000Y-140800000D01*
X102016666Y-140866666D01*
X101983333Y-140900000D01*
X101916666Y-140933333D01*
X101850000Y-140933333D01*
X101783333Y-140900000D01*
X101750000Y-140866666D01*
X101716666Y-140800000D01*
X101716666Y-140633333D01*
X101750000Y-140533333D01*
X102383333Y-140266666D02*
X102416666Y-140166666D01*
X102416666Y-140000000D01*
X102383333Y-139933333D01*
X102350000Y-139900000D01*
X102283333Y-139866666D01*
X102216666Y-139866666D01*
X102150000Y-139900000D01*
X102116666Y-139933333D01*
X102083333Y-140000000D01*
X102050000Y-140133333D01*
X102016666Y-140200000D01*
X101983333Y-140233333D01*
X101916666Y-140266666D01*
X101850000Y-140266666D01*
X101783333Y-140233333D01*
X101750000Y-140200000D01*
X101716666Y-140133333D01*
X101716666Y-139966666D01*
X101750000Y-139866666D01*
X101716666Y-139633333D02*
X101716666Y-139200000D01*
X101983333Y-139433333D01*
X101983333Y-139333333D01*
X102016666Y-139266666D01*
X102050000Y-139233333D01*
X102116666Y-139200000D01*
X102283333Y-139200000D01*
X102350000Y-139233333D01*
X102383333Y-139266666D01*
X102416666Y-139333333D01*
X102416666Y-139533333D01*
X102383333Y-139600000D01*
X102350000Y-139633333D01*
X102416666Y-138533333D02*
X102416666Y-138933333D01*
X102416666Y-138733333D02*
X101716666Y-138733333D01*
X101816666Y-138800000D01*
X101883333Y-138866666D01*
X101916666Y-138933333D01*
X101716666Y-138100000D02*
X101716666Y-138033333D01*
X101750000Y-137966666D01*
X101783333Y-137933333D01*
X101850000Y-137900000D01*
X101983333Y-137866666D01*
X102150000Y-137866666D01*
X102283333Y-137900000D01*
X102350000Y-137933333D01*
X102383333Y-137966666D01*
X102416666Y-138033333D01*
X102416666Y-138100000D01*
X102383333Y-138166666D01*
X102350000Y-138200000D01*
X102283333Y-138233333D01*
X102150000Y-138266666D01*
X101983333Y-138266666D01*
X101850000Y-138233333D01*
X101783333Y-138200000D01*
X101750000Y-138166666D01*
X101716666Y-138100000D01*
X94816666Y-145500000D02*
X94816666Y-145433333D01*
X94850000Y-145366666D01*
X94883333Y-145333333D01*
X94950000Y-145300000D01*
X95083333Y-145266666D01*
X95250000Y-145266666D01*
X95383333Y-145300000D01*
X95450000Y-145333333D01*
X95483333Y-145366666D01*
X95516666Y-145433333D01*
X95516666Y-145500000D01*
X95483333Y-145566666D01*
X95450000Y-145600000D01*
X95383333Y-145633333D01*
X95250000Y-145666666D01*
X95083333Y-145666666D01*
X94950000Y-145633333D01*
X94883333Y-145600000D01*
X94850000Y-145566666D01*
X94816666Y-145500000D01*
X95450000Y-144966666D02*
X95483333Y-144933333D01*
X95516666Y-144966666D01*
X95483333Y-145000000D01*
X95450000Y-144966666D01*
X95516666Y-144966666D01*
X95516666Y-144266666D02*
X95516666Y-144666666D01*
X95516666Y-144466666D02*
X94816666Y-144466666D01*
X94916666Y-144533333D01*
X94983333Y-144600000D01*
X95016666Y-144666666D01*
X95050000Y-143666666D02*
X95516666Y-143666666D01*
X95050000Y-143966666D02*
X95416666Y-143966666D01*
X95483333Y-143933333D01*
X95516666Y-143866666D01*
X95516666Y-143766666D01*
X95483333Y-143700000D01*
X95450000Y-143666666D01*
X100483333Y-144750000D02*
X100450000Y-144716666D01*
X100416666Y-144650000D01*
X100416666Y-144483333D01*
X100450000Y-144416666D01*
X100483333Y-144383333D01*
X100550000Y-144350000D01*
X100616666Y-144350000D01*
X100716666Y-144383333D01*
X101116666Y-144783333D01*
X101116666Y-144350000D01*
X100483333Y-144083333D02*
X100450000Y-144050000D01*
X100416666Y-143983333D01*
X100416666Y-143816666D01*
X100450000Y-143750000D01*
X100483333Y-143716666D01*
X100550000Y-143683333D01*
X100616666Y-143683333D01*
X100716666Y-143716666D01*
X101116666Y-144116666D01*
X101116666Y-143683333D01*
X100650000Y-143083333D02*
X101116666Y-143083333D01*
X100650000Y-143383333D02*
X101016666Y-143383333D01*
X101083333Y-143350000D01*
X101116666Y-143283333D01*
X101116666Y-143183333D01*
X101083333Y-143116666D01*
X101050000Y-143083333D01*
X113733333Y-135783333D02*
X113766666Y-135750000D01*
X113833333Y-135716666D01*
X114000000Y-135716666D01*
X114066666Y-135750000D01*
X114100000Y-135783333D01*
X114133333Y-135850000D01*
X114133333Y-135916666D01*
X114100000Y-136016666D01*
X113700000Y-136416666D01*
X114133333Y-136416666D01*
X114400000Y-135783333D02*
X114433333Y-135750000D01*
X114500000Y-135716666D01*
X114666666Y-135716666D01*
X114733333Y-135750000D01*
X114766666Y-135783333D01*
X114800000Y-135850000D01*
X114800000Y-135916666D01*
X114766666Y-136016666D01*
X114366666Y-136416666D01*
X114800000Y-136416666D01*
X115400000Y-135950000D02*
X115400000Y-136416666D01*
X115100000Y-135950000D02*
X115100000Y-136316666D01*
X115133333Y-136383333D01*
X115200000Y-136416666D01*
X115300000Y-136416666D01*
X115366666Y-136383333D01*
X115400000Y-136350000D01*
X115733333Y-136416666D02*
X115733333Y-135716666D01*
X115733333Y-136050000D02*
X116133333Y-136050000D01*
X116133333Y-136416666D02*
X116133333Y-135716666D01*
X103733333Y-151500000D02*
X103700000Y-151466666D01*
X103666666Y-151400000D01*
X103666666Y-151233333D01*
X103700000Y-151166666D01*
X103733333Y-151133333D01*
X103800000Y-151100000D01*
X103866666Y-151100000D01*
X103966666Y-151133333D01*
X104366666Y-151533333D01*
X104366666Y-151100000D01*
X104366666Y-150800000D02*
X103666666Y-150800000D01*
X104366666Y-150400000D02*
X103966666Y-150700000D01*
X103666666Y-150400000D02*
X104066666Y-150800000D01*
X97033333Y-144066666D02*
X96633333Y-144066666D01*
X96833333Y-144066666D02*
X96833333Y-143366666D01*
X96766666Y-143466666D01*
X96700000Y-143533333D01*
X96633333Y-143566666D01*
X97466666Y-143366666D02*
X97533333Y-143366666D01*
X97600000Y-143400000D01*
X97633333Y-143433333D01*
X97666666Y-143500000D01*
X97700000Y-143633333D01*
X97700000Y-143800000D01*
X97666666Y-143933333D01*
X97633333Y-144000000D01*
X97600000Y-144033333D01*
X97533333Y-144066666D01*
X97466666Y-144066666D01*
X97400000Y-144033333D01*
X97366666Y-144000000D01*
X97333333Y-143933333D01*
X97300000Y-143800000D01*
X97300000Y-143633333D01*
X97333333Y-143500000D01*
X97366666Y-143433333D01*
X97400000Y-143400000D01*
X97466666Y-143366666D01*
X98133333Y-143366666D02*
X98200000Y-143366666D01*
X98266666Y-143400000D01*
X98300000Y-143433333D01*
X98333333Y-143500000D01*
X98366666Y-143633333D01*
X98366666Y-143800000D01*
X98333333Y-143933333D01*
X98300000Y-144000000D01*
X98266666Y-144033333D01*
X98200000Y-144066666D01*
X98133333Y-144066666D01*
X98066666Y-144033333D01*
X98033333Y-144000000D01*
X98000000Y-143933333D01*
X97966666Y-143800000D01*
X97966666Y-143633333D01*
X98000000Y-143500000D01*
X98033333Y-143433333D01*
X98066666Y-143400000D01*
X98133333Y-143366666D01*
X99066666Y-144066666D02*
X98833333Y-143733333D01*
X98666666Y-144066666D02*
X98666666Y-143366666D01*
X98933333Y-143366666D01*
X99000000Y-143400000D01*
X99033333Y-143433333D01*
X99066666Y-143500000D01*
X99066666Y-143600000D01*
X99033333Y-143666666D01*
X99000000Y-143700000D01*
X98933333Y-143733333D01*
X98666666Y-143733333D01*
X87666548Y-150554044D02*
X87699881Y-150520711D01*
X87766548Y-150487377D01*
X87933214Y-150487377D01*
X87999881Y-150520711D01*
X88033214Y-150554044D01*
X88066548Y-150620711D01*
X88066548Y-150687377D01*
X88033214Y-150787377D01*
X87633214Y-151187377D01*
X88066548Y-151187377D01*
X88366548Y-151187377D02*
X88366548Y-150487377D01*
X88766548Y-151187377D02*
X88466548Y-150787377D01*
X88766548Y-150487377D02*
X88366548Y-150887377D01*
X98883333Y-136816666D02*
X99350000Y-136816666D01*
X99050000Y-137516666D01*
X99616666Y-137516666D02*
X99616666Y-136816666D01*
X100016666Y-137516666D02*
X99716666Y-137116666D01*
X100016666Y-136816666D02*
X99616666Y-137216666D01*
X100650000Y-136816666D02*
X100316666Y-136816666D01*
X100283333Y-137150000D01*
X100316666Y-137116666D01*
X100383333Y-137083333D01*
X100550000Y-137083333D01*
X100616666Y-137116666D01*
X100650000Y-137150000D01*
X100683333Y-137216666D01*
X100683333Y-137383333D01*
X100650000Y-137450000D01*
X100616666Y-137483333D01*
X100550000Y-137516666D01*
X100383333Y-137516666D01*
X100316666Y-137483333D01*
X100283333Y-137450000D01*
X99650000Y-140216666D02*
X99250000Y-140216666D01*
X99450000Y-140216666D02*
X99450000Y-139516666D01*
X99383333Y-139616666D01*
X99316666Y-139683333D01*
X99250000Y-139716666D01*
X99950000Y-140216666D02*
X99950000Y-139516666D01*
X100350000Y-140216666D02*
X100050000Y-139816666D01*
X100350000Y-139516666D02*
X99950000Y-139916666D01*
X110861843Y-144895452D02*
X111255766Y-144964912D01*
X110937251Y-145619548D02*
X111058805Y-144930182D01*
X111364001Y-145694795D02*
X111485555Y-145005430D01*
X111748170Y-145051736D01*
X111808036Y-145096139D01*
X111835075Y-145134754D01*
X111856325Y-145206197D01*
X111838960Y-145304677D01*
X111794557Y-145364543D01*
X111755941Y-145391582D01*
X111684499Y-145412832D01*
X111421884Y-145366526D01*
X112429845Y-145408866D02*
X112348809Y-145868443D01*
X112312016Y-145117310D02*
X112061058Y-145580772D01*
X112487808Y-145656020D01*
X112962767Y-145265902D02*
X113028420Y-145277478D01*
X113088286Y-145321882D01*
X113115325Y-145360497D01*
X113136575Y-145431939D01*
X113146249Y-145569035D01*
X113117308Y-145733170D01*
X113061327Y-145858689D01*
X113016924Y-145918555D01*
X112978309Y-145945593D01*
X112906867Y-145966844D01*
X112841213Y-145955267D01*
X112781347Y-145910864D01*
X112754309Y-145872249D01*
X112733058Y-145800807D01*
X112723384Y-145663711D01*
X112752326Y-145499576D01*
X112808306Y-145374057D01*
X112852709Y-145314191D01*
X112891324Y-145287152D01*
X112962767Y-145265902D01*
X113816267Y-145416397D02*
X113487997Y-145358514D01*
X113397288Y-145680995D01*
X113435903Y-145653957D01*
X113507345Y-145632706D01*
X113671480Y-145661648D01*
X113731345Y-145706051D01*
X113758384Y-145744666D01*
X113779634Y-145816108D01*
X113750693Y-145980243D01*
X113706289Y-146040109D01*
X113667674Y-146067147D01*
X113596232Y-146088398D01*
X113432098Y-146059456D01*
X113372232Y-146015053D01*
X113345193Y-145976438D01*
X114439978Y-145526374D02*
X114308671Y-145503221D01*
X114237228Y-145524471D01*
X114198613Y-145551510D01*
X114115595Y-145638414D01*
X114059614Y-145763934D01*
X114013308Y-146026549D01*
X114034559Y-146097991D01*
X114061597Y-146136606D01*
X114121463Y-146181010D01*
X114252771Y-146204163D01*
X114324213Y-146182913D01*
X114362828Y-146155874D01*
X114407231Y-146096008D01*
X114436173Y-145931874D01*
X114414922Y-145860432D01*
X114387884Y-145821816D01*
X114328018Y-145777413D01*
X114196710Y-145754260D01*
X114125268Y-145775510D01*
X114086653Y-145802549D01*
X114042250Y-145862415D01*
X91434967Y-139518707D02*
X91318301Y-139316635D01*
X91000758Y-139499968D02*
X91606976Y-139149968D01*
X91773643Y-139438643D01*
X91312959Y-139974049D02*
X91334091Y-140077318D01*
X91417425Y-140221656D01*
X91479626Y-140262724D01*
X91525160Y-140274925D01*
X91599562Y-140270459D01*
X91657297Y-140237126D01*
X91698365Y-140174925D01*
X91710566Y-140129391D01*
X91706100Y-140054989D01*
X91668301Y-139922853D01*
X91663835Y-139848451D01*
X91676036Y-139802917D01*
X91717104Y-139740716D01*
X91774839Y-139707382D01*
X91849241Y-139702917D01*
X91894775Y-139715117D01*
X91956976Y-139756186D01*
X92040309Y-139900523D01*
X92061442Y-140003793D01*
X92206976Y-140189199D02*
X92423643Y-140564476D01*
X92076036Y-140495737D01*
X92126036Y-140582339D01*
X92130502Y-140656741D01*
X92118301Y-140702275D01*
X92077232Y-140764476D01*
X91932895Y-140847810D01*
X91858493Y-140852275D01*
X91812959Y-140840075D01*
X91750758Y-140799006D01*
X91650758Y-140625801D01*
X91646292Y-140551399D01*
X91658493Y-140505865D01*
X92150758Y-141491826D02*
X91950758Y-141145416D01*
X92050758Y-141318621D02*
X92656976Y-140968621D01*
X92537040Y-140960886D01*
X92445972Y-140936485D01*
X92383771Y-140895416D01*
X92832574Y-141406100D02*
X92878108Y-141418301D01*
X92940309Y-141459369D01*
X93023643Y-141603707D01*
X93028108Y-141678108D01*
X93015908Y-141723643D01*
X92974839Y-141785843D01*
X92917104Y-141819177D01*
X92813835Y-141840309D01*
X92267425Y-141693899D01*
X92484091Y-142069177D01*
X93068301Y-142347724D02*
X92951634Y-142145651D01*
X92634091Y-142328984D02*
X93240309Y-141978984D01*
X93406976Y-142267660D01*
X93165032Y-142715266D02*
X93431698Y-143177146D01*
X94128108Y-143583364D02*
X94123643Y-143508963D01*
X94073643Y-143422360D01*
X93994775Y-143352424D01*
X93903707Y-143328022D01*
X93829305Y-143332488D01*
X93697168Y-143370287D01*
X93610566Y-143420287D01*
X93511762Y-143515822D01*
X93470694Y-143578022D01*
X93446292Y-143669091D01*
X93467425Y-143772360D01*
X93500758Y-143830095D01*
X93579626Y-143900031D01*
X93625160Y-143912232D01*
X93827232Y-143795565D01*
X93760566Y-143680095D01*
X85650000Y-149516666D02*
X85650000Y-149750000D01*
X86016666Y-149750000D02*
X85316666Y-149750000D01*
X85316666Y-149416666D01*
X85983333Y-149183333D02*
X86016666Y-149083333D01*
X86016666Y-148916666D01*
X85983333Y-148850000D01*
X85950000Y-148816666D01*
X85883333Y-148783333D01*
X85816666Y-148783333D01*
X85750000Y-148816666D01*
X85716666Y-148850000D01*
X85683333Y-148916666D01*
X85650000Y-149050000D01*
X85616666Y-149116666D01*
X85583333Y-149150000D01*
X85516666Y-149183333D01*
X85450000Y-149183333D01*
X85383333Y-149150000D01*
X85350000Y-149116666D01*
X85316666Y-149050000D01*
X85316666Y-148883333D01*
X85350000Y-148783333D01*
X85616666Y-148383333D02*
X85583333Y-148450000D01*
X85550000Y-148483333D01*
X85483333Y-148516666D01*
X85450000Y-148516666D01*
X85383333Y-148483333D01*
X85350000Y-148450000D01*
X85316666Y-148383333D01*
X85316666Y-148250000D01*
X85350000Y-148183333D01*
X85383333Y-148150000D01*
X85450000Y-148116666D01*
X85483333Y-148116666D01*
X85550000Y-148150000D01*
X85583333Y-148183333D01*
X85616666Y-148250000D01*
X85616666Y-148383333D01*
X85650000Y-148450000D01*
X85683333Y-148483333D01*
X85750000Y-148516666D01*
X85883333Y-148516666D01*
X85950000Y-148483333D01*
X85983333Y-148450000D01*
X86016666Y-148383333D01*
X86016666Y-148250000D01*
X85983333Y-148183333D01*
X85950000Y-148150000D01*
X85883333Y-148116666D01*
X85750000Y-148116666D01*
X85683333Y-148150000D01*
X85650000Y-148183333D01*
X85616666Y-148250000D01*
X85383333Y-147850000D02*
X85350000Y-147816666D01*
X85316666Y-147750000D01*
X85316666Y-147583333D01*
X85350000Y-147516666D01*
X85383333Y-147483333D01*
X85450000Y-147450000D01*
X85516666Y-147450000D01*
X85616666Y-147483333D01*
X86016666Y-147883333D01*
X86016666Y-147450000D01*
X85316666Y-147016666D02*
X85316666Y-146950000D01*
X85350000Y-146883333D01*
X85383333Y-146850000D01*
X85450000Y-146816666D01*
X85583333Y-146783333D01*
X85750000Y-146783333D01*
X85883333Y-146816666D01*
X85950000Y-146850000D01*
X85983333Y-146883333D01*
X86016666Y-146950000D01*
X86016666Y-147016666D01*
X85983333Y-147083333D01*
X85950000Y-147116666D01*
X85883333Y-147150000D01*
X85750000Y-147183333D01*
X85583333Y-147183333D01*
X85450000Y-147150000D01*
X85383333Y-147116666D01*
X85350000Y-147083333D01*
X85316666Y-147016666D01*
X85316666Y-146150000D02*
X85316666Y-146483333D01*
X85650000Y-146516666D01*
X85616666Y-146483333D01*
X85583333Y-146416666D01*
X85583333Y-146250000D01*
X85616666Y-146183333D01*
X85650000Y-146150000D01*
X85716666Y-146116666D01*
X85883333Y-146116666D01*
X85950000Y-146150000D01*
X85983333Y-146183333D01*
X86016666Y-146250000D01*
X86016666Y-146416666D01*
X85983333Y-146483333D01*
X85950000Y-146516666D01*
X111497176Y-139581374D02*
X111678349Y-138905226D01*
X111774323Y-139448580D01*
X112129115Y-139026009D01*
X111947942Y-139702157D01*
X112354498Y-139086400D02*
X112740868Y-139189927D01*
X112366509Y-139814312D02*
X112547683Y-139138163D01*
X112901855Y-139233064D02*
X113320423Y-139345219D01*
X113026022Y-139542408D01*
X113122615Y-139568290D01*
X113178383Y-139617742D01*
X113201953Y-139658567D01*
X113216896Y-139731589D01*
X113173759Y-139892577D01*
X113124307Y-139948344D01*
X113083482Y-139971915D01*
X113010460Y-139986858D01*
X112817275Y-139935094D01*
X112761507Y-139885642D01*
X112737937Y-139844817D01*
X113899979Y-139500510D02*
X113771189Y-139466001D01*
X113698166Y-139480944D01*
X113657342Y-139504514D01*
X113567065Y-139583852D01*
X113500358Y-139704015D01*
X113431339Y-139961595D01*
X113446282Y-140034617D01*
X113469853Y-140075442D01*
X113525620Y-140124894D01*
X113654410Y-140159404D01*
X113727433Y-140144461D01*
X113768258Y-140120890D01*
X113817710Y-140065123D01*
X113860846Y-139904135D01*
X113845903Y-139831113D01*
X113822333Y-139790288D01*
X113766565Y-139740836D01*
X113637775Y-139706327D01*
X113564753Y-139721269D01*
X113523928Y-139744840D01*
X113474476Y-139800607D01*
X114382942Y-139629920D02*
X114447337Y-139647174D01*
X114503105Y-139696626D01*
X114526675Y-139737451D01*
X114541618Y-139810474D01*
X114539306Y-139947891D01*
X114496170Y-140108879D01*
X114429463Y-140229041D01*
X114380011Y-140284809D01*
X114339186Y-140308379D01*
X114266163Y-140323322D01*
X114201768Y-140306068D01*
X114146001Y-140256616D01*
X114122430Y-140215791D01*
X114107488Y-140142768D01*
X114109799Y-140005351D01*
X114152936Y-139844363D01*
X114219642Y-139724201D01*
X114269095Y-139668433D01*
X114309919Y-139644863D01*
X114382942Y-139629920D01*
X114917049Y-140083616D02*
X114861281Y-140034164D01*
X114837711Y-139993339D01*
X114822768Y-139920317D01*
X114831395Y-139888119D01*
X114880848Y-139832352D01*
X114921672Y-139808781D01*
X114994695Y-139793838D01*
X115123485Y-139828348D01*
X115179253Y-139877800D01*
X115202823Y-139918625D01*
X115217766Y-139991647D01*
X115209139Y-140023844D01*
X115159686Y-140079612D01*
X115118862Y-140103182D01*
X115045839Y-140118125D01*
X114917049Y-140083616D01*
X114844027Y-140098559D01*
X114803202Y-140122129D01*
X114753750Y-140177897D01*
X114719241Y-140306687D01*
X114734183Y-140379710D01*
X114757754Y-140420534D01*
X114813521Y-140469986D01*
X114942312Y-140504496D01*
X115015334Y-140489553D01*
X115056159Y-140465983D01*
X115105611Y-140410215D01*
X115140120Y-140281425D01*
X115125177Y-140208402D01*
X115101607Y-140167577D01*
X115045839Y-140118125D01*
X138066666Y-82933333D02*
X138066666Y-82500000D01*
X138333333Y-82733333D01*
X138333333Y-82633333D01*
X138366666Y-82566666D01*
X138400000Y-82533333D01*
X138466666Y-82500000D01*
X138633333Y-82500000D01*
X138700000Y-82533333D01*
X138733333Y-82566666D01*
X138766666Y-82633333D01*
X138766666Y-82833333D01*
X138733333Y-82900000D01*
X138700000Y-82933333D01*
X138066666Y-82266666D02*
X138066666Y-81833333D01*
X138333333Y-82066666D01*
X138333333Y-81966666D01*
X138366666Y-81900000D01*
X138400000Y-81866666D01*
X138466666Y-81833333D01*
X138633333Y-81833333D01*
X138700000Y-81866666D01*
X138733333Y-81900000D01*
X138766666Y-81966666D01*
X138766666Y-82166666D01*
X138733333Y-82233333D01*
X138700000Y-82266666D01*
X138300000Y-81533333D02*
X138766666Y-81533333D01*
X138366666Y-81533333D02*
X138333333Y-81500000D01*
X138300000Y-81433333D01*
X138300000Y-81333333D01*
X138333333Y-81266666D01*
X138400000Y-81233333D01*
X138766666Y-81233333D01*
X138400000Y-80666666D02*
X138400000Y-80900000D01*
X138766666Y-80900000D02*
X138066666Y-80900000D01*
X138066666Y-80566666D01*
X143133333Y-80216666D02*
X143100000Y-80183333D01*
X143066666Y-80116666D01*
X143066666Y-79950000D01*
X143100000Y-79883333D01*
X143133333Y-79850000D01*
X143200000Y-79816666D01*
X143266666Y-79816666D01*
X143366666Y-79850000D01*
X143766666Y-80250000D01*
X143766666Y-79816666D01*
X143066666Y-79583333D02*
X143066666Y-79116666D01*
X143766666Y-79416666D01*
X143066666Y-78716666D02*
X143066666Y-78650000D01*
X143100000Y-78583333D01*
X143133333Y-78550000D01*
X143200000Y-78516666D01*
X143333333Y-78483333D01*
X143500000Y-78483333D01*
X143633333Y-78516666D01*
X143700000Y-78550000D01*
X143733333Y-78583333D01*
X143766666Y-78650000D01*
X143766666Y-78716666D01*
X143733333Y-78783333D01*
X143700000Y-78816666D01*
X143633333Y-78850000D01*
X143500000Y-78883333D01*
X143333333Y-78883333D01*
X143200000Y-78850000D01*
X143133333Y-78816666D01*
X143100000Y-78783333D01*
X143066666Y-78716666D01*
X143766666Y-77783333D02*
X143433333Y-78016666D01*
X143766666Y-78183333D02*
X143066666Y-78183333D01*
X143066666Y-77916666D01*
X143100000Y-77850000D01*
X143133333Y-77816666D01*
X143200000Y-77783333D01*
X143300000Y-77783333D01*
X143366666Y-77816666D01*
X143400000Y-77850000D01*
X143433333Y-77916666D01*
X143433333Y-78183333D01*
X136066666Y-82616666D02*
X136066666Y-83016666D01*
X136066666Y-82816666D02*
X135366666Y-82816666D01*
X135466666Y-82883333D01*
X135533333Y-82950000D01*
X135566666Y-83016666D01*
X135366666Y-81983333D02*
X135366666Y-82316666D01*
X135700000Y-82350000D01*
X135666666Y-82316666D01*
X135633333Y-82250000D01*
X135633333Y-82083333D01*
X135666666Y-82016666D01*
X135700000Y-81983333D01*
X135766666Y-81950000D01*
X135933333Y-81950000D01*
X136000000Y-81983333D01*
X136033333Y-82016666D01*
X136066666Y-82083333D01*
X136066666Y-82250000D01*
X136033333Y-82316666D01*
X136000000Y-82350000D01*
X135366666Y-81516666D02*
X135366666Y-81450000D01*
X135400000Y-81383333D01*
X135433333Y-81350000D01*
X135500000Y-81316666D01*
X135633333Y-81283333D01*
X135800000Y-81283333D01*
X135933333Y-81316666D01*
X136000000Y-81350000D01*
X136033333Y-81383333D01*
X136066666Y-81450000D01*
X136066666Y-81516666D01*
X136033333Y-81583333D01*
X136000000Y-81616666D01*
X135933333Y-81650000D01*
X135800000Y-81683333D01*
X135633333Y-81683333D01*
X135500000Y-81650000D01*
X135433333Y-81616666D01*
X135400000Y-81583333D01*
X135366666Y-81516666D01*
X136066666Y-80583333D02*
X135733333Y-80816666D01*
X136066666Y-80983333D02*
X135366666Y-80983333D01*
X135366666Y-80716666D01*
X135400000Y-80650000D01*
X135433333Y-80616666D01*
X135500000Y-80583333D01*
X135600000Y-80583333D01*
X135666666Y-80616666D01*
X135700000Y-80650000D01*
X135733333Y-80716666D01*
X135733333Y-80983333D01*
M02*
