G04 #@! TF.GenerationSoftware,KiCad,Pcbnew,5.1.5*
G04 #@! TF.CreationDate,2020-03-31T00:43:33+02:00*
G04 #@! TF.ProjectId,gameboy-dmg,67616d65-626f-4792-9d64-6d672e6b6963,rev?*
G04 #@! TF.SameCoordinates,Original*
G04 #@! TF.FileFunction,Copper,L2,Bot*
G04 #@! TF.FilePolarity,Positive*
%FSLAX46Y46*%
G04 Gerber Fmt 4.6, Leading zero omitted, Abs format (unit mm)*
G04 Created by KiCad (PCBNEW 5.1.5) date 2020-03-31 00:43:33*
%MOMM*%
%LPD*%
G04 APERTURE LIST*
%ADD10R,1.600000X1.600000*%
%ADD11C,1.600000*%
%ADD12C,0.150000*%
%ADD13C,1.450000*%
%ADD14O,1.200000X1.900000*%
%ADD15O,1.700000X1.700000*%
%ADD16R,1.700000X1.700000*%
%ADD17R,1.800000X1.800000*%
%ADD18C,1.800000*%
%ADD19C,1.524000*%
%ADD20C,0.800000*%
%ADD21C,0.400000*%
%ADD22C,0.300000*%
%ADD23C,0.750000*%
%ADD24C,0.500000*%
%ADD25C,1.000000*%
%ADD26C,0.254000*%
G04 APERTURE END LIST*
D10*
X137300000Y-76300000D03*
D11*
X137300000Y-78300000D03*
G04 #@! TA.AperFunction,SMDPad,CuDef*
D12*
G36*
X100565191Y-147076053D02*
G01*
X100586426Y-147079203D01*
X100607250Y-147084419D01*
X100627462Y-147091651D01*
X100646868Y-147100830D01*
X100665281Y-147111866D01*
X100682524Y-147124654D01*
X100698430Y-147139070D01*
X100712846Y-147154976D01*
X100725634Y-147172219D01*
X100736670Y-147190632D01*
X100745849Y-147210038D01*
X100753081Y-147230250D01*
X100758297Y-147251074D01*
X100761447Y-147272309D01*
X100762500Y-147293750D01*
X100762500Y-147806250D01*
X100761447Y-147827691D01*
X100758297Y-147848926D01*
X100753081Y-147869750D01*
X100745849Y-147889962D01*
X100736670Y-147909368D01*
X100725634Y-147927781D01*
X100712846Y-147945024D01*
X100698430Y-147960930D01*
X100682524Y-147975346D01*
X100665281Y-147988134D01*
X100646868Y-147999170D01*
X100627462Y-148008349D01*
X100607250Y-148015581D01*
X100586426Y-148020797D01*
X100565191Y-148023947D01*
X100543750Y-148025000D01*
X100106250Y-148025000D01*
X100084809Y-148023947D01*
X100063574Y-148020797D01*
X100042750Y-148015581D01*
X100022538Y-148008349D01*
X100003132Y-147999170D01*
X99984719Y-147988134D01*
X99967476Y-147975346D01*
X99951570Y-147960930D01*
X99937154Y-147945024D01*
X99924366Y-147927781D01*
X99913330Y-147909368D01*
X99904151Y-147889962D01*
X99896919Y-147869750D01*
X99891703Y-147848926D01*
X99888553Y-147827691D01*
X99887500Y-147806250D01*
X99887500Y-147293750D01*
X99888553Y-147272309D01*
X99891703Y-147251074D01*
X99896919Y-147230250D01*
X99904151Y-147210038D01*
X99913330Y-147190632D01*
X99924366Y-147172219D01*
X99937154Y-147154976D01*
X99951570Y-147139070D01*
X99967476Y-147124654D01*
X99984719Y-147111866D01*
X100003132Y-147100830D01*
X100022538Y-147091651D01*
X100042750Y-147084419D01*
X100063574Y-147079203D01*
X100084809Y-147076053D01*
X100106250Y-147075000D01*
X100543750Y-147075000D01*
X100565191Y-147076053D01*
G37*
G04 #@! TD.AperFunction*
G04 #@! TA.AperFunction,SMDPad,CuDef*
G36*
X102140191Y-147076053D02*
G01*
X102161426Y-147079203D01*
X102182250Y-147084419D01*
X102202462Y-147091651D01*
X102221868Y-147100830D01*
X102240281Y-147111866D01*
X102257524Y-147124654D01*
X102273430Y-147139070D01*
X102287846Y-147154976D01*
X102300634Y-147172219D01*
X102311670Y-147190632D01*
X102320849Y-147210038D01*
X102328081Y-147230250D01*
X102333297Y-147251074D01*
X102336447Y-147272309D01*
X102337500Y-147293750D01*
X102337500Y-147806250D01*
X102336447Y-147827691D01*
X102333297Y-147848926D01*
X102328081Y-147869750D01*
X102320849Y-147889962D01*
X102311670Y-147909368D01*
X102300634Y-147927781D01*
X102287846Y-147945024D01*
X102273430Y-147960930D01*
X102257524Y-147975346D01*
X102240281Y-147988134D01*
X102221868Y-147999170D01*
X102202462Y-148008349D01*
X102182250Y-148015581D01*
X102161426Y-148020797D01*
X102140191Y-148023947D01*
X102118750Y-148025000D01*
X101681250Y-148025000D01*
X101659809Y-148023947D01*
X101638574Y-148020797D01*
X101617750Y-148015581D01*
X101597538Y-148008349D01*
X101578132Y-147999170D01*
X101559719Y-147988134D01*
X101542476Y-147975346D01*
X101526570Y-147960930D01*
X101512154Y-147945024D01*
X101499366Y-147927781D01*
X101488330Y-147909368D01*
X101479151Y-147889962D01*
X101471919Y-147869750D01*
X101466703Y-147848926D01*
X101463553Y-147827691D01*
X101462500Y-147806250D01*
X101462500Y-147293750D01*
X101463553Y-147272309D01*
X101466703Y-147251074D01*
X101471919Y-147230250D01*
X101479151Y-147210038D01*
X101488330Y-147190632D01*
X101499366Y-147172219D01*
X101512154Y-147154976D01*
X101526570Y-147139070D01*
X101542476Y-147124654D01*
X101559719Y-147111866D01*
X101578132Y-147100830D01*
X101597538Y-147091651D01*
X101617750Y-147084419D01*
X101638574Y-147079203D01*
X101659809Y-147076053D01*
X101681250Y-147075000D01*
X102118750Y-147075000D01*
X102140191Y-147076053D01*
G37*
G04 #@! TD.AperFunction*
G04 #@! TA.AperFunction,SMDPad,CuDef*
G36*
X102127691Y-149226053D02*
G01*
X102148926Y-149229203D01*
X102169750Y-149234419D01*
X102189962Y-149241651D01*
X102209368Y-149250830D01*
X102227781Y-149261866D01*
X102245024Y-149274654D01*
X102260930Y-149289070D01*
X102275346Y-149304976D01*
X102288134Y-149322219D01*
X102299170Y-149340632D01*
X102308349Y-149360038D01*
X102315581Y-149380250D01*
X102320797Y-149401074D01*
X102323947Y-149422309D01*
X102325000Y-149443750D01*
X102325000Y-149956250D01*
X102323947Y-149977691D01*
X102320797Y-149998926D01*
X102315581Y-150019750D01*
X102308349Y-150039962D01*
X102299170Y-150059368D01*
X102288134Y-150077781D01*
X102275346Y-150095024D01*
X102260930Y-150110930D01*
X102245024Y-150125346D01*
X102227781Y-150138134D01*
X102209368Y-150149170D01*
X102189962Y-150158349D01*
X102169750Y-150165581D01*
X102148926Y-150170797D01*
X102127691Y-150173947D01*
X102106250Y-150175000D01*
X101668750Y-150175000D01*
X101647309Y-150173947D01*
X101626074Y-150170797D01*
X101605250Y-150165581D01*
X101585038Y-150158349D01*
X101565632Y-150149170D01*
X101547219Y-150138134D01*
X101529976Y-150125346D01*
X101514070Y-150110930D01*
X101499654Y-150095024D01*
X101486866Y-150077781D01*
X101475830Y-150059368D01*
X101466651Y-150039962D01*
X101459419Y-150019750D01*
X101454203Y-149998926D01*
X101451053Y-149977691D01*
X101450000Y-149956250D01*
X101450000Y-149443750D01*
X101451053Y-149422309D01*
X101454203Y-149401074D01*
X101459419Y-149380250D01*
X101466651Y-149360038D01*
X101475830Y-149340632D01*
X101486866Y-149322219D01*
X101499654Y-149304976D01*
X101514070Y-149289070D01*
X101529976Y-149274654D01*
X101547219Y-149261866D01*
X101565632Y-149250830D01*
X101585038Y-149241651D01*
X101605250Y-149234419D01*
X101626074Y-149229203D01*
X101647309Y-149226053D01*
X101668750Y-149225000D01*
X102106250Y-149225000D01*
X102127691Y-149226053D01*
G37*
G04 #@! TD.AperFunction*
G04 #@! TA.AperFunction,SMDPad,CuDef*
G36*
X100552691Y-149226053D02*
G01*
X100573926Y-149229203D01*
X100594750Y-149234419D01*
X100614962Y-149241651D01*
X100634368Y-149250830D01*
X100652781Y-149261866D01*
X100670024Y-149274654D01*
X100685930Y-149289070D01*
X100700346Y-149304976D01*
X100713134Y-149322219D01*
X100724170Y-149340632D01*
X100733349Y-149360038D01*
X100740581Y-149380250D01*
X100745797Y-149401074D01*
X100748947Y-149422309D01*
X100750000Y-149443750D01*
X100750000Y-149956250D01*
X100748947Y-149977691D01*
X100745797Y-149998926D01*
X100740581Y-150019750D01*
X100733349Y-150039962D01*
X100724170Y-150059368D01*
X100713134Y-150077781D01*
X100700346Y-150095024D01*
X100685930Y-150110930D01*
X100670024Y-150125346D01*
X100652781Y-150138134D01*
X100634368Y-150149170D01*
X100614962Y-150158349D01*
X100594750Y-150165581D01*
X100573926Y-150170797D01*
X100552691Y-150173947D01*
X100531250Y-150175000D01*
X100093750Y-150175000D01*
X100072309Y-150173947D01*
X100051074Y-150170797D01*
X100030250Y-150165581D01*
X100010038Y-150158349D01*
X99990632Y-150149170D01*
X99972219Y-150138134D01*
X99954976Y-150125346D01*
X99939070Y-150110930D01*
X99924654Y-150095024D01*
X99911866Y-150077781D01*
X99900830Y-150059368D01*
X99891651Y-150039962D01*
X99884419Y-150019750D01*
X99879203Y-149998926D01*
X99876053Y-149977691D01*
X99875000Y-149956250D01*
X99875000Y-149443750D01*
X99876053Y-149422309D01*
X99879203Y-149401074D01*
X99884419Y-149380250D01*
X99891651Y-149360038D01*
X99900830Y-149340632D01*
X99911866Y-149322219D01*
X99924654Y-149304976D01*
X99939070Y-149289070D01*
X99954976Y-149274654D01*
X99972219Y-149261866D01*
X99990632Y-149250830D01*
X100010038Y-149241651D01*
X100030250Y-149234419D01*
X100051074Y-149229203D01*
X100072309Y-149226053D01*
X100093750Y-149225000D01*
X100531250Y-149225000D01*
X100552691Y-149226053D01*
G37*
G04 #@! TD.AperFunction*
D13*
X115000000Y-148650000D03*
X120000000Y-148650000D03*
D14*
X114000000Y-151350000D03*
X121000000Y-151350000D03*
D15*
X142010000Y-88240000D03*
X142010000Y-85700000D03*
X139470000Y-88240000D03*
X139470000Y-85700000D03*
X136930000Y-88240000D03*
X136930000Y-85700000D03*
X134390000Y-88240000D03*
X134390000Y-85700000D03*
X131850000Y-88240000D03*
X131850000Y-85700000D03*
X129310000Y-88240000D03*
X129310000Y-85700000D03*
X126770000Y-88240000D03*
X126770000Y-85700000D03*
X124230000Y-88240000D03*
X124230000Y-85700000D03*
X121690000Y-88240000D03*
X121690000Y-85700000D03*
X119150000Y-88240000D03*
X119150000Y-85700000D03*
X116610000Y-88240000D03*
X116610000Y-85700000D03*
X114070000Y-88240000D03*
X114070000Y-85700000D03*
X111530000Y-88240000D03*
X111530000Y-85700000D03*
X108990000Y-88240000D03*
X108990000Y-85700000D03*
X106450000Y-88240000D03*
X106450000Y-85700000D03*
X103910000Y-88240000D03*
X103910000Y-85700000D03*
X101370000Y-88240000D03*
X101370000Y-85700000D03*
X98830000Y-88240000D03*
X98830000Y-85700000D03*
X96290000Y-88240000D03*
X96290000Y-85700000D03*
X93750000Y-88240000D03*
D16*
X93750000Y-85700000D03*
D15*
X124420000Y-93150000D03*
X121880000Y-93150000D03*
X119340000Y-93150000D03*
X116800000Y-93150000D03*
X114260000Y-93150000D03*
X111720000Y-93150000D03*
X109180000Y-93150000D03*
X106640000Y-93150000D03*
D16*
X104100000Y-93150000D03*
G04 #@! TA.AperFunction,SMDPad,CuDef*
D12*
G36*
X107602691Y-149026053D02*
G01*
X107623926Y-149029203D01*
X107644750Y-149034419D01*
X107664962Y-149041651D01*
X107684368Y-149050830D01*
X107702781Y-149061866D01*
X107720024Y-149074654D01*
X107735930Y-149089070D01*
X107750346Y-149104976D01*
X107763134Y-149122219D01*
X107774170Y-149140632D01*
X107783349Y-149160038D01*
X107790581Y-149180250D01*
X107795797Y-149201074D01*
X107798947Y-149222309D01*
X107800000Y-149243750D01*
X107800000Y-149756250D01*
X107798947Y-149777691D01*
X107795797Y-149798926D01*
X107790581Y-149819750D01*
X107783349Y-149839962D01*
X107774170Y-149859368D01*
X107763134Y-149877781D01*
X107750346Y-149895024D01*
X107735930Y-149910930D01*
X107720024Y-149925346D01*
X107702781Y-149938134D01*
X107684368Y-149949170D01*
X107664962Y-149958349D01*
X107644750Y-149965581D01*
X107623926Y-149970797D01*
X107602691Y-149973947D01*
X107581250Y-149975000D01*
X107143750Y-149975000D01*
X107122309Y-149973947D01*
X107101074Y-149970797D01*
X107080250Y-149965581D01*
X107060038Y-149958349D01*
X107040632Y-149949170D01*
X107022219Y-149938134D01*
X107004976Y-149925346D01*
X106989070Y-149910930D01*
X106974654Y-149895024D01*
X106961866Y-149877781D01*
X106950830Y-149859368D01*
X106941651Y-149839962D01*
X106934419Y-149819750D01*
X106929203Y-149798926D01*
X106926053Y-149777691D01*
X106925000Y-149756250D01*
X106925000Y-149243750D01*
X106926053Y-149222309D01*
X106929203Y-149201074D01*
X106934419Y-149180250D01*
X106941651Y-149160038D01*
X106950830Y-149140632D01*
X106961866Y-149122219D01*
X106974654Y-149104976D01*
X106989070Y-149089070D01*
X107004976Y-149074654D01*
X107022219Y-149061866D01*
X107040632Y-149050830D01*
X107060038Y-149041651D01*
X107080250Y-149034419D01*
X107101074Y-149029203D01*
X107122309Y-149026053D01*
X107143750Y-149025000D01*
X107581250Y-149025000D01*
X107602691Y-149026053D01*
G37*
G04 #@! TD.AperFunction*
G04 #@! TA.AperFunction,SMDPad,CuDef*
G36*
X109177691Y-149026053D02*
G01*
X109198926Y-149029203D01*
X109219750Y-149034419D01*
X109239962Y-149041651D01*
X109259368Y-149050830D01*
X109277781Y-149061866D01*
X109295024Y-149074654D01*
X109310930Y-149089070D01*
X109325346Y-149104976D01*
X109338134Y-149122219D01*
X109349170Y-149140632D01*
X109358349Y-149160038D01*
X109365581Y-149180250D01*
X109370797Y-149201074D01*
X109373947Y-149222309D01*
X109375000Y-149243750D01*
X109375000Y-149756250D01*
X109373947Y-149777691D01*
X109370797Y-149798926D01*
X109365581Y-149819750D01*
X109358349Y-149839962D01*
X109349170Y-149859368D01*
X109338134Y-149877781D01*
X109325346Y-149895024D01*
X109310930Y-149910930D01*
X109295024Y-149925346D01*
X109277781Y-149938134D01*
X109259368Y-149949170D01*
X109239962Y-149958349D01*
X109219750Y-149965581D01*
X109198926Y-149970797D01*
X109177691Y-149973947D01*
X109156250Y-149975000D01*
X108718750Y-149975000D01*
X108697309Y-149973947D01*
X108676074Y-149970797D01*
X108655250Y-149965581D01*
X108635038Y-149958349D01*
X108615632Y-149949170D01*
X108597219Y-149938134D01*
X108579976Y-149925346D01*
X108564070Y-149910930D01*
X108549654Y-149895024D01*
X108536866Y-149877781D01*
X108525830Y-149859368D01*
X108516651Y-149839962D01*
X108509419Y-149819750D01*
X108504203Y-149798926D01*
X108501053Y-149777691D01*
X108500000Y-149756250D01*
X108500000Y-149243750D01*
X108501053Y-149222309D01*
X108504203Y-149201074D01*
X108509419Y-149180250D01*
X108516651Y-149160038D01*
X108525830Y-149140632D01*
X108536866Y-149122219D01*
X108549654Y-149104976D01*
X108564070Y-149089070D01*
X108579976Y-149074654D01*
X108597219Y-149061866D01*
X108615632Y-149050830D01*
X108635038Y-149041651D01*
X108655250Y-149034419D01*
X108676074Y-149029203D01*
X108697309Y-149026053D01*
X108718750Y-149025000D01*
X109156250Y-149025000D01*
X109177691Y-149026053D01*
G37*
G04 #@! TD.AperFunction*
G04 #@! TA.AperFunction,SMDPad,CuDef*
G36*
X107602691Y-147076053D02*
G01*
X107623926Y-147079203D01*
X107644750Y-147084419D01*
X107664962Y-147091651D01*
X107684368Y-147100830D01*
X107702781Y-147111866D01*
X107720024Y-147124654D01*
X107735930Y-147139070D01*
X107750346Y-147154976D01*
X107763134Y-147172219D01*
X107774170Y-147190632D01*
X107783349Y-147210038D01*
X107790581Y-147230250D01*
X107795797Y-147251074D01*
X107798947Y-147272309D01*
X107800000Y-147293750D01*
X107800000Y-147806250D01*
X107798947Y-147827691D01*
X107795797Y-147848926D01*
X107790581Y-147869750D01*
X107783349Y-147889962D01*
X107774170Y-147909368D01*
X107763134Y-147927781D01*
X107750346Y-147945024D01*
X107735930Y-147960930D01*
X107720024Y-147975346D01*
X107702781Y-147988134D01*
X107684368Y-147999170D01*
X107664962Y-148008349D01*
X107644750Y-148015581D01*
X107623926Y-148020797D01*
X107602691Y-148023947D01*
X107581250Y-148025000D01*
X107143750Y-148025000D01*
X107122309Y-148023947D01*
X107101074Y-148020797D01*
X107080250Y-148015581D01*
X107060038Y-148008349D01*
X107040632Y-147999170D01*
X107022219Y-147988134D01*
X107004976Y-147975346D01*
X106989070Y-147960930D01*
X106974654Y-147945024D01*
X106961866Y-147927781D01*
X106950830Y-147909368D01*
X106941651Y-147889962D01*
X106934419Y-147869750D01*
X106929203Y-147848926D01*
X106926053Y-147827691D01*
X106925000Y-147806250D01*
X106925000Y-147293750D01*
X106926053Y-147272309D01*
X106929203Y-147251074D01*
X106934419Y-147230250D01*
X106941651Y-147210038D01*
X106950830Y-147190632D01*
X106961866Y-147172219D01*
X106974654Y-147154976D01*
X106989070Y-147139070D01*
X107004976Y-147124654D01*
X107022219Y-147111866D01*
X107040632Y-147100830D01*
X107060038Y-147091651D01*
X107080250Y-147084419D01*
X107101074Y-147079203D01*
X107122309Y-147076053D01*
X107143750Y-147075000D01*
X107581250Y-147075000D01*
X107602691Y-147076053D01*
G37*
G04 #@! TD.AperFunction*
G04 #@! TA.AperFunction,SMDPad,CuDef*
G36*
X109177691Y-147076053D02*
G01*
X109198926Y-147079203D01*
X109219750Y-147084419D01*
X109239962Y-147091651D01*
X109259368Y-147100830D01*
X109277781Y-147111866D01*
X109295024Y-147124654D01*
X109310930Y-147139070D01*
X109325346Y-147154976D01*
X109338134Y-147172219D01*
X109349170Y-147190632D01*
X109358349Y-147210038D01*
X109365581Y-147230250D01*
X109370797Y-147251074D01*
X109373947Y-147272309D01*
X109375000Y-147293750D01*
X109375000Y-147806250D01*
X109373947Y-147827691D01*
X109370797Y-147848926D01*
X109365581Y-147869750D01*
X109358349Y-147889962D01*
X109349170Y-147909368D01*
X109338134Y-147927781D01*
X109325346Y-147945024D01*
X109310930Y-147960930D01*
X109295024Y-147975346D01*
X109277781Y-147988134D01*
X109259368Y-147999170D01*
X109239962Y-148008349D01*
X109219750Y-148015581D01*
X109198926Y-148020797D01*
X109177691Y-148023947D01*
X109156250Y-148025000D01*
X108718750Y-148025000D01*
X108697309Y-148023947D01*
X108676074Y-148020797D01*
X108655250Y-148015581D01*
X108635038Y-148008349D01*
X108615632Y-147999170D01*
X108597219Y-147988134D01*
X108579976Y-147975346D01*
X108564070Y-147960930D01*
X108549654Y-147945024D01*
X108536866Y-147927781D01*
X108525830Y-147909368D01*
X108516651Y-147889962D01*
X108509419Y-147869750D01*
X108504203Y-147848926D01*
X108501053Y-147827691D01*
X108500000Y-147806250D01*
X108500000Y-147293750D01*
X108501053Y-147272309D01*
X108504203Y-147251074D01*
X108509419Y-147230250D01*
X108516651Y-147210038D01*
X108525830Y-147190632D01*
X108536866Y-147172219D01*
X108549654Y-147154976D01*
X108564070Y-147139070D01*
X108579976Y-147124654D01*
X108597219Y-147111866D01*
X108615632Y-147100830D01*
X108635038Y-147091651D01*
X108655250Y-147084419D01*
X108676074Y-147079203D01*
X108697309Y-147076053D01*
X108718750Y-147075000D01*
X109156250Y-147075000D01*
X109177691Y-147076053D01*
G37*
G04 #@! TD.AperFunction*
D16*
X85750000Y-141350000D03*
D15*
X88290000Y-141350000D03*
D16*
X152150000Y-97350000D03*
D15*
X152150000Y-94810000D03*
X152150000Y-92270000D03*
X152150000Y-89730000D03*
X152150000Y-87190000D03*
X152150000Y-84650000D03*
X152150000Y-82110000D03*
X152150000Y-79570000D03*
D17*
X88650000Y-78750000D03*
D18*
X88650000Y-81290000D03*
D16*
X125950000Y-140150000D03*
D15*
X125950000Y-137610000D03*
X82850000Y-87435000D03*
D16*
X82850000Y-89975000D03*
D18*
X124950000Y-76300000D03*
D19*
X124300000Y-66300000D03*
D18*
X126950000Y-76300000D03*
X128950000Y-76300000D03*
X130950000Y-76300000D03*
X132950000Y-76300000D03*
D19*
X133600000Y-66300000D03*
D20*
X95805000Y-76325000D03*
X93805000Y-76325000D03*
X101930000Y-124670000D03*
X99930000Y-124670000D03*
X99930000Y-126670000D03*
X101930000Y-126670000D03*
X91930000Y-109210000D03*
X93930000Y-107210000D03*
X91930000Y-107210000D03*
X153150000Y-115530000D03*
X151150000Y-115530000D03*
X119200000Y-107300000D03*
X119200000Y-118100000D03*
X121200000Y-107300000D03*
X121200000Y-118100000D03*
X93930000Y-109210000D03*
X151150000Y-113530000D03*
X153150000Y-113530000D03*
X107800000Y-141150000D03*
X106450000Y-146000000D03*
X108950000Y-79800000D03*
X106725000Y-102025000D03*
X129094669Y-120494669D03*
X127800000Y-121850000D03*
X114150000Y-91075000D03*
X106750000Y-98800000D03*
X107475000Y-97825000D03*
X94001768Y-148098252D03*
X91550000Y-147850000D03*
X100300000Y-148800000D03*
X109600000Y-150950000D03*
X98500000Y-148850000D03*
X110150000Y-149600000D03*
X110206572Y-148322288D03*
X92632581Y-150883778D03*
X90552458Y-149949738D03*
X90517926Y-148536346D03*
X87200000Y-149000000D03*
X129100000Y-119300000D03*
X129100000Y-118000000D03*
X129050000Y-116800000D03*
X129000000Y-115400000D03*
X128950000Y-114150000D03*
X128950000Y-112850000D03*
X88425000Y-136150000D03*
X87600000Y-106325000D03*
X124575000Y-80175000D03*
X98300000Y-80500000D03*
X109250000Y-81100000D03*
D21*
X96290000Y-91590000D02*
X96290000Y-88240000D01*
X106725000Y-102025000D02*
X96290000Y-91590000D01*
D22*
X129494668Y-120094670D02*
X129094669Y-120494669D01*
X152150000Y-94810000D02*
X150949999Y-96010001D01*
X129794670Y-120094670D02*
X129494668Y-120094670D01*
X150949999Y-96010001D02*
X150949999Y-98992881D01*
X150949999Y-98992881D02*
X129821440Y-120121440D01*
X129821440Y-120121440D02*
X129794670Y-120094670D01*
X128800000Y-121850000D02*
X128365685Y-121850000D01*
X128365685Y-121850000D02*
X127800000Y-121850000D01*
X152150000Y-98500000D02*
X128800000Y-121850000D01*
X152150000Y-97350000D02*
X152150000Y-98500000D01*
D21*
X114919999Y-86549999D02*
X114070000Y-85700000D01*
X115359999Y-86989999D02*
X114919999Y-86549999D01*
X117210001Y-86989999D02*
X115359999Y-86989999D01*
X117860001Y-87639999D02*
X117210001Y-86989999D01*
X117860001Y-88840001D02*
X117860001Y-87639999D01*
X118510001Y-89490001D02*
X117860001Y-88840001D01*
X120760001Y-89490001D02*
X118510001Y-89490001D01*
X124420000Y-93150000D02*
X120760001Y-89490001D01*
D23*
X95550000Y-83900000D02*
X93750000Y-85700000D01*
X114070000Y-85700000D02*
X112270000Y-83900000D01*
X112270000Y-83900000D02*
X95550000Y-83900000D01*
D21*
X114070000Y-88240000D02*
X115550000Y-89720000D01*
X115550000Y-91860000D02*
X114260000Y-93150000D01*
X115550000Y-89720000D02*
X115550000Y-91860000D01*
X104925000Y-91075000D02*
X114150000Y-91075000D01*
X104100000Y-93150000D02*
X104100000Y-91900000D01*
X104100000Y-91900000D02*
X104925000Y-91075000D01*
X106350001Y-98400001D02*
X104375001Y-98400001D01*
X106750000Y-98800000D02*
X106350001Y-98400001D01*
X97139999Y-86549999D02*
X96290000Y-85700000D01*
X97579999Y-86989999D02*
X97139999Y-86549999D01*
X97579999Y-91604999D02*
X97579999Y-86989999D01*
X104375001Y-98400001D02*
X97579999Y-91604999D01*
X100080001Y-86950001D02*
X100080001Y-92705001D01*
X98830000Y-85700000D02*
X100080001Y-86950001D01*
X107449991Y-97799991D02*
X107475000Y-97825000D01*
X100080001Y-92705001D02*
X105174991Y-97799991D01*
X105174991Y-97799991D02*
X107449991Y-97799991D01*
D23*
X94001768Y-148098252D02*
X91798252Y-148098252D01*
X91798252Y-148098252D02*
X91550000Y-147850000D01*
D24*
X102087500Y-149500000D02*
X101887500Y-149700000D01*
X107362500Y-149500000D02*
X102087500Y-149500000D01*
X100312500Y-149700000D02*
X100312500Y-148812500D01*
X100312500Y-148812500D02*
X100300000Y-148800000D01*
X100325000Y-148775000D02*
X100300000Y-148800000D01*
X100325000Y-147550000D02*
X100325000Y-148775000D01*
X107362500Y-147550000D02*
X101900000Y-147550000D01*
D23*
X109600000Y-150950000D02*
X99200000Y-150950000D01*
X99200000Y-150950000D02*
X98500000Y-150250000D01*
X98500000Y-150250000D02*
X98500000Y-148850000D01*
D24*
X109037500Y-149600000D02*
X108937500Y-149500000D01*
X110150000Y-149600000D02*
X109037500Y-149600000D01*
X109709788Y-148322288D02*
X108937500Y-147550000D01*
X110206572Y-148322288D02*
X109709788Y-148322288D01*
D23*
X92632581Y-150883778D02*
X91486498Y-150883778D01*
X91486498Y-150883778D02*
X90552458Y-149949738D01*
X90517926Y-148536346D02*
X87663654Y-148536346D01*
X87663654Y-148536346D02*
X87200000Y-149000000D01*
D22*
X129935760Y-119300000D02*
X129100000Y-119300000D01*
X152150000Y-92270000D02*
X150449989Y-93970011D01*
X150449989Y-98785771D02*
X129935760Y-119300000D01*
X150449989Y-93970011D02*
X150449989Y-98785771D01*
X149949979Y-98578661D02*
X149949979Y-91930021D01*
X151300001Y-90579999D02*
X152150000Y-89730000D01*
X130528640Y-118000000D02*
X149949979Y-98578661D01*
X149949979Y-91930021D02*
X151300001Y-90579999D01*
X129100000Y-118000000D02*
X130528640Y-118000000D01*
X152150000Y-87190000D02*
X150949999Y-88390001D01*
X150949999Y-90222881D02*
X149449969Y-91722911D01*
X150949999Y-88390001D02*
X150949999Y-90222881D01*
X149449969Y-91722911D02*
X149449969Y-98371551D01*
X149449969Y-98371551D02*
X131010760Y-116810760D01*
X131010760Y-116810760D02*
X131000000Y-116800000D01*
X131000000Y-116800000D02*
X129050000Y-116800000D01*
X150449989Y-86350011D02*
X152150000Y-84650000D01*
X131714400Y-115400000D02*
X148949959Y-98164441D01*
X129000000Y-115400000D02*
X131714400Y-115400000D01*
X148949959Y-98164441D02*
X148949959Y-91515801D01*
X150449989Y-90015771D02*
X150449989Y-86350011D01*
X148949959Y-91515801D02*
X150449989Y-90015771D01*
X152150000Y-82110000D02*
X150949999Y-83310001D01*
X150949999Y-83310001D02*
X150949999Y-85142881D01*
X150949999Y-85142881D02*
X149949979Y-86142901D01*
X149949979Y-86142901D02*
X149949979Y-89808661D01*
X148449949Y-91308691D02*
X148449949Y-97957331D01*
X149949979Y-89808661D02*
X148449949Y-91308691D01*
X132257280Y-114150000D02*
X128950000Y-114150000D01*
X148449949Y-97957331D02*
X132257280Y-114150000D01*
X128950000Y-112850000D02*
X132850160Y-112850000D01*
X132850160Y-112850000D02*
X138350080Y-107350080D01*
X138350080Y-107350080D02*
X147949939Y-97750221D01*
X147949939Y-91101581D02*
X147949941Y-91101579D01*
X147949939Y-97750221D02*
X147949939Y-91101581D01*
X147949941Y-91101579D02*
X149449969Y-89601551D01*
X149449969Y-85935791D02*
X150449989Y-84935771D01*
X149449969Y-89601551D02*
X149449969Y-85935791D01*
X150449989Y-84935771D02*
X150449989Y-83300000D01*
X150449989Y-83102891D02*
X151000000Y-82552880D01*
X150449989Y-83300000D02*
X150449989Y-83102891D01*
X150949999Y-80770001D02*
X150949999Y-82552880D01*
X152150000Y-79570000D02*
X150949999Y-80770001D01*
D25*
X86300000Y-107625000D02*
X86300000Y-134025000D01*
X86300000Y-134025000D02*
X88425000Y-136150000D01*
X87600000Y-106325000D02*
X86300000Y-107625000D01*
D24*
X127075000Y-80175000D02*
X130950000Y-76300000D01*
X124575000Y-80175000D02*
X127075000Y-80175000D01*
D21*
X98300000Y-80500000D02*
X95750000Y-80500000D01*
X95750000Y-80500000D02*
X91675000Y-84575000D01*
X91675000Y-84575000D02*
X91675000Y-98425000D01*
X127200001Y-133950001D02*
X127200000Y-140150000D01*
X127200000Y-140150000D02*
X125950000Y-140150000D01*
X91675000Y-98425000D02*
X127200001Y-133950001D01*
X125950000Y-133607998D02*
X125950000Y-137610000D01*
X117792002Y-125450000D02*
X125950000Y-133607998D01*
X100300000Y-81100000D02*
X98899999Y-79699999D01*
X109250000Y-81100000D02*
X100300000Y-81100000D01*
X98899999Y-79699999D02*
X95175001Y-79699999D01*
X90625000Y-98223542D02*
X117792002Y-125390544D01*
X95175001Y-79699999D02*
X90625000Y-84250000D01*
X117792002Y-125390544D02*
X117792002Y-125450000D01*
X90625000Y-84250000D02*
X90625000Y-98223542D01*
D26*
G36*
X155729766Y-74942963D02*
G01*
X155342963Y-75329766D01*
X155039054Y-75784597D01*
X154829718Y-76289979D01*
X154723000Y-76826489D01*
X154723000Y-77373511D01*
X154829718Y-77910021D01*
X155039054Y-78415403D01*
X155342963Y-78870234D01*
X155729766Y-79257037D01*
X156184597Y-79560946D01*
X156689979Y-79770282D01*
X157226489Y-79877000D01*
X157773511Y-79877000D01*
X158310021Y-79770282D01*
X158815403Y-79560946D01*
X159270234Y-79257037D01*
X159657037Y-78870234D01*
X159960946Y-78415403D01*
X160170282Y-77910021D01*
X160277000Y-77373511D01*
X160277000Y-76826489D01*
X160170282Y-76289979D01*
X159960946Y-75784597D01*
X159657037Y-75329766D01*
X159297001Y-74969730D01*
X159629932Y-75146753D01*
X160075399Y-75510066D01*
X160441809Y-75952979D01*
X160715212Y-76458628D01*
X160885195Y-77007755D01*
X160948000Y-77605304D01*
X160948001Y-108279192D01*
X160908711Y-108081668D01*
X160774757Y-107758275D01*
X160580286Y-107467229D01*
X160332771Y-107219714D01*
X160041725Y-107025243D01*
X159718332Y-106891289D01*
X159375019Y-106823000D01*
X159024981Y-106823000D01*
X158681668Y-106891289D01*
X158358275Y-107025243D01*
X158067229Y-107219714D01*
X157819714Y-107467229D01*
X157625243Y-107758275D01*
X157491289Y-108081668D01*
X157423000Y-108424981D01*
X157423000Y-108775019D01*
X157491289Y-109118332D01*
X157625243Y-109441725D01*
X157819714Y-109732771D01*
X158067229Y-109980286D01*
X158358275Y-110174757D01*
X158681668Y-110308711D01*
X159024981Y-110377000D01*
X159375019Y-110377000D01*
X159718332Y-110308711D01*
X160041725Y-110174757D01*
X160332771Y-109980286D01*
X160580286Y-109732771D01*
X160774757Y-109441725D01*
X160908711Y-109118332D01*
X160948001Y-108920808D01*
X160948001Y-116786273D01*
X160885165Y-117859337D01*
X160676314Y-118890354D01*
X160324278Y-119881654D01*
X159836081Y-120813454D01*
X159221454Y-121667184D01*
X158492676Y-122425786D01*
X157664274Y-123074139D01*
X156752786Y-123599300D01*
X155776395Y-123990791D01*
X154754587Y-124240801D01*
X153693825Y-124345720D01*
X153397797Y-124348000D01*
X141072891Y-124348000D01*
X141059692Y-124349300D01*
X139885029Y-124405723D01*
X139877838Y-124406479D01*
X139870605Y-124406605D01*
X139827541Y-124411511D01*
X138437923Y-124625394D01*
X138428482Y-124627401D01*
X138418933Y-124628658D01*
X138376701Y-124638407D01*
X137020229Y-125008224D01*
X137011073Y-125011288D01*
X137001731Y-125013617D01*
X136960874Y-125028084D01*
X135654986Y-125549080D01*
X135646245Y-125553156D01*
X135637218Y-125556531D01*
X135598262Y-125575531D01*
X134359745Y-126241010D01*
X134351514Y-126246054D01*
X134342934Y-126250426D01*
X134306379Y-126273713D01*
X133151160Y-127075118D01*
X133143562Y-127081054D01*
X133135523Y-127086375D01*
X133101839Y-127113651D01*
X132044766Y-128040678D01*
X132037881Y-128047444D01*
X132030504Y-128053634D01*
X132000124Y-128084548D01*
X131054790Y-129125281D01*
X131048728Y-129132767D01*
X131042085Y-129139767D01*
X131015423Y-129173894D01*
X131015401Y-129173921D01*
X131015395Y-129173930D01*
X130193957Y-130314979D01*
X130188772Y-130323119D01*
X130182975Y-130330811D01*
X130160328Y-130367766D01*
X129473336Y-131594479D01*
X129469105Y-131603153D01*
X129464217Y-131611452D01*
X129445899Y-131650733D01*
X128902191Y-132947331D01*
X128898970Y-132956428D01*
X128895052Y-132965227D01*
X128881298Y-133006329D01*
X128487864Y-134356141D01*
X128485694Y-134365539D01*
X128482796Y-134374731D01*
X128473784Y-134417126D01*
X128235682Y-135802799D01*
X128234590Y-135812383D01*
X128232751Y-135821843D01*
X128228603Y-135864923D01*
X128228596Y-135864985D01*
X128228596Y-135865004D01*
X128149536Y-137257301D01*
X128148000Y-137272892D01*
X128148001Y-149322998D01*
X128089964Y-149914905D01*
X127925904Y-150458294D01*
X127659426Y-150959468D01*
X127300677Y-151399338D01*
X126863324Y-151761149D01*
X126853170Y-151766639D01*
X122235000Y-151766639D01*
X122235000Y-151477000D01*
X121127000Y-151477000D01*
X121127000Y-151497000D01*
X120873000Y-151497000D01*
X120873000Y-151477000D01*
X119765000Y-151477000D01*
X119765000Y-151766639D01*
X115235000Y-151766639D01*
X115235000Y-151477000D01*
X114127000Y-151477000D01*
X114127000Y-151497000D01*
X113873000Y-151497000D01*
X113873000Y-151477000D01*
X112765000Y-151477000D01*
X112765000Y-151766639D01*
X110046368Y-151766639D01*
X110190928Y-151670048D01*
X110320048Y-151540928D01*
X110421496Y-151389099D01*
X110491376Y-151220396D01*
X110527000Y-151041301D01*
X110527000Y-150873000D01*
X112765000Y-150873000D01*
X112765000Y-151223000D01*
X113873000Y-151223000D01*
X113873000Y-149931269D01*
X114127000Y-149931269D01*
X114127000Y-151223000D01*
X115235000Y-151223000D01*
X115235000Y-150873000D01*
X115186493Y-150634504D01*
X115092390Y-150410054D01*
X114956307Y-150208275D01*
X114783474Y-150036922D01*
X114688164Y-149973829D01*
X114805849Y-150002719D01*
X115073482Y-150014604D01*
X115338291Y-149974048D01*
X115590100Y-149882609D01*
X115697035Y-149825450D01*
X115759528Y-149589133D01*
X119240472Y-149589133D01*
X119302965Y-149825450D01*
X119545678Y-149938850D01*
X119805849Y-150002719D01*
X120073482Y-150014604D01*
X120303442Y-149979385D01*
X120216526Y-150036922D01*
X120043693Y-150208275D01*
X119907610Y-150410054D01*
X119813507Y-150634504D01*
X119765000Y-150873000D01*
X119765000Y-151223000D01*
X120873000Y-151223000D01*
X120873000Y-149931269D01*
X121127000Y-149931269D01*
X121127000Y-151223000D01*
X122235000Y-151223000D01*
X122235000Y-150873000D01*
X122186493Y-150634504D01*
X122092390Y-150410054D01*
X121956307Y-150208275D01*
X121783474Y-150036922D01*
X121580533Y-149902579D01*
X121355282Y-149810409D01*
X121317609Y-149806538D01*
X121127000Y-149931269D01*
X120873000Y-149931269D01*
X120699138Y-149817497D01*
X120759528Y-149589133D01*
X120000000Y-148829605D01*
X119240472Y-149589133D01*
X115759528Y-149589133D01*
X115000000Y-148829605D01*
X114240472Y-149589133D01*
X114300862Y-149817497D01*
X114127000Y-149931269D01*
X113873000Y-149931269D01*
X113682391Y-149806538D01*
X113644718Y-149810409D01*
X113419467Y-149902579D01*
X113216526Y-150036922D01*
X113043693Y-150208275D01*
X112907610Y-150410054D01*
X112813507Y-150634504D01*
X112765000Y-150873000D01*
X110527000Y-150873000D01*
X110527000Y-150858699D01*
X110491376Y-150679604D01*
X110421496Y-150510901D01*
X110409851Y-150493473D01*
X110420396Y-150491376D01*
X110589099Y-150421496D01*
X110740928Y-150320048D01*
X110870048Y-150190928D01*
X110971496Y-150039099D01*
X111041376Y-149870396D01*
X111077000Y-149691301D01*
X111077000Y-149508699D01*
X111041376Y-149329604D01*
X110971496Y-149160901D01*
X110870048Y-149009072D01*
X110850406Y-148989430D01*
X110926620Y-148913216D01*
X111028068Y-148761387D01*
X111043768Y-148723482D01*
X113635396Y-148723482D01*
X113675952Y-148988291D01*
X113767391Y-149240100D01*
X113824550Y-149347035D01*
X114060867Y-149409528D01*
X114820395Y-148650000D01*
X115179605Y-148650000D01*
X115939133Y-149409528D01*
X116175450Y-149347035D01*
X116288850Y-149104322D01*
X116352719Y-148844151D01*
X116358077Y-148723482D01*
X118635396Y-148723482D01*
X118675952Y-148988291D01*
X118767391Y-149240100D01*
X118824550Y-149347035D01*
X119060867Y-149409528D01*
X119820395Y-148650000D01*
X120179605Y-148650000D01*
X120939133Y-149409528D01*
X121175450Y-149347035D01*
X121288850Y-149104322D01*
X121352719Y-148844151D01*
X121364604Y-148576518D01*
X121324048Y-148311709D01*
X121232609Y-148059900D01*
X121175450Y-147952965D01*
X120939133Y-147890472D01*
X120179605Y-148650000D01*
X119820395Y-148650000D01*
X119060867Y-147890472D01*
X118824550Y-147952965D01*
X118711150Y-148195678D01*
X118647281Y-148455849D01*
X118635396Y-148723482D01*
X116358077Y-148723482D01*
X116364604Y-148576518D01*
X116324048Y-148311709D01*
X116232609Y-148059900D01*
X116175450Y-147952965D01*
X115939133Y-147890472D01*
X115179605Y-148650000D01*
X114820395Y-148650000D01*
X114060867Y-147890472D01*
X113824550Y-147952965D01*
X113711150Y-148195678D01*
X113647281Y-148455849D01*
X113635396Y-148723482D01*
X111043768Y-148723482D01*
X111097948Y-148592684D01*
X111133572Y-148413589D01*
X111133572Y-148230987D01*
X111097948Y-148051892D01*
X111028068Y-147883189D01*
X110926620Y-147731360D01*
X110906127Y-147710867D01*
X114240472Y-147710867D01*
X115000000Y-148470395D01*
X115759528Y-147710867D01*
X119240472Y-147710867D01*
X120000000Y-148470395D01*
X120759528Y-147710867D01*
X120697035Y-147474550D01*
X120454322Y-147361150D01*
X120194151Y-147297281D01*
X119926518Y-147285396D01*
X119661709Y-147325952D01*
X119409900Y-147417391D01*
X119302965Y-147474550D01*
X119240472Y-147710867D01*
X115759528Y-147710867D01*
X115697035Y-147474550D01*
X115454322Y-147361150D01*
X115194151Y-147297281D01*
X114926518Y-147285396D01*
X114661709Y-147325952D01*
X114409900Y-147417391D01*
X114302965Y-147474550D01*
X114240472Y-147710867D01*
X110906127Y-147710867D01*
X110797500Y-147602240D01*
X110645671Y-147500792D01*
X110476968Y-147430912D01*
X110297873Y-147395288D01*
X110115271Y-147395288D01*
X109936176Y-147430912D01*
X109922797Y-147436454D01*
X109904549Y-147418205D01*
X109904549Y-147293750D01*
X109890171Y-147147764D01*
X109847588Y-147007388D01*
X109778438Y-146878017D01*
X109685377Y-146764623D01*
X109571983Y-146671562D01*
X109442612Y-146602412D01*
X109302236Y-146559829D01*
X109156250Y-146545451D01*
X108718750Y-146545451D01*
X108572764Y-146559829D01*
X108432388Y-146602412D01*
X108303017Y-146671562D01*
X108189623Y-146764623D01*
X108150000Y-146812903D01*
X108110377Y-146764623D01*
X107996983Y-146671562D01*
X107867612Y-146602412D01*
X107727236Y-146559829D01*
X107581250Y-146545451D01*
X107143750Y-146545451D01*
X106997764Y-146559829D01*
X106857388Y-146602412D01*
X106728017Y-146671562D01*
X106614623Y-146764623D01*
X106607748Y-146773000D01*
X102654752Y-146773000D01*
X102647877Y-146764623D01*
X102534483Y-146671562D01*
X102405112Y-146602412D01*
X102264736Y-146559829D01*
X102118750Y-146545451D01*
X101681250Y-146545451D01*
X101535264Y-146559829D01*
X101394888Y-146602412D01*
X101265517Y-146671562D01*
X101152123Y-146764623D01*
X101112500Y-146812903D01*
X101072877Y-146764623D01*
X100959483Y-146671562D01*
X100830112Y-146602412D01*
X100689736Y-146559829D01*
X100543750Y-146545451D01*
X100106250Y-146545451D01*
X99960264Y-146559829D01*
X99819888Y-146602412D01*
X99690517Y-146671562D01*
X99577123Y-146764623D01*
X99484062Y-146878017D01*
X99414912Y-147007388D01*
X99372329Y-147147764D01*
X99357951Y-147293750D01*
X99357951Y-147806250D01*
X99372329Y-147952236D01*
X99414912Y-148092612D01*
X99484062Y-148221983D01*
X99532163Y-148280594D01*
X99478504Y-148360901D01*
X99408624Y-148529604D01*
X99395027Y-148597960D01*
X99391376Y-148579604D01*
X99321496Y-148410901D01*
X99220048Y-148259072D01*
X99090928Y-148129952D01*
X98939099Y-148028504D01*
X98770396Y-147958624D01*
X98591301Y-147923000D01*
X98408699Y-147923000D01*
X98229604Y-147958624D01*
X98060901Y-148028504D01*
X97909072Y-148129952D01*
X97779952Y-148259072D01*
X97678504Y-148410901D01*
X97608624Y-148579604D01*
X97573000Y-148758699D01*
X97573000Y-148941301D01*
X97598001Y-149066989D01*
X97598000Y-150205700D01*
X97593637Y-150250000D01*
X97598000Y-150294299D01*
X97598000Y-150294306D01*
X97611052Y-150426822D01*
X97662629Y-150596849D01*
X97746386Y-150753548D01*
X97859104Y-150890896D01*
X97893523Y-150919143D01*
X98530857Y-151556477D01*
X98559104Y-151590896D01*
X98696451Y-151703614D01*
X98814363Y-151766639D01*
X92923534Y-151766639D01*
X93071680Y-151705274D01*
X93223509Y-151603826D01*
X93352629Y-151474706D01*
X93454077Y-151322877D01*
X93523957Y-151154174D01*
X93559581Y-150975079D01*
X93559581Y-150792477D01*
X93523957Y-150613382D01*
X93454077Y-150444679D01*
X93352629Y-150292850D01*
X93223509Y-150163730D01*
X93071680Y-150062282D01*
X92902977Y-149992402D01*
X92723882Y-149956778D01*
X92541280Y-149956778D01*
X92415596Y-149981778D01*
X91860119Y-149981778D01*
X91343699Y-149465359D01*
X91272506Y-149358810D01*
X91143386Y-149229690D01*
X91138693Y-149226555D01*
X91237974Y-149127274D01*
X91339422Y-148975445D01*
X91373226Y-148893837D01*
X91451402Y-148935623D01*
X91621429Y-148987200D01*
X91753945Y-149000252D01*
X91753952Y-149000252D01*
X91798251Y-149004615D01*
X91842551Y-149000252D01*
X93784783Y-149000252D01*
X93910467Y-149025252D01*
X94093069Y-149025252D01*
X94272164Y-148989628D01*
X94440867Y-148919748D01*
X94592696Y-148818300D01*
X94721816Y-148689180D01*
X94823264Y-148537351D01*
X94893144Y-148368648D01*
X94928768Y-148189553D01*
X94928768Y-148006951D01*
X94893144Y-147827856D01*
X94823264Y-147659153D01*
X94721816Y-147507324D01*
X94592696Y-147378204D01*
X94440867Y-147276756D01*
X94272164Y-147206876D01*
X94093069Y-147171252D01*
X93910467Y-147171252D01*
X93784783Y-147196252D01*
X92207228Y-147196252D01*
X92140928Y-147129952D01*
X91989099Y-147028504D01*
X91820396Y-146958624D01*
X91641301Y-146923000D01*
X91458699Y-146923000D01*
X91279604Y-146958624D01*
X91110901Y-147028504D01*
X90959072Y-147129952D01*
X90829952Y-147259072D01*
X90728504Y-147410901D01*
X90658624Y-147579604D01*
X90651053Y-147617666D01*
X90609227Y-147609346D01*
X90426625Y-147609346D01*
X90300941Y-147634346D01*
X87707953Y-147634346D01*
X87663654Y-147629983D01*
X87619354Y-147634346D01*
X87619347Y-147634346D01*
X87486831Y-147647398D01*
X87316804Y-147698975D01*
X87160105Y-147782732D01*
X87022758Y-147895450D01*
X86994511Y-147929869D01*
X86715621Y-148208759D01*
X86609072Y-148279952D01*
X86479952Y-148409072D01*
X86378504Y-148560901D01*
X86308624Y-148729604D01*
X86273000Y-148908699D01*
X86273000Y-149091301D01*
X86308624Y-149270396D01*
X86378504Y-149439099D01*
X86479952Y-149590928D01*
X86609072Y-149720048D01*
X86760901Y-149821496D01*
X86929604Y-149891376D01*
X87108699Y-149927000D01*
X87291301Y-149927000D01*
X87470396Y-149891376D01*
X87639099Y-149821496D01*
X87790928Y-149720048D01*
X87920048Y-149590928D01*
X87991241Y-149484379D01*
X88037274Y-149438346D01*
X89779266Y-149438346D01*
X89730962Y-149510639D01*
X89661082Y-149679342D01*
X89625458Y-149858437D01*
X89625458Y-150041039D01*
X89661082Y-150220134D01*
X89730962Y-150388837D01*
X89832410Y-150540666D01*
X89961530Y-150669786D01*
X90068079Y-150740979D01*
X90817359Y-151490260D01*
X90845602Y-151524674D01*
X90982949Y-151637392D01*
X91139648Y-151721149D01*
X91289609Y-151766639D01*
X88128300Y-151766639D01*
X87445359Y-151567580D01*
X86206571Y-151048114D01*
X85034548Y-150391749D01*
X83944371Y-149606934D01*
X82950049Y-148703756D01*
X82064350Y-147693809D01*
X81298679Y-146590100D01*
X80662870Y-145406802D01*
X80165106Y-144159147D01*
X79811778Y-142863154D01*
X79607063Y-141533100D01*
X79557440Y-140500000D01*
X84370451Y-140500000D01*
X84370451Y-142200000D01*
X84380626Y-142303310D01*
X84410761Y-142402650D01*
X84459696Y-142494202D01*
X84525552Y-142574448D01*
X84605798Y-142640304D01*
X84697350Y-142689239D01*
X84796690Y-142719374D01*
X84900000Y-142729549D01*
X86600000Y-142729549D01*
X86703310Y-142719374D01*
X86802650Y-142689239D01*
X86894202Y-142640304D01*
X86974448Y-142574448D01*
X87040304Y-142494202D01*
X87089239Y-142402650D01*
X87119374Y-142303310D01*
X87129549Y-142200000D01*
X87129549Y-142091798D01*
X87220414Y-142227787D01*
X87412213Y-142419586D01*
X87637746Y-142570282D01*
X87888344Y-142674083D01*
X88154377Y-142727000D01*
X88425623Y-142727000D01*
X88691656Y-142674083D01*
X88942254Y-142570282D01*
X89167787Y-142419586D01*
X89359586Y-142227787D01*
X89510282Y-142002254D01*
X89614083Y-141751656D01*
X89667000Y-141485623D01*
X89667000Y-141214377D01*
X89614083Y-140948344D01*
X89510282Y-140697746D01*
X89359586Y-140472213D01*
X89167787Y-140280414D01*
X88942254Y-140129718D01*
X88691656Y-140025917D01*
X88425623Y-139973000D01*
X88154377Y-139973000D01*
X87888344Y-140025917D01*
X87637746Y-140129718D01*
X87412213Y-140280414D01*
X87220414Y-140472213D01*
X87129549Y-140608202D01*
X87129549Y-140500000D01*
X87119374Y-140396690D01*
X87089239Y-140297350D01*
X87040304Y-140205798D01*
X86974448Y-140125552D01*
X86894202Y-140059696D01*
X86802650Y-140010761D01*
X86703310Y-139980626D01*
X86600000Y-139970451D01*
X84900000Y-139970451D01*
X84796690Y-139980626D01*
X84697350Y-140010761D01*
X84605798Y-140059696D01*
X84525552Y-140125552D01*
X84459696Y-140205798D01*
X84410761Y-140297350D01*
X84380626Y-140396690D01*
X84370451Y-140500000D01*
X79557440Y-140500000D01*
X79552000Y-140386757D01*
X79552000Y-107625000D01*
X85268032Y-107625000D01*
X85273000Y-107675441D01*
X85273001Y-133974549D01*
X85268032Y-134025000D01*
X85287861Y-134226327D01*
X85346586Y-134419917D01*
X85441950Y-134598331D01*
X85530456Y-134706175D01*
X85570289Y-134754712D01*
X85609476Y-134786872D01*
X87734475Y-136911873D01*
X87851668Y-137008050D01*
X88030082Y-137103414D01*
X88223672Y-137162140D01*
X88425000Y-137181968D01*
X88626327Y-137162140D01*
X88819917Y-137103414D01*
X88998331Y-137008050D01*
X89154712Y-136879712D01*
X89283050Y-136723331D01*
X89378414Y-136544917D01*
X89437140Y-136351327D01*
X89456968Y-136150000D01*
X89437140Y-135948672D01*
X89378414Y-135755082D01*
X89283050Y-135576668D01*
X89186873Y-135459475D01*
X87327000Y-133599604D01*
X87327000Y-130355638D01*
X87373000Y-130355638D01*
X87373000Y-131444362D01*
X87585399Y-132512166D01*
X88002036Y-133518016D01*
X88606899Y-134423257D01*
X89376743Y-135193101D01*
X90281984Y-135797964D01*
X91287834Y-136214601D01*
X92355638Y-136427000D01*
X93444362Y-136427000D01*
X94512166Y-136214601D01*
X95518016Y-135797964D01*
X96423257Y-135193101D01*
X97193101Y-134423257D01*
X97797964Y-133518016D01*
X98214601Y-132512166D01*
X98427000Y-131444362D01*
X98427000Y-130355638D01*
X98214601Y-129287834D01*
X97797964Y-128281984D01*
X97193101Y-127376743D01*
X96423257Y-126606899D01*
X95518016Y-126002036D01*
X94512166Y-125585399D01*
X93444362Y-125373000D01*
X92355638Y-125373000D01*
X91287834Y-125585399D01*
X90281984Y-126002036D01*
X89376743Y-126606899D01*
X88606899Y-127376743D01*
X88002036Y-128281984D01*
X87585399Y-129287834D01*
X87373000Y-130355638D01*
X87327000Y-130355638D01*
X87327000Y-122724981D01*
X107623000Y-122724981D01*
X107623000Y-123075019D01*
X107691289Y-123418332D01*
X107825243Y-123741725D01*
X108019714Y-124032771D01*
X108267229Y-124280286D01*
X108558275Y-124474757D01*
X108881668Y-124608711D01*
X109224981Y-124677000D01*
X109575019Y-124677000D01*
X109918332Y-124608711D01*
X110241725Y-124474757D01*
X110532771Y-124280286D01*
X110780286Y-124032771D01*
X110974757Y-123741725D01*
X111108711Y-123418332D01*
X111177000Y-123075019D01*
X111177000Y-122724981D01*
X111108711Y-122381668D01*
X110974757Y-122058275D01*
X110780286Y-121767229D01*
X110532771Y-121519714D01*
X110241725Y-121325243D01*
X109918332Y-121191289D01*
X109575019Y-121123000D01*
X109224981Y-121123000D01*
X108881668Y-121191289D01*
X108558275Y-121325243D01*
X108267229Y-121519714D01*
X108019714Y-121767229D01*
X107825243Y-122058275D01*
X107691289Y-122381668D01*
X107623000Y-122724981D01*
X87327000Y-122724981D01*
X87327000Y-120124981D01*
X102823000Y-120124981D01*
X102823000Y-120475019D01*
X102891289Y-120818332D01*
X103025243Y-121141725D01*
X103219714Y-121432771D01*
X103467229Y-121680286D01*
X103758275Y-121874757D01*
X104081668Y-122008711D01*
X104424981Y-122077000D01*
X104775019Y-122077000D01*
X105118332Y-122008711D01*
X105441725Y-121874757D01*
X105732771Y-121680286D01*
X105980286Y-121432771D01*
X106174757Y-121141725D01*
X106308711Y-120818332D01*
X106377000Y-120475019D01*
X106377000Y-120124981D01*
X106308711Y-119781668D01*
X106174757Y-119458275D01*
X105980286Y-119167229D01*
X105732771Y-118919714D01*
X105441725Y-118725243D01*
X105118332Y-118591289D01*
X104775019Y-118523000D01*
X104424981Y-118523000D01*
X104081668Y-118591289D01*
X103758275Y-118725243D01*
X103467229Y-118919714D01*
X103219714Y-119167229D01*
X103025243Y-119458275D01*
X102891289Y-119781668D01*
X102823000Y-120124981D01*
X87327000Y-120124981D01*
X87327000Y-108050396D01*
X88361873Y-107015525D01*
X88458051Y-106898332D01*
X88553414Y-106719918D01*
X88612140Y-106526328D01*
X88631968Y-106325000D01*
X88612140Y-106123673D01*
X88553414Y-105930083D01*
X88458051Y-105751669D01*
X88329712Y-105595288D01*
X88173331Y-105466949D01*
X87994917Y-105371586D01*
X87801327Y-105312860D01*
X87600000Y-105293032D01*
X87398672Y-105312860D01*
X87205082Y-105371586D01*
X87026668Y-105466949D01*
X86909475Y-105563127D01*
X85609480Y-106863124D01*
X85570288Y-106895288D01*
X85441949Y-107051669D01*
X85346585Y-107230084D01*
X85287860Y-107423674D01*
X85273000Y-107574550D01*
X85273000Y-107574559D01*
X85268032Y-107625000D01*
X79552000Y-107625000D01*
X79552000Y-99324981D01*
X81723000Y-99324981D01*
X81723000Y-99675019D01*
X81791289Y-100018332D01*
X81925243Y-100341725D01*
X82119714Y-100632771D01*
X82367229Y-100880286D01*
X82658275Y-101074757D01*
X82981668Y-101208711D01*
X83324981Y-101277000D01*
X83675019Y-101277000D01*
X84018332Y-101208711D01*
X84341725Y-101074757D01*
X84632771Y-100880286D01*
X84880286Y-100632771D01*
X85074757Y-100341725D01*
X85208711Y-100018332D01*
X85277000Y-99675019D01*
X85277000Y-99324981D01*
X85208711Y-98981668D01*
X85074757Y-98658275D01*
X84880286Y-98367229D01*
X84632771Y-98119714D01*
X84341725Y-97925243D01*
X84018332Y-97791289D01*
X83675019Y-97723000D01*
X83324981Y-97723000D01*
X82981668Y-97791289D01*
X82658275Y-97925243D01*
X82367229Y-98119714D01*
X82119714Y-98367229D01*
X81925243Y-98658275D01*
X81791289Y-98981668D01*
X81723000Y-99324981D01*
X79552000Y-99324981D01*
X79552000Y-93924981D01*
X80223000Y-93924981D01*
X80223000Y-94275019D01*
X80291289Y-94618332D01*
X80425243Y-94941725D01*
X80619714Y-95232771D01*
X80867229Y-95480286D01*
X81158275Y-95674757D01*
X81481668Y-95808711D01*
X81824981Y-95877000D01*
X82175019Y-95877000D01*
X82518332Y-95808711D01*
X82841725Y-95674757D01*
X83132771Y-95480286D01*
X83380286Y-95232771D01*
X83574757Y-94941725D01*
X83708711Y-94618332D01*
X83777000Y-94275019D01*
X83777000Y-93924981D01*
X83708711Y-93581668D01*
X83574757Y-93258275D01*
X83380286Y-92967229D01*
X83132771Y-92719714D01*
X82841725Y-92525243D01*
X82518332Y-92391289D01*
X82175019Y-92323000D01*
X81824981Y-92323000D01*
X81481668Y-92391289D01*
X81158275Y-92525243D01*
X80867229Y-92719714D01*
X80619714Y-92967229D01*
X80425243Y-93258275D01*
X80291289Y-93581668D01*
X80223000Y-93924981D01*
X79552000Y-93924981D01*
X79552000Y-89125000D01*
X81470451Y-89125000D01*
X81470451Y-90825000D01*
X81480626Y-90928310D01*
X81510761Y-91027650D01*
X81559696Y-91119202D01*
X81625552Y-91199448D01*
X81705798Y-91265304D01*
X81797350Y-91314239D01*
X81896690Y-91344374D01*
X82000000Y-91354549D01*
X83700000Y-91354549D01*
X83803310Y-91344374D01*
X83902650Y-91314239D01*
X83994202Y-91265304D01*
X84074448Y-91199448D01*
X84140304Y-91119202D01*
X84189239Y-91027650D01*
X84219374Y-90928310D01*
X84229549Y-90825000D01*
X84229549Y-89125000D01*
X84219374Y-89021690D01*
X84189239Y-88922350D01*
X84140304Y-88830798D01*
X84074448Y-88750552D01*
X83994202Y-88684696D01*
X83902650Y-88635761D01*
X83803310Y-88605626D01*
X83700000Y-88595451D01*
X83591798Y-88595451D01*
X83727787Y-88504586D01*
X83919586Y-88312787D01*
X84070282Y-88087254D01*
X84174083Y-87836656D01*
X84227000Y-87570623D01*
X84227000Y-87299377D01*
X84174083Y-87033344D01*
X84070282Y-86782746D01*
X83919586Y-86557213D01*
X83727787Y-86365414D01*
X83502254Y-86214718D01*
X83251656Y-86110917D01*
X82985623Y-86058000D01*
X82714377Y-86058000D01*
X82448344Y-86110917D01*
X82197746Y-86214718D01*
X81972213Y-86365414D01*
X81780414Y-86557213D01*
X81629718Y-86782746D01*
X81525917Y-87033344D01*
X81473000Y-87299377D01*
X81473000Y-87570623D01*
X81525917Y-87836656D01*
X81629718Y-88087254D01*
X81780414Y-88312787D01*
X81972213Y-88504586D01*
X82108202Y-88595451D01*
X82000000Y-88595451D01*
X81896690Y-88605626D01*
X81797350Y-88635761D01*
X81705798Y-88684696D01*
X81625552Y-88750552D01*
X81559696Y-88830798D01*
X81510761Y-88922350D01*
X81480626Y-89021690D01*
X81470451Y-89125000D01*
X79552000Y-89125000D01*
X79552000Y-84250000D01*
X89894483Y-84250000D01*
X89898000Y-84285708D01*
X89898001Y-98187824D01*
X89894483Y-98223542D01*
X89908520Y-98366059D01*
X89950090Y-98503098D01*
X89971088Y-98542382D01*
X90017598Y-98629395D01*
X90108447Y-98740096D01*
X90136189Y-98762863D01*
X117133410Y-125760086D01*
X117182217Y-125851397D01*
X116981668Y-125891289D01*
X116658275Y-126025243D01*
X116367229Y-126219714D01*
X116119714Y-126467229D01*
X115925243Y-126758275D01*
X115791289Y-127081668D01*
X115723000Y-127424981D01*
X115723000Y-127775019D01*
X115791289Y-128118332D01*
X115925243Y-128441725D01*
X116119714Y-128732771D01*
X116367229Y-128980286D01*
X116658275Y-129174757D01*
X116981668Y-129308711D01*
X117324981Y-129377000D01*
X117675019Y-129377000D01*
X118018332Y-129308711D01*
X118341725Y-129174757D01*
X118632771Y-128980286D01*
X118880286Y-128732771D01*
X119074757Y-128441725D01*
X119208711Y-128118332D01*
X119245790Y-127931921D01*
X125223000Y-133909131D01*
X125223001Y-136439661D01*
X125072213Y-136540414D01*
X124880414Y-136732213D01*
X124729718Y-136957746D01*
X124625917Y-137208344D01*
X124573000Y-137474377D01*
X124573000Y-137745623D01*
X124625917Y-138011656D01*
X124729718Y-138262254D01*
X124880414Y-138487787D01*
X125072213Y-138679586D01*
X125208202Y-138770451D01*
X125100000Y-138770451D01*
X124996690Y-138780626D01*
X124897350Y-138810761D01*
X124805798Y-138859696D01*
X124725552Y-138925552D01*
X124659696Y-139005798D01*
X124610761Y-139097350D01*
X124580626Y-139196690D01*
X124570451Y-139300000D01*
X124570451Y-141000000D01*
X124580626Y-141103310D01*
X124610761Y-141202650D01*
X124659696Y-141294202D01*
X124725552Y-141374448D01*
X124805798Y-141440304D01*
X124897350Y-141489239D01*
X124996690Y-141519374D01*
X125100000Y-141529549D01*
X126800000Y-141529549D01*
X126903310Y-141519374D01*
X127002650Y-141489239D01*
X127094202Y-141440304D01*
X127174448Y-141374448D01*
X127240304Y-141294202D01*
X127289239Y-141202650D01*
X127319374Y-141103310D01*
X127329549Y-141000000D01*
X127329549Y-140867757D01*
X127342517Y-140866480D01*
X127479557Y-140824910D01*
X127605853Y-140757403D01*
X127716554Y-140666554D01*
X127807403Y-140555853D01*
X127874910Y-140429557D01*
X127916480Y-140292517D01*
X127930517Y-140150000D01*
X127926999Y-140114282D01*
X127927001Y-133985708D01*
X127930518Y-133950000D01*
X127916481Y-133807483D01*
X127887297Y-133711278D01*
X127874911Y-133670445D01*
X127807404Y-133544149D01*
X127807403Y-133544147D01*
X127742844Y-133465482D01*
X127716555Y-133433448D01*
X127688818Y-133410685D01*
X116036832Y-121758699D01*
X126873000Y-121758699D01*
X126873000Y-121941301D01*
X126908624Y-122120396D01*
X126978504Y-122289099D01*
X127079952Y-122440928D01*
X127209072Y-122570048D01*
X127360901Y-122671496D01*
X127529604Y-122741376D01*
X127708699Y-122777000D01*
X127891301Y-122777000D01*
X128070396Y-122741376D01*
X128239099Y-122671496D01*
X128390928Y-122570048D01*
X128433976Y-122527000D01*
X128766755Y-122527000D01*
X128800000Y-122530274D01*
X128833245Y-122527000D01*
X128833252Y-122527000D01*
X128932715Y-122517204D01*
X129060330Y-122478492D01*
X129177941Y-122415628D01*
X129281027Y-122331027D01*
X129302226Y-122305196D01*
X131180933Y-120426489D01*
X144023000Y-120426489D01*
X144023000Y-120973511D01*
X144129718Y-121510021D01*
X144339054Y-122015403D01*
X144642963Y-122470234D01*
X145029766Y-122857037D01*
X145484597Y-123160946D01*
X145989979Y-123370282D01*
X146526489Y-123477000D01*
X147073511Y-123477000D01*
X147610021Y-123370282D01*
X148115403Y-123160946D01*
X148570234Y-122857037D01*
X148957037Y-122470234D01*
X149260946Y-122015403D01*
X149470282Y-121510021D01*
X149577000Y-120973511D01*
X149577000Y-120426489D01*
X149470282Y-119889979D01*
X149260946Y-119384597D01*
X148957037Y-118929766D01*
X148570234Y-118542963D01*
X148115403Y-118239054D01*
X147610021Y-118029718D01*
X147073511Y-117923000D01*
X146526489Y-117923000D01*
X145989979Y-118029718D01*
X145484597Y-118239054D01*
X145029766Y-118542963D01*
X144642963Y-118929766D01*
X144339054Y-119384597D01*
X144129718Y-119889979D01*
X144023000Y-120426489D01*
X131180933Y-120426489D01*
X134082441Y-117524981D01*
X156223000Y-117524981D01*
X156223000Y-117875019D01*
X156291289Y-118218332D01*
X156425243Y-118541725D01*
X156619714Y-118832771D01*
X156867229Y-119080286D01*
X157158275Y-119274757D01*
X157481668Y-119408711D01*
X157824981Y-119477000D01*
X158175019Y-119477000D01*
X158518332Y-119408711D01*
X158841725Y-119274757D01*
X159132771Y-119080286D01*
X159380286Y-118832771D01*
X159574757Y-118541725D01*
X159708711Y-118218332D01*
X159777000Y-117875019D01*
X159777000Y-117524981D01*
X159708711Y-117181668D01*
X159574757Y-116858275D01*
X159380286Y-116567229D01*
X159132771Y-116319714D01*
X158841725Y-116125243D01*
X158518332Y-115991289D01*
X158175019Y-115923000D01*
X157824981Y-115923000D01*
X157481668Y-115991289D01*
X157158275Y-116125243D01*
X156867229Y-116319714D01*
X156619714Y-116567229D01*
X156425243Y-116858275D01*
X156291289Y-117181668D01*
X156223000Y-117524981D01*
X134082441Y-117524981D01*
X152605201Y-99002222D01*
X152631027Y-98981027D01*
X152653160Y-98954059D01*
X152715628Y-98877941D01*
X152778492Y-98760330D01*
X152787829Y-98729549D01*
X153000000Y-98729549D01*
X153103310Y-98719374D01*
X153202650Y-98689239D01*
X153294202Y-98640304D01*
X153374448Y-98574448D01*
X153440304Y-98494202D01*
X153489239Y-98402650D01*
X153519374Y-98303310D01*
X153529549Y-98200000D01*
X153529549Y-96500000D01*
X153519374Y-96396690D01*
X153489239Y-96297350D01*
X153440304Y-96205798D01*
X153374448Y-96125552D01*
X153294202Y-96059696D01*
X153202650Y-96010761D01*
X153103310Y-95980626D01*
X153000000Y-95970451D01*
X152891798Y-95970451D01*
X153027787Y-95879586D01*
X153219586Y-95687787D01*
X153370282Y-95462254D01*
X153474083Y-95211656D01*
X153527000Y-94945623D01*
X153527000Y-94724981D01*
X156223000Y-94724981D01*
X156223000Y-95075019D01*
X156291289Y-95418332D01*
X156425243Y-95741725D01*
X156619714Y-96032771D01*
X156867229Y-96280286D01*
X157158275Y-96474757D01*
X157481668Y-96608711D01*
X157824981Y-96677000D01*
X158175019Y-96677000D01*
X158518332Y-96608711D01*
X158841725Y-96474757D01*
X159132771Y-96280286D01*
X159380286Y-96032771D01*
X159574757Y-95741725D01*
X159708711Y-95418332D01*
X159777000Y-95075019D01*
X159777000Y-94724981D01*
X159708711Y-94381668D01*
X159574757Y-94058275D01*
X159380286Y-93767229D01*
X159132771Y-93519714D01*
X158841725Y-93325243D01*
X158518332Y-93191289D01*
X158175019Y-93123000D01*
X157824981Y-93123000D01*
X157481668Y-93191289D01*
X157158275Y-93325243D01*
X156867229Y-93519714D01*
X156619714Y-93767229D01*
X156425243Y-94058275D01*
X156291289Y-94381668D01*
X156223000Y-94724981D01*
X153527000Y-94724981D01*
X153527000Y-94674377D01*
X153474083Y-94408344D01*
X153370282Y-94157746D01*
X153219586Y-93932213D01*
X153027787Y-93740414D01*
X152802254Y-93589718D01*
X152682224Y-93540000D01*
X152802254Y-93490282D01*
X153027787Y-93339586D01*
X153219586Y-93147787D01*
X153370282Y-92922254D01*
X153474083Y-92671656D01*
X153527000Y-92405623D01*
X153527000Y-92134377D01*
X153474083Y-91868344D01*
X153370282Y-91617746D01*
X153219586Y-91392213D01*
X153027787Y-91200414D01*
X152802254Y-91049718D01*
X152682224Y-91000000D01*
X152802254Y-90950282D01*
X153027787Y-90799586D01*
X153219586Y-90607787D01*
X153370282Y-90382254D01*
X153474083Y-90131656D01*
X153527000Y-89865623D01*
X153527000Y-89594377D01*
X153474083Y-89328344D01*
X153370282Y-89077746D01*
X153219586Y-88852213D01*
X153027787Y-88660414D01*
X152802254Y-88509718D01*
X152682224Y-88460000D01*
X152802254Y-88410282D01*
X153027787Y-88259586D01*
X153219586Y-88067787D01*
X153370282Y-87842254D01*
X153474083Y-87591656D01*
X153527000Y-87325623D01*
X153527000Y-87054377D01*
X153474083Y-86788344D01*
X153370282Y-86537746D01*
X153219586Y-86312213D01*
X153027787Y-86120414D01*
X152802254Y-85969718D01*
X152682224Y-85920000D01*
X152802254Y-85870282D01*
X153027787Y-85719586D01*
X153219586Y-85527787D01*
X153370282Y-85302254D01*
X153474083Y-85051656D01*
X153527000Y-84785623D01*
X153527000Y-84514377D01*
X153474083Y-84248344D01*
X153370282Y-83997746D01*
X153219586Y-83772213D01*
X153027787Y-83580414D01*
X152802254Y-83429718D01*
X152682224Y-83380000D01*
X152802254Y-83330282D01*
X153027787Y-83179586D01*
X153219586Y-82987787D01*
X153370282Y-82762254D01*
X153474083Y-82511656D01*
X153527000Y-82245623D01*
X153527000Y-81974377D01*
X153474083Y-81708344D01*
X153370282Y-81457746D01*
X153219586Y-81232213D01*
X153027787Y-81040414D01*
X152802254Y-80889718D01*
X152682224Y-80840000D01*
X152802254Y-80790282D01*
X153027787Y-80639586D01*
X153219586Y-80447787D01*
X153370282Y-80222254D01*
X153474083Y-79971656D01*
X153527000Y-79705623D01*
X153527000Y-79434377D01*
X153474083Y-79168344D01*
X153370282Y-78917746D01*
X153219586Y-78692213D01*
X153027787Y-78500414D01*
X152802254Y-78349718D01*
X152551656Y-78245917D01*
X152285623Y-78193000D01*
X152014377Y-78193000D01*
X151748344Y-78245917D01*
X151497746Y-78349718D01*
X151272213Y-78500414D01*
X151080414Y-78692213D01*
X150929718Y-78917746D01*
X150825917Y-79168344D01*
X150773000Y-79434377D01*
X150773000Y-79705623D01*
X150820111Y-79942467D01*
X150494799Y-80267779D01*
X150468972Y-80288975D01*
X150447777Y-80314801D01*
X150447775Y-80314803D01*
X150400014Y-80373000D01*
X150384371Y-80392061D01*
X150321507Y-80509672D01*
X150282795Y-80637287D01*
X150272999Y-80736750D01*
X150272999Y-80736756D01*
X150269725Y-80770001D01*
X150272999Y-80803246D01*
X150273000Y-82322458D01*
X149994789Y-82600669D01*
X149968963Y-82621864D01*
X149884361Y-82724950D01*
X149821497Y-82842561D01*
X149782785Y-82970176D01*
X149772989Y-83069639D01*
X149772989Y-83069646D01*
X149769715Y-83102891D01*
X149772989Y-83136136D01*
X149772989Y-83333251D01*
X149772990Y-83333261D01*
X149772989Y-84655348D01*
X148994769Y-85433569D01*
X148968943Y-85454764D01*
X148947748Y-85480590D01*
X148947745Y-85480593D01*
X148884341Y-85557851D01*
X148821477Y-85675462D01*
X148782765Y-85803077D01*
X148769695Y-85935791D01*
X148772970Y-85969045D01*
X148772969Y-89321128D01*
X147494743Y-90599355D01*
X147494739Y-90599359D01*
X147468913Y-90620554D01*
X147447718Y-90646380D01*
X147447715Y-90646383D01*
X147384311Y-90723641D01*
X147321447Y-90841252D01*
X147282735Y-90968867D01*
X147269665Y-91101581D01*
X147272940Y-91134836D01*
X147272939Y-97469798D01*
X137894881Y-106847857D01*
X132569738Y-112173000D01*
X129583976Y-112173000D01*
X129540928Y-112129952D01*
X129389099Y-112028504D01*
X129220396Y-111958624D01*
X129041301Y-111923000D01*
X128858699Y-111923000D01*
X128679604Y-111958624D01*
X128510901Y-112028504D01*
X128359072Y-112129952D01*
X128229952Y-112259072D01*
X128128504Y-112410901D01*
X128058624Y-112579604D01*
X128023000Y-112758699D01*
X128023000Y-112941301D01*
X128058624Y-113120396D01*
X128128504Y-113289099D01*
X128229952Y-113440928D01*
X128289024Y-113500000D01*
X128229952Y-113559072D01*
X128128504Y-113710901D01*
X128058624Y-113879604D01*
X128023000Y-114058699D01*
X128023000Y-114241301D01*
X128058624Y-114420396D01*
X128128504Y-114589099D01*
X128229952Y-114740928D01*
X128289024Y-114800000D01*
X128279952Y-114809072D01*
X128178504Y-114960901D01*
X128108624Y-115129604D01*
X128073000Y-115308699D01*
X128073000Y-115491301D01*
X128108624Y-115670396D01*
X128178504Y-115839099D01*
X128279952Y-115990928D01*
X128409072Y-116120048D01*
X128415009Y-116124015D01*
X128329952Y-116209072D01*
X128228504Y-116360901D01*
X128158624Y-116529604D01*
X128123000Y-116708699D01*
X128123000Y-116891301D01*
X128158624Y-117070396D01*
X128228504Y-117239099D01*
X128329952Y-117390928D01*
X128367192Y-117428168D01*
X128278504Y-117560901D01*
X128208624Y-117729604D01*
X128173000Y-117908699D01*
X128173000Y-118091301D01*
X128208624Y-118270396D01*
X128278504Y-118439099D01*
X128379952Y-118590928D01*
X128439024Y-118650000D01*
X128379952Y-118709072D01*
X128278504Y-118860901D01*
X128208624Y-119029604D01*
X128173000Y-119208699D01*
X128173000Y-119391301D01*
X128208624Y-119570396D01*
X128278504Y-119739099D01*
X128379952Y-119890928D01*
X128383693Y-119894669D01*
X128374621Y-119903741D01*
X128273173Y-120055570D01*
X128203293Y-120224273D01*
X128167669Y-120403368D01*
X128167669Y-120585970D01*
X128203293Y-120765065D01*
X128273173Y-120933768D01*
X128374621Y-121085597D01*
X128462024Y-121173000D01*
X128433976Y-121173000D01*
X128390928Y-121129952D01*
X128239099Y-121028504D01*
X128070396Y-120958624D01*
X127891301Y-120923000D01*
X127708699Y-120923000D01*
X127529604Y-120958624D01*
X127360901Y-121028504D01*
X127209072Y-121129952D01*
X127079952Y-121259072D01*
X126978504Y-121410901D01*
X126908624Y-121579604D01*
X126873000Y-121758699D01*
X116036832Y-121758699D01*
X102703114Y-108424981D01*
X129123000Y-108424981D01*
X129123000Y-108775019D01*
X129191289Y-109118332D01*
X129325243Y-109441725D01*
X129519714Y-109732771D01*
X129767229Y-109980286D01*
X130058275Y-110174757D01*
X130381668Y-110308711D01*
X130724981Y-110377000D01*
X131075019Y-110377000D01*
X131418332Y-110308711D01*
X131741725Y-110174757D01*
X132032771Y-109980286D01*
X132280286Y-109732771D01*
X132474757Y-109441725D01*
X132608711Y-109118332D01*
X132677000Y-108775019D01*
X132677000Y-108424981D01*
X132608711Y-108081668D01*
X132474757Y-107758275D01*
X132280286Y-107467229D01*
X132032771Y-107219714D01*
X131741725Y-107025243D01*
X131418332Y-106891289D01*
X131075019Y-106823000D01*
X130724981Y-106823000D01*
X130381668Y-106891289D01*
X130058275Y-107025243D01*
X129767229Y-107219714D01*
X129519714Y-107467229D01*
X129325243Y-107758275D01*
X129191289Y-108081668D01*
X129123000Y-108424981D01*
X102703114Y-108424981D01*
X92402000Y-98123868D01*
X92402000Y-88521417D01*
X92425917Y-88641656D01*
X92529718Y-88892254D01*
X92680414Y-89117787D01*
X92872213Y-89309586D01*
X93097746Y-89460282D01*
X93348344Y-89564083D01*
X93614377Y-89617000D01*
X93885623Y-89617000D01*
X94151656Y-89564083D01*
X94402254Y-89460282D01*
X94627787Y-89309586D01*
X94819586Y-89117787D01*
X94970282Y-88892254D01*
X95020000Y-88772224D01*
X95069718Y-88892254D01*
X95220414Y-89117787D01*
X95412213Y-89309586D01*
X95563001Y-89410339D01*
X95563000Y-91554292D01*
X95559483Y-91590000D01*
X95573520Y-91732517D01*
X95593174Y-91797307D01*
X95615090Y-91869556D01*
X95682597Y-91995852D01*
X95773446Y-92106553D01*
X95801190Y-92129322D01*
X105800441Y-102128574D01*
X105833624Y-102295396D01*
X105903504Y-102464099D01*
X106004952Y-102615928D01*
X106134072Y-102745048D01*
X106285901Y-102846496D01*
X106454604Y-102916376D01*
X106633699Y-102952000D01*
X106816301Y-102952000D01*
X106995396Y-102916376D01*
X107164099Y-102846496D01*
X107315928Y-102745048D01*
X107445048Y-102615928D01*
X107546496Y-102464099D01*
X107616376Y-102295396D01*
X107652000Y-102116301D01*
X107652000Y-101933699D01*
X107616376Y-101754604D01*
X107546496Y-101585901D01*
X107445048Y-101434072D01*
X107315928Y-101304952D01*
X107164099Y-101203504D01*
X106995396Y-101133624D01*
X106828574Y-101100441D01*
X106053114Y-100324981D01*
X108123000Y-100324981D01*
X108123000Y-100675019D01*
X108191289Y-101018332D01*
X108325243Y-101341725D01*
X108519714Y-101632771D01*
X108767229Y-101880286D01*
X109058275Y-102074757D01*
X109381668Y-102208711D01*
X109724981Y-102277000D01*
X110075019Y-102277000D01*
X110418332Y-102208711D01*
X110741725Y-102074757D01*
X111032771Y-101880286D01*
X111280286Y-101632771D01*
X111474757Y-101341725D01*
X111608711Y-101018332D01*
X111677000Y-100675019D01*
X111677000Y-100424981D01*
X134123000Y-100424981D01*
X134123000Y-100775019D01*
X134191289Y-101118332D01*
X134325243Y-101441725D01*
X134519714Y-101732771D01*
X134767229Y-101980286D01*
X135058275Y-102174757D01*
X135381668Y-102308711D01*
X135724981Y-102377000D01*
X136075019Y-102377000D01*
X136418332Y-102308711D01*
X136741725Y-102174757D01*
X137032771Y-101980286D01*
X137280286Y-101732771D01*
X137474757Y-101441725D01*
X137608711Y-101118332D01*
X137677000Y-100775019D01*
X137677000Y-100424981D01*
X137608711Y-100081668D01*
X137474757Y-99758275D01*
X137280286Y-99467229D01*
X137032771Y-99219714D01*
X136741725Y-99025243D01*
X136418332Y-98891289D01*
X136075019Y-98823000D01*
X135724981Y-98823000D01*
X135381668Y-98891289D01*
X135058275Y-99025243D01*
X134767229Y-99219714D01*
X134519714Y-99467229D01*
X134325243Y-99758275D01*
X134191289Y-100081668D01*
X134123000Y-100424981D01*
X111677000Y-100424981D01*
X111677000Y-100324981D01*
X111608711Y-99981668D01*
X111474757Y-99658275D01*
X111280286Y-99367229D01*
X111032771Y-99119714D01*
X110741725Y-98925243D01*
X110418332Y-98791289D01*
X110075019Y-98723000D01*
X109724981Y-98723000D01*
X109381668Y-98791289D01*
X109058275Y-98925243D01*
X108767229Y-99119714D01*
X108519714Y-99367229D01*
X108325243Y-99658275D01*
X108191289Y-99981668D01*
X108123000Y-100324981D01*
X106053114Y-100324981D01*
X104855134Y-99127001D01*
X105882071Y-99127001D01*
X105928504Y-99239099D01*
X106029952Y-99390928D01*
X106159072Y-99520048D01*
X106310901Y-99621496D01*
X106479604Y-99691376D01*
X106658699Y-99727000D01*
X106841301Y-99727000D01*
X107020396Y-99691376D01*
X107189099Y-99621496D01*
X107340928Y-99520048D01*
X107470048Y-99390928D01*
X107571496Y-99239099D01*
X107641376Y-99070396D01*
X107677000Y-98891301D01*
X107677000Y-98729981D01*
X107745396Y-98716376D01*
X107914099Y-98646496D01*
X108065928Y-98545048D01*
X108195048Y-98415928D01*
X108296496Y-98264099D01*
X108366376Y-98095396D01*
X108402000Y-97916301D01*
X108402000Y-97733699D01*
X108366376Y-97554604D01*
X108296496Y-97385901D01*
X108195048Y-97234072D01*
X108065928Y-97104952D01*
X107914099Y-97003504D01*
X107745396Y-96933624D01*
X107566301Y-96898000D01*
X107383699Y-96898000D01*
X107204604Y-96933624D01*
X107035901Y-97003504D01*
X106931905Y-97072991D01*
X105476125Y-97072991D01*
X100807001Y-92403869D01*
X100807001Y-89497253D01*
X100968344Y-89564083D01*
X101234377Y-89617000D01*
X101505623Y-89617000D01*
X101771656Y-89564083D01*
X102022254Y-89460282D01*
X102247787Y-89309586D01*
X102439586Y-89117787D01*
X102590282Y-88892254D01*
X102640000Y-88772224D01*
X102689718Y-88892254D01*
X102840414Y-89117787D01*
X103032213Y-89309586D01*
X103257746Y-89460282D01*
X103508344Y-89564083D01*
X103774377Y-89617000D01*
X104045623Y-89617000D01*
X104311656Y-89564083D01*
X104562254Y-89460282D01*
X104787787Y-89309586D01*
X104979586Y-89117787D01*
X105130282Y-88892254D01*
X105180000Y-88772224D01*
X105229718Y-88892254D01*
X105380414Y-89117787D01*
X105572213Y-89309586D01*
X105797746Y-89460282D01*
X106048344Y-89564083D01*
X106314377Y-89617000D01*
X106585623Y-89617000D01*
X106851656Y-89564083D01*
X107102254Y-89460282D01*
X107327787Y-89309586D01*
X107519586Y-89117787D01*
X107663975Y-88901692D01*
X107794822Y-89121355D01*
X107989731Y-89337588D01*
X108223080Y-89511641D01*
X108485901Y-89636825D01*
X108633110Y-89681476D01*
X108863000Y-89560155D01*
X108863000Y-88367000D01*
X108843000Y-88367000D01*
X108843000Y-88113000D01*
X108863000Y-88113000D01*
X108863000Y-88093000D01*
X109117000Y-88093000D01*
X109117000Y-88113000D01*
X109137000Y-88113000D01*
X109137000Y-88367000D01*
X109117000Y-88367000D01*
X109117000Y-89560155D01*
X109346890Y-89681476D01*
X109494099Y-89636825D01*
X109756920Y-89511641D01*
X109990269Y-89337588D01*
X110185178Y-89121355D01*
X110316025Y-88901692D01*
X110460414Y-89117787D01*
X110652213Y-89309586D01*
X110877746Y-89460282D01*
X111128344Y-89564083D01*
X111394377Y-89617000D01*
X111665623Y-89617000D01*
X111931656Y-89564083D01*
X112182254Y-89460282D01*
X112407787Y-89309586D01*
X112599586Y-89117787D01*
X112750282Y-88892254D01*
X112800000Y-88772224D01*
X112849718Y-88892254D01*
X113000414Y-89117787D01*
X113192213Y-89309586D01*
X113417746Y-89460282D01*
X113668344Y-89564083D01*
X113934377Y-89617000D01*
X114205623Y-89617000D01*
X114383488Y-89581621D01*
X114823000Y-90021133D01*
X114823000Y-90437024D01*
X114740928Y-90354952D01*
X114589099Y-90253504D01*
X114420396Y-90183624D01*
X114241301Y-90148000D01*
X114058699Y-90148000D01*
X113879604Y-90183624D01*
X113710901Y-90253504D01*
X113569476Y-90348000D01*
X104960707Y-90348000D01*
X104924999Y-90344483D01*
X104782482Y-90358520D01*
X104750587Y-90368195D01*
X104645443Y-90400090D01*
X104519147Y-90467597D01*
X104408446Y-90558446D01*
X104385679Y-90586188D01*
X103611189Y-91360679D01*
X103583447Y-91383446D01*
X103508457Y-91474823D01*
X103492598Y-91494147D01*
X103425090Y-91620444D01*
X103383520Y-91757483D01*
X103382243Y-91770451D01*
X103250000Y-91770451D01*
X103146690Y-91780626D01*
X103047350Y-91810761D01*
X102955798Y-91859696D01*
X102875552Y-91925552D01*
X102809696Y-92005798D01*
X102760761Y-92097350D01*
X102730626Y-92196690D01*
X102720451Y-92300000D01*
X102720451Y-94000000D01*
X102730626Y-94103310D01*
X102760761Y-94202650D01*
X102809696Y-94294202D01*
X102875552Y-94374448D01*
X102955798Y-94440304D01*
X103047350Y-94489239D01*
X103146690Y-94519374D01*
X103250000Y-94529549D01*
X104950000Y-94529549D01*
X105053310Y-94519374D01*
X105152650Y-94489239D01*
X105244202Y-94440304D01*
X105324448Y-94374448D01*
X105390304Y-94294202D01*
X105439239Y-94202650D01*
X105469374Y-94103310D01*
X105479549Y-94000000D01*
X105479549Y-93891798D01*
X105570414Y-94027787D01*
X105762213Y-94219586D01*
X105987746Y-94370282D01*
X106238344Y-94474083D01*
X106504377Y-94527000D01*
X106775623Y-94527000D01*
X107041656Y-94474083D01*
X107292254Y-94370282D01*
X107517787Y-94219586D01*
X107709586Y-94027787D01*
X107860282Y-93802254D01*
X107910000Y-93682224D01*
X107959718Y-93802254D01*
X108110414Y-94027787D01*
X108302213Y-94219586D01*
X108527746Y-94370282D01*
X108778344Y-94474083D01*
X109044377Y-94527000D01*
X109315623Y-94527000D01*
X109581656Y-94474083D01*
X109832254Y-94370282D01*
X110057787Y-94219586D01*
X110249586Y-94027787D01*
X110400282Y-93802254D01*
X110450000Y-93682224D01*
X110499718Y-93802254D01*
X110650414Y-94027787D01*
X110842213Y-94219586D01*
X111067746Y-94370282D01*
X111318344Y-94474083D01*
X111584377Y-94527000D01*
X111855623Y-94527000D01*
X112121656Y-94474083D01*
X112372254Y-94370282D01*
X112597787Y-94219586D01*
X112789586Y-94027787D01*
X112940282Y-93802254D01*
X112990000Y-93682224D01*
X113039718Y-93802254D01*
X113190414Y-94027787D01*
X113382213Y-94219586D01*
X113607746Y-94370282D01*
X113858344Y-94474083D01*
X114124377Y-94527000D01*
X114395623Y-94527000D01*
X114661656Y-94474083D01*
X114912254Y-94370282D01*
X115137787Y-94219586D01*
X115329586Y-94027787D01*
X115480282Y-93802254D01*
X115530000Y-93682224D01*
X115579718Y-93802254D01*
X115730414Y-94027787D01*
X115922213Y-94219586D01*
X116147746Y-94370282D01*
X116398344Y-94474083D01*
X116664377Y-94527000D01*
X116935623Y-94527000D01*
X117201656Y-94474083D01*
X117452254Y-94370282D01*
X117677787Y-94219586D01*
X117869586Y-94027787D01*
X118020282Y-93802254D01*
X118070000Y-93682224D01*
X118119718Y-93802254D01*
X118270414Y-94027787D01*
X118462213Y-94219586D01*
X118687746Y-94370282D01*
X118938344Y-94474083D01*
X119204377Y-94527000D01*
X119475623Y-94527000D01*
X119741656Y-94474083D01*
X119992254Y-94370282D01*
X120217787Y-94219586D01*
X120409586Y-94027787D01*
X120553975Y-93811692D01*
X120684822Y-94031355D01*
X120879731Y-94247588D01*
X121113080Y-94421641D01*
X121375901Y-94546825D01*
X121523110Y-94591476D01*
X121753000Y-94470155D01*
X121753000Y-93277000D01*
X121733000Y-93277000D01*
X121733000Y-93023000D01*
X121753000Y-93023000D01*
X121753000Y-91829845D01*
X121523110Y-91708524D01*
X121375901Y-91753175D01*
X121113080Y-91878359D01*
X120879731Y-92052412D01*
X120684822Y-92268645D01*
X120553975Y-92488308D01*
X120409586Y-92272213D01*
X120217787Y-92080414D01*
X119992254Y-91929718D01*
X119741656Y-91825917D01*
X119475623Y-91773000D01*
X119204377Y-91773000D01*
X118938344Y-91825917D01*
X118687746Y-91929718D01*
X118462213Y-92080414D01*
X118270414Y-92272213D01*
X118119718Y-92497746D01*
X118070000Y-92617776D01*
X118020282Y-92497746D01*
X117869586Y-92272213D01*
X117677787Y-92080414D01*
X117452254Y-91929718D01*
X117201656Y-91825917D01*
X116935623Y-91773000D01*
X116664377Y-91773000D01*
X116398344Y-91825917D01*
X116279005Y-91875349D01*
X116280517Y-91860001D01*
X116277000Y-91824295D01*
X116277000Y-89755707D01*
X116280517Y-89719999D01*
X116275556Y-89669630D01*
X116483000Y-89560155D01*
X116483000Y-88367000D01*
X116463000Y-88367000D01*
X116463000Y-88113000D01*
X116483000Y-88113000D01*
X116483000Y-88093000D01*
X116737000Y-88093000D01*
X116737000Y-88113000D01*
X116757000Y-88113000D01*
X116757000Y-88367000D01*
X116737000Y-88367000D01*
X116737000Y-89560155D01*
X116966890Y-89681476D01*
X117114099Y-89636825D01*
X117376920Y-89511641D01*
X117449427Y-89457559D01*
X117970684Y-89978818D01*
X117993447Y-90006555D01*
X118104148Y-90097404D01*
X118230444Y-90164911D01*
X118367483Y-90206481D01*
X118510001Y-90220518D01*
X118545709Y-90217001D01*
X120458869Y-90217001D01*
X122049358Y-91807491D01*
X122007000Y-91829845D01*
X122007000Y-93023000D01*
X122027000Y-93023000D01*
X122027000Y-93277000D01*
X122007000Y-93277000D01*
X122007000Y-94470155D01*
X122236890Y-94591476D01*
X122384099Y-94546825D01*
X122646920Y-94421641D01*
X122880269Y-94247588D01*
X123075178Y-94031355D01*
X123206025Y-93811692D01*
X123350414Y-94027787D01*
X123542213Y-94219586D01*
X123767746Y-94370282D01*
X124018344Y-94474083D01*
X124284377Y-94527000D01*
X124555623Y-94527000D01*
X124821656Y-94474083D01*
X125072254Y-94370282D01*
X125297787Y-94219586D01*
X125489586Y-94027787D01*
X125640282Y-93802254D01*
X125744083Y-93551656D01*
X125797000Y-93285623D01*
X125797000Y-93014377D01*
X125744083Y-92748344D01*
X125640282Y-92497746D01*
X125489586Y-92272213D01*
X125297787Y-92080414D01*
X125072254Y-91929718D01*
X124821656Y-91825917D01*
X124555623Y-91773000D01*
X124284377Y-91773000D01*
X124106512Y-91808379D01*
X121900282Y-89602150D01*
X122091656Y-89564083D01*
X122342254Y-89460282D01*
X122567787Y-89309586D01*
X122759586Y-89117787D01*
X122910282Y-88892254D01*
X122960000Y-88772224D01*
X123009718Y-88892254D01*
X123160414Y-89117787D01*
X123352213Y-89309586D01*
X123577746Y-89460282D01*
X123828344Y-89564083D01*
X124094377Y-89617000D01*
X124365623Y-89617000D01*
X124631656Y-89564083D01*
X124882254Y-89460282D01*
X125107787Y-89309586D01*
X125299586Y-89117787D01*
X125450282Y-88892254D01*
X125500000Y-88772224D01*
X125549718Y-88892254D01*
X125700414Y-89117787D01*
X125892213Y-89309586D01*
X126117746Y-89460282D01*
X126368344Y-89564083D01*
X126634377Y-89617000D01*
X126905623Y-89617000D01*
X127171656Y-89564083D01*
X127422254Y-89460282D01*
X127647787Y-89309586D01*
X127839586Y-89117787D01*
X127983975Y-88901692D01*
X128114822Y-89121355D01*
X128309731Y-89337588D01*
X128543080Y-89511641D01*
X128805901Y-89636825D01*
X128953110Y-89681476D01*
X129183000Y-89560155D01*
X129183000Y-88367000D01*
X129163000Y-88367000D01*
X129163000Y-88113000D01*
X129183000Y-88113000D01*
X129183000Y-88093000D01*
X129437000Y-88093000D01*
X129437000Y-88113000D01*
X129457000Y-88113000D01*
X129457000Y-88367000D01*
X129437000Y-88367000D01*
X129437000Y-89560155D01*
X129666890Y-89681476D01*
X129814099Y-89636825D01*
X130076920Y-89511641D01*
X130310269Y-89337588D01*
X130505178Y-89121355D01*
X130636025Y-88901692D01*
X130780414Y-89117787D01*
X130972213Y-89309586D01*
X131197746Y-89460282D01*
X131448344Y-89564083D01*
X131714377Y-89617000D01*
X131985623Y-89617000D01*
X132251656Y-89564083D01*
X132502254Y-89460282D01*
X132727787Y-89309586D01*
X132919586Y-89117787D01*
X133063975Y-88901692D01*
X133194822Y-89121355D01*
X133389731Y-89337588D01*
X133623080Y-89511641D01*
X133885901Y-89636825D01*
X134033110Y-89681476D01*
X134263000Y-89560155D01*
X134263000Y-88367000D01*
X134243000Y-88367000D01*
X134243000Y-88113000D01*
X134263000Y-88113000D01*
X134263000Y-88093000D01*
X134517000Y-88093000D01*
X134517000Y-88113000D01*
X134537000Y-88113000D01*
X134537000Y-88367000D01*
X134517000Y-88367000D01*
X134517000Y-89560155D01*
X134746890Y-89681476D01*
X134894099Y-89636825D01*
X135156920Y-89511641D01*
X135390269Y-89337588D01*
X135585178Y-89121355D01*
X135716025Y-88901692D01*
X135860414Y-89117787D01*
X136052213Y-89309586D01*
X136277746Y-89460282D01*
X136528344Y-89564083D01*
X136794377Y-89617000D01*
X137065623Y-89617000D01*
X137331656Y-89564083D01*
X137582254Y-89460282D01*
X137807787Y-89309586D01*
X137999586Y-89117787D01*
X138150282Y-88892254D01*
X138200000Y-88772224D01*
X138249718Y-88892254D01*
X138400414Y-89117787D01*
X138592213Y-89309586D01*
X138817746Y-89460282D01*
X139068344Y-89564083D01*
X139334377Y-89617000D01*
X139605623Y-89617000D01*
X139871656Y-89564083D01*
X140122254Y-89460282D01*
X140347787Y-89309586D01*
X140539586Y-89117787D01*
X140690282Y-88892254D01*
X140740000Y-88772224D01*
X140789718Y-88892254D01*
X140940414Y-89117787D01*
X141132213Y-89309586D01*
X141357746Y-89460282D01*
X141608344Y-89564083D01*
X141874377Y-89617000D01*
X142145623Y-89617000D01*
X142411656Y-89564083D01*
X142662254Y-89460282D01*
X142887787Y-89309586D01*
X143079586Y-89117787D01*
X143230282Y-88892254D01*
X143334083Y-88641656D01*
X143387000Y-88375623D01*
X143387000Y-88104377D01*
X143334083Y-87838344D01*
X143230282Y-87587746D01*
X143079586Y-87362213D01*
X142887787Y-87170414D01*
X142667968Y-87023536D01*
X142776920Y-86971641D01*
X143010269Y-86797588D01*
X143205178Y-86581355D01*
X143354157Y-86331252D01*
X143451481Y-86056891D01*
X143330814Y-85827000D01*
X142137000Y-85827000D01*
X142137000Y-85847000D01*
X141883000Y-85847000D01*
X141883000Y-85827000D01*
X141863000Y-85827000D01*
X141863000Y-85573000D01*
X141883000Y-85573000D01*
X141883000Y-84379845D01*
X142137000Y-84379845D01*
X142137000Y-85573000D01*
X143330814Y-85573000D01*
X143451481Y-85343109D01*
X143354157Y-85068748D01*
X143205178Y-84818645D01*
X143010269Y-84602412D01*
X142776920Y-84428359D01*
X142514099Y-84303175D01*
X142366890Y-84258524D01*
X142137000Y-84379845D01*
X141883000Y-84379845D01*
X141653110Y-84258524D01*
X141505901Y-84303175D01*
X141243080Y-84428359D01*
X141009731Y-84602412D01*
X140814822Y-84818645D01*
X140683975Y-85038308D01*
X140539586Y-84822213D01*
X140347787Y-84630414D01*
X140122254Y-84479718D01*
X139871656Y-84375917D01*
X139605623Y-84323000D01*
X139334377Y-84323000D01*
X139068344Y-84375917D01*
X138817746Y-84479718D01*
X138592213Y-84630414D01*
X138400414Y-84822213D01*
X138249718Y-85047746D01*
X138200000Y-85167776D01*
X138150282Y-85047746D01*
X137999586Y-84822213D01*
X137807787Y-84630414D01*
X137582254Y-84479718D01*
X137331656Y-84375917D01*
X137065623Y-84323000D01*
X136794377Y-84323000D01*
X136528344Y-84375917D01*
X136277746Y-84479718D01*
X136052213Y-84630414D01*
X135860414Y-84822213D01*
X135709718Y-85047746D01*
X135660000Y-85167776D01*
X135610282Y-85047746D01*
X135459586Y-84822213D01*
X135267787Y-84630414D01*
X135042254Y-84479718D01*
X134791656Y-84375917D01*
X134525623Y-84323000D01*
X134254377Y-84323000D01*
X133988344Y-84375917D01*
X133737746Y-84479718D01*
X133512213Y-84630414D01*
X133320414Y-84822213D01*
X133169718Y-85047746D01*
X133120000Y-85167776D01*
X133070282Y-85047746D01*
X132919586Y-84822213D01*
X132727787Y-84630414D01*
X132502254Y-84479718D01*
X132251656Y-84375917D01*
X131985623Y-84323000D01*
X131714377Y-84323000D01*
X131448344Y-84375917D01*
X131197746Y-84479718D01*
X130972213Y-84630414D01*
X130780414Y-84822213D01*
X130629718Y-85047746D01*
X130580000Y-85167776D01*
X130530282Y-85047746D01*
X130379586Y-84822213D01*
X130187787Y-84630414D01*
X129962254Y-84479718D01*
X129711656Y-84375917D01*
X129445623Y-84323000D01*
X129174377Y-84323000D01*
X128908344Y-84375917D01*
X128657746Y-84479718D01*
X128432213Y-84630414D01*
X128240414Y-84822213D01*
X128089718Y-85047746D01*
X128040000Y-85167776D01*
X127990282Y-85047746D01*
X127839586Y-84822213D01*
X127647787Y-84630414D01*
X127422254Y-84479718D01*
X127171656Y-84375917D01*
X126905623Y-84323000D01*
X126634377Y-84323000D01*
X126368344Y-84375917D01*
X126117746Y-84479718D01*
X125892213Y-84630414D01*
X125700414Y-84822213D01*
X125556025Y-85038308D01*
X125425178Y-84818645D01*
X125230269Y-84602412D01*
X124996920Y-84428359D01*
X124734099Y-84303175D01*
X124586890Y-84258524D01*
X124357000Y-84379845D01*
X124357000Y-85573000D01*
X124377000Y-85573000D01*
X124377000Y-85827000D01*
X124357000Y-85827000D01*
X124357000Y-85847000D01*
X124103000Y-85847000D01*
X124103000Y-85827000D01*
X124083000Y-85827000D01*
X124083000Y-85573000D01*
X124103000Y-85573000D01*
X124103000Y-84379845D01*
X123873110Y-84258524D01*
X123725901Y-84303175D01*
X123463080Y-84428359D01*
X123229731Y-84602412D01*
X123034822Y-84818645D01*
X122903975Y-85038308D01*
X122759586Y-84822213D01*
X122567787Y-84630414D01*
X122342254Y-84479718D01*
X122091656Y-84375917D01*
X121825623Y-84323000D01*
X121554377Y-84323000D01*
X121288344Y-84375917D01*
X121037746Y-84479718D01*
X120812213Y-84630414D01*
X120620414Y-84822213D01*
X120469718Y-85047746D01*
X120420000Y-85167776D01*
X120370282Y-85047746D01*
X120219586Y-84822213D01*
X120027787Y-84630414D01*
X119802254Y-84479718D01*
X119551656Y-84375917D01*
X119285623Y-84323000D01*
X119014377Y-84323000D01*
X118748344Y-84375917D01*
X118497746Y-84479718D01*
X118272213Y-84630414D01*
X118080414Y-84822213D01*
X117929718Y-85047746D01*
X117880000Y-85167776D01*
X117830282Y-85047746D01*
X117679586Y-84822213D01*
X117487787Y-84630414D01*
X117262254Y-84479718D01*
X117011656Y-84375917D01*
X116745623Y-84323000D01*
X116474377Y-84323000D01*
X116208344Y-84375917D01*
X115957746Y-84479718D01*
X115732213Y-84630414D01*
X115540414Y-84822213D01*
X115389718Y-85047746D01*
X115340000Y-85167776D01*
X115290282Y-85047746D01*
X115139586Y-84822213D01*
X114947787Y-84630414D01*
X114722254Y-84479718D01*
X114471656Y-84375917D01*
X114205623Y-84323000D01*
X113968620Y-84323000D01*
X112939143Y-83293523D01*
X112910896Y-83259104D01*
X112773549Y-83146386D01*
X112616850Y-83062629D01*
X112446823Y-83011052D01*
X112314307Y-82998000D01*
X112314299Y-82998000D01*
X112270000Y-82993637D01*
X112225701Y-82998000D01*
X95594299Y-82998000D01*
X95549999Y-82993637D01*
X95505700Y-82998000D01*
X95505693Y-82998000D01*
X95373177Y-83011052D01*
X95203150Y-83062629D01*
X95046451Y-83146386D01*
X94909104Y-83259104D01*
X94880857Y-83293523D01*
X93853929Y-84320451D01*
X92957681Y-84320451D01*
X96051133Y-81227000D01*
X97719476Y-81227000D01*
X97860901Y-81321496D01*
X98029604Y-81391376D01*
X98208699Y-81427000D01*
X98391301Y-81427000D01*
X98570396Y-81391376D01*
X98739099Y-81321496D01*
X98890928Y-81220048D01*
X99020048Y-81090928D01*
X99117278Y-80945411D01*
X99760679Y-81588812D01*
X99783446Y-81616554D01*
X99894147Y-81707403D01*
X100020443Y-81774910D01*
X100157483Y-81816480D01*
X100264292Y-81827000D01*
X100264294Y-81827000D01*
X100299999Y-81830517D01*
X100335705Y-81827000D01*
X108669476Y-81827000D01*
X108810901Y-81921496D01*
X108979604Y-81991376D01*
X109158699Y-82027000D01*
X109341301Y-82027000D01*
X109520396Y-81991376D01*
X109689099Y-81921496D01*
X109840928Y-81820048D01*
X109970048Y-81690928D01*
X110071496Y-81539099D01*
X110141376Y-81370396D01*
X110177000Y-81191301D01*
X110177000Y-81008699D01*
X110141376Y-80829604D01*
X110071496Y-80660901D01*
X109970048Y-80509072D01*
X109840928Y-80379952D01*
X109689099Y-80278504D01*
X109520396Y-80208624D01*
X109341301Y-80173000D01*
X109158699Y-80173000D01*
X108979604Y-80208624D01*
X108810901Y-80278504D01*
X108669476Y-80373000D01*
X100601133Y-80373000D01*
X99439325Y-79211193D01*
X99416553Y-79183445D01*
X99305852Y-79092596D01*
X99179556Y-79025089D01*
X99042516Y-78983519D01*
X98935707Y-78972999D01*
X98899999Y-78969482D01*
X98864291Y-78972999D01*
X95210708Y-78972999D01*
X95175000Y-78969482D01*
X95032483Y-78983519D01*
X94895444Y-79025089D01*
X94769148Y-79092596D01*
X94658447Y-79183445D01*
X94635680Y-79211187D01*
X90136190Y-83710678D01*
X90108446Y-83733447D01*
X90017597Y-83844148D01*
X89987743Y-83900001D01*
X89950090Y-83970444D01*
X89908520Y-84107483D01*
X89894483Y-84250000D01*
X79552000Y-84250000D01*
X79552000Y-77542566D01*
X79627127Y-76951670D01*
X79802959Y-76424506D01*
X79723000Y-76826489D01*
X79723000Y-77373511D01*
X79829718Y-77910021D01*
X80039054Y-78415403D01*
X80342963Y-78870234D01*
X80729766Y-79257037D01*
X81184597Y-79560946D01*
X81689979Y-79770282D01*
X82226489Y-79877000D01*
X82773511Y-79877000D01*
X83310021Y-79770282D01*
X83600407Y-79650000D01*
X87111928Y-79650000D01*
X87124188Y-79774482D01*
X87160498Y-79894180D01*
X87219463Y-80004494D01*
X87298815Y-80101185D01*
X87395506Y-80180537D01*
X87505820Y-80239502D01*
X87625518Y-80275812D01*
X87644258Y-80277658D01*
X87541576Y-80380340D01*
X87385409Y-80614062D01*
X87277838Y-80873759D01*
X87223000Y-81149453D01*
X87223000Y-81430547D01*
X87277838Y-81706241D01*
X87385409Y-81965938D01*
X87541576Y-82199660D01*
X87740340Y-82398424D01*
X87974062Y-82554591D01*
X88233759Y-82662162D01*
X88509453Y-82717000D01*
X88790547Y-82717000D01*
X89066241Y-82662162D01*
X89325938Y-82554591D01*
X89559660Y-82398424D01*
X89758424Y-82199660D01*
X89914591Y-81965938D01*
X90022162Y-81706241D01*
X90077000Y-81430547D01*
X90077000Y-81149453D01*
X90022162Y-80873759D01*
X89914591Y-80614062D01*
X89758424Y-80380340D01*
X89655742Y-80277658D01*
X89674482Y-80275812D01*
X89794180Y-80239502D01*
X89904494Y-80180537D01*
X90001185Y-80101185D01*
X90080537Y-80004494D01*
X90139502Y-79894180D01*
X90175812Y-79774482D01*
X90188072Y-79650000D01*
X90185000Y-79035750D01*
X90026250Y-78877000D01*
X88777000Y-78877000D01*
X88777000Y-78897000D01*
X88523000Y-78897000D01*
X88523000Y-78877000D01*
X87273750Y-78877000D01*
X87115000Y-79035750D01*
X87111928Y-79650000D01*
X83600407Y-79650000D01*
X83815403Y-79560946D01*
X84270234Y-79257037D01*
X84657037Y-78870234D01*
X84960946Y-78415403D01*
X85170282Y-77910021D01*
X85182220Y-77850000D01*
X87111928Y-77850000D01*
X87115000Y-78464250D01*
X87273750Y-78623000D01*
X88523000Y-78623000D01*
X88523000Y-77373750D01*
X88777000Y-77373750D01*
X88777000Y-78623000D01*
X90026250Y-78623000D01*
X90185000Y-78464250D01*
X90188072Y-77850000D01*
X90175812Y-77725518D01*
X90139502Y-77605820D01*
X90080537Y-77495506D01*
X90001185Y-77398815D01*
X89904494Y-77319463D01*
X89794180Y-77260498D01*
X89674482Y-77224188D01*
X89550000Y-77211928D01*
X88935750Y-77215000D01*
X88777000Y-77373750D01*
X88523000Y-77373750D01*
X88364250Y-77215000D01*
X87750000Y-77211928D01*
X87625518Y-77224188D01*
X87505820Y-77260498D01*
X87395506Y-77319463D01*
X87298815Y-77398815D01*
X87219463Y-77495506D01*
X87160498Y-77605820D01*
X87124188Y-77725518D01*
X87111928Y-77850000D01*
X85182220Y-77850000D01*
X85277000Y-77373511D01*
X85277000Y-76826489D01*
X85170282Y-76289979D01*
X85116217Y-76159453D01*
X123523000Y-76159453D01*
X123523000Y-76440547D01*
X123577838Y-76716241D01*
X123685409Y-76975938D01*
X123841576Y-77209660D01*
X124040340Y-77408424D01*
X124274062Y-77564591D01*
X124533759Y-77672162D01*
X124809453Y-77727000D01*
X125090547Y-77727000D01*
X125366241Y-77672162D01*
X125625938Y-77564591D01*
X125859660Y-77408424D01*
X125950000Y-77318084D01*
X126040340Y-77408424D01*
X126274062Y-77564591D01*
X126533759Y-77672162D01*
X126809453Y-77727000D01*
X127090547Y-77727000D01*
X127366241Y-77672162D01*
X127625938Y-77564591D01*
X127859660Y-77408424D01*
X127950000Y-77318084D01*
X128040340Y-77408424D01*
X128274062Y-77564591D01*
X128495035Y-77656122D01*
X126753157Y-79398000D01*
X125080693Y-79398000D01*
X125014099Y-79353504D01*
X124845396Y-79283624D01*
X124666301Y-79248000D01*
X124483699Y-79248000D01*
X124304604Y-79283624D01*
X124135901Y-79353504D01*
X123984072Y-79454952D01*
X123854952Y-79584072D01*
X123753504Y-79735901D01*
X123683624Y-79904604D01*
X123648000Y-80083699D01*
X123648000Y-80266301D01*
X123683624Y-80445396D01*
X123753504Y-80614099D01*
X123854952Y-80765928D01*
X123984072Y-80895048D01*
X124135901Y-80996496D01*
X124304604Y-81066376D01*
X124483699Y-81102000D01*
X124666301Y-81102000D01*
X124845396Y-81066376D01*
X125014099Y-80996496D01*
X125080693Y-80952000D01*
X127036837Y-80952000D01*
X127075000Y-80955759D01*
X127113163Y-80952000D01*
X127113166Y-80952000D01*
X127227319Y-80940757D01*
X127373784Y-80896327D01*
X127508766Y-80824177D01*
X127627080Y-80727080D01*
X127651413Y-80697430D01*
X130652970Y-77695874D01*
X130809453Y-77727000D01*
X131090547Y-77727000D01*
X131366241Y-77672162D01*
X131625938Y-77564591D01*
X131859660Y-77408424D01*
X131950000Y-77318084D01*
X132040340Y-77408424D01*
X132274062Y-77564591D01*
X132533759Y-77672162D01*
X132809453Y-77727000D01*
X133090547Y-77727000D01*
X133366241Y-77672162D01*
X133625938Y-77564591D01*
X133859660Y-77408424D01*
X134058424Y-77209660D01*
X134214591Y-76975938D01*
X134322162Y-76716241D01*
X134377000Y-76440547D01*
X134377000Y-76159453D01*
X134322162Y-75883759D01*
X134214591Y-75624062D01*
X134131696Y-75500000D01*
X135970451Y-75500000D01*
X135970451Y-77100000D01*
X135980626Y-77203310D01*
X136010761Y-77302650D01*
X136059696Y-77394202D01*
X136125552Y-77474448D01*
X136205798Y-77540304D01*
X136210105Y-77542606D01*
X136124028Y-77671430D01*
X136023996Y-77912928D01*
X135973000Y-78169302D01*
X135973000Y-78430698D01*
X136023996Y-78687072D01*
X136124028Y-78928570D01*
X136269252Y-79145913D01*
X136454087Y-79330748D01*
X136671430Y-79475972D01*
X136912928Y-79576004D01*
X137169302Y-79627000D01*
X137430698Y-79627000D01*
X137687072Y-79576004D01*
X137928570Y-79475972D01*
X138145913Y-79330748D01*
X138330748Y-79145913D01*
X138475972Y-78928570D01*
X138576004Y-78687072D01*
X138627000Y-78430698D01*
X138627000Y-78169302D01*
X138576004Y-77912928D01*
X138475972Y-77671430D01*
X138389895Y-77542606D01*
X138394202Y-77540304D01*
X138474448Y-77474448D01*
X138540304Y-77394202D01*
X138589239Y-77302650D01*
X138619374Y-77203310D01*
X138629549Y-77100000D01*
X138629549Y-75500000D01*
X138619374Y-75396690D01*
X138589239Y-75297350D01*
X138540304Y-75205798D01*
X138474448Y-75125552D01*
X138394202Y-75059696D01*
X138302650Y-75010761D01*
X138203310Y-74980626D01*
X138100000Y-74970451D01*
X136500000Y-74970451D01*
X136396690Y-74980626D01*
X136297350Y-75010761D01*
X136205798Y-75059696D01*
X136125552Y-75125552D01*
X136059696Y-75205798D01*
X136010761Y-75297350D01*
X135980626Y-75396690D01*
X135970451Y-75500000D01*
X134131696Y-75500000D01*
X134058424Y-75390340D01*
X133859660Y-75191576D01*
X133625938Y-75035409D01*
X133366241Y-74927838D01*
X133090547Y-74873000D01*
X132809453Y-74873000D01*
X132533759Y-74927838D01*
X132274062Y-75035409D01*
X132040340Y-75191576D01*
X131950000Y-75281916D01*
X131859660Y-75191576D01*
X131625938Y-75035409D01*
X131366241Y-74927838D01*
X131090547Y-74873000D01*
X130809453Y-74873000D01*
X130533759Y-74927838D01*
X130274062Y-75035409D01*
X130040340Y-75191576D01*
X129950000Y-75281916D01*
X129859660Y-75191576D01*
X129625938Y-75035409D01*
X129366241Y-74927838D01*
X129090547Y-74873000D01*
X128809453Y-74873000D01*
X128533759Y-74927838D01*
X128274062Y-75035409D01*
X128040340Y-75191576D01*
X127950000Y-75281916D01*
X127859660Y-75191576D01*
X127625938Y-75035409D01*
X127366241Y-74927838D01*
X127090547Y-74873000D01*
X126809453Y-74873000D01*
X126533759Y-74927838D01*
X126274062Y-75035409D01*
X126040340Y-75191576D01*
X125950000Y-75281916D01*
X125859660Y-75191576D01*
X125625938Y-75035409D01*
X125366241Y-74927838D01*
X125090547Y-74873000D01*
X124809453Y-74873000D01*
X124533759Y-74927838D01*
X124274062Y-75035409D01*
X124040340Y-75191576D01*
X123841576Y-75390340D01*
X123685409Y-75624062D01*
X123577838Y-75883759D01*
X123523000Y-76159453D01*
X85116217Y-76159453D01*
X84960946Y-75784597D01*
X84657037Y-75329766D01*
X84270234Y-74942963D01*
X83834778Y-74652000D01*
X156165222Y-74652000D01*
X155729766Y-74942963D01*
G37*
X155729766Y-74942963D02*
X155342963Y-75329766D01*
X155039054Y-75784597D01*
X154829718Y-76289979D01*
X154723000Y-76826489D01*
X154723000Y-77373511D01*
X154829718Y-77910021D01*
X155039054Y-78415403D01*
X155342963Y-78870234D01*
X155729766Y-79257037D01*
X156184597Y-79560946D01*
X156689979Y-79770282D01*
X157226489Y-79877000D01*
X157773511Y-79877000D01*
X158310021Y-79770282D01*
X158815403Y-79560946D01*
X159270234Y-79257037D01*
X159657037Y-78870234D01*
X159960946Y-78415403D01*
X160170282Y-77910021D01*
X160277000Y-77373511D01*
X160277000Y-76826489D01*
X160170282Y-76289979D01*
X159960946Y-75784597D01*
X159657037Y-75329766D01*
X159297001Y-74969730D01*
X159629932Y-75146753D01*
X160075399Y-75510066D01*
X160441809Y-75952979D01*
X160715212Y-76458628D01*
X160885195Y-77007755D01*
X160948000Y-77605304D01*
X160948001Y-108279192D01*
X160908711Y-108081668D01*
X160774757Y-107758275D01*
X160580286Y-107467229D01*
X160332771Y-107219714D01*
X160041725Y-107025243D01*
X159718332Y-106891289D01*
X159375019Y-106823000D01*
X159024981Y-106823000D01*
X158681668Y-106891289D01*
X158358275Y-107025243D01*
X158067229Y-107219714D01*
X157819714Y-107467229D01*
X157625243Y-107758275D01*
X157491289Y-108081668D01*
X157423000Y-108424981D01*
X157423000Y-108775019D01*
X157491289Y-109118332D01*
X157625243Y-109441725D01*
X157819714Y-109732771D01*
X158067229Y-109980286D01*
X158358275Y-110174757D01*
X158681668Y-110308711D01*
X159024981Y-110377000D01*
X159375019Y-110377000D01*
X159718332Y-110308711D01*
X160041725Y-110174757D01*
X160332771Y-109980286D01*
X160580286Y-109732771D01*
X160774757Y-109441725D01*
X160908711Y-109118332D01*
X160948001Y-108920808D01*
X160948001Y-116786273D01*
X160885165Y-117859337D01*
X160676314Y-118890354D01*
X160324278Y-119881654D01*
X159836081Y-120813454D01*
X159221454Y-121667184D01*
X158492676Y-122425786D01*
X157664274Y-123074139D01*
X156752786Y-123599300D01*
X155776395Y-123990791D01*
X154754587Y-124240801D01*
X153693825Y-124345720D01*
X153397797Y-124348000D01*
X141072891Y-124348000D01*
X141059692Y-124349300D01*
X139885029Y-124405723D01*
X139877838Y-124406479D01*
X139870605Y-124406605D01*
X139827541Y-124411511D01*
X138437923Y-124625394D01*
X138428482Y-124627401D01*
X138418933Y-124628658D01*
X138376701Y-124638407D01*
X137020229Y-125008224D01*
X137011073Y-125011288D01*
X137001731Y-125013617D01*
X136960874Y-125028084D01*
X135654986Y-125549080D01*
X135646245Y-125553156D01*
X135637218Y-125556531D01*
X135598262Y-125575531D01*
X134359745Y-126241010D01*
X134351514Y-126246054D01*
X134342934Y-126250426D01*
X134306379Y-126273713D01*
X133151160Y-127075118D01*
X133143562Y-127081054D01*
X133135523Y-127086375D01*
X133101839Y-127113651D01*
X132044766Y-128040678D01*
X132037881Y-128047444D01*
X132030504Y-128053634D01*
X132000124Y-128084548D01*
X131054790Y-129125281D01*
X131048728Y-129132767D01*
X131042085Y-129139767D01*
X131015423Y-129173894D01*
X131015401Y-129173921D01*
X131015395Y-129173930D01*
X130193957Y-130314979D01*
X130188772Y-130323119D01*
X130182975Y-130330811D01*
X130160328Y-130367766D01*
X129473336Y-131594479D01*
X129469105Y-131603153D01*
X129464217Y-131611452D01*
X129445899Y-131650733D01*
X128902191Y-132947331D01*
X128898970Y-132956428D01*
X128895052Y-132965227D01*
X128881298Y-133006329D01*
X128487864Y-134356141D01*
X128485694Y-134365539D01*
X128482796Y-134374731D01*
X128473784Y-134417126D01*
X128235682Y-135802799D01*
X128234590Y-135812383D01*
X128232751Y-135821843D01*
X128228603Y-135864923D01*
X128228596Y-135864985D01*
X128228596Y-135865004D01*
X128149536Y-137257301D01*
X128148000Y-137272892D01*
X128148001Y-149322998D01*
X128089964Y-149914905D01*
X127925904Y-150458294D01*
X127659426Y-150959468D01*
X127300677Y-151399338D01*
X126863324Y-151761149D01*
X126853170Y-151766639D01*
X122235000Y-151766639D01*
X122235000Y-151477000D01*
X121127000Y-151477000D01*
X121127000Y-151497000D01*
X120873000Y-151497000D01*
X120873000Y-151477000D01*
X119765000Y-151477000D01*
X119765000Y-151766639D01*
X115235000Y-151766639D01*
X115235000Y-151477000D01*
X114127000Y-151477000D01*
X114127000Y-151497000D01*
X113873000Y-151497000D01*
X113873000Y-151477000D01*
X112765000Y-151477000D01*
X112765000Y-151766639D01*
X110046368Y-151766639D01*
X110190928Y-151670048D01*
X110320048Y-151540928D01*
X110421496Y-151389099D01*
X110491376Y-151220396D01*
X110527000Y-151041301D01*
X110527000Y-150873000D01*
X112765000Y-150873000D01*
X112765000Y-151223000D01*
X113873000Y-151223000D01*
X113873000Y-149931269D01*
X114127000Y-149931269D01*
X114127000Y-151223000D01*
X115235000Y-151223000D01*
X115235000Y-150873000D01*
X115186493Y-150634504D01*
X115092390Y-150410054D01*
X114956307Y-150208275D01*
X114783474Y-150036922D01*
X114688164Y-149973829D01*
X114805849Y-150002719D01*
X115073482Y-150014604D01*
X115338291Y-149974048D01*
X115590100Y-149882609D01*
X115697035Y-149825450D01*
X115759528Y-149589133D01*
X119240472Y-149589133D01*
X119302965Y-149825450D01*
X119545678Y-149938850D01*
X119805849Y-150002719D01*
X120073482Y-150014604D01*
X120303442Y-149979385D01*
X120216526Y-150036922D01*
X120043693Y-150208275D01*
X119907610Y-150410054D01*
X119813507Y-150634504D01*
X119765000Y-150873000D01*
X119765000Y-151223000D01*
X120873000Y-151223000D01*
X120873000Y-149931269D01*
X121127000Y-149931269D01*
X121127000Y-151223000D01*
X122235000Y-151223000D01*
X122235000Y-150873000D01*
X122186493Y-150634504D01*
X122092390Y-150410054D01*
X121956307Y-150208275D01*
X121783474Y-150036922D01*
X121580533Y-149902579D01*
X121355282Y-149810409D01*
X121317609Y-149806538D01*
X121127000Y-149931269D01*
X120873000Y-149931269D01*
X120699138Y-149817497D01*
X120759528Y-149589133D01*
X120000000Y-148829605D01*
X119240472Y-149589133D01*
X115759528Y-149589133D01*
X115000000Y-148829605D01*
X114240472Y-149589133D01*
X114300862Y-149817497D01*
X114127000Y-149931269D01*
X113873000Y-149931269D01*
X113682391Y-149806538D01*
X113644718Y-149810409D01*
X113419467Y-149902579D01*
X113216526Y-150036922D01*
X113043693Y-150208275D01*
X112907610Y-150410054D01*
X112813507Y-150634504D01*
X112765000Y-150873000D01*
X110527000Y-150873000D01*
X110527000Y-150858699D01*
X110491376Y-150679604D01*
X110421496Y-150510901D01*
X110409851Y-150493473D01*
X110420396Y-150491376D01*
X110589099Y-150421496D01*
X110740928Y-150320048D01*
X110870048Y-150190928D01*
X110971496Y-150039099D01*
X111041376Y-149870396D01*
X111077000Y-149691301D01*
X111077000Y-149508699D01*
X111041376Y-149329604D01*
X110971496Y-149160901D01*
X110870048Y-149009072D01*
X110850406Y-148989430D01*
X110926620Y-148913216D01*
X111028068Y-148761387D01*
X111043768Y-148723482D01*
X113635396Y-148723482D01*
X113675952Y-148988291D01*
X113767391Y-149240100D01*
X113824550Y-149347035D01*
X114060867Y-149409528D01*
X114820395Y-148650000D01*
X115179605Y-148650000D01*
X115939133Y-149409528D01*
X116175450Y-149347035D01*
X116288850Y-149104322D01*
X116352719Y-148844151D01*
X116358077Y-148723482D01*
X118635396Y-148723482D01*
X118675952Y-148988291D01*
X118767391Y-149240100D01*
X118824550Y-149347035D01*
X119060867Y-149409528D01*
X119820395Y-148650000D01*
X120179605Y-148650000D01*
X120939133Y-149409528D01*
X121175450Y-149347035D01*
X121288850Y-149104322D01*
X121352719Y-148844151D01*
X121364604Y-148576518D01*
X121324048Y-148311709D01*
X121232609Y-148059900D01*
X121175450Y-147952965D01*
X120939133Y-147890472D01*
X120179605Y-148650000D01*
X119820395Y-148650000D01*
X119060867Y-147890472D01*
X118824550Y-147952965D01*
X118711150Y-148195678D01*
X118647281Y-148455849D01*
X118635396Y-148723482D01*
X116358077Y-148723482D01*
X116364604Y-148576518D01*
X116324048Y-148311709D01*
X116232609Y-148059900D01*
X116175450Y-147952965D01*
X115939133Y-147890472D01*
X115179605Y-148650000D01*
X114820395Y-148650000D01*
X114060867Y-147890472D01*
X113824550Y-147952965D01*
X113711150Y-148195678D01*
X113647281Y-148455849D01*
X113635396Y-148723482D01*
X111043768Y-148723482D01*
X111097948Y-148592684D01*
X111133572Y-148413589D01*
X111133572Y-148230987D01*
X111097948Y-148051892D01*
X111028068Y-147883189D01*
X110926620Y-147731360D01*
X110906127Y-147710867D01*
X114240472Y-147710867D01*
X115000000Y-148470395D01*
X115759528Y-147710867D01*
X119240472Y-147710867D01*
X120000000Y-148470395D01*
X120759528Y-147710867D01*
X120697035Y-147474550D01*
X120454322Y-147361150D01*
X120194151Y-147297281D01*
X119926518Y-147285396D01*
X119661709Y-147325952D01*
X119409900Y-147417391D01*
X119302965Y-147474550D01*
X119240472Y-147710867D01*
X115759528Y-147710867D01*
X115697035Y-147474550D01*
X115454322Y-147361150D01*
X115194151Y-147297281D01*
X114926518Y-147285396D01*
X114661709Y-147325952D01*
X114409900Y-147417391D01*
X114302965Y-147474550D01*
X114240472Y-147710867D01*
X110906127Y-147710867D01*
X110797500Y-147602240D01*
X110645671Y-147500792D01*
X110476968Y-147430912D01*
X110297873Y-147395288D01*
X110115271Y-147395288D01*
X109936176Y-147430912D01*
X109922797Y-147436454D01*
X109904549Y-147418205D01*
X109904549Y-147293750D01*
X109890171Y-147147764D01*
X109847588Y-147007388D01*
X109778438Y-146878017D01*
X109685377Y-146764623D01*
X109571983Y-146671562D01*
X109442612Y-146602412D01*
X109302236Y-146559829D01*
X109156250Y-146545451D01*
X108718750Y-146545451D01*
X108572764Y-146559829D01*
X108432388Y-146602412D01*
X108303017Y-146671562D01*
X108189623Y-146764623D01*
X108150000Y-146812903D01*
X108110377Y-146764623D01*
X107996983Y-146671562D01*
X107867612Y-146602412D01*
X107727236Y-146559829D01*
X107581250Y-146545451D01*
X107143750Y-146545451D01*
X106997764Y-146559829D01*
X106857388Y-146602412D01*
X106728017Y-146671562D01*
X106614623Y-146764623D01*
X106607748Y-146773000D01*
X102654752Y-146773000D01*
X102647877Y-146764623D01*
X102534483Y-146671562D01*
X102405112Y-146602412D01*
X102264736Y-146559829D01*
X102118750Y-146545451D01*
X101681250Y-146545451D01*
X101535264Y-146559829D01*
X101394888Y-146602412D01*
X101265517Y-146671562D01*
X101152123Y-146764623D01*
X101112500Y-146812903D01*
X101072877Y-146764623D01*
X100959483Y-146671562D01*
X100830112Y-146602412D01*
X100689736Y-146559829D01*
X100543750Y-146545451D01*
X100106250Y-146545451D01*
X99960264Y-146559829D01*
X99819888Y-146602412D01*
X99690517Y-146671562D01*
X99577123Y-146764623D01*
X99484062Y-146878017D01*
X99414912Y-147007388D01*
X99372329Y-147147764D01*
X99357951Y-147293750D01*
X99357951Y-147806250D01*
X99372329Y-147952236D01*
X99414912Y-148092612D01*
X99484062Y-148221983D01*
X99532163Y-148280594D01*
X99478504Y-148360901D01*
X99408624Y-148529604D01*
X99395027Y-148597960D01*
X99391376Y-148579604D01*
X99321496Y-148410901D01*
X99220048Y-148259072D01*
X99090928Y-148129952D01*
X98939099Y-148028504D01*
X98770396Y-147958624D01*
X98591301Y-147923000D01*
X98408699Y-147923000D01*
X98229604Y-147958624D01*
X98060901Y-148028504D01*
X97909072Y-148129952D01*
X97779952Y-148259072D01*
X97678504Y-148410901D01*
X97608624Y-148579604D01*
X97573000Y-148758699D01*
X97573000Y-148941301D01*
X97598001Y-149066989D01*
X97598000Y-150205700D01*
X97593637Y-150250000D01*
X97598000Y-150294299D01*
X97598000Y-150294306D01*
X97611052Y-150426822D01*
X97662629Y-150596849D01*
X97746386Y-150753548D01*
X97859104Y-150890896D01*
X97893523Y-150919143D01*
X98530857Y-151556477D01*
X98559104Y-151590896D01*
X98696451Y-151703614D01*
X98814363Y-151766639D01*
X92923534Y-151766639D01*
X93071680Y-151705274D01*
X93223509Y-151603826D01*
X93352629Y-151474706D01*
X93454077Y-151322877D01*
X93523957Y-151154174D01*
X93559581Y-150975079D01*
X93559581Y-150792477D01*
X93523957Y-150613382D01*
X93454077Y-150444679D01*
X93352629Y-150292850D01*
X93223509Y-150163730D01*
X93071680Y-150062282D01*
X92902977Y-149992402D01*
X92723882Y-149956778D01*
X92541280Y-149956778D01*
X92415596Y-149981778D01*
X91860119Y-149981778D01*
X91343699Y-149465359D01*
X91272506Y-149358810D01*
X91143386Y-149229690D01*
X91138693Y-149226555D01*
X91237974Y-149127274D01*
X91339422Y-148975445D01*
X91373226Y-148893837D01*
X91451402Y-148935623D01*
X91621429Y-148987200D01*
X91753945Y-149000252D01*
X91753952Y-149000252D01*
X91798251Y-149004615D01*
X91842551Y-149000252D01*
X93784783Y-149000252D01*
X93910467Y-149025252D01*
X94093069Y-149025252D01*
X94272164Y-148989628D01*
X94440867Y-148919748D01*
X94592696Y-148818300D01*
X94721816Y-148689180D01*
X94823264Y-148537351D01*
X94893144Y-148368648D01*
X94928768Y-148189553D01*
X94928768Y-148006951D01*
X94893144Y-147827856D01*
X94823264Y-147659153D01*
X94721816Y-147507324D01*
X94592696Y-147378204D01*
X94440867Y-147276756D01*
X94272164Y-147206876D01*
X94093069Y-147171252D01*
X93910467Y-147171252D01*
X93784783Y-147196252D01*
X92207228Y-147196252D01*
X92140928Y-147129952D01*
X91989099Y-147028504D01*
X91820396Y-146958624D01*
X91641301Y-146923000D01*
X91458699Y-146923000D01*
X91279604Y-146958624D01*
X91110901Y-147028504D01*
X90959072Y-147129952D01*
X90829952Y-147259072D01*
X90728504Y-147410901D01*
X90658624Y-147579604D01*
X90651053Y-147617666D01*
X90609227Y-147609346D01*
X90426625Y-147609346D01*
X90300941Y-147634346D01*
X87707953Y-147634346D01*
X87663654Y-147629983D01*
X87619354Y-147634346D01*
X87619347Y-147634346D01*
X87486831Y-147647398D01*
X87316804Y-147698975D01*
X87160105Y-147782732D01*
X87022758Y-147895450D01*
X86994511Y-147929869D01*
X86715621Y-148208759D01*
X86609072Y-148279952D01*
X86479952Y-148409072D01*
X86378504Y-148560901D01*
X86308624Y-148729604D01*
X86273000Y-148908699D01*
X86273000Y-149091301D01*
X86308624Y-149270396D01*
X86378504Y-149439099D01*
X86479952Y-149590928D01*
X86609072Y-149720048D01*
X86760901Y-149821496D01*
X86929604Y-149891376D01*
X87108699Y-149927000D01*
X87291301Y-149927000D01*
X87470396Y-149891376D01*
X87639099Y-149821496D01*
X87790928Y-149720048D01*
X87920048Y-149590928D01*
X87991241Y-149484379D01*
X88037274Y-149438346D01*
X89779266Y-149438346D01*
X89730962Y-149510639D01*
X89661082Y-149679342D01*
X89625458Y-149858437D01*
X89625458Y-150041039D01*
X89661082Y-150220134D01*
X89730962Y-150388837D01*
X89832410Y-150540666D01*
X89961530Y-150669786D01*
X90068079Y-150740979D01*
X90817359Y-151490260D01*
X90845602Y-151524674D01*
X90982949Y-151637392D01*
X91139648Y-151721149D01*
X91289609Y-151766639D01*
X88128300Y-151766639D01*
X87445359Y-151567580D01*
X86206571Y-151048114D01*
X85034548Y-150391749D01*
X83944371Y-149606934D01*
X82950049Y-148703756D01*
X82064350Y-147693809D01*
X81298679Y-146590100D01*
X80662870Y-145406802D01*
X80165106Y-144159147D01*
X79811778Y-142863154D01*
X79607063Y-141533100D01*
X79557440Y-140500000D01*
X84370451Y-140500000D01*
X84370451Y-142200000D01*
X84380626Y-142303310D01*
X84410761Y-142402650D01*
X84459696Y-142494202D01*
X84525552Y-142574448D01*
X84605798Y-142640304D01*
X84697350Y-142689239D01*
X84796690Y-142719374D01*
X84900000Y-142729549D01*
X86600000Y-142729549D01*
X86703310Y-142719374D01*
X86802650Y-142689239D01*
X86894202Y-142640304D01*
X86974448Y-142574448D01*
X87040304Y-142494202D01*
X87089239Y-142402650D01*
X87119374Y-142303310D01*
X87129549Y-142200000D01*
X87129549Y-142091798D01*
X87220414Y-142227787D01*
X87412213Y-142419586D01*
X87637746Y-142570282D01*
X87888344Y-142674083D01*
X88154377Y-142727000D01*
X88425623Y-142727000D01*
X88691656Y-142674083D01*
X88942254Y-142570282D01*
X89167787Y-142419586D01*
X89359586Y-142227787D01*
X89510282Y-142002254D01*
X89614083Y-141751656D01*
X89667000Y-141485623D01*
X89667000Y-141214377D01*
X89614083Y-140948344D01*
X89510282Y-140697746D01*
X89359586Y-140472213D01*
X89167787Y-140280414D01*
X88942254Y-140129718D01*
X88691656Y-140025917D01*
X88425623Y-139973000D01*
X88154377Y-139973000D01*
X87888344Y-140025917D01*
X87637746Y-140129718D01*
X87412213Y-140280414D01*
X87220414Y-140472213D01*
X87129549Y-140608202D01*
X87129549Y-140500000D01*
X87119374Y-140396690D01*
X87089239Y-140297350D01*
X87040304Y-140205798D01*
X86974448Y-140125552D01*
X86894202Y-140059696D01*
X86802650Y-140010761D01*
X86703310Y-139980626D01*
X86600000Y-139970451D01*
X84900000Y-139970451D01*
X84796690Y-139980626D01*
X84697350Y-140010761D01*
X84605798Y-140059696D01*
X84525552Y-140125552D01*
X84459696Y-140205798D01*
X84410761Y-140297350D01*
X84380626Y-140396690D01*
X84370451Y-140500000D01*
X79557440Y-140500000D01*
X79552000Y-140386757D01*
X79552000Y-107625000D01*
X85268032Y-107625000D01*
X85273000Y-107675441D01*
X85273001Y-133974549D01*
X85268032Y-134025000D01*
X85287861Y-134226327D01*
X85346586Y-134419917D01*
X85441950Y-134598331D01*
X85530456Y-134706175D01*
X85570289Y-134754712D01*
X85609476Y-134786872D01*
X87734475Y-136911873D01*
X87851668Y-137008050D01*
X88030082Y-137103414D01*
X88223672Y-137162140D01*
X88425000Y-137181968D01*
X88626327Y-137162140D01*
X88819917Y-137103414D01*
X88998331Y-137008050D01*
X89154712Y-136879712D01*
X89283050Y-136723331D01*
X89378414Y-136544917D01*
X89437140Y-136351327D01*
X89456968Y-136150000D01*
X89437140Y-135948672D01*
X89378414Y-135755082D01*
X89283050Y-135576668D01*
X89186873Y-135459475D01*
X87327000Y-133599604D01*
X87327000Y-130355638D01*
X87373000Y-130355638D01*
X87373000Y-131444362D01*
X87585399Y-132512166D01*
X88002036Y-133518016D01*
X88606899Y-134423257D01*
X89376743Y-135193101D01*
X90281984Y-135797964D01*
X91287834Y-136214601D01*
X92355638Y-136427000D01*
X93444362Y-136427000D01*
X94512166Y-136214601D01*
X95518016Y-135797964D01*
X96423257Y-135193101D01*
X97193101Y-134423257D01*
X97797964Y-133518016D01*
X98214601Y-132512166D01*
X98427000Y-131444362D01*
X98427000Y-130355638D01*
X98214601Y-129287834D01*
X97797964Y-128281984D01*
X97193101Y-127376743D01*
X96423257Y-126606899D01*
X95518016Y-126002036D01*
X94512166Y-125585399D01*
X93444362Y-125373000D01*
X92355638Y-125373000D01*
X91287834Y-125585399D01*
X90281984Y-126002036D01*
X89376743Y-126606899D01*
X88606899Y-127376743D01*
X88002036Y-128281984D01*
X87585399Y-129287834D01*
X87373000Y-130355638D01*
X87327000Y-130355638D01*
X87327000Y-122724981D01*
X107623000Y-122724981D01*
X107623000Y-123075019D01*
X107691289Y-123418332D01*
X107825243Y-123741725D01*
X108019714Y-124032771D01*
X108267229Y-124280286D01*
X108558275Y-124474757D01*
X108881668Y-124608711D01*
X109224981Y-124677000D01*
X109575019Y-124677000D01*
X109918332Y-124608711D01*
X110241725Y-124474757D01*
X110532771Y-124280286D01*
X110780286Y-124032771D01*
X110974757Y-123741725D01*
X111108711Y-123418332D01*
X111177000Y-123075019D01*
X111177000Y-122724981D01*
X111108711Y-122381668D01*
X110974757Y-122058275D01*
X110780286Y-121767229D01*
X110532771Y-121519714D01*
X110241725Y-121325243D01*
X109918332Y-121191289D01*
X109575019Y-121123000D01*
X109224981Y-121123000D01*
X108881668Y-121191289D01*
X108558275Y-121325243D01*
X108267229Y-121519714D01*
X108019714Y-121767229D01*
X107825243Y-122058275D01*
X107691289Y-122381668D01*
X107623000Y-122724981D01*
X87327000Y-122724981D01*
X87327000Y-120124981D01*
X102823000Y-120124981D01*
X102823000Y-120475019D01*
X102891289Y-120818332D01*
X103025243Y-121141725D01*
X103219714Y-121432771D01*
X103467229Y-121680286D01*
X103758275Y-121874757D01*
X104081668Y-122008711D01*
X104424981Y-122077000D01*
X104775019Y-122077000D01*
X105118332Y-122008711D01*
X105441725Y-121874757D01*
X105732771Y-121680286D01*
X105980286Y-121432771D01*
X106174757Y-121141725D01*
X106308711Y-120818332D01*
X106377000Y-120475019D01*
X106377000Y-120124981D01*
X106308711Y-119781668D01*
X106174757Y-119458275D01*
X105980286Y-119167229D01*
X105732771Y-118919714D01*
X105441725Y-118725243D01*
X105118332Y-118591289D01*
X104775019Y-118523000D01*
X104424981Y-118523000D01*
X104081668Y-118591289D01*
X103758275Y-118725243D01*
X103467229Y-118919714D01*
X103219714Y-119167229D01*
X103025243Y-119458275D01*
X102891289Y-119781668D01*
X102823000Y-120124981D01*
X87327000Y-120124981D01*
X87327000Y-108050396D01*
X88361873Y-107015525D01*
X88458051Y-106898332D01*
X88553414Y-106719918D01*
X88612140Y-106526328D01*
X88631968Y-106325000D01*
X88612140Y-106123673D01*
X88553414Y-105930083D01*
X88458051Y-105751669D01*
X88329712Y-105595288D01*
X88173331Y-105466949D01*
X87994917Y-105371586D01*
X87801327Y-105312860D01*
X87600000Y-105293032D01*
X87398672Y-105312860D01*
X87205082Y-105371586D01*
X87026668Y-105466949D01*
X86909475Y-105563127D01*
X85609480Y-106863124D01*
X85570288Y-106895288D01*
X85441949Y-107051669D01*
X85346585Y-107230084D01*
X85287860Y-107423674D01*
X85273000Y-107574550D01*
X85273000Y-107574559D01*
X85268032Y-107625000D01*
X79552000Y-107625000D01*
X79552000Y-99324981D01*
X81723000Y-99324981D01*
X81723000Y-99675019D01*
X81791289Y-100018332D01*
X81925243Y-100341725D01*
X82119714Y-100632771D01*
X82367229Y-100880286D01*
X82658275Y-101074757D01*
X82981668Y-101208711D01*
X83324981Y-101277000D01*
X83675019Y-101277000D01*
X84018332Y-101208711D01*
X84341725Y-101074757D01*
X84632771Y-100880286D01*
X84880286Y-100632771D01*
X85074757Y-100341725D01*
X85208711Y-100018332D01*
X85277000Y-99675019D01*
X85277000Y-99324981D01*
X85208711Y-98981668D01*
X85074757Y-98658275D01*
X84880286Y-98367229D01*
X84632771Y-98119714D01*
X84341725Y-97925243D01*
X84018332Y-97791289D01*
X83675019Y-97723000D01*
X83324981Y-97723000D01*
X82981668Y-97791289D01*
X82658275Y-97925243D01*
X82367229Y-98119714D01*
X82119714Y-98367229D01*
X81925243Y-98658275D01*
X81791289Y-98981668D01*
X81723000Y-99324981D01*
X79552000Y-99324981D01*
X79552000Y-93924981D01*
X80223000Y-93924981D01*
X80223000Y-94275019D01*
X80291289Y-94618332D01*
X80425243Y-94941725D01*
X80619714Y-95232771D01*
X80867229Y-95480286D01*
X81158275Y-95674757D01*
X81481668Y-95808711D01*
X81824981Y-95877000D01*
X82175019Y-95877000D01*
X82518332Y-95808711D01*
X82841725Y-95674757D01*
X83132771Y-95480286D01*
X83380286Y-95232771D01*
X83574757Y-94941725D01*
X83708711Y-94618332D01*
X83777000Y-94275019D01*
X83777000Y-93924981D01*
X83708711Y-93581668D01*
X83574757Y-93258275D01*
X83380286Y-92967229D01*
X83132771Y-92719714D01*
X82841725Y-92525243D01*
X82518332Y-92391289D01*
X82175019Y-92323000D01*
X81824981Y-92323000D01*
X81481668Y-92391289D01*
X81158275Y-92525243D01*
X80867229Y-92719714D01*
X80619714Y-92967229D01*
X80425243Y-93258275D01*
X80291289Y-93581668D01*
X80223000Y-93924981D01*
X79552000Y-93924981D01*
X79552000Y-89125000D01*
X81470451Y-89125000D01*
X81470451Y-90825000D01*
X81480626Y-90928310D01*
X81510761Y-91027650D01*
X81559696Y-91119202D01*
X81625552Y-91199448D01*
X81705798Y-91265304D01*
X81797350Y-91314239D01*
X81896690Y-91344374D01*
X82000000Y-91354549D01*
X83700000Y-91354549D01*
X83803310Y-91344374D01*
X83902650Y-91314239D01*
X83994202Y-91265304D01*
X84074448Y-91199448D01*
X84140304Y-91119202D01*
X84189239Y-91027650D01*
X84219374Y-90928310D01*
X84229549Y-90825000D01*
X84229549Y-89125000D01*
X84219374Y-89021690D01*
X84189239Y-88922350D01*
X84140304Y-88830798D01*
X84074448Y-88750552D01*
X83994202Y-88684696D01*
X83902650Y-88635761D01*
X83803310Y-88605626D01*
X83700000Y-88595451D01*
X83591798Y-88595451D01*
X83727787Y-88504586D01*
X83919586Y-88312787D01*
X84070282Y-88087254D01*
X84174083Y-87836656D01*
X84227000Y-87570623D01*
X84227000Y-87299377D01*
X84174083Y-87033344D01*
X84070282Y-86782746D01*
X83919586Y-86557213D01*
X83727787Y-86365414D01*
X83502254Y-86214718D01*
X83251656Y-86110917D01*
X82985623Y-86058000D01*
X82714377Y-86058000D01*
X82448344Y-86110917D01*
X82197746Y-86214718D01*
X81972213Y-86365414D01*
X81780414Y-86557213D01*
X81629718Y-86782746D01*
X81525917Y-87033344D01*
X81473000Y-87299377D01*
X81473000Y-87570623D01*
X81525917Y-87836656D01*
X81629718Y-88087254D01*
X81780414Y-88312787D01*
X81972213Y-88504586D01*
X82108202Y-88595451D01*
X82000000Y-88595451D01*
X81896690Y-88605626D01*
X81797350Y-88635761D01*
X81705798Y-88684696D01*
X81625552Y-88750552D01*
X81559696Y-88830798D01*
X81510761Y-88922350D01*
X81480626Y-89021690D01*
X81470451Y-89125000D01*
X79552000Y-89125000D01*
X79552000Y-84250000D01*
X89894483Y-84250000D01*
X89898000Y-84285708D01*
X89898001Y-98187824D01*
X89894483Y-98223542D01*
X89908520Y-98366059D01*
X89950090Y-98503098D01*
X89971088Y-98542382D01*
X90017598Y-98629395D01*
X90108447Y-98740096D01*
X90136189Y-98762863D01*
X117133410Y-125760086D01*
X117182217Y-125851397D01*
X116981668Y-125891289D01*
X116658275Y-126025243D01*
X116367229Y-126219714D01*
X116119714Y-126467229D01*
X115925243Y-126758275D01*
X115791289Y-127081668D01*
X115723000Y-127424981D01*
X115723000Y-127775019D01*
X115791289Y-128118332D01*
X115925243Y-128441725D01*
X116119714Y-128732771D01*
X116367229Y-128980286D01*
X116658275Y-129174757D01*
X116981668Y-129308711D01*
X117324981Y-129377000D01*
X117675019Y-129377000D01*
X118018332Y-129308711D01*
X118341725Y-129174757D01*
X118632771Y-128980286D01*
X118880286Y-128732771D01*
X119074757Y-128441725D01*
X119208711Y-128118332D01*
X119245790Y-127931921D01*
X125223000Y-133909131D01*
X125223001Y-136439661D01*
X125072213Y-136540414D01*
X124880414Y-136732213D01*
X124729718Y-136957746D01*
X124625917Y-137208344D01*
X124573000Y-137474377D01*
X124573000Y-137745623D01*
X124625917Y-138011656D01*
X124729718Y-138262254D01*
X124880414Y-138487787D01*
X125072213Y-138679586D01*
X125208202Y-138770451D01*
X125100000Y-138770451D01*
X124996690Y-138780626D01*
X124897350Y-138810761D01*
X124805798Y-138859696D01*
X124725552Y-138925552D01*
X124659696Y-139005798D01*
X124610761Y-139097350D01*
X124580626Y-139196690D01*
X124570451Y-139300000D01*
X124570451Y-141000000D01*
X124580626Y-141103310D01*
X124610761Y-141202650D01*
X124659696Y-141294202D01*
X124725552Y-141374448D01*
X124805798Y-141440304D01*
X124897350Y-141489239D01*
X124996690Y-141519374D01*
X125100000Y-141529549D01*
X126800000Y-141529549D01*
X126903310Y-141519374D01*
X127002650Y-141489239D01*
X127094202Y-141440304D01*
X127174448Y-141374448D01*
X127240304Y-141294202D01*
X127289239Y-141202650D01*
X127319374Y-141103310D01*
X127329549Y-141000000D01*
X127329549Y-140867757D01*
X127342517Y-140866480D01*
X127479557Y-140824910D01*
X127605853Y-140757403D01*
X127716554Y-140666554D01*
X127807403Y-140555853D01*
X127874910Y-140429557D01*
X127916480Y-140292517D01*
X127930517Y-140150000D01*
X127926999Y-140114282D01*
X127927001Y-133985708D01*
X127930518Y-133950000D01*
X127916481Y-133807483D01*
X127887297Y-133711278D01*
X127874911Y-133670445D01*
X127807404Y-133544149D01*
X127807403Y-133544147D01*
X127742844Y-133465482D01*
X127716555Y-133433448D01*
X127688818Y-133410685D01*
X116036832Y-121758699D01*
X126873000Y-121758699D01*
X126873000Y-121941301D01*
X126908624Y-122120396D01*
X126978504Y-122289099D01*
X127079952Y-122440928D01*
X127209072Y-122570048D01*
X127360901Y-122671496D01*
X127529604Y-122741376D01*
X127708699Y-122777000D01*
X127891301Y-122777000D01*
X128070396Y-122741376D01*
X128239099Y-122671496D01*
X128390928Y-122570048D01*
X128433976Y-122527000D01*
X128766755Y-122527000D01*
X128800000Y-122530274D01*
X128833245Y-122527000D01*
X128833252Y-122527000D01*
X128932715Y-122517204D01*
X129060330Y-122478492D01*
X129177941Y-122415628D01*
X129281027Y-122331027D01*
X129302226Y-122305196D01*
X131180933Y-120426489D01*
X144023000Y-120426489D01*
X144023000Y-120973511D01*
X144129718Y-121510021D01*
X144339054Y-122015403D01*
X144642963Y-122470234D01*
X145029766Y-122857037D01*
X145484597Y-123160946D01*
X145989979Y-123370282D01*
X146526489Y-123477000D01*
X147073511Y-123477000D01*
X147610021Y-123370282D01*
X148115403Y-123160946D01*
X148570234Y-122857037D01*
X148957037Y-122470234D01*
X149260946Y-122015403D01*
X149470282Y-121510021D01*
X149577000Y-120973511D01*
X149577000Y-120426489D01*
X149470282Y-119889979D01*
X149260946Y-119384597D01*
X148957037Y-118929766D01*
X148570234Y-118542963D01*
X148115403Y-118239054D01*
X147610021Y-118029718D01*
X147073511Y-117923000D01*
X146526489Y-117923000D01*
X145989979Y-118029718D01*
X145484597Y-118239054D01*
X145029766Y-118542963D01*
X144642963Y-118929766D01*
X144339054Y-119384597D01*
X144129718Y-119889979D01*
X144023000Y-120426489D01*
X131180933Y-120426489D01*
X134082441Y-117524981D01*
X156223000Y-117524981D01*
X156223000Y-117875019D01*
X156291289Y-118218332D01*
X156425243Y-118541725D01*
X156619714Y-118832771D01*
X156867229Y-119080286D01*
X157158275Y-119274757D01*
X157481668Y-119408711D01*
X157824981Y-119477000D01*
X158175019Y-119477000D01*
X158518332Y-119408711D01*
X158841725Y-119274757D01*
X159132771Y-119080286D01*
X159380286Y-118832771D01*
X159574757Y-118541725D01*
X159708711Y-118218332D01*
X159777000Y-117875019D01*
X159777000Y-117524981D01*
X159708711Y-117181668D01*
X159574757Y-116858275D01*
X159380286Y-116567229D01*
X159132771Y-116319714D01*
X158841725Y-116125243D01*
X158518332Y-115991289D01*
X158175019Y-115923000D01*
X157824981Y-115923000D01*
X157481668Y-115991289D01*
X157158275Y-116125243D01*
X156867229Y-116319714D01*
X156619714Y-116567229D01*
X156425243Y-116858275D01*
X156291289Y-117181668D01*
X156223000Y-117524981D01*
X134082441Y-117524981D01*
X152605201Y-99002222D01*
X152631027Y-98981027D01*
X152653160Y-98954059D01*
X152715628Y-98877941D01*
X152778492Y-98760330D01*
X152787829Y-98729549D01*
X153000000Y-98729549D01*
X153103310Y-98719374D01*
X153202650Y-98689239D01*
X153294202Y-98640304D01*
X153374448Y-98574448D01*
X153440304Y-98494202D01*
X153489239Y-98402650D01*
X153519374Y-98303310D01*
X153529549Y-98200000D01*
X153529549Y-96500000D01*
X153519374Y-96396690D01*
X153489239Y-96297350D01*
X153440304Y-96205798D01*
X153374448Y-96125552D01*
X153294202Y-96059696D01*
X153202650Y-96010761D01*
X153103310Y-95980626D01*
X153000000Y-95970451D01*
X152891798Y-95970451D01*
X153027787Y-95879586D01*
X153219586Y-95687787D01*
X153370282Y-95462254D01*
X153474083Y-95211656D01*
X153527000Y-94945623D01*
X153527000Y-94724981D01*
X156223000Y-94724981D01*
X156223000Y-95075019D01*
X156291289Y-95418332D01*
X156425243Y-95741725D01*
X156619714Y-96032771D01*
X156867229Y-96280286D01*
X157158275Y-96474757D01*
X157481668Y-96608711D01*
X157824981Y-96677000D01*
X158175019Y-96677000D01*
X158518332Y-96608711D01*
X158841725Y-96474757D01*
X159132771Y-96280286D01*
X159380286Y-96032771D01*
X159574757Y-95741725D01*
X159708711Y-95418332D01*
X159777000Y-95075019D01*
X159777000Y-94724981D01*
X159708711Y-94381668D01*
X159574757Y-94058275D01*
X159380286Y-93767229D01*
X159132771Y-93519714D01*
X158841725Y-93325243D01*
X158518332Y-93191289D01*
X158175019Y-93123000D01*
X157824981Y-93123000D01*
X157481668Y-93191289D01*
X157158275Y-93325243D01*
X156867229Y-93519714D01*
X156619714Y-93767229D01*
X156425243Y-94058275D01*
X156291289Y-94381668D01*
X156223000Y-94724981D01*
X153527000Y-94724981D01*
X153527000Y-94674377D01*
X153474083Y-94408344D01*
X153370282Y-94157746D01*
X153219586Y-93932213D01*
X153027787Y-93740414D01*
X152802254Y-93589718D01*
X152682224Y-93540000D01*
X152802254Y-93490282D01*
X153027787Y-93339586D01*
X153219586Y-93147787D01*
X153370282Y-92922254D01*
X153474083Y-92671656D01*
X153527000Y-92405623D01*
X153527000Y-92134377D01*
X153474083Y-91868344D01*
X153370282Y-91617746D01*
X153219586Y-91392213D01*
X153027787Y-91200414D01*
X152802254Y-91049718D01*
X152682224Y-91000000D01*
X152802254Y-90950282D01*
X153027787Y-90799586D01*
X153219586Y-90607787D01*
X153370282Y-90382254D01*
X153474083Y-90131656D01*
X153527000Y-89865623D01*
X153527000Y-89594377D01*
X153474083Y-89328344D01*
X153370282Y-89077746D01*
X153219586Y-88852213D01*
X153027787Y-88660414D01*
X152802254Y-88509718D01*
X152682224Y-88460000D01*
X152802254Y-88410282D01*
X153027787Y-88259586D01*
X153219586Y-88067787D01*
X153370282Y-87842254D01*
X153474083Y-87591656D01*
X153527000Y-87325623D01*
X153527000Y-87054377D01*
X153474083Y-86788344D01*
X153370282Y-86537746D01*
X153219586Y-86312213D01*
X153027787Y-86120414D01*
X152802254Y-85969718D01*
X152682224Y-85920000D01*
X152802254Y-85870282D01*
X153027787Y-85719586D01*
X153219586Y-85527787D01*
X153370282Y-85302254D01*
X153474083Y-85051656D01*
X153527000Y-84785623D01*
X153527000Y-84514377D01*
X153474083Y-84248344D01*
X153370282Y-83997746D01*
X153219586Y-83772213D01*
X153027787Y-83580414D01*
X152802254Y-83429718D01*
X152682224Y-83380000D01*
X152802254Y-83330282D01*
X153027787Y-83179586D01*
X153219586Y-82987787D01*
X153370282Y-82762254D01*
X153474083Y-82511656D01*
X153527000Y-82245623D01*
X153527000Y-81974377D01*
X153474083Y-81708344D01*
X153370282Y-81457746D01*
X153219586Y-81232213D01*
X153027787Y-81040414D01*
X152802254Y-80889718D01*
X152682224Y-80840000D01*
X152802254Y-80790282D01*
X153027787Y-80639586D01*
X153219586Y-80447787D01*
X153370282Y-80222254D01*
X153474083Y-79971656D01*
X153527000Y-79705623D01*
X153527000Y-79434377D01*
X153474083Y-79168344D01*
X153370282Y-78917746D01*
X153219586Y-78692213D01*
X153027787Y-78500414D01*
X152802254Y-78349718D01*
X152551656Y-78245917D01*
X152285623Y-78193000D01*
X152014377Y-78193000D01*
X151748344Y-78245917D01*
X151497746Y-78349718D01*
X151272213Y-78500414D01*
X151080414Y-78692213D01*
X150929718Y-78917746D01*
X150825917Y-79168344D01*
X150773000Y-79434377D01*
X150773000Y-79705623D01*
X150820111Y-79942467D01*
X150494799Y-80267779D01*
X150468972Y-80288975D01*
X150447777Y-80314801D01*
X150447775Y-80314803D01*
X150400014Y-80373000D01*
X150384371Y-80392061D01*
X150321507Y-80509672D01*
X150282795Y-80637287D01*
X150272999Y-80736750D01*
X150272999Y-80736756D01*
X150269725Y-80770001D01*
X150272999Y-80803246D01*
X150273000Y-82322458D01*
X149994789Y-82600669D01*
X149968963Y-82621864D01*
X149884361Y-82724950D01*
X149821497Y-82842561D01*
X149782785Y-82970176D01*
X149772989Y-83069639D01*
X149772989Y-83069646D01*
X149769715Y-83102891D01*
X149772989Y-83136136D01*
X149772989Y-83333251D01*
X149772990Y-83333261D01*
X149772989Y-84655348D01*
X148994769Y-85433569D01*
X148968943Y-85454764D01*
X148947748Y-85480590D01*
X148947745Y-85480593D01*
X148884341Y-85557851D01*
X148821477Y-85675462D01*
X148782765Y-85803077D01*
X148769695Y-85935791D01*
X148772970Y-85969045D01*
X148772969Y-89321128D01*
X147494743Y-90599355D01*
X147494739Y-90599359D01*
X147468913Y-90620554D01*
X147447718Y-90646380D01*
X147447715Y-90646383D01*
X147384311Y-90723641D01*
X147321447Y-90841252D01*
X147282735Y-90968867D01*
X147269665Y-91101581D01*
X147272940Y-91134836D01*
X147272939Y-97469798D01*
X137894881Y-106847857D01*
X132569738Y-112173000D01*
X129583976Y-112173000D01*
X129540928Y-112129952D01*
X129389099Y-112028504D01*
X129220396Y-111958624D01*
X129041301Y-111923000D01*
X128858699Y-111923000D01*
X128679604Y-111958624D01*
X128510901Y-112028504D01*
X128359072Y-112129952D01*
X128229952Y-112259072D01*
X128128504Y-112410901D01*
X128058624Y-112579604D01*
X128023000Y-112758699D01*
X128023000Y-112941301D01*
X128058624Y-113120396D01*
X128128504Y-113289099D01*
X128229952Y-113440928D01*
X128289024Y-113500000D01*
X128229952Y-113559072D01*
X128128504Y-113710901D01*
X128058624Y-113879604D01*
X128023000Y-114058699D01*
X128023000Y-114241301D01*
X128058624Y-114420396D01*
X128128504Y-114589099D01*
X128229952Y-114740928D01*
X128289024Y-114800000D01*
X128279952Y-114809072D01*
X128178504Y-114960901D01*
X128108624Y-115129604D01*
X128073000Y-115308699D01*
X128073000Y-115491301D01*
X128108624Y-115670396D01*
X128178504Y-115839099D01*
X128279952Y-115990928D01*
X128409072Y-116120048D01*
X128415009Y-116124015D01*
X128329952Y-116209072D01*
X128228504Y-116360901D01*
X128158624Y-116529604D01*
X128123000Y-116708699D01*
X128123000Y-116891301D01*
X128158624Y-117070396D01*
X128228504Y-117239099D01*
X128329952Y-117390928D01*
X128367192Y-117428168D01*
X128278504Y-117560901D01*
X128208624Y-117729604D01*
X128173000Y-117908699D01*
X128173000Y-118091301D01*
X128208624Y-118270396D01*
X128278504Y-118439099D01*
X128379952Y-118590928D01*
X128439024Y-118650000D01*
X128379952Y-118709072D01*
X128278504Y-118860901D01*
X128208624Y-119029604D01*
X128173000Y-119208699D01*
X128173000Y-119391301D01*
X128208624Y-119570396D01*
X128278504Y-119739099D01*
X128379952Y-119890928D01*
X128383693Y-119894669D01*
X128374621Y-119903741D01*
X128273173Y-120055570D01*
X128203293Y-120224273D01*
X128167669Y-120403368D01*
X128167669Y-120585970D01*
X128203293Y-120765065D01*
X128273173Y-120933768D01*
X128374621Y-121085597D01*
X128462024Y-121173000D01*
X128433976Y-121173000D01*
X128390928Y-121129952D01*
X128239099Y-121028504D01*
X128070396Y-120958624D01*
X127891301Y-120923000D01*
X127708699Y-120923000D01*
X127529604Y-120958624D01*
X127360901Y-121028504D01*
X127209072Y-121129952D01*
X127079952Y-121259072D01*
X126978504Y-121410901D01*
X126908624Y-121579604D01*
X126873000Y-121758699D01*
X116036832Y-121758699D01*
X102703114Y-108424981D01*
X129123000Y-108424981D01*
X129123000Y-108775019D01*
X129191289Y-109118332D01*
X129325243Y-109441725D01*
X129519714Y-109732771D01*
X129767229Y-109980286D01*
X130058275Y-110174757D01*
X130381668Y-110308711D01*
X130724981Y-110377000D01*
X131075019Y-110377000D01*
X131418332Y-110308711D01*
X131741725Y-110174757D01*
X132032771Y-109980286D01*
X132280286Y-109732771D01*
X132474757Y-109441725D01*
X132608711Y-109118332D01*
X132677000Y-108775019D01*
X132677000Y-108424981D01*
X132608711Y-108081668D01*
X132474757Y-107758275D01*
X132280286Y-107467229D01*
X132032771Y-107219714D01*
X131741725Y-107025243D01*
X131418332Y-106891289D01*
X131075019Y-106823000D01*
X130724981Y-106823000D01*
X130381668Y-106891289D01*
X130058275Y-107025243D01*
X129767229Y-107219714D01*
X129519714Y-107467229D01*
X129325243Y-107758275D01*
X129191289Y-108081668D01*
X129123000Y-108424981D01*
X102703114Y-108424981D01*
X92402000Y-98123868D01*
X92402000Y-88521417D01*
X92425917Y-88641656D01*
X92529718Y-88892254D01*
X92680414Y-89117787D01*
X92872213Y-89309586D01*
X93097746Y-89460282D01*
X93348344Y-89564083D01*
X93614377Y-89617000D01*
X93885623Y-89617000D01*
X94151656Y-89564083D01*
X94402254Y-89460282D01*
X94627787Y-89309586D01*
X94819586Y-89117787D01*
X94970282Y-88892254D01*
X95020000Y-88772224D01*
X95069718Y-88892254D01*
X95220414Y-89117787D01*
X95412213Y-89309586D01*
X95563001Y-89410339D01*
X95563000Y-91554292D01*
X95559483Y-91590000D01*
X95573520Y-91732517D01*
X95593174Y-91797307D01*
X95615090Y-91869556D01*
X95682597Y-91995852D01*
X95773446Y-92106553D01*
X95801190Y-92129322D01*
X105800441Y-102128574D01*
X105833624Y-102295396D01*
X105903504Y-102464099D01*
X106004952Y-102615928D01*
X106134072Y-102745048D01*
X106285901Y-102846496D01*
X106454604Y-102916376D01*
X106633699Y-102952000D01*
X106816301Y-102952000D01*
X106995396Y-102916376D01*
X107164099Y-102846496D01*
X107315928Y-102745048D01*
X107445048Y-102615928D01*
X107546496Y-102464099D01*
X107616376Y-102295396D01*
X107652000Y-102116301D01*
X107652000Y-101933699D01*
X107616376Y-101754604D01*
X107546496Y-101585901D01*
X107445048Y-101434072D01*
X107315928Y-101304952D01*
X107164099Y-101203504D01*
X106995396Y-101133624D01*
X106828574Y-101100441D01*
X106053114Y-100324981D01*
X108123000Y-100324981D01*
X108123000Y-100675019D01*
X108191289Y-101018332D01*
X108325243Y-101341725D01*
X108519714Y-101632771D01*
X108767229Y-101880286D01*
X109058275Y-102074757D01*
X109381668Y-102208711D01*
X109724981Y-102277000D01*
X110075019Y-102277000D01*
X110418332Y-102208711D01*
X110741725Y-102074757D01*
X111032771Y-101880286D01*
X111280286Y-101632771D01*
X111474757Y-101341725D01*
X111608711Y-101018332D01*
X111677000Y-100675019D01*
X111677000Y-100424981D01*
X134123000Y-100424981D01*
X134123000Y-100775019D01*
X134191289Y-101118332D01*
X134325243Y-101441725D01*
X134519714Y-101732771D01*
X134767229Y-101980286D01*
X135058275Y-102174757D01*
X135381668Y-102308711D01*
X135724981Y-102377000D01*
X136075019Y-102377000D01*
X136418332Y-102308711D01*
X136741725Y-102174757D01*
X137032771Y-101980286D01*
X137280286Y-101732771D01*
X137474757Y-101441725D01*
X137608711Y-101118332D01*
X137677000Y-100775019D01*
X137677000Y-100424981D01*
X137608711Y-100081668D01*
X137474757Y-99758275D01*
X137280286Y-99467229D01*
X137032771Y-99219714D01*
X136741725Y-99025243D01*
X136418332Y-98891289D01*
X136075019Y-98823000D01*
X135724981Y-98823000D01*
X135381668Y-98891289D01*
X135058275Y-99025243D01*
X134767229Y-99219714D01*
X134519714Y-99467229D01*
X134325243Y-99758275D01*
X134191289Y-100081668D01*
X134123000Y-100424981D01*
X111677000Y-100424981D01*
X111677000Y-100324981D01*
X111608711Y-99981668D01*
X111474757Y-99658275D01*
X111280286Y-99367229D01*
X111032771Y-99119714D01*
X110741725Y-98925243D01*
X110418332Y-98791289D01*
X110075019Y-98723000D01*
X109724981Y-98723000D01*
X109381668Y-98791289D01*
X109058275Y-98925243D01*
X108767229Y-99119714D01*
X108519714Y-99367229D01*
X108325243Y-99658275D01*
X108191289Y-99981668D01*
X108123000Y-100324981D01*
X106053114Y-100324981D01*
X104855134Y-99127001D01*
X105882071Y-99127001D01*
X105928504Y-99239099D01*
X106029952Y-99390928D01*
X106159072Y-99520048D01*
X106310901Y-99621496D01*
X106479604Y-99691376D01*
X106658699Y-99727000D01*
X106841301Y-99727000D01*
X107020396Y-99691376D01*
X107189099Y-99621496D01*
X107340928Y-99520048D01*
X107470048Y-99390928D01*
X107571496Y-99239099D01*
X107641376Y-99070396D01*
X107677000Y-98891301D01*
X107677000Y-98729981D01*
X107745396Y-98716376D01*
X107914099Y-98646496D01*
X108065928Y-98545048D01*
X108195048Y-98415928D01*
X108296496Y-98264099D01*
X108366376Y-98095396D01*
X108402000Y-97916301D01*
X108402000Y-97733699D01*
X108366376Y-97554604D01*
X108296496Y-97385901D01*
X108195048Y-97234072D01*
X108065928Y-97104952D01*
X107914099Y-97003504D01*
X107745396Y-96933624D01*
X107566301Y-96898000D01*
X107383699Y-96898000D01*
X107204604Y-96933624D01*
X107035901Y-97003504D01*
X106931905Y-97072991D01*
X105476125Y-97072991D01*
X100807001Y-92403869D01*
X100807001Y-89497253D01*
X100968344Y-89564083D01*
X101234377Y-89617000D01*
X101505623Y-89617000D01*
X101771656Y-89564083D01*
X102022254Y-89460282D01*
X102247787Y-89309586D01*
X102439586Y-89117787D01*
X102590282Y-88892254D01*
X102640000Y-88772224D01*
X102689718Y-88892254D01*
X102840414Y-89117787D01*
X103032213Y-89309586D01*
X103257746Y-89460282D01*
X103508344Y-89564083D01*
X103774377Y-89617000D01*
X104045623Y-89617000D01*
X104311656Y-89564083D01*
X104562254Y-89460282D01*
X104787787Y-89309586D01*
X104979586Y-89117787D01*
X105130282Y-88892254D01*
X105180000Y-88772224D01*
X105229718Y-88892254D01*
X105380414Y-89117787D01*
X105572213Y-89309586D01*
X105797746Y-89460282D01*
X106048344Y-89564083D01*
X106314377Y-89617000D01*
X106585623Y-89617000D01*
X106851656Y-89564083D01*
X107102254Y-89460282D01*
X107327787Y-89309586D01*
X107519586Y-89117787D01*
X107663975Y-88901692D01*
X107794822Y-89121355D01*
X107989731Y-89337588D01*
X108223080Y-89511641D01*
X108485901Y-89636825D01*
X108633110Y-89681476D01*
X108863000Y-89560155D01*
X108863000Y-88367000D01*
X108843000Y-88367000D01*
X108843000Y-88113000D01*
X108863000Y-88113000D01*
X108863000Y-88093000D01*
X109117000Y-88093000D01*
X109117000Y-88113000D01*
X109137000Y-88113000D01*
X109137000Y-88367000D01*
X109117000Y-88367000D01*
X109117000Y-89560155D01*
X109346890Y-89681476D01*
X109494099Y-89636825D01*
X109756920Y-89511641D01*
X109990269Y-89337588D01*
X110185178Y-89121355D01*
X110316025Y-88901692D01*
X110460414Y-89117787D01*
X110652213Y-89309586D01*
X110877746Y-89460282D01*
X111128344Y-89564083D01*
X111394377Y-89617000D01*
X111665623Y-89617000D01*
X111931656Y-89564083D01*
X112182254Y-89460282D01*
X112407787Y-89309586D01*
X112599586Y-89117787D01*
X112750282Y-88892254D01*
X112800000Y-88772224D01*
X112849718Y-88892254D01*
X113000414Y-89117787D01*
X113192213Y-89309586D01*
X113417746Y-89460282D01*
X113668344Y-89564083D01*
X113934377Y-89617000D01*
X114205623Y-89617000D01*
X114383488Y-89581621D01*
X114823000Y-90021133D01*
X114823000Y-90437024D01*
X114740928Y-90354952D01*
X114589099Y-90253504D01*
X114420396Y-90183624D01*
X114241301Y-90148000D01*
X114058699Y-90148000D01*
X113879604Y-90183624D01*
X113710901Y-90253504D01*
X113569476Y-90348000D01*
X104960707Y-90348000D01*
X104924999Y-90344483D01*
X104782482Y-90358520D01*
X104750587Y-90368195D01*
X104645443Y-90400090D01*
X104519147Y-90467597D01*
X104408446Y-90558446D01*
X104385679Y-90586188D01*
X103611189Y-91360679D01*
X103583447Y-91383446D01*
X103508457Y-91474823D01*
X103492598Y-91494147D01*
X103425090Y-91620444D01*
X103383520Y-91757483D01*
X103382243Y-91770451D01*
X103250000Y-91770451D01*
X103146690Y-91780626D01*
X103047350Y-91810761D01*
X102955798Y-91859696D01*
X102875552Y-91925552D01*
X102809696Y-92005798D01*
X102760761Y-92097350D01*
X102730626Y-92196690D01*
X102720451Y-92300000D01*
X102720451Y-94000000D01*
X102730626Y-94103310D01*
X102760761Y-94202650D01*
X102809696Y-94294202D01*
X102875552Y-94374448D01*
X102955798Y-94440304D01*
X103047350Y-94489239D01*
X103146690Y-94519374D01*
X103250000Y-94529549D01*
X104950000Y-94529549D01*
X105053310Y-94519374D01*
X105152650Y-94489239D01*
X105244202Y-94440304D01*
X105324448Y-94374448D01*
X105390304Y-94294202D01*
X105439239Y-94202650D01*
X105469374Y-94103310D01*
X105479549Y-94000000D01*
X105479549Y-93891798D01*
X105570414Y-94027787D01*
X105762213Y-94219586D01*
X105987746Y-94370282D01*
X106238344Y-94474083D01*
X106504377Y-94527000D01*
X106775623Y-94527000D01*
X107041656Y-94474083D01*
X107292254Y-94370282D01*
X107517787Y-94219586D01*
X107709586Y-94027787D01*
X107860282Y-93802254D01*
X107910000Y-93682224D01*
X107959718Y-93802254D01*
X108110414Y-94027787D01*
X108302213Y-94219586D01*
X108527746Y-94370282D01*
X108778344Y-94474083D01*
X109044377Y-94527000D01*
X109315623Y-94527000D01*
X109581656Y-94474083D01*
X109832254Y-94370282D01*
X110057787Y-94219586D01*
X110249586Y-94027787D01*
X110400282Y-93802254D01*
X110450000Y-93682224D01*
X110499718Y-93802254D01*
X110650414Y-94027787D01*
X110842213Y-94219586D01*
X111067746Y-94370282D01*
X111318344Y-94474083D01*
X111584377Y-94527000D01*
X111855623Y-94527000D01*
X112121656Y-94474083D01*
X112372254Y-94370282D01*
X112597787Y-94219586D01*
X112789586Y-94027787D01*
X112940282Y-93802254D01*
X112990000Y-93682224D01*
X113039718Y-93802254D01*
X113190414Y-94027787D01*
X113382213Y-94219586D01*
X113607746Y-94370282D01*
X113858344Y-94474083D01*
X114124377Y-94527000D01*
X114395623Y-94527000D01*
X114661656Y-94474083D01*
X114912254Y-94370282D01*
X115137787Y-94219586D01*
X115329586Y-94027787D01*
X115480282Y-93802254D01*
X115530000Y-93682224D01*
X115579718Y-93802254D01*
X115730414Y-94027787D01*
X115922213Y-94219586D01*
X116147746Y-94370282D01*
X116398344Y-94474083D01*
X116664377Y-94527000D01*
X116935623Y-94527000D01*
X117201656Y-94474083D01*
X117452254Y-94370282D01*
X117677787Y-94219586D01*
X117869586Y-94027787D01*
X118020282Y-93802254D01*
X118070000Y-93682224D01*
X118119718Y-93802254D01*
X118270414Y-94027787D01*
X118462213Y-94219586D01*
X118687746Y-94370282D01*
X118938344Y-94474083D01*
X119204377Y-94527000D01*
X119475623Y-94527000D01*
X119741656Y-94474083D01*
X119992254Y-94370282D01*
X120217787Y-94219586D01*
X120409586Y-94027787D01*
X120553975Y-93811692D01*
X120684822Y-94031355D01*
X120879731Y-94247588D01*
X121113080Y-94421641D01*
X121375901Y-94546825D01*
X121523110Y-94591476D01*
X121753000Y-94470155D01*
X121753000Y-93277000D01*
X121733000Y-93277000D01*
X121733000Y-93023000D01*
X121753000Y-93023000D01*
X121753000Y-91829845D01*
X121523110Y-91708524D01*
X121375901Y-91753175D01*
X121113080Y-91878359D01*
X120879731Y-92052412D01*
X120684822Y-92268645D01*
X120553975Y-92488308D01*
X120409586Y-92272213D01*
X120217787Y-92080414D01*
X119992254Y-91929718D01*
X119741656Y-91825917D01*
X119475623Y-91773000D01*
X119204377Y-91773000D01*
X118938344Y-91825917D01*
X118687746Y-91929718D01*
X118462213Y-92080414D01*
X118270414Y-92272213D01*
X118119718Y-92497746D01*
X118070000Y-92617776D01*
X118020282Y-92497746D01*
X117869586Y-92272213D01*
X117677787Y-92080414D01*
X117452254Y-91929718D01*
X117201656Y-91825917D01*
X116935623Y-91773000D01*
X116664377Y-91773000D01*
X116398344Y-91825917D01*
X116279005Y-91875349D01*
X116280517Y-91860001D01*
X116277000Y-91824295D01*
X116277000Y-89755707D01*
X116280517Y-89719999D01*
X116275556Y-89669630D01*
X116483000Y-89560155D01*
X116483000Y-88367000D01*
X116463000Y-88367000D01*
X116463000Y-88113000D01*
X116483000Y-88113000D01*
X116483000Y-88093000D01*
X116737000Y-88093000D01*
X116737000Y-88113000D01*
X116757000Y-88113000D01*
X116757000Y-88367000D01*
X116737000Y-88367000D01*
X116737000Y-89560155D01*
X116966890Y-89681476D01*
X117114099Y-89636825D01*
X117376920Y-89511641D01*
X117449427Y-89457559D01*
X117970684Y-89978818D01*
X117993447Y-90006555D01*
X118104148Y-90097404D01*
X118230444Y-90164911D01*
X118367483Y-90206481D01*
X118510001Y-90220518D01*
X118545709Y-90217001D01*
X120458869Y-90217001D01*
X122049358Y-91807491D01*
X122007000Y-91829845D01*
X122007000Y-93023000D01*
X122027000Y-93023000D01*
X122027000Y-93277000D01*
X122007000Y-93277000D01*
X122007000Y-94470155D01*
X122236890Y-94591476D01*
X122384099Y-94546825D01*
X122646920Y-94421641D01*
X122880269Y-94247588D01*
X123075178Y-94031355D01*
X123206025Y-93811692D01*
X123350414Y-94027787D01*
X123542213Y-94219586D01*
X123767746Y-94370282D01*
X124018344Y-94474083D01*
X124284377Y-94527000D01*
X124555623Y-94527000D01*
X124821656Y-94474083D01*
X125072254Y-94370282D01*
X125297787Y-94219586D01*
X125489586Y-94027787D01*
X125640282Y-93802254D01*
X125744083Y-93551656D01*
X125797000Y-93285623D01*
X125797000Y-93014377D01*
X125744083Y-92748344D01*
X125640282Y-92497746D01*
X125489586Y-92272213D01*
X125297787Y-92080414D01*
X125072254Y-91929718D01*
X124821656Y-91825917D01*
X124555623Y-91773000D01*
X124284377Y-91773000D01*
X124106512Y-91808379D01*
X121900282Y-89602150D01*
X122091656Y-89564083D01*
X122342254Y-89460282D01*
X122567787Y-89309586D01*
X122759586Y-89117787D01*
X122910282Y-88892254D01*
X122960000Y-88772224D01*
X123009718Y-88892254D01*
X123160414Y-89117787D01*
X123352213Y-89309586D01*
X123577746Y-89460282D01*
X123828344Y-89564083D01*
X124094377Y-89617000D01*
X124365623Y-89617000D01*
X124631656Y-89564083D01*
X124882254Y-89460282D01*
X125107787Y-89309586D01*
X125299586Y-89117787D01*
X125450282Y-88892254D01*
X125500000Y-88772224D01*
X125549718Y-88892254D01*
X125700414Y-89117787D01*
X125892213Y-89309586D01*
X126117746Y-89460282D01*
X126368344Y-89564083D01*
X126634377Y-89617000D01*
X126905623Y-89617000D01*
X127171656Y-89564083D01*
X127422254Y-89460282D01*
X127647787Y-89309586D01*
X127839586Y-89117787D01*
X127983975Y-88901692D01*
X128114822Y-89121355D01*
X128309731Y-89337588D01*
X128543080Y-89511641D01*
X128805901Y-89636825D01*
X128953110Y-89681476D01*
X129183000Y-89560155D01*
X129183000Y-88367000D01*
X129163000Y-88367000D01*
X129163000Y-88113000D01*
X129183000Y-88113000D01*
X129183000Y-88093000D01*
X129437000Y-88093000D01*
X129437000Y-88113000D01*
X129457000Y-88113000D01*
X129457000Y-88367000D01*
X129437000Y-88367000D01*
X129437000Y-89560155D01*
X129666890Y-89681476D01*
X129814099Y-89636825D01*
X130076920Y-89511641D01*
X130310269Y-89337588D01*
X130505178Y-89121355D01*
X130636025Y-88901692D01*
X130780414Y-89117787D01*
X130972213Y-89309586D01*
X131197746Y-89460282D01*
X131448344Y-89564083D01*
X131714377Y-89617000D01*
X131985623Y-89617000D01*
X132251656Y-89564083D01*
X132502254Y-89460282D01*
X132727787Y-89309586D01*
X132919586Y-89117787D01*
X133063975Y-88901692D01*
X133194822Y-89121355D01*
X133389731Y-89337588D01*
X133623080Y-89511641D01*
X133885901Y-89636825D01*
X134033110Y-89681476D01*
X134263000Y-89560155D01*
X134263000Y-88367000D01*
X134243000Y-88367000D01*
X134243000Y-88113000D01*
X134263000Y-88113000D01*
X134263000Y-88093000D01*
X134517000Y-88093000D01*
X134517000Y-88113000D01*
X134537000Y-88113000D01*
X134537000Y-88367000D01*
X134517000Y-88367000D01*
X134517000Y-89560155D01*
X134746890Y-89681476D01*
X134894099Y-89636825D01*
X135156920Y-89511641D01*
X135390269Y-89337588D01*
X135585178Y-89121355D01*
X135716025Y-88901692D01*
X135860414Y-89117787D01*
X136052213Y-89309586D01*
X136277746Y-89460282D01*
X136528344Y-89564083D01*
X136794377Y-89617000D01*
X137065623Y-89617000D01*
X137331656Y-89564083D01*
X137582254Y-89460282D01*
X137807787Y-89309586D01*
X137999586Y-89117787D01*
X138150282Y-88892254D01*
X138200000Y-88772224D01*
X138249718Y-88892254D01*
X138400414Y-89117787D01*
X138592213Y-89309586D01*
X138817746Y-89460282D01*
X139068344Y-89564083D01*
X139334377Y-89617000D01*
X139605623Y-89617000D01*
X139871656Y-89564083D01*
X140122254Y-89460282D01*
X140347787Y-89309586D01*
X140539586Y-89117787D01*
X140690282Y-88892254D01*
X140740000Y-88772224D01*
X140789718Y-88892254D01*
X140940414Y-89117787D01*
X141132213Y-89309586D01*
X141357746Y-89460282D01*
X141608344Y-89564083D01*
X141874377Y-89617000D01*
X142145623Y-89617000D01*
X142411656Y-89564083D01*
X142662254Y-89460282D01*
X142887787Y-89309586D01*
X143079586Y-89117787D01*
X143230282Y-88892254D01*
X143334083Y-88641656D01*
X143387000Y-88375623D01*
X143387000Y-88104377D01*
X143334083Y-87838344D01*
X143230282Y-87587746D01*
X143079586Y-87362213D01*
X142887787Y-87170414D01*
X142667968Y-87023536D01*
X142776920Y-86971641D01*
X143010269Y-86797588D01*
X143205178Y-86581355D01*
X143354157Y-86331252D01*
X143451481Y-86056891D01*
X143330814Y-85827000D01*
X142137000Y-85827000D01*
X142137000Y-85847000D01*
X141883000Y-85847000D01*
X141883000Y-85827000D01*
X141863000Y-85827000D01*
X141863000Y-85573000D01*
X141883000Y-85573000D01*
X141883000Y-84379845D01*
X142137000Y-84379845D01*
X142137000Y-85573000D01*
X143330814Y-85573000D01*
X143451481Y-85343109D01*
X143354157Y-85068748D01*
X143205178Y-84818645D01*
X143010269Y-84602412D01*
X142776920Y-84428359D01*
X142514099Y-84303175D01*
X142366890Y-84258524D01*
X142137000Y-84379845D01*
X141883000Y-84379845D01*
X141653110Y-84258524D01*
X141505901Y-84303175D01*
X141243080Y-84428359D01*
X141009731Y-84602412D01*
X140814822Y-84818645D01*
X140683975Y-85038308D01*
X140539586Y-84822213D01*
X140347787Y-84630414D01*
X140122254Y-84479718D01*
X139871656Y-84375917D01*
X139605623Y-84323000D01*
X139334377Y-84323000D01*
X139068344Y-84375917D01*
X138817746Y-84479718D01*
X138592213Y-84630414D01*
X138400414Y-84822213D01*
X138249718Y-85047746D01*
X138200000Y-85167776D01*
X138150282Y-85047746D01*
X137999586Y-84822213D01*
X137807787Y-84630414D01*
X137582254Y-84479718D01*
X137331656Y-84375917D01*
X137065623Y-84323000D01*
X136794377Y-84323000D01*
X136528344Y-84375917D01*
X136277746Y-84479718D01*
X136052213Y-84630414D01*
X135860414Y-84822213D01*
X135709718Y-85047746D01*
X135660000Y-85167776D01*
X135610282Y-85047746D01*
X135459586Y-84822213D01*
X135267787Y-84630414D01*
X135042254Y-84479718D01*
X134791656Y-84375917D01*
X134525623Y-84323000D01*
X134254377Y-84323000D01*
X133988344Y-84375917D01*
X133737746Y-84479718D01*
X133512213Y-84630414D01*
X133320414Y-84822213D01*
X133169718Y-85047746D01*
X133120000Y-85167776D01*
X133070282Y-85047746D01*
X132919586Y-84822213D01*
X132727787Y-84630414D01*
X132502254Y-84479718D01*
X132251656Y-84375917D01*
X131985623Y-84323000D01*
X131714377Y-84323000D01*
X131448344Y-84375917D01*
X131197746Y-84479718D01*
X130972213Y-84630414D01*
X130780414Y-84822213D01*
X130629718Y-85047746D01*
X130580000Y-85167776D01*
X130530282Y-85047746D01*
X130379586Y-84822213D01*
X130187787Y-84630414D01*
X129962254Y-84479718D01*
X129711656Y-84375917D01*
X129445623Y-84323000D01*
X129174377Y-84323000D01*
X128908344Y-84375917D01*
X128657746Y-84479718D01*
X128432213Y-84630414D01*
X128240414Y-84822213D01*
X128089718Y-85047746D01*
X128040000Y-85167776D01*
X127990282Y-85047746D01*
X127839586Y-84822213D01*
X127647787Y-84630414D01*
X127422254Y-84479718D01*
X127171656Y-84375917D01*
X126905623Y-84323000D01*
X126634377Y-84323000D01*
X126368344Y-84375917D01*
X126117746Y-84479718D01*
X125892213Y-84630414D01*
X125700414Y-84822213D01*
X125556025Y-85038308D01*
X125425178Y-84818645D01*
X125230269Y-84602412D01*
X124996920Y-84428359D01*
X124734099Y-84303175D01*
X124586890Y-84258524D01*
X124357000Y-84379845D01*
X124357000Y-85573000D01*
X124377000Y-85573000D01*
X124377000Y-85827000D01*
X124357000Y-85827000D01*
X124357000Y-85847000D01*
X124103000Y-85847000D01*
X124103000Y-85827000D01*
X124083000Y-85827000D01*
X124083000Y-85573000D01*
X124103000Y-85573000D01*
X124103000Y-84379845D01*
X123873110Y-84258524D01*
X123725901Y-84303175D01*
X123463080Y-84428359D01*
X123229731Y-84602412D01*
X123034822Y-84818645D01*
X122903975Y-85038308D01*
X122759586Y-84822213D01*
X122567787Y-84630414D01*
X122342254Y-84479718D01*
X122091656Y-84375917D01*
X121825623Y-84323000D01*
X121554377Y-84323000D01*
X121288344Y-84375917D01*
X121037746Y-84479718D01*
X120812213Y-84630414D01*
X120620414Y-84822213D01*
X120469718Y-85047746D01*
X120420000Y-85167776D01*
X120370282Y-85047746D01*
X120219586Y-84822213D01*
X120027787Y-84630414D01*
X119802254Y-84479718D01*
X119551656Y-84375917D01*
X119285623Y-84323000D01*
X119014377Y-84323000D01*
X118748344Y-84375917D01*
X118497746Y-84479718D01*
X118272213Y-84630414D01*
X118080414Y-84822213D01*
X117929718Y-85047746D01*
X117880000Y-85167776D01*
X117830282Y-85047746D01*
X117679586Y-84822213D01*
X117487787Y-84630414D01*
X117262254Y-84479718D01*
X117011656Y-84375917D01*
X116745623Y-84323000D01*
X116474377Y-84323000D01*
X116208344Y-84375917D01*
X115957746Y-84479718D01*
X115732213Y-84630414D01*
X115540414Y-84822213D01*
X115389718Y-85047746D01*
X115340000Y-85167776D01*
X115290282Y-85047746D01*
X115139586Y-84822213D01*
X114947787Y-84630414D01*
X114722254Y-84479718D01*
X114471656Y-84375917D01*
X114205623Y-84323000D01*
X113968620Y-84323000D01*
X112939143Y-83293523D01*
X112910896Y-83259104D01*
X112773549Y-83146386D01*
X112616850Y-83062629D01*
X112446823Y-83011052D01*
X112314307Y-82998000D01*
X112314299Y-82998000D01*
X112270000Y-82993637D01*
X112225701Y-82998000D01*
X95594299Y-82998000D01*
X95549999Y-82993637D01*
X95505700Y-82998000D01*
X95505693Y-82998000D01*
X95373177Y-83011052D01*
X95203150Y-83062629D01*
X95046451Y-83146386D01*
X94909104Y-83259104D01*
X94880857Y-83293523D01*
X93853929Y-84320451D01*
X92957681Y-84320451D01*
X96051133Y-81227000D01*
X97719476Y-81227000D01*
X97860901Y-81321496D01*
X98029604Y-81391376D01*
X98208699Y-81427000D01*
X98391301Y-81427000D01*
X98570396Y-81391376D01*
X98739099Y-81321496D01*
X98890928Y-81220048D01*
X99020048Y-81090928D01*
X99117278Y-80945411D01*
X99760679Y-81588812D01*
X99783446Y-81616554D01*
X99894147Y-81707403D01*
X100020443Y-81774910D01*
X100157483Y-81816480D01*
X100264292Y-81827000D01*
X100264294Y-81827000D01*
X100299999Y-81830517D01*
X100335705Y-81827000D01*
X108669476Y-81827000D01*
X108810901Y-81921496D01*
X108979604Y-81991376D01*
X109158699Y-82027000D01*
X109341301Y-82027000D01*
X109520396Y-81991376D01*
X109689099Y-81921496D01*
X109840928Y-81820048D01*
X109970048Y-81690928D01*
X110071496Y-81539099D01*
X110141376Y-81370396D01*
X110177000Y-81191301D01*
X110177000Y-81008699D01*
X110141376Y-80829604D01*
X110071496Y-80660901D01*
X109970048Y-80509072D01*
X109840928Y-80379952D01*
X109689099Y-80278504D01*
X109520396Y-80208624D01*
X109341301Y-80173000D01*
X109158699Y-80173000D01*
X108979604Y-80208624D01*
X108810901Y-80278504D01*
X108669476Y-80373000D01*
X100601133Y-80373000D01*
X99439325Y-79211193D01*
X99416553Y-79183445D01*
X99305852Y-79092596D01*
X99179556Y-79025089D01*
X99042516Y-78983519D01*
X98935707Y-78972999D01*
X98899999Y-78969482D01*
X98864291Y-78972999D01*
X95210708Y-78972999D01*
X95175000Y-78969482D01*
X95032483Y-78983519D01*
X94895444Y-79025089D01*
X94769148Y-79092596D01*
X94658447Y-79183445D01*
X94635680Y-79211187D01*
X90136190Y-83710678D01*
X90108446Y-83733447D01*
X90017597Y-83844148D01*
X89987743Y-83900001D01*
X89950090Y-83970444D01*
X89908520Y-84107483D01*
X89894483Y-84250000D01*
X79552000Y-84250000D01*
X79552000Y-77542566D01*
X79627127Y-76951670D01*
X79802959Y-76424506D01*
X79723000Y-76826489D01*
X79723000Y-77373511D01*
X79829718Y-77910021D01*
X80039054Y-78415403D01*
X80342963Y-78870234D01*
X80729766Y-79257037D01*
X81184597Y-79560946D01*
X81689979Y-79770282D01*
X82226489Y-79877000D01*
X82773511Y-79877000D01*
X83310021Y-79770282D01*
X83600407Y-79650000D01*
X87111928Y-79650000D01*
X87124188Y-79774482D01*
X87160498Y-79894180D01*
X87219463Y-80004494D01*
X87298815Y-80101185D01*
X87395506Y-80180537D01*
X87505820Y-80239502D01*
X87625518Y-80275812D01*
X87644258Y-80277658D01*
X87541576Y-80380340D01*
X87385409Y-80614062D01*
X87277838Y-80873759D01*
X87223000Y-81149453D01*
X87223000Y-81430547D01*
X87277838Y-81706241D01*
X87385409Y-81965938D01*
X87541576Y-82199660D01*
X87740340Y-82398424D01*
X87974062Y-82554591D01*
X88233759Y-82662162D01*
X88509453Y-82717000D01*
X88790547Y-82717000D01*
X89066241Y-82662162D01*
X89325938Y-82554591D01*
X89559660Y-82398424D01*
X89758424Y-82199660D01*
X89914591Y-81965938D01*
X90022162Y-81706241D01*
X90077000Y-81430547D01*
X90077000Y-81149453D01*
X90022162Y-80873759D01*
X89914591Y-80614062D01*
X89758424Y-80380340D01*
X89655742Y-80277658D01*
X89674482Y-80275812D01*
X89794180Y-80239502D01*
X89904494Y-80180537D01*
X90001185Y-80101185D01*
X90080537Y-80004494D01*
X90139502Y-79894180D01*
X90175812Y-79774482D01*
X90188072Y-79650000D01*
X90185000Y-79035750D01*
X90026250Y-78877000D01*
X88777000Y-78877000D01*
X88777000Y-78897000D01*
X88523000Y-78897000D01*
X88523000Y-78877000D01*
X87273750Y-78877000D01*
X87115000Y-79035750D01*
X87111928Y-79650000D01*
X83600407Y-79650000D01*
X83815403Y-79560946D01*
X84270234Y-79257037D01*
X84657037Y-78870234D01*
X84960946Y-78415403D01*
X85170282Y-77910021D01*
X85182220Y-77850000D01*
X87111928Y-77850000D01*
X87115000Y-78464250D01*
X87273750Y-78623000D01*
X88523000Y-78623000D01*
X88523000Y-77373750D01*
X88777000Y-77373750D01*
X88777000Y-78623000D01*
X90026250Y-78623000D01*
X90185000Y-78464250D01*
X90188072Y-77850000D01*
X90175812Y-77725518D01*
X90139502Y-77605820D01*
X90080537Y-77495506D01*
X90001185Y-77398815D01*
X89904494Y-77319463D01*
X89794180Y-77260498D01*
X89674482Y-77224188D01*
X89550000Y-77211928D01*
X88935750Y-77215000D01*
X88777000Y-77373750D01*
X88523000Y-77373750D01*
X88364250Y-77215000D01*
X87750000Y-77211928D01*
X87625518Y-77224188D01*
X87505820Y-77260498D01*
X87395506Y-77319463D01*
X87298815Y-77398815D01*
X87219463Y-77495506D01*
X87160498Y-77605820D01*
X87124188Y-77725518D01*
X87111928Y-77850000D01*
X85182220Y-77850000D01*
X85277000Y-77373511D01*
X85277000Y-76826489D01*
X85170282Y-76289979D01*
X85116217Y-76159453D01*
X123523000Y-76159453D01*
X123523000Y-76440547D01*
X123577838Y-76716241D01*
X123685409Y-76975938D01*
X123841576Y-77209660D01*
X124040340Y-77408424D01*
X124274062Y-77564591D01*
X124533759Y-77672162D01*
X124809453Y-77727000D01*
X125090547Y-77727000D01*
X125366241Y-77672162D01*
X125625938Y-77564591D01*
X125859660Y-77408424D01*
X125950000Y-77318084D01*
X126040340Y-77408424D01*
X126274062Y-77564591D01*
X126533759Y-77672162D01*
X126809453Y-77727000D01*
X127090547Y-77727000D01*
X127366241Y-77672162D01*
X127625938Y-77564591D01*
X127859660Y-77408424D01*
X127950000Y-77318084D01*
X128040340Y-77408424D01*
X128274062Y-77564591D01*
X128495035Y-77656122D01*
X126753157Y-79398000D01*
X125080693Y-79398000D01*
X125014099Y-79353504D01*
X124845396Y-79283624D01*
X124666301Y-79248000D01*
X124483699Y-79248000D01*
X124304604Y-79283624D01*
X124135901Y-79353504D01*
X123984072Y-79454952D01*
X123854952Y-79584072D01*
X123753504Y-79735901D01*
X123683624Y-79904604D01*
X123648000Y-80083699D01*
X123648000Y-80266301D01*
X123683624Y-80445396D01*
X123753504Y-80614099D01*
X123854952Y-80765928D01*
X123984072Y-80895048D01*
X124135901Y-80996496D01*
X124304604Y-81066376D01*
X124483699Y-81102000D01*
X124666301Y-81102000D01*
X124845396Y-81066376D01*
X125014099Y-80996496D01*
X125080693Y-80952000D01*
X127036837Y-80952000D01*
X127075000Y-80955759D01*
X127113163Y-80952000D01*
X127113166Y-80952000D01*
X127227319Y-80940757D01*
X127373784Y-80896327D01*
X127508766Y-80824177D01*
X127627080Y-80727080D01*
X127651413Y-80697430D01*
X130652970Y-77695874D01*
X130809453Y-77727000D01*
X131090547Y-77727000D01*
X131366241Y-77672162D01*
X131625938Y-77564591D01*
X131859660Y-77408424D01*
X131950000Y-77318084D01*
X132040340Y-77408424D01*
X132274062Y-77564591D01*
X132533759Y-77672162D01*
X132809453Y-77727000D01*
X133090547Y-77727000D01*
X133366241Y-77672162D01*
X133625938Y-77564591D01*
X133859660Y-77408424D01*
X134058424Y-77209660D01*
X134214591Y-76975938D01*
X134322162Y-76716241D01*
X134377000Y-76440547D01*
X134377000Y-76159453D01*
X134322162Y-75883759D01*
X134214591Y-75624062D01*
X134131696Y-75500000D01*
X135970451Y-75500000D01*
X135970451Y-77100000D01*
X135980626Y-77203310D01*
X136010761Y-77302650D01*
X136059696Y-77394202D01*
X136125552Y-77474448D01*
X136205798Y-77540304D01*
X136210105Y-77542606D01*
X136124028Y-77671430D01*
X136023996Y-77912928D01*
X135973000Y-78169302D01*
X135973000Y-78430698D01*
X136023996Y-78687072D01*
X136124028Y-78928570D01*
X136269252Y-79145913D01*
X136454087Y-79330748D01*
X136671430Y-79475972D01*
X136912928Y-79576004D01*
X137169302Y-79627000D01*
X137430698Y-79627000D01*
X137687072Y-79576004D01*
X137928570Y-79475972D01*
X138145913Y-79330748D01*
X138330748Y-79145913D01*
X138475972Y-78928570D01*
X138576004Y-78687072D01*
X138627000Y-78430698D01*
X138627000Y-78169302D01*
X138576004Y-77912928D01*
X138475972Y-77671430D01*
X138389895Y-77542606D01*
X138394202Y-77540304D01*
X138474448Y-77474448D01*
X138540304Y-77394202D01*
X138589239Y-77302650D01*
X138619374Y-77203310D01*
X138629549Y-77100000D01*
X138629549Y-75500000D01*
X138619374Y-75396690D01*
X138589239Y-75297350D01*
X138540304Y-75205798D01*
X138474448Y-75125552D01*
X138394202Y-75059696D01*
X138302650Y-75010761D01*
X138203310Y-74980626D01*
X138100000Y-74970451D01*
X136500000Y-74970451D01*
X136396690Y-74980626D01*
X136297350Y-75010761D01*
X136205798Y-75059696D01*
X136125552Y-75125552D01*
X136059696Y-75205798D01*
X136010761Y-75297350D01*
X135980626Y-75396690D01*
X135970451Y-75500000D01*
X134131696Y-75500000D01*
X134058424Y-75390340D01*
X133859660Y-75191576D01*
X133625938Y-75035409D01*
X133366241Y-74927838D01*
X133090547Y-74873000D01*
X132809453Y-74873000D01*
X132533759Y-74927838D01*
X132274062Y-75035409D01*
X132040340Y-75191576D01*
X131950000Y-75281916D01*
X131859660Y-75191576D01*
X131625938Y-75035409D01*
X131366241Y-74927838D01*
X131090547Y-74873000D01*
X130809453Y-74873000D01*
X130533759Y-74927838D01*
X130274062Y-75035409D01*
X130040340Y-75191576D01*
X129950000Y-75281916D01*
X129859660Y-75191576D01*
X129625938Y-75035409D01*
X129366241Y-74927838D01*
X129090547Y-74873000D01*
X128809453Y-74873000D01*
X128533759Y-74927838D01*
X128274062Y-75035409D01*
X128040340Y-75191576D01*
X127950000Y-75281916D01*
X127859660Y-75191576D01*
X127625938Y-75035409D01*
X127366241Y-74927838D01*
X127090547Y-74873000D01*
X126809453Y-74873000D01*
X126533759Y-74927838D01*
X126274062Y-75035409D01*
X126040340Y-75191576D01*
X125950000Y-75281916D01*
X125859660Y-75191576D01*
X125625938Y-75035409D01*
X125366241Y-74927838D01*
X125090547Y-74873000D01*
X124809453Y-74873000D01*
X124533759Y-74927838D01*
X124274062Y-75035409D01*
X124040340Y-75191576D01*
X123841576Y-75390340D01*
X123685409Y-75624062D01*
X123577838Y-75883759D01*
X123523000Y-76159453D01*
X85116217Y-76159453D01*
X84960946Y-75784597D01*
X84657037Y-75329766D01*
X84270234Y-74942963D01*
X83834778Y-74652000D01*
X156165222Y-74652000D01*
X155729766Y-74942963D01*
G36*
X98428344Y-87024083D02*
G01*
X98694377Y-87077000D01*
X98965623Y-87077000D01*
X99143488Y-87041621D01*
X99353001Y-87251134D01*
X99353002Y-92349870D01*
X98306999Y-91303867D01*
X98306999Y-87025707D01*
X98310516Y-86989999D01*
X98309004Y-86974651D01*
X98428344Y-87024083D01*
G37*
X98428344Y-87024083D02*
X98694377Y-87077000D01*
X98965623Y-87077000D01*
X99143488Y-87041621D01*
X99353001Y-87251134D01*
X99353002Y-92349870D01*
X98306999Y-91303867D01*
X98306999Y-87025707D01*
X98310516Y-86989999D01*
X98309004Y-86974651D01*
X98428344Y-87024083D01*
G36*
X104037000Y-85573000D02*
G01*
X104057000Y-85573000D01*
X104057000Y-85827000D01*
X104037000Y-85827000D01*
X104037000Y-85847000D01*
X103783000Y-85847000D01*
X103783000Y-85827000D01*
X103763000Y-85827000D01*
X103763000Y-85573000D01*
X103783000Y-85573000D01*
X103783000Y-85553000D01*
X104037000Y-85553000D01*
X104037000Y-85573000D01*
G37*
X104037000Y-85573000D02*
X104057000Y-85573000D01*
X104057000Y-85827000D01*
X104037000Y-85827000D01*
X104037000Y-85847000D01*
X103783000Y-85847000D01*
X103783000Y-85827000D01*
X103763000Y-85827000D01*
X103763000Y-85573000D01*
X103783000Y-85573000D01*
X103783000Y-85553000D01*
X104037000Y-85553000D01*
X104037000Y-85573000D01*
M02*
