M48
INCH
T1C0.0157
T2C0.0236
T3C0.0300
T4C0.0315
T5C0.0335
T6C0.0354
T7C0.0394
T8C0.0472
%
G90
G05
T1
X3.4331Y-5.8661
X3.4488Y-4.186
X3.4813Y-5.3602
X3.5637Y-5.8479
X3.5651Y-5.9035
X3.6043Y-5.8209
X3.6193Y-4.2209
X3.6193Y-4.2996
X3.647Y-5.9403
X3.6931Y-3.0049
X3.698Y-4.2209
X3.698Y-4.2996
X3.7009Y-5.8306
X3.7719Y-3.0049
X3.8701Y-3.1693
X3.878Y-5.8602
X3.9343Y-4.9083
X3.9343Y-4.987
X3.9488Y-5.8583
X4.013Y-4.9083
X4.013Y-4.987
X4.1909Y-5.748
X4.2018Y-4.0167
X4.2028Y-3.8898
X4.2313Y-3.8514
X4.2441Y-5.5571
X4.2894Y-3.1417
X4.3012Y-3.1929
X4.315Y-5.9429
X4.3366Y-5.8898
X4.3388Y-5.8395
X4.4941Y-3.5856
X4.6929Y-4.2244
X4.6929Y-4.6496
X4.7717Y-4.2244
X4.7717Y-4.6496
X4.9045Y-3.1565
X5.0315Y-4.7972
X5.0768Y-4.4429
X5.0768Y-4.4941
X5.0787Y-4.5433
X5.0807Y-4.5984
X5.0825Y-4.7439
X5.0827Y-4.6457
X5.0827Y-4.6969
X5.9508Y-4.4697
X5.9508Y-4.5484
X6.0295Y-4.4697
X6.0295Y-4.5484
T3
X4.8937Y-2.6102
X5.2598Y-2.6102
T4
X5.4055Y-3.0039
X5.4055Y-3.0827
T5
X4.5276Y-5.8524
X4.7244Y-5.8524
T6
X3.4902Y-3.1004
X3.4902Y-3.2004
T7
X5.9902Y-3.1327
X5.9902Y-3.2327
X5.9902Y-3.3327
X5.9902Y-3.4327
X5.9902Y-3.5327
X5.9902Y-3.6327
X5.9902Y-3.7327
X5.9902Y-3.8327
X4.0984Y-3.6673
X4.1984Y-3.6673
X4.2984Y-3.6673
X4.3984Y-3.6673
X4.4984Y-3.6673
X4.5984Y-3.6673
X4.6984Y-3.6673
X4.7984Y-3.6673
X4.8984Y-3.6673
X3.376Y-5.565
X3.476Y-5.565
X4.9587Y-5.4177
X4.9587Y-5.5177
X3.2618Y-3.4423
X3.2618Y-3.5423
X3.6909Y-3.374
X3.6909Y-3.474
X3.7909Y-3.374
X3.7909Y-3.474
X3.8909Y-3.374
X3.8909Y-3.474
X3.9909Y-3.374
X3.9909Y-3.474
X4.0909Y-3.374
X4.0909Y-3.474
X4.1909Y-3.374
X4.1909Y-3.474
X4.2909Y-3.374
X4.2909Y-3.474
X4.3909Y-3.374
X4.3909Y-3.474
X4.4909Y-3.374
X4.4909Y-3.474
X4.5909Y-3.374
X4.5909Y-3.474
X4.6909Y-3.374
X4.6909Y-3.474
X4.7909Y-3.374
X4.7909Y-3.474
X4.8909Y-3.374
X4.8909Y-3.474
X4.9909Y-3.374
X4.9909Y-3.474
X5.0909Y-3.374
X5.0909Y-3.474
X5.1909Y-3.374
X5.1909Y-3.474
X5.2909Y-3.374
X5.2909Y-3.474
X5.3909Y-3.374
X5.3909Y-3.474
X5.4909Y-3.374
X5.4909Y-3.474
X5.5909Y-3.374
X5.5909Y-3.474
T8
X4.9193Y-3.0039
X4.998Y-3.0039
X5.0768Y-3.0039
X5.1555Y-3.0039
X5.2343Y-3.0039
T2
G00X4.4882Y-5.9724
M15
G01X4.4882Y-5.9449
M16
G05
G00X4.7638Y-5.9449
M15
G01X4.7638Y-5.9724
M16
G05
T0
M30
