G04 #@! TF.GenerationSoftware,KiCad,Pcbnew,5.1.5*
G04 #@! TF.CreationDate,2020-03-31T01:32:46+02:00*
G04 #@! TF.ProjectId,gameboy-dmg,67616d65-626f-4792-9d64-6d672e6b6963,rev?*
G04 #@! TF.SameCoordinates,Original*
G04 #@! TF.FileFunction,Legend,Bot*
G04 #@! TF.FilePolarity,Positive*
%FSLAX46Y46*%
G04 Gerber Fmt 4.6, Leading zero omitted, Abs format (unit mm)*
G04 Created by KiCad (PCBNEW 5.1.5) date 2020-03-31 01:32:46*
%MOMM*%
%LPD*%
G04 APERTURE LIST*
%ADD10C,0.150000*%
%ADD11C,2.000000*%
%ADD12C,0.500000*%
%ADD13C,0.010000*%
%ADD14C,0.120000*%
G04 APERTURE END LIST*
D10*
X93251190Y-147860714D02*
X93213095Y-147898809D01*
X93098809Y-147936904D01*
X93022619Y-147936904D01*
X92908333Y-147898809D01*
X92832142Y-147822619D01*
X92794047Y-147746428D01*
X92755952Y-147594047D01*
X92755952Y-147479761D01*
X92794047Y-147327380D01*
X92832142Y-147251190D01*
X92908333Y-147175000D01*
X93022619Y-147136904D01*
X93098809Y-147136904D01*
X93213095Y-147175000D01*
X93251190Y-147213095D01*
X93594047Y-147936904D02*
X93594047Y-147136904D01*
X93594047Y-147517857D02*
X94051190Y-147517857D01*
X94051190Y-147936904D02*
X94051190Y-147136904D01*
X94394047Y-147708333D02*
X94775000Y-147708333D01*
X94317857Y-147936904D02*
X94584523Y-147136904D01*
X94851190Y-147936904D01*
X95575000Y-147936904D02*
X95308333Y-147555952D01*
X95117857Y-147936904D02*
X95117857Y-147136904D01*
X95422619Y-147136904D01*
X95498809Y-147175000D01*
X95536904Y-147213095D01*
X95575000Y-147289285D01*
X95575000Y-147403571D01*
X95536904Y-147479761D01*
X95498809Y-147517857D01*
X95422619Y-147555952D01*
X95117857Y-147555952D01*
X96336904Y-147175000D02*
X96260714Y-147136904D01*
X96146428Y-147136904D01*
X96032142Y-147175000D01*
X95955952Y-147251190D01*
X95917857Y-147327380D01*
X95879761Y-147479761D01*
X95879761Y-147594047D01*
X95917857Y-147746428D01*
X95955952Y-147822619D01*
X96032142Y-147898809D01*
X96146428Y-147936904D01*
X96222619Y-147936904D01*
X96336904Y-147898809D01*
X96375000Y-147860714D01*
X96375000Y-147594047D01*
X96222619Y-147594047D01*
X96717857Y-147936904D02*
X96717857Y-147136904D01*
X97098809Y-147936904D02*
X97098809Y-147136904D01*
X97555952Y-147936904D01*
X97555952Y-147136904D01*
X98355952Y-147175000D02*
X98279761Y-147136904D01*
X98165476Y-147136904D01*
X98051190Y-147175000D01*
X97975000Y-147251190D01*
X97936904Y-147327380D01*
X97898809Y-147479761D01*
X97898809Y-147594047D01*
X97936904Y-147746428D01*
X97975000Y-147822619D01*
X98051190Y-147898809D01*
X98165476Y-147936904D01*
X98241666Y-147936904D01*
X98355952Y-147898809D01*
X98394047Y-147860714D01*
X98394047Y-147594047D01*
X98241666Y-147594047D01*
X93623809Y-150085714D02*
X93585714Y-150123809D01*
X93471428Y-150161904D01*
X93395238Y-150161904D01*
X93280952Y-150123809D01*
X93204761Y-150047619D01*
X93166666Y-149971428D01*
X93128571Y-149819047D01*
X93128571Y-149704761D01*
X93166666Y-149552380D01*
X93204761Y-149476190D01*
X93280952Y-149400000D01*
X93395238Y-149361904D01*
X93471428Y-149361904D01*
X93585714Y-149400000D01*
X93623809Y-149438095D01*
X93966666Y-150161904D02*
X93966666Y-149361904D01*
X93966666Y-149742857D02*
X94423809Y-149742857D01*
X94423809Y-150161904D02*
X94423809Y-149361904D01*
X94766666Y-149933333D02*
X95147619Y-149933333D01*
X94690476Y-150161904D02*
X94957142Y-149361904D01*
X95223809Y-150161904D01*
X95947619Y-150161904D02*
X95680952Y-149780952D01*
X95490476Y-150161904D02*
X95490476Y-149361904D01*
X95795238Y-149361904D01*
X95871428Y-149400000D01*
X95909523Y-149438095D01*
X95947619Y-149514285D01*
X95947619Y-149628571D01*
X95909523Y-149704761D01*
X95871428Y-149742857D01*
X95795238Y-149780952D01*
X95490476Y-149780952D01*
X96709523Y-149400000D02*
X96633333Y-149361904D01*
X96519047Y-149361904D01*
X96404761Y-149400000D01*
X96328571Y-149476190D01*
X96290476Y-149552380D01*
X96252380Y-149704761D01*
X96252380Y-149819047D01*
X96290476Y-149971428D01*
X96328571Y-150047619D01*
X96404761Y-150123809D01*
X96519047Y-150161904D01*
X96595238Y-150161904D01*
X96709523Y-150123809D01*
X96747619Y-150085714D01*
X96747619Y-149819047D01*
X96595238Y-149819047D01*
X97090476Y-149742857D02*
X97357142Y-149742857D01*
X97471428Y-150161904D02*
X97090476Y-150161904D01*
X97090476Y-149361904D01*
X97471428Y-149361904D01*
X97814285Y-150161904D02*
X97814285Y-149361904D01*
X98004761Y-149361904D01*
X98119047Y-149400000D01*
X98195238Y-149476190D01*
X98233333Y-149552380D01*
X98271428Y-149704761D01*
X98271428Y-149819047D01*
X98233333Y-149971428D01*
X98195238Y-150047619D01*
X98119047Y-150123809D01*
X98004761Y-150161904D01*
X97814285Y-150161904D01*
D11*
X114801532Y-84496662D02*
G75*
G02X132777374Y-95840289I-33501532J-73003338D01*
G01*
X141493798Y-114404433D02*
G75*
G02X155100000Y-151900000I-60293798J-43095567D01*
G01*
X145702396Y-109498214D02*
G75*
G02X161300000Y-150300000I-64402396J-48001786D01*
G01*
X77000409Y-83607207D02*
G75*
G02X129495393Y-101385011I4199591J-73992793D01*
G01*
D12*
X112449510Y-100500000D02*
G75*
G03X112449510Y-100500000I-2549510J0D01*
G01*
X158811271Y-120336632D02*
G75*
G02X159899999Y-115700001I-811271J2636632D01*
G01*
X159860899Y-96858840D02*
G75*
G02X157900000Y-92200000I-1860899J1958840D01*
G01*
X80728999Y-95664307D02*
G75*
G02X83750000Y-93100000I1271001J1564307D01*
G01*
D13*
G36*
X131332030Y-103880504D02*
G01*
X129558512Y-104306587D01*
X127978033Y-105188336D01*
X126666601Y-106442741D01*
X125700222Y-107986797D01*
X125154903Y-109737496D01*
X125106649Y-111611829D01*
X125631469Y-113526790D01*
X126172270Y-114536571D01*
X127076583Y-115955434D01*
X126154746Y-120255934D01*
X125232909Y-124556434D01*
X122608757Y-124272552D01*
X120552431Y-124061528D01*
X119065409Y-123942016D01*
X118017859Y-123910565D01*
X117279950Y-123963722D01*
X116721850Y-124098036D01*
X116673860Y-124114750D01*
X115815372Y-124282586D01*
X115324409Y-124250868D01*
X114628669Y-124318186D01*
X113972155Y-124618977D01*
X113261039Y-124973985D01*
X112834071Y-125044473D01*
X112271835Y-125154517D01*
X111443128Y-125576090D01*
X110567919Y-126160446D01*
X109866179Y-126758839D01*
X109557882Y-127222524D01*
X109557551Y-127260084D01*
X109324819Y-127826800D01*
X109012094Y-128055841D01*
X108373508Y-128619850D01*
X108378499Y-129329463D01*
X108662791Y-129716848D01*
X108956325Y-130164956D01*
X108638706Y-130562246D01*
X108563409Y-130616771D01*
X108064052Y-131259489D01*
X108237553Y-131934178D01*
X109051526Y-132547481D01*
X109750764Y-133060766D01*
X109906246Y-133772381D01*
X109880596Y-134000340D01*
X109873257Y-134644291D01*
X110193062Y-135095261D01*
X110996124Y-135547404D01*
X111201019Y-135642514D01*
X112448392Y-136437726D01*
X113060380Y-137335896D01*
X113351146Y-137915242D01*
X113799588Y-138312342D01*
X114591469Y-138641504D01*
X115700679Y-138960586D01*
X117136501Y-139414777D01*
X118021575Y-139883742D01*
X118439227Y-140326530D01*
X119179626Y-140982344D01*
X120383901Y-141354408D01*
X122730182Y-141846618D01*
X124626053Y-142380947D01*
X125877365Y-142887444D01*
X126847957Y-143218612D01*
X127653495Y-143275266D01*
X128434405Y-143063534D01*
X128790967Y-142858934D01*
X129273658Y-142791186D01*
X130232657Y-142908333D01*
X131470435Y-143186088D01*
X131486523Y-143190390D01*
X132754886Y-143508652D01*
X133536957Y-143615650D01*
X134021505Y-143505303D01*
X134397301Y-143171536D01*
X134461946Y-143094571D01*
X135012909Y-142650175D01*
X135818659Y-142495428D01*
X136881514Y-142554329D01*
X137971187Y-142630730D01*
X138579603Y-142517009D01*
X138921035Y-142141572D01*
X139061517Y-141825949D01*
X139502737Y-141154850D01*
X140246736Y-140966948D01*
X140507595Y-140976110D01*
X141486542Y-140853239D01*
X142008704Y-140410157D01*
X122585153Y-135205632D01*
X122259235Y-135485170D01*
X121940065Y-135675834D01*
X121059491Y-135855381D01*
X119914269Y-135694358D01*
X118815935Y-135259405D01*
X118315090Y-134900373D01*
X117841443Y-134311913D01*
X117929090Y-134054045D01*
X118489238Y-134183145D01*
X119004161Y-134462877D01*
X120393030Y-135035168D01*
X121389461Y-135102017D01*
X122312642Y-135096061D01*
X122585153Y-135205632D01*
X142008704Y-140410157D01*
X142013575Y-140406025D01*
X141970798Y-139742085D01*
X141934136Y-139673930D01*
X141885999Y-139231732D01*
X142417887Y-138863200D01*
X142563995Y-138801511D01*
X122901816Y-133533046D01*
X122353343Y-134087942D01*
X121793185Y-134276811D01*
X120494492Y-134355923D01*
X119381999Y-133908035D01*
X118886874Y-133539300D01*
X118333482Y-132842640D01*
X118359369Y-132247101D01*
X118839807Y-131807060D01*
X119163761Y-131715036D01*
X117715848Y-131327068D01*
X117304008Y-131525023D01*
X117250630Y-131546185D01*
X116103399Y-131679505D01*
X114859086Y-131370805D01*
X113877320Y-130715856D01*
X113801516Y-130627682D01*
X113513971Y-130225075D01*
X113659106Y-130187858D01*
X114327498Y-130502110D01*
X114395298Y-130536442D01*
X115580911Y-130963440D01*
X116782020Y-131170277D01*
X117565759Y-131227998D01*
X117715848Y-131327068D01*
X119163761Y-131715036D01*
X119650069Y-131576892D01*
X120665430Y-131610975D01*
X121761161Y-131963685D01*
X122091199Y-132142335D01*
X122821449Y-132834280D01*
X122901816Y-133533046D01*
X142563995Y-138801511D01*
X142566854Y-138800304D01*
X143204273Y-138486195D01*
X143298106Y-138120590D01*
X143069272Y-137609412D01*
X142873276Y-136822552D01*
X142998584Y-136311425D01*
X143013300Y-136123964D01*
X118321363Y-129507779D01*
X117889354Y-129971360D01*
X117144653Y-130157668D01*
X116259126Y-130219222D01*
X115706370Y-130131729D01*
X115115617Y-129799440D01*
X114719127Y-129531291D01*
X114027147Y-128845742D01*
X113910155Y-128257935D01*
X114288242Y-127733979D01*
X115093939Y-127595850D01*
X116414186Y-127830370D01*
X116529927Y-127860886D01*
X117606160Y-128319945D01*
X118215135Y-128913109D01*
X118321363Y-129507779D01*
X143013300Y-136123964D01*
X143048228Y-135679035D01*
X142622907Y-135020274D01*
X142147507Y-134298382D01*
X142029754Y-133719486D01*
X141858846Y-133200829D01*
X141264954Y-132620781D01*
X141234177Y-132599532D01*
X140611576Y-132095298D01*
X140370975Y-131735888D01*
X140372965Y-131724530D01*
X140137648Y-131395898D01*
X139430239Y-130779124D01*
X138371712Y-129968277D01*
X137083040Y-129057428D01*
X136124023Y-128420530D01*
X135178060Y-127899062D01*
X133893520Y-127300979D01*
X132919989Y-126901326D01*
X130823554Y-126097969D01*
X132186823Y-121946713D01*
X133392079Y-118276617D01*
X132736420Y-118100934D01*
X132098199Y-119776738D01*
X131746040Y-120757776D01*
X131247277Y-122221225D01*
X130665923Y-123976104D01*
X130065994Y-125831437D01*
X130013692Y-125995515D01*
X129447105Y-127695514D01*
X128912179Y-129157461D01*
X128462057Y-130245689D01*
X128149882Y-130824535D01*
X128103924Y-130870824D01*
X127373315Y-131033228D01*
X126417337Y-130847161D01*
X125572876Y-130390389D01*
X125427891Y-130253106D01*
X125287988Y-129658757D01*
X125355841Y-128443601D01*
X125623046Y-126658457D01*
X126081198Y-124354147D01*
X126721892Y-121581489D01*
X127135391Y-119928551D01*
X127923098Y-116852614D01*
X130329759Y-117476774D01*
X132736420Y-118100934D01*
X133392079Y-118276617D01*
X133550092Y-117795459D01*
X135402554Y-116725938D01*
X137066351Y-115405893D01*
X138183836Y-113765040D01*
X138757545Y-111925935D01*
X138790014Y-110011134D01*
X138283783Y-108143194D01*
X138266742Y-108115427D01*
X132146377Y-106475480D01*
X131874035Y-107268784D01*
X131137112Y-108033142D01*
X130528258Y-108387638D01*
X129565232Y-108794267D01*
X128948218Y-108873229D01*
X128404390Y-108635747D01*
X128186393Y-108483973D01*
X127816093Y-107868963D01*
X127979192Y-107099101D01*
X128572731Y-106324261D01*
X129493750Y-105694309D01*
X130293831Y-105416344D01*
X131344485Y-105399816D01*
X131965930Y-105802676D01*
X132146377Y-106475480D01*
X138266742Y-108115427D01*
X137241386Y-106444672D01*
X135665363Y-105038123D01*
X135154159Y-104727363D01*
X133222581Y-103993093D01*
X131332030Y-103880504D01*
G37*
X131332030Y-103880504D02*
X129558512Y-104306587D01*
X127978033Y-105188336D01*
X126666601Y-106442741D01*
X125700222Y-107986797D01*
X125154903Y-109737496D01*
X125106649Y-111611829D01*
X125631469Y-113526790D01*
X126172270Y-114536571D01*
X127076583Y-115955434D01*
X126154746Y-120255934D01*
X125232909Y-124556434D01*
X122608757Y-124272552D01*
X120552431Y-124061528D01*
X119065409Y-123942016D01*
X118017859Y-123910565D01*
X117279950Y-123963722D01*
X116721850Y-124098036D01*
X116673860Y-124114750D01*
X115815372Y-124282586D01*
X115324409Y-124250868D01*
X114628669Y-124318186D01*
X113972155Y-124618977D01*
X113261039Y-124973985D01*
X112834071Y-125044473D01*
X112271835Y-125154517D01*
X111443128Y-125576090D01*
X110567919Y-126160446D01*
X109866179Y-126758839D01*
X109557882Y-127222524D01*
X109557551Y-127260084D01*
X109324819Y-127826800D01*
X109012094Y-128055841D01*
X108373508Y-128619850D01*
X108378499Y-129329463D01*
X108662791Y-129716848D01*
X108956325Y-130164956D01*
X108638706Y-130562246D01*
X108563409Y-130616771D01*
X108064052Y-131259489D01*
X108237553Y-131934178D01*
X109051526Y-132547481D01*
X109750764Y-133060766D01*
X109906246Y-133772381D01*
X109880596Y-134000340D01*
X109873257Y-134644291D01*
X110193062Y-135095261D01*
X110996124Y-135547404D01*
X111201019Y-135642514D01*
X112448392Y-136437726D01*
X113060380Y-137335896D01*
X113351146Y-137915242D01*
X113799588Y-138312342D01*
X114591469Y-138641504D01*
X115700679Y-138960586D01*
X117136501Y-139414777D01*
X118021575Y-139883742D01*
X118439227Y-140326530D01*
X119179626Y-140982344D01*
X120383901Y-141354408D01*
X122730182Y-141846618D01*
X124626053Y-142380947D01*
X125877365Y-142887444D01*
X126847957Y-143218612D01*
X127653495Y-143275266D01*
X128434405Y-143063534D01*
X128790967Y-142858934D01*
X129273658Y-142791186D01*
X130232657Y-142908333D01*
X131470435Y-143186088D01*
X131486523Y-143190390D01*
X132754886Y-143508652D01*
X133536957Y-143615650D01*
X134021505Y-143505303D01*
X134397301Y-143171536D01*
X134461946Y-143094571D01*
X135012909Y-142650175D01*
X135818659Y-142495428D01*
X136881514Y-142554329D01*
X137971187Y-142630730D01*
X138579603Y-142517009D01*
X138921035Y-142141572D01*
X139061517Y-141825949D01*
X139502737Y-141154850D01*
X140246736Y-140966948D01*
X140507595Y-140976110D01*
X141486542Y-140853239D01*
X142008704Y-140410157D01*
X122585153Y-135205632D01*
X122259235Y-135485170D01*
X121940065Y-135675834D01*
X121059491Y-135855381D01*
X119914269Y-135694358D01*
X118815935Y-135259405D01*
X118315090Y-134900373D01*
X117841443Y-134311913D01*
X117929090Y-134054045D01*
X118489238Y-134183145D01*
X119004161Y-134462877D01*
X120393030Y-135035168D01*
X121389461Y-135102017D01*
X122312642Y-135096061D01*
X122585153Y-135205632D01*
X142008704Y-140410157D01*
X142013575Y-140406025D01*
X141970798Y-139742085D01*
X141934136Y-139673930D01*
X141885999Y-139231732D01*
X142417887Y-138863200D01*
X142563995Y-138801511D01*
X122901816Y-133533046D01*
X122353343Y-134087942D01*
X121793185Y-134276811D01*
X120494492Y-134355923D01*
X119381999Y-133908035D01*
X118886874Y-133539300D01*
X118333482Y-132842640D01*
X118359369Y-132247101D01*
X118839807Y-131807060D01*
X119163761Y-131715036D01*
X117715848Y-131327068D01*
X117304008Y-131525023D01*
X117250630Y-131546185D01*
X116103399Y-131679505D01*
X114859086Y-131370805D01*
X113877320Y-130715856D01*
X113801516Y-130627682D01*
X113513971Y-130225075D01*
X113659106Y-130187858D01*
X114327498Y-130502110D01*
X114395298Y-130536442D01*
X115580911Y-130963440D01*
X116782020Y-131170277D01*
X117565759Y-131227998D01*
X117715848Y-131327068D01*
X119163761Y-131715036D01*
X119650069Y-131576892D01*
X120665430Y-131610975D01*
X121761161Y-131963685D01*
X122091199Y-132142335D01*
X122821449Y-132834280D01*
X122901816Y-133533046D01*
X142563995Y-138801511D01*
X142566854Y-138800304D01*
X143204273Y-138486195D01*
X143298106Y-138120590D01*
X143069272Y-137609412D01*
X142873276Y-136822552D01*
X142998584Y-136311425D01*
X143013300Y-136123964D01*
X118321363Y-129507779D01*
X117889354Y-129971360D01*
X117144653Y-130157668D01*
X116259126Y-130219222D01*
X115706370Y-130131729D01*
X115115617Y-129799440D01*
X114719127Y-129531291D01*
X114027147Y-128845742D01*
X113910155Y-128257935D01*
X114288242Y-127733979D01*
X115093939Y-127595850D01*
X116414186Y-127830370D01*
X116529927Y-127860886D01*
X117606160Y-128319945D01*
X118215135Y-128913109D01*
X118321363Y-129507779D01*
X143013300Y-136123964D01*
X143048228Y-135679035D01*
X142622907Y-135020274D01*
X142147507Y-134298382D01*
X142029754Y-133719486D01*
X141858846Y-133200829D01*
X141264954Y-132620781D01*
X141234177Y-132599532D01*
X140611576Y-132095298D01*
X140370975Y-131735888D01*
X140372965Y-131724530D01*
X140137648Y-131395898D01*
X139430239Y-130779124D01*
X138371712Y-129968277D01*
X137083040Y-129057428D01*
X136124023Y-128420530D01*
X135178060Y-127899062D01*
X133893520Y-127300979D01*
X132919989Y-126901326D01*
X130823554Y-126097969D01*
X132186823Y-121946713D01*
X133392079Y-118276617D01*
X132736420Y-118100934D01*
X132098199Y-119776738D01*
X131746040Y-120757776D01*
X131247277Y-122221225D01*
X130665923Y-123976104D01*
X130065994Y-125831437D01*
X130013692Y-125995515D01*
X129447105Y-127695514D01*
X128912179Y-129157461D01*
X128462057Y-130245689D01*
X128149882Y-130824535D01*
X128103924Y-130870824D01*
X127373315Y-131033228D01*
X126417337Y-130847161D01*
X125572876Y-130390389D01*
X125427891Y-130253106D01*
X125287988Y-129658757D01*
X125355841Y-128443601D01*
X125623046Y-126658457D01*
X126081198Y-124354147D01*
X126721892Y-121581489D01*
X127135391Y-119928551D01*
X127923098Y-116852614D01*
X130329759Y-117476774D01*
X132736420Y-118100934D01*
X133392079Y-118276617D01*
X133550092Y-117795459D01*
X135402554Y-116725938D01*
X137066351Y-115405893D01*
X138183836Y-113765040D01*
X138757545Y-111925935D01*
X138790014Y-110011134D01*
X138283783Y-108143194D01*
X138266742Y-108115427D01*
X132146377Y-106475480D01*
X131874035Y-107268784D01*
X131137112Y-108033142D01*
X130528258Y-108387638D01*
X129565232Y-108794267D01*
X128948218Y-108873229D01*
X128404390Y-108635747D01*
X128186393Y-108483973D01*
X127816093Y-107868963D01*
X127979192Y-107099101D01*
X128572731Y-106324261D01*
X129493750Y-105694309D01*
X130293831Y-105416344D01*
X131344485Y-105399816D01*
X131965930Y-105802676D01*
X132146377Y-106475480D01*
X138266742Y-108115427D01*
X137241386Y-106444672D01*
X135665363Y-105038123D01*
X135154159Y-104727363D01*
X133222581Y-103993093D01*
X131332030Y-103880504D01*
G36*
X109155137Y-135342157D02*
G01*
X109180750Y-135618893D01*
X109261172Y-136370341D01*
X109370123Y-137504530D01*
X109432512Y-138194092D01*
X109673019Y-140754448D01*
X109903810Y-142728171D01*
X110155012Y-144233050D01*
X110456747Y-145386882D01*
X110839146Y-146307460D01*
X111332331Y-147112577D01*
X111899546Y-147840285D01*
X113136258Y-149152097D01*
X114486147Y-150189694D01*
X116119453Y-151052611D01*
X118206412Y-151840383D01*
X119363479Y-152204285D01*
X121073382Y-152681950D01*
X122716278Y-153076754D01*
X124066711Y-153337660D01*
X124700704Y-153412432D01*
X127039554Y-153326072D01*
X129361750Y-152855815D01*
X131507900Y-152064225D01*
X133318611Y-151013869D01*
X134634490Y-149767315D01*
X134876231Y-149418253D01*
X135362510Y-148682275D01*
X136123173Y-147585175D01*
X137014168Y-146333915D01*
X137246996Y-146012183D01*
X138210372Y-144672501D01*
X138790294Y-143808488D01*
X139024444Y-143329728D01*
X138950502Y-143145802D01*
X138606152Y-143166295D01*
X138415636Y-143208078D01*
X137499532Y-143250435D01*
X136693213Y-143124629D01*
X135570579Y-143153741D01*
X134500449Y-143682365D01*
X133725973Y-144145820D01*
X133097630Y-144281592D01*
X132318574Y-144103886D01*
X131578676Y-143822184D01*
X130366902Y-143421549D01*
X129408201Y-143359493D01*
X128533759Y-143549283D01*
X127496184Y-143754200D01*
X126540344Y-143621468D01*
X125655969Y-143282496D01*
X124257359Y-142712944D01*
X123014880Y-142338129D01*
X121592632Y-142068360D01*
X120587134Y-141929060D01*
X119418418Y-141724935D01*
X118687912Y-141408164D01*
X118128388Y-140853078D01*
X118032226Y-140727544D01*
X117472937Y-140120965D01*
X116776065Y-139761633D01*
X115680494Y-139525084D01*
X115430277Y-139487320D01*
X114319488Y-139293197D01*
X113668707Y-139024011D01*
X113236594Y-138527777D01*
X112900440Y-137894136D01*
X112103397Y-136770389D01*
X111280617Y-136315344D01*
X110321777Y-135912591D01*
X109702971Y-135484905D01*
X109260067Y-135135097D01*
X109155137Y-135342157D01*
G37*
X109155137Y-135342157D02*
X109180750Y-135618893D01*
X109261172Y-136370341D01*
X109370123Y-137504530D01*
X109432512Y-138194092D01*
X109673019Y-140754448D01*
X109903810Y-142728171D01*
X110155012Y-144233050D01*
X110456747Y-145386882D01*
X110839146Y-146307460D01*
X111332331Y-147112577D01*
X111899546Y-147840285D01*
X113136258Y-149152097D01*
X114486147Y-150189694D01*
X116119453Y-151052611D01*
X118206412Y-151840383D01*
X119363479Y-152204285D01*
X121073382Y-152681950D01*
X122716278Y-153076754D01*
X124066711Y-153337660D01*
X124700704Y-153412432D01*
X127039554Y-153326072D01*
X129361750Y-152855815D01*
X131507900Y-152064225D01*
X133318611Y-151013869D01*
X134634490Y-149767315D01*
X134876231Y-149418253D01*
X135362510Y-148682275D01*
X136123173Y-147585175D01*
X137014168Y-146333915D01*
X137246996Y-146012183D01*
X138210372Y-144672501D01*
X138790294Y-143808488D01*
X139024444Y-143329728D01*
X138950502Y-143145802D01*
X138606152Y-143166295D01*
X138415636Y-143208078D01*
X137499532Y-143250435D01*
X136693213Y-143124629D01*
X135570579Y-143153741D01*
X134500449Y-143682365D01*
X133725973Y-144145820D01*
X133097630Y-144281592D01*
X132318574Y-144103886D01*
X131578676Y-143822184D01*
X130366902Y-143421549D01*
X129408201Y-143359493D01*
X128533759Y-143549283D01*
X127496184Y-143754200D01*
X126540344Y-143621468D01*
X125655969Y-143282496D01*
X124257359Y-142712944D01*
X123014880Y-142338129D01*
X121592632Y-142068360D01*
X120587134Y-141929060D01*
X119418418Y-141724935D01*
X118687912Y-141408164D01*
X118128388Y-140853078D01*
X118032226Y-140727544D01*
X117472937Y-140120965D01*
X116776065Y-139761633D01*
X115680494Y-139525084D01*
X115430277Y-139487320D01*
X114319488Y-139293197D01*
X113668707Y-139024011D01*
X113236594Y-138527777D01*
X112900440Y-137894136D01*
X112103397Y-136770389D01*
X111280617Y-136315344D01*
X110321777Y-135912591D01*
X109702971Y-135484905D01*
X109260067Y-135135097D01*
X109155137Y-135342157D01*
G36*
X88347220Y-114380002D02*
G01*
X88378032Y-114460483D01*
X88564585Y-114566186D01*
X88631920Y-114591700D01*
X88817429Y-114664815D01*
X89124472Y-114794470D01*
X89520663Y-114966617D01*
X89973616Y-115167213D01*
X90369328Y-115345184D01*
X91192744Y-115708497D01*
X91894270Y-115994030D01*
X92498891Y-116208268D01*
X93031598Y-116357698D01*
X93517376Y-116448806D01*
X93981213Y-116488076D01*
X94448096Y-116481994D01*
X94682489Y-116464701D01*
X95193123Y-116396503D01*
X95633133Y-116280299D01*
X96016349Y-116128964D01*
X96554199Y-115839947D01*
X97140144Y-115434274D01*
X97736338Y-114941192D01*
X98304933Y-114389949D01*
X98404583Y-114283378D01*
X98630103Y-114020359D01*
X98774471Y-113817858D01*
X98834363Y-113691537D01*
X98806455Y-113657057D01*
X98687421Y-113730075D01*
X98482142Y-113918033D01*
X97875789Y-114511786D01*
X97356629Y-114989812D01*
X96903951Y-115366881D01*
X96497043Y-115657766D01*
X96115192Y-115877240D01*
X95737685Y-116040072D01*
X95343811Y-116161034D01*
X95333241Y-116163735D01*
X94853738Y-116261767D01*
X94377802Y-116304607D01*
X93885069Y-116287760D01*
X93355178Y-116206734D01*
X92767767Y-116057035D01*
X92102473Y-115834171D01*
X91338936Y-115533648D01*
X90456793Y-115150973D01*
X90183134Y-115027293D01*
X89748640Y-114832517D01*
X89342019Y-114655707D01*
X89000733Y-114512770D01*
X88762248Y-114419613D01*
X88709348Y-114401507D01*
X88461283Y-114351443D01*
X88347220Y-114380002D01*
G37*
X88347220Y-114380002D02*
X88378032Y-114460483D01*
X88564585Y-114566186D01*
X88631920Y-114591700D01*
X88817429Y-114664815D01*
X89124472Y-114794470D01*
X89520663Y-114966617D01*
X89973616Y-115167213D01*
X90369328Y-115345184D01*
X91192744Y-115708497D01*
X91894270Y-115994030D01*
X92498891Y-116208268D01*
X93031598Y-116357698D01*
X93517376Y-116448806D01*
X93981213Y-116488076D01*
X94448096Y-116481994D01*
X94682489Y-116464701D01*
X95193123Y-116396503D01*
X95633133Y-116280299D01*
X96016349Y-116128964D01*
X96554199Y-115839947D01*
X97140144Y-115434274D01*
X97736338Y-114941192D01*
X98304933Y-114389949D01*
X98404583Y-114283378D01*
X98630103Y-114020359D01*
X98774471Y-113817858D01*
X98834363Y-113691537D01*
X98806455Y-113657057D01*
X98687421Y-113730075D01*
X98482142Y-113918033D01*
X97875789Y-114511786D01*
X97356629Y-114989812D01*
X96903951Y-115366881D01*
X96497043Y-115657766D01*
X96115192Y-115877240D01*
X95737685Y-116040072D01*
X95343811Y-116161034D01*
X95333241Y-116163735D01*
X94853738Y-116261767D01*
X94377802Y-116304607D01*
X93885069Y-116287760D01*
X93355178Y-116206734D01*
X92767767Y-116057035D01*
X92102473Y-115834171D01*
X91338936Y-115533648D01*
X90456793Y-115150973D01*
X90183134Y-115027293D01*
X89748640Y-114832517D01*
X89342019Y-114655707D01*
X89000733Y-114512770D01*
X88762248Y-114419613D01*
X88709348Y-114401507D01*
X88461283Y-114351443D01*
X88347220Y-114380002D01*
G36*
X89116068Y-97294042D02*
G01*
X88381536Y-97399276D01*
X87744699Y-97534632D01*
X87169848Y-97710855D01*
X86621275Y-97938692D01*
X86063270Y-98228894D01*
X85528465Y-98549155D01*
X84833329Y-99070220D01*
X84172691Y-99729785D01*
X83570655Y-100497334D01*
X83051321Y-101342356D01*
X82659704Y-102181031D01*
X82449194Y-102809402D01*
X82258106Y-103570462D01*
X82092491Y-104428094D01*
X81958400Y-105346182D01*
X81861886Y-106288611D01*
X81808998Y-107219264D01*
X81807545Y-107266991D01*
X81808066Y-107540535D01*
X81820058Y-107959240D01*
X81842332Y-108499406D01*
X81873704Y-109137336D01*
X81912983Y-109849332D01*
X81958983Y-110611694D01*
X82010518Y-111400723D01*
X82025894Y-111624878D01*
X82090427Y-112569431D01*
X82141178Y-113365294D01*
X82177224Y-114032624D01*
X82197649Y-114591572D01*
X82201532Y-115062294D01*
X82187956Y-115464946D01*
X82156002Y-115819681D01*
X82104750Y-116146652D01*
X82033283Y-116466016D01*
X81940680Y-116797926D01*
X81826025Y-117162537D01*
X81764960Y-117348804D01*
X81604129Y-117808242D01*
X81425096Y-118258894D01*
X81217982Y-118718509D01*
X80972909Y-119204836D01*
X80679997Y-119735618D01*
X80329368Y-120328606D01*
X79911145Y-121001544D01*
X79415447Y-121772183D01*
X78832398Y-122658267D01*
X78691715Y-122870022D01*
X77912765Y-124063694D01*
X77233580Y-125156301D01*
X76640736Y-126172728D01*
X76120815Y-127137860D01*
X75660393Y-128076580D01*
X75246055Y-129013775D01*
X74874031Y-129948758D01*
X74321455Y-131599530D01*
X73930809Y-133201695D01*
X73702052Y-134756032D01*
X73635141Y-136263319D01*
X73730036Y-137724331D01*
X73986693Y-139139845D01*
X74317294Y-140265616D01*
X74626996Y-141159696D01*
X74323687Y-141329712D01*
X73942456Y-141616682D01*
X73579147Y-142021662D01*
X73273352Y-142494723D01*
X73104422Y-142867289D01*
X73019002Y-143150131D01*
X72920541Y-143554650D01*
X72819153Y-144034778D01*
X72724952Y-144544448D01*
X72690497Y-144752877D01*
X72580822Y-145394914D01*
X72470210Y-145909850D01*
X72343135Y-146339290D01*
X72184078Y-146724836D01*
X71977511Y-147108091D01*
X71707914Y-147530661D01*
X71588604Y-147705996D01*
X71096306Y-148503877D01*
X70760751Y-149240427D01*
X70581764Y-149917972D01*
X70559178Y-150538837D01*
X70692821Y-151105345D01*
X70982520Y-151619824D01*
X71276041Y-151948305D01*
X71492563Y-152135177D01*
X71753620Y-152318441D01*
X72078744Y-152507977D01*
X72487468Y-152713665D01*
X72999327Y-152945385D01*
X73633855Y-153213016D01*
X74343467Y-153499731D01*
X75119422Y-153812647D01*
X75764788Y-154084650D01*
X76308247Y-154332339D01*
X76778478Y-154572307D01*
X77204162Y-154821149D01*
X77613979Y-155095463D01*
X78036612Y-155411842D01*
X78500740Y-155786883D01*
X78951544Y-156166097D01*
X79757257Y-156826314D01*
X80486196Y-157365944D01*
X81164619Y-157798786D01*
X81818777Y-158138638D01*
X82474926Y-158399299D01*
X83159322Y-158594565D01*
X83822480Y-158726020D01*
X84485590Y-158784225D01*
X85204221Y-158761696D01*
X85903393Y-158664090D01*
X86413671Y-158530627D01*
X87079639Y-158227776D01*
X87718112Y-157790643D01*
X88301347Y-157249188D01*
X88801605Y-156633375D01*
X89191142Y-155973161D01*
X89442219Y-155298509D01*
X89455291Y-155245659D01*
X89550708Y-154844324D01*
X90787720Y-154689282D01*
X91372972Y-154604130D01*
X92036372Y-154488911D01*
X92693951Y-154359136D01*
X93231161Y-154237880D01*
X93987227Y-154065827D01*
X94698883Y-153936152D01*
X95397101Y-153847424D01*
X96112850Y-153798208D01*
X96877103Y-153787074D01*
X97720829Y-153812587D01*
X98675000Y-153873317D01*
X99537400Y-153946176D01*
X100043581Y-153990399D01*
X100529516Y-154029218D01*
X100952884Y-154059511D01*
X101271359Y-154078149D01*
X101378705Y-154082137D01*
X101654491Y-154096586D01*
X101824601Y-154146153D01*
X101952684Y-154264078D01*
X102079408Y-154448060D01*
X102262301Y-154678554D01*
X102527619Y-154951806D01*
X102820408Y-155211565D01*
X102843028Y-155229803D01*
X103545509Y-155684848D01*
X104335774Y-156003025D01*
X105203258Y-156185307D01*
X106137395Y-156232669D01*
X107127619Y-156146087D01*
X108163366Y-155926535D01*
X109234069Y-155574988D01*
X110329161Y-155092422D01*
X111438080Y-154479810D01*
X111520894Y-154429030D01*
X111982261Y-154157875D01*
X112439886Y-153921038D01*
X112918624Y-153710046D01*
X113443330Y-153516426D01*
X114038858Y-153331708D01*
X114730064Y-153147419D01*
X115541803Y-152955088D01*
X116389966Y-152769389D01*
X116955172Y-152644854D01*
X117508657Y-152515444D01*
X118012368Y-152390604D01*
X118428252Y-152279783D01*
X118718252Y-152192428D01*
X118729640Y-152188545D01*
X119456835Y-151884526D01*
X120031103Y-151522294D01*
X120461144Y-151094123D01*
X120755663Y-150592284D01*
X120858468Y-150298501D01*
X120934170Y-149778118D01*
X120915481Y-149388026D01*
X120089354Y-149460303D01*
X120060131Y-149995478D01*
X119987091Y-150263170D01*
X119866860Y-150505355D01*
X119691869Y-150722111D01*
X119447166Y-150920136D01*
X119117795Y-151106135D01*
X118688800Y-151286809D01*
X118145227Y-151468860D01*
X117472121Y-151658990D01*
X116654528Y-151863903D01*
X116151122Y-151982266D01*
X115310338Y-152178782D01*
X114607763Y-152350087D01*
X114015920Y-152505898D01*
X113507325Y-152655937D01*
X113054500Y-152809922D01*
X112629963Y-152977574D01*
X112206233Y-153168611D01*
X111755831Y-153392753D01*
X111251275Y-153659720D01*
X110957457Y-153819199D01*
X110117117Y-154262817D01*
X109381822Y-154615040D01*
X108721143Y-154886060D01*
X108104650Y-155086067D01*
X107501911Y-155225253D01*
X106882497Y-155313810D01*
X106374779Y-155353922D01*
X105815068Y-155374528D01*
X105373367Y-155363135D01*
X105000949Y-155317285D01*
X104800107Y-155274576D01*
X104035629Y-155012000D01*
X103387378Y-154628270D01*
X102860289Y-154128639D01*
X102459295Y-153518360D01*
X102251628Y-152967832D01*
X88754709Y-154148660D01*
X88774728Y-154466425D01*
X88770693Y-154703536D01*
X88739067Y-154903908D01*
X88676310Y-155111453D01*
X88580443Y-155366072D01*
X88349328Y-155839233D01*
X88028851Y-156329812D01*
X87655419Y-156792336D01*
X87265440Y-157181333D01*
X86924117Y-157434725D01*
X86214112Y-157770176D01*
X85458114Y-157957231D01*
X84632497Y-158001026D01*
X84380319Y-157987931D01*
X83672208Y-157902074D01*
X83003205Y-157744016D01*
X82347687Y-157501792D01*
X81680027Y-157163436D01*
X80974602Y-156716982D01*
X80205787Y-156150464D01*
X79864463Y-155879224D01*
X79182856Y-155332768D01*
X78600735Y-154880545D01*
X78089956Y-154505501D01*
X77622378Y-154190582D01*
X77169857Y-153918733D01*
X76704252Y-153672902D01*
X76197420Y-153436032D01*
X75621217Y-153191071D01*
X75048642Y-152960889D01*
X74243966Y-152633388D01*
X73522739Y-152321346D01*
X72903013Y-152033261D01*
X72402846Y-151777633D01*
X72040295Y-151562960D01*
X71960329Y-151507276D01*
X71723460Y-151280233D01*
X71517221Y-150996620D01*
X71476310Y-150920573D01*
X71362567Y-150597049D01*
X71333470Y-150249096D01*
X71394474Y-149857747D01*
X71551030Y-149404036D01*
X71808596Y-148869000D01*
X72172623Y-148233672D01*
X72316139Y-148000224D01*
X72571148Y-147580718D01*
X72775043Y-147212998D01*
X72939677Y-146863456D01*
X73076899Y-146498487D01*
X73198560Y-146084483D01*
X73316506Y-145587839D01*
X73442592Y-144974949D01*
X73515198Y-144599711D01*
X73637661Y-143987583D01*
X73747672Y-143514255D01*
X73855358Y-143150707D01*
X73970849Y-142867918D01*
X74104272Y-142636869D01*
X74265754Y-142428535D01*
X74277673Y-142414848D01*
X74697495Y-142041576D01*
X75218013Y-141774401D01*
X75859524Y-141603729D01*
X76059952Y-141572422D01*
X76419881Y-141528098D01*
X76661546Y-141516336D01*
X76833539Y-141540869D01*
X76984457Y-141605433D01*
X77059572Y-141649230D01*
X77874824Y-142127125D01*
X78585377Y-142499438D01*
X79212544Y-142773707D01*
X79777638Y-142957467D01*
X80301967Y-143058256D01*
X80806845Y-143083610D01*
X81074423Y-143068985D01*
X81539949Y-142997542D01*
X81910022Y-142857849D01*
X82239939Y-142620533D01*
X82568754Y-142275317D01*
X83018610Y-141623865D01*
X83335174Y-140892308D01*
X83501554Y-140121039D01*
X83511128Y-140021702D01*
X83553412Y-139693451D01*
X83627140Y-139502893D01*
X83751267Y-139446743D01*
X83944741Y-139521716D01*
X84226515Y-139724526D01*
X84400197Y-139867582D01*
X84724591Y-140181917D01*
X85010519Y-140553466D01*
X85264636Y-140999194D01*
X85493598Y-141536066D01*
X85704057Y-142181046D01*
X85902668Y-142951100D01*
X86096085Y-143863194D01*
X86213125Y-144489663D01*
X86527581Y-146059694D01*
X86887760Y-147525849D01*
X87287459Y-148864447D01*
X87568298Y-149662302D01*
X87859704Y-150443848D01*
X88094162Y-151094333D01*
X88278934Y-151639386D01*
X88421280Y-152104635D01*
X88528464Y-152515707D01*
X88607746Y-152898232D01*
X88666387Y-153277835D01*
X88711651Y-153680145D01*
X88714174Y-153706328D01*
X88754709Y-154148660D01*
X102251628Y-152967832D01*
X102189331Y-152802683D01*
X102104826Y-152405733D01*
X102060626Y-152059374D01*
X102060299Y-151758799D01*
X102108024Y-151428674D01*
X102175861Y-151124667D01*
X102259706Y-150796475D01*
X102351055Y-150491061D01*
X102459303Y-150190765D01*
X102593843Y-149877924D01*
X102764072Y-149534879D01*
X102979385Y-149143967D01*
X103249177Y-148687529D01*
X103582842Y-148147902D01*
X103989776Y-147507426D01*
X104479373Y-146748439D01*
X104615484Y-146538575D01*
X105076899Y-145808423D01*
X105463625Y-145147503D01*
X105802883Y-144502888D01*
X106121897Y-143821659D01*
X106447888Y-143050890D01*
X106583917Y-142711764D01*
X107072460Y-141532875D01*
X107542150Y-140513468D01*
X107999061Y-139645540D01*
X108449262Y-138921084D01*
X108898825Y-138332095D01*
X109353821Y-137870568D01*
X109820324Y-137528496D01*
X110304403Y-137297874D01*
X110782915Y-137175231D01*
X111195355Y-137139034D01*
X111577647Y-137177843D01*
X111951210Y-137303361D01*
X112337463Y-137527293D01*
X112757825Y-137861342D01*
X113233713Y-138317215D01*
X113622066Y-138726694D01*
X113942382Y-139063425D01*
X114263997Y-139383506D01*
X114548248Y-139649466D01*
X114746503Y-139816398D01*
X115086691Y-140024047D01*
X115586701Y-140255902D01*
X116239226Y-140508972D01*
X117036956Y-140780265D01*
X117322863Y-140870801D01*
X117908649Y-141111808D01*
X118412965Y-141435134D01*
X118800379Y-141815898D01*
X118924849Y-141995509D01*
X119038423Y-142238196D01*
X119124173Y-142549794D01*
X119184029Y-142949624D01*
X119219920Y-143457009D01*
X119233776Y-144091270D01*
X119227527Y-144871728D01*
X119225006Y-145001101D01*
X119216209Y-145471131D01*
X119216234Y-145843864D01*
X119231714Y-146155349D01*
X119269281Y-146441641D01*
X119335567Y-146738792D01*
X119437205Y-147082852D01*
X119580827Y-147509873D01*
X119773067Y-148055908D01*
X119802056Y-148137744D01*
X120002774Y-148834675D01*
X120089354Y-149460303D01*
X120915481Y-149388026D01*
X120904564Y-149160168D01*
X120774077Y-148476042D01*
X120547143Y-147757131D01*
X120473176Y-147569088D01*
X120247542Y-146928796D01*
X120105133Y-146290760D01*
X120039037Y-145605912D01*
X120042347Y-144825183D01*
X120054141Y-144593330D01*
X120083641Y-143740158D01*
X120058438Y-143026220D01*
X119972537Y-142428571D01*
X119819937Y-141924267D01*
X119594641Y-141490365D01*
X119290650Y-141103919D01*
X119090039Y-140905400D01*
X118728426Y-140616875D01*
X118308201Y-140371584D01*
X117797774Y-140155042D01*
X117165553Y-139952759D01*
X116794143Y-139852501D01*
X116204041Y-139680944D01*
X115732454Y-139489044D01*
X115328864Y-139246412D01*
X114942749Y-138922658D01*
X114523589Y-138487393D01*
X114522198Y-138485852D01*
X114214451Y-138149257D01*
X113900684Y-137813318D01*
X113625706Y-137525686D01*
X113490141Y-137388337D01*
X113098024Y-136999744D01*
X112955453Y-135437849D01*
X112897637Y-134837687D01*
X112842596Y-134362259D01*
X112782471Y-133967300D01*
X112709405Y-133608544D01*
X112615537Y-133241727D01*
X112493011Y-132822584D01*
X112488533Y-132807822D01*
X112325924Y-132346240D01*
X108885586Y-132647231D01*
X108931585Y-133174605D01*
X108956925Y-133574185D01*
X108961177Y-133886296D01*
X108943915Y-134151264D01*
X108904708Y-134409417D01*
X108864820Y-134603819D01*
X108663453Y-135340525D01*
X108387499Y-136019018D01*
X108021910Y-136660398D01*
X107551645Y-137285766D01*
X106961659Y-137916222D01*
X106236911Y-138572865D01*
X105749113Y-138973844D01*
X104704119Y-139845427D01*
X103810878Y-140672781D01*
X103060797Y-141466108D01*
X102445287Y-142235614D01*
X101955754Y-142991502D01*
X101583607Y-143743977D01*
X101456485Y-144071974D01*
X101324842Y-144595248D01*
X101289120Y-145122072D01*
X101347307Y-145606854D01*
X101497390Y-146004000D01*
X101545092Y-146078715D01*
X101881041Y-146409029D01*
X102348779Y-146640816D01*
X102939341Y-146769692D01*
X102963508Y-146772439D01*
X103452366Y-146826305D01*
X103055602Y-147424537D01*
X102807452Y-147809031D01*
X102538802Y-148241196D01*
X102308604Y-148626128D01*
X102116718Y-148943439D01*
X101941461Y-149187698D01*
X101747880Y-149392276D01*
X101501026Y-149590544D01*
X101165946Y-149815874D01*
X100864635Y-150004820D01*
X99885880Y-150546642D01*
X98869939Y-150974876D01*
X98274846Y-151172404D01*
X97684326Y-151314649D01*
X96975218Y-151425283D01*
X96195833Y-151501293D01*
X95394484Y-151539664D01*
X94619483Y-151537384D01*
X93919143Y-151491439D01*
X93668027Y-151459759D01*
X93193697Y-151380108D01*
X92686616Y-151279924D01*
X92228327Y-151175834D01*
X92055317Y-151130933D01*
X91505374Y-150964569D01*
X90931765Y-150764398D01*
X90358554Y-150541544D01*
X89809801Y-150307132D01*
X89309570Y-150072284D01*
X88881919Y-149848122D01*
X88550914Y-149645771D01*
X88340613Y-149476353D01*
X88278636Y-149385028D01*
X88229782Y-149241129D01*
X88135812Y-148972169D01*
X88008810Y-148612469D01*
X87860859Y-148196351D01*
X87807627Y-148047265D01*
X87652284Y-147598481D01*
X87527074Y-147196240D01*
X87421786Y-146797935D01*
X87326206Y-146360955D01*
X87230120Y-145842693D01*
X87123319Y-145200539D01*
X87119267Y-145175331D01*
X86949519Y-144164380D01*
X86787079Y-143301535D01*
X86626049Y-142566086D01*
X86460530Y-141937317D01*
X86284627Y-141394518D01*
X86092440Y-140916977D01*
X85878072Y-140483983D01*
X85692855Y-140165753D01*
X85322550Y-139674016D01*
X84861653Y-139224020D01*
X84360851Y-138860535D01*
X84011426Y-138680597D01*
X83756968Y-138567555D01*
X83599166Y-138460112D01*
X83493676Y-138308535D01*
X83396151Y-138063088D01*
X83355351Y-137944804D01*
X83107951Y-137408463D01*
X82772372Y-137007640D01*
X82333514Y-136725100D01*
X82257235Y-136691602D01*
X82058249Y-136617544D01*
X81872713Y-136578761D01*
X81652963Y-136573258D01*
X81351334Y-136599038D01*
X81025292Y-136640013D01*
X80502727Y-136725392D01*
X80075496Y-136836857D01*
X79669697Y-136994720D01*
X79572884Y-137039136D01*
X78846313Y-137410167D01*
X78171289Y-137812796D01*
X77571032Y-138229878D01*
X77068756Y-138644273D01*
X76687678Y-139038836D01*
X76495308Y-139311546D01*
X76370850Y-139562258D01*
X76315147Y-139793154D01*
X76313697Y-140081974D01*
X76324652Y-140226471D01*
X76346409Y-140516702D01*
X76338866Y-140678491D01*
X76289340Y-140751911D01*
X76185145Y-140777035D01*
X76149308Y-140780445D01*
X75978631Y-140754107D01*
X75864758Y-140622935D01*
X75793544Y-140362795D01*
X75764400Y-140123861D01*
X75787397Y-139617001D01*
X75952631Y-139112685D01*
X76264776Y-138605055D01*
X76728504Y-138088252D01*
X77348486Y-137556416D01*
X78129396Y-137003690D01*
X78382037Y-136841544D01*
X78730416Y-136620527D01*
X78957707Y-136465948D01*
X79086272Y-136354265D01*
X79138469Y-136261933D01*
X79136659Y-136165410D01*
X79112302Y-136072631D01*
X79018679Y-135661532D01*
X78935623Y-135134022D01*
X78868039Y-134542933D01*
X78820835Y-133941092D01*
X78798918Y-133381329D01*
X78807192Y-132916473D01*
X78812473Y-132844538D01*
X79008899Y-131495597D01*
X79366964Y-130132151D01*
X79881540Y-128769075D01*
X80547500Y-127421248D01*
X80876973Y-126853629D01*
X81069021Y-126555693D01*
X81307082Y-126213687D01*
X81570001Y-125854823D01*
X81836624Y-125506313D01*
X82085793Y-125195370D01*
X82296355Y-124949208D01*
X82447152Y-124795038D01*
X82507539Y-124756201D01*
X82587408Y-124802853D01*
X82547029Y-124966245D01*
X82387213Y-125244718D01*
X82108773Y-125636615D01*
X82019080Y-125754249D01*
X81249724Y-126887942D01*
X80610210Y-128118996D01*
X80109216Y-129426486D01*
X79755416Y-130789485D01*
X79633024Y-131509430D01*
X79587299Y-132110131D01*
X79596586Y-132800251D01*
X79655330Y-133523400D01*
X79757973Y-134223189D01*
X79898959Y-134843227D01*
X79989406Y-135125937D01*
X80102553Y-135429450D01*
X80194054Y-135663894D01*
X80248515Y-135790191D01*
X80255480Y-135801284D01*
X80345699Y-135798197D01*
X80560373Y-135769292D01*
X80857615Y-135720416D01*
X80939545Y-135705828D01*
X81595990Y-135587196D01*
X81720082Y-134641449D01*
X81959820Y-133237601D01*
X82321908Y-131736033D01*
X82802084Y-130151464D01*
X83396085Y-128498618D01*
X83764536Y-127578386D01*
X84163863Y-126579125D01*
X84549065Y-125538686D01*
X84931618Y-124423888D01*
X85323000Y-123201553D01*
X85644041Y-122144566D01*
X85797778Y-121611882D01*
X85965593Y-121002394D01*
X86141201Y-120341645D01*
X86318315Y-119655177D01*
X86490652Y-118968533D01*
X86651926Y-118307255D01*
X86795850Y-117696887D01*
X86916140Y-117162968D01*
X87006510Y-116731044D01*
X87060676Y-116426655D01*
X87070765Y-116346656D01*
X87099143Y-116140209D01*
X87130374Y-116028425D01*
X87137590Y-116022097D01*
X87214090Y-116073367D01*
X87367499Y-116206819D01*
X87456423Y-116290049D01*
X87807359Y-116564828D01*
X88278532Y-116846637D01*
X88823677Y-117111666D01*
X89396531Y-117336103D01*
X89641590Y-117414717D01*
X90006591Y-117539749D01*
X90460794Y-117719737D01*
X90944087Y-117929767D01*
X91361246Y-118127374D01*
X92099190Y-118466529D01*
X92750299Y-118700038D01*
X93352372Y-118836888D01*
X93943208Y-118886063D01*
X94466408Y-118865501D01*
X95041803Y-118791584D01*
X95538876Y-118667324D01*
X95990894Y-118474748D01*
X96431126Y-118195880D01*
X96892839Y-117812748D01*
X97409302Y-117307377D01*
X97473468Y-117240861D01*
X97786365Y-116930067D01*
X98134319Y-116607362D01*
X98445767Y-116338957D01*
X98466141Y-116322474D01*
X98952511Y-115931381D01*
X99118781Y-116698960D01*
X99300552Y-117458488D01*
X99521297Y-118228890D01*
X99787194Y-119023944D01*
X100104419Y-119857429D01*
X100479149Y-120743123D01*
X100917563Y-121694804D01*
X101425837Y-122726251D01*
X102010148Y-123851243D01*
X102676672Y-125083558D01*
X103431588Y-126436973D01*
X103684816Y-126883788D01*
X104373749Y-128126194D01*
X104963035Y-129258815D01*
X105461144Y-130302192D01*
X105876543Y-131276870D01*
X106217699Y-132203388D01*
X106493081Y-133102290D01*
X106711157Y-133994117D01*
X106801460Y-134444380D01*
X106880226Y-134859690D01*
X106954900Y-135241827D01*
X107016094Y-135543385D01*
X107049435Y-135696462D01*
X107099424Y-135882217D01*
X107144874Y-135921201D01*
X107216657Y-135832237D01*
X107232287Y-135807950D01*
X107366242Y-135547682D01*
X107520027Y-135170466D01*
X107677615Y-134724847D01*
X107822980Y-134259372D01*
X107940093Y-133822586D01*
X108012929Y-133463032D01*
X108017746Y-133428795D01*
X108052375Y-132909681D01*
X108041136Y-132284045D01*
X107988689Y-131606986D01*
X107899700Y-130933599D01*
X107778831Y-130318980D01*
X107742272Y-130173774D01*
X107547446Y-129532436D01*
X107295520Y-128871357D01*
X106975292Y-128167075D01*
X106575564Y-127396124D01*
X106085137Y-126535044D01*
X105701449Y-125897996D01*
X105399312Y-125398811D01*
X105130339Y-124942164D01*
X104906449Y-124549307D01*
X104739567Y-124241492D01*
X104641614Y-124039970D01*
X104620567Y-123971257D01*
X104671600Y-123977558D01*
X104801324Y-124109351D01*
X104997147Y-124349498D01*
X105246483Y-124680869D01*
X105536741Y-125086326D01*
X105855334Y-125548737D01*
X106189672Y-126050965D01*
X106483356Y-126506645D01*
X107174198Y-127673840D01*
X107781738Y-128859123D01*
X108281622Y-130013772D01*
X108417651Y-130376555D01*
X108556773Y-130775520D01*
X108658768Y-131108959D01*
X108733666Y-131425548D01*
X108791497Y-131773960D01*
X108842293Y-132202872D01*
X108885586Y-132647231D01*
X112325924Y-132346240D01*
X111936245Y-131240095D01*
X111224041Y-129648948D01*
X110350940Y-128032857D01*
X109315961Y-126390300D01*
X108118127Y-124719753D01*
X106756457Y-123019693D01*
X105229971Y-121288597D01*
X104747052Y-120770734D01*
X103907822Y-119847192D01*
X103196880Y-118984206D01*
X102597707Y-118154566D01*
X102093781Y-117331057D01*
X101668580Y-116486468D01*
X101305583Y-115593584D01*
X100988270Y-114625194D01*
X100962381Y-114536825D01*
X100875717Y-114212184D01*
X100797079Y-113856260D01*
X100749051Y-113588721D01*
X99743258Y-113676717D01*
X99738950Y-114062619D01*
X99658039Y-114401428D01*
X99656392Y-114405374D01*
X99412012Y-114840167D01*
X99033316Y-115317472D01*
X98541272Y-115812277D01*
X98297358Y-116026481D01*
X97948293Y-116331819D01*
X97551854Y-116694827D01*
X97177979Y-117051062D01*
X97072959Y-117154666D01*
X96580557Y-117621348D01*
X96147211Y-117967244D01*
X95735463Y-118210703D01*
X95307858Y-118370080D01*
X94826937Y-118463722D01*
X94312144Y-118507243D01*
X93740386Y-118516939D01*
X93286126Y-118478204D01*
X92983072Y-118412006D01*
X92697512Y-118314399D01*
X92319713Y-118163552D01*
X91908099Y-117983526D01*
X91660569Y-117867339D01*
X91223937Y-117668416D01*
X90699800Y-117448335D01*
X90162002Y-117237318D01*
X89788816Y-117101336D01*
X89096258Y-116841215D01*
X88541300Y-116586837D01*
X88093771Y-116320979D01*
X87723503Y-116026415D01*
X87489174Y-115788405D01*
X87132807Y-115298481D01*
X86931922Y-114804241D01*
X86888583Y-114319537D01*
X87004846Y-113858224D01*
X87161572Y-113584998D01*
X87345086Y-113361577D01*
X87575961Y-113149894D01*
X87877468Y-112934569D01*
X88272877Y-112700228D01*
X88785460Y-112431494D01*
X89259618Y-112198688D01*
X89729218Y-111960401D01*
X90219401Y-111691386D01*
X90671043Y-111425199D01*
X91015048Y-111202378D01*
X91642831Y-110795571D01*
X92212226Y-110501506D01*
X92771586Y-110301473D01*
X93369264Y-110176762D01*
X93791536Y-110128072D01*
X94199281Y-110095773D01*
X94493831Y-110087448D01*
X94730387Y-110109252D01*
X94964147Y-110167338D01*
X95250310Y-110267862D01*
X95336427Y-110300314D01*
X95705626Y-110454606D01*
X96066296Y-110629307D01*
X96346478Y-110789284D01*
X96369823Y-110804835D01*
X96561846Y-110934890D01*
X96863729Y-111138481D01*
X97244666Y-111394875D01*
X97673852Y-111683334D01*
X98061323Y-111943436D01*
X98490096Y-112236295D01*
X98878964Y-112511632D01*
X99202073Y-112750374D01*
X99433570Y-112933448D01*
X99544487Y-113037663D01*
X99676569Y-113312229D01*
X99743258Y-113676717D01*
X100749051Y-113588721D01*
X100724893Y-113454149D01*
X100657587Y-112990946D01*
X100593589Y-112451747D01*
X100531325Y-111821648D01*
X100469223Y-111085742D01*
X100405710Y-110229127D01*
X100339214Y-109236898D01*
X100295828Y-108539139D01*
X99050923Y-108648054D01*
X99088380Y-109139888D01*
X99102478Y-109507726D01*
X99091901Y-109795466D01*
X99055328Y-110047005D01*
X99002275Y-110267122D01*
X98897054Y-110588949D01*
X98759387Y-110924289D01*
X98608840Y-111234417D01*
X98464984Y-111480612D01*
X98347385Y-111624151D01*
X98305829Y-111645234D01*
X98189569Y-111610560D01*
X97988773Y-111514713D01*
X97888848Y-111459882D01*
X97551663Y-111267384D01*
X97742051Y-110966617D01*
X97934404Y-110560416D01*
X98043435Y-110105828D01*
X98075333Y-109630029D01*
X98036288Y-109160198D01*
X97932489Y-108723517D01*
X97770126Y-108347163D01*
X97555388Y-108058314D01*
X97294464Y-107884152D01*
X97031691Y-107847328D01*
X96731758Y-107954521D01*
X96473705Y-108205119D01*
X96269920Y-108575777D01*
X96132788Y-109043155D01*
X96074696Y-109583911D01*
X96073623Y-109652738D01*
X96070488Y-110189207D01*
X95584658Y-109995215D01*
X95306528Y-109893703D01*
X95079435Y-109827792D01*
X94971805Y-109812336D01*
X94910704Y-109793942D01*
X94891103Y-109751257D01*
X92628522Y-109949208D01*
X92177341Y-110135113D01*
X91892952Y-110259989D01*
X91648832Y-110380328D01*
X91545337Y-110439941D01*
X91439364Y-110500165D01*
X91380920Y-110480392D01*
X91348952Y-110349782D01*
X91325998Y-110118622D01*
X91196138Y-109439273D01*
X90937075Y-108854844D01*
X90554980Y-108378595D01*
X90488259Y-108318026D01*
X90240369Y-108114594D01*
X90055651Y-108007271D01*
X89878296Y-107971677D01*
X89709753Y-107977974D01*
X89458245Y-108026249D01*
X89251684Y-108145017D01*
X89050716Y-108338501D01*
X88779332Y-108708922D01*
X88615983Y-109135127D01*
X88552617Y-109648569D01*
X88573583Y-110202128D01*
X88620208Y-110604146D01*
X88686268Y-110903846D01*
X88790736Y-111168239D01*
X88910457Y-111391968D01*
X89053329Y-111649413D01*
X89116234Y-111798762D01*
X89108005Y-111876104D01*
X89038925Y-111917005D01*
X88894988Y-111982316D01*
X88654899Y-112103808D01*
X88370443Y-112255271D01*
X88368395Y-112256388D01*
X88102749Y-112399829D01*
X87900060Y-112506683D01*
X87801596Y-112555221D01*
X87799666Y-112555875D01*
X87729990Y-112501242D01*
X87597644Y-112348449D01*
X87505127Y-112228978D01*
X87072226Y-111508200D01*
X86781885Y-110696545D01*
X86678266Y-110179599D01*
X86616678Y-109284545D01*
X86703269Y-108447269D01*
X86935065Y-107679144D01*
X87309096Y-106991539D01*
X87611300Y-106610451D01*
X88126447Y-106149845D01*
X88683082Y-105848759D01*
X89266920Y-105708621D01*
X89863674Y-105730863D01*
X90459054Y-105916916D01*
X91037612Y-106267321D01*
X91597500Y-106778511D01*
X92021314Y-107358922D01*
X92319542Y-108028435D01*
X92502674Y-108806926D01*
X92542649Y-109119642D01*
X92628522Y-109949208D01*
X94891103Y-109751257D01*
X94870446Y-109706276D01*
X94845461Y-109519874D01*
X94830177Y-109205267D01*
X94825581Y-109038971D01*
X94858806Y-108254992D01*
X94992893Y-107547091D01*
X95219464Y-106930213D01*
X95530144Y-106419300D01*
X95916557Y-106029295D01*
X96370326Y-105775142D01*
X96703403Y-105688966D01*
X97185315Y-105682345D01*
X97618433Y-105822796D01*
X98026014Y-106119588D01*
X98181842Y-106278364D01*
X98479516Y-106643598D01*
X98700299Y-107016953D01*
X98858523Y-107437515D01*
X98968525Y-107944370D01*
X99044638Y-108576600D01*
X99050923Y-108648054D01*
X100295828Y-108539139D01*
X100268161Y-108094149D01*
X100249209Y-107778307D01*
X100185107Y-106798100D01*
X100116490Y-105960785D01*
X100039178Y-105239922D01*
X99948996Y-104609071D01*
X99841763Y-104041790D01*
X99713300Y-103511638D01*
X99559431Y-102992177D01*
X99433932Y-102619516D01*
X98958130Y-101482941D01*
X98374565Y-100473236D01*
X97685946Y-99593025D01*
X96894979Y-98844930D01*
X96004375Y-98231577D01*
X95016840Y-97755590D01*
X94112658Y-97463390D01*
X93445293Y-97307620D01*
X92818667Y-97201234D01*
X92190616Y-97141626D01*
X91518976Y-97126189D01*
X90761582Y-97152317D01*
X89984005Y-97208182D01*
X89116068Y-97294042D01*
G37*
X89116068Y-97294042D02*
X88381536Y-97399276D01*
X87744699Y-97534632D01*
X87169848Y-97710855D01*
X86621275Y-97938692D01*
X86063270Y-98228894D01*
X85528465Y-98549155D01*
X84833329Y-99070220D01*
X84172691Y-99729785D01*
X83570655Y-100497334D01*
X83051321Y-101342356D01*
X82659704Y-102181031D01*
X82449194Y-102809402D01*
X82258106Y-103570462D01*
X82092491Y-104428094D01*
X81958400Y-105346182D01*
X81861886Y-106288611D01*
X81808998Y-107219264D01*
X81807545Y-107266991D01*
X81808066Y-107540535D01*
X81820058Y-107959240D01*
X81842332Y-108499406D01*
X81873704Y-109137336D01*
X81912983Y-109849332D01*
X81958983Y-110611694D01*
X82010518Y-111400723D01*
X82025894Y-111624878D01*
X82090427Y-112569431D01*
X82141178Y-113365294D01*
X82177224Y-114032624D01*
X82197649Y-114591572D01*
X82201532Y-115062294D01*
X82187956Y-115464946D01*
X82156002Y-115819681D01*
X82104750Y-116146652D01*
X82033283Y-116466016D01*
X81940680Y-116797926D01*
X81826025Y-117162537D01*
X81764960Y-117348804D01*
X81604129Y-117808242D01*
X81425096Y-118258894D01*
X81217982Y-118718509D01*
X80972909Y-119204836D01*
X80679997Y-119735618D01*
X80329368Y-120328606D01*
X79911145Y-121001544D01*
X79415447Y-121772183D01*
X78832398Y-122658267D01*
X78691715Y-122870022D01*
X77912765Y-124063694D01*
X77233580Y-125156301D01*
X76640736Y-126172728D01*
X76120815Y-127137860D01*
X75660393Y-128076580D01*
X75246055Y-129013775D01*
X74874031Y-129948758D01*
X74321455Y-131599530D01*
X73930809Y-133201695D01*
X73702052Y-134756032D01*
X73635141Y-136263319D01*
X73730036Y-137724331D01*
X73986693Y-139139845D01*
X74317294Y-140265616D01*
X74626996Y-141159696D01*
X74323687Y-141329712D01*
X73942456Y-141616682D01*
X73579147Y-142021662D01*
X73273352Y-142494723D01*
X73104422Y-142867289D01*
X73019002Y-143150131D01*
X72920541Y-143554650D01*
X72819153Y-144034778D01*
X72724952Y-144544448D01*
X72690497Y-144752877D01*
X72580822Y-145394914D01*
X72470210Y-145909850D01*
X72343135Y-146339290D01*
X72184078Y-146724836D01*
X71977511Y-147108091D01*
X71707914Y-147530661D01*
X71588604Y-147705996D01*
X71096306Y-148503877D01*
X70760751Y-149240427D01*
X70581764Y-149917972D01*
X70559178Y-150538837D01*
X70692821Y-151105345D01*
X70982520Y-151619824D01*
X71276041Y-151948305D01*
X71492563Y-152135177D01*
X71753620Y-152318441D01*
X72078744Y-152507977D01*
X72487468Y-152713665D01*
X72999327Y-152945385D01*
X73633855Y-153213016D01*
X74343467Y-153499731D01*
X75119422Y-153812647D01*
X75764788Y-154084650D01*
X76308247Y-154332339D01*
X76778478Y-154572307D01*
X77204162Y-154821149D01*
X77613979Y-155095463D01*
X78036612Y-155411842D01*
X78500740Y-155786883D01*
X78951544Y-156166097D01*
X79757257Y-156826314D01*
X80486196Y-157365944D01*
X81164619Y-157798786D01*
X81818777Y-158138638D01*
X82474926Y-158399299D01*
X83159322Y-158594565D01*
X83822480Y-158726020D01*
X84485590Y-158784225D01*
X85204221Y-158761696D01*
X85903393Y-158664090D01*
X86413671Y-158530627D01*
X87079639Y-158227776D01*
X87718112Y-157790643D01*
X88301347Y-157249188D01*
X88801605Y-156633375D01*
X89191142Y-155973161D01*
X89442219Y-155298509D01*
X89455291Y-155245659D01*
X89550708Y-154844324D01*
X90787720Y-154689282D01*
X91372972Y-154604130D01*
X92036372Y-154488911D01*
X92693951Y-154359136D01*
X93231161Y-154237880D01*
X93987227Y-154065827D01*
X94698883Y-153936152D01*
X95397101Y-153847424D01*
X96112850Y-153798208D01*
X96877103Y-153787074D01*
X97720829Y-153812587D01*
X98675000Y-153873317D01*
X99537400Y-153946176D01*
X100043581Y-153990399D01*
X100529516Y-154029218D01*
X100952884Y-154059511D01*
X101271359Y-154078149D01*
X101378705Y-154082137D01*
X101654491Y-154096586D01*
X101824601Y-154146153D01*
X101952684Y-154264078D01*
X102079408Y-154448060D01*
X102262301Y-154678554D01*
X102527619Y-154951806D01*
X102820408Y-155211565D01*
X102843028Y-155229803D01*
X103545509Y-155684848D01*
X104335774Y-156003025D01*
X105203258Y-156185307D01*
X106137395Y-156232669D01*
X107127619Y-156146087D01*
X108163366Y-155926535D01*
X109234069Y-155574988D01*
X110329161Y-155092422D01*
X111438080Y-154479810D01*
X111520894Y-154429030D01*
X111982261Y-154157875D01*
X112439886Y-153921038D01*
X112918624Y-153710046D01*
X113443330Y-153516426D01*
X114038858Y-153331708D01*
X114730064Y-153147419D01*
X115541803Y-152955088D01*
X116389966Y-152769389D01*
X116955172Y-152644854D01*
X117508657Y-152515444D01*
X118012368Y-152390604D01*
X118428252Y-152279783D01*
X118718252Y-152192428D01*
X118729640Y-152188545D01*
X119456835Y-151884526D01*
X120031103Y-151522294D01*
X120461144Y-151094123D01*
X120755663Y-150592284D01*
X120858468Y-150298501D01*
X120934170Y-149778118D01*
X120915481Y-149388026D01*
X120089354Y-149460303D01*
X120060131Y-149995478D01*
X119987091Y-150263170D01*
X119866860Y-150505355D01*
X119691869Y-150722111D01*
X119447166Y-150920136D01*
X119117795Y-151106135D01*
X118688800Y-151286809D01*
X118145227Y-151468860D01*
X117472121Y-151658990D01*
X116654528Y-151863903D01*
X116151122Y-151982266D01*
X115310338Y-152178782D01*
X114607763Y-152350087D01*
X114015920Y-152505898D01*
X113507325Y-152655937D01*
X113054500Y-152809922D01*
X112629963Y-152977574D01*
X112206233Y-153168611D01*
X111755831Y-153392753D01*
X111251275Y-153659720D01*
X110957457Y-153819199D01*
X110117117Y-154262817D01*
X109381822Y-154615040D01*
X108721143Y-154886060D01*
X108104650Y-155086067D01*
X107501911Y-155225253D01*
X106882497Y-155313810D01*
X106374779Y-155353922D01*
X105815068Y-155374528D01*
X105373367Y-155363135D01*
X105000949Y-155317285D01*
X104800107Y-155274576D01*
X104035629Y-155012000D01*
X103387378Y-154628270D01*
X102860289Y-154128639D01*
X102459295Y-153518360D01*
X102251628Y-152967832D01*
X88754709Y-154148660D01*
X88774728Y-154466425D01*
X88770693Y-154703536D01*
X88739067Y-154903908D01*
X88676310Y-155111453D01*
X88580443Y-155366072D01*
X88349328Y-155839233D01*
X88028851Y-156329812D01*
X87655419Y-156792336D01*
X87265440Y-157181333D01*
X86924117Y-157434725D01*
X86214112Y-157770176D01*
X85458114Y-157957231D01*
X84632497Y-158001026D01*
X84380319Y-157987931D01*
X83672208Y-157902074D01*
X83003205Y-157744016D01*
X82347687Y-157501792D01*
X81680027Y-157163436D01*
X80974602Y-156716982D01*
X80205787Y-156150464D01*
X79864463Y-155879224D01*
X79182856Y-155332768D01*
X78600735Y-154880545D01*
X78089956Y-154505501D01*
X77622378Y-154190582D01*
X77169857Y-153918733D01*
X76704252Y-153672902D01*
X76197420Y-153436032D01*
X75621217Y-153191071D01*
X75048642Y-152960889D01*
X74243966Y-152633388D01*
X73522739Y-152321346D01*
X72903013Y-152033261D01*
X72402846Y-151777633D01*
X72040295Y-151562960D01*
X71960329Y-151507276D01*
X71723460Y-151280233D01*
X71517221Y-150996620D01*
X71476310Y-150920573D01*
X71362567Y-150597049D01*
X71333470Y-150249096D01*
X71394474Y-149857747D01*
X71551030Y-149404036D01*
X71808596Y-148869000D01*
X72172623Y-148233672D01*
X72316139Y-148000224D01*
X72571148Y-147580718D01*
X72775043Y-147212998D01*
X72939677Y-146863456D01*
X73076899Y-146498487D01*
X73198560Y-146084483D01*
X73316506Y-145587839D01*
X73442592Y-144974949D01*
X73515198Y-144599711D01*
X73637661Y-143987583D01*
X73747672Y-143514255D01*
X73855358Y-143150707D01*
X73970849Y-142867918D01*
X74104272Y-142636869D01*
X74265754Y-142428535D01*
X74277673Y-142414848D01*
X74697495Y-142041576D01*
X75218013Y-141774401D01*
X75859524Y-141603729D01*
X76059952Y-141572422D01*
X76419881Y-141528098D01*
X76661546Y-141516336D01*
X76833539Y-141540869D01*
X76984457Y-141605433D01*
X77059572Y-141649230D01*
X77874824Y-142127125D01*
X78585377Y-142499438D01*
X79212544Y-142773707D01*
X79777638Y-142957467D01*
X80301967Y-143058256D01*
X80806845Y-143083610D01*
X81074423Y-143068985D01*
X81539949Y-142997542D01*
X81910022Y-142857849D01*
X82239939Y-142620533D01*
X82568754Y-142275317D01*
X83018610Y-141623865D01*
X83335174Y-140892308D01*
X83501554Y-140121039D01*
X83511128Y-140021702D01*
X83553412Y-139693451D01*
X83627140Y-139502893D01*
X83751267Y-139446743D01*
X83944741Y-139521716D01*
X84226515Y-139724526D01*
X84400197Y-139867582D01*
X84724591Y-140181917D01*
X85010519Y-140553466D01*
X85264636Y-140999194D01*
X85493598Y-141536066D01*
X85704057Y-142181046D01*
X85902668Y-142951100D01*
X86096085Y-143863194D01*
X86213125Y-144489663D01*
X86527581Y-146059694D01*
X86887760Y-147525849D01*
X87287459Y-148864447D01*
X87568298Y-149662302D01*
X87859704Y-150443848D01*
X88094162Y-151094333D01*
X88278934Y-151639386D01*
X88421280Y-152104635D01*
X88528464Y-152515707D01*
X88607746Y-152898232D01*
X88666387Y-153277835D01*
X88711651Y-153680145D01*
X88714174Y-153706328D01*
X88754709Y-154148660D01*
X102251628Y-152967832D01*
X102189331Y-152802683D01*
X102104826Y-152405733D01*
X102060626Y-152059374D01*
X102060299Y-151758799D01*
X102108024Y-151428674D01*
X102175861Y-151124667D01*
X102259706Y-150796475D01*
X102351055Y-150491061D01*
X102459303Y-150190765D01*
X102593843Y-149877924D01*
X102764072Y-149534879D01*
X102979385Y-149143967D01*
X103249177Y-148687529D01*
X103582842Y-148147902D01*
X103989776Y-147507426D01*
X104479373Y-146748439D01*
X104615484Y-146538575D01*
X105076899Y-145808423D01*
X105463625Y-145147503D01*
X105802883Y-144502888D01*
X106121897Y-143821659D01*
X106447888Y-143050890D01*
X106583917Y-142711764D01*
X107072460Y-141532875D01*
X107542150Y-140513468D01*
X107999061Y-139645540D01*
X108449262Y-138921084D01*
X108898825Y-138332095D01*
X109353821Y-137870568D01*
X109820324Y-137528496D01*
X110304403Y-137297874D01*
X110782915Y-137175231D01*
X111195355Y-137139034D01*
X111577647Y-137177843D01*
X111951210Y-137303361D01*
X112337463Y-137527293D01*
X112757825Y-137861342D01*
X113233713Y-138317215D01*
X113622066Y-138726694D01*
X113942382Y-139063425D01*
X114263997Y-139383506D01*
X114548248Y-139649466D01*
X114746503Y-139816398D01*
X115086691Y-140024047D01*
X115586701Y-140255902D01*
X116239226Y-140508972D01*
X117036956Y-140780265D01*
X117322863Y-140870801D01*
X117908649Y-141111808D01*
X118412965Y-141435134D01*
X118800379Y-141815898D01*
X118924849Y-141995509D01*
X119038423Y-142238196D01*
X119124173Y-142549794D01*
X119184029Y-142949624D01*
X119219920Y-143457009D01*
X119233776Y-144091270D01*
X119227527Y-144871728D01*
X119225006Y-145001101D01*
X119216209Y-145471131D01*
X119216234Y-145843864D01*
X119231714Y-146155349D01*
X119269281Y-146441641D01*
X119335567Y-146738792D01*
X119437205Y-147082852D01*
X119580827Y-147509873D01*
X119773067Y-148055908D01*
X119802056Y-148137744D01*
X120002774Y-148834675D01*
X120089354Y-149460303D01*
X120915481Y-149388026D01*
X120904564Y-149160168D01*
X120774077Y-148476042D01*
X120547143Y-147757131D01*
X120473176Y-147569088D01*
X120247542Y-146928796D01*
X120105133Y-146290760D01*
X120039037Y-145605912D01*
X120042347Y-144825183D01*
X120054141Y-144593330D01*
X120083641Y-143740158D01*
X120058438Y-143026220D01*
X119972537Y-142428571D01*
X119819937Y-141924267D01*
X119594641Y-141490365D01*
X119290650Y-141103919D01*
X119090039Y-140905400D01*
X118728426Y-140616875D01*
X118308201Y-140371584D01*
X117797774Y-140155042D01*
X117165553Y-139952759D01*
X116794143Y-139852501D01*
X116204041Y-139680944D01*
X115732454Y-139489044D01*
X115328864Y-139246412D01*
X114942749Y-138922658D01*
X114523589Y-138487393D01*
X114522198Y-138485852D01*
X114214451Y-138149257D01*
X113900684Y-137813318D01*
X113625706Y-137525686D01*
X113490141Y-137388337D01*
X113098024Y-136999744D01*
X112955453Y-135437849D01*
X112897637Y-134837687D01*
X112842596Y-134362259D01*
X112782471Y-133967300D01*
X112709405Y-133608544D01*
X112615537Y-133241727D01*
X112493011Y-132822584D01*
X112488533Y-132807822D01*
X112325924Y-132346240D01*
X108885586Y-132647231D01*
X108931585Y-133174605D01*
X108956925Y-133574185D01*
X108961177Y-133886296D01*
X108943915Y-134151264D01*
X108904708Y-134409417D01*
X108864820Y-134603819D01*
X108663453Y-135340525D01*
X108387499Y-136019018D01*
X108021910Y-136660398D01*
X107551645Y-137285766D01*
X106961659Y-137916222D01*
X106236911Y-138572865D01*
X105749113Y-138973844D01*
X104704119Y-139845427D01*
X103810878Y-140672781D01*
X103060797Y-141466108D01*
X102445287Y-142235614D01*
X101955754Y-142991502D01*
X101583607Y-143743977D01*
X101456485Y-144071974D01*
X101324842Y-144595248D01*
X101289120Y-145122072D01*
X101347307Y-145606854D01*
X101497390Y-146004000D01*
X101545092Y-146078715D01*
X101881041Y-146409029D01*
X102348779Y-146640816D01*
X102939341Y-146769692D01*
X102963508Y-146772439D01*
X103452366Y-146826305D01*
X103055602Y-147424537D01*
X102807452Y-147809031D01*
X102538802Y-148241196D01*
X102308604Y-148626128D01*
X102116718Y-148943439D01*
X101941461Y-149187698D01*
X101747880Y-149392276D01*
X101501026Y-149590544D01*
X101165946Y-149815874D01*
X100864635Y-150004820D01*
X99885880Y-150546642D01*
X98869939Y-150974876D01*
X98274846Y-151172404D01*
X97684326Y-151314649D01*
X96975218Y-151425283D01*
X96195833Y-151501293D01*
X95394484Y-151539664D01*
X94619483Y-151537384D01*
X93919143Y-151491439D01*
X93668027Y-151459759D01*
X93193697Y-151380108D01*
X92686616Y-151279924D01*
X92228327Y-151175834D01*
X92055317Y-151130933D01*
X91505374Y-150964569D01*
X90931765Y-150764398D01*
X90358554Y-150541544D01*
X89809801Y-150307132D01*
X89309570Y-150072284D01*
X88881919Y-149848122D01*
X88550914Y-149645771D01*
X88340613Y-149476353D01*
X88278636Y-149385028D01*
X88229782Y-149241129D01*
X88135812Y-148972169D01*
X88008810Y-148612469D01*
X87860859Y-148196351D01*
X87807627Y-148047265D01*
X87652284Y-147598481D01*
X87527074Y-147196240D01*
X87421786Y-146797935D01*
X87326206Y-146360955D01*
X87230120Y-145842693D01*
X87123319Y-145200539D01*
X87119267Y-145175331D01*
X86949519Y-144164380D01*
X86787079Y-143301535D01*
X86626049Y-142566086D01*
X86460530Y-141937317D01*
X86284627Y-141394518D01*
X86092440Y-140916977D01*
X85878072Y-140483983D01*
X85692855Y-140165753D01*
X85322550Y-139674016D01*
X84861653Y-139224020D01*
X84360851Y-138860535D01*
X84011426Y-138680597D01*
X83756968Y-138567555D01*
X83599166Y-138460112D01*
X83493676Y-138308535D01*
X83396151Y-138063088D01*
X83355351Y-137944804D01*
X83107951Y-137408463D01*
X82772372Y-137007640D01*
X82333514Y-136725100D01*
X82257235Y-136691602D01*
X82058249Y-136617544D01*
X81872713Y-136578761D01*
X81652963Y-136573258D01*
X81351334Y-136599038D01*
X81025292Y-136640013D01*
X80502727Y-136725392D01*
X80075496Y-136836857D01*
X79669697Y-136994720D01*
X79572884Y-137039136D01*
X78846313Y-137410167D01*
X78171289Y-137812796D01*
X77571032Y-138229878D01*
X77068756Y-138644273D01*
X76687678Y-139038836D01*
X76495308Y-139311546D01*
X76370850Y-139562258D01*
X76315147Y-139793154D01*
X76313697Y-140081974D01*
X76324652Y-140226471D01*
X76346409Y-140516702D01*
X76338866Y-140678491D01*
X76289340Y-140751911D01*
X76185145Y-140777035D01*
X76149308Y-140780445D01*
X75978631Y-140754107D01*
X75864758Y-140622935D01*
X75793544Y-140362795D01*
X75764400Y-140123861D01*
X75787397Y-139617001D01*
X75952631Y-139112685D01*
X76264776Y-138605055D01*
X76728504Y-138088252D01*
X77348486Y-137556416D01*
X78129396Y-137003690D01*
X78382037Y-136841544D01*
X78730416Y-136620527D01*
X78957707Y-136465948D01*
X79086272Y-136354265D01*
X79138469Y-136261933D01*
X79136659Y-136165410D01*
X79112302Y-136072631D01*
X79018679Y-135661532D01*
X78935623Y-135134022D01*
X78868039Y-134542933D01*
X78820835Y-133941092D01*
X78798918Y-133381329D01*
X78807192Y-132916473D01*
X78812473Y-132844538D01*
X79008899Y-131495597D01*
X79366964Y-130132151D01*
X79881540Y-128769075D01*
X80547500Y-127421248D01*
X80876973Y-126853629D01*
X81069021Y-126555693D01*
X81307082Y-126213687D01*
X81570001Y-125854823D01*
X81836624Y-125506313D01*
X82085793Y-125195370D01*
X82296355Y-124949208D01*
X82447152Y-124795038D01*
X82507539Y-124756201D01*
X82587408Y-124802853D01*
X82547029Y-124966245D01*
X82387213Y-125244718D01*
X82108773Y-125636615D01*
X82019080Y-125754249D01*
X81249724Y-126887942D01*
X80610210Y-128118996D01*
X80109216Y-129426486D01*
X79755416Y-130789485D01*
X79633024Y-131509430D01*
X79587299Y-132110131D01*
X79596586Y-132800251D01*
X79655330Y-133523400D01*
X79757973Y-134223189D01*
X79898959Y-134843227D01*
X79989406Y-135125937D01*
X80102553Y-135429450D01*
X80194054Y-135663894D01*
X80248515Y-135790191D01*
X80255480Y-135801284D01*
X80345699Y-135798197D01*
X80560373Y-135769292D01*
X80857615Y-135720416D01*
X80939545Y-135705828D01*
X81595990Y-135587196D01*
X81720082Y-134641449D01*
X81959820Y-133237601D01*
X82321908Y-131736033D01*
X82802084Y-130151464D01*
X83396085Y-128498618D01*
X83764536Y-127578386D01*
X84163863Y-126579125D01*
X84549065Y-125538686D01*
X84931618Y-124423888D01*
X85323000Y-123201553D01*
X85644041Y-122144566D01*
X85797778Y-121611882D01*
X85965593Y-121002394D01*
X86141201Y-120341645D01*
X86318315Y-119655177D01*
X86490652Y-118968533D01*
X86651926Y-118307255D01*
X86795850Y-117696887D01*
X86916140Y-117162968D01*
X87006510Y-116731044D01*
X87060676Y-116426655D01*
X87070765Y-116346656D01*
X87099143Y-116140209D01*
X87130374Y-116028425D01*
X87137590Y-116022097D01*
X87214090Y-116073367D01*
X87367499Y-116206819D01*
X87456423Y-116290049D01*
X87807359Y-116564828D01*
X88278532Y-116846637D01*
X88823677Y-117111666D01*
X89396531Y-117336103D01*
X89641590Y-117414717D01*
X90006591Y-117539749D01*
X90460794Y-117719737D01*
X90944087Y-117929767D01*
X91361246Y-118127374D01*
X92099190Y-118466529D01*
X92750299Y-118700038D01*
X93352372Y-118836888D01*
X93943208Y-118886063D01*
X94466408Y-118865501D01*
X95041803Y-118791584D01*
X95538876Y-118667324D01*
X95990894Y-118474748D01*
X96431126Y-118195880D01*
X96892839Y-117812748D01*
X97409302Y-117307377D01*
X97473468Y-117240861D01*
X97786365Y-116930067D01*
X98134319Y-116607362D01*
X98445767Y-116338957D01*
X98466141Y-116322474D01*
X98952511Y-115931381D01*
X99118781Y-116698960D01*
X99300552Y-117458488D01*
X99521297Y-118228890D01*
X99787194Y-119023944D01*
X100104419Y-119857429D01*
X100479149Y-120743123D01*
X100917563Y-121694804D01*
X101425837Y-122726251D01*
X102010148Y-123851243D01*
X102676672Y-125083558D01*
X103431588Y-126436973D01*
X103684816Y-126883788D01*
X104373749Y-128126194D01*
X104963035Y-129258815D01*
X105461144Y-130302192D01*
X105876543Y-131276870D01*
X106217699Y-132203388D01*
X106493081Y-133102290D01*
X106711157Y-133994117D01*
X106801460Y-134444380D01*
X106880226Y-134859690D01*
X106954900Y-135241827D01*
X107016094Y-135543385D01*
X107049435Y-135696462D01*
X107099424Y-135882217D01*
X107144874Y-135921201D01*
X107216657Y-135832237D01*
X107232287Y-135807950D01*
X107366242Y-135547682D01*
X107520027Y-135170466D01*
X107677615Y-134724847D01*
X107822980Y-134259372D01*
X107940093Y-133822586D01*
X108012929Y-133463032D01*
X108017746Y-133428795D01*
X108052375Y-132909681D01*
X108041136Y-132284045D01*
X107988689Y-131606986D01*
X107899700Y-130933599D01*
X107778831Y-130318980D01*
X107742272Y-130173774D01*
X107547446Y-129532436D01*
X107295520Y-128871357D01*
X106975292Y-128167075D01*
X106575564Y-127396124D01*
X106085137Y-126535044D01*
X105701449Y-125897996D01*
X105399312Y-125398811D01*
X105130339Y-124942164D01*
X104906449Y-124549307D01*
X104739567Y-124241492D01*
X104641614Y-124039970D01*
X104620567Y-123971257D01*
X104671600Y-123977558D01*
X104801324Y-124109351D01*
X104997147Y-124349498D01*
X105246483Y-124680869D01*
X105536741Y-125086326D01*
X105855334Y-125548737D01*
X106189672Y-126050965D01*
X106483356Y-126506645D01*
X107174198Y-127673840D01*
X107781738Y-128859123D01*
X108281622Y-130013772D01*
X108417651Y-130376555D01*
X108556773Y-130775520D01*
X108658768Y-131108959D01*
X108733666Y-131425548D01*
X108791497Y-131773960D01*
X108842293Y-132202872D01*
X108885586Y-132647231D01*
X112325924Y-132346240D01*
X111936245Y-131240095D01*
X111224041Y-129648948D01*
X110350940Y-128032857D01*
X109315961Y-126390300D01*
X108118127Y-124719753D01*
X106756457Y-123019693D01*
X105229971Y-121288597D01*
X104747052Y-120770734D01*
X103907822Y-119847192D01*
X103196880Y-118984206D01*
X102597707Y-118154566D01*
X102093781Y-117331057D01*
X101668580Y-116486468D01*
X101305583Y-115593584D01*
X100988270Y-114625194D01*
X100962381Y-114536825D01*
X100875717Y-114212184D01*
X100797079Y-113856260D01*
X100749051Y-113588721D01*
X99743258Y-113676717D01*
X99738950Y-114062619D01*
X99658039Y-114401428D01*
X99656392Y-114405374D01*
X99412012Y-114840167D01*
X99033316Y-115317472D01*
X98541272Y-115812277D01*
X98297358Y-116026481D01*
X97948293Y-116331819D01*
X97551854Y-116694827D01*
X97177979Y-117051062D01*
X97072959Y-117154666D01*
X96580557Y-117621348D01*
X96147211Y-117967244D01*
X95735463Y-118210703D01*
X95307858Y-118370080D01*
X94826937Y-118463722D01*
X94312144Y-118507243D01*
X93740386Y-118516939D01*
X93286126Y-118478204D01*
X92983072Y-118412006D01*
X92697512Y-118314399D01*
X92319713Y-118163552D01*
X91908099Y-117983526D01*
X91660569Y-117867339D01*
X91223937Y-117668416D01*
X90699800Y-117448335D01*
X90162002Y-117237318D01*
X89788816Y-117101336D01*
X89096258Y-116841215D01*
X88541300Y-116586837D01*
X88093771Y-116320979D01*
X87723503Y-116026415D01*
X87489174Y-115788405D01*
X87132807Y-115298481D01*
X86931922Y-114804241D01*
X86888583Y-114319537D01*
X87004846Y-113858224D01*
X87161572Y-113584998D01*
X87345086Y-113361577D01*
X87575961Y-113149894D01*
X87877468Y-112934569D01*
X88272877Y-112700228D01*
X88785460Y-112431494D01*
X89259618Y-112198688D01*
X89729218Y-111960401D01*
X90219401Y-111691386D01*
X90671043Y-111425199D01*
X91015048Y-111202378D01*
X91642831Y-110795571D01*
X92212226Y-110501506D01*
X92771586Y-110301473D01*
X93369264Y-110176762D01*
X93791536Y-110128072D01*
X94199281Y-110095773D01*
X94493831Y-110087448D01*
X94730387Y-110109252D01*
X94964147Y-110167338D01*
X95250310Y-110267862D01*
X95336427Y-110300314D01*
X95705626Y-110454606D01*
X96066296Y-110629307D01*
X96346478Y-110789284D01*
X96369823Y-110804835D01*
X96561846Y-110934890D01*
X96863729Y-111138481D01*
X97244666Y-111394875D01*
X97673852Y-111683334D01*
X98061323Y-111943436D01*
X98490096Y-112236295D01*
X98878964Y-112511632D01*
X99202073Y-112750374D01*
X99433570Y-112933448D01*
X99544487Y-113037663D01*
X99676569Y-113312229D01*
X99743258Y-113676717D01*
X100749051Y-113588721D01*
X100724893Y-113454149D01*
X100657587Y-112990946D01*
X100593589Y-112451747D01*
X100531325Y-111821648D01*
X100469223Y-111085742D01*
X100405710Y-110229127D01*
X100339214Y-109236898D01*
X100295828Y-108539139D01*
X99050923Y-108648054D01*
X99088380Y-109139888D01*
X99102478Y-109507726D01*
X99091901Y-109795466D01*
X99055328Y-110047005D01*
X99002275Y-110267122D01*
X98897054Y-110588949D01*
X98759387Y-110924289D01*
X98608840Y-111234417D01*
X98464984Y-111480612D01*
X98347385Y-111624151D01*
X98305829Y-111645234D01*
X98189569Y-111610560D01*
X97988773Y-111514713D01*
X97888848Y-111459882D01*
X97551663Y-111267384D01*
X97742051Y-110966617D01*
X97934404Y-110560416D01*
X98043435Y-110105828D01*
X98075333Y-109630029D01*
X98036288Y-109160198D01*
X97932489Y-108723517D01*
X97770126Y-108347163D01*
X97555388Y-108058314D01*
X97294464Y-107884152D01*
X97031691Y-107847328D01*
X96731758Y-107954521D01*
X96473705Y-108205119D01*
X96269920Y-108575777D01*
X96132788Y-109043155D01*
X96074696Y-109583911D01*
X96073623Y-109652738D01*
X96070488Y-110189207D01*
X95584658Y-109995215D01*
X95306528Y-109893703D01*
X95079435Y-109827792D01*
X94971805Y-109812336D01*
X94910704Y-109793942D01*
X94891103Y-109751257D01*
X92628522Y-109949208D01*
X92177341Y-110135113D01*
X91892952Y-110259989D01*
X91648832Y-110380328D01*
X91545337Y-110439941D01*
X91439364Y-110500165D01*
X91380920Y-110480392D01*
X91348952Y-110349782D01*
X91325998Y-110118622D01*
X91196138Y-109439273D01*
X90937075Y-108854844D01*
X90554980Y-108378595D01*
X90488259Y-108318026D01*
X90240369Y-108114594D01*
X90055651Y-108007271D01*
X89878296Y-107971677D01*
X89709753Y-107977974D01*
X89458245Y-108026249D01*
X89251684Y-108145017D01*
X89050716Y-108338501D01*
X88779332Y-108708922D01*
X88615983Y-109135127D01*
X88552617Y-109648569D01*
X88573583Y-110202128D01*
X88620208Y-110604146D01*
X88686268Y-110903846D01*
X88790736Y-111168239D01*
X88910457Y-111391968D01*
X89053329Y-111649413D01*
X89116234Y-111798762D01*
X89108005Y-111876104D01*
X89038925Y-111917005D01*
X88894988Y-111982316D01*
X88654899Y-112103808D01*
X88370443Y-112255271D01*
X88368395Y-112256388D01*
X88102749Y-112399829D01*
X87900060Y-112506683D01*
X87801596Y-112555221D01*
X87799666Y-112555875D01*
X87729990Y-112501242D01*
X87597644Y-112348449D01*
X87505127Y-112228978D01*
X87072226Y-111508200D01*
X86781885Y-110696545D01*
X86678266Y-110179599D01*
X86616678Y-109284545D01*
X86703269Y-108447269D01*
X86935065Y-107679144D01*
X87309096Y-106991539D01*
X87611300Y-106610451D01*
X88126447Y-106149845D01*
X88683082Y-105848759D01*
X89266920Y-105708621D01*
X89863674Y-105730863D01*
X90459054Y-105916916D01*
X91037612Y-106267321D01*
X91597500Y-106778511D01*
X92021314Y-107358922D01*
X92319542Y-108028435D01*
X92502674Y-108806926D01*
X92542649Y-109119642D01*
X92628522Y-109949208D01*
X94891103Y-109751257D01*
X94870446Y-109706276D01*
X94845461Y-109519874D01*
X94830177Y-109205267D01*
X94825581Y-109038971D01*
X94858806Y-108254992D01*
X94992893Y-107547091D01*
X95219464Y-106930213D01*
X95530144Y-106419300D01*
X95916557Y-106029295D01*
X96370326Y-105775142D01*
X96703403Y-105688966D01*
X97185315Y-105682345D01*
X97618433Y-105822796D01*
X98026014Y-106119588D01*
X98181842Y-106278364D01*
X98479516Y-106643598D01*
X98700299Y-107016953D01*
X98858523Y-107437515D01*
X98968525Y-107944370D01*
X99044638Y-108576600D01*
X99050923Y-108648054D01*
X100295828Y-108539139D01*
X100268161Y-108094149D01*
X100249209Y-107778307D01*
X100185107Y-106798100D01*
X100116490Y-105960785D01*
X100039178Y-105239922D01*
X99948996Y-104609071D01*
X99841763Y-104041790D01*
X99713300Y-103511638D01*
X99559431Y-102992177D01*
X99433932Y-102619516D01*
X98958130Y-101482941D01*
X98374565Y-100473236D01*
X97685946Y-99593025D01*
X96894979Y-98844930D01*
X96004375Y-98231577D01*
X95016840Y-97755590D01*
X94112658Y-97463390D01*
X93445293Y-97307620D01*
X92818667Y-97201234D01*
X92190616Y-97141626D01*
X91518976Y-97126189D01*
X90761582Y-97152317D01*
X89984005Y-97208182D01*
X89116068Y-97294042D01*
D14*
X102597500Y-148285000D02*
X100312500Y-148285000D01*
X102597500Y-146815000D02*
X102597500Y-148285000D01*
X100312500Y-146815000D02*
X102597500Y-146815000D01*
X100300000Y-148965000D02*
X102585000Y-148965000D01*
X102585000Y-148965000D02*
X102585000Y-150435000D01*
X102585000Y-150435000D02*
X100300000Y-150435000D01*
X92420000Y-84370000D02*
X92420000Y-85700000D01*
X93750000Y-84370000D02*
X92420000Y-84370000D01*
X92420000Y-86970000D02*
X92420000Y-89570000D01*
X95020000Y-86970000D02*
X92420000Y-86970000D01*
X95020000Y-84370000D02*
X95020000Y-86970000D01*
X92420000Y-89570000D02*
X143340000Y-89570000D01*
X95020000Y-84370000D02*
X143340000Y-84370000D01*
X143340000Y-84370000D02*
X143340000Y-89570000D01*
X107987221Y-150010000D02*
X108312779Y-150010000D01*
X107987221Y-148990000D02*
X108312779Y-148990000D01*
X108312779Y-148060000D02*
X107987221Y-148060000D01*
X108312779Y-147040000D02*
X107987221Y-147040000D01*
X105750000Y-149816666D02*
X106150000Y-149816666D01*
X105950000Y-149816666D02*
X105950000Y-149116666D01*
X106016666Y-149216666D01*
X106083333Y-149283333D01*
X106150000Y-149316666D01*
X105450000Y-149816666D02*
X105450000Y-149116666D01*
X105050000Y-149816666D02*
X105350000Y-149416666D01*
X105050000Y-149116666D02*
X105450000Y-149516666D01*
X105750000Y-147916666D02*
X106150000Y-147916666D01*
X105950000Y-147916666D02*
X105950000Y-147216666D01*
X106016666Y-147316666D01*
X106083333Y-147383333D01*
X106150000Y-147416666D01*
X105450000Y-147916666D02*
X105450000Y-147216666D01*
X105050000Y-147916666D02*
X105350000Y-147516666D01*
X105050000Y-147216666D02*
X105450000Y-147616666D01*
M02*
