G04 #@! TF.GenerationSoftware,KiCad,Pcbnew,5.1.5*
G04 #@! TF.CreationDate,2020-03-31T01:32:46+02:00*
G04 #@! TF.ProjectId,gameboy-dmg,67616d65-626f-4792-9d64-6d672e6b6963,rev?*
G04 #@! TF.SameCoordinates,Original*
G04 #@! TF.FileFunction,Legend,Top*
G04 #@! TF.FilePolarity,Positive*
%FSLAX46Y46*%
G04 Gerber Fmt 4.6, Leading zero omitted, Abs format (unit mm)*
G04 Created by KiCad (PCBNEW 5.1.5) date 2020-03-31 01:32:46*
%MOMM*%
%LPD*%
G04 APERTURE LIST*
%ADD10C,0.150000*%
%ADD11C,0.300000*%
%ADD12C,0.120000*%
%ADD13C,1.000000*%
%ADD14C,0.127000*%
G04 APERTURE END LIST*
D10*
X86227380Y-95336904D02*
X86227380Y-94536904D01*
X86532142Y-94536904D01*
X86608333Y-94575000D01*
X86646428Y-94613095D01*
X86684523Y-94689285D01*
X86684523Y-94803571D01*
X86646428Y-94879761D01*
X86608333Y-94917857D01*
X86532142Y-94955952D01*
X86227380Y-94955952D01*
X87179761Y-94536904D02*
X87332142Y-94536904D01*
X87408333Y-94575000D01*
X87484523Y-94651190D01*
X87522619Y-94803571D01*
X87522619Y-95070238D01*
X87484523Y-95222619D01*
X87408333Y-95298809D01*
X87332142Y-95336904D01*
X87179761Y-95336904D01*
X87103571Y-95298809D01*
X87027380Y-95222619D01*
X86989285Y-95070238D01*
X86989285Y-94803571D01*
X87027380Y-94651190D01*
X87103571Y-94575000D01*
X87179761Y-94536904D01*
X87789285Y-94536904D02*
X87979761Y-95336904D01*
X88132142Y-94765476D01*
X88284523Y-95336904D01*
X88475000Y-94536904D01*
X88779761Y-94917857D02*
X89046428Y-94917857D01*
X89160714Y-95336904D02*
X88779761Y-95336904D01*
X88779761Y-94536904D01*
X89160714Y-94536904D01*
X89960714Y-95336904D02*
X89694047Y-94955952D01*
X89503571Y-95336904D02*
X89503571Y-94536904D01*
X89808333Y-94536904D01*
X89884523Y-94575000D01*
X89922619Y-94613095D01*
X89960714Y-94689285D01*
X89960714Y-94803571D01*
X89922619Y-94879761D01*
X89884523Y-94917857D01*
X89808333Y-94955952D01*
X89503571Y-94955952D01*
X86075000Y-96648809D02*
X86189285Y-96686904D01*
X86379761Y-96686904D01*
X86455952Y-96648809D01*
X86494047Y-96610714D01*
X86532142Y-96534523D01*
X86532142Y-96458333D01*
X86494047Y-96382142D01*
X86455952Y-96344047D01*
X86379761Y-96305952D01*
X86227380Y-96267857D01*
X86151190Y-96229761D01*
X86113095Y-96191666D01*
X86075000Y-96115476D01*
X86075000Y-96039285D01*
X86113095Y-95963095D01*
X86151190Y-95925000D01*
X86227380Y-95886904D01*
X86417857Y-95886904D01*
X86532142Y-95925000D01*
X86798809Y-95886904D02*
X86989285Y-96686904D01*
X87141666Y-96115476D01*
X87294047Y-96686904D01*
X87484523Y-95886904D01*
X87789285Y-96686904D02*
X87789285Y-95886904D01*
X88055952Y-95886904D02*
X88513095Y-95886904D01*
X88284523Y-96686904D02*
X88284523Y-95886904D01*
X89236904Y-96610714D02*
X89198809Y-96648809D01*
X89084523Y-96686904D01*
X89008333Y-96686904D01*
X88894047Y-96648809D01*
X88817857Y-96572619D01*
X88779761Y-96496428D01*
X88741666Y-96344047D01*
X88741666Y-96229761D01*
X88779761Y-96077380D01*
X88817857Y-96001190D01*
X88894047Y-95925000D01*
X89008333Y-95886904D01*
X89084523Y-95886904D01*
X89198809Y-95925000D01*
X89236904Y-95963095D01*
X89579761Y-96686904D02*
X89579761Y-95886904D01*
X89579761Y-96267857D02*
X90036904Y-96267857D01*
X90036904Y-96686904D02*
X90036904Y-95886904D01*
X86284523Y-97617857D02*
X86398809Y-97655952D01*
X86436904Y-97694047D01*
X86475000Y-97770238D01*
X86475000Y-97884523D01*
X86436904Y-97960714D01*
X86398809Y-97998809D01*
X86322619Y-98036904D01*
X86017857Y-98036904D01*
X86017857Y-97236904D01*
X86284523Y-97236904D01*
X86360714Y-97275000D01*
X86398809Y-97313095D01*
X86436904Y-97389285D01*
X86436904Y-97465476D01*
X86398809Y-97541666D01*
X86360714Y-97579761D01*
X86284523Y-97617857D01*
X86017857Y-97617857D01*
X86970238Y-97655952D02*
X86970238Y-98036904D01*
X86703571Y-97236904D02*
X86970238Y-97655952D01*
X87236904Y-97236904D01*
X87503571Y-98036904D02*
X87503571Y-97236904D01*
X87808333Y-97236904D01*
X87884523Y-97275000D01*
X87922619Y-97313095D01*
X87960714Y-97389285D01*
X87960714Y-97503571D01*
X87922619Y-97579761D01*
X87884523Y-97617857D01*
X87808333Y-97655952D01*
X87503571Y-97655952D01*
X88265476Y-97808333D02*
X88646428Y-97808333D01*
X88189285Y-98036904D02*
X88455952Y-97236904D01*
X88722619Y-98036904D01*
X88951190Y-97998809D02*
X89065476Y-98036904D01*
X89255952Y-98036904D01*
X89332142Y-97998809D01*
X89370238Y-97960714D01*
X89408333Y-97884523D01*
X89408333Y-97808333D01*
X89370238Y-97732142D01*
X89332142Y-97694047D01*
X89255952Y-97655952D01*
X89103571Y-97617857D01*
X89027380Y-97579761D01*
X88989285Y-97541666D01*
X88951190Y-97465476D01*
X88951190Y-97389285D01*
X88989285Y-97313095D01*
X89027380Y-97275000D01*
X89103571Y-97236904D01*
X89294047Y-97236904D01*
X89408333Y-97275000D01*
X89713095Y-97998809D02*
X89827380Y-98036904D01*
X90017857Y-98036904D01*
X90094047Y-97998809D01*
X90132142Y-97960714D01*
X90170238Y-97884523D01*
X90170238Y-97808333D01*
X90132142Y-97732142D01*
X90094047Y-97694047D01*
X90017857Y-97655952D01*
X89865476Y-97617857D01*
X89789285Y-97579761D01*
X89751190Y-97541666D01*
X89713095Y-97465476D01*
X89713095Y-97389285D01*
X89751190Y-97313095D01*
X89789285Y-97275000D01*
X89865476Y-97236904D01*
X90055952Y-97236904D01*
X90170238Y-97275000D01*
X89261904Y-90284523D02*
X89261904Y-90132142D01*
X89300000Y-90055952D01*
X89376190Y-89979761D01*
X89528571Y-89941666D01*
X89795238Y-89941666D01*
X89947619Y-89979761D01*
X90023809Y-90055952D01*
X90061904Y-90132142D01*
X90061904Y-90284523D01*
X90023809Y-90360714D01*
X89947619Y-90436904D01*
X89795238Y-90475000D01*
X89528571Y-90475000D01*
X89376190Y-90436904D01*
X89300000Y-90360714D01*
X89261904Y-90284523D01*
X90061904Y-89598809D02*
X89261904Y-89598809D01*
X90061904Y-89141666D01*
X89261904Y-89141666D01*
X89223809Y-88189285D02*
X90252380Y-88875000D01*
X89261904Y-87770238D02*
X89261904Y-87617857D01*
X89300000Y-87541666D01*
X89376190Y-87465476D01*
X89528571Y-87427380D01*
X89795238Y-87427380D01*
X89947619Y-87465476D01*
X90023809Y-87541666D01*
X90061904Y-87617857D01*
X90061904Y-87770238D01*
X90023809Y-87846428D01*
X89947619Y-87922619D01*
X89795238Y-87960714D01*
X89528571Y-87960714D01*
X89376190Y-87922619D01*
X89300000Y-87846428D01*
X89261904Y-87770238D01*
X89642857Y-86817857D02*
X89642857Y-87084523D01*
X90061904Y-87084523D02*
X89261904Y-87084523D01*
X89261904Y-86703571D01*
X89642857Y-86132142D02*
X89642857Y-86398809D01*
X90061904Y-86398809D02*
X89261904Y-86398809D01*
X89261904Y-86017857D01*
X90061904Y-84722619D02*
X90061904Y-85103571D01*
X89261904Y-85103571D01*
X89642857Y-84455952D02*
X89642857Y-84189285D01*
X90061904Y-84075000D02*
X90061904Y-84455952D01*
X89261904Y-84455952D01*
X89261904Y-84075000D01*
X90061904Y-83732142D02*
X89261904Y-83732142D01*
X89261904Y-83541666D01*
X89300000Y-83427380D01*
X89376190Y-83351190D01*
X89452380Y-83313095D01*
X89604761Y-83275000D01*
X89719047Y-83275000D01*
X89871428Y-83313095D01*
X89947619Y-83351190D01*
X90023809Y-83427380D01*
X90061904Y-83541666D01*
X90061904Y-83732142D01*
X99601190Y-76761904D02*
X100096428Y-76761904D01*
X99829761Y-77066666D01*
X99944047Y-77066666D01*
X100020238Y-77104761D01*
X100058333Y-77142857D01*
X100096428Y-77219047D01*
X100096428Y-77409523D01*
X100058333Y-77485714D01*
X100020238Y-77523809D01*
X99944047Y-77561904D01*
X99715476Y-77561904D01*
X99639285Y-77523809D01*
X99601190Y-77485714D01*
X100439285Y-77485714D02*
X100477380Y-77523809D01*
X100439285Y-77561904D01*
X100401190Y-77523809D01*
X100439285Y-77485714D01*
X100439285Y-77561904D01*
X100744047Y-76761904D02*
X101239285Y-76761904D01*
X100972619Y-77066666D01*
X101086904Y-77066666D01*
X101163095Y-77104761D01*
X101201190Y-77142857D01*
X101239285Y-77219047D01*
X101239285Y-77409523D01*
X101201190Y-77485714D01*
X101163095Y-77523809D01*
X101086904Y-77561904D01*
X100858333Y-77561904D01*
X100782142Y-77523809D01*
X100744047Y-77485714D01*
X101467857Y-76761904D02*
X101734523Y-77561904D01*
X102001190Y-76761904D01*
X102839285Y-77333333D02*
X103220238Y-77333333D01*
X102763095Y-77561904D02*
X103029761Y-76761904D01*
X103296428Y-77561904D01*
X103563095Y-77561904D02*
X103563095Y-77028571D01*
X103563095Y-77104761D02*
X103601190Y-77066666D01*
X103677380Y-77028571D01*
X103791666Y-77028571D01*
X103867857Y-77066666D01*
X103905952Y-77142857D01*
X103905952Y-77561904D01*
X103905952Y-77142857D02*
X103944047Y-77066666D01*
X104020238Y-77028571D01*
X104134523Y-77028571D01*
X104210714Y-77066666D01*
X104248809Y-77142857D01*
X104248809Y-77561904D01*
X104629761Y-77028571D02*
X104629761Y-77828571D01*
X104629761Y-77066666D02*
X104705952Y-77028571D01*
X104858333Y-77028571D01*
X104934523Y-77066666D01*
X104972619Y-77104761D01*
X105010714Y-77180952D01*
X105010714Y-77409523D01*
X104972619Y-77485714D01*
X104934523Y-77523809D01*
X104858333Y-77561904D01*
X104705952Y-77561904D01*
X104629761Y-77523809D01*
X100496428Y-78873809D02*
X100610714Y-78911904D01*
X100801190Y-78911904D01*
X100877380Y-78873809D01*
X100915476Y-78835714D01*
X100953571Y-78759523D01*
X100953571Y-78683333D01*
X100915476Y-78607142D01*
X100877380Y-78569047D01*
X100801190Y-78530952D01*
X100648809Y-78492857D01*
X100572619Y-78454761D01*
X100534523Y-78416666D01*
X100496428Y-78340476D01*
X100496428Y-78264285D01*
X100534523Y-78188095D01*
X100572619Y-78150000D01*
X100648809Y-78111904D01*
X100839285Y-78111904D01*
X100953571Y-78150000D01*
X101639285Y-78378571D02*
X101639285Y-78911904D01*
X101296428Y-78378571D02*
X101296428Y-78797619D01*
X101334523Y-78873809D01*
X101410714Y-78911904D01*
X101525000Y-78911904D01*
X101601190Y-78873809D01*
X101639285Y-78835714D01*
X102020238Y-78378571D02*
X102020238Y-79178571D01*
X102020238Y-78416666D02*
X102096428Y-78378571D01*
X102248809Y-78378571D01*
X102325000Y-78416666D01*
X102363095Y-78454761D01*
X102401190Y-78530952D01*
X102401190Y-78759523D01*
X102363095Y-78835714D01*
X102325000Y-78873809D01*
X102248809Y-78911904D01*
X102096428Y-78911904D01*
X102020238Y-78873809D01*
X102744047Y-78378571D02*
X102744047Y-79178571D01*
X102744047Y-78416666D02*
X102820238Y-78378571D01*
X102972619Y-78378571D01*
X103048809Y-78416666D01*
X103086904Y-78454761D01*
X103125000Y-78530952D01*
X103125000Y-78759523D01*
X103086904Y-78835714D01*
X103048809Y-78873809D01*
X102972619Y-78911904D01*
X102820238Y-78911904D01*
X102744047Y-78873809D01*
X103582142Y-78911904D02*
X103505952Y-78873809D01*
X103467857Y-78797619D01*
X103467857Y-78111904D01*
X103810714Y-78378571D02*
X104001190Y-78911904D01*
X104191666Y-78378571D02*
X104001190Y-78911904D01*
X103925000Y-79102380D01*
X103886904Y-79140476D01*
X103810714Y-79178571D01*
X137926190Y-90417857D02*
X138040476Y-90455952D01*
X138078571Y-90494047D01*
X138116666Y-90570238D01*
X138116666Y-90684523D01*
X138078571Y-90760714D01*
X138040476Y-90798809D01*
X137964285Y-90836904D01*
X137659523Y-90836904D01*
X137659523Y-90036904D01*
X137926190Y-90036904D01*
X138002380Y-90075000D01*
X138040476Y-90113095D01*
X138078571Y-90189285D01*
X138078571Y-90265476D01*
X138040476Y-90341666D01*
X138002380Y-90379761D01*
X137926190Y-90417857D01*
X137659523Y-90417857D01*
X138802380Y-90836904D02*
X138802380Y-90417857D01*
X138764285Y-90341666D01*
X138688095Y-90303571D01*
X138535714Y-90303571D01*
X138459523Y-90341666D01*
X138802380Y-90798809D02*
X138726190Y-90836904D01*
X138535714Y-90836904D01*
X138459523Y-90798809D01*
X138421428Y-90722619D01*
X138421428Y-90646428D01*
X138459523Y-90570238D01*
X138535714Y-90532142D01*
X138726190Y-90532142D01*
X138802380Y-90494047D01*
X139526190Y-90798809D02*
X139450000Y-90836904D01*
X139297619Y-90836904D01*
X139221428Y-90798809D01*
X139183333Y-90760714D01*
X139145238Y-90684523D01*
X139145238Y-90455952D01*
X139183333Y-90379761D01*
X139221428Y-90341666D01*
X139297619Y-90303571D01*
X139450000Y-90303571D01*
X139526190Y-90341666D01*
X139869047Y-90836904D02*
X139869047Y-90036904D01*
X139945238Y-90532142D02*
X140173809Y-90836904D01*
X140173809Y-90303571D02*
X139869047Y-90608333D01*
X140630952Y-90836904D02*
X140554761Y-90798809D01*
X140516666Y-90722619D01*
X140516666Y-90036904D01*
X140935714Y-90836904D02*
X140935714Y-90303571D01*
X140935714Y-90036904D02*
X140897619Y-90075000D01*
X140935714Y-90113095D01*
X140973809Y-90075000D01*
X140935714Y-90036904D01*
X140935714Y-90113095D01*
X141659523Y-90303571D02*
X141659523Y-90951190D01*
X141621428Y-91027380D01*
X141583333Y-91065476D01*
X141507142Y-91103571D01*
X141392857Y-91103571D01*
X141316666Y-91065476D01*
X141659523Y-90798809D02*
X141583333Y-90836904D01*
X141430952Y-90836904D01*
X141354761Y-90798809D01*
X141316666Y-90760714D01*
X141278571Y-90684523D01*
X141278571Y-90455952D01*
X141316666Y-90379761D01*
X141354761Y-90341666D01*
X141430952Y-90303571D01*
X141583333Y-90303571D01*
X141659523Y-90341666D01*
X142040476Y-90836904D02*
X142040476Y-90036904D01*
X142383333Y-90836904D02*
X142383333Y-90417857D01*
X142345238Y-90341666D01*
X142269047Y-90303571D01*
X142154761Y-90303571D01*
X142078571Y-90341666D01*
X142040476Y-90379761D01*
X142650000Y-90303571D02*
X142954761Y-90303571D01*
X142764285Y-90036904D02*
X142764285Y-90722619D01*
X142802380Y-90798809D01*
X142878571Y-90836904D01*
X142954761Y-90836904D01*
X136897619Y-91386904D02*
X137164285Y-92186904D01*
X137430952Y-91386904D01*
X138040476Y-92148809D02*
X137964285Y-92186904D01*
X137811904Y-92186904D01*
X137735714Y-92148809D01*
X137697619Y-92110714D01*
X137659523Y-92034523D01*
X137659523Y-91805952D01*
X137697619Y-91729761D01*
X137735714Y-91691666D01*
X137811904Y-91653571D01*
X137964285Y-91653571D01*
X138040476Y-91691666D01*
X138726190Y-92148809D02*
X138650000Y-92186904D01*
X138497619Y-92186904D01*
X138421428Y-92148809D01*
X138383333Y-92110714D01*
X138345238Y-92034523D01*
X138345238Y-91805952D01*
X138383333Y-91729761D01*
X138421428Y-91691666D01*
X138497619Y-91653571D01*
X138650000Y-91653571D01*
X138726190Y-91691666D01*
X139869047Y-92453571D02*
X139869047Y-91310714D01*
X141469047Y-91425000D02*
X141392857Y-91386904D01*
X141278571Y-91386904D01*
X141164285Y-91425000D01*
X141088095Y-91501190D01*
X141050000Y-91577380D01*
X141011904Y-91729761D01*
X141011904Y-91844047D01*
X141050000Y-91996428D01*
X141088095Y-92072619D01*
X141164285Y-92148809D01*
X141278571Y-92186904D01*
X141354761Y-92186904D01*
X141469047Y-92148809D01*
X141507142Y-92110714D01*
X141507142Y-91844047D01*
X141354761Y-91844047D01*
X141850000Y-92186904D02*
X141850000Y-91386904D01*
X142154761Y-91386904D01*
X142230952Y-91425000D01*
X142269047Y-91463095D01*
X142307142Y-91539285D01*
X142307142Y-91653571D01*
X142269047Y-91729761D01*
X142230952Y-91767857D01*
X142154761Y-91805952D01*
X141850000Y-91805952D01*
X142650000Y-92186904D02*
X142650000Y-91386904D01*
X143183333Y-91386904D02*
X143335714Y-91386904D01*
X143411904Y-91425000D01*
X143488095Y-91501190D01*
X143526190Y-91653571D01*
X143526190Y-91920238D01*
X143488095Y-92072619D01*
X143411904Y-92148809D01*
X143335714Y-92186904D01*
X143183333Y-92186904D01*
X143107142Y-92148809D01*
X143030952Y-92072619D01*
X142992857Y-91920238D01*
X142992857Y-91653571D01*
X143030952Y-91501190D01*
X143107142Y-91425000D01*
X143183333Y-91386904D01*
X92617857Y-78542857D02*
X92884523Y-78542857D01*
X92998809Y-78961904D02*
X92617857Y-78961904D01*
X92617857Y-78161904D01*
X92998809Y-78161904D01*
X93265476Y-78161904D02*
X93798809Y-78961904D01*
X93798809Y-78161904D02*
X93265476Y-78961904D01*
X93989285Y-78161904D02*
X94446428Y-78161904D01*
X94217857Y-78961904D02*
X94217857Y-78161904D01*
X91455952Y-79511904D02*
X91608333Y-79511904D01*
X91684523Y-79550000D01*
X91760714Y-79626190D01*
X91798809Y-79778571D01*
X91798809Y-80045238D01*
X91760714Y-80197619D01*
X91684523Y-80273809D01*
X91608333Y-80311904D01*
X91455952Y-80311904D01*
X91379761Y-80273809D01*
X91303571Y-80197619D01*
X91265476Y-80045238D01*
X91265476Y-79778571D01*
X91303571Y-79626190D01*
X91379761Y-79550000D01*
X91455952Y-79511904D01*
X92141666Y-80311904D02*
X92141666Y-79511904D01*
X92598809Y-80311904D01*
X92598809Y-79511904D01*
X93551190Y-79473809D02*
X92865476Y-80502380D01*
X93970238Y-79511904D02*
X94122619Y-79511904D01*
X94198809Y-79550000D01*
X94275000Y-79626190D01*
X94313095Y-79778571D01*
X94313095Y-80045238D01*
X94275000Y-80197619D01*
X94198809Y-80273809D01*
X94122619Y-80311904D01*
X93970238Y-80311904D01*
X93894047Y-80273809D01*
X93817857Y-80197619D01*
X93779761Y-80045238D01*
X93779761Y-79778571D01*
X93817857Y-79626190D01*
X93894047Y-79550000D01*
X93970238Y-79511904D01*
X94922619Y-79892857D02*
X94655952Y-79892857D01*
X94655952Y-80311904D02*
X94655952Y-79511904D01*
X95036904Y-79511904D01*
X95608333Y-79892857D02*
X95341666Y-79892857D01*
X95341666Y-80311904D02*
X95341666Y-79511904D01*
X95722619Y-79511904D01*
X92960714Y-81661904D02*
X92579761Y-81661904D01*
X92579761Y-80861904D01*
X93227380Y-81242857D02*
X93494047Y-81242857D01*
X93608333Y-81661904D02*
X93227380Y-81661904D01*
X93227380Y-80861904D01*
X93608333Y-80861904D01*
X93951190Y-81661904D02*
X93951190Y-80861904D01*
X94141666Y-80861904D01*
X94255952Y-80900000D01*
X94332142Y-80976190D01*
X94370238Y-81052380D01*
X94408333Y-81204761D01*
X94408333Y-81319047D01*
X94370238Y-81471428D01*
X94332142Y-81547619D01*
X94255952Y-81623809D01*
X94141666Y-81661904D01*
X93951190Y-81661904D01*
X126775000Y-82161904D02*
X126775000Y-81361904D01*
X126965476Y-81361904D01*
X127079761Y-81400000D01*
X127155952Y-81476190D01*
X127194047Y-81552380D01*
X127232142Y-81704761D01*
X127232142Y-81819047D01*
X127194047Y-81971428D01*
X127155952Y-82047619D01*
X127079761Y-82123809D01*
X126965476Y-82161904D01*
X126775000Y-82161904D01*
X127575000Y-82161904D02*
X127575000Y-81628571D01*
X127575000Y-81361904D02*
X127536904Y-81400000D01*
X127575000Y-81438095D01*
X127613095Y-81400000D01*
X127575000Y-81361904D01*
X127575000Y-81438095D01*
X127917857Y-82123809D02*
X127994047Y-82161904D01*
X128146428Y-82161904D01*
X128222619Y-82123809D01*
X128260714Y-82047619D01*
X128260714Y-82009523D01*
X128222619Y-81933333D01*
X128146428Y-81895238D01*
X128032142Y-81895238D01*
X127955952Y-81857142D01*
X127917857Y-81780952D01*
X127917857Y-81742857D01*
X127955952Y-81666666D01*
X128032142Y-81628571D01*
X128146428Y-81628571D01*
X128222619Y-81666666D01*
X128946428Y-82161904D02*
X128946428Y-81742857D01*
X128908333Y-81666666D01*
X128832142Y-81628571D01*
X128679761Y-81628571D01*
X128603571Y-81666666D01*
X128946428Y-82123809D02*
X128870238Y-82161904D01*
X128679761Y-82161904D01*
X128603571Y-82123809D01*
X128565476Y-82047619D01*
X128565476Y-81971428D01*
X128603571Y-81895238D01*
X128679761Y-81857142D01*
X128870238Y-81857142D01*
X128946428Y-81819047D01*
X129327380Y-82161904D02*
X129327380Y-81361904D01*
X129327380Y-81666666D02*
X129403571Y-81628571D01*
X129555952Y-81628571D01*
X129632142Y-81666666D01*
X129670238Y-81704761D01*
X129708333Y-81780952D01*
X129708333Y-82009523D01*
X129670238Y-82085714D01*
X129632142Y-82123809D01*
X129555952Y-82161904D01*
X129403571Y-82161904D01*
X129327380Y-82123809D01*
X130165476Y-82161904D02*
X130089285Y-82123809D01*
X130051190Y-82047619D01*
X130051190Y-81361904D01*
X130775000Y-82123809D02*
X130698809Y-82161904D01*
X130546428Y-82161904D01*
X130470238Y-82123809D01*
X130432142Y-82047619D01*
X130432142Y-81742857D01*
X130470238Y-81666666D01*
X130546428Y-81628571D01*
X130698809Y-81628571D01*
X130775000Y-81666666D01*
X130813095Y-81742857D01*
X130813095Y-81819047D01*
X130432142Y-81895238D01*
X126679761Y-82711904D02*
X126946428Y-83511904D01*
X127213095Y-82711904D01*
X127594047Y-83511904D02*
X127517857Y-83473809D01*
X127479761Y-83435714D01*
X127441666Y-83359523D01*
X127441666Y-83130952D01*
X127479761Y-83054761D01*
X127517857Y-83016666D01*
X127594047Y-82978571D01*
X127708333Y-82978571D01*
X127784523Y-83016666D01*
X127822619Y-83054761D01*
X127860714Y-83130952D01*
X127860714Y-83359523D01*
X127822619Y-83435714D01*
X127784523Y-83473809D01*
X127708333Y-83511904D01*
X127594047Y-83511904D01*
X128317857Y-83511904D02*
X128241666Y-83473809D01*
X128203571Y-83397619D01*
X128203571Y-82711904D01*
X129232142Y-82978571D02*
X129232142Y-83778571D01*
X129232142Y-83016666D02*
X129308333Y-82978571D01*
X129460714Y-82978571D01*
X129536904Y-83016666D01*
X129575000Y-83054761D01*
X129613095Y-83130952D01*
X129613095Y-83359523D01*
X129575000Y-83435714D01*
X129536904Y-83473809D01*
X129460714Y-83511904D01*
X129308333Y-83511904D01*
X129232142Y-83473809D01*
X130070238Y-83511904D02*
X129994047Y-83473809D01*
X129955952Y-83435714D01*
X129917857Y-83359523D01*
X129917857Y-83130952D01*
X129955952Y-83054761D01*
X129994047Y-83016666D01*
X130070238Y-82978571D01*
X130184523Y-82978571D01*
X130260714Y-83016666D01*
X130298809Y-83054761D01*
X130336904Y-83130952D01*
X130336904Y-83359523D01*
X130298809Y-83435714D01*
X130260714Y-83473809D01*
X130184523Y-83511904D01*
X130070238Y-83511904D01*
X130565476Y-82978571D02*
X130870238Y-82978571D01*
X130679761Y-82711904D02*
X130679761Y-83397619D01*
X130717857Y-83473809D01*
X130794047Y-83511904D01*
X130870238Y-83511904D01*
X101367857Y-79611904D02*
X100986904Y-79611904D01*
X100948809Y-79992857D01*
X100986904Y-79954761D01*
X101063095Y-79916666D01*
X101253571Y-79916666D01*
X101329761Y-79954761D01*
X101367857Y-79992857D01*
X101405952Y-80069047D01*
X101405952Y-80259523D01*
X101367857Y-80335714D01*
X101329761Y-80373809D01*
X101253571Y-80411904D01*
X101063095Y-80411904D01*
X100986904Y-80373809D01*
X100948809Y-80335714D01*
X101672619Y-79878571D02*
X101863095Y-80411904D01*
X102053571Y-79878571D01*
X102929761Y-80183333D02*
X103310714Y-80183333D01*
X102853571Y-80411904D02*
X103120238Y-79611904D01*
X103386904Y-80411904D01*
X103653571Y-80411904D02*
X103653571Y-79878571D01*
X103653571Y-79954761D02*
X103691666Y-79916666D01*
X103767857Y-79878571D01*
X103882142Y-79878571D01*
X103958333Y-79916666D01*
X103996428Y-79992857D01*
X103996428Y-80411904D01*
X103996428Y-79992857D02*
X104034523Y-79916666D01*
X104110714Y-79878571D01*
X104225000Y-79878571D01*
X104301190Y-79916666D01*
X104339285Y-79992857D01*
X104339285Y-80411904D01*
X104720238Y-79878571D02*
X104720238Y-80678571D01*
X104720238Y-79916666D02*
X104796428Y-79878571D01*
X104948809Y-79878571D01*
X105025000Y-79916666D01*
X105063095Y-79954761D01*
X105101190Y-80030952D01*
X105101190Y-80259523D01*
X105063095Y-80335714D01*
X105025000Y-80373809D01*
X104948809Y-80411904D01*
X104796428Y-80411904D01*
X104720238Y-80373809D01*
X101196428Y-81723809D02*
X101310714Y-81761904D01*
X101501190Y-81761904D01*
X101577380Y-81723809D01*
X101615476Y-81685714D01*
X101653571Y-81609523D01*
X101653571Y-81533333D01*
X101615476Y-81457142D01*
X101577380Y-81419047D01*
X101501190Y-81380952D01*
X101348809Y-81342857D01*
X101272619Y-81304761D01*
X101234523Y-81266666D01*
X101196428Y-81190476D01*
X101196428Y-81114285D01*
X101234523Y-81038095D01*
X101272619Y-81000000D01*
X101348809Y-80961904D01*
X101539285Y-80961904D01*
X101653571Y-81000000D01*
X102339285Y-81228571D02*
X102339285Y-81761904D01*
X101996428Y-81228571D02*
X101996428Y-81647619D01*
X102034523Y-81723809D01*
X102110714Y-81761904D01*
X102225000Y-81761904D01*
X102301190Y-81723809D01*
X102339285Y-81685714D01*
X102720238Y-81228571D02*
X102720238Y-82028571D01*
X102720238Y-81266666D02*
X102796428Y-81228571D01*
X102948809Y-81228571D01*
X103025000Y-81266666D01*
X103063095Y-81304761D01*
X103101190Y-81380952D01*
X103101190Y-81609523D01*
X103063095Y-81685714D01*
X103025000Y-81723809D01*
X102948809Y-81761904D01*
X102796428Y-81761904D01*
X102720238Y-81723809D01*
X103444047Y-81228571D02*
X103444047Y-82028571D01*
X103444047Y-81266666D02*
X103520238Y-81228571D01*
X103672619Y-81228571D01*
X103748809Y-81266666D01*
X103786904Y-81304761D01*
X103825000Y-81380952D01*
X103825000Y-81609523D01*
X103786904Y-81685714D01*
X103748809Y-81723809D01*
X103672619Y-81761904D01*
X103520238Y-81761904D01*
X103444047Y-81723809D01*
X104282142Y-81761904D02*
X104205952Y-81723809D01*
X104167857Y-81647619D01*
X104167857Y-80961904D01*
X104510714Y-81228571D02*
X104701190Y-81761904D01*
X104891666Y-81228571D02*
X104701190Y-81761904D01*
X104625000Y-81952380D01*
X104586904Y-81990476D01*
X104510714Y-82028571D01*
X151128571Y-77200000D02*
X151052380Y-77161904D01*
X150938095Y-77161904D01*
X150823809Y-77200000D01*
X150747619Y-77276190D01*
X150709523Y-77352380D01*
X150671428Y-77504761D01*
X150671428Y-77619047D01*
X150709523Y-77771428D01*
X150747619Y-77847619D01*
X150823809Y-77923809D01*
X150938095Y-77961904D01*
X151014285Y-77961904D01*
X151128571Y-77923809D01*
X151166666Y-77885714D01*
X151166666Y-77619047D01*
X151014285Y-77619047D01*
X151509523Y-77961904D02*
X151509523Y-77161904D01*
X151814285Y-77161904D01*
X151890476Y-77200000D01*
X151928571Y-77238095D01*
X151966666Y-77314285D01*
X151966666Y-77428571D01*
X151928571Y-77504761D01*
X151890476Y-77542857D01*
X151814285Y-77580952D01*
X151509523Y-77580952D01*
X152576190Y-77542857D02*
X152690476Y-77580952D01*
X152728571Y-77619047D01*
X152766666Y-77695238D01*
X152766666Y-77809523D01*
X152728571Y-77885714D01*
X152690476Y-77923809D01*
X152614285Y-77961904D01*
X152309523Y-77961904D01*
X152309523Y-77161904D01*
X152576190Y-77161904D01*
X152652380Y-77200000D01*
X152690476Y-77238095D01*
X152728571Y-77314285D01*
X152728571Y-77390476D01*
X152690476Y-77466666D01*
X152652380Y-77504761D01*
X152576190Y-77542857D01*
X152309523Y-77542857D01*
X153033333Y-77161904D02*
X153566666Y-77161904D01*
X153223809Y-77961904D01*
X151078571Y-99100000D02*
X151002380Y-99061904D01*
X150888095Y-99061904D01*
X150773809Y-99100000D01*
X150697619Y-99176190D01*
X150659523Y-99252380D01*
X150621428Y-99404761D01*
X150621428Y-99519047D01*
X150659523Y-99671428D01*
X150697619Y-99747619D01*
X150773809Y-99823809D01*
X150888095Y-99861904D01*
X150964285Y-99861904D01*
X151078571Y-99823809D01*
X151116666Y-99785714D01*
X151116666Y-99519047D01*
X150964285Y-99519047D01*
X151459523Y-99861904D02*
X151459523Y-99061904D01*
X151764285Y-99061904D01*
X151840476Y-99100000D01*
X151878571Y-99138095D01*
X151916666Y-99214285D01*
X151916666Y-99328571D01*
X151878571Y-99404761D01*
X151840476Y-99442857D01*
X151764285Y-99480952D01*
X151459523Y-99480952D01*
X152526190Y-99442857D02*
X152640476Y-99480952D01*
X152678571Y-99519047D01*
X152716666Y-99595238D01*
X152716666Y-99709523D01*
X152678571Y-99785714D01*
X152640476Y-99823809D01*
X152564285Y-99861904D01*
X152259523Y-99861904D01*
X152259523Y-99061904D01*
X152526190Y-99061904D01*
X152602380Y-99100000D01*
X152640476Y-99138095D01*
X152678571Y-99214285D01*
X152678571Y-99290476D01*
X152640476Y-99366666D01*
X152602380Y-99404761D01*
X152526190Y-99442857D01*
X152259523Y-99442857D01*
X153211904Y-99061904D02*
X153288095Y-99061904D01*
X153364285Y-99100000D01*
X153402380Y-99138095D01*
X153440476Y-99214285D01*
X153478571Y-99366666D01*
X153478571Y-99557142D01*
X153440476Y-99709523D01*
X153402380Y-99785714D01*
X153364285Y-99823809D01*
X153288095Y-99861904D01*
X153211904Y-99861904D01*
X153135714Y-99823809D01*
X153097619Y-99785714D01*
X153059523Y-99709523D01*
X153021428Y-99557142D01*
X153021428Y-99366666D01*
X153059523Y-99214285D01*
X153097619Y-99138095D01*
X153135714Y-99100000D01*
X153211904Y-99061904D01*
X85395238Y-138107142D02*
X86004761Y-138107142D01*
X87945238Y-138107142D02*
X88554761Y-138107142D01*
X88250000Y-138411904D02*
X88250000Y-137802380D01*
X82517857Y-143467857D02*
X82632142Y-143505952D01*
X82670238Y-143544047D01*
X82708333Y-143620238D01*
X82708333Y-143734523D01*
X82670238Y-143810714D01*
X82632142Y-143848809D01*
X82555952Y-143886904D01*
X82251190Y-143886904D01*
X82251190Y-143086904D01*
X82517857Y-143086904D01*
X82594047Y-143125000D01*
X82632142Y-143163095D01*
X82670238Y-143239285D01*
X82670238Y-143315476D01*
X82632142Y-143391666D01*
X82594047Y-143429761D01*
X82517857Y-143467857D01*
X82251190Y-143467857D01*
X83394047Y-143886904D02*
X83394047Y-143467857D01*
X83355952Y-143391666D01*
X83279761Y-143353571D01*
X83127380Y-143353571D01*
X83051190Y-143391666D01*
X83394047Y-143848809D02*
X83317857Y-143886904D01*
X83127380Y-143886904D01*
X83051190Y-143848809D01*
X83013095Y-143772619D01*
X83013095Y-143696428D01*
X83051190Y-143620238D01*
X83127380Y-143582142D01*
X83317857Y-143582142D01*
X83394047Y-143544047D01*
X83660714Y-143353571D02*
X83965476Y-143353571D01*
X83775000Y-143086904D02*
X83775000Y-143772619D01*
X83813095Y-143848809D01*
X83889285Y-143886904D01*
X83965476Y-143886904D01*
X84117857Y-143353571D02*
X84422619Y-143353571D01*
X84232142Y-143086904D02*
X84232142Y-143772619D01*
X84270238Y-143848809D01*
X84346428Y-143886904D01*
X84422619Y-143886904D01*
X84994047Y-143848809D02*
X84917857Y-143886904D01*
X84765476Y-143886904D01*
X84689285Y-143848809D01*
X84651190Y-143772619D01*
X84651190Y-143467857D01*
X84689285Y-143391666D01*
X84765476Y-143353571D01*
X84917857Y-143353571D01*
X84994047Y-143391666D01*
X85032142Y-143467857D01*
X85032142Y-143544047D01*
X84651190Y-143620238D01*
X85375000Y-143886904D02*
X85375000Y-143353571D01*
X85375000Y-143505952D02*
X85413095Y-143429761D01*
X85451190Y-143391666D01*
X85527380Y-143353571D01*
X85603571Y-143353571D01*
X85794047Y-143353571D02*
X85984523Y-143886904D01*
X86175000Y-143353571D02*
X85984523Y-143886904D01*
X85908333Y-144077380D01*
X85870238Y-144115476D01*
X85794047Y-144153571D01*
D11*
X89386740Y-145130444D02*
X90066969Y-144798226D01*
X89955779Y-143762420D02*
G75*
G03X89395456Y-145030826I3562685J-2331795D01*
G01*
X89386740Y-145130444D02*
X89034786Y-144441717D01*
D10*
X94947619Y-146910714D02*
X94909523Y-146948809D01*
X94795238Y-146986904D01*
X94719047Y-146986904D01*
X94604761Y-146948809D01*
X94528571Y-146872619D01*
X94490476Y-146796428D01*
X94452380Y-146644047D01*
X94452380Y-146529761D01*
X94490476Y-146377380D01*
X94528571Y-146301190D01*
X94604761Y-146225000D01*
X94719047Y-146186904D01*
X94795238Y-146186904D01*
X94909523Y-146225000D01*
X94947619Y-146263095D01*
X95404761Y-146986904D02*
X95328571Y-146948809D01*
X95290476Y-146910714D01*
X95252380Y-146834523D01*
X95252380Y-146605952D01*
X95290476Y-146529761D01*
X95328571Y-146491666D01*
X95404761Y-146453571D01*
X95519047Y-146453571D01*
X95595238Y-146491666D01*
X95633333Y-146529761D01*
X95671428Y-146605952D01*
X95671428Y-146834523D01*
X95633333Y-146910714D01*
X95595238Y-146948809D01*
X95519047Y-146986904D01*
X95404761Y-146986904D01*
X96014285Y-146453571D02*
X96014285Y-146986904D01*
X96014285Y-146529761D02*
X96052380Y-146491666D01*
X96128571Y-146453571D01*
X96242857Y-146453571D01*
X96319047Y-146491666D01*
X96357142Y-146567857D01*
X96357142Y-146986904D01*
X96738095Y-146453571D02*
X96738095Y-146986904D01*
X96738095Y-146529761D02*
X96776190Y-146491666D01*
X96852380Y-146453571D01*
X96966666Y-146453571D01*
X97042857Y-146491666D01*
X97080952Y-146567857D01*
X97080952Y-146986904D01*
X97766666Y-146948809D02*
X97690476Y-146986904D01*
X97538095Y-146986904D01*
X97461904Y-146948809D01*
X97423809Y-146872619D01*
X97423809Y-146567857D01*
X97461904Y-146491666D01*
X97538095Y-146453571D01*
X97690476Y-146453571D01*
X97766666Y-146491666D01*
X97804761Y-146567857D01*
X97804761Y-146644047D01*
X97423809Y-146720238D01*
X98490476Y-146948809D02*
X98414285Y-146986904D01*
X98261904Y-146986904D01*
X98185714Y-146948809D01*
X98147619Y-146910714D01*
X98109523Y-146834523D01*
X98109523Y-146605952D01*
X98147619Y-146529761D01*
X98185714Y-146491666D01*
X98261904Y-146453571D01*
X98414285Y-146453571D01*
X98490476Y-146491666D01*
X98719047Y-146453571D02*
X99023809Y-146453571D01*
X98833333Y-146186904D02*
X98833333Y-146872619D01*
X98871428Y-146948809D01*
X98947619Y-146986904D01*
X99023809Y-146986904D01*
X95480952Y-147917857D02*
X95595238Y-147955952D01*
X95633333Y-147994047D01*
X95671428Y-148070238D01*
X95671428Y-148184523D01*
X95633333Y-148260714D01*
X95595238Y-148298809D01*
X95519047Y-148336904D01*
X95214285Y-148336904D01*
X95214285Y-147536904D01*
X95480952Y-147536904D01*
X95557142Y-147575000D01*
X95595238Y-147613095D01*
X95633333Y-147689285D01*
X95633333Y-147765476D01*
X95595238Y-147841666D01*
X95557142Y-147879761D01*
X95480952Y-147917857D01*
X95214285Y-147917857D01*
X96128571Y-148336904D02*
X96052380Y-148298809D01*
X96014285Y-148260714D01*
X95976190Y-148184523D01*
X95976190Y-147955952D01*
X96014285Y-147879761D01*
X96052380Y-147841666D01*
X96128571Y-147803571D01*
X96242857Y-147803571D01*
X96319047Y-147841666D01*
X96357142Y-147879761D01*
X96395238Y-147955952D01*
X96395238Y-148184523D01*
X96357142Y-148260714D01*
X96319047Y-148298809D01*
X96242857Y-148336904D01*
X96128571Y-148336904D01*
X96852380Y-148336904D02*
X96776190Y-148298809D01*
X96738095Y-148260714D01*
X96700000Y-148184523D01*
X96700000Y-147955952D01*
X96738095Y-147879761D01*
X96776190Y-147841666D01*
X96852380Y-147803571D01*
X96966666Y-147803571D01*
X97042857Y-147841666D01*
X97080952Y-147879761D01*
X97119047Y-147955952D01*
X97119047Y-148184523D01*
X97080952Y-148260714D01*
X97042857Y-148298809D01*
X96966666Y-148336904D01*
X96852380Y-148336904D01*
X97423809Y-148298809D02*
X97500000Y-148336904D01*
X97652380Y-148336904D01*
X97728571Y-148298809D01*
X97766666Y-148222619D01*
X97766666Y-148184523D01*
X97728571Y-148108333D01*
X97652380Y-148070238D01*
X97538095Y-148070238D01*
X97461904Y-148032142D01*
X97423809Y-147955952D01*
X97423809Y-147917857D01*
X97461904Y-147841666D01*
X97538095Y-147803571D01*
X97652380Y-147803571D01*
X97728571Y-147841666D01*
X97995238Y-147803571D02*
X98300000Y-147803571D01*
X98109523Y-147536904D02*
X98109523Y-148222619D01*
X98147619Y-148298809D01*
X98223809Y-148336904D01*
X98300000Y-148336904D01*
D11*
X112108215Y-140216587D02*
G75*
G03X110865917Y-141132185I1853992J-3816110D01*
G01*
X110865917Y-141132185D02*
X111621120Y-141184589D01*
X110865917Y-141132185D02*
X110905478Y-140359752D01*
X110498049Y-145099085D02*
G75*
G03X110095353Y-146946964I3855049J-1807921D01*
G01*
X110112717Y-147045443D02*
X109594500Y-146471276D01*
X110112717Y-147045443D02*
X110683783Y-146548489D01*
D10*
X95491666Y-149535714D02*
X95453571Y-149573809D01*
X95339285Y-149611904D01*
X95263095Y-149611904D01*
X95148809Y-149573809D01*
X95072619Y-149497619D01*
X95034523Y-149421428D01*
X94996428Y-149269047D01*
X94996428Y-149154761D01*
X95034523Y-149002380D01*
X95072619Y-148926190D01*
X95148809Y-148850000D01*
X95263095Y-148811904D01*
X95339285Y-148811904D01*
X95453571Y-148850000D01*
X95491666Y-148888095D01*
X95834523Y-149611904D02*
X95834523Y-148811904D01*
X96177380Y-149611904D02*
X96177380Y-149192857D01*
X96139285Y-149116666D01*
X96063095Y-149078571D01*
X95948809Y-149078571D01*
X95872619Y-149116666D01*
X95834523Y-149154761D01*
X96901190Y-149611904D02*
X96901190Y-149192857D01*
X96863095Y-149116666D01*
X96786904Y-149078571D01*
X96634523Y-149078571D01*
X96558333Y-149116666D01*
X96901190Y-149573809D02*
X96825000Y-149611904D01*
X96634523Y-149611904D01*
X96558333Y-149573809D01*
X96520238Y-149497619D01*
X96520238Y-149421428D01*
X96558333Y-149345238D01*
X96634523Y-149307142D01*
X96825000Y-149307142D01*
X96901190Y-149269047D01*
X97282142Y-149611904D02*
X97282142Y-149078571D01*
X97282142Y-149230952D02*
X97320238Y-149154761D01*
X97358333Y-149116666D01*
X97434523Y-149078571D01*
X97510714Y-149078571D01*
X98120238Y-149078571D02*
X98120238Y-149726190D01*
X98082142Y-149802380D01*
X98044047Y-149840476D01*
X97967857Y-149878571D01*
X97853571Y-149878571D01*
X97777380Y-149840476D01*
X98120238Y-149573809D02*
X98044047Y-149611904D01*
X97891666Y-149611904D01*
X97815476Y-149573809D01*
X97777380Y-149535714D01*
X97739285Y-149459523D01*
X97739285Y-149230952D01*
X97777380Y-149154761D01*
X97815476Y-149116666D01*
X97891666Y-149078571D01*
X98044047Y-149078571D01*
X98120238Y-149116666D01*
X98805952Y-149573809D02*
X98729761Y-149611904D01*
X98577380Y-149611904D01*
X98501190Y-149573809D01*
X98463095Y-149497619D01*
X98463095Y-149192857D01*
X98501190Y-149116666D01*
X98577380Y-149078571D01*
X98729761Y-149078571D01*
X98805952Y-149116666D01*
X98844047Y-149192857D01*
X98844047Y-149269047D01*
X98463095Y-149345238D01*
X96082142Y-150961904D02*
X95701190Y-150961904D01*
X95701190Y-150161904D01*
X96348809Y-150542857D02*
X96615476Y-150542857D01*
X96729761Y-150961904D02*
X96348809Y-150961904D01*
X96348809Y-150161904D01*
X96729761Y-150161904D01*
X97072619Y-150961904D02*
X97072619Y-150161904D01*
X97263095Y-150161904D01*
X97377380Y-150200000D01*
X97453571Y-150276190D01*
X97491666Y-150352380D01*
X97529761Y-150504761D01*
X97529761Y-150619047D01*
X97491666Y-150771428D01*
X97453571Y-150847619D01*
X97377380Y-150923809D01*
X97263095Y-150961904D01*
X97072619Y-150961904D01*
X97834523Y-150923809D02*
X97910714Y-150961904D01*
X98063095Y-150961904D01*
X98139285Y-150923809D01*
X98177380Y-150847619D01*
X98177380Y-150809523D01*
X98139285Y-150733333D01*
X98063095Y-150695238D01*
X97948809Y-150695238D01*
X97872619Y-150657142D01*
X97834523Y-150580952D01*
X97834523Y-150542857D01*
X97872619Y-150466666D01*
X97948809Y-150428571D01*
X98063095Y-150428571D01*
X98139285Y-150466666D01*
D12*
X124300000Y-137230000D02*
X124410000Y-136750000D01*
X123980000Y-137220000D02*
X124130000Y-136620000D01*
X123520000Y-136780000D02*
X124490000Y-137010000D01*
D10*
X123773809Y-142184523D02*
X123811904Y-142070238D01*
X123811904Y-141879761D01*
X123773809Y-141803571D01*
X123735714Y-141765476D01*
X123659523Y-141727380D01*
X123583333Y-141727380D01*
X123507142Y-141765476D01*
X123469047Y-141803571D01*
X123430952Y-141879761D01*
X123392857Y-142032142D01*
X123354761Y-142108333D01*
X123316666Y-142146428D01*
X123240476Y-142184523D01*
X123164285Y-142184523D01*
X123088095Y-142146428D01*
X123050000Y-142108333D01*
X123011904Y-142032142D01*
X123011904Y-141841666D01*
X123050000Y-141727380D01*
X123278571Y-141384523D02*
X124078571Y-141384523D01*
X123316666Y-141384523D02*
X123278571Y-141308333D01*
X123278571Y-141155952D01*
X123316666Y-141079761D01*
X123354761Y-141041666D01*
X123430952Y-141003571D01*
X123659523Y-141003571D01*
X123735714Y-141041666D01*
X123773809Y-141079761D01*
X123811904Y-141155952D01*
X123811904Y-141308333D01*
X123773809Y-141384523D01*
X123773809Y-140355952D02*
X123811904Y-140432142D01*
X123811904Y-140584523D01*
X123773809Y-140660714D01*
X123697619Y-140698809D01*
X123392857Y-140698809D01*
X123316666Y-140660714D01*
X123278571Y-140584523D01*
X123278571Y-140432142D01*
X123316666Y-140355952D01*
X123392857Y-140317857D01*
X123469047Y-140317857D01*
X123545238Y-140698809D01*
X123811904Y-139632142D02*
X123392857Y-139632142D01*
X123316666Y-139670238D01*
X123278571Y-139746428D01*
X123278571Y-139898809D01*
X123316666Y-139975000D01*
X123773809Y-139632142D02*
X123811904Y-139708333D01*
X123811904Y-139898809D01*
X123773809Y-139975000D01*
X123697619Y-140013095D01*
X123621428Y-140013095D01*
X123545238Y-139975000D01*
X123507142Y-139898809D01*
X123507142Y-139708333D01*
X123469047Y-139632142D01*
X123811904Y-139251190D02*
X123011904Y-139251190D01*
X123507142Y-139175000D02*
X123811904Y-138946428D01*
X123278571Y-138946428D02*
X123583333Y-139251190D01*
X123773809Y-138298809D02*
X123811904Y-138375000D01*
X123811904Y-138527380D01*
X123773809Y-138603571D01*
X123697619Y-138641666D01*
X123392857Y-138641666D01*
X123316666Y-138603571D01*
X123278571Y-138527380D01*
X123278571Y-138375000D01*
X123316666Y-138298809D01*
X123392857Y-138260714D01*
X123469047Y-138260714D01*
X123545238Y-138641666D01*
X123811904Y-137917857D02*
X123278571Y-137917857D01*
X123430952Y-137917857D02*
X123354761Y-137879761D01*
X123316666Y-137841666D01*
X123278571Y-137765476D01*
X123278571Y-137689285D01*
X123200122Y-97203687D02*
X123447741Y-96774798D01*
X123578339Y-97158119D01*
X123635482Y-97059145D01*
X123706569Y-97012209D01*
X123758608Y-96998266D01*
X123843638Y-97003369D01*
X124008595Y-97098607D01*
X124055531Y-97169694D01*
X124069474Y-97221733D01*
X124064371Y-97306764D01*
X123950085Y-97504712D01*
X123878998Y-97551648D01*
X123826959Y-97565591D01*
X124246007Y-96839780D02*
X124298046Y-96825836D01*
X124311990Y-96877875D01*
X124259951Y-96891819D01*
X124246007Y-96839780D01*
X124311990Y-96877875D01*
X123771550Y-96213943D02*
X124019169Y-95785055D01*
X124149768Y-96168376D01*
X124206910Y-96069401D01*
X124277997Y-96022466D01*
X124330036Y-96008522D01*
X124415067Y-96013626D01*
X124580024Y-96108864D01*
X124626959Y-96179951D01*
X124640903Y-96231990D01*
X124635799Y-96317020D01*
X124521513Y-96514969D01*
X124450427Y-96561904D01*
X124398388Y-96575848D01*
X124133455Y-95587106D02*
X124959609Y-95756166D01*
X124400122Y-95125226D01*
X121148827Y-96477863D02*
X121077741Y-96524798D01*
X121020598Y-96623772D01*
X120996446Y-96741794D01*
X121024334Y-96845872D01*
X121071269Y-96916959D01*
X121184188Y-97026141D01*
X121283162Y-97083284D01*
X121434175Y-97126483D01*
X121519206Y-97131587D01*
X121623284Y-97103699D01*
X121713418Y-97023772D01*
X121751513Y-96957789D01*
X121775665Y-96839767D01*
X121761721Y-96787728D01*
X121530781Y-96654395D01*
X121454590Y-96786361D01*
X121999133Y-96528901D02*
X121306312Y-96128901D01*
X122227704Y-96133003D01*
X121534884Y-95733003D01*
X122418180Y-95803089D02*
X121725360Y-95403089D01*
X121820598Y-95238132D01*
X121910732Y-95158205D01*
X122014810Y-95130317D01*
X122099841Y-95135421D01*
X122250854Y-95178620D01*
X122349829Y-95235763D01*
X122462747Y-95344945D01*
X122509682Y-95416031D01*
X122537570Y-95520110D01*
X122513418Y-95638132D01*
X122418180Y-95803089D01*
X119630769Y-96008327D02*
X119644712Y-96060366D01*
X119620561Y-96178388D01*
X119582466Y-96244371D01*
X119492332Y-96324297D01*
X119388253Y-96352185D01*
X119303223Y-96347081D01*
X119152210Y-96303882D01*
X119053235Y-96246739D01*
X118940317Y-96137557D01*
X118893382Y-96066471D01*
X118865494Y-95962393D01*
X118889646Y-95844371D01*
X118927741Y-95778388D01*
X119017875Y-95698461D01*
X119069914Y-95684517D01*
X119816141Y-95763443D02*
X119906275Y-95683516D01*
X120001513Y-95518559D01*
X120006617Y-95433528D01*
X119992673Y-95381489D01*
X119945738Y-95310403D01*
X119879755Y-95272307D01*
X119794725Y-95267204D01*
X119742686Y-95281147D01*
X119671599Y-95328083D01*
X119562417Y-95441001D01*
X119491330Y-95487936D01*
X119439291Y-95501880D01*
X119354261Y-95496776D01*
X119288278Y-95458681D01*
X119241343Y-95387594D01*
X119227399Y-95335555D01*
X119232503Y-95250525D01*
X119327741Y-95085567D01*
X119417875Y-95005641D01*
X116032466Y-98187191D02*
X115569218Y-98227655D01*
X115803894Y-98583088D02*
X115111074Y-98183088D01*
X115263455Y-97919157D01*
X115334542Y-97872221D01*
X115386581Y-97858278D01*
X115471611Y-97863381D01*
X115570586Y-97920524D01*
X115617521Y-97991611D01*
X115631465Y-98043650D01*
X115626361Y-98128681D01*
X115473980Y-98392612D01*
X115840989Y-97680744D02*
X115974322Y-97449804D01*
X116394371Y-97560353D02*
X116203894Y-97890268D01*
X115511074Y-97490268D01*
X115701550Y-97160353D01*
X116513760Y-97277374D02*
X116603894Y-97197448D01*
X116699133Y-97032490D01*
X116704236Y-96947460D01*
X116690292Y-96895421D01*
X116643357Y-96824334D01*
X116577374Y-96786239D01*
X116492344Y-96781135D01*
X116440305Y-96795079D01*
X116369218Y-96842014D01*
X116260036Y-96954932D01*
X116188949Y-97001868D01*
X116136910Y-97015811D01*
X116051880Y-97010708D01*
X115985897Y-96972612D01*
X115938962Y-96901526D01*
X115925018Y-96849487D01*
X115930122Y-96764456D01*
X116025360Y-96599499D01*
X116115494Y-96519572D01*
X116583846Y-96394078D02*
X116717179Y-96163138D01*
X117137228Y-96273687D02*
X116946752Y-96603602D01*
X116253931Y-96203602D01*
X116444407Y-95873687D01*
X116558693Y-95675739D02*
X116787265Y-95279841D01*
X117365799Y-95877790D02*
X116672979Y-95477790D01*
X114408656Y-96558815D02*
X113715836Y-96158815D01*
X113811074Y-95993858D01*
X113901208Y-95913931D01*
X114005287Y-95886043D01*
X114090317Y-95891147D01*
X114241330Y-95934346D01*
X114340305Y-95991489D01*
X114453223Y-96100671D01*
X114500158Y-96171758D01*
X114528046Y-96275836D01*
X114503894Y-96393858D01*
X114408656Y-96558815D01*
X114971245Y-95432002D02*
X114985189Y-95484041D01*
X114961037Y-95602063D01*
X114922942Y-95668046D01*
X114832808Y-95747973D01*
X114728730Y-95775860D01*
X114643699Y-95770757D01*
X114492686Y-95727558D01*
X114393711Y-95670415D01*
X114280793Y-95561233D01*
X114233858Y-95490146D01*
X114205970Y-95386068D01*
X114230122Y-95268046D01*
X114268217Y-95202063D01*
X114358351Y-95122136D01*
X114410390Y-95108193D01*
X110784847Y-97894670D02*
X110092026Y-97494670D01*
X110720231Y-97549444D01*
X110358693Y-97032789D01*
X111051513Y-97432789D01*
X110625360Y-96570909D02*
X110701550Y-96438943D01*
X110772637Y-96392008D01*
X110876715Y-96364120D01*
X111027728Y-96407319D01*
X111258669Y-96540653D01*
X111371587Y-96649835D01*
X111399474Y-96753913D01*
X111394371Y-96838943D01*
X111318180Y-96970909D01*
X111247093Y-97017844D01*
X111143015Y-97045732D01*
X110992002Y-97002533D01*
X110761062Y-96869200D01*
X110648144Y-96760018D01*
X110620256Y-96655940D01*
X110625360Y-96570909D01*
X111608998Y-96391007D02*
X111699133Y-96311080D01*
X111794371Y-96146123D01*
X111799474Y-96061092D01*
X111785531Y-96009053D01*
X111738595Y-95937967D01*
X111672612Y-95899872D01*
X111587582Y-95894768D01*
X111535543Y-95908712D01*
X111464456Y-95955647D01*
X111355274Y-96068565D01*
X111284188Y-96115500D01*
X111232148Y-96129444D01*
X111147118Y-96124340D01*
X111081135Y-96086245D01*
X111034200Y-96015158D01*
X111020256Y-95963119D01*
X111025360Y-95878089D01*
X111120598Y-95713132D01*
X111210732Y-95633205D01*
X112041990Y-95717234D02*
X111349169Y-95317234D01*
X108716141Y-97402673D02*
X108806275Y-97322747D01*
X108901513Y-97157789D01*
X108906617Y-97072759D01*
X108892673Y-97020720D01*
X108845738Y-96949633D01*
X108779755Y-96911538D01*
X108694725Y-96906434D01*
X108642686Y-96920378D01*
X108571599Y-96967313D01*
X108462417Y-97080231D01*
X108391330Y-97127167D01*
X108339291Y-97141110D01*
X108254261Y-97136007D01*
X108188278Y-97097911D01*
X108141343Y-97026825D01*
X108127399Y-96974786D01*
X108132503Y-96889755D01*
X108227741Y-96724798D01*
X108317875Y-96644871D01*
X109311721Y-96294908D02*
X109325665Y-96346947D01*
X109301513Y-96464969D01*
X109263418Y-96530952D01*
X109173284Y-96610879D01*
X109069206Y-96638766D01*
X108984175Y-96633662D01*
X108833162Y-96590463D01*
X108734188Y-96533321D01*
X108621269Y-96424139D01*
X108574334Y-96353052D01*
X108546446Y-96248974D01*
X108570598Y-96130952D01*
X108608693Y-96064969D01*
X108698827Y-95985042D01*
X108750866Y-95971098D01*
X109549133Y-96036080D02*
X108856312Y-95636080D01*
X109777704Y-95640183D02*
X109210378Y-95708534D01*
X109084884Y-95240183D02*
X109252210Y-95864652D01*
X106656275Y-96676336D02*
X106465799Y-97006251D01*
X105772979Y-96606251D01*
X106426703Y-96235872D02*
X106560036Y-96004932D01*
X106980085Y-96115482D02*
X106789609Y-96445396D01*
X106096788Y-96045396D01*
X106287265Y-95715482D01*
X107151513Y-95818559D02*
X106458693Y-95418559D01*
X106553931Y-95253602D01*
X106644066Y-95173675D01*
X106748144Y-95145787D01*
X106833174Y-95150891D01*
X106984188Y-95194090D01*
X107083162Y-95251233D01*
X107196080Y-95360415D01*
X107243015Y-95431502D01*
X107270903Y-95535580D01*
X107246752Y-95653602D01*
X107151513Y-95818559D01*
X103534847Y-97669670D02*
X102842026Y-97269670D01*
X103470231Y-97324444D01*
X103108693Y-96807789D01*
X103801513Y-97207789D01*
X103991990Y-96877875D02*
X103299169Y-96477875D01*
X104130427Y-96561904D02*
X104220561Y-96481978D01*
X104315799Y-96317020D01*
X104320903Y-96231990D01*
X104306959Y-96179951D01*
X104260024Y-96108864D01*
X104194041Y-96070769D01*
X104109010Y-96065665D01*
X104056971Y-96079609D01*
X103985885Y-96126544D01*
X103876703Y-96239462D01*
X103805616Y-96286398D01*
X103753577Y-96300341D01*
X103668547Y-96295238D01*
X103602564Y-96257142D01*
X103555628Y-96186056D01*
X103541685Y-96134017D01*
X103546788Y-96048986D01*
X103642026Y-95884029D01*
X103732161Y-95804102D01*
X103946788Y-95356166D02*
X104022979Y-95224200D01*
X104094066Y-95177265D01*
X104198144Y-95149377D01*
X104349157Y-95192576D01*
X104580097Y-95325909D01*
X104693015Y-95435091D01*
X104720903Y-95539169D01*
X104715799Y-95624200D01*
X104639609Y-95756166D01*
X104568522Y-95803101D01*
X104464444Y-95830989D01*
X104313430Y-95787790D01*
X104082490Y-95654456D01*
X103969572Y-95545274D01*
X103941685Y-95441196D01*
X103946788Y-95356166D01*
X81842857Y-82017857D02*
X82109523Y-82017857D01*
X82223809Y-82436904D02*
X81842857Y-82436904D01*
X81842857Y-81636904D01*
X82223809Y-81636904D01*
X82490476Y-81636904D02*
X83023809Y-82436904D01*
X83023809Y-81636904D02*
X82490476Y-82436904D01*
X83214285Y-81636904D02*
X83671428Y-81636904D01*
X83442857Y-82436904D02*
X83442857Y-81636904D01*
X80852380Y-83786904D02*
X80852380Y-82986904D01*
X81157142Y-82986904D01*
X81233333Y-83025000D01*
X81271428Y-83063095D01*
X81309523Y-83139285D01*
X81309523Y-83253571D01*
X81271428Y-83329761D01*
X81233333Y-83367857D01*
X81157142Y-83405952D01*
X80852380Y-83405952D01*
X81804761Y-82986904D02*
X81957142Y-82986904D01*
X82033333Y-83025000D01*
X82109523Y-83101190D01*
X82147619Y-83253571D01*
X82147619Y-83520238D01*
X82109523Y-83672619D01*
X82033333Y-83748809D01*
X81957142Y-83786904D01*
X81804761Y-83786904D01*
X81728571Y-83748809D01*
X81652380Y-83672619D01*
X81614285Y-83520238D01*
X81614285Y-83253571D01*
X81652380Y-83101190D01*
X81728571Y-83025000D01*
X81804761Y-82986904D01*
X82414285Y-82986904D02*
X82604761Y-83786904D01*
X82757142Y-83215476D01*
X82909523Y-83786904D01*
X83100000Y-82986904D01*
X83404761Y-83367857D02*
X83671428Y-83367857D01*
X83785714Y-83786904D02*
X83404761Y-83786904D01*
X83404761Y-82986904D01*
X83785714Y-82986904D01*
X84585714Y-83786904D02*
X84319047Y-83405952D01*
X84128571Y-83786904D02*
X84128571Y-82986904D01*
X84433333Y-82986904D01*
X84509523Y-83025000D01*
X84547619Y-83063095D01*
X84585714Y-83139285D01*
X84585714Y-83253571D01*
X84547619Y-83329761D01*
X84509523Y-83367857D01*
X84433333Y-83405952D01*
X84128571Y-83405952D01*
X80700000Y-85098809D02*
X80814285Y-85136904D01*
X81004761Y-85136904D01*
X81080952Y-85098809D01*
X81119047Y-85060714D01*
X81157142Y-84984523D01*
X81157142Y-84908333D01*
X81119047Y-84832142D01*
X81080952Y-84794047D01*
X81004761Y-84755952D01*
X80852380Y-84717857D01*
X80776190Y-84679761D01*
X80738095Y-84641666D01*
X80700000Y-84565476D01*
X80700000Y-84489285D01*
X80738095Y-84413095D01*
X80776190Y-84375000D01*
X80852380Y-84336904D01*
X81042857Y-84336904D01*
X81157142Y-84375000D01*
X81423809Y-84336904D02*
X81614285Y-85136904D01*
X81766666Y-84565476D01*
X81919047Y-85136904D01*
X82109523Y-84336904D01*
X82414285Y-85136904D02*
X82414285Y-84336904D01*
X82680952Y-84336904D02*
X83138095Y-84336904D01*
X82909523Y-85136904D02*
X82909523Y-84336904D01*
X83861904Y-85060714D02*
X83823809Y-85098809D01*
X83709523Y-85136904D01*
X83633333Y-85136904D01*
X83519047Y-85098809D01*
X83442857Y-85022619D01*
X83404761Y-84946428D01*
X83366666Y-84794047D01*
X83366666Y-84679761D01*
X83404761Y-84527380D01*
X83442857Y-84451190D01*
X83519047Y-84375000D01*
X83633333Y-84336904D01*
X83709523Y-84336904D01*
X83823809Y-84375000D01*
X83861904Y-84413095D01*
X84204761Y-85136904D02*
X84204761Y-84336904D01*
X84204761Y-84717857D02*
X84661904Y-84717857D01*
X84661904Y-85136904D02*
X84661904Y-84336904D01*
X125360714Y-100600000D02*
X125284523Y-100561904D01*
X125170238Y-100561904D01*
X125055952Y-100600000D01*
X124979761Y-100676190D01*
X124941666Y-100752380D01*
X124903571Y-100904761D01*
X124903571Y-101019047D01*
X124941666Y-101171428D01*
X124979761Y-101247619D01*
X125055952Y-101323809D01*
X125170238Y-101361904D01*
X125246428Y-101361904D01*
X125360714Y-101323809D01*
X125398809Y-101285714D01*
X125398809Y-101019047D01*
X125246428Y-101019047D01*
X125741666Y-101361904D02*
X125741666Y-100561904D01*
X126046428Y-100561904D01*
X126122619Y-100600000D01*
X126160714Y-100638095D01*
X126198809Y-100714285D01*
X126198809Y-100828571D01*
X126160714Y-100904761D01*
X126122619Y-100942857D01*
X126046428Y-100980952D01*
X125741666Y-100980952D01*
X126541666Y-101361904D02*
X126541666Y-100561904D01*
X127075000Y-100561904D02*
X127227380Y-100561904D01*
X127303571Y-100600000D01*
X127379761Y-100676190D01*
X127417857Y-100828571D01*
X127417857Y-101095238D01*
X127379761Y-101247619D01*
X127303571Y-101323809D01*
X127227380Y-101361904D01*
X127075000Y-101361904D01*
X126998809Y-101323809D01*
X126922619Y-101247619D01*
X126884523Y-101095238D01*
X126884523Y-100828571D01*
X126922619Y-100676190D01*
X126998809Y-100600000D01*
X127075000Y-100561904D01*
X128370238Y-100942857D02*
X128636904Y-100942857D01*
X128751190Y-101361904D02*
X128370238Y-101361904D01*
X128370238Y-100561904D01*
X128751190Y-100561904D01*
X129017857Y-101361904D02*
X129436904Y-100828571D01*
X129017857Y-100828571D02*
X129436904Y-101361904D01*
X129741666Y-100828571D02*
X129741666Y-101628571D01*
X129741666Y-100866666D02*
X129817857Y-100828571D01*
X129970238Y-100828571D01*
X130046428Y-100866666D01*
X130084523Y-100904761D01*
X130122619Y-100980952D01*
X130122619Y-101209523D01*
X130084523Y-101285714D01*
X130046428Y-101323809D01*
X129970238Y-101361904D01*
X129817857Y-101361904D01*
X129741666Y-101323809D01*
X130808333Y-101361904D02*
X130808333Y-100942857D01*
X130770238Y-100866666D01*
X130694047Y-100828571D01*
X130541666Y-100828571D01*
X130465476Y-100866666D01*
X130808333Y-101323809D02*
X130732142Y-101361904D01*
X130541666Y-101361904D01*
X130465476Y-101323809D01*
X130427380Y-101247619D01*
X130427380Y-101171428D01*
X130465476Y-101095238D01*
X130541666Y-101057142D01*
X130732142Y-101057142D01*
X130808333Y-101019047D01*
X131189285Y-100828571D02*
X131189285Y-101361904D01*
X131189285Y-100904761D02*
X131227380Y-100866666D01*
X131303571Y-100828571D01*
X131417857Y-100828571D01*
X131494047Y-100866666D01*
X131532142Y-100942857D01*
X131532142Y-101361904D01*
X131875000Y-101323809D02*
X131951190Y-101361904D01*
X132103571Y-101361904D01*
X132179761Y-101323809D01*
X132217857Y-101247619D01*
X132217857Y-101209523D01*
X132179761Y-101133333D01*
X132103571Y-101095238D01*
X131989285Y-101095238D01*
X131913095Y-101057142D01*
X131875000Y-100980952D01*
X131875000Y-100942857D01*
X131913095Y-100866666D01*
X131989285Y-100828571D01*
X132103571Y-100828571D01*
X132179761Y-100866666D01*
X132560714Y-101361904D02*
X132560714Y-100828571D01*
X132560714Y-100561904D02*
X132522619Y-100600000D01*
X132560714Y-100638095D01*
X132598809Y-100600000D01*
X132560714Y-100561904D01*
X132560714Y-100638095D01*
X133055952Y-101361904D02*
X132979761Y-101323809D01*
X132941666Y-101285714D01*
X132903571Y-101209523D01*
X132903571Y-100980952D01*
X132941666Y-100904761D01*
X132979761Y-100866666D01*
X133055952Y-100828571D01*
X133170238Y-100828571D01*
X133246428Y-100866666D01*
X133284523Y-100904761D01*
X133322619Y-100980952D01*
X133322619Y-101209523D01*
X133284523Y-101285714D01*
X133246428Y-101323809D01*
X133170238Y-101361904D01*
X133055952Y-101361904D01*
X133665476Y-100828571D02*
X133665476Y-101361904D01*
X133665476Y-100904761D02*
X133703571Y-100866666D01*
X133779761Y-100828571D01*
X133894047Y-100828571D01*
X133970238Y-100866666D01*
X134008333Y-100942857D01*
X134008333Y-101361904D01*
X128275000Y-102292857D02*
X128541666Y-102292857D01*
X128655952Y-102711904D02*
X128275000Y-102711904D01*
X128275000Y-101911904D01*
X128655952Y-101911904D01*
X128998809Y-102178571D02*
X128998809Y-102711904D01*
X128998809Y-102254761D02*
X129036904Y-102216666D01*
X129113095Y-102178571D01*
X129227380Y-102178571D01*
X129303571Y-102216666D01*
X129341666Y-102292857D01*
X129341666Y-102711904D01*
X130065476Y-102711904D02*
X130065476Y-102292857D01*
X130027380Y-102216666D01*
X129951190Y-102178571D01*
X129798809Y-102178571D01*
X129722619Y-102216666D01*
X130065476Y-102673809D02*
X129989285Y-102711904D01*
X129798809Y-102711904D01*
X129722619Y-102673809D01*
X129684523Y-102597619D01*
X129684523Y-102521428D01*
X129722619Y-102445238D01*
X129798809Y-102407142D01*
X129989285Y-102407142D01*
X130065476Y-102369047D01*
X130446428Y-102711904D02*
X130446428Y-101911904D01*
X130446428Y-102216666D02*
X130522619Y-102178571D01*
X130675000Y-102178571D01*
X130751190Y-102216666D01*
X130789285Y-102254761D01*
X130827380Y-102330952D01*
X130827380Y-102559523D01*
X130789285Y-102635714D01*
X130751190Y-102673809D01*
X130675000Y-102711904D01*
X130522619Y-102711904D01*
X130446428Y-102673809D01*
X131284523Y-102711904D02*
X131208333Y-102673809D01*
X131170238Y-102597619D01*
X131170238Y-101911904D01*
X131894047Y-102673809D02*
X131817857Y-102711904D01*
X131665476Y-102711904D01*
X131589285Y-102673809D01*
X131551190Y-102597619D01*
X131551190Y-102292857D01*
X131589285Y-102216666D01*
X131665476Y-102178571D01*
X131817857Y-102178571D01*
X131894047Y-102216666D01*
X131932142Y-102292857D01*
X131932142Y-102369047D01*
X131551190Y-102445238D01*
X126408333Y-104023809D02*
X126522619Y-104061904D01*
X126713095Y-104061904D01*
X126789285Y-104023809D01*
X126827380Y-103985714D01*
X126865476Y-103909523D01*
X126865476Y-103833333D01*
X126827380Y-103757142D01*
X126789285Y-103719047D01*
X126713095Y-103680952D01*
X126560714Y-103642857D01*
X126484523Y-103604761D01*
X126446428Y-103566666D01*
X126408333Y-103490476D01*
X126408333Y-103414285D01*
X126446428Y-103338095D01*
X126484523Y-103300000D01*
X126560714Y-103261904D01*
X126751190Y-103261904D01*
X126865476Y-103300000D01*
X127208333Y-104061904D02*
X127208333Y-103261904D01*
X127398809Y-103261904D01*
X127513095Y-103300000D01*
X127589285Y-103376190D01*
X127627380Y-103452380D01*
X127665476Y-103604761D01*
X127665476Y-103719047D01*
X127627380Y-103871428D01*
X127589285Y-103947619D01*
X127513095Y-104023809D01*
X127398809Y-104061904D01*
X127208333Y-104061904D01*
X127970238Y-103833333D02*
X128351190Y-103833333D01*
X127894047Y-104061904D02*
X128160714Y-103261904D01*
X128427380Y-104061904D01*
X131094047Y-104023809D02*
X131208333Y-104061904D01*
X131398809Y-104061904D01*
X131475000Y-104023809D01*
X131513095Y-103985714D01*
X131551190Y-103909523D01*
X131551190Y-103833333D01*
X131513095Y-103757142D01*
X131475000Y-103719047D01*
X131398809Y-103680952D01*
X131246428Y-103642857D01*
X131170238Y-103604761D01*
X131132142Y-103566666D01*
X131094047Y-103490476D01*
X131094047Y-103414285D01*
X131132142Y-103338095D01*
X131170238Y-103300000D01*
X131246428Y-103261904D01*
X131436904Y-103261904D01*
X131551190Y-103300000D01*
X132351190Y-103985714D02*
X132313095Y-104023809D01*
X132198809Y-104061904D01*
X132122619Y-104061904D01*
X132008333Y-104023809D01*
X131932142Y-103947619D01*
X131894047Y-103871428D01*
X131855952Y-103719047D01*
X131855952Y-103604761D01*
X131894047Y-103452380D01*
X131932142Y-103376190D01*
X132008333Y-103300000D01*
X132122619Y-103261904D01*
X132198809Y-103261904D01*
X132313095Y-103300000D01*
X132351190Y-103338095D01*
X132694047Y-104061904D02*
X132694047Y-103261904D01*
X133151190Y-104061904D02*
X132808333Y-103604761D01*
X133151190Y-103261904D02*
X132694047Y-103719047D01*
X99298809Y-102925000D02*
X99222619Y-102886904D01*
X99108333Y-102886904D01*
X98994047Y-102925000D01*
X98917857Y-103001190D01*
X98879761Y-103077380D01*
X98841666Y-103229761D01*
X98841666Y-103344047D01*
X98879761Y-103496428D01*
X98917857Y-103572619D01*
X98994047Y-103648809D01*
X99108333Y-103686904D01*
X99184523Y-103686904D01*
X99298809Y-103648809D01*
X99336904Y-103610714D01*
X99336904Y-103344047D01*
X99184523Y-103344047D01*
X99679761Y-103686904D02*
X99679761Y-102886904D01*
X99984523Y-102886904D01*
X100060714Y-102925000D01*
X100098809Y-102963095D01*
X100136904Y-103039285D01*
X100136904Y-103153571D01*
X100098809Y-103229761D01*
X100060714Y-103267857D01*
X99984523Y-103305952D01*
X99679761Y-103305952D01*
X100479761Y-103686904D02*
X100479761Y-102886904D01*
X101013095Y-102886904D02*
X101165476Y-102886904D01*
X101241666Y-102925000D01*
X101317857Y-103001190D01*
X101355952Y-103153571D01*
X101355952Y-103420238D01*
X101317857Y-103572619D01*
X101241666Y-103648809D01*
X101165476Y-103686904D01*
X101013095Y-103686904D01*
X100936904Y-103648809D01*
X100860714Y-103572619D01*
X100822619Y-103420238D01*
X100822619Y-103153571D01*
X100860714Y-103001190D01*
X100936904Y-102925000D01*
X101013095Y-102886904D01*
X102308333Y-103686904D02*
X102308333Y-102886904D01*
X102689285Y-103153571D02*
X102689285Y-103686904D01*
X102689285Y-103229761D02*
X102727380Y-103191666D01*
X102803571Y-103153571D01*
X102917857Y-103153571D01*
X102994047Y-103191666D01*
X103032142Y-103267857D01*
X103032142Y-103686904D01*
X103298809Y-103153571D02*
X103603571Y-103153571D01*
X103413095Y-102886904D02*
X103413095Y-103572619D01*
X103451190Y-103648809D01*
X103527380Y-103686904D01*
X103603571Y-103686904D01*
X104175000Y-103648809D02*
X104098809Y-103686904D01*
X103946428Y-103686904D01*
X103870238Y-103648809D01*
X103832142Y-103572619D01*
X103832142Y-103267857D01*
X103870238Y-103191666D01*
X103946428Y-103153571D01*
X104098809Y-103153571D01*
X104175000Y-103191666D01*
X104213095Y-103267857D01*
X104213095Y-103344047D01*
X103832142Y-103420238D01*
X104555952Y-103686904D02*
X104555952Y-103153571D01*
X104555952Y-103305952D02*
X104594047Y-103229761D01*
X104632142Y-103191666D01*
X104708333Y-103153571D01*
X104784523Y-103153571D01*
X105051190Y-103686904D02*
X105051190Y-103153571D01*
X105051190Y-103305952D02*
X105089285Y-103229761D01*
X105127380Y-103191666D01*
X105203571Y-103153571D01*
X105279761Y-103153571D01*
X105889285Y-103153571D02*
X105889285Y-103686904D01*
X105546428Y-103153571D02*
X105546428Y-103572619D01*
X105584523Y-103648809D01*
X105660714Y-103686904D01*
X105775000Y-103686904D01*
X105851190Y-103648809D01*
X105889285Y-103610714D01*
X106270238Y-103153571D02*
X106270238Y-103953571D01*
X106270238Y-103191666D02*
X106346428Y-103153571D01*
X106498809Y-103153571D01*
X106575000Y-103191666D01*
X106613095Y-103229761D01*
X106651190Y-103305952D01*
X106651190Y-103534523D01*
X106613095Y-103610714D01*
X106575000Y-103648809D01*
X106498809Y-103686904D01*
X106346428Y-103686904D01*
X106270238Y-103648809D01*
X106879761Y-103153571D02*
X107184523Y-103153571D01*
X106994047Y-102886904D02*
X106994047Y-103572619D01*
X107032142Y-103648809D01*
X107108333Y-103686904D01*
X107184523Y-103686904D01*
X98727380Y-105036904D02*
X98727380Y-104236904D01*
X99032142Y-104236904D01*
X99108333Y-104275000D01*
X99146428Y-104313095D01*
X99184523Y-104389285D01*
X99184523Y-104503571D01*
X99146428Y-104579761D01*
X99108333Y-104617857D01*
X99032142Y-104655952D01*
X98727380Y-104655952D01*
X99641666Y-105036904D02*
X99565476Y-104998809D01*
X99527380Y-104960714D01*
X99489285Y-104884523D01*
X99489285Y-104655952D01*
X99527380Y-104579761D01*
X99565476Y-104541666D01*
X99641666Y-104503571D01*
X99755952Y-104503571D01*
X99832142Y-104541666D01*
X99870238Y-104579761D01*
X99908333Y-104655952D01*
X99908333Y-104884523D01*
X99870238Y-104960714D01*
X99832142Y-104998809D01*
X99755952Y-105036904D01*
X99641666Y-105036904D01*
X100251190Y-105036904D02*
X100251190Y-104503571D01*
X100251190Y-104655952D02*
X100289285Y-104579761D01*
X100327380Y-104541666D01*
X100403571Y-104503571D01*
X100479761Y-104503571D01*
X100632142Y-104503571D02*
X100936904Y-104503571D01*
X100746428Y-104236904D02*
X100746428Y-104922619D01*
X100784523Y-104998809D01*
X100860714Y-105036904D01*
X100936904Y-105036904D01*
X101775000Y-104808333D02*
X102155952Y-104808333D01*
X101698809Y-105036904D02*
X101965476Y-104236904D01*
X102232142Y-105036904D01*
X103717857Y-105036904D02*
X103717857Y-104236904D01*
X104022619Y-104236904D01*
X104098809Y-104275000D01*
X104136904Y-104313095D01*
X104175000Y-104389285D01*
X104175000Y-104503571D01*
X104136904Y-104579761D01*
X104098809Y-104617857D01*
X104022619Y-104655952D01*
X103717857Y-104655952D01*
X104632142Y-105036904D02*
X104555952Y-104998809D01*
X104517857Y-104960714D01*
X104479761Y-104884523D01*
X104479761Y-104655952D01*
X104517857Y-104579761D01*
X104555952Y-104541666D01*
X104632142Y-104503571D01*
X104746428Y-104503571D01*
X104822619Y-104541666D01*
X104860714Y-104579761D01*
X104898809Y-104655952D01*
X104898809Y-104884523D01*
X104860714Y-104960714D01*
X104822619Y-104998809D01*
X104746428Y-105036904D01*
X104632142Y-105036904D01*
X105241666Y-105036904D02*
X105241666Y-104503571D01*
X105241666Y-104655952D02*
X105279761Y-104579761D01*
X105317857Y-104541666D01*
X105394047Y-104503571D01*
X105470238Y-104503571D01*
X105622619Y-104503571D02*
X105927380Y-104503571D01*
X105736904Y-104236904D02*
X105736904Y-104922619D01*
X105775000Y-104998809D01*
X105851190Y-105036904D01*
X105927380Y-105036904D01*
X107070238Y-104617857D02*
X107184523Y-104655952D01*
X107222619Y-104694047D01*
X107260714Y-104770238D01*
X107260714Y-104884523D01*
X107222619Y-104960714D01*
X107184523Y-104998809D01*
X107108333Y-105036904D01*
X106803571Y-105036904D01*
X106803571Y-104236904D01*
X107070238Y-104236904D01*
X107146428Y-104275000D01*
X107184523Y-104313095D01*
X107222619Y-104389285D01*
X107222619Y-104465476D01*
X107184523Y-104541666D01*
X107146428Y-104579761D01*
X107070238Y-104617857D01*
X106803571Y-104617857D01*
X143722619Y-81511904D02*
X143722619Y-80711904D01*
X144027380Y-80711904D01*
X144103571Y-80750000D01*
X144141666Y-80788095D01*
X144179761Y-80864285D01*
X144179761Y-80978571D01*
X144141666Y-81054761D01*
X144103571Y-81092857D01*
X144027380Y-81130952D01*
X143722619Y-81130952D01*
X144446428Y-80711904D02*
X144636904Y-81511904D01*
X144789285Y-80940476D01*
X144941666Y-81511904D01*
X145132142Y-80711904D01*
X145436904Y-81511904D02*
X145436904Y-80711904D01*
X145703571Y-81283333D01*
X145970238Y-80711904D01*
X145970238Y-81511904D01*
X146922619Y-81283333D02*
X147303571Y-81283333D01*
X146846428Y-81511904D02*
X147113095Y-80711904D01*
X147379761Y-81511904D01*
X147989285Y-80978571D02*
X147989285Y-81511904D01*
X147646428Y-80978571D02*
X147646428Y-81397619D01*
X147684523Y-81473809D01*
X147760714Y-81511904D01*
X147875000Y-81511904D01*
X147951190Y-81473809D01*
X147989285Y-81435714D01*
X148713095Y-81511904D02*
X148713095Y-80711904D01*
X148713095Y-81473809D02*
X148636904Y-81511904D01*
X148484523Y-81511904D01*
X148408333Y-81473809D01*
X148370238Y-81435714D01*
X148332142Y-81359523D01*
X148332142Y-81130952D01*
X148370238Y-81054761D01*
X148408333Y-81016666D01*
X148484523Y-80978571D01*
X148636904Y-80978571D01*
X148713095Y-81016666D01*
X149094047Y-81511904D02*
X149094047Y-80978571D01*
X149094047Y-80711904D02*
X149055952Y-80750000D01*
X149094047Y-80788095D01*
X149132142Y-80750000D01*
X149094047Y-80711904D01*
X149094047Y-80788095D01*
X149589285Y-81511904D02*
X149513095Y-81473809D01*
X149475000Y-81435714D01*
X149436904Y-81359523D01*
X149436904Y-81130952D01*
X149475000Y-81054761D01*
X149513095Y-81016666D01*
X149589285Y-80978571D01*
X149703571Y-80978571D01*
X149779761Y-81016666D01*
X149817857Y-81054761D01*
X149855952Y-81130952D01*
X149855952Y-81359523D01*
X149817857Y-81435714D01*
X149779761Y-81473809D01*
X149703571Y-81511904D01*
X149589285Y-81511904D01*
X145265476Y-82442857D02*
X145532142Y-82442857D01*
X145646428Y-82861904D02*
X145265476Y-82861904D01*
X145265476Y-82061904D01*
X145646428Y-82061904D01*
X145989285Y-82328571D02*
X145989285Y-82861904D01*
X145989285Y-82404761D02*
X146027380Y-82366666D01*
X146103571Y-82328571D01*
X146217857Y-82328571D01*
X146294047Y-82366666D01*
X146332142Y-82442857D01*
X146332142Y-82861904D01*
X147055952Y-82861904D02*
X147055952Y-82442857D01*
X147017857Y-82366666D01*
X146941666Y-82328571D01*
X146789285Y-82328571D01*
X146713095Y-82366666D01*
X147055952Y-82823809D02*
X146979761Y-82861904D01*
X146789285Y-82861904D01*
X146713095Y-82823809D01*
X146675000Y-82747619D01*
X146675000Y-82671428D01*
X146713095Y-82595238D01*
X146789285Y-82557142D01*
X146979761Y-82557142D01*
X147055952Y-82519047D01*
X147436904Y-82861904D02*
X147436904Y-82061904D01*
X147436904Y-82366666D02*
X147513095Y-82328571D01*
X147665476Y-82328571D01*
X147741666Y-82366666D01*
X147779761Y-82404761D01*
X147817857Y-82480952D01*
X147817857Y-82709523D01*
X147779761Y-82785714D01*
X147741666Y-82823809D01*
X147665476Y-82861904D01*
X147513095Y-82861904D01*
X147436904Y-82823809D01*
X148275000Y-82861904D02*
X148198809Y-82823809D01*
X148160714Y-82747619D01*
X148160714Y-82061904D01*
X148884523Y-82823809D02*
X148808333Y-82861904D01*
X148655952Y-82861904D01*
X148579761Y-82823809D01*
X148541666Y-82747619D01*
X148541666Y-82442857D01*
X148579761Y-82366666D01*
X148655952Y-82328571D01*
X148808333Y-82328571D01*
X148884523Y-82366666D01*
X148922619Y-82442857D01*
X148922619Y-82519047D01*
X148541666Y-82595238D01*
X148201729Y-94555487D02*
X148120917Y-94097551D01*
X148524978Y-94232238D02*
X147959292Y-93666552D01*
X147743793Y-93882052D01*
X147716856Y-93962864D01*
X147716856Y-94016739D01*
X147743793Y-94097551D01*
X147824605Y-94178363D01*
X147905418Y-94205300D01*
X147959292Y-94205300D01*
X148040105Y-94178363D01*
X148255604Y-93962864D01*
X147716856Y-95040360D02*
X147420544Y-94744048D01*
X147393607Y-94663236D01*
X147420544Y-94582424D01*
X147528294Y-94474674D01*
X147609106Y-94447737D01*
X147689918Y-95013422D02*
X147770731Y-94986485D01*
X147905418Y-94851798D01*
X147932355Y-94770986D01*
X147905418Y-94690174D01*
X147851543Y-94636299D01*
X147770731Y-94609361D01*
X147689918Y-94636299D01*
X147555231Y-94770986D01*
X147474419Y-94797923D01*
X147447482Y-95255859D02*
X147420544Y-95336671D01*
X147312795Y-95444421D01*
X147231983Y-95471358D01*
X147151170Y-95444421D01*
X147124233Y-95417483D01*
X147097296Y-95336671D01*
X147124233Y-95255859D01*
X147205045Y-95175047D01*
X147231983Y-95094235D01*
X147205045Y-95013422D01*
X147178108Y-94986485D01*
X147097296Y-94959548D01*
X147016483Y-94986485D01*
X146935671Y-95067297D01*
X146908734Y-95148109D01*
X146612422Y-95390546D02*
X147178108Y-95956231D01*
X146639360Y-95417483D02*
X146558548Y-95444421D01*
X146450798Y-95552170D01*
X146423861Y-95632983D01*
X146423861Y-95686857D01*
X146450798Y-95767670D01*
X146612422Y-95929294D01*
X146693235Y-95956231D01*
X146747109Y-95956231D01*
X146827922Y-95929294D01*
X146935671Y-95821544D01*
X146962609Y-95740732D01*
X146477735Y-96279480D02*
X145912050Y-95713795D01*
X146127549Y-95929294D02*
X146046737Y-95956231D01*
X145938987Y-96063981D01*
X145912050Y-96144793D01*
X145912050Y-96198668D01*
X145938987Y-96279480D01*
X146100612Y-96441105D01*
X146181424Y-96468042D01*
X146235299Y-96468042D01*
X146316111Y-96441105D01*
X146423861Y-96333355D01*
X146450798Y-96252543D01*
X145723488Y-96979853D02*
X145804300Y-96952915D01*
X145912050Y-96845166D01*
X145938987Y-96764353D01*
X145912050Y-96683541D01*
X145696551Y-96468042D01*
X145615739Y-96441105D01*
X145534926Y-96468042D01*
X145427177Y-96575792D01*
X145400239Y-96656604D01*
X145427177Y-96737416D01*
X145481052Y-96791291D01*
X145804300Y-96575792D01*
X145481052Y-97276164D02*
X145103928Y-96899040D01*
X145211678Y-97006790D02*
X145130865Y-96979853D01*
X145076991Y-96979853D01*
X144996178Y-97006790D01*
X144942304Y-97060665D01*
X145130865Y-97626350D02*
X144753742Y-97249227D01*
X144861491Y-97356976D02*
X144780679Y-97330039D01*
X144726804Y-97330039D01*
X144645992Y-97356976D01*
X144592117Y-97410851D01*
X144457430Y-97545538D02*
X144699867Y-98057349D01*
X144188056Y-97814912D02*
X144699867Y-98057349D01*
X144888429Y-98138161D01*
X144942304Y-98138161D01*
X145023116Y-98111223D01*
X143918682Y-98838533D02*
X143352997Y-98272848D01*
X143137498Y-98488347D01*
X143110560Y-98569159D01*
X143110560Y-98623034D01*
X143137498Y-98703846D01*
X143218310Y-98784659D01*
X143299122Y-98811596D01*
X143352997Y-98811596D01*
X143433809Y-98784659D01*
X143649308Y-98569159D01*
X143352997Y-99404219D02*
X142975873Y-99027095D01*
X142787311Y-98838533D02*
X142841186Y-98838533D01*
X142841186Y-98892408D01*
X142787311Y-98892408D01*
X142787311Y-98838533D01*
X142841186Y-98892408D01*
X142140814Y-99485031D02*
X141763690Y-99862155D01*
X142706499Y-100050716D01*
X142329376Y-100427840D01*
X141871440Y-100831901D02*
X141952252Y-100804964D01*
X142060002Y-100697214D01*
X142086939Y-100616402D01*
X142060002Y-100535590D01*
X141844502Y-100320090D01*
X141763690Y-100293153D01*
X141682878Y-100320090D01*
X141575128Y-100427840D01*
X141548191Y-100508652D01*
X141575128Y-100589464D01*
X141629003Y-100643339D01*
X141952252Y-100427840D01*
X141629003Y-101128212D02*
X141251880Y-100751089D01*
X141359629Y-100858838D02*
X141278817Y-100831901D01*
X141224942Y-100831901D01*
X141144130Y-100858838D01*
X141090255Y-100912713D01*
X141198005Y-101559211D02*
X141224942Y-101478399D01*
X141224942Y-101424524D01*
X141198005Y-101343712D01*
X141036380Y-101182087D01*
X140955568Y-101155150D01*
X140901693Y-101155150D01*
X140820881Y-101182087D01*
X140740069Y-101262899D01*
X140713132Y-101343712D01*
X140713132Y-101397586D01*
X140740069Y-101478399D01*
X140901693Y-101640023D01*
X140982506Y-101666960D01*
X141036380Y-101666960D01*
X141117193Y-101640023D01*
X141198005Y-101559211D01*
X139500948Y-102178771D02*
X139527886Y-102097959D01*
X139608698Y-102017147D01*
X139716448Y-101963272D01*
X139824197Y-101963272D01*
X139905010Y-101990209D01*
X140039697Y-102071021D01*
X140120509Y-102151834D01*
X140201321Y-102286521D01*
X140228258Y-102367333D01*
X140228258Y-102475082D01*
X140174384Y-102582832D01*
X140120509Y-102636707D01*
X140012759Y-102690582D01*
X139958884Y-102690582D01*
X139770323Y-102502020D01*
X139878072Y-102394270D01*
X139527886Y-103229330D02*
X139231574Y-102933018D01*
X139204637Y-102852206D01*
X139231574Y-102771394D01*
X139339324Y-102663644D01*
X139420136Y-102636707D01*
X139500948Y-103202392D02*
X139581761Y-103175455D01*
X139716448Y-103040768D01*
X139743385Y-102959956D01*
X139716448Y-102879144D01*
X139662573Y-102825269D01*
X139581761Y-102798331D01*
X139500948Y-102825269D01*
X139366261Y-102959956D01*
X139285449Y-102986893D01*
X139258512Y-103498704D02*
X138881388Y-103121580D01*
X138935263Y-103175455D02*
X138881388Y-103175455D01*
X138800576Y-103202392D01*
X138719764Y-103283205D01*
X138692826Y-103364017D01*
X138719764Y-103444829D01*
X139016075Y-103741140D01*
X138719764Y-103444829D02*
X138638952Y-103417892D01*
X138558139Y-103444829D01*
X138477327Y-103525641D01*
X138450390Y-103606453D01*
X138477327Y-103687266D01*
X138773639Y-103983577D01*
X138261828Y-104441513D02*
X138342640Y-104414575D01*
X138450390Y-104306826D01*
X138477327Y-104226014D01*
X138450390Y-104145201D01*
X138234891Y-103929702D01*
X138154078Y-103902765D01*
X138073266Y-103929702D01*
X137965517Y-104037452D01*
X137938579Y-104118264D01*
X137965517Y-104199076D01*
X138019391Y-104252951D01*
X138342640Y-104037452D01*
X138019391Y-104737824D02*
X137453706Y-104172139D01*
X137669205Y-104387638D02*
X137588393Y-104414575D01*
X137480643Y-104522325D01*
X137453706Y-104603137D01*
X137453706Y-104657012D01*
X137480643Y-104737824D01*
X137642268Y-104899449D01*
X137723080Y-104926386D01*
X137776955Y-104926386D01*
X137857767Y-104899449D01*
X137965517Y-104791699D01*
X137992454Y-104710887D01*
X137426769Y-105330447D02*
X137453706Y-105249635D01*
X137453706Y-105195760D01*
X137426769Y-105114948D01*
X137265144Y-104953323D01*
X137184332Y-104926386D01*
X137130457Y-104926386D01*
X137049645Y-104953323D01*
X136968833Y-105034136D01*
X136941895Y-105114948D01*
X136941895Y-105168823D01*
X136968833Y-105249635D01*
X137130457Y-105411259D01*
X137211269Y-105438197D01*
X137265144Y-105438197D01*
X137345956Y-105411259D01*
X137426769Y-105330447D01*
X136672521Y-105330447D02*
X136914958Y-105842258D01*
X136403147Y-105599821D02*
X136914958Y-105842258D01*
X137103520Y-105923070D01*
X137157395Y-105923070D01*
X137238207Y-105896132D01*
X136133773Y-106623442D02*
X135568088Y-106057757D01*
X135433401Y-106192444D01*
X135379526Y-106300193D01*
X135379526Y-106407943D01*
X135406464Y-106488755D01*
X135487276Y-106623442D01*
X135568088Y-106704254D01*
X135702775Y-106785067D01*
X135783587Y-106812004D01*
X135891337Y-106812004D01*
X135999086Y-106758129D01*
X136133773Y-106623442D01*
X135568088Y-107189128D02*
X135002402Y-106623442D01*
X135217902Y-107216065D01*
X134625279Y-107000566D01*
X135190964Y-107566251D01*
X134086531Y-107593189D02*
X134113468Y-107512377D01*
X134194280Y-107431564D01*
X134302030Y-107377690D01*
X134409780Y-107377690D01*
X134490592Y-107404627D01*
X134625279Y-107485439D01*
X134706091Y-107566251D01*
X134786903Y-107700938D01*
X134813841Y-107781751D01*
X134813841Y-107889500D01*
X134759966Y-107997250D01*
X134706091Y-108051125D01*
X134598341Y-108104999D01*
X134544467Y-108104999D01*
X134355905Y-107916438D01*
X134463654Y-107808688D01*
X146893581Y-97772822D02*
X146327896Y-97207137D01*
X146543395Y-97422636D02*
X146462583Y-97449573D01*
X146354833Y-97557323D01*
X146327896Y-97638135D01*
X146327896Y-97692010D01*
X146354833Y-97772822D01*
X146516458Y-97934447D01*
X146597270Y-97961384D01*
X146651145Y-97961384D01*
X146731957Y-97934447D01*
X146839707Y-97826697D01*
X146866644Y-97745885D01*
X146058522Y-97853634D02*
X146300959Y-98365445D01*
X145789148Y-98123008D02*
X146300959Y-98365445D01*
X146489520Y-98446257D01*
X146543395Y-98446257D01*
X146624207Y-98419320D01*
X145385087Y-98958068D02*
X145115713Y-99227442D01*
X145600586Y-99065817D02*
X144846339Y-98688694D01*
X145223463Y-99442941D01*
X144954088Y-99712315D02*
X144981026Y-99631503D01*
X144954088Y-99550691D01*
X144469215Y-99065817D01*
X144496153Y-100116376D02*
X144576965Y-100089439D01*
X144684714Y-99981689D01*
X144711652Y-99900877D01*
X144684714Y-99820065D01*
X144469215Y-99604566D01*
X144388403Y-99577628D01*
X144307591Y-99604566D01*
X144199841Y-99712315D01*
X144172904Y-99793127D01*
X144199841Y-99873940D01*
X144253716Y-99927814D01*
X144576965Y-99712315D01*
X144307591Y-100358813D02*
X143634156Y-100278001D01*
X143930467Y-99981689D02*
X144011279Y-100655124D01*
X143364782Y-101301622D02*
X142799096Y-100735936D01*
X143068470Y-101005310D02*
X142745222Y-101328559D01*
X143041533Y-101624871D02*
X142475848Y-101059185D01*
X142691347Y-101975057D02*
X142718284Y-101894245D01*
X142718284Y-101840370D01*
X142691347Y-101759558D01*
X142529722Y-101597933D01*
X142448910Y-101570996D01*
X142395035Y-101570996D01*
X142314223Y-101597933D01*
X142233411Y-101678745D01*
X142206474Y-101759558D01*
X142206474Y-101813432D01*
X142233411Y-101894245D01*
X142395035Y-102055869D01*
X142475848Y-102082806D01*
X142529722Y-102082806D01*
X142610535Y-102055869D01*
X142691347Y-101975057D01*
X141964037Y-101948119D02*
X141748538Y-102163619D01*
X142260348Y-102406055D02*
X141775475Y-101921182D01*
X141694663Y-101894245D01*
X141613851Y-101921182D01*
X141559976Y-101975057D01*
X141640788Y-102271368D02*
X141425289Y-102486867D01*
X141937100Y-102729304D02*
X141452226Y-102244431D01*
X141371414Y-102217493D01*
X141290602Y-102244431D01*
X141236727Y-102298306D01*
X141613851Y-103052553D02*
X141236727Y-102675429D01*
X141290602Y-102729304D02*
X141236727Y-102729304D01*
X141155915Y-102756241D01*
X141075103Y-102837054D01*
X141048165Y-102917866D01*
X141075103Y-102998678D01*
X141371414Y-103294989D01*
X141075103Y-102998678D02*
X140994291Y-102971741D01*
X140913478Y-102998678D01*
X140832666Y-103079490D01*
X140805729Y-103160302D01*
X140832666Y-103241115D01*
X141128978Y-103537426D01*
X140617167Y-104049237D02*
X140320855Y-103752925D01*
X140293918Y-103672113D01*
X140320855Y-103591301D01*
X140428605Y-103483551D01*
X140509417Y-103456614D01*
X140590230Y-104022299D02*
X140671042Y-103995362D01*
X140805729Y-103860675D01*
X140832666Y-103779863D01*
X140805729Y-103699051D01*
X140751854Y-103645176D01*
X140671042Y-103618238D01*
X140590230Y-103645176D01*
X140455542Y-103779863D01*
X140374730Y-103806800D01*
X139970669Y-103941487D02*
X140347793Y-104318611D01*
X140024544Y-103995362D02*
X139970669Y-103995362D01*
X139889857Y-104022299D01*
X139809045Y-104103112D01*
X139782107Y-104183924D01*
X139809045Y-104264736D01*
X140105356Y-104561047D01*
D12*
X87265000Y-86300000D02*
X87265000Y-88585000D01*
X87265000Y-88585000D02*
X88735000Y-88585000D01*
X88735000Y-88585000D02*
X88735000Y-86300000D01*
X139920000Y-77300000D02*
G75*
G03X139920000Y-77300000I-2620000J0D01*
G01*
X136260000Y-77300000D02*
X134720000Y-77300000D01*
X139880000Y-77300000D02*
X138340000Y-77300000D01*
X136260000Y-77340000D02*
X134720000Y-77340000D01*
X139880000Y-77340000D02*
X138340000Y-77340000D01*
X139879000Y-77380000D02*
X138340000Y-77380000D01*
X136260000Y-77380000D02*
X134721000Y-77380000D01*
X139878000Y-77420000D02*
X138340000Y-77420000D01*
X136260000Y-77420000D02*
X134722000Y-77420000D01*
X139876000Y-77460000D02*
X138340000Y-77460000D01*
X136260000Y-77460000D02*
X134724000Y-77460000D01*
X139873000Y-77500000D02*
X138340000Y-77500000D01*
X136260000Y-77500000D02*
X134727000Y-77500000D01*
X139869000Y-77540000D02*
X138340000Y-77540000D01*
X136260000Y-77540000D02*
X134731000Y-77540000D01*
X139865000Y-77580000D02*
X138340000Y-77580000D01*
X136260000Y-77580000D02*
X134735000Y-77580000D01*
X139861000Y-77620000D02*
X138340000Y-77620000D01*
X136260000Y-77620000D02*
X134739000Y-77620000D01*
X139856000Y-77660000D02*
X138340000Y-77660000D01*
X136260000Y-77660000D02*
X134744000Y-77660000D01*
X139850000Y-77700000D02*
X138340000Y-77700000D01*
X136260000Y-77700000D02*
X134750000Y-77700000D01*
X139843000Y-77740000D02*
X138340000Y-77740000D01*
X136260000Y-77740000D02*
X134757000Y-77740000D01*
X139836000Y-77780000D02*
X138340000Y-77780000D01*
X136260000Y-77780000D02*
X134764000Y-77780000D01*
X139828000Y-77820000D02*
X138340000Y-77820000D01*
X136260000Y-77820000D02*
X134772000Y-77820000D01*
X139820000Y-77860000D02*
X138340000Y-77860000D01*
X136260000Y-77860000D02*
X134780000Y-77860000D01*
X139811000Y-77900000D02*
X138340000Y-77900000D01*
X136260000Y-77900000D02*
X134789000Y-77900000D01*
X139801000Y-77940000D02*
X138340000Y-77940000D01*
X136260000Y-77940000D02*
X134799000Y-77940000D01*
X139791000Y-77980000D02*
X138340000Y-77980000D01*
X136260000Y-77980000D02*
X134809000Y-77980000D01*
X139780000Y-78021000D02*
X138340000Y-78021000D01*
X136260000Y-78021000D02*
X134820000Y-78021000D01*
X139768000Y-78061000D02*
X138340000Y-78061000D01*
X136260000Y-78061000D02*
X134832000Y-78061000D01*
X139755000Y-78101000D02*
X138340000Y-78101000D01*
X136260000Y-78101000D02*
X134845000Y-78101000D01*
X139742000Y-78141000D02*
X138340000Y-78141000D01*
X136260000Y-78141000D02*
X134858000Y-78141000D01*
X139728000Y-78181000D02*
X138340000Y-78181000D01*
X136260000Y-78181000D02*
X134872000Y-78181000D01*
X139714000Y-78221000D02*
X138340000Y-78221000D01*
X136260000Y-78221000D02*
X134886000Y-78221000D01*
X139698000Y-78261000D02*
X138340000Y-78261000D01*
X136260000Y-78261000D02*
X134902000Y-78261000D01*
X139682000Y-78301000D02*
X138340000Y-78301000D01*
X136260000Y-78301000D02*
X134918000Y-78301000D01*
X139665000Y-78341000D02*
X138340000Y-78341000D01*
X136260000Y-78341000D02*
X134935000Y-78341000D01*
X139648000Y-78381000D02*
X138340000Y-78381000D01*
X136260000Y-78381000D02*
X134952000Y-78381000D01*
X139629000Y-78421000D02*
X138340000Y-78421000D01*
X136260000Y-78421000D02*
X134971000Y-78421000D01*
X139610000Y-78461000D02*
X138340000Y-78461000D01*
X136260000Y-78461000D02*
X134990000Y-78461000D01*
X139590000Y-78501000D02*
X138340000Y-78501000D01*
X136260000Y-78501000D02*
X135010000Y-78501000D01*
X139568000Y-78541000D02*
X138340000Y-78541000D01*
X136260000Y-78541000D02*
X135032000Y-78541000D01*
X139547000Y-78581000D02*
X138340000Y-78581000D01*
X136260000Y-78581000D02*
X135053000Y-78581000D01*
X139524000Y-78621000D02*
X138340000Y-78621000D01*
X136260000Y-78621000D02*
X135076000Y-78621000D01*
X139500000Y-78661000D02*
X138340000Y-78661000D01*
X136260000Y-78661000D02*
X135100000Y-78661000D01*
X139475000Y-78701000D02*
X138340000Y-78701000D01*
X136260000Y-78701000D02*
X135125000Y-78701000D01*
X139449000Y-78741000D02*
X138340000Y-78741000D01*
X136260000Y-78741000D02*
X135151000Y-78741000D01*
X139422000Y-78781000D02*
X138340000Y-78781000D01*
X136260000Y-78781000D02*
X135178000Y-78781000D01*
X139395000Y-78821000D02*
X138340000Y-78821000D01*
X136260000Y-78821000D02*
X135205000Y-78821000D01*
X139365000Y-78861000D02*
X138340000Y-78861000D01*
X136260000Y-78861000D02*
X135235000Y-78861000D01*
X139335000Y-78901000D02*
X138340000Y-78901000D01*
X136260000Y-78901000D02*
X135265000Y-78901000D01*
X139304000Y-78941000D02*
X138340000Y-78941000D01*
X136260000Y-78941000D02*
X135296000Y-78941000D01*
X139271000Y-78981000D02*
X138340000Y-78981000D01*
X136260000Y-78981000D02*
X135329000Y-78981000D01*
X139237000Y-79021000D02*
X138340000Y-79021000D01*
X136260000Y-79021000D02*
X135363000Y-79021000D01*
X139201000Y-79061000D02*
X138340000Y-79061000D01*
X136260000Y-79061000D02*
X135399000Y-79061000D01*
X139164000Y-79101000D02*
X138340000Y-79101000D01*
X136260000Y-79101000D02*
X135436000Y-79101000D01*
X139126000Y-79141000D02*
X138340000Y-79141000D01*
X136260000Y-79141000D02*
X135474000Y-79141000D01*
X139085000Y-79181000D02*
X138340000Y-79181000D01*
X136260000Y-79181000D02*
X135515000Y-79181000D01*
X139043000Y-79221000D02*
X138340000Y-79221000D01*
X136260000Y-79221000D02*
X135557000Y-79221000D01*
X138999000Y-79261000D02*
X138340000Y-79261000D01*
X136260000Y-79261000D02*
X135601000Y-79261000D01*
X138953000Y-79301000D02*
X138340000Y-79301000D01*
X136260000Y-79301000D02*
X135647000Y-79301000D01*
X138905000Y-79341000D02*
X135695000Y-79341000D01*
X138854000Y-79381000D02*
X135746000Y-79381000D01*
X138800000Y-79421000D02*
X135800000Y-79421000D01*
X138743000Y-79461000D02*
X135857000Y-79461000D01*
X138683000Y-79501000D02*
X135917000Y-79501000D01*
X138619000Y-79541000D02*
X135981000Y-79541000D01*
X138551000Y-79581000D02*
X136049000Y-79581000D01*
X138478000Y-79621000D02*
X136122000Y-79621000D01*
X138398000Y-79661000D02*
X136202000Y-79661000D01*
X138311000Y-79701000D02*
X136289000Y-79701000D01*
X138215000Y-79741000D02*
X136385000Y-79741000D01*
X138105000Y-79781000D02*
X136495000Y-79781000D01*
X137977000Y-79821000D02*
X136623000Y-79821000D01*
X137818000Y-79861000D02*
X136782000Y-79861000D01*
X137584000Y-79901000D02*
X137016000Y-79901000D01*
X138775000Y-74495225D02*
X138775000Y-74995225D01*
X139025000Y-74745225D02*
X138525000Y-74745225D01*
X95190000Y-139447936D02*
X95190000Y-140652064D01*
X97910000Y-139447936D02*
X97910000Y-140652064D01*
X117037221Y-147210000D02*
X117362779Y-147210000D01*
X117037221Y-146190000D02*
X117362779Y-146190000D01*
D13*
X112650000Y-133190000D02*
X107360000Y-135840000D01*
X108790000Y-127580000D02*
X103500000Y-130230000D01*
X113517821Y-128430944D02*
G75*
G02X112707912Y-133167392I-2797821J-1959056D01*
G01*
X108770944Y-127602179D02*
G75*
G02X113507392Y-128412088I1959056J-2797821D01*
G01*
X107449056Y-135787821D02*
G75*
G02X102712608Y-134977912I-1959056J2797821D01*
G01*
X102702179Y-134959056D02*
G75*
G02X103512088Y-130222608I2797821J1959056D01*
G01*
D14*
X113014838Y-130338808D02*
G75*
G03X113014838Y-130338808I-2300001J0D01*
G01*
D12*
X107725000Y-79550000D02*
G75*
G02X108425000Y-80250000I0J-700000D01*
G01*
X108425000Y-80850000D02*
G75*
G02X107725000Y-81550000I-700000J0D01*
G01*
X106325000Y-81550000D02*
G75*
G02X105625000Y-80850000I0J700000D01*
G01*
X105625000Y-80250000D02*
G75*
G02X106325000Y-79550000I700000J0D01*
G01*
X105625000Y-80850000D02*
X105625000Y-80250000D01*
X107725000Y-81550000D02*
X106325000Y-81550000D01*
X108425000Y-80250000D02*
X108425000Y-80850000D01*
X106325000Y-79550000D02*
X107725000Y-79550000D01*
X112450000Y-77615000D02*
X110950000Y-77615000D01*
X112450000Y-77615000D02*
X113950000Y-77615000D01*
X112450000Y-80835000D02*
X110950000Y-80835000D01*
X112450000Y-80835000D02*
X115375000Y-80835000D01*
X121375279Y-138610000D02*
X121049721Y-138610000D01*
X121375279Y-137590000D02*
X121049721Y-137590000D01*
X121375279Y-141560000D02*
X121049721Y-141560000D01*
X121375279Y-140540000D02*
X121049721Y-140540000D01*
X121649721Y-78835000D02*
X121975279Y-78835000D01*
X121649721Y-77815000D02*
X121975279Y-77815000D01*
X107725000Y-78950000D02*
X106325000Y-78950000D01*
X105625000Y-78250000D02*
X105625000Y-77650000D01*
X106325000Y-76950000D02*
X107725000Y-76950000D01*
X108425000Y-77650000D02*
X108425000Y-78250000D01*
X108425000Y-78250000D02*
G75*
G02X107725000Y-78950000I-700000J0D01*
G01*
X107725000Y-76950000D02*
G75*
G02X108425000Y-77650000I0J-700000D01*
G01*
X105625000Y-77650000D02*
G75*
G02X106325000Y-76950000I700000J0D01*
G01*
X106325000Y-78950000D02*
G75*
G02X105625000Y-78250000I0J700000D01*
G01*
X107162779Y-82290000D02*
X106837221Y-82290000D01*
X107162779Y-83310000D02*
X106837221Y-83310000D01*
X131625000Y-78725000D02*
X131625000Y-80125000D01*
X130925000Y-80825000D02*
X130325000Y-80825000D01*
X129625000Y-80125000D02*
X129625000Y-78725000D01*
X130325000Y-78025000D02*
X130925000Y-78025000D01*
X130925000Y-78025000D02*
G75*
G02X131625000Y-78725000I0J-700000D01*
G01*
X129625000Y-78725000D02*
G75*
G02X130325000Y-78025000I700000J0D01*
G01*
X130325000Y-80825000D02*
G75*
G02X129625000Y-80125000I0J700000D01*
G01*
X131625000Y-80125000D02*
G75*
G02X130925000Y-80825000I-700000J0D01*
G01*
X121987779Y-80685000D02*
X121662221Y-80685000D01*
X121987779Y-79665000D02*
X121662221Y-79665000D01*
X118212221Y-79665000D02*
X118537779Y-79665000D01*
X118212221Y-80685000D02*
X118537779Y-80685000D01*
X118537779Y-78835000D02*
X118212221Y-78835000D01*
X118537779Y-77815000D02*
X118212221Y-77815000D01*
X112362221Y-82485000D02*
X112687779Y-82485000D01*
X112362221Y-81465000D02*
X112687779Y-81465000D01*
X85590000Y-87262779D02*
X85590000Y-86937221D01*
X86610000Y-87262779D02*
X86610000Y-86937221D01*
X113600000Y-148350000D02*
X114050000Y-148350000D01*
X113600000Y-150200000D02*
X113600000Y-148350000D01*
X121400000Y-152750000D02*
X121400000Y-152500000D01*
X113600000Y-152750000D02*
X113600000Y-152500000D01*
X121400000Y-150200000D02*
X121400000Y-148350000D01*
X121400000Y-148350000D02*
X120950000Y-148350000D01*
X115800000Y-147800000D02*
X116250000Y-147800000D01*
X115800000Y-147800000D02*
X115800000Y-148250000D01*
X102850000Y-137800000D02*
X102850000Y-141100000D01*
X102850000Y-141100000D02*
X108250000Y-141100000D01*
X102850000Y-137800000D02*
X108250000Y-137800000D01*
X124260000Y-122415000D02*
X126075000Y-122415000D01*
X124260000Y-122660000D02*
X124260000Y-122415000D01*
X120400000Y-122660000D02*
X124260000Y-122660000D01*
X116540000Y-122660000D02*
X116540000Y-122415000D01*
X120400000Y-122660000D02*
X116540000Y-122660000D01*
X124260000Y-104540000D02*
X124260000Y-104785000D01*
X120400000Y-104540000D02*
X124260000Y-104540000D01*
X116540000Y-104540000D02*
X116540000Y-104785000D01*
X120400000Y-104540000D02*
X116540000Y-104540000D01*
X102770000Y-94480000D02*
X102770000Y-93150000D01*
X104100000Y-94480000D02*
X102770000Y-94480000D01*
X105370000Y-94480000D02*
X105370000Y-91820000D01*
X105370000Y-91820000D02*
X125750000Y-91820000D01*
X105370000Y-94480000D02*
X125750000Y-94480000D01*
X125750000Y-94480000D02*
X125750000Y-91820000D01*
X124025000Y-101900000D02*
X124025000Y-103300000D01*
X123325000Y-104000000D02*
X122725000Y-104000000D01*
X122025000Y-103300000D02*
X122025000Y-101900000D01*
X122725000Y-101200000D02*
X123325000Y-101200000D01*
X123325000Y-101200000D02*
G75*
G02X124025000Y-101900000I0J-700000D01*
G01*
X122025000Y-101900000D02*
G75*
G02X122725000Y-101200000I700000J0D01*
G01*
X122725000Y-104000000D02*
G75*
G02X122025000Y-103300000I0J700000D01*
G01*
X124025000Y-103300000D02*
G75*
G02X123325000Y-104000000I-700000J0D01*
G01*
X121350000Y-101900000D02*
X121350000Y-103300000D01*
X120650000Y-104000000D02*
X120050000Y-104000000D01*
X119350000Y-103300000D02*
X119350000Y-101900000D01*
X120050000Y-101200000D02*
X120650000Y-101200000D01*
X120650000Y-101200000D02*
G75*
G02X121350000Y-101900000I0J-700000D01*
G01*
X119350000Y-101900000D02*
G75*
G02X120050000Y-101200000I700000J0D01*
G01*
X120050000Y-104000000D02*
G75*
G02X119350000Y-103300000I0J700000D01*
G01*
X121350000Y-103300000D02*
G75*
G02X120650000Y-104000000I-700000J0D01*
G01*
X105350000Y-100200000D02*
X105350000Y-101600000D01*
X104650000Y-102300000D02*
X104050000Y-102300000D01*
X103350000Y-101600000D02*
X103350000Y-100200000D01*
X104050000Y-99500000D02*
X104650000Y-99500000D01*
X104650000Y-99500000D02*
G75*
G02X105350000Y-100200000I0J-700000D01*
G01*
X103350000Y-100200000D02*
G75*
G02X104050000Y-99500000I700000J0D01*
G01*
X104050000Y-102300000D02*
G75*
G02X103350000Y-101600000I0J700000D01*
G01*
X105350000Y-101600000D02*
G75*
G02X104650000Y-102300000I-700000J0D01*
G01*
X102600000Y-100200000D02*
X102600000Y-101600000D01*
X101900000Y-102300000D02*
X101300000Y-102300000D01*
X100600000Y-101600000D02*
X100600000Y-100200000D01*
X101300000Y-99500000D02*
X101900000Y-99500000D01*
X101900000Y-99500000D02*
G75*
G02X102600000Y-100200000I0J-700000D01*
G01*
X100600000Y-100200000D02*
G75*
G02X101300000Y-99500000I700000J0D01*
G01*
X101300000Y-102300000D02*
G75*
G02X100600000Y-101600000I0J700000D01*
G01*
X102600000Y-101600000D02*
G75*
G02X101900000Y-102300000I-700000J0D01*
G01*
X142400000Y-93100000D02*
X142400000Y-94500000D01*
X141700000Y-95200000D02*
X141100000Y-95200000D01*
X140400000Y-94500000D02*
X140400000Y-93100000D01*
X141100000Y-92400000D02*
X141700000Y-92400000D01*
X141700000Y-92400000D02*
G75*
G02X142400000Y-93100000I0J-700000D01*
G01*
X140400000Y-93100000D02*
G75*
G02X141100000Y-92400000I700000J0D01*
G01*
X141100000Y-95200000D02*
G75*
G02X140400000Y-94500000I0J700000D01*
G01*
X142400000Y-94500000D02*
G75*
G02X141700000Y-95200000I-700000J0D01*
G01*
X139600000Y-93100000D02*
X139600000Y-94500000D01*
X138900000Y-95200000D02*
X138300000Y-95200000D01*
X137600000Y-94500000D02*
X137600000Y-93100000D01*
X138300000Y-92400000D02*
X138900000Y-92400000D01*
X138900000Y-92400000D02*
G75*
G02X139600000Y-93100000I0J-700000D01*
G01*
X137600000Y-93100000D02*
G75*
G02X138300000Y-92400000I700000J0D01*
G01*
X138300000Y-95200000D02*
G75*
G02X137600000Y-94500000I0J700000D01*
G01*
X139600000Y-94500000D02*
G75*
G02X138900000Y-95200000I-700000J0D01*
G01*
X92485000Y-147162221D02*
X92485000Y-147487779D01*
X91465000Y-147162221D02*
X91465000Y-147487779D01*
X104252064Y-145110000D02*
X103047936Y-145110000D01*
X104252064Y-142390000D02*
X103047936Y-142390000D01*
X101850000Y-146450000D02*
G75*
G02X102550000Y-147150000I0J-700000D01*
G01*
X102550000Y-147750000D02*
G75*
G02X101850000Y-148450000I-700000J0D01*
G01*
X100450000Y-148450000D02*
G75*
G02X99750000Y-147750000I0J700000D01*
G01*
X99750000Y-147150000D02*
G75*
G02X100450000Y-146450000I700000J0D01*
G01*
X99750000Y-147750000D02*
X99750000Y-147150000D01*
X101850000Y-148450000D02*
X100450000Y-148450000D01*
X102550000Y-147150000D02*
X102550000Y-147750000D01*
X100450000Y-146450000D02*
X101850000Y-146450000D01*
X101850000Y-151150000D02*
X100450000Y-151150000D01*
X99750000Y-150450000D02*
X99750000Y-149850000D01*
X100450000Y-149150000D02*
X101850000Y-149150000D01*
X102550000Y-149850000D02*
X102550000Y-150450000D01*
X102550000Y-150450000D02*
G75*
G02X101850000Y-151150000I-700000J0D01*
G01*
X101850000Y-149150000D02*
G75*
G02X102550000Y-149850000I0J-700000D01*
G01*
X99750000Y-149850000D02*
G75*
G02X100450000Y-149150000I700000J0D01*
G01*
X100450000Y-151150000D02*
G75*
G02X99750000Y-150450000I0J700000D01*
G01*
X115450000Y-137350000D02*
X117750000Y-137350000D01*
X117750000Y-137350000D02*
X117750000Y-144750000D01*
X117750000Y-144750000D02*
X115450000Y-144750000D01*
X112650000Y-144750000D02*
X110350000Y-144750000D01*
X110350000Y-144750000D02*
X110350000Y-137350000D01*
X110350000Y-137350000D02*
X112650000Y-137350000D01*
X104510000Y-148437221D02*
X104510000Y-148762779D01*
X103490000Y-148437221D02*
X103490000Y-148762779D01*
X98012779Y-144590000D02*
X97687221Y-144590000D01*
X98012779Y-145610000D02*
X97687221Y-145610000D01*
X87537779Y-151085000D02*
X87212221Y-151085000D01*
X87537779Y-150065000D02*
X87212221Y-150065000D01*
X99637221Y-137990000D02*
X99962779Y-137990000D01*
X99637221Y-139010000D02*
X99962779Y-139010000D01*
X99637221Y-141710000D02*
X99962779Y-141710000D01*
X99637221Y-140690000D02*
X99962779Y-140690000D01*
X108950000Y-151560000D02*
X110900000Y-151560000D01*
X108950000Y-151560000D02*
X107000000Y-151560000D01*
X108950000Y-146440000D02*
X110900000Y-146440000D01*
X108950000Y-146440000D02*
X105500000Y-146440000D01*
X87515000Y-146825000D02*
X87515000Y-149275000D01*
X90735000Y-148625000D02*
X90735000Y-146825000D01*
X83765000Y-146825000D02*
X83765000Y-148625000D01*
X86985000Y-148625000D02*
X86985000Y-146175000D01*
X106390000Y-142450000D02*
X106390000Y-144250000D01*
X109610000Y-144250000D02*
X109610000Y-141800000D01*
X86445000Y-142455000D02*
X86445000Y-139795000D01*
X83845000Y-142455000D02*
X86445000Y-142455000D01*
X83845000Y-139795000D02*
X86445000Y-139795000D01*
X83845000Y-142455000D02*
X83845000Y-139795000D01*
X82575000Y-142455000D02*
X81245000Y-142455000D01*
X81245000Y-142455000D02*
X81245000Y-141125000D01*
X153480000Y-78240000D02*
X150820000Y-78240000D01*
X153480000Y-96080000D02*
X153480000Y-78240000D01*
X150820000Y-96080000D02*
X150820000Y-78240000D01*
X153480000Y-96080000D02*
X150820000Y-96080000D01*
X153480000Y-97350000D02*
X153480000Y-98680000D01*
X153480000Y-98680000D02*
X152150000Y-98680000D01*
X140210000Y-81587221D02*
X140210000Y-81912779D01*
X139190000Y-81587221D02*
X139190000Y-81912779D01*
X89728608Y-81692335D02*
G75*
G03X89885516Y-78460000I-1078608J1672335D01*
G01*
X87571392Y-81692335D02*
G75*
G02X87414484Y-78460000I1078608J1672335D01*
G01*
X89729837Y-81061130D02*
G75*
G03X89730000Y-78979039I-1079837J1041130D01*
G01*
X87570163Y-81061130D02*
G75*
G02X87570000Y-78979039I1079837J1041130D01*
G01*
X89886000Y-78460000D02*
X89730000Y-78460000D01*
X87570000Y-78460000D02*
X87414000Y-78460000D01*
X127280000Y-136280000D02*
X124620000Y-136280000D01*
X127280000Y-138880000D02*
X127280000Y-136280000D01*
X124620000Y-138880000D02*
X124620000Y-136280000D01*
X127280000Y-138880000D02*
X124620000Y-138880000D01*
X127280000Y-140150000D02*
X127280000Y-141480000D01*
X127280000Y-141480000D02*
X125950000Y-141480000D01*
X88800000Y-91900000D02*
G75*
G02X89500000Y-92600000I0J-700000D01*
G01*
X89500000Y-93200000D02*
G75*
G02X88800000Y-93900000I-700000J0D01*
G01*
X87400000Y-93900000D02*
G75*
G02X86700000Y-93200000I0J700000D01*
G01*
X86700000Y-92600000D02*
G75*
G02X87400000Y-91900000I700000J0D01*
G01*
X86700000Y-93200000D02*
X86700000Y-92600000D01*
X88800000Y-93900000D02*
X87400000Y-93900000D01*
X89500000Y-92600000D02*
X89500000Y-93200000D01*
X87400000Y-91900000D02*
X88800000Y-91900000D01*
X141490000Y-78787221D02*
X141490000Y-79112779D01*
X142510000Y-78787221D02*
X142510000Y-79112779D01*
X136590000Y-81962779D02*
X136590000Y-81637221D01*
X137610000Y-81962779D02*
X137610000Y-81637221D01*
X84180000Y-91305000D02*
X82850000Y-91305000D01*
X84180000Y-89975000D02*
X84180000Y-91305000D01*
X84180000Y-88705000D02*
X81520000Y-88705000D01*
X81520000Y-88705000D02*
X81520000Y-86105000D01*
X84180000Y-88705000D02*
X84180000Y-86105000D01*
X84180000Y-86105000D02*
X81520000Y-86105000D01*
D13*
X156700000Y-105300000D02*
G75*
G03X156700000Y-105300000I-4000000J0D01*
G01*
X142200000Y-112100000D02*
G75*
G03X142200000Y-112100000I-4000000J0D01*
G01*
X98200000Y-119200000D02*
G75*
G03X98200000Y-119200000I-4000000J0D01*
G01*
X89000000Y-110200000D02*
G75*
G03X89000000Y-110200000I-4000000J0D01*
G01*
X107300000Y-110200000D02*
G75*
G03X107300000Y-110200000I-4000000J0D01*
G01*
D14*
X128214838Y-130338808D02*
G75*
G03X128214838Y-130338808I-2300001J0D01*
G01*
D13*
X117902179Y-134959056D02*
G75*
G02X118712088Y-130222608I2797821J1959056D01*
G01*
X122649056Y-135787821D02*
G75*
G02X117912608Y-134977912I-1959056J2797821D01*
G01*
X123970944Y-127602179D02*
G75*
G02X128707392Y-128412088I1959056J-2797821D01*
G01*
X128717821Y-128430944D02*
G75*
G02X127907912Y-133167392I-2797821J-1959056D01*
G01*
X123990000Y-127580000D02*
X118700000Y-130230000D01*
X127850000Y-133190000D02*
X122560000Y-135840000D01*
X98200000Y-100900000D02*
G75*
G03X98200000Y-100900000I-4000000J0D01*
G01*
D12*
X128350000Y-80150000D02*
G75*
G02X127650000Y-80850000I-700000J0D01*
G01*
X127050000Y-80850000D02*
G75*
G02X126350000Y-80150000I0J700000D01*
G01*
X126350000Y-78750000D02*
G75*
G02X127050000Y-78050000I700000J0D01*
G01*
X127650000Y-78050000D02*
G75*
G02X128350000Y-78750000I0J-700000D01*
G01*
X127050000Y-78050000D02*
X127650000Y-78050000D01*
X126350000Y-80150000D02*
X126350000Y-78750000D01*
X127650000Y-80850000D02*
X127050000Y-80850000D01*
X128350000Y-78750000D02*
X128350000Y-80150000D01*
X141000000Y-81500000D02*
G75*
G02X141700000Y-80800000I700000J0D01*
G01*
X142300000Y-80800000D02*
G75*
G02X143000000Y-81500000I0J-700000D01*
G01*
X143000000Y-82900000D02*
G75*
G02X142300000Y-83600000I-700000J0D01*
G01*
X141700000Y-83600000D02*
G75*
G02X141000000Y-82900000I0J700000D01*
G01*
X142300000Y-83600000D02*
X141700000Y-83600000D01*
X143000000Y-81500000D02*
X143000000Y-82900000D01*
X141700000Y-80800000D02*
X142300000Y-80800000D01*
X141000000Y-82900000D02*
X141000000Y-81500000D01*
D10*
X136950000Y-68800000D02*
G75*
G03X136950000Y-68800000I-8000000J0D01*
G01*
D12*
X139571917Y-75260490D02*
X139265499Y-75003374D01*
X139418708Y-75131932D02*
X139868659Y-74595701D01*
X139753311Y-74629453D01*
X139659389Y-74637670D01*
X139586893Y-74620352D01*
X140353821Y-75002800D02*
X140404890Y-75045652D01*
X140434534Y-75114040D01*
X140438642Y-75161001D01*
X140421325Y-75233497D01*
X140361154Y-75357062D01*
X140254023Y-75484736D01*
X140142783Y-75565449D01*
X140074396Y-75595092D01*
X140027435Y-75599201D01*
X139954939Y-75581883D01*
X139903869Y-75539031D01*
X139874226Y-75470644D01*
X139870117Y-75423682D01*
X139887435Y-75351187D01*
X139947605Y-75227621D01*
X140054737Y-75099947D01*
X140165976Y-75019234D01*
X140234364Y-74989591D01*
X140281325Y-74985482D01*
X140353821Y-75002800D01*
X140842207Y-75717200D02*
X140542240Y-76074687D01*
X140612394Y-75524363D02*
X140376705Y-75805246D01*
X140359387Y-75877742D01*
X140389031Y-75946130D01*
X140465635Y-76010408D01*
X140538131Y-76027726D01*
X140585092Y-76023618D01*
X141212020Y-76158051D02*
X141033277Y-76008067D01*
X140797588Y-76288950D02*
X141247539Y-75752719D01*
X141502887Y-75966981D01*
X96050000Y-136783333D02*
X96083333Y-136750000D01*
X96150000Y-136716666D01*
X96316666Y-136716666D01*
X96383333Y-136750000D01*
X96416666Y-136783333D01*
X96450000Y-136850000D01*
X96450000Y-136916666D01*
X96416666Y-137016666D01*
X96016666Y-137416666D01*
X96450000Y-137416666D01*
X96716666Y-136783333D02*
X96750000Y-136750000D01*
X96816666Y-136716666D01*
X96983333Y-136716666D01*
X97050000Y-136750000D01*
X97083333Y-136783333D01*
X97116666Y-136850000D01*
X97116666Y-136916666D01*
X97083333Y-137016666D01*
X96683333Y-137416666D01*
X97116666Y-137416666D01*
X97716666Y-136950000D02*
X97716666Y-137416666D01*
X97416666Y-136950000D02*
X97416666Y-137316666D01*
X97450000Y-137383333D01*
X97516666Y-137416666D01*
X97616666Y-137416666D01*
X97683333Y-137383333D01*
X97716666Y-137350000D01*
X114237500Y-147316666D02*
X113837500Y-147316666D01*
X114037500Y-147316666D02*
X114037500Y-146616666D01*
X113970833Y-146716666D01*
X113904166Y-146783333D01*
X113837500Y-146816666D01*
X114670833Y-146616666D02*
X114737500Y-146616666D01*
X114804166Y-146650000D01*
X114837500Y-146683333D01*
X114870833Y-146750000D01*
X114904166Y-146883333D01*
X114904166Y-147050000D01*
X114870833Y-147183333D01*
X114837500Y-147250000D01*
X114804166Y-147283333D01*
X114737500Y-147316666D01*
X114670833Y-147316666D01*
X114604166Y-147283333D01*
X114570833Y-147250000D01*
X114537500Y-147183333D01*
X114504166Y-147050000D01*
X114504166Y-146883333D01*
X114537500Y-146750000D01*
X114570833Y-146683333D01*
X114604166Y-146650000D01*
X114670833Y-146616666D01*
X115504166Y-146850000D02*
X115504166Y-147316666D01*
X115204166Y-146850000D02*
X115204166Y-147216666D01*
X115237500Y-147283333D01*
X115304166Y-147316666D01*
X115404166Y-147316666D01*
X115470833Y-147283333D01*
X115504166Y-147250000D01*
X109225000Y-77141666D02*
X109225000Y-76441666D01*
X109491666Y-76441666D01*
X109558333Y-76475000D01*
X109591666Y-76508333D01*
X109625000Y-76575000D01*
X109625000Y-76675000D01*
X109591666Y-76741666D01*
X109558333Y-76775000D01*
X109491666Y-76808333D01*
X109225000Y-76808333D01*
X109891666Y-76941666D02*
X110225000Y-76941666D01*
X109825000Y-77141666D02*
X110058333Y-76441666D01*
X110291666Y-77141666D01*
X110525000Y-77141666D02*
X110525000Y-76441666D01*
X110758333Y-76941666D01*
X110991666Y-76441666D01*
X110991666Y-77141666D01*
X111425000Y-76741666D02*
X111358333Y-76708333D01*
X111325000Y-76675000D01*
X111291666Y-76608333D01*
X111291666Y-76575000D01*
X111325000Y-76508333D01*
X111358333Y-76475000D01*
X111425000Y-76441666D01*
X111558333Y-76441666D01*
X111625000Y-76475000D01*
X111658333Y-76508333D01*
X111691666Y-76575000D01*
X111691666Y-76608333D01*
X111658333Y-76675000D01*
X111625000Y-76708333D01*
X111558333Y-76741666D01*
X111425000Y-76741666D01*
X111358333Y-76775000D01*
X111325000Y-76808333D01*
X111291666Y-76875000D01*
X111291666Y-77008333D01*
X111325000Y-77075000D01*
X111358333Y-77108333D01*
X111425000Y-77141666D01*
X111558333Y-77141666D01*
X111625000Y-77108333D01*
X111658333Y-77075000D01*
X111691666Y-77008333D01*
X111691666Y-76875000D01*
X111658333Y-76808333D01*
X111625000Y-76775000D01*
X111558333Y-76741666D01*
X111925000Y-76441666D02*
X112358333Y-76441666D01*
X112125000Y-76708333D01*
X112225000Y-76708333D01*
X112291666Y-76741666D01*
X112325000Y-76775000D01*
X112358333Y-76841666D01*
X112358333Y-77008333D01*
X112325000Y-77075000D01*
X112291666Y-77108333D01*
X112225000Y-77141666D01*
X112025000Y-77141666D01*
X111958333Y-77108333D01*
X111925000Y-77075000D01*
X112791666Y-76441666D02*
X112858333Y-76441666D01*
X112925000Y-76475000D01*
X112958333Y-76508333D01*
X112991666Y-76575000D01*
X113025000Y-76708333D01*
X113025000Y-76875000D01*
X112991666Y-77008333D01*
X112958333Y-77075000D01*
X112925000Y-77108333D01*
X112858333Y-77141666D01*
X112791666Y-77141666D01*
X112725000Y-77108333D01*
X112691666Y-77075000D01*
X112658333Y-77008333D01*
X112625000Y-76875000D01*
X112625000Y-76708333D01*
X112658333Y-76575000D01*
X112691666Y-76508333D01*
X112725000Y-76475000D01*
X112791666Y-76441666D01*
X113291666Y-76508333D02*
X113325000Y-76475000D01*
X113391666Y-76441666D01*
X113558333Y-76441666D01*
X113625000Y-76475000D01*
X113658333Y-76508333D01*
X113691666Y-76575000D01*
X113691666Y-76641666D01*
X113658333Y-76741666D01*
X113258333Y-77141666D01*
X113691666Y-77141666D01*
X113958333Y-76941666D02*
X114291666Y-76941666D01*
X113891666Y-77141666D02*
X114125000Y-76441666D01*
X114358333Y-77141666D01*
X114558333Y-76941666D02*
X114891666Y-76941666D01*
X114491666Y-77141666D02*
X114725000Y-76441666D01*
X114958333Y-77141666D01*
X115158333Y-77108333D02*
X115258333Y-77141666D01*
X115425000Y-77141666D01*
X115491666Y-77108333D01*
X115525000Y-77075000D01*
X115558333Y-77008333D01*
X115558333Y-76941666D01*
X115525000Y-76875000D01*
X115491666Y-76841666D01*
X115425000Y-76808333D01*
X115291666Y-76775000D01*
X115225000Y-76741666D01*
X115191666Y-76708333D01*
X115158333Y-76641666D01*
X115158333Y-76575000D01*
X115191666Y-76508333D01*
X115225000Y-76475000D01*
X115291666Y-76441666D01*
X115458333Y-76441666D01*
X115558333Y-76475000D01*
X120066666Y-139283333D02*
X120100000Y-139250000D01*
X120166666Y-139216666D01*
X120333333Y-139216666D01*
X120400000Y-139250000D01*
X120433333Y-139283333D01*
X120466666Y-139350000D01*
X120466666Y-139416666D01*
X120433333Y-139516666D01*
X120033333Y-139916666D01*
X120466666Y-139916666D01*
X120733333Y-139283333D02*
X120766666Y-139250000D01*
X120833333Y-139216666D01*
X121000000Y-139216666D01*
X121066666Y-139250000D01*
X121100000Y-139283333D01*
X121133333Y-139350000D01*
X121133333Y-139416666D01*
X121100000Y-139516666D01*
X120700000Y-139916666D01*
X121133333Y-139916666D01*
X121566666Y-139216666D02*
X121633333Y-139216666D01*
X121700000Y-139250000D01*
X121733333Y-139283333D01*
X121766666Y-139350000D01*
X121800000Y-139483333D01*
X121800000Y-139650000D01*
X121766666Y-139783333D01*
X121733333Y-139850000D01*
X121700000Y-139883333D01*
X121633333Y-139916666D01*
X121566666Y-139916666D01*
X121500000Y-139883333D01*
X121466666Y-139850000D01*
X121433333Y-139783333D01*
X121400000Y-139650000D01*
X121400000Y-139483333D01*
X121433333Y-139350000D01*
X121466666Y-139283333D01*
X121500000Y-139250000D01*
X121566666Y-139216666D01*
X122100000Y-139450000D02*
X122100000Y-140150000D01*
X122100000Y-139483333D02*
X122166666Y-139450000D01*
X122300000Y-139450000D01*
X122366666Y-139483333D01*
X122400000Y-139516666D01*
X122433333Y-139583333D01*
X122433333Y-139783333D01*
X122400000Y-139850000D01*
X122366666Y-139883333D01*
X122300000Y-139916666D01*
X122166666Y-139916666D01*
X122100000Y-139883333D01*
X120029166Y-142183333D02*
X120062500Y-142150000D01*
X120129166Y-142116666D01*
X120295833Y-142116666D01*
X120362500Y-142150000D01*
X120395833Y-142183333D01*
X120429166Y-142250000D01*
X120429166Y-142316666D01*
X120395833Y-142416666D01*
X119995833Y-142816666D01*
X120429166Y-142816666D01*
X120695833Y-142183333D02*
X120729166Y-142150000D01*
X120795833Y-142116666D01*
X120962500Y-142116666D01*
X121029166Y-142150000D01*
X121062500Y-142183333D01*
X121095833Y-142250000D01*
X121095833Y-142316666D01*
X121062500Y-142416666D01*
X120662500Y-142816666D01*
X121095833Y-142816666D01*
X121529166Y-142116666D02*
X121595833Y-142116666D01*
X121662500Y-142150000D01*
X121695833Y-142183333D01*
X121729166Y-142250000D01*
X121762500Y-142383333D01*
X121762500Y-142550000D01*
X121729166Y-142683333D01*
X121695833Y-142750000D01*
X121662500Y-142783333D01*
X121595833Y-142816666D01*
X121529166Y-142816666D01*
X121462500Y-142783333D01*
X121429166Y-142750000D01*
X121395833Y-142683333D01*
X121362500Y-142550000D01*
X121362500Y-142383333D01*
X121395833Y-142250000D01*
X121429166Y-142183333D01*
X121462500Y-142150000D01*
X121529166Y-142116666D01*
X122062500Y-142350000D02*
X122062500Y-143050000D01*
X122062500Y-142383333D02*
X122129166Y-142350000D01*
X122262500Y-142350000D01*
X122329166Y-142383333D01*
X122362500Y-142416666D01*
X122395833Y-142483333D01*
X122395833Y-142683333D01*
X122362500Y-142750000D01*
X122329166Y-142783333D01*
X122262500Y-142816666D01*
X122129166Y-142816666D01*
X122062500Y-142783333D01*
X121608333Y-77191666D02*
X121208333Y-77191666D01*
X121408333Y-77191666D02*
X121408333Y-76491666D01*
X121341666Y-76591666D01*
X121275000Y-76658333D01*
X121208333Y-76691666D01*
X122208333Y-76725000D02*
X122208333Y-77191666D01*
X121908333Y-76725000D02*
X121908333Y-77091666D01*
X121941666Y-77158333D01*
X122008333Y-77191666D01*
X122108333Y-77191666D01*
X122175000Y-77158333D01*
X122208333Y-77125000D01*
X103825000Y-83141666D02*
X103425000Y-83141666D01*
X103625000Y-83141666D02*
X103625000Y-82441666D01*
X103558333Y-82541666D01*
X103491666Y-82608333D01*
X103425000Y-82641666D01*
X104258333Y-82441666D02*
X104325000Y-82441666D01*
X104391666Y-82475000D01*
X104425000Y-82508333D01*
X104458333Y-82575000D01*
X104491666Y-82708333D01*
X104491666Y-82875000D01*
X104458333Y-83008333D01*
X104425000Y-83075000D01*
X104391666Y-83108333D01*
X104325000Y-83141666D01*
X104258333Y-83141666D01*
X104191666Y-83108333D01*
X104158333Y-83075000D01*
X104125000Y-83008333D01*
X104091666Y-82875000D01*
X104091666Y-82708333D01*
X104125000Y-82575000D01*
X104158333Y-82508333D01*
X104191666Y-82475000D01*
X104258333Y-82441666D01*
X105091666Y-82675000D02*
X105091666Y-83141666D01*
X104791666Y-82675000D02*
X104791666Y-83041666D01*
X104825000Y-83108333D01*
X104891666Y-83141666D01*
X104991666Y-83141666D01*
X105058333Y-83108333D01*
X105091666Y-83075000D01*
X121708333Y-81891666D02*
X121308333Y-81891666D01*
X121508333Y-81891666D02*
X121508333Y-81191666D01*
X121441666Y-81291666D01*
X121375000Y-81358333D01*
X121308333Y-81391666D01*
X122308333Y-81425000D02*
X122308333Y-81891666D01*
X122008333Y-81425000D02*
X122008333Y-81791666D01*
X122041666Y-81858333D01*
X122108333Y-81891666D01*
X122208333Y-81891666D01*
X122275000Y-81858333D01*
X122308333Y-81825000D01*
X117558333Y-81921666D02*
X117158333Y-81921666D01*
X117358333Y-81921666D02*
X117358333Y-81221666D01*
X117291666Y-81321666D01*
X117225000Y-81388333D01*
X117158333Y-81421666D01*
X117991666Y-81221666D02*
X118058333Y-81221666D01*
X118125000Y-81255000D01*
X118158333Y-81288333D01*
X118191666Y-81355000D01*
X118225000Y-81488333D01*
X118225000Y-81655000D01*
X118191666Y-81788333D01*
X118158333Y-81855000D01*
X118125000Y-81888333D01*
X118058333Y-81921666D01*
X117991666Y-81921666D01*
X117925000Y-81888333D01*
X117891666Y-81855000D01*
X117858333Y-81788333D01*
X117825000Y-81655000D01*
X117825000Y-81488333D01*
X117858333Y-81355000D01*
X117891666Y-81288333D01*
X117925000Y-81255000D01*
X117991666Y-81221666D01*
X118658333Y-81221666D02*
X118725000Y-81221666D01*
X118791666Y-81255000D01*
X118825000Y-81288333D01*
X118858333Y-81355000D01*
X118891666Y-81488333D01*
X118891666Y-81655000D01*
X118858333Y-81788333D01*
X118825000Y-81855000D01*
X118791666Y-81888333D01*
X118725000Y-81921666D01*
X118658333Y-81921666D01*
X118591666Y-81888333D01*
X118558333Y-81855000D01*
X118525000Y-81788333D01*
X118491666Y-81655000D01*
X118491666Y-81488333D01*
X118525000Y-81355000D01*
X118558333Y-81288333D01*
X118591666Y-81255000D01*
X118658333Y-81221666D01*
X119591666Y-81921666D02*
X119358333Y-81588333D01*
X119191666Y-81921666D02*
X119191666Y-81221666D01*
X119458333Y-81221666D01*
X119525000Y-81255000D01*
X119558333Y-81288333D01*
X119591666Y-81355000D01*
X119591666Y-81455000D01*
X119558333Y-81521666D01*
X119525000Y-81555000D01*
X119458333Y-81588333D01*
X119191666Y-81588333D01*
X117558333Y-77211666D02*
X117158333Y-77211666D01*
X117358333Y-77211666D02*
X117358333Y-76511666D01*
X117291666Y-76611666D01*
X117225000Y-76678333D01*
X117158333Y-76711666D01*
X117991666Y-76511666D02*
X118058333Y-76511666D01*
X118125000Y-76545000D01*
X118158333Y-76578333D01*
X118191666Y-76645000D01*
X118225000Y-76778333D01*
X118225000Y-76945000D01*
X118191666Y-77078333D01*
X118158333Y-77145000D01*
X118125000Y-77178333D01*
X118058333Y-77211666D01*
X117991666Y-77211666D01*
X117925000Y-77178333D01*
X117891666Y-77145000D01*
X117858333Y-77078333D01*
X117825000Y-76945000D01*
X117825000Y-76778333D01*
X117858333Y-76645000D01*
X117891666Y-76578333D01*
X117925000Y-76545000D01*
X117991666Y-76511666D01*
X118658333Y-76511666D02*
X118725000Y-76511666D01*
X118791666Y-76545000D01*
X118825000Y-76578333D01*
X118858333Y-76645000D01*
X118891666Y-76778333D01*
X118891666Y-76945000D01*
X118858333Y-77078333D01*
X118825000Y-77145000D01*
X118791666Y-77178333D01*
X118725000Y-77211666D01*
X118658333Y-77211666D01*
X118591666Y-77178333D01*
X118558333Y-77145000D01*
X118525000Y-77078333D01*
X118491666Y-76945000D01*
X118491666Y-76778333D01*
X118525000Y-76645000D01*
X118558333Y-76578333D01*
X118591666Y-76545000D01*
X118658333Y-76511666D01*
X119591666Y-77211666D02*
X119358333Y-76878333D01*
X119191666Y-77211666D02*
X119191666Y-76511666D01*
X119458333Y-76511666D01*
X119525000Y-76545000D01*
X119558333Y-76578333D01*
X119591666Y-76645000D01*
X119591666Y-76745000D01*
X119558333Y-76811666D01*
X119525000Y-76845000D01*
X119458333Y-76878333D01*
X119191666Y-76878333D01*
X112041666Y-83721666D02*
X111641666Y-83721666D01*
X111841666Y-83721666D02*
X111841666Y-83021666D01*
X111775000Y-83121666D01*
X111708333Y-83188333D01*
X111641666Y-83221666D01*
X112475000Y-83021666D02*
X112541666Y-83021666D01*
X112608333Y-83055000D01*
X112641666Y-83088333D01*
X112675000Y-83155000D01*
X112708333Y-83288333D01*
X112708333Y-83455000D01*
X112675000Y-83588333D01*
X112641666Y-83655000D01*
X112608333Y-83688333D01*
X112541666Y-83721666D01*
X112475000Y-83721666D01*
X112408333Y-83688333D01*
X112375000Y-83655000D01*
X112341666Y-83588333D01*
X112308333Y-83455000D01*
X112308333Y-83288333D01*
X112341666Y-83155000D01*
X112375000Y-83088333D01*
X112408333Y-83055000D01*
X112475000Y-83021666D01*
X113008333Y-83721666D02*
X113008333Y-83021666D01*
X113408333Y-83721666D02*
X113108333Y-83321666D01*
X113408333Y-83021666D02*
X113008333Y-83421666D01*
X86366666Y-84962500D02*
X86366666Y-85362500D01*
X86366666Y-85162500D02*
X85666666Y-85162500D01*
X85766666Y-85229166D01*
X85833333Y-85295833D01*
X85866666Y-85362500D01*
X86366666Y-84662500D02*
X85666666Y-84662500D01*
X86366666Y-84262500D02*
X85966666Y-84562500D01*
X85666666Y-84262500D02*
X86066666Y-84662500D01*
X102383333Y-140933333D02*
X102416666Y-140833333D01*
X102416666Y-140666666D01*
X102383333Y-140600000D01*
X102350000Y-140566666D01*
X102283333Y-140533333D01*
X102216666Y-140533333D01*
X102150000Y-140566666D01*
X102116666Y-140600000D01*
X102083333Y-140666666D01*
X102050000Y-140800000D01*
X102016666Y-140866666D01*
X101983333Y-140900000D01*
X101916666Y-140933333D01*
X101850000Y-140933333D01*
X101783333Y-140900000D01*
X101750000Y-140866666D01*
X101716666Y-140800000D01*
X101716666Y-140633333D01*
X101750000Y-140533333D01*
X102383333Y-140266666D02*
X102416666Y-140166666D01*
X102416666Y-140000000D01*
X102383333Y-139933333D01*
X102350000Y-139900000D01*
X102283333Y-139866666D01*
X102216666Y-139866666D01*
X102150000Y-139900000D01*
X102116666Y-139933333D01*
X102083333Y-140000000D01*
X102050000Y-140133333D01*
X102016666Y-140200000D01*
X101983333Y-140233333D01*
X101916666Y-140266666D01*
X101850000Y-140266666D01*
X101783333Y-140233333D01*
X101750000Y-140200000D01*
X101716666Y-140133333D01*
X101716666Y-139966666D01*
X101750000Y-139866666D01*
X101716666Y-139633333D02*
X101716666Y-139200000D01*
X101983333Y-139433333D01*
X101983333Y-139333333D01*
X102016666Y-139266666D01*
X102050000Y-139233333D01*
X102116666Y-139200000D01*
X102283333Y-139200000D01*
X102350000Y-139233333D01*
X102383333Y-139266666D01*
X102416666Y-139333333D01*
X102416666Y-139533333D01*
X102383333Y-139600000D01*
X102350000Y-139633333D01*
X102416666Y-138533333D02*
X102416666Y-138933333D01*
X102416666Y-138733333D02*
X101716666Y-138733333D01*
X101816666Y-138800000D01*
X101883333Y-138866666D01*
X101916666Y-138933333D01*
X101716666Y-138100000D02*
X101716666Y-138033333D01*
X101750000Y-137966666D01*
X101783333Y-137933333D01*
X101850000Y-137900000D01*
X101983333Y-137866666D01*
X102150000Y-137866666D01*
X102283333Y-137900000D01*
X102350000Y-137933333D01*
X102383333Y-137966666D01*
X102416666Y-138033333D01*
X102416666Y-138100000D01*
X102383333Y-138166666D01*
X102350000Y-138200000D01*
X102283333Y-138233333D01*
X102150000Y-138266666D01*
X101983333Y-138266666D01*
X101850000Y-138233333D01*
X101783333Y-138200000D01*
X101750000Y-138166666D01*
X101716666Y-138100000D01*
X91641666Y-145275000D02*
X91641666Y-145208333D01*
X91675000Y-145141666D01*
X91708333Y-145108333D01*
X91775000Y-145075000D01*
X91908333Y-145041666D01*
X92075000Y-145041666D01*
X92208333Y-145075000D01*
X92275000Y-145108333D01*
X92308333Y-145141666D01*
X92341666Y-145208333D01*
X92341666Y-145275000D01*
X92308333Y-145341666D01*
X92275000Y-145375000D01*
X92208333Y-145408333D01*
X92075000Y-145441666D01*
X91908333Y-145441666D01*
X91775000Y-145408333D01*
X91708333Y-145375000D01*
X91675000Y-145341666D01*
X91641666Y-145275000D01*
X92275000Y-144741666D02*
X92308333Y-144708333D01*
X92341666Y-144741666D01*
X92308333Y-144775000D01*
X92275000Y-144741666D01*
X92341666Y-144741666D01*
X92341666Y-144041666D02*
X92341666Y-144441666D01*
X92341666Y-144241666D02*
X91641666Y-144241666D01*
X91741666Y-144308333D01*
X91808333Y-144375000D01*
X91841666Y-144441666D01*
X91875000Y-143441666D02*
X92341666Y-143441666D01*
X91875000Y-143741666D02*
X92241666Y-143741666D01*
X92308333Y-143708333D01*
X92341666Y-143641666D01*
X92341666Y-143541666D01*
X92308333Y-143475000D01*
X92275000Y-143441666D01*
X100483333Y-144750000D02*
X100450000Y-144716666D01*
X100416666Y-144650000D01*
X100416666Y-144483333D01*
X100450000Y-144416666D01*
X100483333Y-144383333D01*
X100550000Y-144350000D01*
X100616666Y-144350000D01*
X100716666Y-144383333D01*
X101116666Y-144783333D01*
X101116666Y-144350000D01*
X100483333Y-144083333D02*
X100450000Y-144050000D01*
X100416666Y-143983333D01*
X100416666Y-143816666D01*
X100450000Y-143750000D01*
X100483333Y-143716666D01*
X100550000Y-143683333D01*
X100616666Y-143683333D01*
X100716666Y-143716666D01*
X101116666Y-144116666D01*
X101116666Y-143683333D01*
X100650000Y-143083333D02*
X101116666Y-143083333D01*
X100650000Y-143383333D02*
X101016666Y-143383333D01*
X101083333Y-143350000D01*
X101116666Y-143283333D01*
X101116666Y-143183333D01*
X101083333Y-143116666D01*
X101050000Y-143083333D01*
X113733333Y-135783333D02*
X113766666Y-135750000D01*
X113833333Y-135716666D01*
X114000000Y-135716666D01*
X114066666Y-135750000D01*
X114100000Y-135783333D01*
X114133333Y-135850000D01*
X114133333Y-135916666D01*
X114100000Y-136016666D01*
X113700000Y-136416666D01*
X114133333Y-136416666D01*
X114400000Y-135783333D02*
X114433333Y-135750000D01*
X114500000Y-135716666D01*
X114666666Y-135716666D01*
X114733333Y-135750000D01*
X114766666Y-135783333D01*
X114800000Y-135850000D01*
X114800000Y-135916666D01*
X114766666Y-136016666D01*
X114366666Y-136416666D01*
X114800000Y-136416666D01*
X115400000Y-135950000D02*
X115400000Y-136416666D01*
X115100000Y-135950000D02*
X115100000Y-136316666D01*
X115133333Y-136383333D01*
X115200000Y-136416666D01*
X115300000Y-136416666D01*
X115366666Y-136383333D01*
X115400000Y-136350000D01*
X115733333Y-136416666D02*
X115733333Y-135716666D01*
X115733333Y-136050000D02*
X116133333Y-136050000D01*
X116133333Y-136416666D02*
X116133333Y-135716666D01*
X103733333Y-151500000D02*
X103700000Y-151466666D01*
X103666666Y-151400000D01*
X103666666Y-151233333D01*
X103700000Y-151166666D01*
X103733333Y-151133333D01*
X103800000Y-151100000D01*
X103866666Y-151100000D01*
X103966666Y-151133333D01*
X104366666Y-151533333D01*
X104366666Y-151100000D01*
X104366666Y-150800000D02*
X103666666Y-150800000D01*
X104366666Y-150400000D02*
X103966666Y-150700000D01*
X103666666Y-150400000D02*
X104066666Y-150800000D01*
X97033333Y-144066666D02*
X96633333Y-144066666D01*
X96833333Y-144066666D02*
X96833333Y-143366666D01*
X96766666Y-143466666D01*
X96700000Y-143533333D01*
X96633333Y-143566666D01*
X97466666Y-143366666D02*
X97533333Y-143366666D01*
X97600000Y-143400000D01*
X97633333Y-143433333D01*
X97666666Y-143500000D01*
X97700000Y-143633333D01*
X97700000Y-143800000D01*
X97666666Y-143933333D01*
X97633333Y-144000000D01*
X97600000Y-144033333D01*
X97533333Y-144066666D01*
X97466666Y-144066666D01*
X97400000Y-144033333D01*
X97366666Y-144000000D01*
X97333333Y-143933333D01*
X97300000Y-143800000D01*
X97300000Y-143633333D01*
X97333333Y-143500000D01*
X97366666Y-143433333D01*
X97400000Y-143400000D01*
X97466666Y-143366666D01*
X98133333Y-143366666D02*
X98200000Y-143366666D01*
X98266666Y-143400000D01*
X98300000Y-143433333D01*
X98333333Y-143500000D01*
X98366666Y-143633333D01*
X98366666Y-143800000D01*
X98333333Y-143933333D01*
X98300000Y-144000000D01*
X98266666Y-144033333D01*
X98200000Y-144066666D01*
X98133333Y-144066666D01*
X98066666Y-144033333D01*
X98033333Y-144000000D01*
X98000000Y-143933333D01*
X97966666Y-143800000D01*
X97966666Y-143633333D01*
X98000000Y-143500000D01*
X98033333Y-143433333D01*
X98066666Y-143400000D01*
X98133333Y-143366666D01*
X99066666Y-144066666D02*
X98833333Y-143733333D01*
X98666666Y-144066666D02*
X98666666Y-143366666D01*
X98933333Y-143366666D01*
X99000000Y-143400000D01*
X99033333Y-143433333D01*
X99066666Y-143500000D01*
X99066666Y-143600000D01*
X99033333Y-143666666D01*
X99000000Y-143700000D01*
X98933333Y-143733333D01*
X98666666Y-143733333D01*
X84491548Y-150329044D02*
X84524881Y-150295711D01*
X84591548Y-150262377D01*
X84758214Y-150262377D01*
X84824881Y-150295711D01*
X84858214Y-150329044D01*
X84891548Y-150395711D01*
X84891548Y-150462377D01*
X84858214Y-150562377D01*
X84458214Y-150962377D01*
X84891548Y-150962377D01*
X85191548Y-150962377D02*
X85191548Y-150262377D01*
X85591548Y-150962377D02*
X85291548Y-150562377D01*
X85591548Y-150262377D02*
X85191548Y-150662377D01*
X98883333Y-136816666D02*
X99350000Y-136816666D01*
X99050000Y-137516666D01*
X99616666Y-137516666D02*
X99616666Y-136816666D01*
X100016666Y-137516666D02*
X99716666Y-137116666D01*
X100016666Y-136816666D02*
X99616666Y-137216666D01*
X100650000Y-136816666D02*
X100316666Y-136816666D01*
X100283333Y-137150000D01*
X100316666Y-137116666D01*
X100383333Y-137083333D01*
X100550000Y-137083333D01*
X100616666Y-137116666D01*
X100650000Y-137150000D01*
X100683333Y-137216666D01*
X100683333Y-137383333D01*
X100650000Y-137450000D01*
X100616666Y-137483333D01*
X100550000Y-137516666D01*
X100383333Y-137516666D01*
X100316666Y-137483333D01*
X100283333Y-137450000D01*
X99650000Y-140216666D02*
X99250000Y-140216666D01*
X99450000Y-140216666D02*
X99450000Y-139516666D01*
X99383333Y-139616666D01*
X99316666Y-139683333D01*
X99250000Y-139716666D01*
X99950000Y-140216666D02*
X99950000Y-139516666D01*
X100350000Y-140216666D02*
X100050000Y-139816666D01*
X100350000Y-139516666D02*
X99950000Y-139916666D01*
X110861843Y-144895452D02*
X111255766Y-144964912D01*
X110937251Y-145619548D02*
X111058805Y-144930182D01*
X111364001Y-145694795D02*
X111485555Y-145005430D01*
X111748170Y-145051736D01*
X111808036Y-145096139D01*
X111835075Y-145134754D01*
X111856325Y-145206197D01*
X111838960Y-145304677D01*
X111794557Y-145364543D01*
X111755941Y-145391582D01*
X111684499Y-145412832D01*
X111421884Y-145366526D01*
X112429845Y-145408866D02*
X112348809Y-145868443D01*
X112312016Y-145117310D02*
X112061058Y-145580772D01*
X112487808Y-145656020D01*
X112962767Y-145265902D02*
X113028420Y-145277478D01*
X113088286Y-145321882D01*
X113115325Y-145360497D01*
X113136575Y-145431939D01*
X113146249Y-145569035D01*
X113117308Y-145733170D01*
X113061327Y-145858689D01*
X113016924Y-145918555D01*
X112978309Y-145945593D01*
X112906867Y-145966844D01*
X112841213Y-145955267D01*
X112781347Y-145910864D01*
X112754309Y-145872249D01*
X112733058Y-145800807D01*
X112723384Y-145663711D01*
X112752326Y-145499576D01*
X112808306Y-145374057D01*
X112852709Y-145314191D01*
X112891324Y-145287152D01*
X112962767Y-145265902D01*
X113816267Y-145416397D02*
X113487997Y-145358514D01*
X113397288Y-145680995D01*
X113435903Y-145653957D01*
X113507345Y-145632706D01*
X113671480Y-145661648D01*
X113731345Y-145706051D01*
X113758384Y-145744666D01*
X113779634Y-145816108D01*
X113750693Y-145980243D01*
X113706289Y-146040109D01*
X113667674Y-146067147D01*
X113596232Y-146088398D01*
X113432098Y-146059456D01*
X113372232Y-146015053D01*
X113345193Y-145976438D01*
X114439978Y-145526374D02*
X114308671Y-145503221D01*
X114237228Y-145524471D01*
X114198613Y-145551510D01*
X114115595Y-145638414D01*
X114059614Y-145763934D01*
X114013308Y-146026549D01*
X114034559Y-146097991D01*
X114061597Y-146136606D01*
X114121463Y-146181010D01*
X114252771Y-146204163D01*
X114324213Y-146182913D01*
X114362828Y-146155874D01*
X114407231Y-146096008D01*
X114436173Y-145931874D01*
X114414922Y-145860432D01*
X114387884Y-145821816D01*
X114328018Y-145777413D01*
X114196710Y-145754260D01*
X114125268Y-145775510D01*
X114086653Y-145802549D01*
X114042250Y-145862415D01*
X88259967Y-139293707D02*
X88143301Y-139091635D01*
X87825758Y-139274968D02*
X88431976Y-138924968D01*
X88598643Y-139213643D01*
X88137959Y-139749049D02*
X88159091Y-139852318D01*
X88242425Y-139996656D01*
X88304626Y-140037724D01*
X88350160Y-140049925D01*
X88424562Y-140045459D01*
X88482297Y-140012126D01*
X88523365Y-139949925D01*
X88535566Y-139904391D01*
X88531100Y-139829989D01*
X88493301Y-139697853D01*
X88488835Y-139623451D01*
X88501036Y-139577917D01*
X88542104Y-139515716D01*
X88599839Y-139482382D01*
X88674241Y-139477917D01*
X88719775Y-139490117D01*
X88781976Y-139531186D01*
X88865309Y-139675523D01*
X88886442Y-139778793D01*
X89031976Y-139964199D02*
X89248643Y-140339476D01*
X88901036Y-140270737D01*
X88951036Y-140357339D01*
X88955502Y-140431741D01*
X88943301Y-140477275D01*
X88902232Y-140539476D01*
X88757895Y-140622810D01*
X88683493Y-140627275D01*
X88637959Y-140615075D01*
X88575758Y-140574006D01*
X88475758Y-140400801D01*
X88471292Y-140326399D01*
X88483493Y-140280865D01*
X88975758Y-141266826D02*
X88775758Y-140920416D01*
X88875758Y-141093621D02*
X89481976Y-140743621D01*
X89362040Y-140735886D01*
X89270972Y-140711485D01*
X89208771Y-140670416D01*
X89657574Y-141181100D02*
X89703108Y-141193301D01*
X89765309Y-141234369D01*
X89848643Y-141378707D01*
X89853108Y-141453108D01*
X89840908Y-141498643D01*
X89799839Y-141560843D01*
X89742104Y-141594177D01*
X89638835Y-141615309D01*
X89092425Y-141468899D01*
X89309091Y-141844177D01*
X89893301Y-142122724D02*
X89776634Y-141920651D01*
X89459091Y-142103984D02*
X90065309Y-141753984D01*
X90231976Y-142042660D01*
X89990032Y-142490266D02*
X90256698Y-142952146D01*
X90953108Y-143358364D02*
X90948643Y-143283963D01*
X90898643Y-143197360D01*
X90819775Y-143127424D01*
X90728707Y-143103022D01*
X90654305Y-143107488D01*
X90522168Y-143145287D01*
X90435566Y-143195287D01*
X90336762Y-143290822D01*
X90295694Y-143353022D01*
X90271292Y-143444091D01*
X90292425Y-143547360D01*
X90325758Y-143605095D01*
X90404626Y-143675031D01*
X90450160Y-143687232D01*
X90652232Y-143570565D01*
X90585566Y-143455095D01*
X82475000Y-149291666D02*
X82475000Y-149525000D01*
X82841666Y-149525000D02*
X82141666Y-149525000D01*
X82141666Y-149191666D01*
X82808333Y-148958333D02*
X82841666Y-148858333D01*
X82841666Y-148691666D01*
X82808333Y-148625000D01*
X82775000Y-148591666D01*
X82708333Y-148558333D01*
X82641666Y-148558333D01*
X82575000Y-148591666D01*
X82541666Y-148625000D01*
X82508333Y-148691666D01*
X82475000Y-148825000D01*
X82441666Y-148891666D01*
X82408333Y-148925000D01*
X82341666Y-148958333D01*
X82275000Y-148958333D01*
X82208333Y-148925000D01*
X82175000Y-148891666D01*
X82141666Y-148825000D01*
X82141666Y-148658333D01*
X82175000Y-148558333D01*
X82441666Y-148158333D02*
X82408333Y-148225000D01*
X82375000Y-148258333D01*
X82308333Y-148291666D01*
X82275000Y-148291666D01*
X82208333Y-148258333D01*
X82175000Y-148225000D01*
X82141666Y-148158333D01*
X82141666Y-148025000D01*
X82175000Y-147958333D01*
X82208333Y-147925000D01*
X82275000Y-147891666D01*
X82308333Y-147891666D01*
X82375000Y-147925000D01*
X82408333Y-147958333D01*
X82441666Y-148025000D01*
X82441666Y-148158333D01*
X82475000Y-148225000D01*
X82508333Y-148258333D01*
X82575000Y-148291666D01*
X82708333Y-148291666D01*
X82775000Y-148258333D01*
X82808333Y-148225000D01*
X82841666Y-148158333D01*
X82841666Y-148025000D01*
X82808333Y-147958333D01*
X82775000Y-147925000D01*
X82708333Y-147891666D01*
X82575000Y-147891666D01*
X82508333Y-147925000D01*
X82475000Y-147958333D01*
X82441666Y-148025000D01*
X82208333Y-147625000D02*
X82175000Y-147591666D01*
X82141666Y-147525000D01*
X82141666Y-147358333D01*
X82175000Y-147291666D01*
X82208333Y-147258333D01*
X82275000Y-147225000D01*
X82341666Y-147225000D01*
X82441666Y-147258333D01*
X82841666Y-147658333D01*
X82841666Y-147225000D01*
X82141666Y-146791666D02*
X82141666Y-146725000D01*
X82175000Y-146658333D01*
X82208333Y-146625000D01*
X82275000Y-146591666D01*
X82408333Y-146558333D01*
X82575000Y-146558333D01*
X82708333Y-146591666D01*
X82775000Y-146625000D01*
X82808333Y-146658333D01*
X82841666Y-146725000D01*
X82841666Y-146791666D01*
X82808333Y-146858333D01*
X82775000Y-146891666D01*
X82708333Y-146925000D01*
X82575000Y-146958333D01*
X82408333Y-146958333D01*
X82275000Y-146925000D01*
X82208333Y-146891666D01*
X82175000Y-146858333D01*
X82141666Y-146791666D01*
X82141666Y-145925000D02*
X82141666Y-146258333D01*
X82475000Y-146291666D01*
X82441666Y-146258333D01*
X82408333Y-146191666D01*
X82408333Y-146025000D01*
X82441666Y-145958333D01*
X82475000Y-145925000D01*
X82541666Y-145891666D01*
X82708333Y-145891666D01*
X82775000Y-145925000D01*
X82808333Y-145958333D01*
X82841666Y-146025000D01*
X82841666Y-146191666D01*
X82808333Y-146258333D01*
X82775000Y-146291666D01*
X111497176Y-139581374D02*
X111678349Y-138905226D01*
X111774323Y-139448580D01*
X112129115Y-139026009D01*
X111947942Y-139702157D01*
X112354498Y-139086400D02*
X112740868Y-139189927D01*
X112366509Y-139814312D02*
X112547683Y-139138163D01*
X112901855Y-139233064D02*
X113320423Y-139345219D01*
X113026022Y-139542408D01*
X113122615Y-139568290D01*
X113178383Y-139617742D01*
X113201953Y-139658567D01*
X113216896Y-139731589D01*
X113173759Y-139892577D01*
X113124307Y-139948344D01*
X113083482Y-139971915D01*
X113010460Y-139986858D01*
X112817275Y-139935094D01*
X112761507Y-139885642D01*
X112737937Y-139844817D01*
X113899979Y-139500510D02*
X113771189Y-139466001D01*
X113698166Y-139480944D01*
X113657342Y-139504514D01*
X113567065Y-139583852D01*
X113500358Y-139704015D01*
X113431339Y-139961595D01*
X113446282Y-140034617D01*
X113469853Y-140075442D01*
X113525620Y-140124894D01*
X113654410Y-140159404D01*
X113727433Y-140144461D01*
X113768258Y-140120890D01*
X113817710Y-140065123D01*
X113860846Y-139904135D01*
X113845903Y-139831113D01*
X113822333Y-139790288D01*
X113766565Y-139740836D01*
X113637775Y-139706327D01*
X113564753Y-139721269D01*
X113523928Y-139744840D01*
X113474476Y-139800607D01*
X114382942Y-139629920D02*
X114447337Y-139647174D01*
X114503105Y-139696626D01*
X114526675Y-139737451D01*
X114541618Y-139810474D01*
X114539306Y-139947891D01*
X114496170Y-140108879D01*
X114429463Y-140229041D01*
X114380011Y-140284809D01*
X114339186Y-140308379D01*
X114266163Y-140323322D01*
X114201768Y-140306068D01*
X114146001Y-140256616D01*
X114122430Y-140215791D01*
X114107488Y-140142768D01*
X114109799Y-140005351D01*
X114152936Y-139844363D01*
X114219642Y-139724201D01*
X114269095Y-139668433D01*
X114309919Y-139644863D01*
X114382942Y-139629920D01*
X114917049Y-140083616D02*
X114861281Y-140034164D01*
X114837711Y-139993339D01*
X114822768Y-139920317D01*
X114831395Y-139888119D01*
X114880848Y-139832352D01*
X114921672Y-139808781D01*
X114994695Y-139793838D01*
X115123485Y-139828348D01*
X115179253Y-139877800D01*
X115202823Y-139918625D01*
X115217766Y-139991647D01*
X115209139Y-140023844D01*
X115159686Y-140079612D01*
X115118862Y-140103182D01*
X115045839Y-140118125D01*
X114917049Y-140083616D01*
X114844027Y-140098559D01*
X114803202Y-140122129D01*
X114753750Y-140177897D01*
X114719241Y-140306687D01*
X114734183Y-140379710D01*
X114757754Y-140420534D01*
X114813521Y-140469986D01*
X114942312Y-140504496D01*
X115015334Y-140489553D01*
X115056159Y-140465983D01*
X115105611Y-140410215D01*
X115140120Y-140281425D01*
X115125177Y-140208402D01*
X115101607Y-140167577D01*
X115045839Y-140118125D01*
X138066666Y-82933333D02*
X138066666Y-82500000D01*
X138333333Y-82733333D01*
X138333333Y-82633333D01*
X138366666Y-82566666D01*
X138400000Y-82533333D01*
X138466666Y-82500000D01*
X138633333Y-82500000D01*
X138700000Y-82533333D01*
X138733333Y-82566666D01*
X138766666Y-82633333D01*
X138766666Y-82833333D01*
X138733333Y-82900000D01*
X138700000Y-82933333D01*
X138066666Y-82266666D02*
X138066666Y-81833333D01*
X138333333Y-82066666D01*
X138333333Y-81966666D01*
X138366666Y-81900000D01*
X138400000Y-81866666D01*
X138466666Y-81833333D01*
X138633333Y-81833333D01*
X138700000Y-81866666D01*
X138733333Y-81900000D01*
X138766666Y-81966666D01*
X138766666Y-82166666D01*
X138733333Y-82233333D01*
X138700000Y-82266666D01*
X138300000Y-81533333D02*
X138766666Y-81533333D01*
X138366666Y-81533333D02*
X138333333Y-81500000D01*
X138300000Y-81433333D01*
X138300000Y-81333333D01*
X138333333Y-81266666D01*
X138400000Y-81233333D01*
X138766666Y-81233333D01*
X138400000Y-80666666D02*
X138400000Y-80900000D01*
X138766666Y-80900000D02*
X138066666Y-80900000D01*
X138066666Y-80566666D01*
X143133333Y-80216666D02*
X143100000Y-80183333D01*
X143066666Y-80116666D01*
X143066666Y-79950000D01*
X143100000Y-79883333D01*
X143133333Y-79850000D01*
X143200000Y-79816666D01*
X143266666Y-79816666D01*
X143366666Y-79850000D01*
X143766666Y-80250000D01*
X143766666Y-79816666D01*
X143066666Y-79583333D02*
X143066666Y-79116666D01*
X143766666Y-79416666D01*
X143066666Y-78716666D02*
X143066666Y-78650000D01*
X143100000Y-78583333D01*
X143133333Y-78550000D01*
X143200000Y-78516666D01*
X143333333Y-78483333D01*
X143500000Y-78483333D01*
X143633333Y-78516666D01*
X143700000Y-78550000D01*
X143733333Y-78583333D01*
X143766666Y-78650000D01*
X143766666Y-78716666D01*
X143733333Y-78783333D01*
X143700000Y-78816666D01*
X143633333Y-78850000D01*
X143500000Y-78883333D01*
X143333333Y-78883333D01*
X143200000Y-78850000D01*
X143133333Y-78816666D01*
X143100000Y-78783333D01*
X143066666Y-78716666D01*
X143766666Y-77783333D02*
X143433333Y-78016666D01*
X143766666Y-78183333D02*
X143066666Y-78183333D01*
X143066666Y-77916666D01*
X143100000Y-77850000D01*
X143133333Y-77816666D01*
X143200000Y-77783333D01*
X143300000Y-77783333D01*
X143366666Y-77816666D01*
X143400000Y-77850000D01*
X143433333Y-77916666D01*
X143433333Y-78183333D01*
X136066666Y-82616666D02*
X136066666Y-83016666D01*
X136066666Y-82816666D02*
X135366666Y-82816666D01*
X135466666Y-82883333D01*
X135533333Y-82950000D01*
X135566666Y-83016666D01*
X135366666Y-81983333D02*
X135366666Y-82316666D01*
X135700000Y-82350000D01*
X135666666Y-82316666D01*
X135633333Y-82250000D01*
X135633333Y-82083333D01*
X135666666Y-82016666D01*
X135700000Y-81983333D01*
X135766666Y-81950000D01*
X135933333Y-81950000D01*
X136000000Y-81983333D01*
X136033333Y-82016666D01*
X136066666Y-82083333D01*
X136066666Y-82250000D01*
X136033333Y-82316666D01*
X136000000Y-82350000D01*
X135366666Y-81516666D02*
X135366666Y-81450000D01*
X135400000Y-81383333D01*
X135433333Y-81350000D01*
X135500000Y-81316666D01*
X135633333Y-81283333D01*
X135800000Y-81283333D01*
X135933333Y-81316666D01*
X136000000Y-81350000D01*
X136033333Y-81383333D01*
X136066666Y-81450000D01*
X136066666Y-81516666D01*
X136033333Y-81583333D01*
X136000000Y-81616666D01*
X135933333Y-81650000D01*
X135800000Y-81683333D01*
X135633333Y-81683333D01*
X135500000Y-81650000D01*
X135433333Y-81616666D01*
X135400000Y-81583333D01*
X135366666Y-81516666D01*
X136066666Y-80583333D02*
X135733333Y-80816666D01*
X136066666Y-80983333D02*
X135366666Y-80983333D01*
X135366666Y-80716666D01*
X135400000Y-80650000D01*
X135433333Y-80616666D01*
X135500000Y-80583333D01*
X135600000Y-80583333D01*
X135666666Y-80616666D01*
X135700000Y-80650000D01*
X135733333Y-80716666D01*
X135733333Y-80983333D01*
M02*
