M48
INCH
T1C0.0157
T2C0.0236
T3C0.0256
T4C0.0300
T5C0.0315
T6C0.0335
T7C0.0362
T8C0.0394
T9C0.0472
T10C0.0906
%
G90
G05
T1
X-3.5768Y-0.9528
X-3.5522Y-2.2205
X-3.498Y1.7323
X-3.4154Y-2.2283
X-3.4104Y-2.1329
X-3.4055Y-2.186
X-3.3671Y-2.1496
X-3.3166Y-2.2769
X-3.2665Y-0.5713
X-3.2665Y-0.65
X-3.2431Y-2.1594
X-3.1878Y-0.5713
X-3.1878Y-0.65
X-3.0618Y0.2406
X-3.0618Y0.1618
X-3.0226Y-2.1988
X-3.0067Y2.278
X-3.0067Y2.1992
X-2.9831Y0.2406
X-2.9831Y0.1618
X-2.9537Y-2.19
X-2.928Y2.278
X-2.928Y2.1992
X-2.9152Y-1.2419
X-2.9152Y-1.3207
X-2.8364Y-1.2419
X-2.8364Y-1.3207
X-2.7126Y-2.0846
X-2.7035Y0.9059
X-2.6427Y-1.9055
X-2.6248Y0.9059
X-2.6201Y-2.2835
X-2.5894Y1.6343
X-2.5894Y1.5555
X-2.5768Y-2.1752
X-2.5719Y-2.2313
X-2.5591Y0.8484
X-2.5591Y0.7894
X-2.5106Y1.6343
X-2.5106Y1.5555
X-2.4528Y0.7303
X-2.4488Y0.7815
X-2.4213Y-0.5689
X-2.3646Y2.7374
X-2.2858Y2.7374
X-2.2677Y1.1988
X-2.165Y1.3821
X-2.1157Y1.346
X-2.0669Y1.3091
X-1.9594Y0.7799
X-1.9594Y0.7012
X-1.8807Y0.7799
X-1.8807Y0.7012
X-1.8543Y-1.1476
X-1.8346Y2.1988
X-1.8091Y-0.7933
X-1.8091Y-0.8445
X-1.8071Y-0.8937
X-1.8051Y-0.9469
X-1.8034Y-1.0943
X-1.8031Y-0.9961
X-1.8031Y-1.0472
X-1.7028Y0.0157
X-1.7028Y-0.063
X-1.624Y0.0157
X-1.624Y-0.063
X-1.4724Y0.2224
X-1.4496Y2.1539
X-1.4496Y2.0752
X-1.2559Y-0.6083
X-1.0945Y-0.4646
X-1.0709Y0.1791
X-1.0236Y0.502
X-0.935Y-0.8201
X-0.935Y-0.8988
X-0.8563Y-0.8201
X-0.8563Y-0.8988
T3
X-1.063Y2.3957
X-1.063Y2.3457
X-1.063Y2.2957
X-1.063Y2.2457
T4
X-0.6063Y1.5059
X-0.6063Y1.1398
T5
X-1.3386Y0.8169
X-1.3386Y0.7382
T6
X-2.3583Y-2.2008
X-2.1614Y-2.2008
T7
X-0.9094Y2.2657
X-0.9094Y2.1673
X-0.9094Y2.0886
X-0.9094Y1.9902
T8
X-0.8957Y0.5169
X-0.8957Y0.4169
X-0.8957Y0.3169
X-0.8957Y0.2169
X-0.8957Y0.1169
X-0.8957Y0.0169
X-0.8957Y-0.0831
X-0.8957Y-0.1831
X-1.9272Y-1.7681
X-1.9272Y-1.8681
X-3.1654Y1.0846
X-3.1654Y0.9846
X-3.0654Y1.0846
X-3.0654Y0.9846
X-2.9654Y1.0846
X-2.9654Y0.9846
X-2.8654Y1.0846
X-2.8654Y0.9846
X-2.7654Y1.0846
X-2.7654Y0.9846
X-2.6654Y1.0846
X-2.6654Y0.9846
X-2.5654Y1.0846
X-2.5654Y0.9846
X-2.4654Y1.0846
X-2.4654Y0.9846
X-2.3654Y1.0846
X-2.3654Y0.9846
X-2.2654Y1.0846
X-2.2654Y0.9846
X-2.1654Y1.0846
X-2.1654Y0.9846
X-2.0654Y1.0846
X-2.0654Y0.9846
X-1.9654Y1.0846
X-1.9654Y0.9846
X-1.8654Y1.0846
X-1.8654Y0.9846
X-1.7654Y1.0846
X-1.7654Y0.9846
X-1.6654Y1.0846
X-1.6654Y0.9846
X-1.5654Y1.0846
X-1.5654Y0.9846
X-1.4654Y1.0846
X-1.4654Y0.9846
X-1.3654Y1.0846
X-1.3654Y0.9846
X-1.2654Y1.0846
X-1.2654Y0.9846
X-3.5846Y-1.9833
X-3.4846Y-1.9833
T9
X-1.0Y1.4803
X-1.0Y1.4016
X-1.0Y1.3228
X-1.0Y1.2441
X-1.0Y1.1654
X-1.2264Y2.752
X-1.0984Y2.7402
X-0.9803Y2.7402
X-0.8622Y2.7402
X-0.7343Y2.752
T10
X-0.8028Y2.3866
X-0.8028Y1.8693
T2
G00X-2.3976Y-2.3209
M15
G01X-2.3976Y-2.2933
M16
G05
G00X-2.122Y-2.2933
M15
G01X-2.122Y-2.3209
M16
G05
T0
M30
