G04 #@! TF.GenerationSoftware,KiCad,Pcbnew,5.1.5*
G04 #@! TF.CreationDate,2020-03-31T00:49:55+02:00*
G04 #@! TF.ProjectId,gameboy-dmg,67616d65-626f-4792-9d64-6d672e6b6963,rev?*
G04 #@! TF.SameCoordinates,PXa6cc320PY5867d60*
G04 #@! TF.FileFunction,Legend,Top*
G04 #@! TF.FilePolarity,Positive*
%FSLAX46Y46*%
G04 Gerber Fmt 4.6, Leading zero omitted, Abs format (unit mm)*
G04 Created by KiCad (PCBNEW 5.1.5) date 2020-03-31 00:49:55*
%MOMM*%
%LPD*%
G04 APERTURE LIST*
%ADD10C,0.120000*%
%ADD11C,0.500000*%
%ADD12C,0.400000*%
%ADD13C,0.150000*%
%ADD14C,0.050000*%
%ADD15C,0.200000*%
%ADD16C,0.300000*%
%ADD17C,1.000000*%
%ADD18C,0.127000*%
G04 APERTURE END LIST*
D10*
X-79900000Y27550000D02*
G75*
G03X-79900000Y27550000I-500000J0D01*
G01*
D11*
X-85338447Y48100000D02*
G75*
G03X-85338447Y48100000I-2061553J0D01*
G01*
D12*
X-29744826Y60452965D02*
G75*
G03X-31828700Y60586123I-1305174J-4052965D01*
G01*
X-29738230Y60433738D02*
X-30250000Y60050000D01*
X-29738230Y60433738D02*
X-30000000Y61050000D01*
D13*
X-35843353Y57963428D02*
X-35671943Y58167707D01*
X-35277472Y57985896D02*
X-35522343Y57694070D01*
X-36135179Y58208300D01*
X-35890308Y58500126D01*
X-35106062Y58190175D02*
X-35245260Y58854004D01*
X-35514619Y58532995D02*
X-34836703Y58511184D01*
X-35122825Y58999917D02*
X-34926927Y59233378D01*
X-35253642Y59258875D02*
X-34728354Y58818107D01*
X-34645502Y58798315D01*
X-34567345Y58832193D01*
X-34518370Y58890558D01*
X-34568002Y60075989D02*
X-34071897Y59659708D01*
X-33989044Y59639916D01*
X-33935374Y59644612D01*
X-33857217Y59678490D01*
X-33759269Y59795220D01*
X-33739477Y59878073D01*
X-33744173Y59931743D01*
X-33778051Y60009899D01*
X-34274156Y60426181D01*
X-33470119Y60199082D02*
X-33367475Y60262143D01*
X-33245039Y60408056D01*
X-33225247Y60490908D01*
X-33229943Y60544578D01*
X-33263821Y60622735D01*
X-33322186Y60671709D01*
X-33405039Y60691501D01*
X-33458708Y60686805D01*
X-33536865Y60652927D01*
X-33663996Y60560684D01*
X-33742153Y60526806D01*
X-33795823Y60522110D01*
X-33878676Y60541902D01*
X-33937041Y60590876D01*
X-33970919Y60669033D01*
X-33975615Y60722703D01*
X-33955823Y60805555D01*
X-33833387Y60951469D01*
X-33730743Y61014529D01*
X-33076305Y61261067D02*
X-32973661Y61324128D01*
X-32919991Y61328824D01*
X-32837139Y61309032D01*
X-32749591Y61235571D01*
X-32715713Y61157414D01*
X-32711017Y61103744D01*
X-32730809Y61020891D01*
X-32926706Y60787430D01*
X-33539541Y61301660D01*
X-33368131Y61505939D01*
X-33289974Y61539817D01*
X-33236305Y61544513D01*
X-33153452Y61524721D01*
X-33095087Y61475747D01*
X-33061209Y61397590D01*
X-33056513Y61343920D01*
X-33076305Y61261067D01*
X-33247715Y61056789D01*
X-33652768Y57940448D02*
X-33648072Y57886778D01*
X-33692351Y57774743D01*
X-33741325Y57716378D01*
X-33843970Y57653317D01*
X-33951309Y57643926D01*
X-34034162Y57663717D01*
X-34175379Y57732483D01*
X-34262927Y57805945D01*
X-34355171Y57933076D01*
X-34389049Y58011233D01*
X-34398440Y58118573D01*
X-34354161Y58230608D01*
X-34305187Y58288973D01*
X-34202543Y58352034D01*
X-34148873Y58356729D01*
X-33300557Y58241665D02*
X-33378714Y58207787D01*
X-33432384Y58203092D01*
X-33515236Y58222883D01*
X-33690332Y58369806D01*
X-33724210Y58447963D01*
X-33728906Y58501633D01*
X-33709114Y58584485D01*
X-33635652Y58672033D01*
X-33557495Y58705911D01*
X-33503826Y58710607D01*
X-33420973Y58690815D01*
X-33245877Y58543892D01*
X-33211999Y58465735D01*
X-33207304Y58412066D01*
X-33227095Y58329213D01*
X-33300557Y58241665D01*
X-33317320Y59051408D02*
X-32908762Y58708587D01*
X-33258954Y59002433D02*
X-33263650Y59056103D01*
X-33243858Y59138955D01*
X-33170397Y59226503D01*
X-33092240Y59260382D01*
X-33009387Y59240590D01*
X-32688378Y58971231D01*
X-32852064Y59605878D02*
X-32443507Y59263058D01*
X-32793698Y59556904D02*
X-32798394Y59610573D01*
X-32778602Y59693426D01*
X-32705141Y59780974D01*
X-32626984Y59814852D01*
X-32544131Y59795060D01*
X-32223122Y59525702D01*
D14*
X-36400000Y76600001D02*
G75*
G02X-37400359Y77580241I-11724J988600D01*
G01*
X-38400000Y79599999D02*
G75*
G02X-37399641Y78619759I11724J-988600D01*
G01*
X-37400359Y77580241D02*
X-37399641Y78619759D01*
X-14400359Y76600000D02*
X-36400000Y76600000D01*
X-14400359Y76599999D02*
G75*
G02X-13400000Y75619759I11724J-988600D01*
G01*
D13*
X-29500819Y25451576D02*
X-28976618Y24791028D01*
X-28999649Y25633987D01*
X-28368055Y25012526D02*
X-28452680Y25022266D01*
X-28501507Y25045034D01*
X-28563364Y25103600D01*
X-28641540Y25318387D01*
X-28631801Y25403012D01*
X-28609032Y25451839D01*
X-28550466Y25513696D01*
X-28443072Y25552784D01*
X-28358447Y25543045D01*
X-28309620Y25520276D01*
X-28247764Y25461710D01*
X-28169588Y25246923D01*
X-28179327Y25162298D01*
X-28202095Y25113471D01*
X-28260662Y25051614D01*
X-28368055Y25012526D01*
X-27687897Y25260084D02*
X-27772522Y25269823D01*
X-27834378Y25328389D01*
X-28068906Y25972750D01*
X-27261745Y25982752D02*
X-27079334Y25481583D01*
X-27583925Y25865488D02*
X-27440602Y25471712D01*
X-27378746Y25413146D01*
X-27294121Y25403407D01*
X-27186727Y25442495D01*
X-27128161Y25504351D01*
X-27105392Y25553178D01*
X-26721356Y25611876D02*
X-26903766Y26113045D01*
X-26877708Y26041450D02*
X-26854939Y26090277D01*
X-26796373Y26152133D01*
X-26688980Y26191221D01*
X-26604355Y26181482D01*
X-26542498Y26122916D01*
X-26399175Y25729140D01*
X-26542498Y26122916D02*
X-26532759Y26207541D01*
X-26474193Y26269397D01*
X-26366799Y26308485D01*
X-26282174Y26298746D01*
X-26220318Y26240180D01*
X-26076995Y25846404D01*
X-25445664Y26116730D02*
X-25504230Y26054874D01*
X-25647421Y26002756D01*
X-25732046Y26012495D01*
X-25793903Y26071062D01*
X-25898137Y26357444D01*
X-25888398Y26442069D01*
X-25829832Y26503926D01*
X-25686641Y26556043D01*
X-25602016Y26546304D01*
X-25540159Y26487738D01*
X-25514101Y26416142D01*
X-25846020Y26214253D01*
D12*
X-26946957Y28432349D02*
G75*
G03X-28514636Y27052985I1942981J-3788776D01*
G01*
X-26928698Y28423418D02*
X-27019230Y27790198D01*
X-26928698Y28423418D02*
X-27549560Y28674082D01*
D13*
X-35550000Y32263096D02*
X-35550000Y33063096D01*
X-35359524Y33063096D01*
X-35245239Y33025000D01*
X-35169048Y32948810D01*
X-35130953Y32872620D01*
X-35092858Y32720239D01*
X-35092858Y32605953D01*
X-35130953Y32453572D01*
X-35169048Y32377381D01*
X-35245239Y32301191D01*
X-35359524Y32263096D01*
X-35550000Y32263096D01*
X-34750000Y32263096D02*
X-34750000Y32796429D01*
X-34750000Y33063096D02*
X-34788096Y33025000D01*
X-34750000Y32986905D01*
X-34711905Y33025000D01*
X-34750000Y33063096D01*
X-34750000Y32986905D01*
X-34407143Y32301191D02*
X-34330953Y32263096D01*
X-34178572Y32263096D01*
X-34102381Y32301191D01*
X-34064286Y32377381D01*
X-34064286Y32415477D01*
X-34102381Y32491667D01*
X-34178572Y32529762D01*
X-34292858Y32529762D01*
X-34369048Y32567858D01*
X-34407143Y32644048D01*
X-34407143Y32682143D01*
X-34369048Y32758334D01*
X-34292858Y32796429D01*
X-34178572Y32796429D01*
X-34102381Y32758334D01*
X-33378572Y32263096D02*
X-33378572Y32682143D01*
X-33416667Y32758334D01*
X-33492858Y32796429D01*
X-33645239Y32796429D01*
X-33721429Y32758334D01*
X-33378572Y32301191D02*
X-33454762Y32263096D01*
X-33645239Y32263096D01*
X-33721429Y32301191D01*
X-33759524Y32377381D01*
X-33759524Y32453572D01*
X-33721429Y32529762D01*
X-33645239Y32567858D01*
X-33454762Y32567858D01*
X-33378572Y32605953D01*
X-32997620Y32263096D02*
X-32997620Y33063096D01*
X-32997620Y32758334D02*
X-32921429Y32796429D01*
X-32769048Y32796429D01*
X-32692858Y32758334D01*
X-32654762Y32720239D01*
X-32616667Y32644048D01*
X-32616667Y32415477D01*
X-32654762Y32339286D01*
X-32692858Y32301191D01*
X-32769048Y32263096D01*
X-32921429Y32263096D01*
X-32997620Y32301191D01*
X-32159524Y32263096D02*
X-32235715Y32301191D01*
X-32273810Y32377381D01*
X-32273810Y33063096D01*
X-31550000Y32301191D02*
X-31626191Y32263096D01*
X-31778572Y32263096D01*
X-31854762Y32301191D01*
X-31892858Y32377381D01*
X-31892858Y32682143D01*
X-31854762Y32758334D01*
X-31778572Y32796429D01*
X-31626191Y32796429D01*
X-31550000Y32758334D01*
X-31511905Y32682143D01*
X-31511905Y32605953D01*
X-31892858Y32529762D01*
X-35645239Y31713096D02*
X-35378572Y30913096D01*
X-35111905Y31713096D01*
X-34730953Y30913096D02*
X-34807143Y30951191D01*
X-34845239Y30989286D01*
X-34883334Y31065477D01*
X-34883334Y31294048D01*
X-34845239Y31370239D01*
X-34807143Y31408334D01*
X-34730953Y31446429D01*
X-34616667Y31446429D01*
X-34540477Y31408334D01*
X-34502381Y31370239D01*
X-34464286Y31294048D01*
X-34464286Y31065477D01*
X-34502381Y30989286D01*
X-34540477Y30951191D01*
X-34616667Y30913096D01*
X-34730953Y30913096D01*
X-34007143Y30913096D02*
X-34083334Y30951191D01*
X-34121429Y31027381D01*
X-34121429Y31713096D01*
X-33092858Y31446429D02*
X-33092858Y30646429D01*
X-33092858Y31408334D02*
X-33016667Y31446429D01*
X-32864286Y31446429D01*
X-32788096Y31408334D01*
X-32750000Y31370239D01*
X-32711905Y31294048D01*
X-32711905Y31065477D01*
X-32750000Y30989286D01*
X-32788096Y30951191D01*
X-32864286Y30913096D01*
X-33016667Y30913096D01*
X-33092858Y30951191D01*
X-32254762Y30913096D02*
X-32330953Y30951191D01*
X-32369048Y30989286D01*
X-32407143Y31065477D01*
X-32407143Y31294048D01*
X-32369048Y31370239D01*
X-32330953Y31408334D01*
X-32254762Y31446429D01*
X-32140477Y31446429D01*
X-32064286Y31408334D01*
X-32026191Y31370239D01*
X-31988096Y31294048D01*
X-31988096Y31065477D01*
X-32026191Y30989286D01*
X-32064286Y30951191D01*
X-32140477Y30913096D01*
X-32254762Y30913096D01*
X-31759524Y31446429D02*
X-31454762Y31446429D01*
X-31645239Y31713096D02*
X-31645239Y31027381D01*
X-31607143Y30951191D01*
X-31530953Y30913096D01*
X-31454762Y30913096D01*
D15*
X-24084069Y15837546D02*
X-24196903Y16228274D01*
X-24084069Y15837546D02*
X-23656170Y15928094D01*
X-22885537Y18311757D02*
G75*
G02X-24084069Y15837546I-12286178J4424149D01*
G01*
D13*
X-38523810Y10213096D02*
X-38028572Y10213096D01*
X-38295239Y9908334D01*
X-38180953Y9908334D01*
X-38104762Y9870239D01*
X-38066667Y9832143D01*
X-38028572Y9755953D01*
X-38028572Y9565477D01*
X-38066667Y9489286D01*
X-38104762Y9451191D01*
X-38180953Y9413096D01*
X-38409524Y9413096D01*
X-38485715Y9451191D01*
X-38523810Y9489286D01*
X-37685715Y9489286D02*
X-37647620Y9451191D01*
X-37685715Y9413096D01*
X-37723810Y9451191D01*
X-37685715Y9489286D01*
X-37685715Y9413096D01*
X-37380953Y10213096D02*
X-36885715Y10213096D01*
X-37152381Y9908334D01*
X-37038096Y9908334D01*
X-36961905Y9870239D01*
X-36923810Y9832143D01*
X-36885715Y9755953D01*
X-36885715Y9565477D01*
X-36923810Y9489286D01*
X-36961905Y9451191D01*
X-37038096Y9413096D01*
X-37266667Y9413096D01*
X-37342858Y9451191D01*
X-37380953Y9489286D01*
X-36657143Y10213096D02*
X-36390477Y9413096D01*
X-36123810Y10213096D01*
X-35285715Y9641667D02*
X-34904762Y9641667D01*
X-35361905Y9413096D02*
X-35095239Y10213096D01*
X-34828572Y9413096D01*
X-34561905Y9413096D02*
X-34561905Y9946429D01*
X-34561905Y9870239D02*
X-34523810Y9908334D01*
X-34447620Y9946429D01*
X-34333334Y9946429D01*
X-34257143Y9908334D01*
X-34219048Y9832143D01*
X-34219048Y9413096D01*
X-34219048Y9832143D02*
X-34180953Y9908334D01*
X-34104762Y9946429D01*
X-33990477Y9946429D01*
X-33914286Y9908334D01*
X-33876191Y9832143D01*
X-33876191Y9413096D01*
X-33495239Y9946429D02*
X-33495239Y9146429D01*
X-33495239Y9908334D02*
X-33419048Y9946429D01*
X-33266667Y9946429D01*
X-33190477Y9908334D01*
X-33152381Y9870239D01*
X-33114286Y9794048D01*
X-33114286Y9565477D01*
X-33152381Y9489286D01*
X-33190477Y9451191D01*
X-33266667Y9413096D01*
X-33419048Y9413096D01*
X-33495239Y9451191D01*
X-37628572Y8101191D02*
X-37514286Y8063096D01*
X-37323810Y8063096D01*
X-37247620Y8101191D01*
X-37209524Y8139286D01*
X-37171429Y8215477D01*
X-37171429Y8291667D01*
X-37209524Y8367858D01*
X-37247620Y8405953D01*
X-37323810Y8444048D01*
X-37476191Y8482143D01*
X-37552381Y8520239D01*
X-37590477Y8558334D01*
X-37628572Y8634524D01*
X-37628572Y8710715D01*
X-37590477Y8786905D01*
X-37552381Y8825000D01*
X-37476191Y8863096D01*
X-37285715Y8863096D01*
X-37171429Y8825000D01*
X-36485715Y8596429D02*
X-36485715Y8063096D01*
X-36828572Y8596429D02*
X-36828572Y8177381D01*
X-36790477Y8101191D01*
X-36714286Y8063096D01*
X-36600000Y8063096D01*
X-36523810Y8101191D01*
X-36485715Y8139286D01*
X-36104762Y8596429D02*
X-36104762Y7796429D01*
X-36104762Y8558334D02*
X-36028572Y8596429D01*
X-35876191Y8596429D01*
X-35800000Y8558334D01*
X-35761905Y8520239D01*
X-35723810Y8444048D01*
X-35723810Y8215477D01*
X-35761905Y8139286D01*
X-35800000Y8101191D01*
X-35876191Y8063096D01*
X-36028572Y8063096D01*
X-36104762Y8101191D01*
X-35380953Y8596429D02*
X-35380953Y7796429D01*
X-35380953Y8558334D02*
X-35304762Y8596429D01*
X-35152381Y8596429D01*
X-35076191Y8558334D01*
X-35038096Y8520239D01*
X-35000000Y8444048D01*
X-35000000Y8215477D01*
X-35038096Y8139286D01*
X-35076191Y8101191D01*
X-35152381Y8063096D01*
X-35304762Y8063096D01*
X-35380953Y8101191D01*
X-34542858Y8063096D02*
X-34619048Y8101191D01*
X-34657143Y8177381D01*
X-34657143Y8863096D01*
X-34314286Y8596429D02*
X-34123810Y8063096D01*
X-33933334Y8596429D02*
X-34123810Y8063096D01*
X-34200000Y7872620D01*
X-34238096Y7834524D01*
X-34314286Y7796429D01*
X-36957143Y6613096D02*
X-37338096Y6613096D01*
X-37376191Y6232143D01*
X-37338096Y6270239D01*
X-37261905Y6308334D01*
X-37071429Y6308334D01*
X-36995239Y6270239D01*
X-36957143Y6232143D01*
X-36919048Y6155953D01*
X-36919048Y5965477D01*
X-36957143Y5889286D01*
X-36995239Y5851191D01*
X-37071429Y5813096D01*
X-37261905Y5813096D01*
X-37338096Y5851191D01*
X-37376191Y5889286D01*
X-36652381Y6346429D02*
X-36461905Y5813096D01*
X-36271429Y6346429D01*
X-35395239Y6041667D02*
X-35014286Y6041667D01*
X-35471429Y5813096D02*
X-35204762Y6613096D01*
X-34938096Y5813096D01*
X-34671429Y5813096D02*
X-34671429Y6346429D01*
X-34671429Y6270239D02*
X-34633334Y6308334D01*
X-34557143Y6346429D01*
X-34442858Y6346429D01*
X-34366667Y6308334D01*
X-34328572Y6232143D01*
X-34328572Y5813096D01*
X-34328572Y6232143D02*
X-34290477Y6308334D01*
X-34214286Y6346429D01*
X-34100000Y6346429D01*
X-34023810Y6308334D01*
X-33985715Y6232143D01*
X-33985715Y5813096D01*
X-33604762Y6346429D02*
X-33604762Y5546429D01*
X-33604762Y6308334D02*
X-33528572Y6346429D01*
X-33376191Y6346429D01*
X-33300000Y6308334D01*
X-33261905Y6270239D01*
X-33223810Y6194048D01*
X-33223810Y5965477D01*
X-33261905Y5889286D01*
X-33300000Y5851191D01*
X-33376191Y5813096D01*
X-33528572Y5813096D01*
X-33604762Y5851191D01*
X-37128572Y4501191D02*
X-37014286Y4463096D01*
X-36823810Y4463096D01*
X-36747620Y4501191D01*
X-36709524Y4539286D01*
X-36671429Y4615477D01*
X-36671429Y4691667D01*
X-36709524Y4767858D01*
X-36747620Y4805953D01*
X-36823810Y4844048D01*
X-36976191Y4882143D01*
X-37052381Y4920239D01*
X-37090477Y4958334D01*
X-37128572Y5034524D01*
X-37128572Y5110715D01*
X-37090477Y5186905D01*
X-37052381Y5225000D01*
X-36976191Y5263096D01*
X-36785715Y5263096D01*
X-36671429Y5225000D01*
X-35985715Y4996429D02*
X-35985715Y4463096D01*
X-36328572Y4996429D02*
X-36328572Y4577381D01*
X-36290477Y4501191D01*
X-36214286Y4463096D01*
X-36100000Y4463096D01*
X-36023810Y4501191D01*
X-35985715Y4539286D01*
X-35604762Y4996429D02*
X-35604762Y4196429D01*
X-35604762Y4958334D02*
X-35528572Y4996429D01*
X-35376191Y4996429D01*
X-35300000Y4958334D01*
X-35261905Y4920239D01*
X-35223810Y4844048D01*
X-35223810Y4615477D01*
X-35261905Y4539286D01*
X-35300000Y4501191D01*
X-35376191Y4463096D01*
X-35528572Y4463096D01*
X-35604762Y4501191D01*
X-34880953Y4996429D02*
X-34880953Y4196429D01*
X-34880953Y4958334D02*
X-34804762Y4996429D01*
X-34652381Y4996429D01*
X-34576191Y4958334D01*
X-34538096Y4920239D01*
X-34500000Y4844048D01*
X-34500000Y4615477D01*
X-34538096Y4539286D01*
X-34576191Y4501191D01*
X-34652381Y4463096D01*
X-34804762Y4463096D01*
X-34880953Y4501191D01*
X-34042858Y4463096D02*
X-34119048Y4501191D01*
X-34157143Y4577381D01*
X-34157143Y5263096D01*
X-33814286Y4996429D02*
X-33623810Y4463096D01*
X-33433334Y4996429D02*
X-33623810Y4463096D01*
X-33700000Y4272620D01*
X-33738096Y4234524D01*
X-33814286Y4196429D01*
X-20671429Y13100000D02*
X-20747620Y13138096D01*
X-20861905Y13138096D01*
X-20976191Y13100000D01*
X-21052381Y13023810D01*
X-21090477Y12947620D01*
X-21128572Y12795239D01*
X-21128572Y12680953D01*
X-21090477Y12528572D01*
X-21052381Y12452381D01*
X-20976191Y12376191D01*
X-20861905Y12338096D01*
X-20785715Y12338096D01*
X-20671429Y12376191D01*
X-20633334Y12414286D01*
X-20633334Y12680953D01*
X-20785715Y12680953D01*
X-20290477Y12338096D02*
X-20290477Y13138096D01*
X-19985715Y13138096D01*
X-19909524Y13100000D01*
X-19871429Y13061905D01*
X-19833334Y12985715D01*
X-19833334Y12871429D01*
X-19871429Y12795239D01*
X-19909524Y12757143D01*
X-19985715Y12719048D01*
X-20290477Y12719048D01*
X-19223810Y12757143D02*
X-19109524Y12719048D01*
X-19071429Y12680953D01*
X-19033334Y12604762D01*
X-19033334Y12490477D01*
X-19071429Y12414286D01*
X-19109524Y12376191D01*
X-19185715Y12338096D01*
X-19490477Y12338096D01*
X-19490477Y13138096D01*
X-19223810Y13138096D01*
X-19147620Y13100000D01*
X-19109524Y13061905D01*
X-19071429Y12985715D01*
X-19071429Y12909524D01*
X-19109524Y12833334D01*
X-19147620Y12795239D01*
X-19223810Y12757143D01*
X-19490477Y12757143D01*
X-18766667Y13138096D02*
X-18233334Y13138096D01*
X-18576191Y12338096D01*
X-20621429Y-5050000D02*
X-20697620Y-5011904D01*
X-20811905Y-5011904D01*
X-20926191Y-5050000D01*
X-21002381Y-5126190D01*
X-21040477Y-5202380D01*
X-21078572Y-5354761D01*
X-21078572Y-5469047D01*
X-21040477Y-5621428D01*
X-21002381Y-5697619D01*
X-20926191Y-5773809D01*
X-20811905Y-5811904D01*
X-20735715Y-5811904D01*
X-20621429Y-5773809D01*
X-20583334Y-5735714D01*
X-20583334Y-5469047D01*
X-20735715Y-5469047D01*
X-20240477Y-5811904D02*
X-20240477Y-5011904D01*
X-19935715Y-5011904D01*
X-19859524Y-5050000D01*
X-19821429Y-5088095D01*
X-19783334Y-5164285D01*
X-19783334Y-5278571D01*
X-19821429Y-5354761D01*
X-19859524Y-5392857D01*
X-19935715Y-5430952D01*
X-20240477Y-5430952D01*
X-19173810Y-5392857D02*
X-19059524Y-5430952D01*
X-19021429Y-5469047D01*
X-18983334Y-5545238D01*
X-18983334Y-5659523D01*
X-19021429Y-5735714D01*
X-19059524Y-5773809D01*
X-19135715Y-5811904D01*
X-19440477Y-5811904D01*
X-19440477Y-5011904D01*
X-19173810Y-5011904D01*
X-19097620Y-5050000D01*
X-19059524Y-5088095D01*
X-19021429Y-5164285D01*
X-19021429Y-5240476D01*
X-19059524Y-5316666D01*
X-19097620Y-5354761D01*
X-19173810Y-5392857D01*
X-19440477Y-5392857D01*
X-18488096Y-5011904D02*
X-18411905Y-5011904D01*
X-18335715Y-5050000D01*
X-18297620Y-5088095D01*
X-18259524Y-5164285D01*
X-18221429Y-5316666D01*
X-18221429Y-5507142D01*
X-18259524Y-5659523D01*
X-18297620Y-5735714D01*
X-18335715Y-5773809D01*
X-18411905Y-5811904D01*
X-18488096Y-5811904D01*
X-18564286Y-5773809D01*
X-18602381Y-5735714D01*
X-18640477Y-5659523D01*
X-18678572Y-5507142D01*
X-18678572Y-5316666D01*
X-18640477Y-5164285D01*
X-18602381Y-5088095D01*
X-18564286Y-5050000D01*
X-18488096Y-5011904D01*
X-90709524Y51988096D02*
X-90557143Y51988096D01*
X-90480953Y51950000D01*
X-90404762Y51873810D01*
X-90366667Y51721429D01*
X-90366667Y51454762D01*
X-90404762Y51302381D01*
X-90480953Y51226191D01*
X-90557143Y51188096D01*
X-90709524Y51188096D01*
X-90785715Y51226191D01*
X-90861905Y51302381D01*
X-90900000Y51454762D01*
X-90900000Y51721429D01*
X-90861905Y51873810D01*
X-90785715Y51950000D01*
X-90709524Y51988096D01*
X-90023810Y51188096D02*
X-90023810Y51988096D01*
X-89566667Y51188096D01*
X-89566667Y51988096D01*
X-88614286Y52026191D02*
X-89300000Y50997620D01*
X-88195239Y51988096D02*
X-88042858Y51988096D01*
X-87966667Y51950000D01*
X-87890477Y51873810D01*
X-87852381Y51721429D01*
X-87852381Y51454762D01*
X-87890477Y51302381D01*
X-87966667Y51226191D01*
X-88042858Y51188096D01*
X-88195239Y51188096D01*
X-88271429Y51226191D01*
X-88347620Y51302381D01*
X-88385715Y51454762D01*
X-88385715Y51721429D01*
X-88347620Y51873810D01*
X-88271429Y51950000D01*
X-88195239Y51988096D01*
X-87242858Y51607143D02*
X-87509524Y51607143D01*
X-87509524Y51188096D02*
X-87509524Y51988096D01*
X-87128572Y51988096D01*
X-86557143Y51607143D02*
X-86823810Y51607143D01*
X-86823810Y51188096D02*
X-86823810Y51988096D01*
X-86442858Y51988096D01*
X-85147620Y51188096D02*
X-85528572Y51188096D01*
X-85528572Y51988096D01*
X-84880953Y51607143D02*
X-84614286Y51607143D01*
X-84500000Y51188096D02*
X-84880953Y51188096D01*
X-84880953Y51988096D01*
X-84500000Y51988096D01*
X-84157143Y51188096D02*
X-84157143Y51988096D01*
X-83966667Y51988096D01*
X-83852381Y51950000D01*
X-83776191Y51873810D01*
X-83738096Y51797620D01*
X-83700000Y51645239D01*
X-83700000Y51530953D01*
X-83738096Y51378572D01*
X-83776191Y51302381D01*
X-83852381Y51226191D01*
X-83966667Y51188096D01*
X-84157143Y51188096D01*
X-90579762Y-47357142D02*
X-89970239Y-47357142D01*
X-87929762Y-47407142D02*
X-87320239Y-47407142D01*
X-87625000Y-47711904D02*
X-87625000Y-47102380D01*
X-94408965Y-49082714D02*
X-94306321Y-49019653D01*
X-94252651Y-49014958D01*
X-94169799Y-49034749D01*
X-94082251Y-49108211D01*
X-94048373Y-49186368D01*
X-94043677Y-49240037D01*
X-94063469Y-49322890D01*
X-94259366Y-49556351D01*
X-94872202Y-49042121D01*
X-94700792Y-48837842D01*
X-94622635Y-48803964D01*
X-94568965Y-48799269D01*
X-94486113Y-48819060D01*
X-94427747Y-48868035D01*
X-94393869Y-48946192D01*
X-94389174Y-48999861D01*
X-94408965Y-49082714D01*
X-94580375Y-49286992D01*
X-93524752Y-48680872D02*
X-93845761Y-48411513D01*
X-93928613Y-48391721D01*
X-94006770Y-48425600D01*
X-94104719Y-48542330D01*
X-94124511Y-48625183D01*
X-93553935Y-48656384D02*
X-93573726Y-48739237D01*
X-93696162Y-48885150D01*
X-93774319Y-48919028D01*
X-93857171Y-48899237D01*
X-93915537Y-48850262D01*
X-93949415Y-48772105D01*
X-93929623Y-48689253D01*
X-93807187Y-48543340D01*
X-93787396Y-48460487D01*
X-93761899Y-48133773D02*
X-93566002Y-47900312D01*
X-93892716Y-47874815D02*
X-93367428Y-48315584D01*
X-93284576Y-48335375D01*
X-93206419Y-48301497D01*
X-93157445Y-48243132D01*
X-93468053Y-47783581D02*
X-93272156Y-47550120D01*
X-93598870Y-47524623D02*
X-93073583Y-47965392D01*
X-92990730Y-47985184D01*
X-92912573Y-47951305D01*
X-92863599Y-47892940D01*
X-92525474Y-47430713D02*
X-92545266Y-47513566D01*
X-92643215Y-47630296D01*
X-92721372Y-47664175D01*
X-92804224Y-47644383D01*
X-93037685Y-47448486D01*
X-93071563Y-47370329D01*
X-93051772Y-47287476D01*
X-92953823Y-47170746D01*
X-92875666Y-47136868D01*
X-92792814Y-47156659D01*
X-92734448Y-47205634D01*
X-92920955Y-47546434D01*
X-92251420Y-47163374D02*
X-92659977Y-46820554D01*
X-92543247Y-46918503D02*
X-92577125Y-46840346D01*
X-92581820Y-46786676D01*
X-92562029Y-46703823D01*
X-92513054Y-46645458D01*
X-92390619Y-46499545D02*
X-91859626Y-46696452D01*
X-92145747Y-46207718D02*
X-91859626Y-46696452D01*
X-91762687Y-46877253D01*
X-91757991Y-46930923D01*
X-91777783Y-47013775D01*
D16*
X-85613260Y-52180444D02*
X-84933031Y-51848226D01*
X-85044221Y-50812420D02*
G75*
G03X-85604544Y-52080826I3562685J-2331795D01*
G01*
X-85613260Y-52180444D02*
X-85965214Y-51491717D01*
D13*
X-80102381Y-53860714D02*
X-80140477Y-53898809D01*
X-80254762Y-53936904D01*
X-80330953Y-53936904D01*
X-80445239Y-53898809D01*
X-80521429Y-53822619D01*
X-80559524Y-53746428D01*
X-80597620Y-53594047D01*
X-80597620Y-53479761D01*
X-80559524Y-53327380D01*
X-80521429Y-53251190D01*
X-80445239Y-53175000D01*
X-80330953Y-53136904D01*
X-80254762Y-53136904D01*
X-80140477Y-53175000D01*
X-80102381Y-53213095D01*
X-79645239Y-53936904D02*
X-79721429Y-53898809D01*
X-79759524Y-53860714D01*
X-79797620Y-53784523D01*
X-79797620Y-53555952D01*
X-79759524Y-53479761D01*
X-79721429Y-53441666D01*
X-79645239Y-53403571D01*
X-79530953Y-53403571D01*
X-79454762Y-53441666D01*
X-79416667Y-53479761D01*
X-79378572Y-53555952D01*
X-79378572Y-53784523D01*
X-79416667Y-53860714D01*
X-79454762Y-53898809D01*
X-79530953Y-53936904D01*
X-79645239Y-53936904D01*
X-79035715Y-53403571D02*
X-79035715Y-53936904D01*
X-79035715Y-53479761D02*
X-78997620Y-53441666D01*
X-78921429Y-53403571D01*
X-78807143Y-53403571D01*
X-78730953Y-53441666D01*
X-78692858Y-53517857D01*
X-78692858Y-53936904D01*
X-78311905Y-53403571D02*
X-78311905Y-53936904D01*
X-78311905Y-53479761D02*
X-78273810Y-53441666D01*
X-78197620Y-53403571D01*
X-78083334Y-53403571D01*
X-78007143Y-53441666D01*
X-77969048Y-53517857D01*
X-77969048Y-53936904D01*
X-77283334Y-53898809D02*
X-77359524Y-53936904D01*
X-77511905Y-53936904D01*
X-77588096Y-53898809D01*
X-77626191Y-53822619D01*
X-77626191Y-53517857D01*
X-77588096Y-53441666D01*
X-77511905Y-53403571D01*
X-77359524Y-53403571D01*
X-77283334Y-53441666D01*
X-77245239Y-53517857D01*
X-77245239Y-53594047D01*
X-77626191Y-53670238D01*
X-76559524Y-53898809D02*
X-76635715Y-53936904D01*
X-76788096Y-53936904D01*
X-76864286Y-53898809D01*
X-76902381Y-53860714D01*
X-76940477Y-53784523D01*
X-76940477Y-53555952D01*
X-76902381Y-53479761D01*
X-76864286Y-53441666D01*
X-76788096Y-53403571D01*
X-76635715Y-53403571D01*
X-76559524Y-53441666D01*
X-76330953Y-53403571D02*
X-76026191Y-53403571D01*
X-76216667Y-53136904D02*
X-76216667Y-53822619D01*
X-76178572Y-53898809D01*
X-76102381Y-53936904D01*
X-76026191Y-53936904D01*
X-79569048Y-54867857D02*
X-79454762Y-54905952D01*
X-79416667Y-54944047D01*
X-79378572Y-55020238D01*
X-79378572Y-55134523D01*
X-79416667Y-55210714D01*
X-79454762Y-55248809D01*
X-79530953Y-55286904D01*
X-79835715Y-55286904D01*
X-79835715Y-54486904D01*
X-79569048Y-54486904D01*
X-79492858Y-54525000D01*
X-79454762Y-54563095D01*
X-79416667Y-54639285D01*
X-79416667Y-54715476D01*
X-79454762Y-54791666D01*
X-79492858Y-54829761D01*
X-79569048Y-54867857D01*
X-79835715Y-54867857D01*
X-78921429Y-55286904D02*
X-78997620Y-55248809D01*
X-79035715Y-55210714D01*
X-79073810Y-55134523D01*
X-79073810Y-54905952D01*
X-79035715Y-54829761D01*
X-78997620Y-54791666D01*
X-78921429Y-54753571D01*
X-78807143Y-54753571D01*
X-78730953Y-54791666D01*
X-78692858Y-54829761D01*
X-78654762Y-54905952D01*
X-78654762Y-55134523D01*
X-78692858Y-55210714D01*
X-78730953Y-55248809D01*
X-78807143Y-55286904D01*
X-78921429Y-55286904D01*
X-78197620Y-55286904D02*
X-78273810Y-55248809D01*
X-78311905Y-55210714D01*
X-78350000Y-55134523D01*
X-78350000Y-54905952D01*
X-78311905Y-54829761D01*
X-78273810Y-54791666D01*
X-78197620Y-54753571D01*
X-78083334Y-54753571D01*
X-78007143Y-54791666D01*
X-77969048Y-54829761D01*
X-77930953Y-54905952D01*
X-77930953Y-55134523D01*
X-77969048Y-55210714D01*
X-78007143Y-55248809D01*
X-78083334Y-55286904D01*
X-78197620Y-55286904D01*
X-77626191Y-55248809D02*
X-77550000Y-55286904D01*
X-77397620Y-55286904D01*
X-77321429Y-55248809D01*
X-77283334Y-55172619D01*
X-77283334Y-55134523D01*
X-77321429Y-55058333D01*
X-77397620Y-55020238D01*
X-77511905Y-55020238D01*
X-77588096Y-54982142D01*
X-77626191Y-54905952D01*
X-77626191Y-54867857D01*
X-77588096Y-54791666D01*
X-77511905Y-54753571D01*
X-77397620Y-54753571D01*
X-77321429Y-54791666D01*
X-77054762Y-54753571D02*
X-76750000Y-54753571D01*
X-76940477Y-54486904D02*
X-76940477Y-55172619D01*
X-76902381Y-55248809D01*
X-76826191Y-55286904D01*
X-76750000Y-55286904D01*
D16*
X-63363447Y-47333919D02*
G75*
G03X-64636131Y-48732882I2434611J-3493231D01*
G01*
X-64670332Y-48826850D02*
X-63927298Y-48682008D01*
X-64670332Y-48826850D02*
X-64832038Y-48070498D01*
X-62973120Y-52021671D02*
G75*
G03X-64245804Y-53420634I2434611J-3493232D01*
G01*
X-64280006Y-53514603D02*
X-64441711Y-52758250D01*
X-64280006Y-53514603D02*
X-63536971Y-53369760D01*
D13*
X-79753572Y-56810714D02*
X-79791667Y-56848809D01*
X-79905953Y-56886904D01*
X-79982143Y-56886904D01*
X-80096429Y-56848809D01*
X-80172620Y-56772619D01*
X-80210715Y-56696428D01*
X-80248810Y-56544047D01*
X-80248810Y-56429761D01*
X-80210715Y-56277380D01*
X-80172620Y-56201190D01*
X-80096429Y-56125000D01*
X-79982143Y-56086904D01*
X-79905953Y-56086904D01*
X-79791667Y-56125000D01*
X-79753572Y-56163095D01*
X-79410715Y-56886904D02*
X-79410715Y-56086904D01*
X-79067858Y-56886904D02*
X-79067858Y-56467857D01*
X-79105953Y-56391666D01*
X-79182143Y-56353571D01*
X-79296429Y-56353571D01*
X-79372620Y-56391666D01*
X-79410715Y-56429761D01*
X-78344048Y-56886904D02*
X-78344048Y-56467857D01*
X-78382143Y-56391666D01*
X-78458334Y-56353571D01*
X-78610715Y-56353571D01*
X-78686905Y-56391666D01*
X-78344048Y-56848809D02*
X-78420239Y-56886904D01*
X-78610715Y-56886904D01*
X-78686905Y-56848809D01*
X-78725000Y-56772619D01*
X-78725000Y-56696428D01*
X-78686905Y-56620238D01*
X-78610715Y-56582142D01*
X-78420239Y-56582142D01*
X-78344048Y-56544047D01*
X-77963096Y-56886904D02*
X-77963096Y-56353571D01*
X-77963096Y-56505952D02*
X-77925000Y-56429761D01*
X-77886905Y-56391666D01*
X-77810715Y-56353571D01*
X-77734524Y-56353571D01*
X-77125000Y-56353571D02*
X-77125000Y-57001190D01*
X-77163096Y-57077380D01*
X-77201191Y-57115476D01*
X-77277381Y-57153571D01*
X-77391667Y-57153571D01*
X-77467858Y-57115476D01*
X-77125000Y-56848809D02*
X-77201191Y-56886904D01*
X-77353572Y-56886904D01*
X-77429762Y-56848809D01*
X-77467858Y-56810714D01*
X-77505953Y-56734523D01*
X-77505953Y-56505952D01*
X-77467858Y-56429761D01*
X-77429762Y-56391666D01*
X-77353572Y-56353571D01*
X-77201191Y-56353571D01*
X-77125000Y-56391666D01*
X-76439286Y-56848809D02*
X-76515477Y-56886904D01*
X-76667858Y-56886904D01*
X-76744048Y-56848809D01*
X-76782143Y-56772619D01*
X-76782143Y-56467857D01*
X-76744048Y-56391666D01*
X-76667858Y-56353571D01*
X-76515477Y-56353571D01*
X-76439286Y-56391666D01*
X-76401191Y-56467857D01*
X-76401191Y-56544047D01*
X-76782143Y-56620238D01*
X-79163096Y-58236904D02*
X-79544048Y-58236904D01*
X-79544048Y-57436904D01*
X-78896429Y-57817857D02*
X-78629762Y-57817857D01*
X-78515477Y-58236904D02*
X-78896429Y-58236904D01*
X-78896429Y-57436904D01*
X-78515477Y-57436904D01*
X-78172620Y-58236904D02*
X-78172620Y-57436904D01*
X-77982143Y-57436904D01*
X-77867858Y-57475000D01*
X-77791667Y-57551190D01*
X-77753572Y-57627380D01*
X-77715477Y-57779761D01*
X-77715477Y-57894047D01*
X-77753572Y-58046428D01*
X-77791667Y-58122619D01*
X-77867858Y-58198809D01*
X-77982143Y-58236904D01*
X-78172620Y-58236904D01*
X-77410715Y-58198809D02*
X-77334524Y-58236904D01*
X-77182143Y-58236904D01*
X-77105953Y-58198809D01*
X-77067858Y-58122619D01*
X-77067858Y-58084523D01*
X-77105953Y-58008333D01*
X-77182143Y-57970238D01*
X-77296429Y-57970238D01*
X-77372620Y-57932142D01*
X-77410715Y-57855952D01*
X-77410715Y-57817857D01*
X-77372620Y-57741666D01*
X-77296429Y-57703571D01*
X-77182143Y-57703571D01*
X-77105953Y-57741666D01*
D12*
X-39115814Y18851745D02*
X-39595667Y19469796D01*
X-39115814Y18851745D02*
X-39835254Y18226776D01*
X-41243386Y19327378D02*
G75*
G03X-39214293Y18834381I1989135J3764749D01*
G01*
D13*
X-43921709Y20272186D02*
X-43629883Y20517058D01*
X-43833152Y20048116D02*
X-44143103Y20832361D01*
X-43424595Y20390936D01*
X-43300492Y21191287D02*
X-42957672Y20782730D01*
X-43563136Y20970903D02*
X-43293778Y20649894D01*
X-43215621Y20616016D01*
X-43132768Y20635807D01*
X-43045220Y20709269D01*
X-43011342Y20787426D01*
X-43006647Y20841096D01*
X-42403202Y21247986D02*
X-42917432Y21860822D01*
X-42427689Y21277169D02*
X-42461567Y21199012D01*
X-42578298Y21101063D01*
X-42661150Y21081272D01*
X-42714820Y21085967D01*
X-42792977Y21119845D01*
X-42939900Y21294941D01*
X-42959692Y21377794D01*
X-42954996Y21431463D01*
X-42921118Y21509620D01*
X-42804387Y21607569D01*
X-42721535Y21627361D01*
X-42111376Y21492858D02*
X-42454196Y21901415D01*
X-42625606Y22105693D02*
X-42630301Y22052023D01*
X-42576631Y22047328D01*
X-42571936Y22100998D01*
X-42625606Y22105693D01*
X-42576631Y22047328D01*
X-41732001Y21811190D02*
X-41814854Y21791399D01*
X-41868524Y21796094D01*
X-41946680Y21829972D01*
X-42093603Y22005068D01*
X-42113395Y22087921D01*
X-42108699Y22141591D01*
X-42074821Y22219748D01*
X-41987273Y22293209D01*
X-41904421Y22313001D01*
X-41850751Y22308305D01*
X-41772594Y22274427D01*
X-41625671Y22099331D01*
X-41605880Y22016479D01*
X-41610575Y21962809D01*
X-41644453Y21884652D01*
X-41732001Y21811190D01*
X-42432225Y20008362D02*
X-42636503Y19836952D01*
X-42367145Y19515942D02*
X-42881375Y20128778D01*
X-42589548Y20373649D01*
X-41841857Y19956711D02*
X-42184677Y20365268D01*
X-42356087Y20569547D02*
X-42360782Y20515877D01*
X-42307113Y20511181D01*
X-42302417Y20564851D01*
X-42356087Y20569547D01*
X-42307113Y20511181D01*
X-41462483Y20275044D02*
X-41545335Y20255252D01*
X-41623492Y20289130D01*
X-42064261Y20814418D01*
X-41659389Y20806037D02*
X-41425928Y21001934D01*
X-41743251Y21083777D02*
X-41302483Y20558489D01*
X-41224326Y20524611D01*
X-41141473Y20544403D01*
X-41083108Y20593377D01*
X-40669856Y20989867D02*
X-40703734Y20911710D01*
X-40820464Y20813761D01*
X-40903317Y20793970D01*
X-40981474Y20827848D01*
X-41177371Y21061309D01*
X-41197163Y21144161D01*
X-41163284Y21222318D01*
X-41046554Y21320267D01*
X-40963701Y21340058D01*
X-40885544Y21306180D01*
X-40836570Y21247815D01*
X-41079422Y20944578D01*
X-40353542Y21205556D02*
X-40696362Y21614113D01*
X-40598413Y21497382D02*
X-40618205Y21580234D01*
X-40613510Y21633904D01*
X-40579631Y21712061D01*
X-40521266Y21761035D01*
D17*
X-62189375Y17067648D02*
G75*
G03X-57613069Y20981394I331280J4245026D01*
G01*
X-57621783Y21081012D02*
X-59263021Y20335130D01*
X-57621783Y21081012D02*
X-56594474Y19665160D01*
D13*
X-67796508Y17527058D02*
X-67836972Y17990306D01*
X-68192405Y17755629D02*
X-67792405Y18448450D01*
X-67528474Y18296069D01*
X-67481538Y18224982D01*
X-67467595Y18172943D01*
X-67472698Y18087913D01*
X-67529841Y17988938D01*
X-67600928Y17942003D01*
X-67652967Y17928059D01*
X-67737998Y17933163D01*
X-68001929Y18085544D01*
X-67499585Y17355629D02*
X-67099585Y18048450D01*
X-66835653Y17896069D01*
X-66788718Y17824982D01*
X-66774774Y17772943D01*
X-66779878Y17687913D01*
X-66837021Y17588938D01*
X-66908108Y17542003D01*
X-66960147Y17528059D01*
X-67045177Y17533163D01*
X-67309109Y17685544D01*
X-66806765Y16955629D02*
X-66540098Y17417510D01*
X-66406765Y17648450D02*
X-66458804Y17634506D01*
X-66444860Y17582467D01*
X-66392821Y17596411D01*
X-66406765Y17648450D01*
X-66444860Y17582467D01*
X-65614970Y17191307D02*
X-65153090Y16924640D01*
X-66014970Y16498487D01*
X-65553090Y16231820D01*
X-65006179Y15960049D02*
X-65091210Y15965153D01*
X-65223175Y16041344D01*
X-65270111Y16112430D01*
X-65265007Y16197461D01*
X-65112626Y16461392D01*
X-65041539Y16508328D01*
X-64956509Y16503224D01*
X-64824543Y16427033D01*
X-64777608Y16355947D01*
X-64782711Y16270916D01*
X-64820807Y16204933D01*
X-65188816Y16329427D01*
X-64695312Y15736582D02*
X-64428646Y16198462D01*
X-64504836Y16066496D02*
X-64433749Y16113431D01*
X-64381710Y16127375D01*
X-64296680Y16122272D01*
X-64230697Y16084176D01*
X-64167449Y15431820D02*
X-64214384Y15502907D01*
X-64228328Y15554946D01*
X-64223224Y15639976D01*
X-64108939Y15837925D01*
X-64037852Y15884860D01*
X-63985813Y15898804D01*
X-63900782Y15893700D01*
X-63801808Y15836557D01*
X-63754873Y15765471D01*
X-63740929Y15713431D01*
X-63746033Y15628401D01*
X-63860319Y15430452D01*
X-63931405Y15383517D01*
X-63983444Y15369573D01*
X-64068475Y15374677D01*
X-64167449Y15431820D01*
D17*
X-52124061Y38319246D02*
X-52836570Y36721644D01*
X-57379557Y39460351D02*
G75*
G03X-52205976Y38261890I3337965J2643480D01*
G01*
X-52124061Y38319246D02*
X-53590633Y39367659D01*
D13*
X-60745239Y41238096D02*
X-60745239Y42038096D01*
X-59983334Y41238096D02*
X-60364286Y41238096D01*
X-60364286Y42038096D01*
X-59716667Y41238096D02*
X-59716667Y42038096D01*
X-59297620Y41238096D02*
X-59145239Y41238096D01*
X-59069048Y41276191D01*
X-59030953Y41314286D01*
X-58954762Y41428572D01*
X-58916667Y41580953D01*
X-58916667Y41885715D01*
X-58954762Y41961905D01*
X-58992858Y42000000D01*
X-59069048Y42038096D01*
X-59221429Y42038096D01*
X-59297620Y42000000D01*
X-59335715Y41961905D01*
X-59373810Y41885715D01*
X-59373810Y41695239D01*
X-59335715Y41619048D01*
X-59297620Y41580953D01*
X-59221429Y41542858D01*
X-59069048Y41542858D01*
X-58992858Y41580953D01*
X-58954762Y41619048D01*
X-58916667Y41695239D01*
X-58650000Y42038096D02*
X-58154762Y42038096D01*
X-58421429Y41733334D01*
X-58307143Y41733334D01*
X-58230953Y41695239D01*
X-58192858Y41657143D01*
X-58154762Y41580953D01*
X-58154762Y41390477D01*
X-58192858Y41314286D01*
X-58230953Y41276191D01*
X-58307143Y41238096D01*
X-58535715Y41238096D01*
X-58611905Y41276191D01*
X-58650000Y41314286D01*
X-57469048Y41771429D02*
X-57469048Y41238096D01*
X-57659524Y42076191D02*
X-57850000Y41504762D01*
X-57354762Y41504762D01*
X-56630953Y41238096D02*
X-57088096Y41238096D01*
X-56859524Y41238096D02*
X-56859524Y42038096D01*
X-56935715Y41923810D01*
X-57011905Y41847620D01*
X-57088096Y41809524D01*
X-55792858Y42038096D02*
X-55335715Y42038096D01*
X-55564286Y41238096D02*
X-55564286Y42038096D01*
X-54802381Y41657143D02*
X-55069048Y41657143D01*
X-55069048Y41238096D02*
X-55069048Y42038096D01*
X-54688096Y42038096D01*
X-54497620Y42038096D02*
X-54040477Y42038096D01*
X-54269048Y41238096D02*
X-54269048Y42038096D01*
D12*
X-19550000Y3300000D02*
X-19550000Y4200000D01*
X-19550000Y3300000D02*
X-18550000Y3100000D01*
X-19547613Y3340680D02*
G75*
G03X-17250001Y6450001I-1902387J3809320D01*
G01*
D13*
X-31997620Y66838096D02*
X-31997620Y67638096D01*
X-31692858Y67638096D01*
X-31616667Y67600000D01*
X-31578572Y67561905D01*
X-31540477Y67485715D01*
X-31540477Y67371429D01*
X-31578572Y67295239D01*
X-31616667Y67257143D01*
X-31692858Y67219048D01*
X-31997620Y67219048D01*
X-31045239Y67638096D02*
X-30892858Y67638096D01*
X-30816667Y67600000D01*
X-30740477Y67523810D01*
X-30702381Y67371429D01*
X-30702381Y67104762D01*
X-30740477Y66952381D01*
X-30816667Y66876191D01*
X-30892858Y66838096D01*
X-31045239Y66838096D01*
X-31121429Y66876191D01*
X-31197620Y66952381D01*
X-31235715Y67104762D01*
X-31235715Y67371429D01*
X-31197620Y67523810D01*
X-31121429Y67600000D01*
X-31045239Y67638096D01*
X-30435715Y67638096D02*
X-30245239Y66838096D01*
X-30092858Y67409524D01*
X-29940477Y66838096D01*
X-29750000Y67638096D01*
X-29445239Y67257143D02*
X-29178572Y67257143D01*
X-29064286Y66838096D02*
X-29445239Y66838096D01*
X-29445239Y67638096D01*
X-29064286Y67638096D01*
X-28264286Y66838096D02*
X-28530953Y67219048D01*
X-28721429Y66838096D02*
X-28721429Y67638096D01*
X-28416667Y67638096D01*
X-28340477Y67600000D01*
X-28302381Y67561905D01*
X-28264286Y67485715D01*
X-28264286Y67371429D01*
X-28302381Y67295239D01*
X-28340477Y67257143D01*
X-28416667Y67219048D01*
X-28721429Y67219048D01*
X-32150000Y65526191D02*
X-32035715Y65488096D01*
X-31845239Y65488096D01*
X-31769048Y65526191D01*
X-31730953Y65564286D01*
X-31692858Y65640477D01*
X-31692858Y65716667D01*
X-31730953Y65792858D01*
X-31769048Y65830953D01*
X-31845239Y65869048D01*
X-31997620Y65907143D01*
X-32073810Y65945239D01*
X-32111905Y65983334D01*
X-32150000Y66059524D01*
X-32150000Y66135715D01*
X-32111905Y66211905D01*
X-32073810Y66250000D01*
X-31997620Y66288096D01*
X-31807143Y66288096D01*
X-31692858Y66250000D01*
X-31426191Y66288096D02*
X-31235715Y65488096D01*
X-31083334Y66059524D01*
X-30930953Y65488096D01*
X-30740477Y66288096D01*
X-30435715Y65488096D02*
X-30435715Y66288096D01*
X-30169048Y66288096D02*
X-29711905Y66288096D01*
X-29940477Y65488096D02*
X-29940477Y66288096D01*
X-28988096Y65564286D02*
X-29026191Y65526191D01*
X-29140477Y65488096D01*
X-29216667Y65488096D01*
X-29330953Y65526191D01*
X-29407143Y65602381D01*
X-29445239Y65678572D01*
X-29483334Y65830953D01*
X-29483334Y65945239D01*
X-29445239Y66097620D01*
X-29407143Y66173810D01*
X-29330953Y66250000D01*
X-29216667Y66288096D01*
X-29140477Y66288096D01*
X-29026191Y66250000D01*
X-28988096Y66211905D01*
X-28645239Y65488096D02*
X-28645239Y66288096D01*
X-28645239Y65907143D02*
X-28188096Y65907143D01*
X-28188096Y65488096D02*
X-28188096Y66288096D01*
X-31940477Y64557143D02*
X-31826191Y64519048D01*
X-31788096Y64480953D01*
X-31750000Y64404762D01*
X-31750000Y64290477D01*
X-31788096Y64214286D01*
X-31826191Y64176191D01*
X-31902381Y64138096D01*
X-32207143Y64138096D01*
X-32207143Y64938096D01*
X-31940477Y64938096D01*
X-31864286Y64900000D01*
X-31826191Y64861905D01*
X-31788096Y64785715D01*
X-31788096Y64709524D01*
X-31826191Y64633334D01*
X-31864286Y64595239D01*
X-31940477Y64557143D01*
X-32207143Y64557143D01*
X-31254762Y64519048D02*
X-31254762Y64138096D01*
X-31521429Y64938096D02*
X-31254762Y64519048D01*
X-30988096Y64938096D01*
X-30721429Y64138096D02*
X-30721429Y64938096D01*
X-30416667Y64938096D01*
X-30340477Y64900000D01*
X-30302381Y64861905D01*
X-30264286Y64785715D01*
X-30264286Y64671429D01*
X-30302381Y64595239D01*
X-30340477Y64557143D01*
X-30416667Y64519048D01*
X-30721429Y64519048D01*
X-29959524Y64366667D02*
X-29578572Y64366667D01*
X-30035715Y64138096D02*
X-29769048Y64938096D01*
X-29502381Y64138096D01*
X-29273810Y64176191D02*
X-29159524Y64138096D01*
X-28969048Y64138096D01*
X-28892858Y64176191D01*
X-28854762Y64214286D01*
X-28816667Y64290477D01*
X-28816667Y64366667D01*
X-28854762Y64442858D01*
X-28892858Y64480953D01*
X-28969048Y64519048D01*
X-29121429Y64557143D01*
X-29197620Y64595239D01*
X-29235715Y64633334D01*
X-29273810Y64709524D01*
X-29273810Y64785715D01*
X-29235715Y64861905D01*
X-29197620Y64900000D01*
X-29121429Y64938096D01*
X-28930953Y64938096D01*
X-28816667Y64900000D01*
X-28511905Y64176191D02*
X-28397620Y64138096D01*
X-28207143Y64138096D01*
X-28130953Y64176191D01*
X-28092858Y64214286D01*
X-28054762Y64290477D01*
X-28054762Y64366667D01*
X-28092858Y64442858D01*
X-28130953Y64480953D01*
X-28207143Y64519048D01*
X-28359524Y64557143D01*
X-28435715Y64595239D01*
X-28473810Y64633334D01*
X-28511905Y64709524D01*
X-28511905Y64785715D01*
X-28473810Y64861905D01*
X-28435715Y64900000D01*
X-28359524Y64938096D01*
X-28169048Y64938096D01*
X-28054762Y64900000D01*
X-52514286Y6550000D02*
X-52590477Y6588096D01*
X-52704762Y6588096D01*
X-52819048Y6550000D01*
X-52895239Y6473810D01*
X-52933334Y6397620D01*
X-52971429Y6245239D01*
X-52971429Y6130953D01*
X-52933334Y5978572D01*
X-52895239Y5902381D01*
X-52819048Y5826191D01*
X-52704762Y5788096D01*
X-52628572Y5788096D01*
X-52514286Y5826191D01*
X-52476191Y5864286D01*
X-52476191Y6130953D01*
X-52628572Y6130953D01*
X-52133334Y5788096D02*
X-52133334Y6588096D01*
X-51828572Y6588096D01*
X-51752381Y6550000D01*
X-51714286Y6511905D01*
X-51676191Y6435715D01*
X-51676191Y6321429D01*
X-51714286Y6245239D01*
X-51752381Y6207143D01*
X-51828572Y6169048D01*
X-52133334Y6169048D01*
X-51333334Y5788096D02*
X-51333334Y6588096D01*
X-50800000Y6588096D02*
X-50647620Y6588096D01*
X-50571429Y6550000D01*
X-50495239Y6473810D01*
X-50457143Y6321429D01*
X-50457143Y6054762D01*
X-50495239Y5902381D01*
X-50571429Y5826191D01*
X-50647620Y5788096D01*
X-50800000Y5788096D01*
X-50876191Y5826191D01*
X-50952381Y5902381D01*
X-50990477Y6054762D01*
X-50990477Y6321429D01*
X-50952381Y6473810D01*
X-50876191Y6550000D01*
X-50800000Y6588096D01*
X-49504762Y6207143D02*
X-49238096Y6207143D01*
X-49123810Y5788096D02*
X-49504762Y5788096D01*
X-49504762Y6588096D01*
X-49123810Y6588096D01*
X-48857143Y5788096D02*
X-48438096Y6321429D01*
X-48857143Y6321429D02*
X-48438096Y5788096D01*
X-48133334Y6321429D02*
X-48133334Y5521429D01*
X-48133334Y6283334D02*
X-48057143Y6321429D01*
X-47904762Y6321429D01*
X-47828572Y6283334D01*
X-47790477Y6245239D01*
X-47752381Y6169048D01*
X-47752381Y5940477D01*
X-47790477Y5864286D01*
X-47828572Y5826191D01*
X-47904762Y5788096D01*
X-48057143Y5788096D01*
X-48133334Y5826191D01*
X-47066667Y5788096D02*
X-47066667Y6207143D01*
X-47104762Y6283334D01*
X-47180953Y6321429D01*
X-47333334Y6321429D01*
X-47409524Y6283334D01*
X-47066667Y5826191D02*
X-47142858Y5788096D01*
X-47333334Y5788096D01*
X-47409524Y5826191D01*
X-47447620Y5902381D01*
X-47447620Y5978572D01*
X-47409524Y6054762D01*
X-47333334Y6092858D01*
X-47142858Y6092858D01*
X-47066667Y6130953D01*
X-46685715Y6321429D02*
X-46685715Y5788096D01*
X-46685715Y6245239D02*
X-46647620Y6283334D01*
X-46571429Y6321429D01*
X-46457143Y6321429D01*
X-46380953Y6283334D01*
X-46342858Y6207143D01*
X-46342858Y5788096D01*
X-46000000Y5826191D02*
X-45923810Y5788096D01*
X-45771429Y5788096D01*
X-45695239Y5826191D01*
X-45657143Y5902381D01*
X-45657143Y5940477D01*
X-45695239Y6016667D01*
X-45771429Y6054762D01*
X-45885715Y6054762D01*
X-45961905Y6092858D01*
X-46000000Y6169048D01*
X-46000000Y6207143D01*
X-45961905Y6283334D01*
X-45885715Y6321429D01*
X-45771429Y6321429D01*
X-45695239Y6283334D01*
X-45314286Y5788096D02*
X-45314286Y6321429D01*
X-45314286Y6588096D02*
X-45352381Y6550000D01*
X-45314286Y6511905D01*
X-45276191Y6550000D01*
X-45314286Y6588096D01*
X-45314286Y6511905D01*
X-44819048Y5788096D02*
X-44895239Y5826191D01*
X-44933334Y5864286D01*
X-44971429Y5940477D01*
X-44971429Y6169048D01*
X-44933334Y6245239D01*
X-44895239Y6283334D01*
X-44819048Y6321429D01*
X-44704762Y6321429D01*
X-44628572Y6283334D01*
X-44590477Y6245239D01*
X-44552381Y6169048D01*
X-44552381Y5940477D01*
X-44590477Y5864286D01*
X-44628572Y5826191D01*
X-44704762Y5788096D01*
X-44819048Y5788096D01*
X-44209524Y6321429D02*
X-44209524Y5788096D01*
X-44209524Y6245239D02*
X-44171429Y6283334D01*
X-44095239Y6321429D01*
X-43980953Y6321429D01*
X-43904762Y6283334D01*
X-43866667Y6207143D01*
X-43866667Y5788096D01*
X-49600000Y4857143D02*
X-49333334Y4857143D01*
X-49219048Y4438096D02*
X-49600000Y4438096D01*
X-49600000Y5238096D01*
X-49219048Y5238096D01*
X-48876191Y4971429D02*
X-48876191Y4438096D01*
X-48876191Y4895239D02*
X-48838096Y4933334D01*
X-48761905Y4971429D01*
X-48647620Y4971429D01*
X-48571429Y4933334D01*
X-48533334Y4857143D01*
X-48533334Y4438096D01*
X-47809524Y4438096D02*
X-47809524Y4857143D01*
X-47847620Y4933334D01*
X-47923810Y4971429D01*
X-48076191Y4971429D01*
X-48152381Y4933334D01*
X-47809524Y4476191D02*
X-47885715Y4438096D01*
X-48076191Y4438096D01*
X-48152381Y4476191D01*
X-48190477Y4552381D01*
X-48190477Y4628572D01*
X-48152381Y4704762D01*
X-48076191Y4742858D01*
X-47885715Y4742858D01*
X-47809524Y4780953D01*
X-47428572Y4438096D02*
X-47428572Y5238096D01*
X-47428572Y4933334D02*
X-47352381Y4971429D01*
X-47200000Y4971429D01*
X-47123810Y4933334D01*
X-47085715Y4895239D01*
X-47047620Y4819048D01*
X-47047620Y4590477D01*
X-47085715Y4514286D01*
X-47123810Y4476191D01*
X-47200000Y4438096D01*
X-47352381Y4438096D01*
X-47428572Y4476191D01*
X-46590477Y4438096D02*
X-46666667Y4476191D01*
X-46704762Y4552381D01*
X-46704762Y5238096D01*
X-45980953Y4476191D02*
X-46057143Y4438096D01*
X-46209524Y4438096D01*
X-46285715Y4476191D01*
X-46323810Y4552381D01*
X-46323810Y4857143D01*
X-46285715Y4933334D01*
X-46209524Y4971429D01*
X-46057143Y4971429D01*
X-45980953Y4933334D01*
X-45942858Y4857143D01*
X-45942858Y4780953D01*
X-46323810Y4704762D01*
X-51161905Y3126191D02*
X-51047620Y3088096D01*
X-50857143Y3088096D01*
X-50780953Y3126191D01*
X-50742858Y3164286D01*
X-50704762Y3240477D01*
X-50704762Y3316667D01*
X-50742858Y3392858D01*
X-50780953Y3430953D01*
X-50857143Y3469048D01*
X-51009524Y3507143D01*
X-51085715Y3545239D01*
X-51123810Y3583334D01*
X-51161905Y3659524D01*
X-51161905Y3735715D01*
X-51123810Y3811905D01*
X-51085715Y3850000D01*
X-51009524Y3888096D01*
X-50819048Y3888096D01*
X-50704762Y3850000D01*
X-50361905Y3088096D02*
X-50361905Y3888096D01*
X-50171429Y3888096D01*
X-50057143Y3850000D01*
X-49980953Y3773810D01*
X-49942858Y3697620D01*
X-49904762Y3545239D01*
X-49904762Y3430953D01*
X-49942858Y3278572D01*
X-49980953Y3202381D01*
X-50057143Y3126191D01*
X-50171429Y3088096D01*
X-50361905Y3088096D01*
X-49600000Y3316667D02*
X-49219048Y3316667D01*
X-49676191Y3088096D02*
X-49409524Y3888096D01*
X-49142858Y3088096D01*
X-47085715Y3126191D02*
X-46971429Y3088096D01*
X-46780953Y3088096D01*
X-46704762Y3126191D01*
X-46666667Y3164286D01*
X-46628572Y3240477D01*
X-46628572Y3316667D01*
X-46666667Y3392858D01*
X-46704762Y3430953D01*
X-46780953Y3469048D01*
X-46933334Y3507143D01*
X-47009524Y3545239D01*
X-47047620Y3583334D01*
X-47085715Y3659524D01*
X-47085715Y3735715D01*
X-47047620Y3811905D01*
X-47009524Y3850000D01*
X-46933334Y3888096D01*
X-46742858Y3888096D01*
X-46628572Y3850000D01*
X-45828572Y3164286D02*
X-45866667Y3126191D01*
X-45980953Y3088096D01*
X-46057143Y3088096D01*
X-46171429Y3126191D01*
X-46247620Y3202381D01*
X-46285715Y3278572D01*
X-46323810Y3430953D01*
X-46323810Y3545239D01*
X-46285715Y3697620D01*
X-46247620Y3773810D01*
X-46171429Y3850000D01*
X-46057143Y3888096D01*
X-45980953Y3888096D01*
X-45866667Y3850000D01*
X-45828572Y3811905D01*
X-45485715Y3088096D02*
X-45485715Y3888096D01*
X-45028572Y3088096D02*
X-45371429Y3545239D01*
X-45028572Y3888096D02*
X-45485715Y3430953D01*
X-63676191Y12775000D02*
X-63752381Y12813096D01*
X-63866667Y12813096D01*
X-63980953Y12775000D01*
X-64057143Y12698810D01*
X-64095239Y12622620D01*
X-64133334Y12470239D01*
X-64133334Y12355953D01*
X-64095239Y12203572D01*
X-64057143Y12127381D01*
X-63980953Y12051191D01*
X-63866667Y12013096D01*
X-63790477Y12013096D01*
X-63676191Y12051191D01*
X-63638096Y12089286D01*
X-63638096Y12355953D01*
X-63790477Y12355953D01*
X-63295239Y12013096D02*
X-63295239Y12813096D01*
X-62990477Y12813096D01*
X-62914286Y12775000D01*
X-62876191Y12736905D01*
X-62838096Y12660715D01*
X-62838096Y12546429D01*
X-62876191Y12470239D01*
X-62914286Y12432143D01*
X-62990477Y12394048D01*
X-63295239Y12394048D01*
X-62495239Y12013096D02*
X-62495239Y12813096D01*
X-61961905Y12813096D02*
X-61809524Y12813096D01*
X-61733334Y12775000D01*
X-61657143Y12698810D01*
X-61619048Y12546429D01*
X-61619048Y12279762D01*
X-61657143Y12127381D01*
X-61733334Y12051191D01*
X-61809524Y12013096D01*
X-61961905Y12013096D01*
X-62038096Y12051191D01*
X-62114286Y12127381D01*
X-62152381Y12279762D01*
X-62152381Y12546429D01*
X-62114286Y12698810D01*
X-62038096Y12775000D01*
X-61961905Y12813096D01*
X-60666667Y12013096D02*
X-60666667Y12813096D01*
X-60285715Y12546429D02*
X-60285715Y12013096D01*
X-60285715Y12470239D02*
X-60247620Y12508334D01*
X-60171429Y12546429D01*
X-60057143Y12546429D01*
X-59980953Y12508334D01*
X-59942858Y12432143D01*
X-59942858Y12013096D01*
X-59676191Y12546429D02*
X-59371429Y12546429D01*
X-59561905Y12813096D02*
X-59561905Y12127381D01*
X-59523810Y12051191D01*
X-59447620Y12013096D01*
X-59371429Y12013096D01*
X-58800000Y12051191D02*
X-58876191Y12013096D01*
X-59028572Y12013096D01*
X-59104762Y12051191D01*
X-59142858Y12127381D01*
X-59142858Y12432143D01*
X-59104762Y12508334D01*
X-59028572Y12546429D01*
X-58876191Y12546429D01*
X-58800000Y12508334D01*
X-58761905Y12432143D01*
X-58761905Y12355953D01*
X-59142858Y12279762D01*
X-58419048Y12013096D02*
X-58419048Y12546429D01*
X-58419048Y12394048D02*
X-58380953Y12470239D01*
X-58342858Y12508334D01*
X-58266667Y12546429D01*
X-58190477Y12546429D01*
X-57923810Y12013096D02*
X-57923810Y12546429D01*
X-57923810Y12394048D02*
X-57885715Y12470239D01*
X-57847620Y12508334D01*
X-57771429Y12546429D01*
X-57695239Y12546429D01*
X-57085715Y12546429D02*
X-57085715Y12013096D01*
X-57428572Y12546429D02*
X-57428572Y12127381D01*
X-57390477Y12051191D01*
X-57314286Y12013096D01*
X-57200000Y12013096D01*
X-57123810Y12051191D01*
X-57085715Y12089286D01*
X-56704762Y12546429D02*
X-56704762Y11746429D01*
X-56704762Y12508334D02*
X-56628572Y12546429D01*
X-56476191Y12546429D01*
X-56400000Y12508334D01*
X-56361905Y12470239D01*
X-56323810Y12394048D01*
X-56323810Y12165477D01*
X-56361905Y12089286D01*
X-56400000Y12051191D01*
X-56476191Y12013096D01*
X-56628572Y12013096D01*
X-56704762Y12051191D01*
X-56095239Y12546429D02*
X-55790477Y12546429D01*
X-55980953Y12813096D02*
X-55980953Y12127381D01*
X-55942858Y12051191D01*
X-55866667Y12013096D01*
X-55790477Y12013096D01*
X-63942858Y10663096D02*
X-63942858Y11463096D01*
X-63638096Y11463096D01*
X-63561905Y11425000D01*
X-63523810Y11386905D01*
X-63485715Y11310715D01*
X-63485715Y11196429D01*
X-63523810Y11120239D01*
X-63561905Y11082143D01*
X-63638096Y11044048D01*
X-63942858Y11044048D01*
X-63028572Y10663096D02*
X-63104762Y10701191D01*
X-63142858Y10739286D01*
X-63180953Y10815477D01*
X-63180953Y11044048D01*
X-63142858Y11120239D01*
X-63104762Y11158334D01*
X-63028572Y11196429D01*
X-62914286Y11196429D01*
X-62838096Y11158334D01*
X-62800000Y11120239D01*
X-62761905Y11044048D01*
X-62761905Y10815477D01*
X-62800000Y10739286D01*
X-62838096Y10701191D01*
X-62914286Y10663096D01*
X-63028572Y10663096D01*
X-62419048Y10663096D02*
X-62419048Y11196429D01*
X-62419048Y11044048D02*
X-62380953Y11120239D01*
X-62342858Y11158334D01*
X-62266667Y11196429D01*
X-62190477Y11196429D01*
X-62038096Y11196429D02*
X-61733334Y11196429D01*
X-61923810Y11463096D02*
X-61923810Y10777381D01*
X-61885715Y10701191D01*
X-61809524Y10663096D01*
X-61733334Y10663096D01*
X-60895239Y10891667D02*
X-60514286Y10891667D01*
X-60971429Y10663096D02*
X-60704762Y11463096D01*
X-60438096Y10663096D01*
X-59561905Y10663096D02*
X-59561905Y11463096D01*
X-59257143Y11463096D01*
X-59180953Y11425000D01*
X-59142858Y11386905D01*
X-59104762Y11310715D01*
X-59104762Y11196429D01*
X-59142858Y11120239D01*
X-59180953Y11082143D01*
X-59257143Y11044048D01*
X-59561905Y11044048D01*
X-58647620Y10663096D02*
X-58723810Y10701191D01*
X-58761905Y10739286D01*
X-58800000Y10815477D01*
X-58800000Y11044048D01*
X-58761905Y11120239D01*
X-58723810Y11158334D01*
X-58647620Y11196429D01*
X-58533334Y11196429D01*
X-58457143Y11158334D01*
X-58419048Y11120239D01*
X-58380953Y11044048D01*
X-58380953Y10815477D01*
X-58419048Y10739286D01*
X-58457143Y10701191D01*
X-58533334Y10663096D01*
X-58647620Y10663096D01*
X-58038096Y10663096D02*
X-58038096Y11196429D01*
X-58038096Y11044048D02*
X-58000000Y11120239D01*
X-57961905Y11158334D01*
X-57885715Y11196429D01*
X-57809524Y11196429D01*
X-57657143Y11196429D02*
X-57352381Y11196429D01*
X-57542858Y11463096D02*
X-57542858Y10777381D01*
X-57504762Y10701191D01*
X-57428572Y10663096D01*
X-57352381Y10663096D01*
X-56209524Y11082143D02*
X-56095239Y11044048D01*
X-56057143Y11005953D01*
X-56019048Y10929762D01*
X-56019048Y10815477D01*
X-56057143Y10739286D01*
X-56095239Y10701191D01*
X-56171429Y10663096D01*
X-56476191Y10663096D01*
X-56476191Y11463096D01*
X-56209524Y11463096D01*
X-56133334Y11425000D01*
X-56095239Y11386905D01*
X-56057143Y11310715D01*
X-56057143Y11234524D01*
X-56095239Y11158334D01*
X-56133334Y11120239D01*
X-56209524Y11082143D01*
X-56476191Y11082143D01*
X-48202381Y14763096D02*
X-48202381Y15563096D01*
X-47897620Y15563096D01*
X-47821429Y15525000D01*
X-47783334Y15486905D01*
X-47745239Y15410715D01*
X-47745239Y15296429D01*
X-47783334Y15220239D01*
X-47821429Y15182143D01*
X-47897620Y15144048D01*
X-48202381Y15144048D01*
X-47478572Y15563096D02*
X-47288096Y14763096D01*
X-47135715Y15334524D01*
X-46983334Y14763096D01*
X-46792858Y15563096D01*
X-46488096Y14763096D02*
X-46488096Y15563096D01*
X-46221429Y14991667D01*
X-45954762Y15563096D01*
X-45954762Y14763096D01*
X-45002381Y14991667D02*
X-44621429Y14991667D01*
X-45078572Y14763096D02*
X-44811905Y15563096D01*
X-44545239Y14763096D01*
X-43935715Y15296429D02*
X-43935715Y14763096D01*
X-44278572Y15296429D02*
X-44278572Y14877381D01*
X-44240477Y14801191D01*
X-44164286Y14763096D01*
X-44050000Y14763096D01*
X-43973810Y14801191D01*
X-43935715Y14839286D01*
X-43211905Y14763096D02*
X-43211905Y15563096D01*
X-43211905Y14801191D02*
X-43288096Y14763096D01*
X-43440477Y14763096D01*
X-43516667Y14801191D01*
X-43554762Y14839286D01*
X-43592858Y14915477D01*
X-43592858Y15144048D01*
X-43554762Y15220239D01*
X-43516667Y15258334D01*
X-43440477Y15296429D01*
X-43288096Y15296429D01*
X-43211905Y15258334D01*
X-42830953Y14763096D02*
X-42830953Y15296429D01*
X-42830953Y15563096D02*
X-42869048Y15525000D01*
X-42830953Y15486905D01*
X-42792858Y15525000D01*
X-42830953Y15563096D01*
X-42830953Y15486905D01*
X-42335715Y14763096D02*
X-42411905Y14801191D01*
X-42450001Y14839286D01*
X-42488096Y14915477D01*
X-42488096Y15144048D01*
X-42450001Y15220239D01*
X-42411905Y15258334D01*
X-42335715Y15296429D01*
X-42221429Y15296429D01*
X-42145239Y15258334D01*
X-42107143Y15220239D01*
X-42069048Y15144048D01*
X-42069048Y14915477D01*
X-42107143Y14839286D01*
X-42145239Y14801191D01*
X-42221429Y14763096D01*
X-42335715Y14763096D01*
X-46659524Y13832143D02*
X-46392858Y13832143D01*
X-46278572Y13413096D02*
X-46659524Y13413096D01*
X-46659524Y14213096D01*
X-46278572Y14213096D01*
X-45935715Y13946429D02*
X-45935715Y13413096D01*
X-45935715Y13870239D02*
X-45897620Y13908334D01*
X-45821429Y13946429D01*
X-45707143Y13946429D01*
X-45630953Y13908334D01*
X-45592858Y13832143D01*
X-45592858Y13413096D01*
X-44869048Y13413096D02*
X-44869048Y13832143D01*
X-44907143Y13908334D01*
X-44983334Y13946429D01*
X-45135715Y13946429D01*
X-45211905Y13908334D01*
X-44869048Y13451191D02*
X-44945239Y13413096D01*
X-45135715Y13413096D01*
X-45211905Y13451191D01*
X-45250000Y13527381D01*
X-45250000Y13603572D01*
X-45211905Y13679762D01*
X-45135715Y13717858D01*
X-44945239Y13717858D01*
X-44869048Y13755953D01*
X-44488096Y13413096D02*
X-44488096Y14213096D01*
X-44488096Y13908334D02*
X-44411905Y13946429D01*
X-44259524Y13946429D01*
X-44183334Y13908334D01*
X-44145239Y13870239D01*
X-44107143Y13794048D01*
X-44107143Y13565477D01*
X-44145239Y13489286D01*
X-44183334Y13451191D01*
X-44259524Y13413096D01*
X-44411905Y13413096D01*
X-44488096Y13451191D01*
X-43650000Y13413096D02*
X-43726191Y13451191D01*
X-43764286Y13527381D01*
X-43764286Y14213096D01*
X-43040477Y13451191D02*
X-43116667Y13413096D01*
X-43269048Y13413096D01*
X-43345239Y13451191D01*
X-43383334Y13527381D01*
X-43383334Y13832143D01*
X-43345239Y13908334D01*
X-43269048Y13946429D01*
X-43116667Y13946429D01*
X-43040477Y13908334D01*
X-43002381Y13832143D01*
X-43002381Y13755953D01*
X-43383334Y13679762D01*
X-45623810Y55782143D02*
X-45509524Y55744048D01*
X-45471429Y55705953D01*
X-45433334Y55629762D01*
X-45433334Y55515477D01*
X-45471429Y55439286D01*
X-45509524Y55401191D01*
X-45585715Y55363096D01*
X-45890477Y55363096D01*
X-45890477Y56163096D01*
X-45623810Y56163096D01*
X-45547620Y56125000D01*
X-45509524Y56086905D01*
X-45471429Y56010715D01*
X-45471429Y55934524D01*
X-45509524Y55858334D01*
X-45547620Y55820239D01*
X-45623810Y55782143D01*
X-45890477Y55782143D01*
X-44747620Y55363096D02*
X-44747620Y55782143D01*
X-44785715Y55858334D01*
X-44861905Y55896429D01*
X-45014286Y55896429D01*
X-45090477Y55858334D01*
X-44747620Y55401191D02*
X-44823810Y55363096D01*
X-45014286Y55363096D01*
X-45090477Y55401191D01*
X-45128572Y55477381D01*
X-45128572Y55553572D01*
X-45090477Y55629762D01*
X-45014286Y55667858D01*
X-44823810Y55667858D01*
X-44747620Y55705953D01*
X-44023810Y55401191D02*
X-44100000Y55363096D01*
X-44252381Y55363096D01*
X-44328572Y55401191D01*
X-44366667Y55439286D01*
X-44404762Y55515477D01*
X-44404762Y55744048D01*
X-44366667Y55820239D01*
X-44328572Y55858334D01*
X-44252381Y55896429D01*
X-44100000Y55896429D01*
X-44023810Y55858334D01*
X-43680953Y55363096D02*
X-43680953Y56163096D01*
X-43604762Y55667858D02*
X-43376191Y55363096D01*
X-43376191Y55896429D02*
X-43680953Y55591667D01*
X-42919048Y55363096D02*
X-42995239Y55401191D01*
X-43033334Y55477381D01*
X-43033334Y56163096D01*
X-42614286Y55363096D02*
X-42614286Y55896429D01*
X-42614286Y56163096D02*
X-42652381Y56125000D01*
X-42614286Y56086905D01*
X-42576191Y56125000D01*
X-42614286Y56163096D01*
X-42614286Y56086905D01*
X-41890477Y55896429D02*
X-41890477Y55248810D01*
X-41928572Y55172620D01*
X-41966667Y55134524D01*
X-42042858Y55096429D01*
X-42157143Y55096429D01*
X-42233334Y55134524D01*
X-41890477Y55401191D02*
X-41966667Y55363096D01*
X-42119048Y55363096D01*
X-42195239Y55401191D01*
X-42233334Y55439286D01*
X-42271429Y55515477D01*
X-42271429Y55744048D01*
X-42233334Y55820239D01*
X-42195239Y55858334D01*
X-42119048Y55896429D01*
X-41966667Y55896429D01*
X-41890477Y55858334D01*
X-41509524Y55363096D02*
X-41509524Y56163096D01*
X-41166667Y55363096D02*
X-41166667Y55782143D01*
X-41204762Y55858334D01*
X-41280953Y55896429D01*
X-41395239Y55896429D01*
X-41471429Y55858334D01*
X-41509524Y55820239D01*
X-40900001Y55896429D02*
X-40595239Y55896429D01*
X-40785715Y56163096D02*
X-40785715Y55477381D01*
X-40747620Y55401191D01*
X-40671429Y55363096D01*
X-40595239Y55363096D01*
X-45814286Y54775000D02*
X-45890477Y54813096D01*
X-46004762Y54813096D01*
X-46119048Y54775000D01*
X-46195239Y54698810D01*
X-46233334Y54622620D01*
X-46271429Y54470239D01*
X-46271429Y54355953D01*
X-46233334Y54203572D01*
X-46195239Y54127381D01*
X-46119048Y54051191D01*
X-46004762Y54013096D01*
X-45928572Y54013096D01*
X-45814286Y54051191D01*
X-45776191Y54089286D01*
X-45776191Y54355953D01*
X-45928572Y54355953D01*
X-45433334Y54013096D02*
X-45433334Y54813096D01*
X-45128572Y54813096D01*
X-45052381Y54775000D01*
X-45014286Y54736905D01*
X-44976191Y54660715D01*
X-44976191Y54546429D01*
X-45014286Y54470239D01*
X-45052381Y54432143D01*
X-45128572Y54394048D01*
X-45433334Y54394048D01*
X-44633334Y54013096D02*
X-44633334Y54813096D01*
X-44100000Y54813096D02*
X-43947620Y54813096D01*
X-43871429Y54775000D01*
X-43795239Y54698810D01*
X-43757143Y54546429D01*
X-43757143Y54279762D01*
X-43795239Y54127381D01*
X-43871429Y54051191D01*
X-43947620Y54013096D01*
X-44100000Y54013096D01*
X-44176191Y54051191D01*
X-44252381Y54127381D01*
X-44290477Y54279762D01*
X-44290477Y54546429D01*
X-44252381Y54698810D01*
X-44176191Y54775000D01*
X-44100000Y54813096D01*
X-43223810Y53746429D02*
X-43223810Y54889286D01*
X-42157143Y54813096D02*
X-41890477Y54013096D01*
X-41623810Y54813096D01*
X-41014286Y54051191D02*
X-41090477Y54013096D01*
X-41242858Y54013096D01*
X-41319048Y54051191D01*
X-41357143Y54089286D01*
X-41395239Y54165477D01*
X-41395239Y54394048D01*
X-41357143Y54470239D01*
X-41319048Y54508334D01*
X-41242858Y54546429D01*
X-41090477Y54546429D01*
X-41014286Y54508334D01*
X-40328572Y54051191D02*
X-40404762Y54013096D01*
X-40557143Y54013096D01*
X-40633334Y54051191D01*
X-40671429Y54089286D01*
X-40709524Y54165477D01*
X-40709524Y54394048D01*
X-40671429Y54470239D01*
X-40633334Y54508334D01*
X-40557143Y54546429D01*
X-40404762Y54546429D01*
X-40328572Y54508334D01*
X-93154881Y75663096D02*
X-93421548Y76044048D01*
X-93612024Y75663096D02*
X-93612024Y76463096D01*
X-93307262Y76463096D01*
X-93231072Y76425000D01*
X-93192977Y76386905D01*
X-93154881Y76310715D01*
X-93154881Y76196429D01*
X-93192977Y76120239D01*
X-93231072Y76082143D01*
X-93307262Y76044048D01*
X-93612024Y76044048D01*
X-92469167Y75663096D02*
X-92469167Y76082143D01*
X-92507262Y76158334D01*
X-92583453Y76196429D01*
X-92735834Y76196429D01*
X-92812024Y76158334D01*
X-92469167Y75701191D02*
X-92545358Y75663096D01*
X-92735834Y75663096D01*
X-92812024Y75701191D01*
X-92850120Y75777381D01*
X-92850120Y75853572D01*
X-92812024Y75929762D01*
X-92735834Y75967858D01*
X-92545358Y75967858D01*
X-92469167Y76005953D01*
X-92126310Y75701191D02*
X-92050120Y75663096D01*
X-91897739Y75663096D01*
X-91821548Y75701191D01*
X-91783453Y75777381D01*
X-91783453Y75815477D01*
X-91821548Y75891667D01*
X-91897739Y75929762D01*
X-92012024Y75929762D01*
X-92088215Y75967858D01*
X-92126310Y76044048D01*
X-92126310Y76082143D01*
X-92088215Y76158334D01*
X-92012024Y76196429D01*
X-91897739Y76196429D01*
X-91821548Y76158334D01*
X-91440596Y76196429D02*
X-91440596Y75396429D01*
X-91440596Y76158334D02*
X-91364405Y76196429D01*
X-91212024Y76196429D01*
X-91135834Y76158334D01*
X-91097739Y76120239D01*
X-91059643Y76044048D01*
X-91059643Y75815477D01*
X-91097739Y75739286D01*
X-91135834Y75701191D01*
X-91212024Y75663096D01*
X-91364405Y75663096D01*
X-91440596Y75701191D01*
X-90716786Y75663096D02*
X-90716786Y76463096D01*
X-90716786Y76158334D02*
X-90640596Y76196429D01*
X-90488215Y76196429D01*
X-90412024Y76158334D01*
X-90373929Y76120239D01*
X-90335834Y76044048D01*
X-90335834Y75815477D01*
X-90373929Y75739286D01*
X-90412024Y75701191D01*
X-90488215Y75663096D01*
X-90640596Y75663096D01*
X-90716786Y75701191D01*
X-89688215Y75701191D02*
X-89764405Y75663096D01*
X-89916786Y75663096D01*
X-89992977Y75701191D01*
X-90031072Y75777381D01*
X-90031072Y76082143D01*
X-89992977Y76158334D01*
X-89916786Y76196429D01*
X-89764405Y76196429D01*
X-89688215Y76158334D01*
X-89650120Y76082143D01*
X-89650120Y76005953D01*
X-90031072Y75929762D01*
X-89307262Y75663096D02*
X-89307262Y76196429D01*
X-89307262Y76044048D02*
X-89269167Y76120239D01*
X-89231072Y76158334D01*
X-89154881Y76196429D01*
X-89078691Y76196429D01*
X-88812024Y75663096D02*
X-88812024Y76196429D01*
X-88812024Y76044048D02*
X-88773929Y76120239D01*
X-88735834Y76158334D01*
X-88659643Y76196429D01*
X-88583453Y76196429D01*
X-88392977Y76196429D02*
X-88202500Y75663096D01*
X-88012024Y76196429D02*
X-88202500Y75663096D01*
X-88278691Y75472620D01*
X-88316786Y75434524D01*
X-88392977Y75396429D01*
X-87097739Y75663096D02*
X-87097739Y76463096D01*
X-86792977Y76463096D01*
X-86716786Y76425000D01*
X-86678691Y76386905D01*
X-86640596Y76310715D01*
X-86640596Y76196429D01*
X-86678691Y76120239D01*
X-86716786Y76082143D01*
X-86792977Y76044048D01*
X-87097739Y76044048D01*
X-86297739Y75663096D02*
X-86297739Y76196429D01*
X-86297739Y76463096D02*
X-86335834Y76425000D01*
X-86297739Y76386905D01*
X-86259643Y76425000D01*
X-86297739Y76463096D01*
X-86297739Y76386905D01*
X-85383453Y76463096D02*
X-84850120Y76463096D01*
X-85383453Y75663096D01*
X-84850120Y75663096D01*
X-84240596Y75701191D02*
X-84316786Y75663096D01*
X-84469167Y75663096D01*
X-84545358Y75701191D01*
X-84583453Y75777381D01*
X-84583453Y76082143D01*
X-84545358Y76158334D01*
X-84469167Y76196429D01*
X-84316786Y76196429D01*
X-84240596Y76158334D01*
X-84202500Y76082143D01*
X-84202500Y76005953D01*
X-84583453Y75929762D01*
X-83859643Y75663096D02*
X-83859643Y76196429D01*
X-83859643Y76044048D02*
X-83821548Y76120239D01*
X-83783453Y76158334D01*
X-83707262Y76196429D01*
X-83631072Y76196429D01*
X-83250120Y75663096D02*
X-83326310Y75701191D01*
X-83364405Y75739286D01*
X-83402500Y75815477D01*
X-83402500Y76044048D01*
X-83364405Y76120239D01*
X-83326310Y76158334D01*
X-83250120Y76196429D01*
X-83135834Y76196429D01*
X-83059643Y76158334D01*
X-83021548Y76120239D01*
X-82983453Y76044048D01*
X-82983453Y75815477D01*
X-83021548Y75739286D01*
X-83059643Y75701191D01*
X-83135834Y75663096D01*
X-83250120Y75663096D01*
X-81612024Y76425000D02*
X-81688215Y76463096D01*
X-81802500Y76463096D01*
X-81916786Y76425000D01*
X-81992977Y76348810D01*
X-82031072Y76272620D01*
X-82069167Y76120239D01*
X-82069167Y76005953D01*
X-82031072Y75853572D01*
X-81992977Y75777381D01*
X-81916786Y75701191D01*
X-81802500Y75663096D01*
X-81726310Y75663096D01*
X-81612024Y75701191D01*
X-81573929Y75739286D01*
X-81573929Y76005953D01*
X-81726310Y76005953D01*
X-80888215Y75663096D02*
X-80888215Y76082143D01*
X-80926310Y76158334D01*
X-81002500Y76196429D01*
X-81154881Y76196429D01*
X-81231072Y76158334D01*
X-80888215Y75701191D02*
X-80964405Y75663096D01*
X-81154881Y75663096D01*
X-81231072Y75701191D01*
X-81269167Y75777381D01*
X-81269167Y75853572D01*
X-81231072Y75929762D01*
X-81154881Y75967858D01*
X-80964405Y75967858D01*
X-80888215Y76005953D01*
X-80507262Y75663096D02*
X-80507262Y76196429D01*
X-80507262Y76120239D02*
X-80469167Y76158334D01*
X-80392977Y76196429D01*
X-80278691Y76196429D01*
X-80202500Y76158334D01*
X-80164405Y76082143D01*
X-80164405Y75663096D01*
X-80164405Y76082143D02*
X-80126310Y76158334D01*
X-80050120Y76196429D01*
X-79935834Y76196429D01*
X-79859643Y76158334D01*
X-79821548Y76082143D01*
X-79821548Y75663096D01*
X-79135834Y75701191D02*
X-79212024Y75663096D01*
X-79364405Y75663096D01*
X-79440596Y75701191D01*
X-79478691Y75777381D01*
X-79478691Y76082143D01*
X-79440596Y76158334D01*
X-79364405Y76196429D01*
X-79212024Y76196429D01*
X-79135834Y76158334D01*
X-79097739Y76082143D01*
X-79097739Y76005953D01*
X-79478691Y75929762D01*
X-78754881Y75663096D02*
X-78754881Y76463096D01*
X-78754881Y76158334D02*
X-78678691Y76196429D01*
X-78526310Y76196429D01*
X-78450120Y76158334D01*
X-78412024Y76120239D01*
X-78373929Y76044048D01*
X-78373929Y75815477D01*
X-78412024Y75739286D01*
X-78450120Y75701191D01*
X-78526310Y75663096D01*
X-78678691Y75663096D01*
X-78754881Y75701191D01*
X-77916786Y75663096D02*
X-77992977Y75701191D01*
X-78031072Y75739286D01*
X-78069167Y75815477D01*
X-78069167Y76044048D01*
X-78031072Y76120239D01*
X-77992977Y76158334D01*
X-77916786Y76196429D01*
X-77802500Y76196429D01*
X-77726310Y76158334D01*
X-77688215Y76120239D01*
X-77650120Y76044048D01*
X-77650120Y75815477D01*
X-77688215Y75739286D01*
X-77726310Y75701191D01*
X-77802500Y75663096D01*
X-77916786Y75663096D01*
X-77383453Y76196429D02*
X-77192977Y75663096D01*
X-77002500Y76196429D02*
X-77192977Y75663096D01*
X-77269167Y75472620D01*
X-77307262Y75434524D01*
X-77383453Y75396429D01*
X-76088215Y75663096D02*
X-76088215Y76463096D01*
X-75897739Y76463096D01*
X-75783453Y76425000D01*
X-75707262Y76348810D01*
X-75669167Y76272620D01*
X-75631072Y76120239D01*
X-75631072Y76005953D01*
X-75669167Y75853572D01*
X-75707262Y75777381D01*
X-75783453Y75701191D01*
X-75897739Y75663096D01*
X-76088215Y75663096D01*
X-75288215Y75663096D02*
X-75288215Y76463096D01*
X-75021548Y75891667D01*
X-74754881Y76463096D01*
X-74754881Y75663096D01*
X-73954881Y76425000D02*
X-74031072Y76463096D01*
X-74145358Y76463096D01*
X-74259643Y76425000D01*
X-74335834Y76348810D01*
X-74373929Y76272620D01*
X-74412024Y76120239D01*
X-74412024Y76005953D01*
X-74373929Y75853572D01*
X-74335834Y75777381D01*
X-74259643Y75701191D01*
X-74145358Y75663096D01*
X-74069167Y75663096D01*
X-73954881Y75701191D01*
X-73916786Y75739286D01*
X-73916786Y76005953D01*
X-74069167Y76005953D01*
X-73002500Y75701191D02*
X-72888215Y75663096D01*
X-72697739Y75663096D01*
X-72621548Y75701191D01*
X-72583453Y75739286D01*
X-72545358Y75815477D01*
X-72545358Y75891667D01*
X-72583453Y75967858D01*
X-72621548Y76005953D01*
X-72697739Y76044048D01*
X-72850120Y76082143D01*
X-72926310Y76120239D01*
X-72964405Y76158334D01*
X-73002500Y76234524D01*
X-73002500Y76310715D01*
X-72964405Y76386905D01*
X-72926310Y76425000D01*
X-72850120Y76463096D01*
X-72659643Y76463096D01*
X-72545358Y76425000D01*
X-72202500Y75663096D02*
X-72202500Y76463096D01*
X-71859643Y75663096D02*
X-71859643Y76082143D01*
X-71897739Y76158334D01*
X-71973929Y76196429D01*
X-72088215Y76196429D01*
X-72164405Y76158334D01*
X-72202500Y76120239D01*
X-71478691Y75663096D02*
X-71478691Y76196429D01*
X-71478691Y76463096D02*
X-71516786Y76425000D01*
X-71478691Y76386905D01*
X-71440596Y76425000D01*
X-71478691Y76463096D01*
X-71478691Y76386905D01*
X-70792977Y75701191D02*
X-70869167Y75663096D01*
X-71021548Y75663096D01*
X-71097739Y75701191D01*
X-71135834Y75777381D01*
X-71135834Y76082143D01*
X-71097739Y76158334D01*
X-71021548Y76196429D01*
X-70869167Y76196429D01*
X-70792977Y76158334D01*
X-70754881Y76082143D01*
X-70754881Y76005953D01*
X-71135834Y75929762D01*
X-70297739Y75663096D02*
X-70373929Y75701191D01*
X-70412024Y75777381D01*
X-70412024Y76463096D01*
X-69650120Y75663096D02*
X-69650120Y76463096D01*
X-69650120Y75701191D02*
X-69726310Y75663096D01*
X-69878691Y75663096D01*
X-69954881Y75701191D01*
X-69992977Y75739286D01*
X-70031072Y75815477D01*
X-70031072Y76044048D01*
X-69992977Y76120239D01*
X-69954881Y76158334D01*
X-69878691Y76196429D01*
X-69726310Y76196429D01*
X-69650120Y76158334D01*
X-89954881Y74313096D02*
X-89954881Y75113096D01*
X-89954881Y74808334D02*
X-89878691Y74846429D01*
X-89726310Y74846429D01*
X-89650120Y74808334D01*
X-89612024Y74770239D01*
X-89573929Y74694048D01*
X-89573929Y74465477D01*
X-89612024Y74389286D01*
X-89650120Y74351191D01*
X-89726310Y74313096D01*
X-89878691Y74313096D01*
X-89954881Y74351191D01*
X-89307262Y74846429D02*
X-89116786Y74313096D01*
X-88926310Y74846429D02*
X-89116786Y74313096D01*
X-89192977Y74122620D01*
X-89231072Y74084524D01*
X-89307262Y74046429D01*
X-88050120Y74541667D02*
X-87669167Y74541667D01*
X-88126310Y74313096D02*
X-87859643Y75113096D01*
X-87592977Y74313096D01*
X-87212024Y74313096D02*
X-87288215Y74351191D01*
X-87326310Y74427381D01*
X-87326310Y75113096D01*
X-86602500Y74351191D02*
X-86678691Y74313096D01*
X-86831072Y74313096D01*
X-86907262Y74351191D01*
X-86945358Y74427381D01*
X-86945358Y74732143D01*
X-86907262Y74808334D01*
X-86831072Y74846429D01*
X-86678691Y74846429D01*
X-86602500Y74808334D01*
X-86564405Y74732143D01*
X-86564405Y74655953D01*
X-86945358Y74579762D01*
X-86297739Y74313096D02*
X-85878691Y74846429D01*
X-86297739Y74846429D02*
X-85878691Y74313096D01*
X-84964405Y74313096D02*
X-84964405Y75113096D01*
X-84964405Y74732143D02*
X-84507262Y74732143D01*
X-84507262Y74313096D02*
X-84507262Y75113096D01*
X-84012024Y74313096D02*
X-84088215Y74351191D01*
X-84126310Y74389286D01*
X-84164405Y74465477D01*
X-84164405Y74694048D01*
X-84126310Y74770239D01*
X-84088215Y74808334D01*
X-84012024Y74846429D01*
X-83897739Y74846429D01*
X-83821548Y74808334D01*
X-83783453Y74770239D01*
X-83745358Y74694048D01*
X-83745358Y74465477D01*
X-83783453Y74389286D01*
X-83821548Y74351191D01*
X-83897739Y74313096D01*
X-84012024Y74313096D01*
X-83516786Y74846429D02*
X-83212024Y74846429D01*
X-83402500Y74313096D02*
X-83402500Y74998810D01*
X-83364405Y75075000D01*
X-83288215Y75113096D01*
X-83212024Y75113096D01*
X-83059643Y74846429D02*
X-82754881Y74846429D01*
X-82945358Y74313096D02*
X-82945358Y74998810D01*
X-82907262Y75075000D01*
X-82831072Y75113096D01*
X-82754881Y75113096D01*
X-82488215Y74313096D02*
X-82488215Y74846429D01*
X-82488215Y74770239D02*
X-82450120Y74808334D01*
X-82373929Y74846429D01*
X-82259643Y74846429D01*
X-82183453Y74808334D01*
X-82145358Y74732143D01*
X-82145358Y74313096D01*
X-82145358Y74732143D02*
X-82107262Y74808334D01*
X-82031072Y74846429D01*
X-81916786Y74846429D01*
X-81840596Y74808334D01*
X-81802500Y74732143D01*
X-81802500Y74313096D01*
X-81078691Y74313096D02*
X-81078691Y74732143D01*
X-81116786Y74808334D01*
X-81192977Y74846429D01*
X-81345358Y74846429D01*
X-81421548Y74808334D01*
X-81078691Y74351191D02*
X-81154881Y74313096D01*
X-81345358Y74313096D01*
X-81421548Y74351191D01*
X-81459643Y74427381D01*
X-81459643Y74503572D01*
X-81421548Y74579762D01*
X-81345358Y74617858D01*
X-81154881Y74617858D01*
X-81078691Y74655953D01*
X-80697739Y74846429D02*
X-80697739Y74313096D01*
X-80697739Y74770239D02*
X-80659643Y74808334D01*
X-80583453Y74846429D01*
X-80469167Y74846429D01*
X-80392977Y74808334D01*
X-80354881Y74732143D01*
X-80354881Y74313096D01*
D14*
X-95899999Y78600000D02*
G75*
G02X-94919759Y79600359I988600J11724D01*
G01*
D13*
X-16815946Y11251713D02*
X-16682613Y11020772D01*
X-16988376Y10712274D02*
X-17178852Y11042189D01*
X-16486032Y11442189D01*
X-16295556Y11112274D01*
X-16162222Y10881334D02*
X-16588376Y10019454D01*
X-15895556Y10419454D02*
X-16855043Y10481334D01*
X-15800318Y10254497D02*
X-15571746Y9858599D01*
X-16378852Y9656548D02*
X-15686032Y10056548D01*
X-15902662Y8831762D02*
X-15706081Y9253178D01*
X-16131233Y9227659D02*
X-15438413Y9627659D01*
X-15286032Y9363728D01*
X-15280928Y9278697D01*
X-15294872Y9226658D01*
X-15341807Y9155572D01*
X-15440782Y9098429D01*
X-15525812Y9093325D01*
X-15577851Y9107269D01*
X-15648938Y9154204D01*
X-15801319Y9418136D01*
X-15552332Y8682116D02*
X-15361856Y8352202D01*
X-15788376Y8633813D02*
X-14962222Y8802873D01*
X-15521709Y8171933D01*
X-18280318Y11088080D02*
X-18256167Y10970058D01*
X-18270111Y10918019D01*
X-18317046Y10846932D01*
X-18416020Y10789789D01*
X-18501051Y10784686D01*
X-18553090Y10798629D01*
X-18624177Y10845565D01*
X-18776558Y11109496D01*
X-18083737Y11509496D01*
X-17950404Y11278556D01*
X-17945300Y11193526D01*
X-17959244Y11141487D01*
X-18006179Y11070400D01*
X-18072162Y11032305D01*
X-18157193Y11027201D01*
X-18209232Y11041145D01*
X-18280318Y11088080D01*
X-18413652Y11319020D01*
X-17683737Y10816676D02*
X-18244592Y10492866D01*
X-18291527Y10421780D01*
X-18305471Y10369741D01*
X-18300367Y10284710D01*
X-18224177Y10152744D01*
X-18153090Y10105809D01*
X-18101051Y10091865D01*
X-18016020Y10096969D01*
X-17455166Y10420779D01*
X-17321833Y10189838D02*
X-17093261Y9793941D01*
X-17900367Y9591890D02*
X-17207547Y9991890D01*
X-17017071Y9661975D02*
X-16788499Y9266078D01*
X-17595605Y9064027D02*
X-16902785Y9464027D01*
X-16578975Y8903172D02*
X-16502785Y8771206D01*
X-16497681Y8686176D01*
X-16525569Y8582098D01*
X-16638487Y8472916D01*
X-16869427Y8339583D01*
X-17020440Y8296383D01*
X-17124519Y8324271D01*
X-17195605Y8371206D01*
X-17271796Y8503172D01*
X-17276900Y8588203D01*
X-17249012Y8692281D01*
X-17136094Y8801463D01*
X-16905154Y8934796D01*
X-16754140Y8977995D01*
X-16650062Y8950107D01*
X-16578975Y8903172D01*
X-16928939Y7909326D02*
X-16236118Y8309326D01*
X-16700367Y7513429D01*
X-16007547Y7913429D01*
X-15855166Y7649497D02*
X-15588499Y7187617D01*
X-16547986Y7249497D01*
X-16281320Y6787617D01*
D14*
X-90150000Y-60050000D02*
G75*
G02X-95900000Y-54300000I0J5750000D01*
G01*
X-46200000Y-44600000D02*
X-46200000Y-57900000D01*
X-48028302Y-60050000D02*
X-90150000Y-60050000D01*
X-46200000Y-57900000D02*
G75*
G02X-48028302Y-60050000I-2178302J0D01*
G01*
X-95900000Y78600000D02*
X-95900000Y-54300000D01*
X-38400000Y79600000D02*
X-94919759Y79600359D01*
X-33800000Y-32200000D02*
X-21500030Y-32200000D01*
X-13400000Y-24102438D02*
G75*
G02X-21500030Y-32200000I-8000030J-97562D01*
G01*
X-46200000Y-44600000D02*
G75*
G02X-33800000Y-32200000I12400000J0D01*
G01*
X-13400000Y75619759D02*
X-13400000Y-24100000D01*
D10*
X-25440000Y12900000D02*
X-25440000Y15825000D01*
X-25440000Y12900000D02*
X-25440000Y11400000D01*
X-28660000Y12900000D02*
X-28660000Y14400000D01*
X-28660000Y12900000D02*
X-28660000Y11400000D01*
D13*
X-43050000Y50250000D02*
X-43050000Y32500000D01*
X-25050000Y50250000D02*
X-25050000Y32500000D01*
X-85050000Y50300000D02*
X-85050000Y32550000D01*
X-27550000Y50250000D02*
X-27550000Y33950000D01*
X-82550000Y50300000D02*
X-82550000Y34200000D01*
X-20550000Y50250000D02*
X-20550000Y32500000D01*
X-89550000Y50300000D02*
X-89550000Y32550000D01*
X-94050000Y50300000D02*
X-94050000Y32550000D01*
X-16050000Y50250000D02*
X-16050000Y32500000D01*
D10*
X-28110000Y61610000D02*
X-27000000Y61610000D01*
X-28110000Y60850000D02*
X-28110000Y61610000D01*
X-26436529Y60090000D02*
X-25890000Y60090000D01*
X-28110000Y60090000D02*
X-27563471Y60090000D01*
X-25890000Y60090000D02*
X-25890000Y56345000D01*
X-28110000Y60090000D02*
X-28110000Y56345000D01*
X-26692470Y56345000D02*
X-25890000Y56345000D01*
X-28110000Y56345000D02*
X-27307530Y56345000D01*
X-86665000Y47300000D02*
X-86665000Y49585000D01*
X-86665000Y49585000D02*
X-88135000Y49585000D01*
X-88135000Y49585000D02*
X-88135000Y47300000D01*
X-57000279Y-54460000D02*
X-56674721Y-54460000D01*
X-57000279Y-53440000D02*
X-56674721Y-53440000D01*
D17*
X-62250000Y-40490000D02*
X-67540000Y-43140000D01*
X-66110000Y-34880000D02*
X-71400000Y-37530000D01*
X-61382179Y-35730944D02*
G75*
G02X-62192088Y-40467392I-2797821J-1959056D01*
G01*
X-66129056Y-34902179D02*
G75*
G02X-61392608Y-35712088I1959056J-2797821D01*
G01*
X-67450944Y-43087821D02*
G75*
G02X-72187392Y-42277912I-1959056J2797821D01*
G01*
X-72197821Y-42259056D02*
G75*
G02X-71387912Y-37522608I2797821J1959056D01*
G01*
D18*
X-61885162Y-37638808D02*
G75*
G03X-61885162Y-37638808I-2300001J0D01*
G01*
D10*
X-30400000Y6750000D02*
G75*
G02X-29700000Y6050000I0J-700000D01*
G01*
X-29700000Y5450000D02*
G75*
G02X-30400000Y4750000I-700000J0D01*
G01*
X-31800000Y4750000D02*
G75*
G02X-32500000Y5450000I0J700000D01*
G01*
X-32500000Y6050000D02*
G75*
G02X-31800000Y6750000I700000J0D01*
G01*
X-32500000Y5450000D02*
X-32500000Y6050000D01*
X-30400000Y4750000D02*
X-31800000Y4750000D01*
X-29700000Y6050000D02*
X-29700000Y5450000D01*
X-31800000Y6750000D02*
X-30400000Y6750000D01*
X-53524721Y-45910000D02*
X-53850279Y-45910000D01*
X-53524721Y-44890000D02*
X-53850279Y-44890000D01*
X-53524721Y-48860000D02*
X-53850279Y-48860000D01*
X-53524721Y-47840000D02*
X-53850279Y-47840000D01*
X-27540000Y20937221D02*
X-27540000Y21262779D01*
X-28560000Y20937221D02*
X-28560000Y21262779D01*
X-30400000Y7350000D02*
X-31800000Y7350000D01*
X-32500000Y8050000D02*
X-32500000Y8650000D01*
X-31800000Y9350000D02*
X-30400000Y9350000D01*
X-29700000Y8650000D02*
X-29700000Y8050000D01*
X-29700000Y8050000D02*
G75*
G02X-30400000Y7350000I-700000J0D01*
G01*
X-30400000Y9350000D02*
G75*
G02X-29700000Y8650000I0J-700000D01*
G01*
X-32500000Y8650000D02*
G75*
G02X-31800000Y9350000I700000J0D01*
G01*
X-31800000Y7350000D02*
G75*
G02X-32500000Y8050000I0J700000D01*
G01*
X-27960000Y8025279D02*
X-27960000Y7699721D01*
X-26940000Y8025279D02*
X-26940000Y7699721D01*
X-28500000Y32100000D02*
X-29900000Y32100000D01*
X-30600000Y32800000D02*
X-30600000Y33400000D01*
X-29900000Y34100000D02*
X-28500000Y34100000D01*
X-27800000Y33400000D02*
X-27800000Y32800000D01*
X-27800000Y32800000D02*
G75*
G02X-28500000Y32100000I-700000J0D01*
G01*
X-28500000Y34100000D02*
G75*
G02X-27800000Y33400000I0J-700000D01*
G01*
X-30600000Y33400000D02*
G75*
G02X-29900000Y34100000I700000J0D01*
G01*
X-29900000Y32100000D02*
G75*
G02X-30600000Y32800000I0J700000D01*
G01*
X-25540000Y21275279D02*
X-25540000Y20949721D01*
X-26560000Y21275279D02*
X-26560000Y20949721D01*
X-26560000Y17587221D02*
X-26560000Y17912779D01*
X-25540000Y17587221D02*
X-25540000Y17912779D01*
X-27540000Y17912779D02*
X-27540000Y17587221D01*
X-28560000Y17912779D02*
X-28560000Y17587221D01*
X-29840000Y11087221D02*
X-29840000Y11412779D01*
X-30860000Y11087221D02*
X-30860000Y11412779D01*
X-87860000Y43899721D02*
X-87860000Y44225279D01*
X-86840000Y43899721D02*
X-86840000Y44225279D01*
X-61300000Y-55600000D02*
X-60850000Y-55600000D01*
X-61300000Y-57450000D02*
X-61300000Y-55600000D01*
X-53500000Y-60000000D02*
X-53500000Y-59750000D01*
X-61300000Y-60000000D02*
X-61300000Y-59750000D01*
X-53500000Y-57450000D02*
X-53500000Y-55600000D01*
X-53500000Y-55600000D02*
X-53950000Y-55600000D01*
X-59100000Y-55050000D02*
X-58650000Y-55050000D01*
X-59100000Y-55050000D02*
X-59100000Y-55500000D01*
X-72750000Y-44975000D02*
X-72750000Y-48275000D01*
X-72750000Y-48275000D02*
X-67350000Y-48275000D01*
X-72750000Y-44975000D02*
X-67350000Y-44975000D01*
X-50640000Y-29715000D02*
X-48825000Y-29715000D01*
X-50640000Y-29960000D02*
X-50640000Y-29715000D01*
X-54500000Y-29960000D02*
X-50640000Y-29960000D01*
X-58360000Y-29960000D02*
X-58360000Y-29715000D01*
X-54500000Y-29960000D02*
X-58360000Y-29960000D01*
X-50640000Y-11840000D02*
X-50640000Y-12085000D01*
X-54500000Y-11840000D02*
X-50640000Y-11840000D01*
X-58360000Y-11840000D02*
X-58360000Y-12085000D01*
X-54500000Y-11840000D02*
X-58360000Y-11840000D01*
X-46000000Y9350000D02*
X-46000000Y7950000D01*
X-46700000Y7250000D02*
X-47300000Y7250000D01*
X-48000000Y7950000D02*
X-48000000Y9350000D01*
X-47300000Y10050000D02*
X-46700000Y10050000D01*
X-46700000Y10050000D02*
G75*
G02X-46000000Y9350000I0J-700000D01*
G01*
X-48000000Y9350000D02*
G75*
G02X-47300000Y10050000I700000J0D01*
G01*
X-47300000Y7250000D02*
G75*
G02X-48000000Y7950000I0J700000D01*
G01*
X-46000000Y7950000D02*
G75*
G02X-46700000Y7250000I-700000J0D01*
G01*
X-48700000Y9350000D02*
X-48700000Y7950000D01*
X-49400000Y7250000D02*
X-50000000Y7250000D01*
X-50700000Y7950000D02*
X-50700000Y9350000D01*
X-50000000Y10050000D02*
X-49400000Y10050000D01*
X-49400000Y10050000D02*
G75*
G02X-48700000Y9350000I0J-700000D01*
G01*
X-50700000Y9350000D02*
G75*
G02X-50000000Y10050000I700000J0D01*
G01*
X-50000000Y7250000D02*
G75*
G02X-50700000Y7950000I0J700000D01*
G01*
X-48700000Y7950000D02*
G75*
G02X-49400000Y7250000I-700000J0D01*
G01*
X-57600000Y9250000D02*
X-57600000Y7850000D01*
X-58300000Y7150000D02*
X-58900000Y7150000D01*
X-59600000Y7850000D02*
X-59600000Y9250000D01*
X-58900000Y9950000D02*
X-58300000Y9950000D01*
X-58300000Y9950000D02*
G75*
G02X-57600000Y9250000I0J-700000D01*
G01*
X-59600000Y9250000D02*
G75*
G02X-58900000Y9950000I700000J0D01*
G01*
X-58900000Y7150000D02*
G75*
G02X-59600000Y7850000I0J700000D01*
G01*
X-57600000Y7850000D02*
G75*
G02X-58300000Y7150000I-700000J0D01*
G01*
X-60450000Y9250000D02*
X-60450000Y7850000D01*
X-61150000Y7150000D02*
X-61750000Y7150000D01*
X-62450000Y7850000D02*
X-62450000Y9250000D01*
X-61750000Y9950000D02*
X-61150000Y9950000D01*
X-61150000Y9950000D02*
G75*
G02X-60450000Y9250000I0J-700000D01*
G01*
X-62450000Y9250000D02*
G75*
G02X-61750000Y9950000I700000J0D01*
G01*
X-61750000Y7150000D02*
G75*
G02X-62450000Y7850000I0J700000D01*
G01*
X-60450000Y7850000D02*
G75*
G02X-61150000Y7150000I-700000J0D01*
G01*
X-81115000Y-54262221D02*
X-81115000Y-54587779D01*
X-82135000Y-54262221D02*
X-82135000Y-54587779D01*
X-70747936Y-51935000D02*
X-71952064Y-51935000D01*
X-70747936Y-49215000D02*
X-71952064Y-49215000D01*
X-80660000Y-46822936D02*
X-80660000Y-48027064D01*
X-77940000Y-46822936D02*
X-77940000Y-48027064D01*
X-73650000Y-53225000D02*
G75*
G02X-72950000Y-53925000I0J-700000D01*
G01*
X-72950000Y-54525000D02*
G75*
G02X-73650000Y-55225000I-700000J0D01*
G01*
X-75050000Y-55225000D02*
G75*
G02X-75750000Y-54525000I0J700000D01*
G01*
X-75750000Y-53925000D02*
G75*
G02X-75050000Y-53225000I700000J0D01*
G01*
X-75750000Y-54525000D02*
X-75750000Y-53925000D01*
X-73650000Y-55225000D02*
X-75050000Y-55225000D01*
X-72950000Y-53925000D02*
X-72950000Y-54525000D01*
X-75050000Y-53225000D02*
X-73650000Y-53225000D01*
X-73650000Y-58100000D02*
X-75050000Y-58100000D01*
X-75750000Y-57400000D02*
X-75750000Y-56800000D01*
X-75050000Y-56100000D02*
X-73650000Y-56100000D01*
X-72950000Y-56800000D02*
X-72950000Y-57400000D01*
X-72950000Y-57400000D02*
G75*
G02X-73650000Y-58100000I-700000J0D01*
G01*
X-73650000Y-56100000D02*
G75*
G02X-72950000Y-56800000I0J-700000D01*
G01*
X-75750000Y-56800000D02*
G75*
G02X-75050000Y-56100000I700000J0D01*
G01*
X-75050000Y-58100000D02*
G75*
G02X-75750000Y-57400000I0J700000D01*
G01*
X-59350000Y-44600000D02*
X-57050000Y-44600000D01*
X-57050000Y-44600000D02*
X-57050000Y-52000000D01*
X-57050000Y-52000000D02*
X-59350000Y-52000000D01*
X-62150000Y-52000000D02*
X-64450000Y-52000000D01*
X-64450000Y-52000000D02*
X-64450000Y-44600000D01*
X-64450000Y-44600000D02*
X-62150000Y-44600000D01*
X-70940000Y-55162221D02*
X-70940000Y-55487779D01*
X-71960000Y-55162221D02*
X-71960000Y-55487779D01*
X-78012221Y-51665000D02*
X-78337779Y-51665000D01*
X-78012221Y-52685000D02*
X-78337779Y-52685000D01*
X-86237221Y-58335000D02*
X-86562779Y-58335000D01*
X-86237221Y-57315000D02*
X-86562779Y-57315000D01*
X-76012779Y-45265000D02*
X-75687221Y-45265000D01*
X-76012779Y-46285000D02*
X-75687221Y-46285000D01*
X-75637221Y-48440000D02*
X-75962779Y-48440000D01*
X-75637221Y-49460000D02*
X-75962779Y-49460000D01*
X-66375000Y-58610000D02*
X-64425000Y-58610000D01*
X-66375000Y-58610000D02*
X-68325000Y-58610000D01*
X-66375000Y-53490000D02*
X-64425000Y-53490000D01*
X-66375000Y-53490000D02*
X-69825000Y-53490000D01*
X-86235000Y-53925000D02*
X-86235000Y-56375000D01*
X-83015000Y-55725000D02*
X-83015000Y-53925000D01*
X-90310000Y-53925000D02*
X-90310000Y-55725000D01*
X-87090000Y-55725000D02*
X-87090000Y-53275000D01*
X-68335000Y-49875000D02*
X-68335000Y-51675000D01*
X-65115000Y-51675000D02*
X-65115000Y-49225000D01*
X-87180000Y-51705000D02*
X-87180000Y-49045000D01*
X-89780000Y-51705000D02*
X-87180000Y-51705000D01*
X-89780000Y-49045000D02*
X-87180000Y-49045000D01*
X-89780000Y-51705000D02*
X-89780000Y-49045000D01*
X-91050000Y-51705000D02*
X-92380000Y-51705000D01*
X-92380000Y-51705000D02*
X-92380000Y-50375000D01*
X-21420000Y14460000D02*
X-24080000Y14460000D01*
X-21420000Y-3380000D02*
X-21420000Y14460000D01*
X-24080000Y-3380000D02*
X-24080000Y14460000D01*
X-21420000Y-3380000D02*
X-24080000Y-3380000D01*
X-21420000Y-4650000D02*
X-21420000Y-5980000D01*
X-21420000Y-5980000D02*
X-22750000Y-5980000D01*
X-33674721Y14890000D02*
X-34000279Y14890000D01*
X-33674721Y15910000D02*
X-34000279Y15910000D01*
X-31380000Y19750000D02*
G75*
G03X-31380000Y19750000I-2620000J0D01*
G01*
X-35040000Y19750000D02*
X-36580000Y19750000D01*
X-31420000Y19750000D02*
X-32960000Y19750000D01*
X-35040000Y19710000D02*
X-36580000Y19710000D01*
X-31420000Y19710000D02*
X-32960000Y19710000D01*
X-31421000Y19670000D02*
X-32960000Y19670000D01*
X-35040000Y19670000D02*
X-36579000Y19670000D01*
X-31422000Y19630000D02*
X-32960000Y19630000D01*
X-35040000Y19630000D02*
X-36578000Y19630000D01*
X-31424000Y19590000D02*
X-32960000Y19590000D01*
X-35040000Y19590000D02*
X-36576000Y19590000D01*
X-31427000Y19550000D02*
X-32960000Y19550000D01*
X-35040000Y19550000D02*
X-36573000Y19550000D01*
X-31431000Y19510000D02*
X-32960000Y19510000D01*
X-35040000Y19510000D02*
X-36569000Y19510000D01*
X-31435000Y19470000D02*
X-32960000Y19470000D01*
X-35040000Y19470000D02*
X-36565000Y19470000D01*
X-31439000Y19430000D02*
X-32960000Y19430000D01*
X-35040000Y19430000D02*
X-36561000Y19430000D01*
X-31444000Y19390000D02*
X-32960000Y19390000D01*
X-35040000Y19390000D02*
X-36556000Y19390000D01*
X-31450000Y19350000D02*
X-32960000Y19350000D01*
X-35040000Y19350000D02*
X-36550000Y19350000D01*
X-31457000Y19310000D02*
X-32960000Y19310000D01*
X-35040000Y19310000D02*
X-36543000Y19310000D01*
X-31464000Y19270000D02*
X-32960000Y19270000D01*
X-35040000Y19270000D02*
X-36536000Y19270000D01*
X-31472000Y19230000D02*
X-32960000Y19230000D01*
X-35040000Y19230000D02*
X-36528000Y19230000D01*
X-31480000Y19190000D02*
X-32960000Y19190000D01*
X-35040000Y19190000D02*
X-36520000Y19190000D01*
X-31489000Y19150000D02*
X-32960000Y19150000D01*
X-35040000Y19150000D02*
X-36511000Y19150000D01*
X-31499000Y19110000D02*
X-32960000Y19110000D01*
X-35040000Y19110000D02*
X-36501000Y19110000D01*
X-31509000Y19070000D02*
X-32960000Y19070000D01*
X-35040000Y19070000D02*
X-36491000Y19070000D01*
X-31520000Y19029000D02*
X-32960000Y19029000D01*
X-35040000Y19029000D02*
X-36480000Y19029000D01*
X-31532000Y18989000D02*
X-32960000Y18989000D01*
X-35040000Y18989000D02*
X-36468000Y18989000D01*
X-31545000Y18949000D02*
X-32960000Y18949000D01*
X-35040000Y18949000D02*
X-36455000Y18949000D01*
X-31558000Y18909000D02*
X-32960000Y18909000D01*
X-35040000Y18909000D02*
X-36442000Y18909000D01*
X-31572000Y18869000D02*
X-32960000Y18869000D01*
X-35040000Y18869000D02*
X-36428000Y18869000D01*
X-31586000Y18829000D02*
X-32960000Y18829000D01*
X-35040000Y18829000D02*
X-36414000Y18829000D01*
X-31602000Y18789000D02*
X-32960000Y18789000D01*
X-35040000Y18789000D02*
X-36398000Y18789000D01*
X-31618000Y18749000D02*
X-32960000Y18749000D01*
X-35040000Y18749000D02*
X-36382000Y18749000D01*
X-31635000Y18709000D02*
X-32960000Y18709000D01*
X-35040000Y18709000D02*
X-36365000Y18709000D01*
X-31652000Y18669000D02*
X-32960000Y18669000D01*
X-35040000Y18669000D02*
X-36348000Y18669000D01*
X-31671000Y18629000D02*
X-32960000Y18629000D01*
X-35040000Y18629000D02*
X-36329000Y18629000D01*
X-31690000Y18589000D02*
X-32960000Y18589000D01*
X-35040000Y18589000D02*
X-36310000Y18589000D01*
X-31710000Y18549000D02*
X-32960000Y18549000D01*
X-35040000Y18549000D02*
X-36290000Y18549000D01*
X-31732000Y18509000D02*
X-32960000Y18509000D01*
X-35040000Y18509000D02*
X-36268000Y18509000D01*
X-31753000Y18469000D02*
X-32960000Y18469000D01*
X-35040000Y18469000D02*
X-36247000Y18469000D01*
X-31776000Y18429000D02*
X-32960000Y18429000D01*
X-35040000Y18429000D02*
X-36224000Y18429000D01*
X-31800000Y18389000D02*
X-32960000Y18389000D01*
X-35040000Y18389000D02*
X-36200000Y18389000D01*
X-31825000Y18349000D02*
X-32960000Y18349000D01*
X-35040000Y18349000D02*
X-36175000Y18349000D01*
X-31851000Y18309000D02*
X-32960000Y18309000D01*
X-35040000Y18309000D02*
X-36149000Y18309000D01*
X-31878000Y18269000D02*
X-32960000Y18269000D01*
X-35040000Y18269000D02*
X-36122000Y18269000D01*
X-31905000Y18229000D02*
X-32960000Y18229000D01*
X-35040000Y18229000D02*
X-36095000Y18229000D01*
X-31935000Y18189000D02*
X-32960000Y18189000D01*
X-35040000Y18189000D02*
X-36065000Y18189000D01*
X-31965000Y18149000D02*
X-32960000Y18149000D01*
X-35040000Y18149000D02*
X-36035000Y18149000D01*
X-31996000Y18109000D02*
X-32960000Y18109000D01*
X-35040000Y18109000D02*
X-36004000Y18109000D01*
X-32029000Y18069000D02*
X-32960000Y18069000D01*
X-35040000Y18069000D02*
X-35971000Y18069000D01*
X-32063000Y18029000D02*
X-32960000Y18029000D01*
X-35040000Y18029000D02*
X-35937000Y18029000D01*
X-32099000Y17989000D02*
X-32960000Y17989000D01*
X-35040000Y17989000D02*
X-35901000Y17989000D01*
X-32136000Y17949000D02*
X-32960000Y17949000D01*
X-35040000Y17949000D02*
X-35864000Y17949000D01*
X-32174000Y17909000D02*
X-32960000Y17909000D01*
X-35040000Y17909000D02*
X-35826000Y17909000D01*
X-32215000Y17869000D02*
X-32960000Y17869000D01*
X-35040000Y17869000D02*
X-35785000Y17869000D01*
X-32257000Y17829000D02*
X-32960000Y17829000D01*
X-35040000Y17829000D02*
X-35743000Y17829000D01*
X-32301000Y17789000D02*
X-32960000Y17789000D01*
X-35040000Y17789000D02*
X-35699000Y17789000D01*
X-32347000Y17749000D02*
X-32960000Y17749000D01*
X-35040000Y17749000D02*
X-35653000Y17749000D01*
X-32395000Y17709000D02*
X-35605000Y17709000D01*
X-32446000Y17669000D02*
X-35554000Y17669000D01*
X-32500000Y17629000D02*
X-35500000Y17629000D01*
X-32557000Y17589000D02*
X-35443000Y17589000D01*
X-32617000Y17549000D02*
X-35383000Y17549000D01*
X-32681000Y17509000D02*
X-35319000Y17509000D01*
X-32749000Y17469000D02*
X-35251000Y17469000D01*
X-32822000Y17429000D02*
X-35178000Y17429000D01*
X-32902000Y17389000D02*
X-35098000Y17389000D01*
X-32989000Y17349000D02*
X-35011000Y17349000D01*
X-33085000Y17309000D02*
X-34915000Y17309000D01*
X-33195000Y17269000D02*
X-34805000Y17269000D01*
X-33323000Y17229000D02*
X-34677000Y17229000D01*
X-33482000Y17189000D02*
X-34518000Y17189000D01*
X-33716000Y17149000D02*
X-34284000Y17149000D01*
X-32525000Y22554775D02*
X-32525000Y22054775D01*
X-32275000Y22304775D02*
X-32775000Y22304775D01*
X-25400000Y67400000D02*
G75*
G02X-24700000Y66700000I0J-700000D01*
G01*
X-24700000Y66100000D02*
G75*
G02X-25400000Y65400000I-700000J0D01*
G01*
X-26800000Y65400000D02*
G75*
G02X-27500000Y66100000I0J700000D01*
G01*
X-27500000Y66700000D02*
G75*
G02X-26800000Y67400000I700000J0D01*
G01*
X-27500000Y66100000D02*
X-27500000Y66700000D01*
X-25400000Y65400000D02*
X-26800000Y65400000D01*
X-24700000Y66700000D02*
X-24700000Y66100000D01*
X-26800000Y67400000D02*
X-25400000Y67400000D01*
X-33687221Y14210000D02*
X-34012779Y14210000D01*
X-33687221Y13190000D02*
X-34012779Y13190000D01*
X-30424721Y14890000D02*
X-30750279Y14890000D01*
X-30424721Y15910000D02*
X-30750279Y15910000D01*
D17*
X-18200000Y-12600000D02*
G75*
G03X-18200000Y-12600000I-4000000J0D01*
G01*
X-32700000Y-19400000D02*
G75*
G03X-32700000Y-19400000I-4000000J0D01*
G01*
X-76700000Y-26500000D02*
G75*
G03X-76700000Y-26500000I-4000000J0D01*
G01*
X-85900000Y-17500000D02*
G75*
G03X-85900000Y-17500000I-4000000J0D01*
G01*
X-67600000Y-17500000D02*
G75*
G03X-67600000Y-17500000I-4000000J0D01*
G01*
D18*
X-46685162Y-37638808D02*
G75*
G03X-46685162Y-37638808I-2300001J0D01*
G01*
D17*
X-56997821Y-42259056D02*
G75*
G02X-56187912Y-37522608I2797821J1959056D01*
G01*
X-52250944Y-43087821D02*
G75*
G02X-56987392Y-42277912I-1959056J2797821D01*
G01*
X-50929056Y-34902179D02*
G75*
G02X-46192608Y-35712088I1959056J-2797821D01*
G01*
X-46182179Y-35730944D02*
G75*
G02X-46992088Y-40467392I-2797821J-1959056D01*
G01*
X-50910000Y-34880000D02*
X-56200000Y-37530000D01*
X-47050000Y-40490000D02*
X-52340000Y-43140000D01*
X-76700000Y-8200000D02*
G75*
G03X-76700000Y-8200000I-4000000J0D01*
G01*
D10*
X-29900000Y29350000D02*
G75*
G02X-30600000Y30050000I0J700000D01*
G01*
X-30600000Y30650000D02*
G75*
G02X-29900000Y31350000I700000J0D01*
G01*
X-28500000Y31350000D02*
G75*
G02X-27800000Y30650000I0J-700000D01*
G01*
X-27800000Y30050000D02*
G75*
G02X-28500000Y29350000I-700000J0D01*
G01*
X-27800000Y30650000D02*
X-27800000Y30050000D01*
X-29900000Y31350000D02*
X-28500000Y31350000D01*
X-30600000Y30050000D02*
X-30600000Y30650000D01*
X-28500000Y29350000D02*
X-29900000Y29350000D01*
X-39200000Y13800000D02*
G75*
G02X-39900000Y13100000I-700000J0D01*
G01*
X-40500000Y13100000D02*
G75*
G02X-41200000Y13800000I0J700000D01*
G01*
X-41200000Y15200000D02*
G75*
G02X-40500000Y15900000I700000J0D01*
G01*
X-39900000Y15900000D02*
G75*
G02X-39200000Y15200000I0J-700000D01*
G01*
X-40500000Y15900000D02*
X-39900000Y15900000D01*
X-41200000Y13800000D02*
X-41200000Y15200000D01*
X-39900000Y13100000D02*
X-40500000Y13100000D01*
X-39200000Y15200000D02*
X-39200000Y13800000D01*
X-36387221Y62690000D02*
X-36712779Y62690000D01*
X-36387221Y63710000D02*
X-36712779Y63710000D01*
X-41540000Y64050279D02*
X-41540000Y63724721D01*
X-42560000Y64050279D02*
X-42560000Y63724721D01*
X-50990000Y63049721D02*
X-50990000Y63375279D01*
X-52010000Y63049721D02*
X-52010000Y63375279D01*
X-34970000Y67010000D02*
X-35900000Y67010000D01*
X-38130000Y67010000D02*
X-37200000Y67010000D01*
X-38130000Y67010000D02*
X-38130000Y64850000D01*
X-34970000Y67010000D02*
X-34970000Y65550000D01*
X-45720000Y66960000D02*
X-46650000Y66960000D01*
X-48880000Y66960000D02*
X-47950000Y66960000D01*
X-48880000Y66960000D02*
X-48880000Y64800000D01*
X-45720000Y66960000D02*
X-45720000Y65500000D01*
X-43600000Y57350000D02*
G75*
G02X-44300000Y56650000I-700000J0D01*
G01*
X-44900000Y56650000D02*
G75*
G02X-45600000Y57350000I0J700000D01*
G01*
X-45600000Y58750000D02*
G75*
G02X-44900000Y59450000I700000J0D01*
G01*
X-44300000Y59450000D02*
G75*
G02X-43600000Y58750000I0J-700000D01*
G01*
X-44900000Y59450000D02*
X-44300000Y59450000D01*
X-45600000Y57350000D02*
X-45600000Y58750000D01*
X-44300000Y56650000D02*
X-44900000Y56650000D01*
X-43600000Y58750000D02*
X-43600000Y57350000D01*
X-40850000Y57350000D02*
G75*
G02X-41550000Y56650000I-700000J0D01*
G01*
X-42150000Y56650000D02*
G75*
G02X-42850000Y57350000I0J700000D01*
G01*
X-42850000Y58750000D02*
G75*
G02X-42150000Y59450000I700000J0D01*
G01*
X-41550000Y59450000D02*
G75*
G02X-40850000Y58750000I0J-700000D01*
G01*
X-42150000Y59450000D02*
X-41550000Y59450000D01*
X-42850000Y57350000D02*
X-42850000Y58750000D01*
X-41550000Y56650000D02*
X-42150000Y56650000D01*
X-40850000Y58750000D02*
X-40850000Y57350000D01*
X-23218245Y20171041D02*
X-22583830Y20466874D01*
X-22471132Y20225192D01*
X-22473168Y20150684D01*
X-22489291Y20106386D01*
X-22535624Y20048001D01*
X-22626255Y20005740D01*
X-22700762Y20007775D01*
X-22745060Y20023898D01*
X-22803445Y20070232D01*
X-22916143Y20311914D01*
X-22755238Y19651359D02*
X-22614366Y19349257D01*
X-22964675Y19627256D02*
X-22231648Y19711617D01*
X-22767453Y19204313D01*
X-22668842Y18992841D02*
X-22034426Y19288674D01*
X-22388969Y18865893D01*
X-21837204Y18865730D01*
X-22471620Y18569897D01*
X-21925962Y18346211D02*
X-21923926Y18420719D01*
X-21907804Y18465016D01*
X-21861470Y18523401D01*
X-21831260Y18537489D01*
X-21756752Y18535453D01*
X-21712455Y18519330D01*
X-21654070Y18472997D01*
X-21597721Y18352156D01*
X-21599756Y18277648D01*
X-21615879Y18233350D01*
X-21662213Y18174965D01*
X-21692423Y18160878D01*
X-21766931Y18162914D01*
X-21811228Y18179037D01*
X-21869613Y18225370D01*
X-21925962Y18346211D01*
X-21984347Y18392544D01*
X-22028645Y18408667D01*
X-22103152Y18410703D01*
X-22223993Y18354354D01*
X-22270327Y18295969D01*
X-22286450Y18251672D01*
X-22288485Y18177164D01*
X-22232136Y18056323D01*
X-22173751Y18009989D01*
X-22129454Y17993867D01*
X-22054946Y17991831D01*
X-21934105Y18048180D01*
X-21887772Y18106565D01*
X-21871649Y18150862D01*
X-21869613Y18225370D01*
X-21442761Y18019843D02*
X-21259626Y17627109D01*
X-21599919Y17725883D01*
X-21557657Y17635252D01*
X-21559693Y17560744D01*
X-21575816Y17516447D01*
X-21622149Y17458062D01*
X-21773201Y17387626D01*
X-21847708Y17389661D01*
X-21892006Y17405784D01*
X-21950391Y17452118D01*
X-22034914Y17633379D01*
X-22032879Y17707887D01*
X-22016756Y17752184D01*
X-21076492Y17234376D02*
X-21048317Y17173955D01*
X-21050353Y17099448D01*
X-21066476Y17055150D01*
X-21112809Y16996765D01*
X-21219563Y16910206D01*
X-21370614Y16839770D01*
X-21505542Y16813631D01*
X-21580050Y16815666D01*
X-21624348Y16831789D01*
X-21682732Y16878123D01*
X-21710907Y16938543D01*
X-21708871Y17013051D01*
X-21692748Y17057348D01*
X-21646415Y17115733D01*
X-21539661Y17202293D01*
X-21388610Y17272729D01*
X-21253682Y17298868D01*
X-21179174Y17296832D01*
X-21134876Y17280709D01*
X-21076492Y17234376D01*
X-20925603Y16753047D02*
X-20881305Y16736924D01*
X-20822921Y16690591D01*
X-20752484Y16539540D01*
X-20754520Y16465032D01*
X-20770643Y16420735D01*
X-20816976Y16362350D01*
X-20877397Y16334175D01*
X-20982115Y16322124D01*
X-21513685Y16515600D01*
X-21330551Y16122866D01*
X-21036591Y15965708D02*
X-20895718Y15663605D01*
X-21246027Y15941605D02*
X-20513001Y16025966D01*
X-21048805Y15518661D01*
X-20783020Y15421923D02*
X-20642147Y15119820D01*
X-20992456Y15397820D02*
X-20259430Y15482181D01*
X-20795234Y14974876D01*
X-20680500Y14807702D02*
X-20668449Y14702984D01*
X-20598012Y14551933D01*
X-20539627Y14505599D01*
X-20495330Y14489476D01*
X-20420822Y14487441D01*
X-20360402Y14515615D01*
X-20314068Y14574000D01*
X-20297945Y14618298D01*
X-20295910Y14692805D01*
X-20322049Y14827734D01*
X-20320013Y14902241D01*
X-20303890Y14946539D01*
X-20257557Y15004924D01*
X-20197136Y15033098D01*
X-20122628Y15031063D01*
X-20078331Y15014940D01*
X-20019946Y14968606D01*
X-19949510Y14817555D01*
X-19937458Y14712837D01*
D13*
X-27488096Y12290477D02*
X-26840477Y12290477D01*
X-26764286Y12328572D01*
X-26726191Y12366667D01*
X-26688096Y12442858D01*
X-26688096Y12595239D01*
X-26726191Y12671429D01*
X-26764286Y12709524D01*
X-26840477Y12747620D01*
X-27488096Y12747620D01*
X-27488096Y13471429D02*
X-27488096Y13319048D01*
X-27450000Y13242858D01*
X-27411905Y13204762D01*
X-27297620Y13128572D01*
X-27145239Y13090477D01*
X-26840477Y13090477D01*
X-26764286Y13128572D01*
X-26726191Y13166667D01*
X-26688096Y13242858D01*
X-26688096Y13395239D01*
X-26726191Y13471429D01*
X-26764286Y13509524D01*
X-26840477Y13547620D01*
X-27030953Y13547620D01*
X-27107143Y13509524D01*
X-27145239Y13471429D01*
X-27183334Y13395239D01*
X-27183334Y13242858D01*
X-27145239Y13166667D01*
X-27107143Y13128572D01*
X-27030953Y13090477D01*
X-56003334Y26718096D02*
X-56003334Y26146667D01*
X-55965239Y26032381D01*
X-55889048Y25956191D01*
X-55774762Y25918096D01*
X-55698572Y25918096D01*
X-56765239Y26718096D02*
X-56384286Y26718096D01*
X-56346191Y26337143D01*
X-56384286Y26375239D01*
X-56460477Y26413334D01*
X-56650953Y26413334D01*
X-56727143Y26375239D01*
X-56765239Y26337143D01*
X-56803334Y26260953D01*
X-56803334Y26070477D01*
X-56765239Y25994286D01*
X-56727143Y25956191D01*
X-56650953Y25918096D01*
X-56460477Y25918096D01*
X-56384286Y25956191D01*
X-56346191Y25994286D01*
X-26502381Y47319048D02*
X-26550000Y47366667D01*
X-26597620Y47461905D01*
X-26597620Y47700000D01*
X-26550000Y47795239D01*
X-26502381Y47842858D01*
X-26407143Y47890477D01*
X-26311905Y47890477D01*
X-26169048Y47842858D01*
X-25597620Y47271429D01*
X-25597620Y47890477D01*
X-25692858Y48319048D02*
X-25645239Y48366667D01*
X-25597620Y48319048D01*
X-25645239Y48271429D01*
X-25692858Y48319048D01*
X-25597620Y48319048D01*
X-26264286Y49223810D02*
X-25597620Y49223810D01*
X-26645239Y48985715D02*
X-25930953Y48747620D01*
X-25930953Y49366667D01*
X-26597620Y49700000D02*
X-26407143Y49700000D01*
X-26597620Y50080953D02*
X-26407143Y50080953D01*
X-29302381Y49819048D02*
X-29350000Y49866667D01*
X-29397620Y49961905D01*
X-29397620Y50200000D01*
X-29350000Y50295239D01*
X-29302381Y50342858D01*
X-29207143Y50390477D01*
X-29111905Y50390477D01*
X-28969048Y50342858D01*
X-28397620Y49771429D01*
X-28397620Y50390477D01*
X-28492858Y50819048D02*
X-28445239Y50866667D01*
X-28397620Y50819048D01*
X-28445239Y50771429D01*
X-28492858Y50819048D01*
X-28397620Y50819048D01*
X-29302381Y51247620D02*
X-29350000Y51295239D01*
X-29397620Y51390477D01*
X-29397620Y51628572D01*
X-29350000Y51723810D01*
X-29302381Y51771429D01*
X-29207143Y51819048D01*
X-29111905Y51819048D01*
X-28969048Y51771429D01*
X-28397620Y51200000D01*
X-28397620Y51819048D01*
X-29397620Y52200000D02*
X-29207143Y52200000D01*
X-29397620Y52580953D02*
X-29207143Y52580953D01*
X-84530953Y33652381D02*
X-84483334Y33700000D01*
X-84388096Y33747620D01*
X-84150000Y33747620D01*
X-84054762Y33700000D01*
X-84007143Y33652381D01*
X-83959524Y33557143D01*
X-83959524Y33461905D01*
X-84007143Y33319048D01*
X-84578572Y32747620D01*
X-83959524Y32747620D01*
X-83530953Y32842858D02*
X-83483334Y32795239D01*
X-83530953Y32747620D01*
X-83578572Y32795239D01*
X-83530953Y32842858D01*
X-83530953Y32747620D01*
X-82626191Y33414286D02*
X-82626191Y32747620D01*
X-82864286Y33795239D02*
X-83102381Y33080953D01*
X-82483334Y33080953D01*
X-82150000Y33747620D02*
X-82150000Y33557143D01*
X-81769048Y33747620D02*
X-81769048Y33557143D01*
X-82030953Y35302381D02*
X-81983334Y35350000D01*
X-81888096Y35397620D01*
X-81650000Y35397620D01*
X-81554762Y35350000D01*
X-81507143Y35302381D01*
X-81459524Y35207143D01*
X-81459524Y35111905D01*
X-81507143Y34969048D01*
X-82078572Y34397620D01*
X-81459524Y34397620D01*
X-81030953Y34492858D02*
X-80983334Y34445239D01*
X-81030953Y34397620D01*
X-81078572Y34445239D01*
X-81030953Y34492858D01*
X-81030953Y34397620D01*
X-80602381Y35302381D02*
X-80554762Y35350000D01*
X-80459524Y35397620D01*
X-80221429Y35397620D01*
X-80126191Y35350000D01*
X-80078572Y35302381D01*
X-80030953Y35207143D01*
X-80030953Y35111905D01*
X-80078572Y34969048D01*
X-80650000Y34397620D01*
X-80030953Y34397620D01*
X-79650000Y35397620D02*
X-79650000Y35207143D01*
X-79269048Y35397620D02*
X-79269048Y35207143D01*
X-22152381Y32619048D02*
X-22200000Y32666667D01*
X-22247620Y32761905D01*
X-22247620Y33000000D01*
X-22200000Y33095239D01*
X-22152381Y33142858D01*
X-22057143Y33190477D01*
X-21961905Y33190477D01*
X-21819048Y33142858D01*
X-21247620Y32571429D01*
X-21247620Y33190477D01*
X-21342858Y33619048D02*
X-21295239Y33666667D01*
X-21247620Y33619048D01*
X-21295239Y33571429D01*
X-21342858Y33619048D01*
X-21247620Y33619048D01*
X-21819048Y34238096D02*
X-21866667Y34142858D01*
X-21914286Y34095239D01*
X-22009524Y34047620D01*
X-22057143Y34047620D01*
X-22152381Y34095239D01*
X-22200000Y34142858D01*
X-22247620Y34238096D01*
X-22247620Y34428572D01*
X-22200000Y34523810D01*
X-22152381Y34571429D01*
X-22057143Y34619048D01*
X-22009524Y34619048D01*
X-21914286Y34571429D01*
X-21866667Y34523810D01*
X-21819048Y34428572D01*
X-21819048Y34238096D01*
X-21771429Y34142858D01*
X-21723810Y34095239D01*
X-21628572Y34047620D01*
X-21438096Y34047620D01*
X-21342858Y34095239D01*
X-21295239Y34142858D01*
X-21247620Y34238096D01*
X-21247620Y34428572D01*
X-21295239Y34523810D01*
X-21342858Y34571429D01*
X-21438096Y34619048D01*
X-21628572Y34619048D01*
X-21723810Y34571429D01*
X-21771429Y34523810D01*
X-21819048Y34428572D01*
X-22247620Y35000000D02*
X-22057143Y35000000D01*
X-22247620Y35380953D02*
X-22057143Y35380953D01*
X-89030953Y33652381D02*
X-88983334Y33700000D01*
X-88888096Y33747620D01*
X-88650000Y33747620D01*
X-88554762Y33700000D01*
X-88507143Y33652381D01*
X-88459524Y33557143D01*
X-88459524Y33461905D01*
X-88507143Y33319048D01*
X-89078572Y32747620D01*
X-88459524Y32747620D01*
X-88030953Y32842858D02*
X-87983334Y32795239D01*
X-88030953Y32747620D01*
X-88078572Y32795239D01*
X-88030953Y32842858D01*
X-88030953Y32747620D01*
X-87411905Y33319048D02*
X-87507143Y33366667D01*
X-87554762Y33414286D01*
X-87602381Y33509524D01*
X-87602381Y33557143D01*
X-87554762Y33652381D01*
X-87507143Y33700000D01*
X-87411905Y33747620D01*
X-87221429Y33747620D01*
X-87126191Y33700000D01*
X-87078572Y33652381D01*
X-87030953Y33557143D01*
X-87030953Y33509524D01*
X-87078572Y33414286D01*
X-87126191Y33366667D01*
X-87221429Y33319048D01*
X-87411905Y33319048D01*
X-87507143Y33271429D01*
X-87554762Y33223810D01*
X-87602381Y33128572D01*
X-87602381Y32938096D01*
X-87554762Y32842858D01*
X-87507143Y32795239D01*
X-87411905Y32747620D01*
X-87221429Y32747620D01*
X-87126191Y32795239D01*
X-87078572Y32842858D01*
X-87030953Y32938096D01*
X-87030953Y33128572D01*
X-87078572Y33223810D01*
X-87126191Y33271429D01*
X-87221429Y33319048D01*
X-86650000Y33747620D02*
X-86650000Y33557143D01*
X-86269048Y33747620D02*
X-86269048Y33557143D01*
X-93578572Y33747620D02*
X-92959524Y33747620D01*
X-93292858Y33366667D01*
X-93150000Y33366667D01*
X-93054762Y33319048D01*
X-93007143Y33271429D01*
X-92959524Y33176191D01*
X-92959524Y32938096D01*
X-93007143Y32842858D01*
X-93054762Y32795239D01*
X-93150000Y32747620D01*
X-93435715Y32747620D01*
X-93530953Y32795239D01*
X-93578572Y32842858D01*
X-92530953Y32842858D02*
X-92483334Y32795239D01*
X-92530953Y32747620D01*
X-92578572Y32795239D01*
X-92530953Y32842858D01*
X-92530953Y32747620D01*
X-92102381Y33652381D02*
X-92054762Y33700000D01*
X-91959524Y33747620D01*
X-91721429Y33747620D01*
X-91626191Y33700000D01*
X-91578572Y33652381D01*
X-91530953Y33557143D01*
X-91530953Y33461905D01*
X-91578572Y33319048D01*
X-92150000Y32747620D01*
X-91530953Y32747620D01*
X-91150000Y33747620D02*
X-91150000Y33557143D01*
X-90769048Y33747620D02*
X-90769048Y33557143D01*
X-17647620Y32471429D02*
X-17647620Y33090477D01*
X-17266667Y32757143D01*
X-17266667Y32900000D01*
X-17219048Y32995239D01*
X-17171429Y33042858D01*
X-17076191Y33090477D01*
X-16838096Y33090477D01*
X-16742858Y33042858D01*
X-16695239Y32995239D01*
X-16647620Y32900000D01*
X-16647620Y32614286D01*
X-16695239Y32519048D01*
X-16742858Y32471429D01*
X-16742858Y33519048D02*
X-16695239Y33566667D01*
X-16647620Y33519048D01*
X-16695239Y33471429D01*
X-16742858Y33519048D01*
X-16647620Y33519048D01*
X-17552381Y33947620D02*
X-17600000Y33995239D01*
X-17647620Y34090477D01*
X-17647620Y34328572D01*
X-17600000Y34423810D01*
X-17552381Y34471429D01*
X-17457143Y34519048D01*
X-17361905Y34519048D01*
X-17219048Y34471429D01*
X-16647620Y33900000D01*
X-16647620Y34519048D01*
X-17647620Y34900000D02*
X-17457143Y34900000D01*
X-17647620Y35280953D02*
X-17457143Y35280953D01*
X-46014286Y33897620D02*
X-46585715Y33897620D01*
X-46300000Y33897620D02*
X-46300000Y34897620D01*
X-46395239Y34754762D01*
X-46490477Y34659524D01*
X-46585715Y34611905D01*
X-46490477Y49397620D02*
X-47061905Y49397620D01*
X-46776191Y49397620D02*
X-46776191Y50397620D01*
X-46871429Y50254762D01*
X-46966667Y50159524D01*
X-47061905Y50111905D01*
X-45919048Y49969048D02*
X-46014286Y50016667D01*
X-46061905Y50064286D01*
X-46109524Y50159524D01*
X-46109524Y50207143D01*
X-46061905Y50302381D01*
X-46014286Y50350000D01*
X-45919048Y50397620D01*
X-45728572Y50397620D01*
X-45633334Y50350000D01*
X-45585715Y50302381D01*
X-45538096Y50207143D01*
X-45538096Y50159524D01*
X-45585715Y50064286D01*
X-45633334Y50016667D01*
X-45728572Y49969048D01*
X-45919048Y49969048D01*
X-46014286Y49921429D01*
X-46061905Y49873810D01*
X-46109524Y49778572D01*
X-46109524Y49588096D01*
X-46061905Y49492858D01*
X-46014286Y49445239D01*
X-45919048Y49397620D01*
X-45728572Y49397620D01*
X-45633334Y49445239D01*
X-45585715Y49492858D01*
X-45538096Y49588096D01*
X-45538096Y49778572D01*
X-45585715Y49873810D01*
X-45633334Y49921429D01*
X-45728572Y49969048D01*
X-27266667Y62983096D02*
X-27266667Y62411667D01*
X-27304762Y62297381D01*
X-27380953Y62221191D01*
X-27495239Y62183096D01*
X-27571429Y62183096D01*
X-26542858Y62716429D02*
X-26542858Y62183096D01*
X-26733334Y63021191D02*
X-26923810Y62449762D01*
X-26428572Y62449762D01*
X-27438096Y58678334D02*
X-26866667Y58678334D01*
X-26752381Y58640239D01*
X-26676191Y58564048D01*
X-26638096Y58449762D01*
X-26638096Y58373572D01*
X-27171429Y59402143D02*
X-26638096Y59402143D01*
X-27476191Y59211667D02*
X-26904762Y59021191D01*
X-26904762Y59516429D01*
X-87038096Y47509524D02*
X-87838096Y47509524D01*
X-87838096Y47700000D01*
X-87800000Y47814286D01*
X-87723810Y47890477D01*
X-87647620Y47928572D01*
X-87495239Y47966667D01*
X-87380953Y47966667D01*
X-87228572Y47928572D01*
X-87152381Y47890477D01*
X-87076191Y47814286D01*
X-87038096Y47700000D01*
X-87038096Y47509524D01*
X-87038096Y48728572D02*
X-87038096Y48271429D01*
X-87038096Y48500000D02*
X-87838096Y48500000D01*
X-87723810Y48423810D01*
X-87647620Y48347620D01*
X-87609524Y48271429D01*
D10*
X-54550000Y-54316666D02*
X-54950000Y-54316666D01*
X-54750000Y-54316666D02*
X-54750000Y-53616666D01*
X-54816667Y-53716666D01*
X-54883334Y-53783333D01*
X-54950000Y-53816666D01*
X-54116667Y-53616666D02*
X-54050000Y-53616666D01*
X-53983334Y-53650000D01*
X-53950000Y-53683333D01*
X-53916667Y-53750000D01*
X-53883334Y-53883333D01*
X-53883334Y-54050000D01*
X-53916667Y-54183333D01*
X-53950000Y-54250000D01*
X-53983334Y-54283333D01*
X-54050000Y-54316666D01*
X-54116667Y-54316666D01*
X-54183334Y-54283333D01*
X-54216667Y-54250000D01*
X-54250000Y-54183333D01*
X-54283334Y-54050000D01*
X-54283334Y-53883333D01*
X-54250000Y-53750000D01*
X-54216667Y-53683333D01*
X-54183334Y-53650000D01*
X-54116667Y-53616666D01*
X-53283334Y-53850000D02*
X-53283334Y-54316666D01*
X-53583334Y-53850000D02*
X-53583334Y-54216666D01*
X-53550000Y-54283333D01*
X-53483334Y-54316666D01*
X-53383334Y-54316666D01*
X-53316667Y-54283333D01*
X-53283334Y-54250000D01*
D13*
X-56970834Y-54235714D02*
X-57008929Y-54273809D01*
X-57123215Y-54311904D01*
X-57199405Y-54311904D01*
X-57313691Y-54273809D01*
X-57389881Y-54197619D01*
X-57427977Y-54121428D01*
X-57466072Y-53969047D01*
X-57466072Y-53854761D01*
X-57427977Y-53702380D01*
X-57389881Y-53626190D01*
X-57313691Y-53550000D01*
X-57199405Y-53511904D01*
X-57123215Y-53511904D01*
X-57008929Y-53550000D01*
X-56970834Y-53588095D01*
X-56247024Y-53511904D02*
X-56627977Y-53511904D01*
X-56666072Y-53892857D01*
X-56627977Y-53854761D01*
X-56551786Y-53816666D01*
X-56361310Y-53816666D01*
X-56285120Y-53854761D01*
X-56247024Y-53892857D01*
X-56208929Y-53969047D01*
X-56208929Y-54159523D01*
X-56247024Y-54235714D01*
X-56285120Y-54273809D01*
X-56361310Y-54311904D01*
X-56551786Y-54311904D01*
X-56627977Y-54273809D01*
X-56666072Y-54235714D01*
D10*
X-54833334Y-46583333D02*
X-54800000Y-46550000D01*
X-54733334Y-46516666D01*
X-54566667Y-46516666D01*
X-54500000Y-46550000D01*
X-54466667Y-46583333D01*
X-54433334Y-46650000D01*
X-54433334Y-46716666D01*
X-54466667Y-46816666D01*
X-54866667Y-47216666D01*
X-54433334Y-47216666D01*
X-54166667Y-46583333D02*
X-54133334Y-46550000D01*
X-54066667Y-46516666D01*
X-53900000Y-46516666D01*
X-53833334Y-46550000D01*
X-53800000Y-46583333D01*
X-53766667Y-46650000D01*
X-53766667Y-46716666D01*
X-53800000Y-46816666D01*
X-54200000Y-47216666D01*
X-53766667Y-47216666D01*
X-53333334Y-46516666D02*
X-53266667Y-46516666D01*
X-53200000Y-46550000D01*
X-53166667Y-46583333D01*
X-53133334Y-46650000D01*
X-53100000Y-46783333D01*
X-53100000Y-46950000D01*
X-53133334Y-47083333D01*
X-53166667Y-47150000D01*
X-53200000Y-47183333D01*
X-53266667Y-47216666D01*
X-53333334Y-47216666D01*
X-53400000Y-47183333D01*
X-53433334Y-47150000D01*
X-53466667Y-47083333D01*
X-53500000Y-46950000D01*
X-53500000Y-46783333D01*
X-53466667Y-46650000D01*
X-53433334Y-46583333D01*
X-53400000Y-46550000D01*
X-53333334Y-46516666D01*
X-52800000Y-46750000D02*
X-52800000Y-47450000D01*
X-52800000Y-46783333D02*
X-52733334Y-46750000D01*
X-52600000Y-46750000D01*
X-52533334Y-46783333D01*
X-52500000Y-46816666D01*
X-52466667Y-46883333D01*
X-52466667Y-47083333D01*
X-52500000Y-47150000D01*
X-52533334Y-47183333D01*
X-52600000Y-47216666D01*
X-52733334Y-47216666D01*
X-52800000Y-47183333D01*
D13*
X-54201786Y-45685714D02*
X-54239881Y-45723809D01*
X-54354167Y-45761904D01*
X-54430358Y-45761904D01*
X-54544643Y-45723809D01*
X-54620834Y-45647619D01*
X-54658929Y-45571428D01*
X-54697024Y-45419047D01*
X-54697024Y-45304761D01*
X-54658929Y-45152380D01*
X-54620834Y-45076190D01*
X-54544643Y-45000000D01*
X-54430358Y-44961904D01*
X-54354167Y-44961904D01*
X-54239881Y-45000000D01*
X-54201786Y-45038095D01*
X-53439881Y-45761904D02*
X-53897024Y-45761904D01*
X-53668453Y-45761904D02*
X-53668453Y-44961904D01*
X-53744643Y-45076190D01*
X-53820834Y-45152380D01*
X-53897024Y-45190476D01*
X-52677977Y-45761904D02*
X-53135120Y-45761904D01*
X-52906548Y-45761904D02*
X-52906548Y-44961904D01*
X-52982739Y-45076190D01*
X-53058929Y-45152380D01*
X-53135120Y-45190476D01*
D10*
X-54870834Y-49483333D02*
X-54837500Y-49450000D01*
X-54770834Y-49416666D01*
X-54604167Y-49416666D01*
X-54537500Y-49450000D01*
X-54504167Y-49483333D01*
X-54470834Y-49550000D01*
X-54470834Y-49616666D01*
X-54504167Y-49716666D01*
X-54904167Y-50116666D01*
X-54470834Y-50116666D01*
X-54204167Y-49483333D02*
X-54170834Y-49450000D01*
X-54104167Y-49416666D01*
X-53937500Y-49416666D01*
X-53870834Y-49450000D01*
X-53837500Y-49483333D01*
X-53804167Y-49550000D01*
X-53804167Y-49616666D01*
X-53837500Y-49716666D01*
X-54237500Y-50116666D01*
X-53804167Y-50116666D01*
X-53370834Y-49416666D02*
X-53304167Y-49416666D01*
X-53237500Y-49450000D01*
X-53204167Y-49483333D01*
X-53170834Y-49550000D01*
X-53137500Y-49683333D01*
X-53137500Y-49850000D01*
X-53170834Y-49983333D01*
X-53204167Y-50050000D01*
X-53237500Y-50083333D01*
X-53304167Y-50116666D01*
X-53370834Y-50116666D01*
X-53437500Y-50083333D01*
X-53470834Y-50050000D01*
X-53504167Y-49983333D01*
X-53537500Y-49850000D01*
X-53537500Y-49683333D01*
X-53504167Y-49550000D01*
X-53470834Y-49483333D01*
X-53437500Y-49450000D01*
X-53370834Y-49416666D01*
X-52837500Y-49650000D02*
X-52837500Y-50350000D01*
X-52837500Y-49683333D02*
X-52770834Y-49650000D01*
X-52637500Y-49650000D01*
X-52570834Y-49683333D01*
X-52537500Y-49716666D01*
X-52504167Y-49783333D01*
X-52504167Y-49983333D01*
X-52537500Y-50050000D01*
X-52570834Y-50083333D01*
X-52637500Y-50116666D01*
X-52770834Y-50116666D01*
X-52837500Y-50083333D01*
D13*
X-54201786Y-48635714D02*
X-54239881Y-48673809D01*
X-54354167Y-48711904D01*
X-54430358Y-48711904D01*
X-54544643Y-48673809D01*
X-54620834Y-48597619D01*
X-54658929Y-48521428D01*
X-54697024Y-48369047D01*
X-54697024Y-48254761D01*
X-54658929Y-48102380D01*
X-54620834Y-48026190D01*
X-54544643Y-47950000D01*
X-54430358Y-47911904D01*
X-54354167Y-47911904D01*
X-54239881Y-47950000D01*
X-54201786Y-47988095D01*
X-53439881Y-48711904D02*
X-53897024Y-48711904D01*
X-53668453Y-48711904D02*
X-53668453Y-47911904D01*
X-53744643Y-48026190D01*
X-53820834Y-48102380D01*
X-53897024Y-48140476D01*
X-52944643Y-47911904D02*
X-52868453Y-47911904D01*
X-52792262Y-47950000D01*
X-52754167Y-47988095D01*
X-52716072Y-48064285D01*
X-52677977Y-48216666D01*
X-52677977Y-48407142D01*
X-52716072Y-48559523D01*
X-52754167Y-48635714D01*
X-52792262Y-48673809D01*
X-52868453Y-48711904D01*
X-52944643Y-48711904D01*
X-53020834Y-48673809D01*
X-53058929Y-48635714D01*
X-53097024Y-48559523D01*
X-53135120Y-48407142D01*
X-53135120Y-48216666D01*
X-53097024Y-48064285D01*
X-53058929Y-47988095D01*
X-53020834Y-47950000D01*
X-52944643Y-47911904D01*
D10*
X-29133334Y20933334D02*
X-29133334Y20533334D01*
X-29133334Y20733334D02*
X-29833334Y20733334D01*
X-29733334Y20666667D01*
X-29666667Y20600000D01*
X-29633334Y20533334D01*
X-29600000Y21533334D02*
X-29133334Y21533334D01*
X-29600000Y21233334D02*
X-29233334Y21233334D01*
X-29166667Y21266667D01*
X-29133334Y21333334D01*
X-29133334Y21433334D01*
X-29166667Y21500000D01*
X-29200000Y21533334D01*
D13*
X-27764286Y20966667D02*
X-27726191Y20928572D01*
X-27688096Y20814286D01*
X-27688096Y20738096D01*
X-27726191Y20623810D01*
X-27802381Y20547620D01*
X-27878572Y20509524D01*
X-28030953Y20471429D01*
X-28145239Y20471429D01*
X-28297620Y20509524D01*
X-28373810Y20547620D01*
X-28450000Y20623810D01*
X-28488096Y20738096D01*
X-28488096Y20814286D01*
X-28450000Y20928572D01*
X-28411905Y20966667D01*
X-28145239Y21423810D02*
X-28183334Y21347620D01*
X-28221429Y21309524D01*
X-28297620Y21271429D01*
X-28335715Y21271429D01*
X-28411905Y21309524D01*
X-28450000Y21347620D01*
X-28488096Y21423810D01*
X-28488096Y21576191D01*
X-28450000Y21652381D01*
X-28411905Y21690477D01*
X-28335715Y21728572D01*
X-28297620Y21728572D01*
X-28221429Y21690477D01*
X-28183334Y21652381D01*
X-28145239Y21576191D01*
X-28145239Y21423810D01*
X-28107143Y21347620D01*
X-28069048Y21309524D01*
X-27992858Y21271429D01*
X-27840477Y21271429D01*
X-27764286Y21309524D01*
X-27726191Y21347620D01*
X-27688096Y21423810D01*
X-27688096Y21576191D01*
X-27726191Y21652381D01*
X-27764286Y21690477D01*
X-27840477Y21728572D01*
X-27992858Y21728572D01*
X-28069048Y21690477D01*
X-28107143Y21652381D01*
X-28145239Y21576191D01*
D10*
X-28563334Y7412500D02*
X-28563334Y7012500D01*
X-28563334Y7212500D02*
X-29263334Y7212500D01*
X-29163334Y7145834D01*
X-29096667Y7079167D01*
X-29063334Y7012500D01*
X-29263334Y7845834D02*
X-29263334Y7912500D01*
X-29230000Y7979167D01*
X-29196667Y8012500D01*
X-29130000Y8045834D01*
X-28996667Y8079167D01*
X-28830000Y8079167D01*
X-28696667Y8045834D01*
X-28630000Y8012500D01*
X-28596667Y7979167D01*
X-28563334Y7912500D01*
X-28563334Y7845834D01*
X-28596667Y7779167D01*
X-28630000Y7745834D01*
X-28696667Y7712500D01*
X-28830000Y7679167D01*
X-28996667Y7679167D01*
X-29130000Y7712500D01*
X-29196667Y7745834D01*
X-29230000Y7779167D01*
X-29263334Y7845834D01*
X-29030000Y8679167D02*
X-28563334Y8679167D01*
X-29030000Y8379167D02*
X-28663334Y8379167D01*
X-28596667Y8412500D01*
X-28563334Y8479167D01*
X-28563334Y8579167D01*
X-28596667Y8645834D01*
X-28630000Y8679167D01*
D13*
X-27164286Y7729167D02*
X-27126191Y7691072D01*
X-27088096Y7576786D01*
X-27088096Y7500596D01*
X-27126191Y7386310D01*
X-27202381Y7310120D01*
X-27278572Y7272024D01*
X-27430953Y7233929D01*
X-27545239Y7233929D01*
X-27697620Y7272024D01*
X-27773810Y7310120D01*
X-27850000Y7386310D01*
X-27888096Y7500596D01*
X-27888096Y7576786D01*
X-27850000Y7691072D01*
X-27811905Y7729167D01*
X-27088096Y8110120D02*
X-27088096Y8262500D01*
X-27126191Y8338691D01*
X-27164286Y8376786D01*
X-27278572Y8452977D01*
X-27430953Y8491072D01*
X-27735715Y8491072D01*
X-27811905Y8452977D01*
X-27850000Y8414881D01*
X-27888096Y8338691D01*
X-27888096Y8186310D01*
X-27850000Y8110120D01*
X-27811905Y8072024D01*
X-27735715Y8033929D01*
X-27545239Y8033929D01*
X-27469048Y8072024D01*
X-27430953Y8110120D01*
X-27392858Y8186310D01*
X-27392858Y8338691D01*
X-27430953Y8414881D01*
X-27469048Y8452977D01*
X-27545239Y8491072D01*
D10*
X-24333334Y20983334D02*
X-24333334Y20583334D01*
X-24333334Y20783334D02*
X-25033334Y20783334D01*
X-24933334Y20716667D01*
X-24866667Y20650000D01*
X-24833334Y20583334D01*
X-24800000Y21583334D02*
X-24333334Y21583334D01*
X-24800000Y21283334D02*
X-24433334Y21283334D01*
X-24366667Y21316667D01*
X-24333334Y21383334D01*
X-24333334Y21483334D01*
X-24366667Y21550000D01*
X-24400000Y21583334D01*
D13*
X-25764286Y20979167D02*
X-25726191Y20941072D01*
X-25688096Y20826786D01*
X-25688096Y20750596D01*
X-25726191Y20636310D01*
X-25802381Y20560120D01*
X-25878572Y20522024D01*
X-26030953Y20483929D01*
X-26145239Y20483929D01*
X-26297620Y20522024D01*
X-26373810Y20560120D01*
X-26450000Y20636310D01*
X-26488096Y20750596D01*
X-26488096Y20826786D01*
X-26450000Y20941072D01*
X-26411905Y20979167D01*
X-26488096Y21245834D02*
X-26488096Y21779167D01*
X-25688096Y21436310D01*
D10*
X-24333334Y16933334D02*
X-24333334Y16533334D01*
X-24333334Y16733334D02*
X-25033334Y16733334D01*
X-24933334Y16666667D01*
X-24866667Y16600000D01*
X-24833334Y16533334D01*
X-25033334Y17366667D02*
X-25033334Y17433334D01*
X-25000000Y17500000D01*
X-24966667Y17533334D01*
X-24900000Y17566667D01*
X-24766667Y17600000D01*
X-24600000Y17600000D01*
X-24466667Y17566667D01*
X-24400000Y17533334D01*
X-24366667Y17500000D01*
X-24333334Y17433334D01*
X-24333334Y17366667D01*
X-24366667Y17300000D01*
X-24400000Y17266667D01*
X-24466667Y17233334D01*
X-24600000Y17200000D01*
X-24766667Y17200000D01*
X-24900000Y17233334D01*
X-24966667Y17266667D01*
X-25000000Y17300000D01*
X-25033334Y17366667D01*
X-25033334Y18033334D02*
X-25033334Y18100000D01*
X-25000000Y18166667D01*
X-24966667Y18200000D01*
X-24900000Y18233334D01*
X-24766667Y18266667D01*
X-24600000Y18266667D01*
X-24466667Y18233334D01*
X-24400000Y18200000D01*
X-24366667Y18166667D01*
X-24333334Y18100000D01*
X-24333334Y18033334D01*
X-24366667Y17966667D01*
X-24400000Y17933334D01*
X-24466667Y17900000D01*
X-24600000Y17866667D01*
X-24766667Y17866667D01*
X-24900000Y17900000D01*
X-24966667Y17933334D01*
X-25000000Y17966667D01*
X-25033334Y18033334D01*
X-24333334Y18966667D02*
X-24666667Y18733334D01*
X-24333334Y18566667D02*
X-25033334Y18566667D01*
X-25033334Y18833334D01*
X-25000000Y18900000D01*
X-24966667Y18933334D01*
X-24900000Y18966667D01*
X-24800000Y18966667D01*
X-24733334Y18933334D01*
X-24700000Y18900000D01*
X-24666667Y18833334D01*
X-24666667Y18566667D01*
D13*
X-25688096Y17235715D02*
X-26069048Y16969048D01*
X-25688096Y16778572D02*
X-26488096Y16778572D01*
X-26488096Y17083334D01*
X-26450000Y17159524D01*
X-26411905Y17197620D01*
X-26335715Y17235715D01*
X-26221429Y17235715D01*
X-26145239Y17197620D01*
X-26107143Y17159524D01*
X-26069048Y17083334D01*
X-26069048Y16778572D01*
X-25688096Y17997620D02*
X-25688096Y17540477D01*
X-25688096Y17769048D02*
X-26488096Y17769048D01*
X-26373810Y17692858D01*
X-26297620Y17616667D01*
X-26259524Y17540477D01*
X-25688096Y18759524D02*
X-25688096Y18302381D01*
X-25688096Y18530953D02*
X-26488096Y18530953D01*
X-26373810Y18454762D01*
X-26297620Y18378572D01*
X-26259524Y18302381D01*
D10*
X-29083334Y16933334D02*
X-29083334Y16533334D01*
X-29083334Y16733334D02*
X-29783334Y16733334D01*
X-29683334Y16666667D01*
X-29616667Y16600000D01*
X-29583334Y16533334D01*
X-29783334Y17366667D02*
X-29783334Y17433334D01*
X-29750000Y17500000D01*
X-29716667Y17533334D01*
X-29650000Y17566667D01*
X-29516667Y17600000D01*
X-29350000Y17600000D01*
X-29216667Y17566667D01*
X-29150000Y17533334D01*
X-29116667Y17500000D01*
X-29083334Y17433334D01*
X-29083334Y17366667D01*
X-29116667Y17300000D01*
X-29150000Y17266667D01*
X-29216667Y17233334D01*
X-29350000Y17200000D01*
X-29516667Y17200000D01*
X-29650000Y17233334D01*
X-29716667Y17266667D01*
X-29750000Y17300000D01*
X-29783334Y17366667D01*
X-29783334Y18033334D02*
X-29783334Y18100000D01*
X-29750000Y18166667D01*
X-29716667Y18200000D01*
X-29650000Y18233334D01*
X-29516667Y18266667D01*
X-29350000Y18266667D01*
X-29216667Y18233334D01*
X-29150000Y18200000D01*
X-29116667Y18166667D01*
X-29083334Y18100000D01*
X-29083334Y18033334D01*
X-29116667Y17966667D01*
X-29150000Y17933334D01*
X-29216667Y17900000D01*
X-29350000Y17866667D01*
X-29516667Y17866667D01*
X-29650000Y17900000D01*
X-29716667Y17933334D01*
X-29750000Y17966667D01*
X-29783334Y18033334D01*
X-29083334Y18966667D02*
X-29416667Y18733334D01*
X-29083334Y18566667D02*
X-29783334Y18566667D01*
X-29783334Y18833334D01*
X-29750000Y18900000D01*
X-29716667Y18933334D01*
X-29650000Y18966667D01*
X-29550000Y18966667D01*
X-29483334Y18933334D01*
X-29450000Y18900000D01*
X-29416667Y18833334D01*
X-29416667Y18566667D01*
D13*
X-27688096Y17235715D02*
X-28069048Y16969048D01*
X-27688096Y16778572D02*
X-28488096Y16778572D01*
X-28488096Y17083334D01*
X-28450000Y17159524D01*
X-28411905Y17197620D01*
X-28335715Y17235715D01*
X-28221429Y17235715D01*
X-28145239Y17197620D01*
X-28107143Y17159524D01*
X-28069048Y17083334D01*
X-28069048Y16778572D01*
X-27688096Y17997620D02*
X-27688096Y17540477D01*
X-27688096Y17769048D02*
X-28488096Y17769048D01*
X-28373810Y17692858D01*
X-28297620Y17616667D01*
X-28259524Y17540477D01*
X-28411905Y18302381D02*
X-28450000Y18340477D01*
X-28488096Y18416667D01*
X-28488096Y18607143D01*
X-28450000Y18683334D01*
X-28411905Y18721429D01*
X-28335715Y18759524D01*
X-28259524Y18759524D01*
X-28145239Y18721429D01*
X-27688096Y18264286D01*
X-27688096Y18759524D01*
D10*
X-31433334Y10766667D02*
X-31433334Y10366667D01*
X-31433334Y10566667D02*
X-32133334Y10566667D01*
X-32033334Y10500000D01*
X-31966667Y10433334D01*
X-31933334Y10366667D01*
X-32133334Y11200000D02*
X-32133334Y11266667D01*
X-32100000Y11333334D01*
X-32066667Y11366667D01*
X-32000000Y11400000D01*
X-31866667Y11433334D01*
X-31700000Y11433334D01*
X-31566667Y11400000D01*
X-31500000Y11366667D01*
X-31466667Y11333334D01*
X-31433334Y11266667D01*
X-31433334Y11200000D01*
X-31466667Y11133334D01*
X-31500000Y11100000D01*
X-31566667Y11066667D01*
X-31700000Y11033334D01*
X-31866667Y11033334D01*
X-32000000Y11066667D01*
X-32066667Y11100000D01*
X-32100000Y11133334D01*
X-32133334Y11200000D01*
X-31433334Y11733334D02*
X-32133334Y11733334D01*
X-31433334Y12133334D02*
X-31833334Y11833334D01*
X-32133334Y12133334D02*
X-31733334Y11733334D01*
D13*
X-29988096Y10735715D02*
X-30369048Y10469048D01*
X-29988096Y10278572D02*
X-30788096Y10278572D01*
X-30788096Y10583334D01*
X-30750000Y10659524D01*
X-30711905Y10697620D01*
X-30635715Y10735715D01*
X-30521429Y10735715D01*
X-30445239Y10697620D01*
X-30407143Y10659524D01*
X-30369048Y10583334D01*
X-30369048Y10278572D01*
X-29988096Y11497620D02*
X-29988096Y11040477D01*
X-29988096Y11269048D02*
X-30788096Y11269048D01*
X-30673810Y11192858D01*
X-30597620Y11116667D01*
X-30559524Y11040477D01*
X-30788096Y11764286D02*
X-30788096Y12259524D01*
X-30483334Y11992858D01*
X-30483334Y12107143D01*
X-30445239Y12183334D01*
X-30407143Y12221429D01*
X-30330953Y12259524D01*
X-30140477Y12259524D01*
X-30064286Y12221429D01*
X-30026191Y12183334D01*
X-29988096Y12107143D01*
X-29988096Y11878572D01*
X-30026191Y11802381D01*
X-30064286Y11764286D01*
D10*
X-87083334Y46200000D02*
X-87083334Y45800000D01*
X-87083334Y46000000D02*
X-87783334Y46000000D01*
X-87683334Y45933334D01*
X-87616667Y45866667D01*
X-87583334Y45800000D01*
X-87083334Y46500000D02*
X-87783334Y46500000D01*
X-87083334Y46900000D02*
X-87483334Y46600000D01*
X-87783334Y46900000D02*
X-87383334Y46500000D01*
D13*
X-86988096Y43929167D02*
X-87369048Y43662500D01*
X-86988096Y43472024D02*
X-87788096Y43472024D01*
X-87788096Y43776786D01*
X-87750000Y43852977D01*
X-87711905Y43891072D01*
X-87635715Y43929167D01*
X-87521429Y43929167D01*
X-87445239Y43891072D01*
X-87407143Y43852977D01*
X-87369048Y43776786D01*
X-87369048Y43472024D01*
X-86988096Y44691072D02*
X-86988096Y44233929D01*
X-86988096Y44462500D02*
X-87788096Y44462500D01*
X-87673810Y44386310D01*
X-87597620Y44310120D01*
X-87559524Y44233929D01*
X-57666667Y-57811904D02*
X-57666667Y-58383333D01*
X-57704762Y-58497619D01*
X-57780953Y-58573809D01*
X-57895239Y-58611904D01*
X-57971429Y-58611904D01*
X-57361905Y-57811904D02*
X-56828572Y-57811904D01*
X-57171429Y-58611904D01*
D10*
X-73216667Y-48108333D02*
X-73183334Y-48008333D01*
X-73183334Y-47841666D01*
X-73216667Y-47775000D01*
X-73250000Y-47741666D01*
X-73316667Y-47708333D01*
X-73383334Y-47708333D01*
X-73450000Y-47741666D01*
X-73483334Y-47775000D01*
X-73516667Y-47841666D01*
X-73550000Y-47975000D01*
X-73583334Y-48041666D01*
X-73616667Y-48075000D01*
X-73683334Y-48108333D01*
X-73750000Y-48108333D01*
X-73816667Y-48075000D01*
X-73850000Y-48041666D01*
X-73883334Y-47975000D01*
X-73883334Y-47808333D01*
X-73850000Y-47708333D01*
X-73216667Y-47441666D02*
X-73183334Y-47341666D01*
X-73183334Y-47175000D01*
X-73216667Y-47108333D01*
X-73250000Y-47075000D01*
X-73316667Y-47041666D01*
X-73383334Y-47041666D01*
X-73450000Y-47075000D01*
X-73483334Y-47108333D01*
X-73516667Y-47175000D01*
X-73550000Y-47308333D01*
X-73583334Y-47375000D01*
X-73616667Y-47408333D01*
X-73683334Y-47441666D01*
X-73750000Y-47441666D01*
X-73816667Y-47408333D01*
X-73850000Y-47375000D01*
X-73883334Y-47308333D01*
X-73883334Y-47141666D01*
X-73850000Y-47041666D01*
X-73883334Y-46808333D02*
X-73883334Y-46375000D01*
X-73616667Y-46608333D01*
X-73616667Y-46508333D01*
X-73583334Y-46441666D01*
X-73550000Y-46408333D01*
X-73483334Y-46375000D01*
X-73316667Y-46375000D01*
X-73250000Y-46408333D01*
X-73216667Y-46441666D01*
X-73183334Y-46508333D01*
X-73183334Y-46708333D01*
X-73216667Y-46775000D01*
X-73250000Y-46808333D01*
X-73183334Y-45708333D02*
X-73183334Y-46108333D01*
X-73183334Y-45908333D02*
X-73883334Y-45908333D01*
X-73783334Y-45975000D01*
X-73716667Y-46041666D01*
X-73683334Y-46108333D01*
X-73883334Y-45275000D02*
X-73883334Y-45208333D01*
X-73850000Y-45141666D01*
X-73816667Y-45108333D01*
X-73750000Y-45075000D01*
X-73616667Y-45041666D01*
X-73450000Y-45041666D01*
X-73316667Y-45075000D01*
X-73250000Y-45108333D01*
X-73216667Y-45141666D01*
X-73183334Y-45208333D01*
X-73183334Y-45275000D01*
X-73216667Y-45341666D01*
X-73250000Y-45375000D01*
X-73316667Y-45408333D01*
X-73450000Y-45441666D01*
X-73616667Y-45441666D01*
X-73750000Y-45408333D01*
X-73816667Y-45375000D01*
X-73850000Y-45341666D01*
X-73883334Y-45275000D01*
D13*
X-55109524Y-20461904D02*
X-55109524Y-21109523D01*
X-55071429Y-21185714D01*
X-55033334Y-21223809D01*
X-54957143Y-21261904D01*
X-54804762Y-21261904D01*
X-54728572Y-21223809D01*
X-54690477Y-21185714D01*
X-54652381Y-21109523D01*
X-54652381Y-20461904D01*
X-53852381Y-21261904D02*
X-54309524Y-21261904D01*
X-54080953Y-21261904D02*
X-54080953Y-20461904D01*
X-54157143Y-20576190D01*
X-54233334Y-20652380D01*
X-54309524Y-20690476D01*
X-28866667Y-28361904D02*
X-29133334Y-27980952D01*
X-29323810Y-28361904D02*
X-29323810Y-27561904D01*
X-29019048Y-27561904D01*
X-28942858Y-27600000D01*
X-28904762Y-27638095D01*
X-28866667Y-27714285D01*
X-28866667Y-27828571D01*
X-28904762Y-27904761D01*
X-28942858Y-27942857D01*
X-29019048Y-27980952D01*
X-29323810Y-27980952D01*
X-28523810Y-27942857D02*
X-28257143Y-27942857D01*
X-28142858Y-28361904D02*
X-28523810Y-28361904D01*
X-28523810Y-27561904D01*
X-28142858Y-27561904D01*
X-27533334Y-27942857D02*
X-27800000Y-27942857D01*
X-27800000Y-28361904D02*
X-27800000Y-27561904D01*
X-27419048Y-27561904D01*
X-27000000Y-27561904D02*
X-27000000Y-27752380D01*
X-27190477Y-27676190D02*
X-27000000Y-27752380D01*
X-26809524Y-27676190D01*
X-27114286Y-27904761D02*
X-27000000Y-27752380D01*
X-26885715Y-27904761D01*
X-26390477Y-27561904D02*
X-26390477Y-27752380D01*
X-26580953Y-27676190D02*
X-26390477Y-27752380D01*
X-26200000Y-27676190D01*
X-26504762Y-27904761D02*
X-26390477Y-27752380D01*
X-26276191Y-27904761D01*
D10*
X-82083334Y-52400000D02*
X-82083334Y-52333333D01*
X-82050000Y-52266666D01*
X-82016667Y-52233333D01*
X-81950000Y-52200000D01*
X-81816667Y-52166666D01*
X-81650000Y-52166666D01*
X-81516667Y-52200000D01*
X-81450000Y-52233333D01*
X-81416667Y-52266666D01*
X-81383334Y-52333333D01*
X-81383334Y-52400000D01*
X-81416667Y-52466666D01*
X-81450000Y-52500000D01*
X-81516667Y-52533333D01*
X-81650000Y-52566666D01*
X-81816667Y-52566666D01*
X-81950000Y-52533333D01*
X-82016667Y-52500000D01*
X-82050000Y-52466666D01*
X-82083334Y-52400000D01*
X-81450000Y-51866666D02*
X-81416667Y-51833333D01*
X-81383334Y-51866666D01*
X-81416667Y-51900000D01*
X-81450000Y-51866666D01*
X-81383334Y-51866666D01*
X-81383334Y-51166666D02*
X-81383334Y-51566666D01*
X-81383334Y-51366666D02*
X-82083334Y-51366666D01*
X-81983334Y-51433333D01*
X-81916667Y-51500000D01*
X-81883334Y-51566666D01*
X-81850000Y-50566666D02*
X-81383334Y-50566666D01*
X-81850000Y-50866666D02*
X-81483334Y-50866666D01*
X-81416667Y-50833333D01*
X-81383334Y-50766666D01*
X-81383334Y-50666666D01*
X-81416667Y-50600000D01*
X-81450000Y-50566666D01*
D13*
X-81339286Y-54558333D02*
X-81301191Y-54596428D01*
X-81263096Y-54710714D01*
X-81263096Y-54786904D01*
X-81301191Y-54901190D01*
X-81377381Y-54977380D01*
X-81453572Y-55015476D01*
X-81605953Y-55053571D01*
X-81720239Y-55053571D01*
X-81872620Y-55015476D01*
X-81948810Y-54977380D01*
X-82025000Y-54901190D01*
X-82063096Y-54786904D01*
X-82063096Y-54710714D01*
X-82025000Y-54596428D01*
X-81986905Y-54558333D01*
X-82063096Y-54291666D02*
X-82063096Y-53796428D01*
X-81758334Y-54063095D01*
X-81758334Y-53948809D01*
X-81720239Y-53872619D01*
X-81682143Y-53834523D01*
X-81605953Y-53796428D01*
X-81415477Y-53796428D01*
X-81339286Y-53834523D01*
X-81301191Y-53872619D01*
X-81263096Y-53948809D01*
X-81263096Y-54177380D01*
X-81301191Y-54253571D01*
X-81339286Y-54291666D01*
D10*
X-74566667Y-51950000D02*
X-74600000Y-51916666D01*
X-74633334Y-51850000D01*
X-74633334Y-51683333D01*
X-74600000Y-51616666D01*
X-74566667Y-51583333D01*
X-74500000Y-51550000D01*
X-74433334Y-51550000D01*
X-74333334Y-51583333D01*
X-73933334Y-51983333D01*
X-73933334Y-51550000D01*
X-74566667Y-51283333D02*
X-74600000Y-51250000D01*
X-74633334Y-51183333D01*
X-74633334Y-51016666D01*
X-74600000Y-50950000D01*
X-74566667Y-50916666D01*
X-74500000Y-50883333D01*
X-74433334Y-50883333D01*
X-74333334Y-50916666D01*
X-73933334Y-51316666D01*
X-73933334Y-50883333D01*
X-74400000Y-50283333D02*
X-73933334Y-50283333D01*
X-74400000Y-50583333D02*
X-74033334Y-50583333D01*
X-73966667Y-50550000D01*
X-73933334Y-50483333D01*
X-73933334Y-50383333D01*
X-73966667Y-50316666D01*
X-74000000Y-50283333D01*
D13*
X-71483334Y-50860714D02*
X-71521429Y-50898809D01*
X-71635715Y-50936904D01*
X-71711905Y-50936904D01*
X-71826191Y-50898809D01*
X-71902381Y-50822619D01*
X-71940477Y-50746428D01*
X-71978572Y-50594047D01*
X-71978572Y-50479761D01*
X-71940477Y-50327380D01*
X-71902381Y-50251190D01*
X-71826191Y-50175000D01*
X-71711905Y-50136904D01*
X-71635715Y-50136904D01*
X-71521429Y-50175000D01*
X-71483334Y-50213095D01*
X-70797620Y-50403571D02*
X-70797620Y-50936904D01*
X-70988096Y-50098809D02*
X-71178572Y-50670238D01*
X-70683334Y-50670238D01*
D10*
X-79800000Y-44158333D02*
X-79766667Y-44125000D01*
X-79700000Y-44091666D01*
X-79533334Y-44091666D01*
X-79466667Y-44125000D01*
X-79433334Y-44158333D01*
X-79400000Y-44225000D01*
X-79400000Y-44291666D01*
X-79433334Y-44391666D01*
X-79833334Y-44791666D01*
X-79400000Y-44791666D01*
X-79133334Y-44158333D02*
X-79100000Y-44125000D01*
X-79033334Y-44091666D01*
X-78866667Y-44091666D01*
X-78800000Y-44125000D01*
X-78766667Y-44158333D01*
X-78733334Y-44225000D01*
X-78733334Y-44291666D01*
X-78766667Y-44391666D01*
X-79166667Y-44791666D01*
X-78733334Y-44791666D01*
X-78133334Y-44325000D02*
X-78133334Y-44791666D01*
X-78433334Y-44325000D02*
X-78433334Y-44691666D01*
X-78400000Y-44758333D01*
X-78333334Y-44791666D01*
X-78233334Y-44791666D01*
X-78166667Y-44758333D01*
X-78133334Y-44725000D01*
D13*
X-79014286Y-47558333D02*
X-78976191Y-47596428D01*
X-78938096Y-47710714D01*
X-78938096Y-47786904D01*
X-78976191Y-47901190D01*
X-79052381Y-47977380D01*
X-79128572Y-48015476D01*
X-79280953Y-48053571D01*
X-79395239Y-48053571D01*
X-79547620Y-48015476D01*
X-79623810Y-47977380D01*
X-79700000Y-47901190D01*
X-79738096Y-47786904D01*
X-79738096Y-47710714D01*
X-79700000Y-47596428D01*
X-79661905Y-47558333D01*
X-79738096Y-46872619D02*
X-79738096Y-47025000D01*
X-79700000Y-47101190D01*
X-79661905Y-47139285D01*
X-79547620Y-47215476D01*
X-79395239Y-47253571D01*
X-79090477Y-47253571D01*
X-79014286Y-47215476D01*
X-78976191Y-47177380D01*
X-78938096Y-47101190D01*
X-78938096Y-46948809D01*
X-78976191Y-46872619D01*
X-79014286Y-46834523D01*
X-79090477Y-46796428D01*
X-79280953Y-46796428D01*
X-79357143Y-46834523D01*
X-79395239Y-46872619D01*
X-79433334Y-46948809D01*
X-79433334Y-47101190D01*
X-79395239Y-47177380D01*
X-79357143Y-47215476D01*
X-79280953Y-47253571D01*
X-73759524Y-56886904D02*
X-73759524Y-56086904D01*
X-73950000Y-56086904D01*
X-74064286Y-56125000D01*
X-74140477Y-56201190D01*
X-74178572Y-56277380D01*
X-74216667Y-56429761D01*
X-74216667Y-56544047D01*
X-74178572Y-56696428D01*
X-74140477Y-56772619D01*
X-74064286Y-56848809D01*
X-73950000Y-56886904D01*
X-73759524Y-56886904D01*
X-74483334Y-56086904D02*
X-74978572Y-56086904D01*
X-74711905Y-56391666D01*
X-74826191Y-56391666D01*
X-74902381Y-56429761D01*
X-74940477Y-56467857D01*
X-74978572Y-56544047D01*
X-74978572Y-56734523D01*
X-74940477Y-56810714D01*
X-74902381Y-56848809D01*
X-74826191Y-56886904D01*
X-74597620Y-56886904D01*
X-74521429Y-56848809D01*
X-74483334Y-56810714D01*
X-73772024Y-54886904D02*
X-73772024Y-54086904D01*
X-73962500Y-54086904D01*
X-74076786Y-54125000D01*
X-74152977Y-54201190D01*
X-74191072Y-54277380D01*
X-74229167Y-54429761D01*
X-74229167Y-54544047D01*
X-74191072Y-54696428D01*
X-74152977Y-54772619D01*
X-74076786Y-54848809D01*
X-73962500Y-54886904D01*
X-73772024Y-54886904D01*
X-74914881Y-54353571D02*
X-74914881Y-54886904D01*
X-74724405Y-54048809D02*
X-74533929Y-54620238D01*
X-75029167Y-54620238D01*
D10*
X-61716667Y-42983333D02*
X-61683334Y-42950000D01*
X-61616667Y-42916666D01*
X-61450000Y-42916666D01*
X-61383334Y-42950000D01*
X-61350000Y-42983333D01*
X-61316667Y-43050000D01*
X-61316667Y-43116666D01*
X-61350000Y-43216666D01*
X-61750000Y-43616666D01*
X-61316667Y-43616666D01*
X-61050000Y-42983333D02*
X-61016667Y-42950000D01*
X-60950000Y-42916666D01*
X-60783334Y-42916666D01*
X-60716667Y-42950000D01*
X-60683334Y-42983333D01*
X-60650000Y-43050000D01*
X-60650000Y-43116666D01*
X-60683334Y-43216666D01*
X-61083334Y-43616666D01*
X-60650000Y-43616666D01*
X-60050000Y-43150000D02*
X-60050000Y-43616666D01*
X-60350000Y-43150000D02*
X-60350000Y-43516666D01*
X-60316667Y-43583333D01*
X-60250000Y-43616666D01*
X-60150000Y-43616666D01*
X-60083334Y-43583333D01*
X-60050000Y-43550000D01*
X-59716667Y-43616666D02*
X-59716667Y-42916666D01*
X-59716667Y-43250000D02*
X-59316667Y-43250000D01*
X-59316667Y-43616666D02*
X-59316667Y-42916666D01*
D13*
X-60388096Y-48433333D02*
X-60388096Y-48814285D01*
X-61188096Y-48814285D01*
X-60388096Y-47747619D02*
X-60388096Y-48204761D01*
X-60388096Y-47976190D02*
X-61188096Y-47976190D01*
X-61073810Y-48052380D01*
X-60997620Y-48128571D01*
X-60959524Y-48204761D01*
X-67216667Y-56836904D02*
X-66950000Y-56455952D01*
X-66759524Y-56836904D02*
X-66759524Y-56036904D01*
X-67064286Y-56036904D01*
X-67140477Y-56075000D01*
X-67178572Y-56113095D01*
X-67216667Y-56189285D01*
X-67216667Y-56303571D01*
X-67178572Y-56379761D01*
X-67140477Y-56417857D01*
X-67064286Y-56455952D01*
X-66759524Y-56455952D01*
X-67902381Y-56303571D02*
X-67902381Y-56836904D01*
X-67711905Y-55998809D02*
X-67521429Y-56570238D01*
X-68016667Y-56570238D01*
X-67279167Y-54786904D02*
X-67012500Y-54405952D01*
X-66822024Y-54786904D02*
X-66822024Y-53986904D01*
X-67126786Y-53986904D01*
X-67202977Y-54025000D01*
X-67241072Y-54063095D01*
X-67279167Y-54139285D01*
X-67279167Y-54253571D01*
X-67241072Y-54329761D01*
X-67202977Y-54367857D01*
X-67126786Y-54405952D01*
X-66822024Y-54405952D01*
X-68002977Y-53986904D02*
X-67622024Y-53986904D01*
X-67583929Y-54367857D01*
X-67622024Y-54329761D01*
X-67698215Y-54291666D01*
X-67888691Y-54291666D01*
X-67964881Y-54329761D01*
X-68002977Y-54367857D01*
X-68041072Y-54444047D01*
X-68041072Y-54634523D01*
X-68002977Y-54710714D01*
X-67964881Y-54748809D01*
X-67888691Y-54786904D01*
X-67698215Y-54786904D01*
X-67622024Y-54748809D01*
X-67583929Y-54710714D01*
D10*
X-71691667Y-58187500D02*
X-71725000Y-58154166D01*
X-71758334Y-58087500D01*
X-71758334Y-57920833D01*
X-71725000Y-57854166D01*
X-71691667Y-57820833D01*
X-71625000Y-57787500D01*
X-71558334Y-57787500D01*
X-71458334Y-57820833D01*
X-71058334Y-58220833D01*
X-71058334Y-57787500D01*
X-71058334Y-57487500D02*
X-71758334Y-57487500D01*
X-71058334Y-57087500D02*
X-71458334Y-57387500D01*
X-71758334Y-57087500D02*
X-71358334Y-57487500D01*
D13*
X-71088096Y-55458333D02*
X-71469048Y-55725000D01*
X-71088096Y-55915476D02*
X-71888096Y-55915476D01*
X-71888096Y-55610714D01*
X-71850000Y-55534523D01*
X-71811905Y-55496428D01*
X-71735715Y-55458333D01*
X-71621429Y-55458333D01*
X-71545239Y-55496428D01*
X-71507143Y-55534523D01*
X-71469048Y-55610714D01*
X-71469048Y-55915476D01*
X-71888096Y-54772619D02*
X-71888096Y-54925000D01*
X-71850000Y-55001190D01*
X-71811905Y-55039285D01*
X-71697620Y-55115476D01*
X-71545239Y-55153571D01*
X-71240477Y-55153571D01*
X-71164286Y-55115476D01*
X-71126191Y-55077380D01*
X-71088096Y-55001190D01*
X-71088096Y-54848809D01*
X-71126191Y-54772619D01*
X-71164286Y-54734523D01*
X-71240477Y-54696428D01*
X-71430953Y-54696428D01*
X-71507143Y-54734523D01*
X-71545239Y-54772619D01*
X-71583334Y-54848809D01*
X-71583334Y-55001190D01*
X-71545239Y-55077380D01*
X-71507143Y-55115476D01*
X-71430953Y-55153571D01*
D10*
X-78991667Y-51041666D02*
X-79391667Y-51041666D01*
X-79191667Y-51041666D02*
X-79191667Y-50341666D01*
X-79258334Y-50441666D01*
X-79325000Y-50508333D01*
X-79391667Y-50541666D01*
X-78558334Y-50341666D02*
X-78491667Y-50341666D01*
X-78425000Y-50375000D01*
X-78391667Y-50408333D01*
X-78358334Y-50475000D01*
X-78325000Y-50608333D01*
X-78325000Y-50775000D01*
X-78358334Y-50908333D01*
X-78391667Y-50975000D01*
X-78425000Y-51008333D01*
X-78491667Y-51041666D01*
X-78558334Y-51041666D01*
X-78625000Y-51008333D01*
X-78658334Y-50975000D01*
X-78691667Y-50908333D01*
X-78725000Y-50775000D01*
X-78725000Y-50608333D01*
X-78691667Y-50475000D01*
X-78658334Y-50408333D01*
X-78625000Y-50375000D01*
X-78558334Y-50341666D01*
X-77891667Y-50341666D02*
X-77825000Y-50341666D01*
X-77758334Y-50375000D01*
X-77725000Y-50408333D01*
X-77691667Y-50475000D01*
X-77658334Y-50608333D01*
X-77658334Y-50775000D01*
X-77691667Y-50908333D01*
X-77725000Y-50975000D01*
X-77758334Y-51008333D01*
X-77825000Y-51041666D01*
X-77891667Y-51041666D01*
X-77958334Y-51008333D01*
X-77991667Y-50975000D01*
X-78025000Y-50908333D01*
X-78058334Y-50775000D01*
X-78058334Y-50608333D01*
X-78025000Y-50475000D01*
X-77991667Y-50408333D01*
X-77958334Y-50375000D01*
X-77891667Y-50341666D01*
X-76958334Y-51041666D02*
X-77191667Y-50708333D01*
X-77358334Y-51041666D02*
X-77358334Y-50341666D01*
X-77091667Y-50341666D01*
X-77025000Y-50375000D01*
X-76991667Y-50408333D01*
X-76958334Y-50475000D01*
X-76958334Y-50575000D01*
X-76991667Y-50641666D01*
X-77025000Y-50675000D01*
X-77091667Y-50708333D01*
X-77358334Y-50708333D01*
D13*
X-78308334Y-52536904D02*
X-78575000Y-52155952D01*
X-78765477Y-52536904D02*
X-78765477Y-51736904D01*
X-78460715Y-51736904D01*
X-78384524Y-51775000D01*
X-78346429Y-51813095D01*
X-78308334Y-51889285D01*
X-78308334Y-52003571D01*
X-78346429Y-52079761D01*
X-78384524Y-52117857D01*
X-78460715Y-52155952D01*
X-78765477Y-52155952D01*
X-78041667Y-51736904D02*
X-77508334Y-51736904D01*
X-77851191Y-52536904D01*
D10*
X-89283452Y-57579044D02*
X-89250119Y-57545711D01*
X-89183452Y-57512377D01*
X-89016786Y-57512377D01*
X-88950119Y-57545711D01*
X-88916786Y-57579044D01*
X-88883452Y-57645711D01*
X-88883452Y-57712377D01*
X-88916786Y-57812377D01*
X-89316786Y-58212377D01*
X-88883452Y-58212377D01*
X-88583452Y-58212377D02*
X-88583452Y-57512377D01*
X-88183452Y-58212377D02*
X-88483452Y-57812377D01*
X-88183452Y-57512377D02*
X-88583452Y-57912377D01*
D13*
X-86533334Y-58186904D02*
X-86800000Y-57805952D01*
X-86990477Y-58186904D02*
X-86990477Y-57386904D01*
X-86685715Y-57386904D01*
X-86609524Y-57425000D01*
X-86571429Y-57463095D01*
X-86533334Y-57539285D01*
X-86533334Y-57653571D01*
X-86571429Y-57729761D01*
X-86609524Y-57767857D01*
X-86685715Y-57805952D01*
X-86990477Y-57805952D01*
X-86076191Y-57729761D02*
X-86152381Y-57691666D01*
X-86190477Y-57653571D01*
X-86228572Y-57577380D01*
X-86228572Y-57539285D01*
X-86190477Y-57463095D01*
X-86152381Y-57425000D01*
X-86076191Y-57386904D01*
X-85923810Y-57386904D01*
X-85847620Y-57425000D01*
X-85809524Y-57463095D01*
X-85771429Y-57539285D01*
X-85771429Y-57577380D01*
X-85809524Y-57653571D01*
X-85847620Y-57691666D01*
X-85923810Y-57729761D01*
X-86076191Y-57729761D01*
X-86152381Y-57767857D01*
X-86190477Y-57805952D01*
X-86228572Y-57882142D01*
X-86228572Y-58034523D01*
X-86190477Y-58110714D01*
X-86152381Y-58148809D01*
X-86076191Y-58186904D01*
X-85923810Y-58186904D01*
X-85847620Y-58148809D01*
X-85809524Y-58110714D01*
X-85771429Y-58034523D01*
X-85771429Y-57882142D01*
X-85809524Y-57805952D01*
X-85847620Y-57767857D01*
X-85923810Y-57729761D01*
D10*
X-76816667Y-43991666D02*
X-76350000Y-43991666D01*
X-76650000Y-44691666D01*
X-76083334Y-44691666D02*
X-76083334Y-43991666D01*
X-75683334Y-44691666D02*
X-75983334Y-44291666D01*
X-75683334Y-43991666D02*
X-76083334Y-44391666D01*
X-75050000Y-43991666D02*
X-75383334Y-43991666D01*
X-75416667Y-44325000D01*
X-75383334Y-44291666D01*
X-75316667Y-44258333D01*
X-75150000Y-44258333D01*
X-75083334Y-44291666D01*
X-75050000Y-44325000D01*
X-75016667Y-44391666D01*
X-75016667Y-44558333D01*
X-75050000Y-44625000D01*
X-75083334Y-44658333D01*
X-75150000Y-44691666D01*
X-75316667Y-44691666D01*
X-75383334Y-44658333D01*
X-75416667Y-44625000D01*
D13*
X-75983334Y-46136904D02*
X-76250000Y-45755952D01*
X-76440477Y-46136904D02*
X-76440477Y-45336904D01*
X-76135715Y-45336904D01*
X-76059524Y-45375000D01*
X-76021429Y-45413095D01*
X-75983334Y-45489285D01*
X-75983334Y-45603571D01*
X-76021429Y-45679761D01*
X-76059524Y-45717857D01*
X-76135715Y-45755952D01*
X-76440477Y-45755952D01*
X-75602381Y-46136904D02*
X-75450000Y-46136904D01*
X-75373810Y-46098809D01*
X-75335715Y-46060714D01*
X-75259524Y-45946428D01*
X-75221429Y-45794047D01*
X-75221429Y-45489285D01*
X-75259524Y-45413095D01*
X-75297620Y-45375000D01*
X-75373810Y-45336904D01*
X-75526191Y-45336904D01*
X-75602381Y-45375000D01*
X-75640477Y-45413095D01*
X-75678572Y-45489285D01*
X-75678572Y-45679761D01*
X-75640477Y-45755952D01*
X-75602381Y-45794047D01*
X-75526191Y-45832142D01*
X-75373810Y-45832142D01*
X-75297620Y-45794047D01*
X-75259524Y-45755952D01*
X-75221429Y-45679761D01*
D10*
X-75950000Y-47836666D02*
X-76350000Y-47836666D01*
X-76150000Y-47836666D02*
X-76150000Y-47136666D01*
X-76216667Y-47236666D01*
X-76283334Y-47303333D01*
X-76350000Y-47336666D01*
X-75650000Y-47836666D02*
X-75650000Y-47136666D01*
X-75250000Y-47836666D02*
X-75550000Y-47436666D01*
X-75250000Y-47136666D02*
X-75650000Y-47536666D01*
D13*
X-76314286Y-49311904D02*
X-76580953Y-48930952D01*
X-76771429Y-49311904D02*
X-76771429Y-48511904D01*
X-76466667Y-48511904D01*
X-76390477Y-48550000D01*
X-76352381Y-48588095D01*
X-76314286Y-48664285D01*
X-76314286Y-48778571D01*
X-76352381Y-48854761D01*
X-76390477Y-48892857D01*
X-76466667Y-48930952D01*
X-76771429Y-48930952D01*
X-75552381Y-49311904D02*
X-76009524Y-49311904D01*
X-75780953Y-49311904D02*
X-75780953Y-48511904D01*
X-75857143Y-48626190D01*
X-75933334Y-48702380D01*
X-76009524Y-48740476D01*
X-75057143Y-48511904D02*
X-74980953Y-48511904D01*
X-74904762Y-48550000D01*
X-74866667Y-48588095D01*
X-74828572Y-48664285D01*
X-74790477Y-48816666D01*
X-74790477Y-49007142D01*
X-74828572Y-49159523D01*
X-74866667Y-49235714D01*
X-74904762Y-49273809D01*
X-74980953Y-49311904D01*
X-75057143Y-49311904D01*
X-75133334Y-49273809D01*
X-75171429Y-49235714D01*
X-75209524Y-49159523D01*
X-75247620Y-49007142D01*
X-75247620Y-48816666D01*
X-75209524Y-48664285D01*
X-75171429Y-48588095D01*
X-75133334Y-48550000D01*
X-75057143Y-48511904D01*
D10*
X-62813157Y-52295452D02*
X-62419234Y-52364912D01*
X-62737749Y-53019548D02*
X-62616195Y-52330182D01*
X-62310999Y-53094795D02*
X-62189445Y-52405430D01*
X-61926830Y-52451736D01*
X-61866964Y-52496139D01*
X-61839925Y-52534754D01*
X-61818675Y-52606197D01*
X-61836040Y-52704677D01*
X-61880443Y-52764543D01*
X-61919059Y-52791582D01*
X-61990501Y-52812832D01*
X-62253116Y-52766526D01*
X-61245155Y-52808866D02*
X-61326191Y-53268443D01*
X-61362984Y-52517310D02*
X-61613942Y-52980772D01*
X-61187192Y-53056020D01*
X-60712233Y-52665902D02*
X-60646580Y-52677478D01*
X-60586714Y-52721882D01*
X-60559675Y-52760497D01*
X-60538425Y-52831939D01*
X-60528751Y-52969035D01*
X-60557692Y-53133170D01*
X-60613673Y-53258689D01*
X-60658076Y-53318555D01*
X-60696691Y-53345593D01*
X-60768133Y-53366844D01*
X-60833787Y-53355267D01*
X-60893653Y-53310864D01*
X-60920691Y-53272249D01*
X-60941942Y-53200807D01*
X-60951616Y-53063711D01*
X-60922674Y-52899576D01*
X-60866694Y-52774057D01*
X-60822291Y-52714191D01*
X-60783676Y-52687152D01*
X-60712233Y-52665902D01*
X-59858733Y-52816397D02*
X-60187003Y-52758514D01*
X-60277712Y-53080995D01*
X-60239097Y-53053957D01*
X-60167655Y-53032706D01*
X-60003520Y-53061648D01*
X-59943655Y-53106051D01*
X-59916616Y-53144666D01*
X-59895366Y-53216108D01*
X-59924307Y-53380243D01*
X-59968711Y-53440109D01*
X-60007326Y-53467147D01*
X-60078768Y-53488398D01*
X-60242902Y-53459456D01*
X-60302768Y-53415053D01*
X-60329807Y-53376438D01*
X-59235022Y-52926374D02*
X-59366329Y-52903221D01*
X-59437772Y-52924471D01*
X-59476387Y-52951510D01*
X-59559405Y-53038414D01*
X-59615386Y-53163934D01*
X-59661692Y-53426549D01*
X-59640441Y-53497991D01*
X-59613403Y-53536606D01*
X-59553537Y-53581010D01*
X-59422229Y-53604163D01*
X-59350787Y-53582913D01*
X-59312172Y-53555874D01*
X-59267769Y-53496008D01*
X-59238827Y-53331874D01*
X-59260078Y-53260432D01*
X-59287116Y-53221816D01*
X-59346982Y-53177413D01*
X-59478290Y-53154260D01*
X-59549732Y-53175510D01*
X-59588347Y-53202549D01*
X-59632750Y-53262415D01*
D13*
X-66984524Y-55611904D02*
X-66984524Y-56259523D01*
X-66946429Y-56335714D01*
X-66908334Y-56373809D01*
X-66832143Y-56411904D01*
X-66679762Y-56411904D01*
X-66603572Y-56373809D01*
X-66565477Y-56335714D01*
X-66527381Y-56259523D01*
X-66527381Y-55611904D01*
X-66184524Y-55688095D02*
X-66146429Y-55650000D01*
X-66070239Y-55611904D01*
X-65879762Y-55611904D01*
X-65803572Y-55650000D01*
X-65765477Y-55688095D01*
X-65727381Y-55764285D01*
X-65727381Y-55840476D01*
X-65765477Y-55954761D01*
X-66222620Y-56411904D01*
X-65727381Y-56411904D01*
D10*
X-85715033Y-46318707D02*
X-85831699Y-46116635D01*
X-86149242Y-46299968D02*
X-85543024Y-45949968D01*
X-85376357Y-46238643D01*
X-85837041Y-46774049D02*
X-85815909Y-46877318D01*
X-85732575Y-47021656D01*
X-85670374Y-47062724D01*
X-85624840Y-47074925D01*
X-85550438Y-47070459D01*
X-85492703Y-47037126D01*
X-85451635Y-46974925D01*
X-85439434Y-46929391D01*
X-85443900Y-46854989D01*
X-85481699Y-46722853D01*
X-85486165Y-46648451D01*
X-85473964Y-46602917D01*
X-85432896Y-46540716D01*
X-85375161Y-46507382D01*
X-85300759Y-46502917D01*
X-85255225Y-46515117D01*
X-85193024Y-46556186D01*
X-85109691Y-46700523D01*
X-85088558Y-46803793D01*
X-84943024Y-46989199D02*
X-84726357Y-47364476D01*
X-85073964Y-47295737D01*
X-85023964Y-47382339D01*
X-85019498Y-47456741D01*
X-85031699Y-47502275D01*
X-85072768Y-47564476D01*
X-85217105Y-47647810D01*
X-85291507Y-47652275D01*
X-85337041Y-47640075D01*
X-85399242Y-47599006D01*
X-85499242Y-47425801D01*
X-85503708Y-47351399D01*
X-85491507Y-47305865D01*
X-84999242Y-48291826D02*
X-85199242Y-47945416D01*
X-85099242Y-48118621D02*
X-84493024Y-47768621D01*
X-84612960Y-47760886D01*
X-84704028Y-47736485D01*
X-84766229Y-47695416D01*
X-84317426Y-48206100D02*
X-84271892Y-48218301D01*
X-84209691Y-48259369D01*
X-84126357Y-48403707D01*
X-84121892Y-48478108D01*
X-84134092Y-48523643D01*
X-84175161Y-48585843D01*
X-84232896Y-48619177D01*
X-84336165Y-48640309D01*
X-84882575Y-48493899D01*
X-84665909Y-48869177D01*
X-84081699Y-49147724D02*
X-84198366Y-48945651D01*
X-84515909Y-49128984D02*
X-83909691Y-48778984D01*
X-83743024Y-49067660D01*
X-83984968Y-49515266D02*
X-83718302Y-49977146D01*
X-83021892Y-50383364D02*
X-83026357Y-50308963D01*
X-83076357Y-50222360D01*
X-83155225Y-50152424D01*
X-83246293Y-50128022D01*
X-83320695Y-50132488D01*
X-83452832Y-50170287D01*
X-83539434Y-50220287D01*
X-83638238Y-50315822D01*
X-83679306Y-50378022D01*
X-83703708Y-50469091D01*
X-83682575Y-50572360D01*
X-83649242Y-50630095D01*
X-83570374Y-50700031D01*
X-83524840Y-50712232D01*
X-83322768Y-50595565D01*
X-83389434Y-50480095D01*
D13*
X-85234524Y-54386904D02*
X-85234524Y-55034523D01*
X-85196429Y-55110714D01*
X-85158334Y-55148809D01*
X-85082143Y-55186904D01*
X-84929762Y-55186904D01*
X-84853572Y-55148809D01*
X-84815477Y-55110714D01*
X-84777381Y-55034523D01*
X-84777381Y-54386904D01*
X-84472620Y-54386904D02*
X-83977381Y-54386904D01*
X-84244048Y-54691666D01*
X-84129762Y-54691666D01*
X-84053572Y-54729761D01*
X-84015477Y-54767857D01*
X-83977381Y-54844047D01*
X-83977381Y-55034523D01*
X-84015477Y-55110714D01*
X-84053572Y-55148809D01*
X-84129762Y-55186904D01*
X-84358334Y-55186904D01*
X-84434524Y-55148809D01*
X-84472620Y-55110714D01*
D10*
X-91250000Y-56366666D02*
X-91250000Y-56600000D01*
X-90883334Y-56600000D02*
X-91583334Y-56600000D01*
X-91583334Y-56266666D01*
X-90916667Y-56033333D02*
X-90883334Y-55933333D01*
X-90883334Y-55766666D01*
X-90916667Y-55700000D01*
X-90950000Y-55666666D01*
X-91016667Y-55633333D01*
X-91083334Y-55633333D01*
X-91150000Y-55666666D01*
X-91183334Y-55700000D01*
X-91216667Y-55766666D01*
X-91250000Y-55900000D01*
X-91283334Y-55966666D01*
X-91316667Y-56000000D01*
X-91383334Y-56033333D01*
X-91450000Y-56033333D01*
X-91516667Y-56000000D01*
X-91550000Y-55966666D01*
X-91583334Y-55900000D01*
X-91583334Y-55733333D01*
X-91550000Y-55633333D01*
X-91283334Y-55233333D02*
X-91316667Y-55300000D01*
X-91350000Y-55333333D01*
X-91416667Y-55366666D01*
X-91450000Y-55366666D01*
X-91516667Y-55333333D01*
X-91550000Y-55300000D01*
X-91583334Y-55233333D01*
X-91583334Y-55100000D01*
X-91550000Y-55033333D01*
X-91516667Y-55000000D01*
X-91450000Y-54966666D01*
X-91416667Y-54966666D01*
X-91350000Y-55000000D01*
X-91316667Y-55033333D01*
X-91283334Y-55100000D01*
X-91283334Y-55233333D01*
X-91250000Y-55300000D01*
X-91216667Y-55333333D01*
X-91150000Y-55366666D01*
X-91016667Y-55366666D01*
X-90950000Y-55333333D01*
X-90916667Y-55300000D01*
X-90883334Y-55233333D01*
X-90883334Y-55100000D01*
X-90916667Y-55033333D01*
X-90950000Y-55000000D01*
X-91016667Y-54966666D01*
X-91150000Y-54966666D01*
X-91216667Y-55000000D01*
X-91250000Y-55033333D01*
X-91283334Y-55100000D01*
X-91516667Y-54700000D02*
X-91550000Y-54666666D01*
X-91583334Y-54600000D01*
X-91583334Y-54433333D01*
X-91550000Y-54366666D01*
X-91516667Y-54333333D01*
X-91450000Y-54300000D01*
X-91383334Y-54300000D01*
X-91283334Y-54333333D01*
X-90883334Y-54733333D01*
X-90883334Y-54300000D01*
X-91583334Y-53866666D02*
X-91583334Y-53800000D01*
X-91550000Y-53733333D01*
X-91516667Y-53700000D01*
X-91450000Y-53666666D01*
X-91316667Y-53633333D01*
X-91150000Y-53633333D01*
X-91016667Y-53666666D01*
X-90950000Y-53700000D01*
X-90916667Y-53733333D01*
X-90883334Y-53800000D01*
X-90883334Y-53866666D01*
X-90916667Y-53933333D01*
X-90950000Y-53966666D01*
X-91016667Y-54000000D01*
X-91150000Y-54033333D01*
X-91316667Y-54033333D01*
X-91450000Y-54000000D01*
X-91516667Y-53966666D01*
X-91550000Y-53933333D01*
X-91583334Y-53866666D01*
X-91583334Y-53000000D02*
X-91583334Y-53333333D01*
X-91250000Y-53366666D01*
X-91283334Y-53333333D01*
X-91316667Y-53266666D01*
X-91316667Y-53100000D01*
X-91283334Y-53033333D01*
X-91250000Y-53000000D01*
X-91183334Y-52966666D01*
X-91016667Y-52966666D01*
X-90950000Y-53000000D01*
X-90916667Y-53033333D01*
X-90883334Y-53100000D01*
X-90883334Y-53266666D01*
X-90916667Y-53333333D01*
X-90950000Y-53366666D01*
D13*
X-89309524Y-54386904D02*
X-89309524Y-55034523D01*
X-89271429Y-55110714D01*
X-89233334Y-55148809D01*
X-89157143Y-55186904D01*
X-89004762Y-55186904D01*
X-88928572Y-55148809D01*
X-88890477Y-55110714D01*
X-88852381Y-55034523D01*
X-88852381Y-54386904D01*
X-88128572Y-54653571D02*
X-88128572Y-55186904D01*
X-88319048Y-54348809D02*
X-88509524Y-54920238D01*
X-88014286Y-54920238D01*
D10*
X-63077824Y-47131374D02*
X-62896651Y-46455226D01*
X-62800677Y-46998580D01*
X-62445885Y-46576009D01*
X-62627058Y-47252157D01*
X-62220502Y-46636400D02*
X-61834132Y-46739927D01*
X-62208491Y-47364312D02*
X-62027317Y-46688163D01*
X-61673145Y-46783064D02*
X-61254577Y-46895219D01*
X-61548978Y-47092408D01*
X-61452385Y-47118290D01*
X-61396617Y-47167742D01*
X-61373047Y-47208567D01*
X-61358104Y-47281589D01*
X-61401241Y-47442577D01*
X-61450693Y-47498344D01*
X-61491518Y-47521915D01*
X-61564540Y-47536858D01*
X-61757725Y-47485094D01*
X-61813493Y-47435642D01*
X-61837063Y-47394817D01*
X-60675021Y-47050510D02*
X-60803811Y-47016001D01*
X-60876834Y-47030944D01*
X-60917658Y-47054514D01*
X-61007935Y-47133852D01*
X-61074642Y-47254015D01*
X-61143661Y-47511595D01*
X-61128718Y-47584617D01*
X-61105147Y-47625442D01*
X-61049380Y-47674894D01*
X-60920590Y-47709404D01*
X-60847567Y-47694461D01*
X-60806742Y-47670890D01*
X-60757290Y-47615123D01*
X-60714154Y-47454135D01*
X-60729097Y-47381113D01*
X-60752667Y-47340288D01*
X-60808435Y-47290836D01*
X-60937225Y-47256327D01*
X-61010247Y-47271269D01*
X-61051072Y-47294840D01*
X-61100524Y-47350607D01*
X-60192058Y-47179920D02*
X-60127663Y-47197174D01*
X-60071895Y-47246626D01*
X-60048325Y-47287451D01*
X-60033382Y-47360474D01*
X-60035694Y-47497891D01*
X-60078830Y-47658879D01*
X-60145537Y-47779041D01*
X-60194989Y-47834809D01*
X-60235814Y-47858379D01*
X-60308837Y-47873322D01*
X-60373232Y-47856068D01*
X-60428999Y-47806616D01*
X-60452570Y-47765791D01*
X-60467512Y-47692768D01*
X-60465201Y-47555351D01*
X-60422064Y-47394363D01*
X-60355358Y-47274201D01*
X-60305905Y-47218433D01*
X-60265081Y-47194863D01*
X-60192058Y-47179920D01*
X-59657951Y-47633616D02*
X-59713719Y-47584164D01*
X-59737289Y-47543339D01*
X-59752232Y-47470317D01*
X-59743605Y-47438119D01*
X-59694152Y-47382352D01*
X-59653328Y-47358781D01*
X-59580305Y-47343838D01*
X-59451515Y-47378348D01*
X-59395747Y-47427800D01*
X-59372177Y-47468625D01*
X-59357234Y-47541647D01*
X-59365861Y-47573844D01*
X-59415314Y-47629612D01*
X-59456138Y-47653182D01*
X-59529161Y-47668125D01*
X-59657951Y-47633616D01*
X-59730973Y-47648559D01*
X-59771798Y-47672129D01*
X-59821250Y-47727897D01*
X-59855759Y-47856687D01*
X-59840817Y-47929710D01*
X-59817246Y-47970534D01*
X-59761479Y-48019986D01*
X-59632688Y-48054496D01*
X-59559666Y-48039553D01*
X-59518841Y-48015983D01*
X-59469389Y-47960215D01*
X-59434880Y-47831425D01*
X-59449823Y-47758402D01*
X-59473393Y-47717577D01*
X-59529161Y-47668125D01*
D13*
X-67334524Y-50336904D02*
X-67334524Y-50984523D01*
X-67296429Y-51060714D01*
X-67258334Y-51098809D01*
X-67182143Y-51136904D01*
X-67029762Y-51136904D01*
X-66953572Y-51098809D01*
X-66915477Y-51060714D01*
X-66877381Y-50984523D01*
X-66877381Y-50336904D01*
X-66115477Y-50336904D02*
X-66496429Y-50336904D01*
X-66534524Y-50717857D01*
X-66496429Y-50679761D01*
X-66420239Y-50641666D01*
X-66229762Y-50641666D01*
X-66153572Y-50679761D01*
X-66115477Y-50717857D01*
X-66077381Y-50794047D01*
X-66077381Y-50984523D01*
X-66115477Y-51060714D01*
X-66153572Y-51098809D01*
X-66229762Y-51136904D01*
X-66420239Y-51136904D01*
X-66496429Y-51098809D01*
X-66534524Y-51060714D01*
X-90046667Y-49936904D02*
X-90046667Y-50508333D01*
X-90084762Y-50622619D01*
X-90160953Y-50698809D01*
X-90275239Y-50736904D01*
X-90351429Y-50736904D01*
X-89551429Y-50279761D02*
X-89627620Y-50241666D01*
X-89665715Y-50203571D01*
X-89703810Y-50127380D01*
X-89703810Y-50089285D01*
X-89665715Y-50013095D01*
X-89627620Y-49975000D01*
X-89551429Y-49936904D01*
X-89399048Y-49936904D01*
X-89322858Y-49975000D01*
X-89284762Y-50013095D01*
X-89246667Y-50089285D01*
X-89246667Y-50127380D01*
X-89284762Y-50203571D01*
X-89322858Y-50241666D01*
X-89399048Y-50279761D01*
X-89551429Y-50279761D01*
X-89627620Y-50317857D01*
X-89665715Y-50355952D01*
X-89703810Y-50432142D01*
X-89703810Y-50584523D01*
X-89665715Y-50660714D01*
X-89627620Y-50698809D01*
X-89551429Y-50736904D01*
X-89399048Y-50736904D01*
X-89322858Y-50698809D01*
X-89284762Y-50660714D01*
X-89246667Y-50584523D01*
X-89246667Y-50432142D01*
X-89284762Y-50355952D01*
X-89322858Y-50317857D01*
X-89399048Y-50279761D01*
X-23188096Y3973334D02*
X-22616667Y3973334D01*
X-22502381Y3935239D01*
X-22426191Y3859048D01*
X-22388096Y3744762D01*
X-22388096Y3668572D01*
X-23188096Y4278096D02*
X-23188096Y4773334D01*
X-22883334Y4506667D01*
X-22883334Y4620953D01*
X-22845239Y4697143D01*
X-22807143Y4735239D01*
X-22730953Y4773334D01*
X-22540477Y4773334D01*
X-22464286Y4735239D01*
X-22426191Y4697143D01*
X-22388096Y4620953D01*
X-22388096Y4392381D01*
X-22426191Y4316191D01*
X-22464286Y4278096D01*
D10*
X-38033334Y15733334D02*
X-37600000Y15733334D01*
X-37833334Y15466667D01*
X-37733334Y15466667D01*
X-37666667Y15433334D01*
X-37633334Y15400000D01*
X-37600000Y15333334D01*
X-37600000Y15166667D01*
X-37633334Y15100000D01*
X-37666667Y15066667D01*
X-37733334Y15033334D01*
X-37933334Y15033334D01*
X-38000000Y15066667D01*
X-38033334Y15100000D01*
X-37366667Y15733334D02*
X-36933334Y15733334D01*
X-37166667Y15466667D01*
X-37066667Y15466667D01*
X-37000000Y15433334D01*
X-36966667Y15400000D01*
X-36933334Y15333334D01*
X-36933334Y15166667D01*
X-36966667Y15100000D01*
X-37000000Y15066667D01*
X-37066667Y15033334D01*
X-37266667Y15033334D01*
X-37333334Y15066667D01*
X-37366667Y15100000D01*
X-36633334Y15500000D02*
X-36633334Y15033334D01*
X-36633334Y15433334D02*
X-36600000Y15466667D01*
X-36533334Y15500000D01*
X-36433334Y15500000D01*
X-36366667Y15466667D01*
X-36333334Y15400000D01*
X-36333334Y15033334D01*
X-35766667Y15400000D02*
X-36000000Y15400000D01*
X-36000000Y15033334D02*
X-36000000Y15733334D01*
X-35666667Y15733334D01*
D13*
X-33970834Y15114286D02*
X-34008929Y15076191D01*
X-34123215Y15038096D01*
X-34199405Y15038096D01*
X-34313691Y15076191D01*
X-34389881Y15152381D01*
X-34427977Y15228572D01*
X-34466072Y15380953D01*
X-34466072Y15495239D01*
X-34427977Y15647620D01*
X-34389881Y15723810D01*
X-34313691Y15800000D01*
X-34199405Y15838096D01*
X-34123215Y15838096D01*
X-34008929Y15800000D01*
X-33970834Y15761905D01*
X-33208929Y15038096D02*
X-33666072Y15038096D01*
X-33437500Y15038096D02*
X-33437500Y15838096D01*
X-33513691Y15723810D01*
X-33589881Y15647620D01*
X-33666072Y15609524D01*
X-37723726Y20660763D02*
X-38017572Y20310571D01*
X-37870649Y20485667D02*
X-38483485Y20999897D01*
X-38444911Y20868071D01*
X-38435520Y20760731D01*
X-38455312Y20677879D01*
X-38018229Y21554368D02*
X-37969255Y21612733D01*
X-37891098Y21646611D01*
X-37837428Y21651306D01*
X-37754575Y21631515D01*
X-37613358Y21562749D01*
X-37467444Y21440313D01*
X-37375201Y21313182D01*
X-37341323Y21235025D01*
X-37336627Y21181355D01*
X-37356419Y21098503D01*
X-37405393Y21040137D01*
X-37483550Y21006259D01*
X-37537220Y21001564D01*
X-37620072Y21021355D01*
X-37761290Y21090121D01*
X-37907203Y21212557D01*
X-37999447Y21339688D01*
X-38033325Y21417845D01*
X-38038020Y21471515D01*
X-38018229Y21554368D01*
X-37201772Y22112524D02*
X-36793215Y21769704D01*
X-37422156Y21849880D02*
X-37101147Y21580521D01*
X-37018294Y21560730D01*
X-36940137Y21594608D01*
X-36866676Y21682156D01*
X-36846884Y21765008D01*
X-36851580Y21818678D01*
X-36697942Y22535167D02*
X-36869352Y22330889D01*
X-36548343Y22061530D02*
X-37161179Y22575760D01*
X-36916307Y22867587D01*
X-33714286Y19616667D02*
X-33676191Y19578572D01*
X-33638096Y19464286D01*
X-33638096Y19388096D01*
X-33676191Y19273810D01*
X-33752381Y19197620D01*
X-33828572Y19159524D01*
X-33980953Y19121429D01*
X-34095239Y19121429D01*
X-34247620Y19159524D01*
X-34323810Y19197620D01*
X-34400000Y19273810D01*
X-34438096Y19388096D01*
X-34438096Y19464286D01*
X-34400000Y19578572D01*
X-34361905Y19616667D01*
X-34361905Y19921429D02*
X-34400000Y19959524D01*
X-34438096Y20035715D01*
X-34438096Y20226191D01*
X-34400000Y20302381D01*
X-34361905Y20340477D01*
X-34285715Y20378572D01*
X-34209524Y20378572D01*
X-34095239Y20340477D01*
X-33638096Y19883334D01*
X-33638096Y20378572D01*
X-49388096Y-45913333D02*
X-48816667Y-45913333D01*
X-48702381Y-45875238D01*
X-48626191Y-45799047D01*
X-48588096Y-45684761D01*
X-48588096Y-45608571D01*
X-48588096Y-46713333D02*
X-48588096Y-46256190D01*
X-48588096Y-46484761D02*
X-49388096Y-46484761D01*
X-49273810Y-46408571D01*
X-49197620Y-46332380D01*
X-49159524Y-46256190D01*
D10*
X-38066667Y14016667D02*
X-38033334Y14050000D01*
X-37966667Y14083334D01*
X-37800000Y14083334D01*
X-37733334Y14050000D01*
X-37700000Y14016667D01*
X-37666667Y13950000D01*
X-37666667Y13883334D01*
X-37700000Y13783334D01*
X-38100000Y13383334D01*
X-37666667Y13383334D01*
X-37433334Y14083334D02*
X-36966667Y14083334D01*
X-37266667Y13383334D01*
X-36566667Y14083334D02*
X-36500000Y14083334D01*
X-36433334Y14050000D01*
X-36400000Y14016667D01*
X-36366667Y13950000D01*
X-36333334Y13816667D01*
X-36333334Y13650000D01*
X-36366667Y13516667D01*
X-36400000Y13450000D01*
X-36433334Y13416667D01*
X-36500000Y13383334D01*
X-36566667Y13383334D01*
X-36633334Y13416667D01*
X-36666667Y13450000D01*
X-36700000Y13516667D01*
X-36733334Y13650000D01*
X-36733334Y13816667D01*
X-36700000Y13950000D01*
X-36666667Y14016667D01*
X-36633334Y14050000D01*
X-36566667Y14083334D01*
X-35633334Y13383334D02*
X-35866667Y13716667D01*
X-36033334Y13383334D02*
X-36033334Y14083334D01*
X-35766667Y14083334D01*
X-35700000Y14050000D01*
X-35666667Y14016667D01*
X-35633334Y13950000D01*
X-35633334Y13850000D01*
X-35666667Y13783334D01*
X-35700000Y13750000D01*
X-35766667Y13716667D01*
X-36033334Y13716667D01*
D13*
X-33983334Y13338096D02*
X-34250000Y13719048D01*
X-34440477Y13338096D02*
X-34440477Y14138096D01*
X-34135715Y14138096D01*
X-34059524Y14100000D01*
X-34021429Y14061905D01*
X-33983334Y13985715D01*
X-33983334Y13871429D01*
X-34021429Y13795239D01*
X-34059524Y13757143D01*
X-34135715Y13719048D01*
X-34440477Y13719048D01*
X-33678572Y14061905D02*
X-33640477Y14100000D01*
X-33564286Y14138096D01*
X-33373810Y14138096D01*
X-33297620Y14100000D01*
X-33259524Y14061905D01*
X-33221429Y13985715D01*
X-33221429Y13909524D01*
X-33259524Y13795239D01*
X-33716667Y13338096D01*
X-33221429Y13338096D01*
D10*
X-31404167Y13583334D02*
X-31804167Y13583334D01*
X-31604167Y13583334D02*
X-31604167Y14283334D01*
X-31670834Y14183334D01*
X-31737500Y14116667D01*
X-31804167Y14083334D01*
X-30770834Y14283334D02*
X-31104167Y14283334D01*
X-31137500Y13950000D01*
X-31104167Y13983334D01*
X-31037500Y14016667D01*
X-30870834Y14016667D01*
X-30804167Y13983334D01*
X-30770834Y13950000D01*
X-30737500Y13883334D01*
X-30737500Y13716667D01*
X-30770834Y13650000D01*
X-30804167Y13616667D01*
X-30870834Y13583334D01*
X-31037500Y13583334D01*
X-31104167Y13616667D01*
X-31137500Y13650000D01*
X-30304167Y14283334D02*
X-30237500Y14283334D01*
X-30170834Y14250000D01*
X-30137500Y14216667D01*
X-30104167Y14150000D01*
X-30070834Y14016667D01*
X-30070834Y13850000D01*
X-30104167Y13716667D01*
X-30137500Y13650000D01*
X-30170834Y13616667D01*
X-30237500Y13583334D01*
X-30304167Y13583334D01*
X-30370834Y13616667D01*
X-30404167Y13650000D01*
X-30437500Y13716667D01*
X-30470834Y13850000D01*
X-30470834Y14016667D01*
X-30437500Y14150000D01*
X-30404167Y14216667D01*
X-30370834Y14250000D01*
X-30304167Y14283334D01*
X-29370834Y13583334D02*
X-29604167Y13916667D01*
X-29770834Y13583334D02*
X-29770834Y14283334D01*
X-29504167Y14283334D01*
X-29437500Y14250000D01*
X-29404167Y14216667D01*
X-29370834Y14150000D01*
X-29370834Y14050000D01*
X-29404167Y13983334D01*
X-29437500Y13950000D01*
X-29504167Y13916667D01*
X-29770834Y13916667D01*
D13*
X-30720834Y15038096D02*
X-30987500Y15419048D01*
X-31177977Y15038096D02*
X-31177977Y15838096D01*
X-30873215Y15838096D01*
X-30797024Y15800000D01*
X-30758929Y15761905D01*
X-30720834Y15685715D01*
X-30720834Y15571429D01*
X-30758929Y15495239D01*
X-30797024Y15457143D01*
X-30873215Y15419048D01*
X-31177977Y15419048D01*
X-30454167Y15838096D02*
X-29958929Y15838096D01*
X-30225596Y15533334D01*
X-30111310Y15533334D01*
X-30035120Y15495239D01*
X-29997024Y15457143D01*
X-29958929Y15380953D01*
X-29958929Y15190477D01*
X-29997024Y15114286D01*
X-30035120Y15076191D01*
X-30111310Y15038096D01*
X-30339881Y15038096D01*
X-30416072Y15076191D01*
X-30454167Y15114286D01*
X-22716667Y65126191D02*
X-22602381Y65088096D01*
X-22411905Y65088096D01*
X-22335715Y65126191D01*
X-22297620Y65164286D01*
X-22259524Y65240477D01*
X-22259524Y65316667D01*
X-22297620Y65392858D01*
X-22335715Y65430953D01*
X-22411905Y65469048D01*
X-22564286Y65507143D01*
X-22640477Y65545239D01*
X-22678572Y65583334D01*
X-22716667Y65659524D01*
X-22716667Y65735715D01*
X-22678572Y65811905D01*
X-22640477Y65850000D01*
X-22564286Y65888096D01*
X-22373810Y65888096D01*
X-22259524Y65850000D01*
X-21992858Y65888096D02*
X-21802381Y65088096D01*
X-21650000Y65659524D01*
X-21497620Y65088096D01*
X-21307143Y65888096D01*
X-20583334Y65088096D02*
X-21040477Y65088096D01*
X-20811905Y65088096D02*
X-20811905Y65888096D01*
X-20888096Y65773810D01*
X-20964286Y65697620D01*
X-21040477Y65659524D01*
X-37064286Y61484286D02*
X-37102381Y61446191D01*
X-37216667Y61408096D01*
X-37292858Y61408096D01*
X-37407143Y61446191D01*
X-37483334Y61522381D01*
X-37521429Y61598572D01*
X-37559524Y61750953D01*
X-37559524Y61865239D01*
X-37521429Y62017620D01*
X-37483334Y62093810D01*
X-37407143Y62170000D01*
X-37292858Y62208096D01*
X-37216667Y62208096D01*
X-37102381Y62170000D01*
X-37064286Y62131905D01*
X-36302381Y61408096D02*
X-36759524Y61408096D01*
X-36530953Y61408096D02*
X-36530953Y62208096D01*
X-36607143Y62093810D01*
X-36683334Y62017620D01*
X-36759524Y61979524D01*
X-35997620Y62131905D02*
X-35959524Y62170000D01*
X-35883334Y62208096D01*
X-35692858Y62208096D01*
X-35616667Y62170000D01*
X-35578572Y62131905D01*
X-35540477Y62055715D01*
X-35540477Y61979524D01*
X-35578572Y61865239D01*
X-36035715Y61408096D01*
X-35540477Y61408096D01*
X-37064286Y62914286D02*
X-37102381Y62876191D01*
X-37216667Y62838096D01*
X-37292858Y62838096D01*
X-37407143Y62876191D01*
X-37483334Y62952381D01*
X-37521429Y63028572D01*
X-37559524Y63180953D01*
X-37559524Y63295239D01*
X-37521429Y63447620D01*
X-37483334Y63523810D01*
X-37407143Y63600000D01*
X-37292858Y63638096D01*
X-37216667Y63638096D01*
X-37102381Y63600000D01*
X-37064286Y63561905D01*
X-36302381Y62838096D02*
X-36759524Y62838096D01*
X-36530953Y62838096D02*
X-36530953Y63638096D01*
X-36607143Y63523810D01*
X-36683334Y63447620D01*
X-36759524Y63409524D01*
X-35997620Y63561905D02*
X-35959524Y63600000D01*
X-35883334Y63638096D01*
X-35692858Y63638096D01*
X-35616667Y63600000D01*
X-35578572Y63561905D01*
X-35540477Y63485715D01*
X-35540477Y63409524D01*
X-35578572Y63295239D01*
X-36035715Y62838096D01*
X-35540477Y62838096D01*
X-40258096Y63373215D02*
X-40639048Y63106548D01*
X-40258096Y62916072D02*
X-41058096Y62916072D01*
X-41058096Y63220834D01*
X-41020000Y63297024D01*
X-40981905Y63335120D01*
X-40905715Y63373215D01*
X-40791429Y63373215D01*
X-40715239Y63335120D01*
X-40677143Y63297024D01*
X-40639048Y63220834D01*
X-40639048Y62916072D01*
X-40258096Y64135120D02*
X-40258096Y63677977D01*
X-40258096Y63906548D02*
X-41058096Y63906548D01*
X-40943810Y63830358D01*
X-40867620Y63754167D01*
X-40829524Y63677977D01*
X-40791429Y64820834D02*
X-40258096Y64820834D01*
X-41096191Y64630358D02*
X-40524762Y64439881D01*
X-40524762Y64935120D01*
X-41688096Y63373215D02*
X-42069048Y63106548D01*
X-41688096Y62916072D02*
X-42488096Y62916072D01*
X-42488096Y63220834D01*
X-42450000Y63297024D01*
X-42411905Y63335120D01*
X-42335715Y63373215D01*
X-42221429Y63373215D01*
X-42145239Y63335120D01*
X-42107143Y63297024D01*
X-42069048Y63220834D01*
X-42069048Y62916072D01*
X-41688096Y64135120D02*
X-41688096Y63677977D01*
X-41688096Y63906548D02*
X-42488096Y63906548D01*
X-42373810Y63830358D01*
X-42297620Y63754167D01*
X-42259524Y63677977D01*
X-42221429Y64820834D02*
X-41688096Y64820834D01*
X-42526191Y64630358D02*
X-41954762Y64439881D01*
X-41954762Y64935120D01*
X-52568096Y62698215D02*
X-52949048Y62431548D01*
X-52568096Y62241072D02*
X-53368096Y62241072D01*
X-53368096Y62545834D01*
X-53330000Y62622024D01*
X-53291905Y62660120D01*
X-53215715Y62698215D01*
X-53101429Y62698215D01*
X-53025239Y62660120D01*
X-52987143Y62622024D01*
X-52949048Y62545834D01*
X-52949048Y62241072D01*
X-52568096Y63460120D02*
X-52568096Y63002977D01*
X-52568096Y63231548D02*
X-53368096Y63231548D01*
X-53253810Y63155358D01*
X-53177620Y63079167D01*
X-53139524Y63002977D01*
X-53368096Y64183929D02*
X-53368096Y63802977D01*
X-52987143Y63764881D01*
X-53025239Y63802977D01*
X-53063334Y63879167D01*
X-53063334Y64069643D01*
X-53025239Y64145834D01*
X-52987143Y64183929D01*
X-52910953Y64222024D01*
X-52720477Y64222024D01*
X-52644286Y64183929D01*
X-52606191Y64145834D01*
X-52568096Y64069643D01*
X-52568096Y63879167D01*
X-52606191Y63802977D01*
X-52644286Y63764881D01*
X-51138096Y62698215D02*
X-51519048Y62431548D01*
X-51138096Y62241072D02*
X-51938096Y62241072D01*
X-51938096Y62545834D01*
X-51900000Y62622024D01*
X-51861905Y62660120D01*
X-51785715Y62698215D01*
X-51671429Y62698215D01*
X-51595239Y62660120D01*
X-51557143Y62622024D01*
X-51519048Y62545834D01*
X-51519048Y62241072D01*
X-51138096Y63460120D02*
X-51138096Y63002977D01*
X-51138096Y63231548D02*
X-51938096Y63231548D01*
X-51823810Y63155358D01*
X-51747620Y63079167D01*
X-51709524Y63002977D01*
X-51938096Y64183929D02*
X-51938096Y63802977D01*
X-51557143Y63764881D01*
X-51595239Y63802977D01*
X-51633334Y63879167D01*
X-51633334Y64069643D01*
X-51595239Y64145834D01*
X-51557143Y64183929D01*
X-51480953Y64222024D01*
X-51290477Y64222024D01*
X-51214286Y64183929D01*
X-51176191Y64145834D01*
X-51138096Y64069643D01*
X-51138096Y63879167D01*
X-51176191Y63802977D01*
X-51214286Y63764881D01*
X-39488096Y65640477D02*
X-38840477Y65640477D01*
X-38764286Y65678572D01*
X-38726191Y65716667D01*
X-38688096Y65792858D01*
X-38688096Y65945239D01*
X-38726191Y66021429D01*
X-38764286Y66059524D01*
X-38840477Y66097620D01*
X-39488096Y66097620D01*
X-39488096Y66402381D02*
X-39488096Y66935715D01*
X-38688096Y66592858D01*
X-34597620Y60726191D02*
X-33597620Y61392858D01*
X-34597620Y61392858D02*
X-33597620Y60726191D01*
X-33692858Y62345239D02*
X-33645239Y62297620D01*
X-33597620Y62154762D01*
X-33597620Y62059524D01*
X-33645239Y61916667D01*
X-33740477Y61821429D01*
X-33835715Y61773810D01*
X-34026191Y61726191D01*
X-34169048Y61726191D01*
X-34359524Y61773810D01*
X-34454762Y61821429D01*
X-34550000Y61916667D01*
X-34597620Y62059524D01*
X-34597620Y62154762D01*
X-34550000Y62297620D01*
X-34502381Y62345239D01*
X-34597620Y63202381D02*
X-34597620Y63011905D01*
X-34550000Y62916667D01*
X-34502381Y62869048D01*
X-34359524Y62773810D01*
X-34169048Y62726191D01*
X-33788096Y62726191D01*
X-33692858Y62773810D01*
X-33645239Y62821429D01*
X-33597620Y62916667D01*
X-33597620Y63107143D01*
X-33645239Y63202381D01*
X-33692858Y63250000D01*
X-33788096Y63297620D01*
X-34026191Y63297620D01*
X-34121429Y63250000D01*
X-34169048Y63202381D01*
X-34216667Y63107143D01*
X-34216667Y62916667D01*
X-34169048Y62821429D01*
X-34121429Y62773810D01*
X-34026191Y62726191D01*
X-34502381Y63678572D02*
X-34550000Y63726191D01*
X-34597620Y63821429D01*
X-34597620Y64059524D01*
X-34550000Y64154762D01*
X-34502381Y64202381D01*
X-34407143Y64250000D01*
X-34311905Y64250000D01*
X-34169048Y64202381D01*
X-33597620Y63630953D01*
X-33597620Y64250000D01*
X-34597620Y64869048D02*
X-34597620Y64964286D01*
X-34550000Y65059524D01*
X-34502381Y65107143D01*
X-34407143Y65154762D01*
X-34216667Y65202381D01*
X-33978572Y65202381D01*
X-33788096Y65154762D01*
X-33692858Y65107143D01*
X-33645239Y65059524D01*
X-33597620Y64964286D01*
X-33597620Y64869048D01*
X-33645239Y64773810D01*
X-33692858Y64726191D01*
X-33788096Y64678572D01*
X-33978572Y64630953D01*
X-34216667Y64630953D01*
X-34407143Y64678572D01*
X-34502381Y64726191D01*
X-34550000Y64773810D01*
X-34597620Y64869048D01*
X-34597620Y66059524D02*
X-34597620Y65869048D01*
X-34550000Y65773810D01*
X-34502381Y65726191D01*
X-34359524Y65630953D01*
X-34169048Y65583334D01*
X-33788096Y65583334D01*
X-33692858Y65630953D01*
X-33645239Y65678572D01*
X-33597620Y65773810D01*
X-33597620Y65964286D01*
X-33645239Y66059524D01*
X-33692858Y66107143D01*
X-33788096Y66154762D01*
X-34026191Y66154762D01*
X-34121429Y66107143D01*
X-34169048Y66059524D01*
X-34216667Y65964286D01*
X-34216667Y65773810D01*
X-34169048Y65678572D01*
X-34121429Y65630953D01*
X-34026191Y65583334D01*
X-33597620Y66583334D02*
X-34597620Y66583334D01*
X-34597620Y66964286D01*
X-34550000Y67059524D01*
X-34502381Y67107143D01*
X-34407143Y67154762D01*
X-34264286Y67154762D01*
X-34169048Y67107143D01*
X-34121429Y67059524D01*
X-34073810Y66964286D01*
X-34073810Y66583334D01*
X-33597620Y67488096D02*
X-34264286Y68011905D01*
X-34264286Y67488096D02*
X-33597620Y68011905D01*
X-33597620Y68297620D02*
X-34264286Y68821429D01*
X-34264286Y68297620D02*
X-33597620Y68821429D01*
X-33597620Y69107143D02*
X-34264286Y69630953D01*
X-34264286Y69107143D02*
X-33597620Y69630953D01*
X-33597620Y70011905D02*
X-34597620Y70011905D01*
X-33883334Y70345239D01*
X-34597620Y70678572D01*
X-33597620Y70678572D01*
X-33597620Y71726191D02*
X-34073810Y71392858D01*
X-33597620Y71154762D02*
X-34597620Y71154762D01*
X-34597620Y71535715D01*
X-34550000Y71630953D01*
X-34502381Y71678572D01*
X-34407143Y71726191D01*
X-34264286Y71726191D01*
X-34169048Y71678572D01*
X-34121429Y71630953D01*
X-34073810Y71535715D01*
X-34073810Y71154762D01*
X-37159524Y66688096D02*
X-37159524Y66040477D01*
X-37121429Y65964286D01*
X-37083334Y65926191D01*
X-37007143Y65888096D01*
X-36854762Y65888096D01*
X-36778572Y65926191D01*
X-36740477Y65964286D01*
X-36702381Y66040477D01*
X-36702381Y66688096D01*
X-36397620Y66688096D02*
X-35864286Y66688096D01*
X-36207143Y65888096D01*
X-49361905Y66123810D02*
X-49400000Y66047620D01*
X-49476191Y65971429D01*
X-49590477Y65857143D01*
X-49628572Y65780953D01*
X-49628572Y65704762D01*
X-49438096Y65742858D02*
X-49476191Y65666667D01*
X-49552381Y65590477D01*
X-49704762Y65552381D01*
X-49971429Y65552381D01*
X-50123810Y65590477D01*
X-50200000Y65666667D01*
X-50238096Y65742858D01*
X-50238096Y65895239D01*
X-50200000Y65971429D01*
X-50123810Y66047620D01*
X-49971429Y66085715D01*
X-49704762Y66085715D01*
X-49552381Y66047620D01*
X-49476191Y65971429D01*
X-49438096Y65895239D01*
X-49438096Y65742858D01*
X-49438096Y66847620D02*
X-49438096Y66390477D01*
X-49438096Y66619048D02*
X-50238096Y66619048D01*
X-50123810Y66542858D01*
X-50047620Y66466667D01*
X-50009524Y66390477D01*
X-47376191Y65761905D02*
X-47452381Y65800000D01*
X-47528572Y65876191D01*
X-47642858Y65990477D01*
X-47719048Y66028572D01*
X-47795239Y66028572D01*
X-47757143Y65838096D02*
X-47833334Y65876191D01*
X-47909524Y65952381D01*
X-47947620Y66104762D01*
X-47947620Y66371429D01*
X-47909524Y66523810D01*
X-47833334Y66600000D01*
X-47757143Y66638096D01*
X-47604762Y66638096D01*
X-47528572Y66600000D01*
X-47452381Y66523810D01*
X-47414286Y66371429D01*
X-47414286Y66104762D01*
X-47452381Y65952381D01*
X-47528572Y65876191D01*
X-47604762Y65838096D01*
X-47757143Y65838096D01*
X-46652381Y65838096D02*
X-47109524Y65838096D01*
X-46880953Y65838096D02*
X-46880953Y66638096D01*
X-46957143Y66523810D01*
X-47033334Y66447620D01*
X-47109524Y66409524D01*
M02*
