M48
INCH
T1C0.0984
T2C0.1772
T3C0.3937
%
G90
G05
T1
X-2.7677Y-1.0866
X-1.7323Y-0.626
X-2.5591Y-0.3071
X-0.6654Y-0.0866
X-0.6181Y-0.626
X-2.5787Y-1.189
X-3.5984Y-0.2677
X-2.2598Y-1.374
X-1.5354Y-0.311
X-1.6299Y2.8189
X-3.0472Y2.7402
X-0.6654Y-0.9843
X-3.6575Y-0.0551
T2
X-3.6378Y0.6142
X-3.5984Y0.8504
X-3.6378Y2.5827
X-0.685Y0.6142
X-1.1063Y-1.1024
X-0.7244Y0.8524
X-0.685Y2.5827
T3
X-3.2047Y-1.5059
T0
M30
