G04 #@! TF.GenerationSoftware,KiCad,Pcbnew,5.1.5*
G04 #@! TF.CreationDate,2020-03-31T00:49:55+02:00*
G04 #@! TF.ProjectId,gameboy-dmg,67616d65-626f-4792-9d64-6d672e6b6963,rev?*
G04 #@! TF.SameCoordinates,PXa6cc320PY5867d60*
G04 #@! TF.FileFunction,Copper,L2,Bot*
G04 #@! TF.FilePolarity,Positive*
%FSLAX46Y46*%
G04 Gerber Fmt 4.6, Leading zero omitted, Abs format (unit mm)*
G04 Created by KiCad (PCBNEW 5.1.5) date 2020-03-31 00:49:55*
%MOMM*%
%LPD*%
G04 APERTURE LIST*
%ADD10C,0.050000*%
%ADD11O,1.700000X1.700000*%
%ADD12R,1.700000X1.700000*%
%ADD13O,1.000000X1.000000*%
%ADD14R,1.000000X1.000000*%
%ADD15C,1.450000*%
%ADD16O,1.200000X1.900000*%
%ADD17C,0.150000*%
%ADD18R,1.600000X1.600000*%
%ADD19C,1.600000*%
%ADD20C,1.800000*%
%ADD21C,1.524000*%
%ADD22C,2.000000*%
%ADD23C,3.000000*%
%ADD24C,0.800000*%
%ADD25C,1.000000*%
%ADD26C,0.400000*%
%ADD27C,0.300000*%
%ADD28C,0.750000*%
%ADD29C,0.500000*%
%ADD30C,0.254000*%
G04 APERTURE END LIST*
D10*
X-36400000Y76600001D02*
G75*
G02X-37400359Y77580241I-11724J988600D01*
G01*
X-38400000Y79599999D02*
G75*
G02X-37399641Y78619759I11724J-988600D01*
G01*
X-37400359Y77580241D02*
X-37399641Y78619759D01*
X-14400359Y76600000D02*
X-36400000Y76600000D01*
X-14400359Y76599999D02*
G75*
G02X-13400000Y75619759I11724J-988600D01*
G01*
X-95899999Y78600000D02*
G75*
G02X-94919759Y79600359I988600J11724D01*
G01*
X-90150000Y-60050000D02*
G75*
G02X-95900000Y-54300000I0J5750000D01*
G01*
X-46200000Y-44600000D02*
X-46200000Y-57900000D01*
X-48028302Y-60050000D02*
X-90150000Y-60050000D01*
X-46200000Y-57900000D02*
G75*
G02X-48028302Y-60050000I-2178302J0D01*
G01*
X-95900000Y78600000D02*
X-95900000Y-54300000D01*
X-38400000Y79600000D02*
X-94919759Y79600359D01*
X-33800000Y-32200000D02*
X-21500030Y-32200000D01*
X-13400000Y-24102438D02*
G75*
G02X-21500030Y-32200000I-8000030J-97562D01*
G01*
X-46200000Y-44600000D02*
G75*
G02X-33800000Y-32200000I12400000J0D01*
G01*
X-13400000Y75619759D02*
X-13400000Y-24100000D01*
D11*
X-32140000Y25010000D03*
X-32140000Y27550000D03*
X-34680000Y25010000D03*
X-34680000Y27550000D03*
X-37220000Y25010000D03*
X-37220000Y27550000D03*
X-39760000Y25010000D03*
X-39760000Y27550000D03*
X-42300000Y25010000D03*
X-42300000Y27550000D03*
X-44840000Y25010000D03*
X-44840000Y27550000D03*
X-47380000Y25010000D03*
X-47380000Y27550000D03*
X-49920000Y25010000D03*
X-49920000Y27550000D03*
X-52460000Y25010000D03*
X-52460000Y27550000D03*
X-55000000Y25010000D03*
X-55000000Y27550000D03*
X-57540000Y25010000D03*
X-57540000Y27550000D03*
X-60080000Y25010000D03*
X-60080000Y27550000D03*
X-62620000Y25010000D03*
X-62620000Y27550000D03*
X-65160000Y25010000D03*
X-65160000Y27550000D03*
X-67700000Y25010000D03*
X-67700000Y27550000D03*
X-70240000Y25010000D03*
X-70240000Y27550000D03*
X-72780000Y25010000D03*
X-72780000Y27550000D03*
X-75320000Y25010000D03*
X-75320000Y27550000D03*
X-77860000Y25010000D03*
X-77860000Y27550000D03*
X-80400000Y25010000D03*
D12*
X-80400000Y27550000D03*
D13*
X-27000000Y57040000D03*
X-27000000Y58310000D03*
X-27000000Y59580000D03*
D14*
X-27000000Y60850000D03*
D15*
X-59900000Y-55900000D03*
X-54900000Y-55900000D03*
D16*
X-60900000Y-58600000D03*
X-53900000Y-58600000D03*
G04 #@! TA.AperFunction,SMDPad,CuDef*
D17*
G36*
X-73322309Y-56051053D02*
G01*
X-73301074Y-56054203D01*
X-73280250Y-56059419D01*
X-73260038Y-56066651D01*
X-73240632Y-56075830D01*
X-73222219Y-56086866D01*
X-73204976Y-56099654D01*
X-73189070Y-56114070D01*
X-73174654Y-56129976D01*
X-73161866Y-56147219D01*
X-73150830Y-56165632D01*
X-73141651Y-56185038D01*
X-73134419Y-56205250D01*
X-73129203Y-56226074D01*
X-73126053Y-56247309D01*
X-73125000Y-56268750D01*
X-73125000Y-56781250D01*
X-73126053Y-56802691D01*
X-73129203Y-56823926D01*
X-73134419Y-56844750D01*
X-73141651Y-56864962D01*
X-73150830Y-56884368D01*
X-73161866Y-56902781D01*
X-73174654Y-56920024D01*
X-73189070Y-56935930D01*
X-73204976Y-56950346D01*
X-73222219Y-56963134D01*
X-73240632Y-56974170D01*
X-73260038Y-56983349D01*
X-73280250Y-56990581D01*
X-73301074Y-56995797D01*
X-73322309Y-56998947D01*
X-73343750Y-57000000D01*
X-73781250Y-57000000D01*
X-73802691Y-56998947D01*
X-73823926Y-56995797D01*
X-73844750Y-56990581D01*
X-73864962Y-56983349D01*
X-73884368Y-56974170D01*
X-73902781Y-56963134D01*
X-73920024Y-56950346D01*
X-73935930Y-56935930D01*
X-73950346Y-56920024D01*
X-73963134Y-56902781D01*
X-73974170Y-56884368D01*
X-73983349Y-56864962D01*
X-73990581Y-56844750D01*
X-73995797Y-56823926D01*
X-73998947Y-56802691D01*
X-74000000Y-56781250D01*
X-74000000Y-56268750D01*
X-73998947Y-56247309D01*
X-73995797Y-56226074D01*
X-73990581Y-56205250D01*
X-73983349Y-56185038D01*
X-73974170Y-56165632D01*
X-73963134Y-56147219D01*
X-73950346Y-56129976D01*
X-73935930Y-56114070D01*
X-73920024Y-56099654D01*
X-73902781Y-56086866D01*
X-73884368Y-56075830D01*
X-73864962Y-56066651D01*
X-73844750Y-56059419D01*
X-73823926Y-56054203D01*
X-73802691Y-56051053D01*
X-73781250Y-56050000D01*
X-73343750Y-56050000D01*
X-73322309Y-56051053D01*
G37*
G04 #@! TD.AperFunction*
G04 #@! TA.AperFunction,SMDPad,CuDef*
G36*
X-74897309Y-56051053D02*
G01*
X-74876074Y-56054203D01*
X-74855250Y-56059419D01*
X-74835038Y-56066651D01*
X-74815632Y-56075830D01*
X-74797219Y-56086866D01*
X-74779976Y-56099654D01*
X-74764070Y-56114070D01*
X-74749654Y-56129976D01*
X-74736866Y-56147219D01*
X-74725830Y-56165632D01*
X-74716651Y-56185038D01*
X-74709419Y-56205250D01*
X-74704203Y-56226074D01*
X-74701053Y-56247309D01*
X-74700000Y-56268750D01*
X-74700000Y-56781250D01*
X-74701053Y-56802691D01*
X-74704203Y-56823926D01*
X-74709419Y-56844750D01*
X-74716651Y-56864962D01*
X-74725830Y-56884368D01*
X-74736866Y-56902781D01*
X-74749654Y-56920024D01*
X-74764070Y-56935930D01*
X-74779976Y-56950346D01*
X-74797219Y-56963134D01*
X-74815632Y-56974170D01*
X-74835038Y-56983349D01*
X-74855250Y-56990581D01*
X-74876074Y-56995797D01*
X-74897309Y-56998947D01*
X-74918750Y-57000000D01*
X-75356250Y-57000000D01*
X-75377691Y-56998947D01*
X-75398926Y-56995797D01*
X-75419750Y-56990581D01*
X-75439962Y-56983349D01*
X-75459368Y-56974170D01*
X-75477781Y-56963134D01*
X-75495024Y-56950346D01*
X-75510930Y-56935930D01*
X-75525346Y-56920024D01*
X-75538134Y-56902781D01*
X-75549170Y-56884368D01*
X-75558349Y-56864962D01*
X-75565581Y-56844750D01*
X-75570797Y-56823926D01*
X-75573947Y-56802691D01*
X-75575000Y-56781250D01*
X-75575000Y-56268750D01*
X-75573947Y-56247309D01*
X-75570797Y-56226074D01*
X-75565581Y-56205250D01*
X-75558349Y-56185038D01*
X-75549170Y-56165632D01*
X-75538134Y-56147219D01*
X-75525346Y-56129976D01*
X-75510930Y-56114070D01*
X-75495024Y-56099654D01*
X-75477781Y-56086866D01*
X-75459368Y-56075830D01*
X-75439962Y-56066651D01*
X-75419750Y-56059419D01*
X-75398926Y-56054203D01*
X-75377691Y-56051053D01*
X-75356250Y-56050000D01*
X-74918750Y-56050000D01*
X-74897309Y-56051053D01*
G37*
G04 #@! TD.AperFunction*
G04 #@! TA.AperFunction,SMDPad,CuDef*
G36*
X-74909809Y-54051053D02*
G01*
X-74888574Y-54054203D01*
X-74867750Y-54059419D01*
X-74847538Y-54066651D01*
X-74828132Y-54075830D01*
X-74809719Y-54086866D01*
X-74792476Y-54099654D01*
X-74776570Y-54114070D01*
X-74762154Y-54129976D01*
X-74749366Y-54147219D01*
X-74738330Y-54165632D01*
X-74729151Y-54185038D01*
X-74721919Y-54205250D01*
X-74716703Y-54226074D01*
X-74713553Y-54247309D01*
X-74712500Y-54268750D01*
X-74712500Y-54781250D01*
X-74713553Y-54802691D01*
X-74716703Y-54823926D01*
X-74721919Y-54844750D01*
X-74729151Y-54864962D01*
X-74738330Y-54884368D01*
X-74749366Y-54902781D01*
X-74762154Y-54920024D01*
X-74776570Y-54935930D01*
X-74792476Y-54950346D01*
X-74809719Y-54963134D01*
X-74828132Y-54974170D01*
X-74847538Y-54983349D01*
X-74867750Y-54990581D01*
X-74888574Y-54995797D01*
X-74909809Y-54998947D01*
X-74931250Y-55000000D01*
X-75368750Y-55000000D01*
X-75390191Y-54998947D01*
X-75411426Y-54995797D01*
X-75432250Y-54990581D01*
X-75452462Y-54983349D01*
X-75471868Y-54974170D01*
X-75490281Y-54963134D01*
X-75507524Y-54950346D01*
X-75523430Y-54935930D01*
X-75537846Y-54920024D01*
X-75550634Y-54902781D01*
X-75561670Y-54884368D01*
X-75570849Y-54864962D01*
X-75578081Y-54844750D01*
X-75583297Y-54823926D01*
X-75586447Y-54802691D01*
X-75587500Y-54781250D01*
X-75587500Y-54268750D01*
X-75586447Y-54247309D01*
X-75583297Y-54226074D01*
X-75578081Y-54205250D01*
X-75570849Y-54185038D01*
X-75561670Y-54165632D01*
X-75550634Y-54147219D01*
X-75537846Y-54129976D01*
X-75523430Y-54114070D01*
X-75507524Y-54099654D01*
X-75490281Y-54086866D01*
X-75471868Y-54075830D01*
X-75452462Y-54066651D01*
X-75432250Y-54059419D01*
X-75411426Y-54054203D01*
X-75390191Y-54051053D01*
X-75368750Y-54050000D01*
X-74931250Y-54050000D01*
X-74909809Y-54051053D01*
G37*
G04 #@! TD.AperFunction*
G04 #@! TA.AperFunction,SMDPad,CuDef*
G36*
X-73334809Y-54051053D02*
G01*
X-73313574Y-54054203D01*
X-73292750Y-54059419D01*
X-73272538Y-54066651D01*
X-73253132Y-54075830D01*
X-73234719Y-54086866D01*
X-73217476Y-54099654D01*
X-73201570Y-54114070D01*
X-73187154Y-54129976D01*
X-73174366Y-54147219D01*
X-73163330Y-54165632D01*
X-73154151Y-54185038D01*
X-73146919Y-54205250D01*
X-73141703Y-54226074D01*
X-73138553Y-54247309D01*
X-73137500Y-54268750D01*
X-73137500Y-54781250D01*
X-73138553Y-54802691D01*
X-73141703Y-54823926D01*
X-73146919Y-54844750D01*
X-73154151Y-54864962D01*
X-73163330Y-54884368D01*
X-73174366Y-54902781D01*
X-73187154Y-54920024D01*
X-73201570Y-54935930D01*
X-73217476Y-54950346D01*
X-73234719Y-54963134D01*
X-73253132Y-54974170D01*
X-73272538Y-54983349D01*
X-73292750Y-54990581D01*
X-73313574Y-54995797D01*
X-73334809Y-54998947D01*
X-73356250Y-55000000D01*
X-73793750Y-55000000D01*
X-73815191Y-54998947D01*
X-73836426Y-54995797D01*
X-73857250Y-54990581D01*
X-73877462Y-54983349D01*
X-73896868Y-54974170D01*
X-73915281Y-54963134D01*
X-73932524Y-54950346D01*
X-73948430Y-54935930D01*
X-73962846Y-54920024D01*
X-73975634Y-54902781D01*
X-73986670Y-54884368D01*
X-73995849Y-54864962D01*
X-74003081Y-54844750D01*
X-74008297Y-54823926D01*
X-74011447Y-54802691D01*
X-74012500Y-54781250D01*
X-74012500Y-54268750D01*
X-74011447Y-54247309D01*
X-74008297Y-54226074D01*
X-74003081Y-54205250D01*
X-73995849Y-54185038D01*
X-73986670Y-54165632D01*
X-73975634Y-54147219D01*
X-73962846Y-54129976D01*
X-73948430Y-54114070D01*
X-73932524Y-54099654D01*
X-73915281Y-54086866D01*
X-73896868Y-54075830D01*
X-73877462Y-54066651D01*
X-73857250Y-54059419D01*
X-73836426Y-54054203D01*
X-73815191Y-54051053D01*
X-73793750Y-54050000D01*
X-73356250Y-54050000D01*
X-73334809Y-54051053D01*
G37*
G04 #@! TD.AperFunction*
G04 #@! TA.AperFunction,SMDPad,CuDef*
G36*
X-67897309Y-56001053D02*
G01*
X-67876074Y-56004203D01*
X-67855250Y-56009419D01*
X-67835038Y-56016651D01*
X-67815632Y-56025830D01*
X-67797219Y-56036866D01*
X-67779976Y-56049654D01*
X-67764070Y-56064070D01*
X-67749654Y-56079976D01*
X-67736866Y-56097219D01*
X-67725830Y-56115632D01*
X-67716651Y-56135038D01*
X-67709419Y-56155250D01*
X-67704203Y-56176074D01*
X-67701053Y-56197309D01*
X-67700000Y-56218750D01*
X-67700000Y-56731250D01*
X-67701053Y-56752691D01*
X-67704203Y-56773926D01*
X-67709419Y-56794750D01*
X-67716651Y-56814962D01*
X-67725830Y-56834368D01*
X-67736866Y-56852781D01*
X-67749654Y-56870024D01*
X-67764070Y-56885930D01*
X-67779976Y-56900346D01*
X-67797219Y-56913134D01*
X-67815632Y-56924170D01*
X-67835038Y-56933349D01*
X-67855250Y-56940581D01*
X-67876074Y-56945797D01*
X-67897309Y-56948947D01*
X-67918750Y-56950000D01*
X-68356250Y-56950000D01*
X-68377691Y-56948947D01*
X-68398926Y-56945797D01*
X-68419750Y-56940581D01*
X-68439962Y-56933349D01*
X-68459368Y-56924170D01*
X-68477781Y-56913134D01*
X-68495024Y-56900346D01*
X-68510930Y-56885930D01*
X-68525346Y-56870024D01*
X-68538134Y-56852781D01*
X-68549170Y-56834368D01*
X-68558349Y-56814962D01*
X-68565581Y-56794750D01*
X-68570797Y-56773926D01*
X-68573947Y-56752691D01*
X-68575000Y-56731250D01*
X-68575000Y-56218750D01*
X-68573947Y-56197309D01*
X-68570797Y-56176074D01*
X-68565581Y-56155250D01*
X-68558349Y-56135038D01*
X-68549170Y-56115632D01*
X-68538134Y-56097219D01*
X-68525346Y-56079976D01*
X-68510930Y-56064070D01*
X-68495024Y-56049654D01*
X-68477781Y-56036866D01*
X-68459368Y-56025830D01*
X-68439962Y-56016651D01*
X-68419750Y-56009419D01*
X-68398926Y-56004203D01*
X-68377691Y-56001053D01*
X-68356250Y-56000000D01*
X-67918750Y-56000000D01*
X-67897309Y-56001053D01*
G37*
G04 #@! TD.AperFunction*
G04 #@! TA.AperFunction,SMDPad,CuDef*
G36*
X-66322309Y-56001053D02*
G01*
X-66301074Y-56004203D01*
X-66280250Y-56009419D01*
X-66260038Y-56016651D01*
X-66240632Y-56025830D01*
X-66222219Y-56036866D01*
X-66204976Y-56049654D01*
X-66189070Y-56064070D01*
X-66174654Y-56079976D01*
X-66161866Y-56097219D01*
X-66150830Y-56115632D01*
X-66141651Y-56135038D01*
X-66134419Y-56155250D01*
X-66129203Y-56176074D01*
X-66126053Y-56197309D01*
X-66125000Y-56218750D01*
X-66125000Y-56731250D01*
X-66126053Y-56752691D01*
X-66129203Y-56773926D01*
X-66134419Y-56794750D01*
X-66141651Y-56814962D01*
X-66150830Y-56834368D01*
X-66161866Y-56852781D01*
X-66174654Y-56870024D01*
X-66189070Y-56885930D01*
X-66204976Y-56900346D01*
X-66222219Y-56913134D01*
X-66240632Y-56924170D01*
X-66260038Y-56933349D01*
X-66280250Y-56940581D01*
X-66301074Y-56945797D01*
X-66322309Y-56948947D01*
X-66343750Y-56950000D01*
X-66781250Y-56950000D01*
X-66802691Y-56948947D01*
X-66823926Y-56945797D01*
X-66844750Y-56940581D01*
X-66864962Y-56933349D01*
X-66884368Y-56924170D01*
X-66902781Y-56913134D01*
X-66920024Y-56900346D01*
X-66935930Y-56885930D01*
X-66950346Y-56870024D01*
X-66963134Y-56852781D01*
X-66974170Y-56834368D01*
X-66983349Y-56814962D01*
X-66990581Y-56794750D01*
X-66995797Y-56773926D01*
X-66998947Y-56752691D01*
X-67000000Y-56731250D01*
X-67000000Y-56218750D01*
X-66998947Y-56197309D01*
X-66995797Y-56176074D01*
X-66990581Y-56155250D01*
X-66983349Y-56135038D01*
X-66974170Y-56115632D01*
X-66963134Y-56097219D01*
X-66950346Y-56079976D01*
X-66935930Y-56064070D01*
X-66920024Y-56049654D01*
X-66902781Y-56036866D01*
X-66884368Y-56025830D01*
X-66864962Y-56016651D01*
X-66844750Y-56009419D01*
X-66823926Y-56004203D01*
X-66802691Y-56001053D01*
X-66781250Y-56000000D01*
X-66343750Y-56000000D01*
X-66322309Y-56001053D01*
G37*
G04 #@! TD.AperFunction*
G04 #@! TA.AperFunction,SMDPad,CuDef*
G36*
X-67959809Y-53951053D02*
G01*
X-67938574Y-53954203D01*
X-67917750Y-53959419D01*
X-67897538Y-53966651D01*
X-67878132Y-53975830D01*
X-67859719Y-53986866D01*
X-67842476Y-53999654D01*
X-67826570Y-54014070D01*
X-67812154Y-54029976D01*
X-67799366Y-54047219D01*
X-67788330Y-54065632D01*
X-67779151Y-54085038D01*
X-67771919Y-54105250D01*
X-67766703Y-54126074D01*
X-67763553Y-54147309D01*
X-67762500Y-54168750D01*
X-67762500Y-54681250D01*
X-67763553Y-54702691D01*
X-67766703Y-54723926D01*
X-67771919Y-54744750D01*
X-67779151Y-54764962D01*
X-67788330Y-54784368D01*
X-67799366Y-54802781D01*
X-67812154Y-54820024D01*
X-67826570Y-54835930D01*
X-67842476Y-54850346D01*
X-67859719Y-54863134D01*
X-67878132Y-54874170D01*
X-67897538Y-54883349D01*
X-67917750Y-54890581D01*
X-67938574Y-54895797D01*
X-67959809Y-54898947D01*
X-67981250Y-54900000D01*
X-68418750Y-54900000D01*
X-68440191Y-54898947D01*
X-68461426Y-54895797D01*
X-68482250Y-54890581D01*
X-68502462Y-54883349D01*
X-68521868Y-54874170D01*
X-68540281Y-54863134D01*
X-68557524Y-54850346D01*
X-68573430Y-54835930D01*
X-68587846Y-54820024D01*
X-68600634Y-54802781D01*
X-68611670Y-54784368D01*
X-68620849Y-54764962D01*
X-68628081Y-54744750D01*
X-68633297Y-54723926D01*
X-68636447Y-54702691D01*
X-68637500Y-54681250D01*
X-68637500Y-54168750D01*
X-68636447Y-54147309D01*
X-68633297Y-54126074D01*
X-68628081Y-54105250D01*
X-68620849Y-54085038D01*
X-68611670Y-54065632D01*
X-68600634Y-54047219D01*
X-68587846Y-54029976D01*
X-68573430Y-54014070D01*
X-68557524Y-53999654D01*
X-68540281Y-53986866D01*
X-68521868Y-53975830D01*
X-68502462Y-53966651D01*
X-68482250Y-53959419D01*
X-68461426Y-53954203D01*
X-68440191Y-53951053D01*
X-68418750Y-53950000D01*
X-67981250Y-53950000D01*
X-67959809Y-53951053D01*
G37*
G04 #@! TD.AperFunction*
G04 #@! TA.AperFunction,SMDPad,CuDef*
G36*
X-66384809Y-53951053D02*
G01*
X-66363574Y-53954203D01*
X-66342750Y-53959419D01*
X-66322538Y-53966651D01*
X-66303132Y-53975830D01*
X-66284719Y-53986866D01*
X-66267476Y-53999654D01*
X-66251570Y-54014070D01*
X-66237154Y-54029976D01*
X-66224366Y-54047219D01*
X-66213330Y-54065632D01*
X-66204151Y-54085038D01*
X-66196919Y-54105250D01*
X-66191703Y-54126074D01*
X-66188553Y-54147309D01*
X-66187500Y-54168750D01*
X-66187500Y-54681250D01*
X-66188553Y-54702691D01*
X-66191703Y-54723926D01*
X-66196919Y-54744750D01*
X-66204151Y-54764962D01*
X-66213330Y-54784368D01*
X-66224366Y-54802781D01*
X-66237154Y-54820024D01*
X-66251570Y-54835930D01*
X-66267476Y-54850346D01*
X-66284719Y-54863134D01*
X-66303132Y-54874170D01*
X-66322538Y-54883349D01*
X-66342750Y-54890581D01*
X-66363574Y-54895797D01*
X-66384809Y-54898947D01*
X-66406250Y-54900000D01*
X-66843750Y-54900000D01*
X-66865191Y-54898947D01*
X-66886426Y-54895797D01*
X-66907250Y-54890581D01*
X-66927462Y-54883349D01*
X-66946868Y-54874170D01*
X-66965281Y-54863134D01*
X-66982524Y-54850346D01*
X-66998430Y-54835930D01*
X-67012846Y-54820024D01*
X-67025634Y-54802781D01*
X-67036670Y-54784368D01*
X-67045849Y-54764962D01*
X-67053081Y-54744750D01*
X-67058297Y-54723926D01*
X-67061447Y-54702691D01*
X-67062500Y-54681250D01*
X-67062500Y-54168750D01*
X-67061447Y-54147309D01*
X-67058297Y-54126074D01*
X-67053081Y-54105250D01*
X-67045849Y-54085038D01*
X-67036670Y-54065632D01*
X-67025634Y-54047219D01*
X-67012846Y-54029976D01*
X-66998430Y-54014070D01*
X-66982524Y-53999654D01*
X-66965281Y-53986866D01*
X-66946868Y-53975830D01*
X-66927462Y-53966651D01*
X-66907250Y-53959419D01*
X-66886426Y-53954203D01*
X-66865191Y-53951053D01*
X-66843750Y-53950000D01*
X-66406250Y-53950000D01*
X-66384809Y-53951053D01*
G37*
G04 #@! TD.AperFunction*
D12*
X-91050000Y-50375000D03*
D11*
X-88510000Y-50375000D03*
D12*
X-22750000Y-4650000D03*
D11*
X-22750000Y-2110000D03*
X-22750000Y430000D03*
X-22750000Y2970000D03*
X-22750000Y5510000D03*
X-22750000Y8050000D03*
X-22750000Y10590000D03*
X-22750000Y13130000D03*
D18*
X-34000000Y20750000D03*
D19*
X-34000000Y18750000D03*
D12*
X-48950000Y-47450000D03*
D11*
X-48950000Y-44910000D03*
D20*
X-25400000Y29600000D03*
D21*
X-15400000Y28950000D03*
D20*
X-25400000Y31600000D03*
X-25400000Y33600000D03*
X-25400000Y35600000D03*
X-25400000Y37600000D03*
D21*
X-15400000Y38250000D03*
D22*
X-21900000Y69600000D03*
X-24900000Y69600000D03*
X-27900000Y69600000D03*
X-18650000Y69900000D03*
X-31150000Y69900000D03*
D19*
X-23100000Y50550000D03*
X-23100000Y53050000D03*
X-23100000Y55050000D03*
D18*
X-23100000Y57550000D03*
D23*
X-20390000Y60620000D03*
X-20390000Y47480000D03*
D24*
X-72045000Y-31545000D03*
X-74045000Y-31545000D03*
X-74045000Y-33545000D03*
X-72045000Y-33545000D03*
X-82970000Y-16510000D03*
X-80970000Y-14510000D03*
X-82970000Y-14510000D03*
X-21750000Y-22830000D03*
X-23750000Y-22830000D03*
X-43250000Y400000D03*
X-43250000Y-1600000D03*
X-41250000Y400000D03*
X-41250000Y-1600000D03*
X-80970000Y-16510000D03*
X-23750000Y-20830000D03*
X-21750000Y-20830000D03*
X-65770000Y41510000D03*
X-63770000Y39510000D03*
X-65770000Y39510000D03*
X-63770000Y41510000D03*
X-76370000Y55860000D03*
X-74370000Y55860000D03*
X-76370000Y57860000D03*
X-74370000Y57860000D03*
X-36820000Y54710000D03*
X-36820000Y52710000D03*
X-27200000Y4550000D03*
X-47770000Y19810000D03*
X-49770000Y19810000D03*
X-47770000Y17810000D03*
X-49770000Y17810000D03*
X-68900000Y-52950000D03*
X-67125000Y-48400000D03*
X-86625000Y-54175000D03*
X-26000000Y12750000D03*
X-75770000Y6110000D03*
X-77770000Y6110000D03*
X-75770000Y4110000D03*
X-77770000Y4110000D03*
X-66670000Y23010000D03*
X-68670000Y23010000D03*
X-60060000Y69530000D03*
X-58060000Y69530000D03*
X-88850000Y44000000D03*
X-37400000Y5650000D03*
X-61500000Y-14450000D03*
X-45805331Y-27794669D03*
X-47100000Y-29150000D03*
X-57600000Y30450000D03*
X-54992079Y35105249D03*
X-52500000Y33250000D03*
X-53738332Y34188332D03*
X-62300000Y18550000D03*
X-65000000Y20050000D03*
X-62200000Y19850000D03*
X-65000000Y21550000D03*
X-46600000Y55850000D03*
X-85525000Y-54600000D03*
X-82375000Y-54850000D03*
X-75025000Y-55625000D03*
X-66550000Y-58000000D03*
X-76775000Y-55850000D03*
X-65325000Y-56675000D03*
X-65450000Y-55250000D03*
X-84241820Y-57833180D03*
X-86750000Y-56600000D03*
X-86500000Y-55525000D03*
X-90225000Y-56400000D03*
X-45800000Y-26600000D03*
X-45800000Y-25300000D03*
X-45850000Y-24050000D03*
X-45900000Y-22700000D03*
X-45950000Y-21450000D03*
X-45950000Y-20150000D03*
X-90850000Y-24200000D03*
X-31900000Y-15450000D03*
X-27800000Y-11800000D03*
D25*
X-28389999Y63110001D02*
X-21900000Y69600000D01*
X-76039999Y63110001D02*
X-28389999Y63110001D01*
X-88850000Y44000000D02*
X-88850000Y50300000D01*
X-88850000Y50300000D02*
X-76039999Y63110001D01*
X-79550001Y24160001D02*
X-79550001Y21700001D01*
X-80400000Y25010000D02*
X-79550001Y24160001D01*
X-79550001Y21700001D02*
X-63500000Y5650000D01*
X-63500000Y5650000D02*
X-37400000Y5650000D01*
D26*
X-61500000Y3650000D02*
X-63500000Y5650000D01*
X-61500000Y-14450000D02*
X-61500000Y3650000D01*
D27*
X-24778560Y-4138560D02*
X-22750000Y-2110000D01*
X-44696440Y-26203560D02*
X-24778560Y-6285680D01*
X-24778560Y-6285680D02*
X-24778560Y-4138560D01*
X-44696440Y-26685778D02*
X-44696440Y-26203560D01*
X-45805331Y-27794669D02*
X-44696440Y-26685778D01*
X-24278550Y-5578550D02*
X-23350000Y-4650000D01*
X-47100000Y-29150000D02*
X-46050660Y-29150000D01*
X-23350000Y-4650000D02*
X-22750000Y-4650000D01*
X-44196430Y-26410670D02*
X-24278550Y-6492790D01*
X-44196430Y-27295770D02*
X-44196430Y-26410670D01*
X-46050660Y-29150000D02*
X-44196430Y-27295770D01*
X-24278550Y-6492790D02*
X-24278550Y-5578550D01*
X-57600000Y27610000D02*
X-57540000Y27550000D01*
X-57600000Y30450000D02*
X-57600000Y27610000D01*
X-54992079Y27557921D02*
X-55000000Y27550000D01*
X-54992079Y35105249D02*
X-54992079Y27557921D01*
X-52500000Y27590000D02*
X-52460000Y27550000D01*
X-52500000Y33250000D02*
X-52500000Y27590000D01*
X-53738332Y26288332D02*
X-52460000Y25010000D01*
X-53738332Y34188332D02*
X-53738332Y26288332D01*
D26*
X-62300000Y18550000D02*
X-63500000Y18550000D01*
X-63500000Y18550000D02*
X-65000000Y20050000D01*
X-62200000Y19850000D02*
X-63300000Y19850000D01*
X-63300000Y19850000D02*
X-65000000Y21550000D01*
X-46600000Y39470000D02*
X-34680000Y27550000D01*
X-46600000Y55850000D02*
X-46600000Y39470000D01*
D28*
X-85525000Y-54600000D02*
X-82625000Y-54600000D01*
X-82625000Y-54600000D02*
X-82375000Y-54850000D01*
D29*
X-73512500Y-56475000D02*
X-73562500Y-56525000D01*
X-68137500Y-56475000D02*
X-73512500Y-56475000D01*
X-75025000Y-54650000D02*
X-75150000Y-54525000D01*
X-75025000Y-55625000D02*
X-75025000Y-54650000D01*
X-75137500Y-55737500D02*
X-75025000Y-55625000D01*
X-75137500Y-56525000D02*
X-75137500Y-55737500D01*
X-73475000Y-54425000D02*
X-73575000Y-54525000D01*
X-68200000Y-54425000D02*
X-73475000Y-54425000D01*
D28*
X-76775000Y-56485048D02*
X-76775000Y-55850000D01*
X-66550000Y-58000000D02*
X-75260048Y-58000000D01*
X-75260048Y-58000000D02*
X-76775000Y-56485048D01*
D29*
X-66362500Y-56675000D02*
X-66562500Y-56475000D01*
X-65325000Y-56675000D02*
X-66362500Y-56675000D01*
X-65800000Y-55250000D02*
X-66625000Y-54425000D01*
X-65450000Y-55250000D02*
X-65800000Y-55250000D01*
D28*
X-84241820Y-57833180D02*
X-85516820Y-57833180D01*
X-85516820Y-57833180D02*
X-86750000Y-56600000D01*
X-86500000Y-55525000D02*
X-89350000Y-55525000D01*
X-89350000Y-55525000D02*
X-90225000Y-56400000D01*
D27*
X-25278570Y-3931450D02*
X-25278570Y-6078570D01*
X-25278570Y-6078570D02*
X-45800000Y-26600000D01*
X-24148560Y-2801440D02*
X-25278570Y-3931450D01*
X-24148560Y-968560D02*
X-24148560Y-2801440D01*
X-22750000Y430000D02*
X-24148560Y-968560D01*
X-22750000Y2970000D02*
X-24701405Y1018595D01*
X-25778580Y-3724340D02*
X-25778580Y-5871460D01*
X-24701405Y1018595D02*
X-24701405Y-2647165D01*
X-24701405Y-2647165D02*
X-25778580Y-3724340D01*
X-45207120Y-25300000D02*
X-45800000Y-25300000D01*
X-25778580Y-5871460D02*
X-45207120Y-25300000D01*
X-22750000Y5510000D02*
X-24063560Y4196440D01*
X-24063560Y4196440D02*
X-24063560Y2363560D01*
X-24063560Y2363560D02*
X-25201415Y1225705D01*
X-25201415Y1225705D02*
X-25201415Y-2440055D01*
X-25201415Y-2440055D02*
X-26278590Y-3517230D01*
X-26278590Y-3517230D02*
X-26278590Y-5664350D01*
X-44664240Y-24050000D02*
X-45850000Y-24050000D01*
X-26278590Y-5664350D02*
X-44664240Y-24050000D01*
X-24563570Y6236430D02*
X-22750000Y8050000D01*
X-25701425Y1432815D02*
X-24563570Y2570670D01*
X-44021360Y-22700000D02*
X-26778600Y-5457240D01*
X-45900000Y-22700000D02*
X-44021360Y-22700000D01*
X-26778600Y-5457240D02*
X-26778600Y-3310120D01*
X-26778600Y-3310120D02*
X-25701425Y-2232945D01*
X-24563570Y2570670D02*
X-24563570Y6236430D01*
X-25701425Y-2232945D02*
X-25701425Y1432815D01*
X-23950001Y9389999D02*
X-23599999Y9740001D01*
X-23950001Y7557119D02*
X-23950001Y9389999D01*
X-26201435Y1639925D02*
X-25063580Y2777780D01*
X-45950000Y-21450000D02*
X-43478480Y-21450000D01*
X-43478480Y-21450000D02*
X-27278610Y-5250130D01*
X-25063580Y2777780D02*
X-25063580Y6443540D01*
X-27278610Y-3103010D02*
X-26201435Y-2025835D01*
X-23599999Y9740001D02*
X-22750000Y10590000D01*
X-27278610Y-5250130D02*
X-27278610Y-3103010D01*
X-25063580Y6443540D02*
X-23950001Y7557119D01*
X-26201435Y-2025835D02*
X-26201435Y1639925D01*
X-27778620Y-2895900D02*
X-27778620Y-5043020D01*
X-26701445Y-1818725D02*
X-27778620Y-2895900D01*
X-26701445Y1847035D02*
X-26701445Y-1818725D01*
X-42885600Y-20150000D02*
X-45950000Y-20150000D01*
X-25563590Y2984890D02*
X-26701445Y1847035D01*
X-27778620Y-5043020D02*
X-42885600Y-20150000D01*
X-22750000Y13130000D02*
X-24450011Y11429989D01*
X-24450011Y11429989D02*
X-24450011Y7764229D01*
X-25563590Y6650650D02*
X-25563590Y2984890D01*
X-24450011Y7764229D02*
X-25563590Y6650650D01*
D25*
X-48400000Y73500000D02*
X-46300000Y75600000D01*
X-30950000Y75650000D02*
X-24900000Y69600000D01*
X-90850000Y-24200000D02*
X-87250000Y-20600000D01*
X-87250000Y33350000D02*
X-91150000Y37250000D01*
X-78150000Y73500000D02*
X-48400000Y73500000D01*
X-91150000Y60500000D02*
X-78150000Y73500000D01*
X-87250000Y-20600000D02*
X-87250000Y33350000D01*
X-46300000Y75600000D02*
X-30950000Y75650000D01*
X-91150000Y37250000D02*
X-91150000Y60500000D01*
D26*
X-50200000Y-47450000D02*
X-50600000Y-47050000D01*
X-48950000Y-47450000D02*
X-50200000Y-47450000D01*
X-50600000Y-47050000D02*
X-50600000Y-42411988D01*
X-50600000Y-42411988D02*
X-31900000Y-23711988D01*
X-31900000Y-23711988D02*
X-31900000Y-15450000D01*
X-30650000Y-14650000D02*
X-27800000Y-11800000D01*
X-30650000Y-23310530D02*
X-30650000Y-14650000D01*
X-48950000Y-41610530D02*
X-30650000Y-23310530D01*
X-48950000Y-44910000D02*
X-48950000Y-41610530D01*
D30*
G36*
X-38423727Y79048000D02*
G01*
X-38309028Y79038125D01*
X-38227649Y79014605D01*
X-38152396Y78975730D01*
X-38086123Y78922975D01*
X-38031359Y78858353D01*
X-37990188Y78784322D01*
X-37964181Y78703706D01*
X-37951657Y78596755D01*
X-37952358Y77580426D01*
X-37952359Y77580420D01*
X-37952358Y77580342D01*
X-37952377Y77553514D01*
X-37949360Y77522664D01*
X-37949315Y77513433D01*
X-37948472Y77505772D01*
X-37926029Y77314126D01*
X-37915391Y77265252D01*
X-37905432Y77216210D01*
X-37903117Y77208859D01*
X-37843877Y77025223D01*
X-37823942Y76979331D01*
X-37804652Y76933171D01*
X-37800954Y76926409D01*
X-37707172Y76757777D01*
X-37678706Y76716636D01*
X-37650818Y76675101D01*
X-37645876Y76669186D01*
X-37634051Y76655233D01*
X-46251226Y76627164D01*
X-46300001Y76631968D01*
X-46352112Y76626835D01*
X-46353795Y76626830D01*
X-46402445Y76621878D01*
X-46501328Y76612139D01*
X-46502944Y76611649D01*
X-46504622Y76611478D01*
X-46599621Y76582322D01*
X-46694919Y76553414D01*
X-46696410Y76552617D01*
X-46698020Y76552123D01*
X-46785380Y76505061D01*
X-46873332Y76458050D01*
X-46874641Y76456976D01*
X-46876122Y76456178D01*
X-46952654Y76392952D01*
X-46990525Y76361872D01*
X-46991714Y76360683D01*
X-47032085Y76327331D01*
X-47063056Y76289341D01*
X-48825396Y74527000D01*
X-78099560Y74527000D01*
X-78150001Y74531968D01*
X-78200442Y74527000D01*
X-78200451Y74527000D01*
X-78351327Y74512140D01*
X-78544917Y74453415D01*
X-78723331Y74358051D01*
X-78879712Y74229712D01*
X-78911872Y74190525D01*
X-91840524Y61261872D01*
X-91879711Y61229712D01*
X-91911871Y61190525D01*
X-91911872Y61190524D01*
X-92008050Y61073331D01*
X-92103414Y60894917D01*
X-92162139Y60701327D01*
X-92181968Y60500000D01*
X-92176999Y60449549D01*
X-92177000Y37300441D01*
X-92181968Y37250000D01*
X-92177000Y37199559D01*
X-92177000Y37199550D01*
X-92162140Y37048674D01*
X-92103415Y36855084D01*
X-92008051Y36676669D01*
X-91879712Y36520288D01*
X-91840519Y36488123D01*
X-88276999Y32924602D01*
X-88277000Y-20174602D01*
X-91611872Y-23509476D01*
X-91708050Y-23626669D01*
X-91803414Y-23805083D01*
X-91862139Y-23998673D01*
X-91881968Y-24200000D01*
X-91862139Y-24401327D01*
X-91803414Y-24594917D01*
X-91708050Y-24773331D01*
X-91579712Y-24929712D01*
X-91423331Y-25058050D01*
X-91244917Y-25153414D01*
X-91051327Y-25212139D01*
X-90850000Y-25231968D01*
X-90648673Y-25212139D01*
X-90455083Y-25153414D01*
X-90276669Y-25058050D01*
X-90159476Y-24961872D01*
X-86559470Y-21361868D01*
X-86520288Y-21329712D01*
X-86488132Y-21290530D01*
X-86488127Y-21290525D01*
X-86391950Y-21173332D01*
X-86391949Y-21173331D01*
X-86296585Y-20994917D01*
X-86237860Y-20801327D01*
X-86223000Y-20650451D01*
X-86223000Y-20650444D01*
X-86218032Y-20600000D01*
X-86223000Y-20549557D01*
X-86223000Y-15724981D01*
X-45777000Y-15724981D01*
X-45777000Y-16075019D01*
X-45708711Y-16418332D01*
X-45574757Y-16741725D01*
X-45380286Y-17032771D01*
X-45132771Y-17280286D01*
X-44841725Y-17474757D01*
X-44518332Y-17608711D01*
X-44175019Y-17677000D01*
X-43824981Y-17677000D01*
X-43481668Y-17608711D01*
X-43158275Y-17474757D01*
X-42867229Y-17280286D01*
X-42619714Y-17032771D01*
X-42425243Y-16741725D01*
X-42291289Y-16418332D01*
X-42223000Y-16075019D01*
X-42223000Y-15724981D01*
X-42291289Y-15381668D01*
X-42425243Y-15058275D01*
X-42619714Y-14767229D01*
X-42867229Y-14519714D01*
X-43158275Y-14325243D01*
X-43481668Y-14191289D01*
X-43824981Y-14123000D01*
X-44175019Y-14123000D01*
X-44518332Y-14191289D01*
X-44841725Y-14325243D01*
X-45132771Y-14519714D01*
X-45380286Y-14767229D01*
X-45574757Y-15058275D01*
X-45708711Y-15381668D01*
X-45777000Y-15724981D01*
X-86223000Y-15724981D01*
X-86223000Y-7624981D01*
X-66777000Y-7624981D01*
X-66777000Y-7975019D01*
X-66708711Y-8318332D01*
X-66574757Y-8641725D01*
X-66380286Y-8932771D01*
X-66132771Y-9180286D01*
X-65841725Y-9374757D01*
X-65518332Y-9508711D01*
X-65175019Y-9577000D01*
X-64824981Y-9577000D01*
X-64481668Y-9508711D01*
X-64158275Y-9374757D01*
X-63867229Y-9180286D01*
X-63619714Y-8932771D01*
X-63425243Y-8641725D01*
X-63291289Y-8318332D01*
X-63223000Y-7975019D01*
X-63223000Y-7624981D01*
X-63291289Y-7281668D01*
X-63425243Y-6958275D01*
X-63619714Y-6667229D01*
X-63867229Y-6419714D01*
X-64158275Y-6225243D01*
X-64481668Y-6091289D01*
X-64824981Y-6023000D01*
X-65175019Y-6023000D01*
X-65518332Y-6091289D01*
X-65841725Y-6225243D01*
X-66132771Y-6419714D01*
X-66380286Y-6667229D01*
X-66574757Y-6958275D01*
X-66708711Y-7281668D01*
X-66777000Y-7624981D01*
X-86223000Y-7624981D01*
X-86223000Y28400000D01*
X-81779549Y28400000D01*
X-81779549Y26700000D01*
X-81769374Y26596690D01*
X-81739239Y26497350D01*
X-81690304Y26405798D01*
X-81624448Y26325552D01*
X-81544202Y26259696D01*
X-81452650Y26210761D01*
X-81353310Y26180626D01*
X-81250000Y26170451D01*
X-81141798Y26170451D01*
X-81277787Y26079586D01*
X-81469586Y25887787D01*
X-81620282Y25662254D01*
X-81724083Y25411656D01*
X-81777000Y25145623D01*
X-81777000Y24874377D01*
X-81724083Y24608344D01*
X-81620282Y24357746D01*
X-81469586Y24132213D01*
X-81277787Y23940414D01*
X-81052254Y23789718D01*
X-80801656Y23685917D01*
X-80577001Y23641231D01*
X-80577000Y21750452D01*
X-80581969Y21700001D01*
X-80577000Y21649550D01*
X-80562140Y21498674D01*
X-80503415Y21305084D01*
X-80408051Y21126670D01*
X-80279712Y20970289D01*
X-80240525Y20938129D01*
X-64261872Y4959475D01*
X-64229712Y4920288D01*
X-64073331Y4791949D01*
X-63894917Y4696585D01*
X-63701327Y4637860D01*
X-63550451Y4623000D01*
X-63550442Y4623000D01*
X-63500001Y4618032D01*
X-63496508Y4618376D01*
X-62226999Y3348866D01*
X-62227000Y-13869476D01*
X-62321496Y-14010901D01*
X-62391376Y-14179604D01*
X-62427000Y-14358699D01*
X-62427000Y-14541301D01*
X-62391376Y-14720396D01*
X-62321496Y-14889099D01*
X-62220048Y-15040928D01*
X-62090928Y-15170048D01*
X-61939099Y-15271496D01*
X-61770396Y-15341376D01*
X-61591301Y-15377000D01*
X-61408699Y-15377000D01*
X-61229604Y-15341376D01*
X-61060901Y-15271496D01*
X-60909072Y-15170048D01*
X-60779952Y-15040928D01*
X-60678504Y-14889099D01*
X-60608624Y-14720396D01*
X-60573000Y-14541301D01*
X-60573000Y-14358699D01*
X-60608624Y-14179604D01*
X-60678504Y-14010901D01*
X-60773000Y-13869476D01*
X-60773000Y-7724981D01*
X-40777000Y-7724981D01*
X-40777000Y-8075019D01*
X-40708711Y-8418332D01*
X-40574757Y-8741725D01*
X-40380286Y-9032771D01*
X-40132771Y-9280286D01*
X-39841725Y-9474757D01*
X-39518332Y-9608711D01*
X-39175019Y-9677000D01*
X-38824981Y-9677000D01*
X-38481668Y-9608711D01*
X-38158275Y-9474757D01*
X-37867229Y-9280286D01*
X-37619714Y-9032771D01*
X-37425243Y-8741725D01*
X-37291289Y-8418332D01*
X-37223000Y-8075019D01*
X-37223000Y-7724981D01*
X-37291289Y-7381668D01*
X-37425243Y-7058275D01*
X-37619714Y-6767229D01*
X-37867229Y-6519714D01*
X-38158275Y-6325243D01*
X-38481668Y-6191289D01*
X-38824981Y-6123000D01*
X-39175019Y-6123000D01*
X-39518332Y-6191289D01*
X-39841725Y-6325243D01*
X-40132771Y-6519714D01*
X-40380286Y-6767229D01*
X-40574757Y-7058275D01*
X-40708711Y-7381668D01*
X-40777000Y-7724981D01*
X-60773000Y-7724981D01*
X-60773000Y3614293D01*
X-60769483Y3650001D01*
X-60783520Y3792518D01*
X-60800286Y3847787D01*
X-60825090Y3929557D01*
X-60892597Y4055853D01*
X-60983446Y4166554D01*
X-61011188Y4189321D01*
X-61444867Y4623000D01*
X-37349549Y4623000D01*
X-37198673Y4637860D01*
X-37005083Y4696585D01*
X-36826669Y4791949D01*
X-36670288Y4920288D01*
X-36541949Y5076669D01*
X-36446585Y5255083D01*
X-36387860Y5448673D01*
X-36368031Y5650000D01*
X-36387860Y5851327D01*
X-36446585Y6044917D01*
X-36541949Y6223331D01*
X-36670288Y6379712D01*
X-36826669Y6508051D01*
X-37005083Y6603415D01*
X-37198673Y6662140D01*
X-37349549Y6677000D01*
X-63074603Y6677000D01*
X-72271114Y15873511D01*
X-20177000Y15873511D01*
X-20177000Y15326489D01*
X-20070282Y14789979D01*
X-19860946Y14284597D01*
X-19557037Y13829766D01*
X-19170234Y13442963D01*
X-18715403Y13139054D01*
X-18210021Y12929718D01*
X-17673511Y12823000D01*
X-17126489Y12823000D01*
X-16589979Y12929718D01*
X-16084597Y13139054D01*
X-15629766Y13442963D01*
X-15242963Y13829766D01*
X-14939054Y14284597D01*
X-14729718Y14789979D01*
X-14623000Y15326489D01*
X-14623000Y15873511D01*
X-14729718Y16410021D01*
X-14939054Y16915403D01*
X-15242963Y17370234D01*
X-15629766Y17757037D01*
X-16084597Y18060946D01*
X-16589979Y18270282D01*
X-17126489Y18377000D01*
X-17673511Y18377000D01*
X-18210021Y18270282D01*
X-18715403Y18060946D01*
X-19170234Y17757037D01*
X-19557037Y17370234D01*
X-19860946Y16915403D01*
X-20070282Y16410021D01*
X-20177000Y15873511D01*
X-72271114Y15873511D01*
X-78038904Y21641301D01*
X-65927000Y21641301D01*
X-65927000Y21458699D01*
X-65891376Y21279604D01*
X-65821496Y21110901D01*
X-65720048Y20959072D01*
X-65590928Y20829952D01*
X-65546101Y20800000D01*
X-65590928Y20770048D01*
X-65720048Y20640928D01*
X-65821496Y20489099D01*
X-65891376Y20320396D01*
X-65927000Y20141301D01*
X-65927000Y19958699D01*
X-65891376Y19779604D01*
X-65821496Y19610901D01*
X-65720048Y19459072D01*
X-65590928Y19329952D01*
X-65439099Y19228504D01*
X-65270396Y19158624D01*
X-65103573Y19125441D01*
X-64039321Y18061188D01*
X-64016554Y18033446D01*
X-63905853Y17942597D01*
X-63779557Y17875090D01*
X-63642517Y17833520D01*
X-63535708Y17823000D01*
X-63535706Y17823000D01*
X-63500001Y17819483D01*
X-63464295Y17823000D01*
X-62880524Y17823000D01*
X-62739099Y17728504D01*
X-62570396Y17658624D01*
X-62391301Y17623000D01*
X-62208699Y17623000D01*
X-62029604Y17658624D01*
X-61860901Y17728504D01*
X-61709072Y17829952D01*
X-61579952Y17959072D01*
X-61478504Y18110901D01*
X-61408624Y18279604D01*
X-61373000Y18458699D01*
X-61373000Y18641301D01*
X-61408624Y18820396D01*
X-61478504Y18989099D01*
X-61579952Y19140928D01*
X-61589024Y19150000D01*
X-61479952Y19259072D01*
X-61378504Y19410901D01*
X-61308624Y19579604D01*
X-61273000Y19758699D01*
X-61273000Y19941301D01*
X-61308624Y20120396D01*
X-61378504Y20289099D01*
X-61479952Y20440928D01*
X-61609072Y20570048D01*
X-61760901Y20671496D01*
X-61929604Y20741376D01*
X-62108699Y20777000D01*
X-62291301Y20777000D01*
X-62470396Y20741376D01*
X-62639099Y20671496D01*
X-62780524Y20577000D01*
X-62998867Y20577000D01*
X-63971867Y21550000D01*
X-35329549Y21550000D01*
X-35329549Y19950000D01*
X-35319374Y19846690D01*
X-35289239Y19747350D01*
X-35240304Y19655798D01*
X-35174448Y19575552D01*
X-35094202Y19509696D01*
X-35089895Y19507394D01*
X-35175972Y19378570D01*
X-35276004Y19137072D01*
X-35327000Y18880698D01*
X-35327000Y18619302D01*
X-35276004Y18362928D01*
X-35175972Y18121430D01*
X-35030748Y17904087D01*
X-34845913Y17719252D01*
X-34628570Y17574028D01*
X-34387072Y17473996D01*
X-34130698Y17423000D01*
X-33869302Y17423000D01*
X-33612928Y17473996D01*
X-33371430Y17574028D01*
X-33154087Y17719252D01*
X-32969252Y17904087D01*
X-32824028Y18121430D01*
X-32723996Y18362928D01*
X-32673000Y18619302D01*
X-32673000Y18880698D01*
X-32723996Y19137072D01*
X-32824028Y19378570D01*
X-32910105Y19507394D01*
X-32905798Y19509696D01*
X-32825552Y19575552D01*
X-32759696Y19655798D01*
X-32710761Y19747350D01*
X-32680626Y19846690D01*
X-32670451Y19950000D01*
X-32670451Y21550000D01*
X-32680626Y21653310D01*
X-32710761Y21752650D01*
X-32759696Y21844202D01*
X-32824783Y21923511D01*
X-21177000Y21923511D01*
X-21177000Y21376489D01*
X-21070282Y20839979D01*
X-20860946Y20334597D01*
X-20557037Y19879766D01*
X-20170234Y19492963D01*
X-19715403Y19189054D01*
X-19210021Y18979718D01*
X-18673511Y18873000D01*
X-18126489Y18873000D01*
X-17589979Y18979718D01*
X-17084597Y19189054D01*
X-16629766Y19492963D01*
X-16242963Y19879766D01*
X-15939054Y20334597D01*
X-15729718Y20839979D01*
X-15623000Y21376489D01*
X-15623000Y21923511D01*
X-15729718Y22460021D01*
X-15939054Y22965403D01*
X-16242963Y23420234D01*
X-16629766Y23807037D01*
X-17084597Y24110946D01*
X-17589979Y24320282D01*
X-18126489Y24427000D01*
X-18673511Y24427000D01*
X-19210021Y24320282D01*
X-19715403Y24110946D01*
X-20170234Y23807037D01*
X-20557037Y23420234D01*
X-20860946Y22965403D01*
X-21070282Y22460021D01*
X-21177000Y21923511D01*
X-32824783Y21923511D01*
X-32825552Y21924448D01*
X-32905798Y21990304D01*
X-32997350Y22039239D01*
X-33096690Y22069374D01*
X-33200000Y22079549D01*
X-34800000Y22079549D01*
X-34903310Y22069374D01*
X-35002650Y22039239D01*
X-35094202Y21990304D01*
X-35174448Y21924448D01*
X-35240304Y21844202D01*
X-35289239Y21752650D01*
X-35319374Y21653310D01*
X-35329549Y21550000D01*
X-63971867Y21550000D01*
X-64075441Y21653573D01*
X-64108624Y21820396D01*
X-64178504Y21989099D01*
X-64279952Y22140928D01*
X-64409072Y22270048D01*
X-64560901Y22371496D01*
X-64729604Y22441376D01*
X-64908699Y22477000D01*
X-65091301Y22477000D01*
X-65270396Y22441376D01*
X-65439099Y22371496D01*
X-65590928Y22270048D01*
X-65720048Y22140928D01*
X-65821496Y21989099D01*
X-65891376Y21820396D01*
X-65927000Y21641301D01*
X-78038904Y21641301D01*
X-78523001Y22125397D01*
X-78523001Y23796899D01*
X-78512254Y23789718D01*
X-78261656Y23685917D01*
X-77995623Y23633000D01*
X-77724377Y23633000D01*
X-77458344Y23685917D01*
X-77207746Y23789718D01*
X-76982213Y23940414D01*
X-76790414Y24132213D01*
X-76639718Y24357746D01*
X-76535917Y24608344D01*
X-76483000Y24874377D01*
X-76483000Y25145623D01*
X-76535917Y25411656D01*
X-76639718Y25662254D01*
X-76790414Y25887787D01*
X-76982213Y26079586D01*
X-77207746Y26230282D01*
X-77327776Y26280000D01*
X-77207746Y26329718D01*
X-76982213Y26480414D01*
X-76790414Y26672213D01*
X-76639718Y26897746D01*
X-76590000Y27017776D01*
X-76540282Y26897746D01*
X-76389586Y26672213D01*
X-76197787Y26480414D01*
X-75972254Y26329718D01*
X-75721656Y26225917D01*
X-75455623Y26173000D01*
X-75184377Y26173000D01*
X-74918344Y26225917D01*
X-74667746Y26329718D01*
X-74442213Y26480414D01*
X-74250414Y26672213D01*
X-74099718Y26897746D01*
X-74050000Y27017776D01*
X-74000282Y26897746D01*
X-73849586Y26672213D01*
X-73657787Y26480414D01*
X-73432254Y26329718D01*
X-73312224Y26280000D01*
X-73432254Y26230282D01*
X-73657787Y26079586D01*
X-73849586Y25887787D01*
X-74000282Y25662254D01*
X-74104083Y25411656D01*
X-74157000Y25145623D01*
X-74157000Y24874377D01*
X-74104083Y24608344D01*
X-74000282Y24357746D01*
X-73849586Y24132213D01*
X-73657787Y23940414D01*
X-73432254Y23789718D01*
X-73181656Y23685917D01*
X-72915623Y23633000D01*
X-72644377Y23633000D01*
X-72378344Y23685917D01*
X-72127746Y23789718D01*
X-71902213Y23940414D01*
X-71710414Y24132213D01*
X-71559718Y24357746D01*
X-71510000Y24477776D01*
X-71460282Y24357746D01*
X-71309586Y24132213D01*
X-71117787Y23940414D01*
X-70892254Y23789718D01*
X-70641656Y23685917D01*
X-70375623Y23633000D01*
X-70104377Y23633000D01*
X-69838344Y23685917D01*
X-69587746Y23789718D01*
X-69362213Y23940414D01*
X-69170414Y24132213D01*
X-69019718Y24357746D01*
X-68970000Y24477776D01*
X-68920282Y24357746D01*
X-68769586Y24132213D01*
X-68577787Y23940414D01*
X-68352254Y23789718D01*
X-68101656Y23685917D01*
X-67835623Y23633000D01*
X-67564377Y23633000D01*
X-67298344Y23685917D01*
X-67047746Y23789718D01*
X-66822213Y23940414D01*
X-66630414Y24132213D01*
X-66486025Y24348308D01*
X-66355178Y24128645D01*
X-66160269Y23912412D01*
X-65926920Y23738359D01*
X-65664099Y23613175D01*
X-65516890Y23568524D01*
X-65287000Y23689845D01*
X-65287000Y24883000D01*
X-65307000Y24883000D01*
X-65307000Y25137000D01*
X-65287000Y25137000D01*
X-65287000Y25157000D01*
X-65033000Y25157000D01*
X-65033000Y25137000D01*
X-65013000Y25137000D01*
X-65013000Y24883000D01*
X-65033000Y24883000D01*
X-65033000Y23689845D01*
X-64803110Y23568524D01*
X-64655901Y23613175D01*
X-64393080Y23738359D01*
X-64159731Y23912412D01*
X-63964822Y24128645D01*
X-63833975Y24348308D01*
X-63689586Y24132213D01*
X-63497787Y23940414D01*
X-63272254Y23789718D01*
X-63021656Y23685917D01*
X-62755623Y23633000D01*
X-62484377Y23633000D01*
X-62218344Y23685917D01*
X-61967746Y23789718D01*
X-61742213Y23940414D01*
X-61550414Y24132213D01*
X-61399718Y24357746D01*
X-61350000Y24477776D01*
X-61300282Y24357746D01*
X-61149586Y24132213D01*
X-60957787Y23940414D01*
X-60732254Y23789718D01*
X-60481656Y23685917D01*
X-60215623Y23633000D01*
X-59944377Y23633000D01*
X-59678344Y23685917D01*
X-59427746Y23789718D01*
X-59202213Y23940414D01*
X-59010414Y24132213D01*
X-58866025Y24348308D01*
X-58735178Y24128645D01*
X-58540269Y23912412D01*
X-58306920Y23738359D01*
X-58044099Y23613175D01*
X-57896890Y23568524D01*
X-57667000Y23689845D01*
X-57667000Y24883000D01*
X-57687000Y24883000D01*
X-57687000Y25137000D01*
X-57667000Y25137000D01*
X-57667000Y25157000D01*
X-57413000Y25157000D01*
X-57413000Y25137000D01*
X-57393000Y25137000D01*
X-57393000Y24883000D01*
X-57413000Y24883000D01*
X-57413000Y23689845D01*
X-57183110Y23568524D01*
X-57035901Y23613175D01*
X-56773080Y23738359D01*
X-56539731Y23912412D01*
X-56344822Y24128645D01*
X-56213975Y24348308D01*
X-56069586Y24132213D01*
X-55877787Y23940414D01*
X-55652254Y23789718D01*
X-55401656Y23685917D01*
X-55135623Y23633000D01*
X-54864377Y23633000D01*
X-54598344Y23685917D01*
X-54347746Y23789718D01*
X-54122213Y23940414D01*
X-53930414Y24132213D01*
X-53779718Y24357746D01*
X-53730000Y24477776D01*
X-53680282Y24357746D01*
X-53529586Y24132213D01*
X-53337787Y23940414D01*
X-53112254Y23789718D01*
X-52861656Y23685917D01*
X-52595623Y23633000D01*
X-52324377Y23633000D01*
X-52058344Y23685917D01*
X-51807746Y23789718D01*
X-51582213Y23940414D01*
X-51390414Y24132213D01*
X-51239718Y24357746D01*
X-51190000Y24477776D01*
X-51140282Y24357746D01*
X-50989586Y24132213D01*
X-50797787Y23940414D01*
X-50572254Y23789718D01*
X-50321656Y23685917D01*
X-50055623Y23633000D01*
X-49784377Y23633000D01*
X-49518344Y23685917D01*
X-49267746Y23789718D01*
X-49042213Y23940414D01*
X-48850414Y24132213D01*
X-48699718Y24357746D01*
X-48650000Y24477776D01*
X-48600282Y24357746D01*
X-48449586Y24132213D01*
X-48257787Y23940414D01*
X-48032254Y23789718D01*
X-47781656Y23685917D01*
X-47515623Y23633000D01*
X-47244377Y23633000D01*
X-46978344Y23685917D01*
X-46727746Y23789718D01*
X-46502213Y23940414D01*
X-46310414Y24132213D01*
X-46166025Y24348308D01*
X-46035178Y24128645D01*
X-45840269Y23912412D01*
X-45606920Y23738359D01*
X-45344099Y23613175D01*
X-45196890Y23568524D01*
X-44967000Y23689845D01*
X-44967000Y24883000D01*
X-44987000Y24883000D01*
X-44987000Y25137000D01*
X-44967000Y25137000D01*
X-44967000Y25157000D01*
X-44713000Y25157000D01*
X-44713000Y25137000D01*
X-44693000Y25137000D01*
X-44693000Y24883000D01*
X-44713000Y24883000D01*
X-44713000Y23689845D01*
X-44483110Y23568524D01*
X-44335901Y23613175D01*
X-44073080Y23738359D01*
X-43839731Y23912412D01*
X-43644822Y24128645D01*
X-43513975Y24348308D01*
X-43369586Y24132213D01*
X-43177787Y23940414D01*
X-42952254Y23789718D01*
X-42701656Y23685917D01*
X-42435623Y23633000D01*
X-42164377Y23633000D01*
X-41898344Y23685917D01*
X-41647746Y23789718D01*
X-41422213Y23940414D01*
X-41230414Y24132213D01*
X-41086025Y24348308D01*
X-40955178Y24128645D01*
X-40760269Y23912412D01*
X-40526920Y23738359D01*
X-40264099Y23613175D01*
X-40116890Y23568524D01*
X-39887000Y23689845D01*
X-39887000Y24883000D01*
X-39907000Y24883000D01*
X-39907000Y25137000D01*
X-39887000Y25137000D01*
X-39887000Y25157000D01*
X-39633000Y25157000D01*
X-39633000Y25137000D01*
X-39613000Y25137000D01*
X-39613000Y24883000D01*
X-39633000Y24883000D01*
X-39633000Y23689845D01*
X-39403110Y23568524D01*
X-39255901Y23613175D01*
X-38993080Y23738359D01*
X-38759731Y23912412D01*
X-38564822Y24128645D01*
X-38433975Y24348308D01*
X-38289586Y24132213D01*
X-38097787Y23940414D01*
X-37872254Y23789718D01*
X-37621656Y23685917D01*
X-37355623Y23633000D01*
X-37084377Y23633000D01*
X-36818344Y23685917D01*
X-36567746Y23789718D01*
X-36342213Y23940414D01*
X-36150414Y24132213D01*
X-35999718Y24357746D01*
X-35950000Y24477776D01*
X-35900282Y24357746D01*
X-35749586Y24132213D01*
X-35557787Y23940414D01*
X-35332254Y23789718D01*
X-35081656Y23685917D01*
X-34815623Y23633000D01*
X-34544377Y23633000D01*
X-34278344Y23685917D01*
X-34027746Y23789718D01*
X-33802213Y23940414D01*
X-33610414Y24132213D01*
X-33459718Y24357746D01*
X-33410000Y24477776D01*
X-33360282Y24357746D01*
X-33209586Y24132213D01*
X-33017787Y23940414D01*
X-32792254Y23789718D01*
X-32541656Y23685917D01*
X-32275623Y23633000D01*
X-32004377Y23633000D01*
X-31738344Y23685917D01*
X-31487746Y23789718D01*
X-31262213Y23940414D01*
X-31070414Y24132213D01*
X-30919718Y24357746D01*
X-30815917Y24608344D01*
X-30763000Y24874377D01*
X-30763000Y25145623D01*
X-30815917Y25411656D01*
X-30919718Y25662254D01*
X-31070414Y25887787D01*
X-31262213Y26079586D01*
X-31482032Y26226464D01*
X-31373080Y26278359D01*
X-31139731Y26452412D01*
X-30944822Y26668645D01*
X-30795843Y26918748D01*
X-30698519Y27193109D01*
X-30819186Y27423000D01*
X-32013000Y27423000D01*
X-32013000Y27403000D01*
X-32267000Y27403000D01*
X-32267000Y27423000D01*
X-32287000Y27423000D01*
X-32287000Y27677000D01*
X-32267000Y27677000D01*
X-32267000Y28870155D01*
X-32013000Y28870155D01*
X-32013000Y27677000D01*
X-30819186Y27677000D01*
X-30698519Y27906891D01*
X-30795843Y28181252D01*
X-30944822Y28431355D01*
X-31139731Y28647588D01*
X-31373080Y28821641D01*
X-31635901Y28946825D01*
X-31783110Y28991476D01*
X-32013000Y28870155D01*
X-32267000Y28870155D01*
X-32496890Y28991476D01*
X-32644099Y28946825D01*
X-32906920Y28821641D01*
X-33140269Y28647588D01*
X-33335178Y28431355D01*
X-33466025Y28211692D01*
X-33610414Y28427787D01*
X-33802213Y28619586D01*
X-34027746Y28770282D01*
X-34278344Y28874083D01*
X-34544377Y28927000D01*
X-34815623Y28927000D01*
X-34993487Y28891621D01*
X-43842414Y37740547D01*
X-26827000Y37740547D01*
X-26827000Y37459453D01*
X-26772162Y37183759D01*
X-26664591Y36924062D01*
X-26508424Y36690340D01*
X-26418084Y36600000D01*
X-26508424Y36509660D01*
X-26664591Y36275938D01*
X-26772162Y36016241D01*
X-26827000Y35740547D01*
X-26827000Y35459453D01*
X-26772162Y35183759D01*
X-26664591Y34924062D01*
X-26508424Y34690340D01*
X-26418084Y34600000D01*
X-26508424Y34509660D01*
X-26664591Y34275938D01*
X-26772162Y34016241D01*
X-26827000Y33740547D01*
X-26827000Y33459453D01*
X-26772162Y33183759D01*
X-26664591Y32924062D01*
X-26508424Y32690340D01*
X-26418084Y32600000D01*
X-26508424Y32509660D01*
X-26664591Y32275938D01*
X-26772162Y32016241D01*
X-26827000Y31740547D01*
X-26827000Y31459453D01*
X-26772162Y31183759D01*
X-26664591Y30924062D01*
X-26508424Y30690340D01*
X-26418084Y30600000D01*
X-26508424Y30509660D01*
X-26664591Y30275938D01*
X-26772162Y30016241D01*
X-26827000Y29740547D01*
X-26827000Y29459453D01*
X-26772162Y29183759D01*
X-26664591Y28924062D01*
X-26508424Y28690340D01*
X-26309660Y28491576D01*
X-26075938Y28335409D01*
X-25816241Y28227838D01*
X-25540547Y28173000D01*
X-25259453Y28173000D01*
X-24983759Y28227838D01*
X-24724062Y28335409D01*
X-24490340Y28491576D01*
X-24291576Y28690340D01*
X-24135409Y28924062D01*
X-24072079Y29076955D01*
X-16689000Y29076955D01*
X-16689000Y28823045D01*
X-16639465Y28574013D01*
X-16542297Y28339430D01*
X-16401232Y28128310D01*
X-16221690Y27948768D01*
X-16010570Y27807703D01*
X-15775987Y27710535D01*
X-15526955Y27661000D01*
X-15273045Y27661000D01*
X-15024013Y27710535D01*
X-14789430Y27807703D01*
X-14578310Y27948768D01*
X-14398768Y28128310D01*
X-14257703Y28339430D01*
X-14160535Y28574013D01*
X-14111000Y28823045D01*
X-14111000Y29076955D01*
X-14160535Y29325987D01*
X-14257703Y29560570D01*
X-14398768Y29771690D01*
X-14578310Y29951232D01*
X-14789430Y30092297D01*
X-15024013Y30189465D01*
X-15273045Y30239000D01*
X-15526955Y30239000D01*
X-15775987Y30189465D01*
X-16010570Y30092297D01*
X-16221690Y29951232D01*
X-16401232Y29771690D01*
X-16542297Y29560570D01*
X-16639465Y29325987D01*
X-16689000Y29076955D01*
X-24072079Y29076955D01*
X-24027838Y29183759D01*
X-23973000Y29459453D01*
X-23973000Y29740547D01*
X-24027838Y30016241D01*
X-24135409Y30275938D01*
X-24291576Y30509660D01*
X-24381916Y30600000D01*
X-24291576Y30690340D01*
X-24135409Y30924062D01*
X-24027838Y31183759D01*
X-23973000Y31459453D01*
X-23973000Y31740547D01*
X-24027838Y32016241D01*
X-24135409Y32275938D01*
X-24291576Y32509660D01*
X-24381916Y32600000D01*
X-24291576Y32690340D01*
X-24135409Y32924062D01*
X-24027838Y33183759D01*
X-23973000Y33459453D01*
X-23973000Y33740547D01*
X-24027838Y34016241D01*
X-24135409Y34275938D01*
X-24291576Y34509660D01*
X-24381916Y34600000D01*
X-24291576Y34690340D01*
X-24135409Y34924062D01*
X-24027838Y35183759D01*
X-23973000Y35459453D01*
X-23973000Y35740547D01*
X-24027838Y36016241D01*
X-24135409Y36275938D01*
X-24291576Y36509660D01*
X-24381916Y36600000D01*
X-24291576Y36690340D01*
X-24135409Y36924062D01*
X-24027838Y37183759D01*
X-23973000Y37459453D01*
X-23973000Y37740547D01*
X-24027838Y38016241D01*
X-24135409Y38275938D01*
X-24202905Y38376955D01*
X-16689000Y38376955D01*
X-16689000Y38123045D01*
X-16639465Y37874013D01*
X-16542297Y37639430D01*
X-16401232Y37428310D01*
X-16221690Y37248768D01*
X-16010570Y37107703D01*
X-15775987Y37010535D01*
X-15526955Y36961000D01*
X-15273045Y36961000D01*
X-15024013Y37010535D01*
X-14789430Y37107703D01*
X-14578310Y37248768D01*
X-14398768Y37428310D01*
X-14257703Y37639430D01*
X-14160535Y37874013D01*
X-14111000Y38123045D01*
X-14111000Y38376955D01*
X-14160535Y38625987D01*
X-14257703Y38860570D01*
X-14398768Y39071690D01*
X-14578310Y39251232D01*
X-14789430Y39392297D01*
X-15024013Y39489465D01*
X-15273045Y39539000D01*
X-15526955Y39539000D01*
X-15775987Y39489465D01*
X-16010570Y39392297D01*
X-16221690Y39251232D01*
X-16401232Y39071690D01*
X-16542297Y38860570D01*
X-16639465Y38625987D01*
X-16689000Y38376955D01*
X-24202905Y38376955D01*
X-24291576Y38509660D01*
X-24490340Y38708424D01*
X-24724062Y38864591D01*
X-24983759Y38972162D01*
X-25259453Y39027000D01*
X-25540547Y39027000D01*
X-25816241Y38972162D01*
X-26075938Y38864591D01*
X-26309660Y38708424D01*
X-26508424Y38509660D01*
X-26664591Y38275938D01*
X-26772162Y38016241D01*
X-26827000Y37740547D01*
X-43842414Y37740547D01*
X-45873000Y39771132D01*
X-45873000Y45988347D01*
X-21702048Y45988347D01*
X-21546038Y45672786D01*
X-21171255Y45481980D01*
X-20766449Y45367956D01*
X-20347176Y45335098D01*
X-19929549Y45384666D01*
X-19529617Y45514757D01*
X-19233962Y45672786D01*
X-19077952Y45988347D01*
X-20390000Y47300395D01*
X-21702048Y45988347D01*
X-45873000Y45988347D01*
X-45873000Y47437176D01*
X-22534902Y47437176D01*
X-22485334Y47019549D01*
X-22355243Y46619617D01*
X-22197214Y46323962D01*
X-21881653Y46167952D01*
X-20569605Y47480000D01*
X-20210395Y47480000D01*
X-18898347Y46167952D01*
X-18582786Y46323962D01*
X-18391980Y46698745D01*
X-18277956Y47103551D01*
X-18245098Y47522824D01*
X-18294666Y47940451D01*
X-18424757Y48340383D01*
X-18582786Y48636038D01*
X-18898347Y48792048D01*
X-20210395Y47480000D01*
X-20569605Y47480000D01*
X-21881653Y48792048D01*
X-22197214Y48636038D01*
X-22388020Y48261255D01*
X-22502044Y47856449D01*
X-22534902Y47437176D01*
X-45873000Y47437176D01*
X-45873000Y48971653D01*
X-21702048Y48971653D01*
X-20390000Y47659605D01*
X-19077952Y48971653D01*
X-19233962Y49287214D01*
X-19608745Y49478020D01*
X-20013551Y49592044D01*
X-20432824Y49624902D01*
X-20850451Y49575334D01*
X-21250383Y49445243D01*
X-21546038Y49287214D01*
X-21702048Y48971653D01*
X-45873000Y48971653D01*
X-45873000Y49557298D01*
X-23913097Y49557298D01*
X-23841514Y49313329D01*
X-23586004Y49192429D01*
X-23311816Y49123700D01*
X-23029488Y49109783D01*
X-22749870Y49151213D01*
X-22483708Y49246397D01*
X-22358486Y49313329D01*
X-22286903Y49557298D01*
X-23100000Y50370395D01*
X-23913097Y49557298D01*
X-45873000Y49557298D01*
X-45873000Y50479488D01*
X-24540217Y50479488D01*
X-24498787Y50199870D01*
X-24403603Y49933708D01*
X-24336671Y49808486D01*
X-24092702Y49736903D01*
X-23279605Y50550000D01*
X-22920395Y50550000D01*
X-22107298Y49736903D01*
X-21863329Y49808486D01*
X-21742429Y50063996D01*
X-21673700Y50338184D01*
X-21659783Y50620512D01*
X-21701213Y50900130D01*
X-21796397Y51166292D01*
X-21863329Y51291514D01*
X-22107298Y51363097D01*
X-22920395Y50550000D01*
X-23279605Y50550000D01*
X-24092702Y51363097D01*
X-24336671Y51291514D01*
X-24457571Y51036004D01*
X-24526300Y50761816D01*
X-24540217Y50479488D01*
X-45873000Y50479488D01*
X-45873000Y55269476D01*
X-45778504Y55410901D01*
X-45708624Y55579604D01*
X-45673000Y55758699D01*
X-45673000Y55941301D01*
X-45708624Y56120396D01*
X-45778504Y56289099D01*
X-45879952Y56440928D01*
X-46009072Y56570048D01*
X-46160901Y56671496D01*
X-46321757Y56738126D01*
X-28094119Y56738126D01*
X-28077446Y56683136D01*
X-27987123Y56479794D01*
X-27858865Y56297980D01*
X-27697601Y56144682D01*
X-27509529Y56025790D01*
X-27301876Y55945874D01*
X-27127000Y56070871D01*
X-27127000Y56913000D01*
X-26873000Y56913000D01*
X-26873000Y56070871D01*
X-26698124Y55945874D01*
X-26490471Y56025790D01*
X-26302399Y56144682D01*
X-26141135Y56297980D01*
X-26012877Y56479794D01*
X-25922554Y56683136D01*
X-25905881Y56738126D01*
X-26032046Y56913000D01*
X-26873000Y56913000D01*
X-27127000Y56913000D01*
X-27967954Y56913000D01*
X-28094119Y56738126D01*
X-46321757Y56738126D01*
X-46329604Y56741376D01*
X-46508699Y56777000D01*
X-46691301Y56777000D01*
X-46870396Y56741376D01*
X-47039099Y56671496D01*
X-47190928Y56570048D01*
X-47320048Y56440928D01*
X-47421496Y56289099D01*
X-47491376Y56120396D01*
X-47527000Y55941301D01*
X-47527000Y55758699D01*
X-47491376Y55579604D01*
X-47421496Y55410901D01*
X-47327000Y55269476D01*
X-47326999Y39505718D01*
X-47330517Y39470000D01*
X-47316480Y39327483D01*
X-47274910Y39190444D01*
X-47274909Y39190443D01*
X-47207402Y39064147D01*
X-47116553Y38953446D01*
X-47088811Y38930679D01*
X-37085134Y28927000D01*
X-37355623Y28927000D01*
X-37621656Y28874083D01*
X-37872254Y28770282D01*
X-38097787Y28619586D01*
X-38289586Y28427787D01*
X-38440282Y28202254D01*
X-38490000Y28082224D01*
X-38539718Y28202254D01*
X-38690414Y28427787D01*
X-38882213Y28619586D01*
X-39107746Y28770282D01*
X-39358344Y28874083D01*
X-39624377Y28927000D01*
X-39895623Y28927000D01*
X-40161656Y28874083D01*
X-40412254Y28770282D01*
X-40637787Y28619586D01*
X-40829586Y28427787D01*
X-40980282Y28202254D01*
X-41030000Y28082224D01*
X-41079718Y28202254D01*
X-41230414Y28427787D01*
X-41422213Y28619586D01*
X-41647746Y28770282D01*
X-41898344Y28874083D01*
X-42164377Y28927000D01*
X-42435623Y28927000D01*
X-42701656Y28874083D01*
X-42952254Y28770282D01*
X-43177787Y28619586D01*
X-43369586Y28427787D01*
X-43520282Y28202254D01*
X-43570000Y28082224D01*
X-43619718Y28202254D01*
X-43770414Y28427787D01*
X-43962213Y28619586D01*
X-44187746Y28770282D01*
X-44438344Y28874083D01*
X-44704377Y28927000D01*
X-44975623Y28927000D01*
X-45241656Y28874083D01*
X-45492254Y28770282D01*
X-45717787Y28619586D01*
X-45909586Y28427787D01*
X-46060282Y28202254D01*
X-46110000Y28082224D01*
X-46159718Y28202254D01*
X-46310414Y28427787D01*
X-46502213Y28619586D01*
X-46727746Y28770282D01*
X-46978344Y28874083D01*
X-47244377Y28927000D01*
X-47515623Y28927000D01*
X-47781656Y28874083D01*
X-48032254Y28770282D01*
X-48257787Y28619586D01*
X-48449586Y28427787D01*
X-48593975Y28211692D01*
X-48724822Y28431355D01*
X-48919731Y28647588D01*
X-49153080Y28821641D01*
X-49415901Y28946825D01*
X-49563110Y28991476D01*
X-49793000Y28870155D01*
X-49793000Y27677000D01*
X-49773000Y27677000D01*
X-49773000Y27423000D01*
X-49793000Y27423000D01*
X-49793000Y27403000D01*
X-50047000Y27403000D01*
X-50047000Y27423000D01*
X-50067000Y27423000D01*
X-50067000Y27677000D01*
X-50047000Y27677000D01*
X-50047000Y28870155D01*
X-50276890Y28991476D01*
X-50424099Y28946825D01*
X-50686920Y28821641D01*
X-50920269Y28647588D01*
X-51115178Y28431355D01*
X-51246025Y28211692D01*
X-51390414Y28427787D01*
X-51582213Y28619586D01*
X-51807746Y28770282D01*
X-51823000Y28776600D01*
X-51823000Y32616024D01*
X-51779952Y32659072D01*
X-51678504Y32810901D01*
X-51608624Y32979604D01*
X-51573000Y33158699D01*
X-51573000Y33341301D01*
X-51608624Y33520396D01*
X-51678504Y33689099D01*
X-51779952Y33840928D01*
X-51909072Y33970048D01*
X-52060901Y34071496D01*
X-52229604Y34141376D01*
X-52408699Y34177000D01*
X-52591301Y34177000D01*
X-52770396Y34141376D01*
X-52811332Y34124420D01*
X-52811332Y34279633D01*
X-52846956Y34458728D01*
X-52916836Y34627431D01*
X-53018284Y34779260D01*
X-53147404Y34908380D01*
X-53299233Y35009828D01*
X-53467936Y35079708D01*
X-53647031Y35115332D01*
X-53829633Y35115332D01*
X-54008728Y35079708D01*
X-54065079Y35056366D01*
X-54065079Y35196550D01*
X-54100703Y35375645D01*
X-54170583Y35544348D01*
X-54272031Y35696177D01*
X-54401151Y35825297D01*
X-54552980Y35926745D01*
X-54721683Y35996625D01*
X-54900778Y36032249D01*
X-55083380Y36032249D01*
X-55262475Y35996625D01*
X-55431178Y35926745D01*
X-55583007Y35825297D01*
X-55712127Y35696177D01*
X-55813575Y35544348D01*
X-55883455Y35375645D01*
X-55919079Y35196550D01*
X-55919079Y35013948D01*
X-55883455Y34834853D01*
X-55813575Y34666150D01*
X-55712127Y34514321D01*
X-55669079Y34471273D01*
X-55669078Y28759040D01*
X-55877787Y28619586D01*
X-56069586Y28427787D01*
X-56220282Y28202254D01*
X-56270000Y28082224D01*
X-56319718Y28202254D01*
X-56470414Y28427787D01*
X-56662213Y28619586D01*
X-56887746Y28770282D01*
X-56923000Y28784885D01*
X-56923000Y29816024D01*
X-56879952Y29859072D01*
X-56778504Y30010901D01*
X-56708624Y30179604D01*
X-56673000Y30358699D01*
X-56673000Y30541301D01*
X-56708624Y30720396D01*
X-56778504Y30889099D01*
X-56879952Y31040928D01*
X-57009072Y31170048D01*
X-57160901Y31271496D01*
X-57329604Y31341376D01*
X-57508699Y31377000D01*
X-57691301Y31377000D01*
X-57870396Y31341376D01*
X-58039099Y31271496D01*
X-58190928Y31170048D01*
X-58320048Y31040928D01*
X-58421496Y30889099D01*
X-58491376Y30720396D01*
X-58527000Y30541301D01*
X-58527000Y30358699D01*
X-58491376Y30179604D01*
X-58421496Y30010901D01*
X-58320048Y29859072D01*
X-58277000Y29816024D01*
X-58276999Y28713657D01*
X-58417787Y28619586D01*
X-58609586Y28427787D01*
X-58760282Y28202254D01*
X-58810000Y28082224D01*
X-58859718Y28202254D01*
X-59010414Y28427787D01*
X-59202213Y28619586D01*
X-59427746Y28770282D01*
X-59678344Y28874083D01*
X-59944377Y28927000D01*
X-60215623Y28927000D01*
X-60481656Y28874083D01*
X-60732254Y28770282D01*
X-60957787Y28619586D01*
X-61149586Y28427787D01*
X-61300282Y28202254D01*
X-61350000Y28082224D01*
X-61399718Y28202254D01*
X-61550414Y28427787D01*
X-61742213Y28619586D01*
X-61967746Y28770282D01*
X-62218344Y28874083D01*
X-62484377Y28927000D01*
X-62755623Y28927000D01*
X-63021656Y28874083D01*
X-63272254Y28770282D01*
X-63497787Y28619586D01*
X-63689586Y28427787D01*
X-63840282Y28202254D01*
X-63890000Y28082224D01*
X-63939718Y28202254D01*
X-64090414Y28427787D01*
X-64282213Y28619586D01*
X-64507746Y28770282D01*
X-64758344Y28874083D01*
X-65024377Y28927000D01*
X-65295623Y28927000D01*
X-65561656Y28874083D01*
X-65812254Y28770282D01*
X-66037787Y28619586D01*
X-66229586Y28427787D01*
X-66380282Y28202254D01*
X-66430000Y28082224D01*
X-66479718Y28202254D01*
X-66630414Y28427787D01*
X-66822213Y28619586D01*
X-67047746Y28770282D01*
X-67298344Y28874083D01*
X-67564377Y28927000D01*
X-67835623Y28927000D01*
X-68101656Y28874083D01*
X-68352254Y28770282D01*
X-68577787Y28619586D01*
X-68769586Y28427787D01*
X-68913975Y28211692D01*
X-69044822Y28431355D01*
X-69239731Y28647588D01*
X-69473080Y28821641D01*
X-69735901Y28946825D01*
X-69883110Y28991476D01*
X-70113000Y28870155D01*
X-70113000Y27677000D01*
X-70093000Y27677000D01*
X-70093000Y27423000D01*
X-70113000Y27423000D01*
X-70113000Y27403000D01*
X-70367000Y27403000D01*
X-70367000Y27423000D01*
X-70387000Y27423000D01*
X-70387000Y27677000D01*
X-70367000Y27677000D01*
X-70367000Y28870155D01*
X-70596890Y28991476D01*
X-70744099Y28946825D01*
X-71006920Y28821641D01*
X-71240269Y28647588D01*
X-71435178Y28431355D01*
X-71566025Y28211692D01*
X-71710414Y28427787D01*
X-71902213Y28619586D01*
X-72127746Y28770282D01*
X-72378344Y28874083D01*
X-72644377Y28927000D01*
X-72915623Y28927000D01*
X-73181656Y28874083D01*
X-73432254Y28770282D01*
X-73657787Y28619586D01*
X-73849586Y28427787D01*
X-74000282Y28202254D01*
X-74050000Y28082224D01*
X-74099718Y28202254D01*
X-74250414Y28427787D01*
X-74442213Y28619586D01*
X-74667746Y28770282D01*
X-74918344Y28874083D01*
X-75184377Y28927000D01*
X-75455623Y28927000D01*
X-75721656Y28874083D01*
X-75972254Y28770282D01*
X-76197787Y28619586D01*
X-76389586Y28427787D01*
X-76540282Y28202254D01*
X-76590000Y28082224D01*
X-76639718Y28202254D01*
X-76790414Y28427787D01*
X-76982213Y28619586D01*
X-77207746Y28770282D01*
X-77458344Y28874083D01*
X-77724377Y28927000D01*
X-77995623Y28927000D01*
X-78261656Y28874083D01*
X-78512254Y28770282D01*
X-78737787Y28619586D01*
X-78929586Y28427787D01*
X-79020451Y28291798D01*
X-79020451Y28400000D01*
X-79030626Y28503310D01*
X-79060761Y28602650D01*
X-79109696Y28694202D01*
X-79175552Y28774448D01*
X-79255798Y28840304D01*
X-79347350Y28889239D01*
X-79446690Y28919374D01*
X-79550000Y28929549D01*
X-81250000Y28929549D01*
X-81353310Y28919374D01*
X-81452650Y28889239D01*
X-81544202Y28840304D01*
X-81624448Y28774448D01*
X-81690304Y28694202D01*
X-81739239Y28602650D01*
X-81769374Y28503310D01*
X-81779549Y28400000D01*
X-86223000Y28400000D01*
X-86223000Y33299559D01*
X-86218032Y33350000D01*
X-86223000Y33400441D01*
X-86223000Y33400451D01*
X-86237860Y33551327D01*
X-86296585Y33744917D01*
X-86391949Y33923331D01*
X-86520288Y34079712D01*
X-86559475Y34111872D01*
X-90123000Y37675396D01*
X-90123000Y60074604D01*
X-80422585Y69775019D01*
X-79177000Y69775019D01*
X-79177000Y69424981D01*
X-79108711Y69081668D01*
X-78974757Y68758275D01*
X-78780286Y68467229D01*
X-78532771Y68219714D01*
X-78241725Y68025243D01*
X-77918332Y67891289D01*
X-77575019Y67823000D01*
X-77224981Y67823000D01*
X-76881668Y67891289D01*
X-76558275Y68025243D01*
X-76267229Y68219714D01*
X-76019714Y68467229D01*
X-75825243Y68758275D01*
X-75691289Y69081668D01*
X-75623000Y69424981D01*
X-75623000Y69775019D01*
X-75691289Y70118332D01*
X-75825243Y70441725D01*
X-76019714Y70732771D01*
X-76267229Y70980286D01*
X-76558275Y71174757D01*
X-76881668Y71308711D01*
X-77224981Y71377000D01*
X-77575019Y71377000D01*
X-77918332Y71308711D01*
X-78241725Y71174757D01*
X-78532771Y70980286D01*
X-78780286Y70732771D01*
X-78974757Y70441725D01*
X-79108711Y70118332D01*
X-79177000Y69775019D01*
X-80422585Y69775019D01*
X-78422585Y71775019D01*
X-43177000Y71775019D01*
X-43177000Y71424981D01*
X-43108711Y71081668D01*
X-42974757Y70758275D01*
X-42780286Y70467229D01*
X-42532771Y70219714D01*
X-42241725Y70025243D01*
X-41918332Y69891289D01*
X-41575019Y69823000D01*
X-41224981Y69823000D01*
X-40881668Y69891289D01*
X-40558275Y70025243D01*
X-40520631Y70050396D01*
X-32677000Y70050396D01*
X-32677000Y69749604D01*
X-32618319Y69454590D01*
X-32503210Y69176694D01*
X-32336099Y68926594D01*
X-32123406Y68713901D01*
X-31873306Y68546790D01*
X-31595410Y68431681D01*
X-31300396Y68373000D01*
X-30999604Y68373000D01*
X-30704590Y68431681D01*
X-30426694Y68546790D01*
X-30176594Y68713901D01*
X-29963901Y68926594D01*
X-29796790Y69176694D01*
X-29681681Y69454590D01*
X-29623000Y69749604D01*
X-29623000Y70050396D01*
X-29681681Y70345410D01*
X-29796790Y70623306D01*
X-29963901Y70873406D01*
X-30176594Y71086099D01*
X-30426694Y71253210D01*
X-30704590Y71368319D01*
X-30999604Y71427000D01*
X-31300396Y71427000D01*
X-31595410Y71368319D01*
X-31873306Y71253210D01*
X-32123406Y71086099D01*
X-32336099Y70873406D01*
X-32503210Y70623306D01*
X-32618319Y70345410D01*
X-32677000Y70050396D01*
X-40520631Y70050396D01*
X-40267229Y70219714D01*
X-40019714Y70467229D01*
X-39825243Y70758275D01*
X-39691289Y71081668D01*
X-39623000Y71424981D01*
X-39623000Y71775019D01*
X-39691289Y72118332D01*
X-39825243Y72441725D01*
X-40019714Y72732771D01*
X-40267229Y72980286D01*
X-40558275Y73174757D01*
X-40881668Y73308711D01*
X-41224981Y73377000D01*
X-41575019Y73377000D01*
X-41918332Y73308711D01*
X-42241725Y73174757D01*
X-42532771Y72980286D01*
X-42780286Y72732771D01*
X-42974757Y72441725D01*
X-43108711Y72118332D01*
X-43177000Y71775019D01*
X-78422585Y71775019D01*
X-77724603Y72473000D01*
X-48450441Y72473000D01*
X-48400000Y72468032D01*
X-48349559Y72473000D01*
X-48349549Y72473000D01*
X-48198673Y72487860D01*
X-48005083Y72546585D01*
X-47826669Y72641949D01*
X-47670288Y72770288D01*
X-47638123Y72809481D01*
X-45873218Y74574386D01*
X-31374010Y74621614D01*
X-27879397Y71127000D01*
X-28050396Y71127000D01*
X-28345410Y71068319D01*
X-28623306Y70953210D01*
X-28873406Y70786099D01*
X-29086099Y70573406D01*
X-29253210Y70323306D01*
X-29368319Y70045410D01*
X-29427000Y69750396D01*
X-29427000Y69449604D01*
X-29368319Y69154590D01*
X-29253210Y68876694D01*
X-29086099Y68626594D01*
X-28873406Y68413901D01*
X-28623306Y68246790D01*
X-28345410Y68131681D01*
X-28050396Y68073000D01*
X-27749604Y68073000D01*
X-27454590Y68131681D01*
X-27176694Y68246790D01*
X-26926594Y68413901D01*
X-26713901Y68626594D01*
X-26546790Y68876694D01*
X-26431681Y69154590D01*
X-26400000Y69313864D01*
X-26368319Y69154590D01*
X-26253210Y68876694D01*
X-26086099Y68626594D01*
X-25873406Y68413901D01*
X-25623306Y68246790D01*
X-25345410Y68131681D01*
X-25050396Y68073000D01*
X-24879397Y68073000D01*
X-28815395Y64137001D01*
X-75989559Y64137001D01*
X-76040000Y64141969D01*
X-76090441Y64137001D01*
X-76090450Y64137001D01*
X-76241326Y64122141D01*
X-76434916Y64063416D01*
X-76613330Y63968052D01*
X-76769711Y63839713D01*
X-76801871Y63800526D01*
X-89540524Y51061872D01*
X-89579711Y51029712D01*
X-89611871Y50990525D01*
X-89611872Y50990524D01*
X-89708050Y50873331D01*
X-89803414Y50694917D01*
X-89862139Y50501327D01*
X-89881968Y50300000D01*
X-89876999Y50249549D01*
X-89877000Y43949550D01*
X-89862140Y43798674D01*
X-89803415Y43605084D01*
X-89708051Y43426669D01*
X-89579712Y43270288D01*
X-89423331Y43141949D01*
X-89244917Y43046585D01*
X-89051327Y42987860D01*
X-88850000Y42968031D01*
X-88648674Y42987860D01*
X-88455084Y43046585D01*
X-88276669Y43141949D01*
X-88120288Y43270288D01*
X-87991949Y43426669D01*
X-87896585Y43605083D01*
X-87837860Y43798673D01*
X-87823000Y43949549D01*
X-87823000Y49874604D01*
X-80355730Y57341874D01*
X-28094119Y57341874D01*
X-27967954Y57167000D01*
X-27127000Y57167000D01*
X-27127000Y57187000D01*
X-26873000Y57187000D01*
X-26873000Y57167000D01*
X-26032046Y57167000D01*
X-25905881Y57341874D01*
X-25922554Y57396864D01*
X-26012877Y57600206D01*
X-26129060Y57764903D01*
X-26089885Y57823533D01*
X-26012467Y58010435D01*
X-25973000Y58208849D01*
X-25973000Y58350000D01*
X-24429549Y58350000D01*
X-24429549Y56750000D01*
X-24419374Y56646690D01*
X-24389239Y56547350D01*
X-24340304Y56455798D01*
X-24274448Y56375552D01*
X-24194202Y56309696D01*
X-24102650Y56260761D01*
X-24003310Y56230626D01*
X-23900000Y56220451D01*
X-23736833Y56220451D01*
X-23945913Y56080748D01*
X-24130748Y55895913D01*
X-24275972Y55678570D01*
X-24376004Y55437072D01*
X-24427000Y55180698D01*
X-24427000Y54919302D01*
X-24376004Y54662928D01*
X-24275972Y54421430D01*
X-24130748Y54204087D01*
X-23976661Y54050000D01*
X-24130748Y53895913D01*
X-24275972Y53678570D01*
X-24376004Y53437072D01*
X-24427000Y53180698D01*
X-24427000Y52919302D01*
X-24376004Y52662928D01*
X-24275972Y52421430D01*
X-24130748Y52204087D01*
X-23945913Y52019252D01*
X-23728570Y51874028D01*
X-23696418Y51860710D01*
X-23716292Y51853603D01*
X-23841514Y51786671D01*
X-23913097Y51542702D01*
X-23100000Y50729605D01*
X-22286903Y51542702D01*
X-22358486Y51786671D01*
X-22509649Y51858197D01*
X-22471430Y51874028D01*
X-22254087Y52019252D01*
X-22069252Y52204087D01*
X-21924028Y52421430D01*
X-21823996Y52662928D01*
X-21773000Y52919302D01*
X-21773000Y53180698D01*
X-21823996Y53437072D01*
X-21924028Y53678570D01*
X-22069252Y53895913D01*
X-22223339Y54050000D01*
X-22069252Y54204087D01*
X-21924028Y54421430D01*
X-21823996Y54662928D01*
X-21773000Y54919302D01*
X-21773000Y55180698D01*
X-21823996Y55437072D01*
X-21924028Y55678570D01*
X-22069252Y55895913D01*
X-22254087Y56080748D01*
X-22463167Y56220451D01*
X-22300000Y56220451D01*
X-22196690Y56230626D01*
X-22097350Y56260761D01*
X-22005798Y56309696D01*
X-21925552Y56375552D01*
X-21859696Y56455798D01*
X-21810761Y56547350D01*
X-21780626Y56646690D01*
X-21770451Y56750000D01*
X-21770451Y58350000D01*
X-21780626Y58453310D01*
X-21810761Y58552650D01*
X-21859696Y58644202D01*
X-21925552Y58724448D01*
X-22005798Y58790304D01*
X-22097350Y58839239D01*
X-22196690Y58869374D01*
X-22300000Y58879549D01*
X-23900000Y58879549D01*
X-24003310Y58869374D01*
X-24102650Y58839239D01*
X-24194202Y58790304D01*
X-24274448Y58724448D01*
X-24340304Y58644202D01*
X-24389239Y58552650D01*
X-24419374Y58453310D01*
X-24429549Y58350000D01*
X-25973000Y58350000D01*
X-25973000Y58411151D01*
X-26012467Y58609565D01*
X-26089885Y58796467D01*
X-26189131Y58945000D01*
X-26089885Y59093533D01*
X-26075465Y59128347D01*
X-21702048Y59128347D01*
X-21546038Y58812786D01*
X-21171255Y58621980D01*
X-20766449Y58507956D01*
X-20347176Y58475098D01*
X-19929549Y58524666D01*
X-19529617Y58654757D01*
X-19233962Y58812786D01*
X-19077952Y59128347D01*
X-20390000Y60440395D01*
X-21702048Y59128347D01*
X-26075465Y59128347D01*
X-26012467Y59280435D01*
X-25973000Y59478849D01*
X-25973000Y59681151D01*
X-26012467Y59879565D01*
X-26076822Y60034930D01*
X-26059696Y60055798D01*
X-26010761Y60147350D01*
X-25980626Y60246690D01*
X-25970451Y60350000D01*
X-25970451Y60577176D01*
X-22534902Y60577176D01*
X-22485334Y60159549D01*
X-22355243Y59759617D01*
X-22197214Y59463962D01*
X-21881653Y59307952D01*
X-20569605Y60620000D01*
X-20210395Y60620000D01*
X-18898347Y59307952D01*
X-18582786Y59463962D01*
X-18391980Y59838745D01*
X-18277956Y60243551D01*
X-18245098Y60662824D01*
X-18294666Y61080451D01*
X-18424757Y61480383D01*
X-18582786Y61776038D01*
X-18898347Y61932048D01*
X-20210395Y60620000D01*
X-20569605Y60620000D01*
X-21881653Y61932048D01*
X-22197214Y61776038D01*
X-22388020Y61401255D01*
X-22502044Y60996449D01*
X-22534902Y60577176D01*
X-25970451Y60577176D01*
X-25970451Y61350000D01*
X-25980626Y61453310D01*
X-26010761Y61552650D01*
X-26059696Y61644202D01*
X-26125552Y61724448D01*
X-26205798Y61790304D01*
X-26297350Y61839239D01*
X-26396690Y61869374D01*
X-26500000Y61879549D01*
X-27500000Y61879549D01*
X-27603310Y61869374D01*
X-27702650Y61839239D01*
X-27794202Y61790304D01*
X-27874448Y61724448D01*
X-27940304Y61644202D01*
X-27989239Y61552650D01*
X-28019374Y61453310D01*
X-28029549Y61350000D01*
X-28029549Y60350000D01*
X-28019374Y60246690D01*
X-27989239Y60147350D01*
X-27940304Y60055798D01*
X-27923178Y60034930D01*
X-27987533Y59879565D01*
X-28027000Y59681151D01*
X-28027000Y59478849D01*
X-27987533Y59280435D01*
X-27910115Y59093533D01*
X-27810869Y58945000D01*
X-27910115Y58796467D01*
X-27987533Y58609565D01*
X-28027000Y58411151D01*
X-28027000Y58208849D01*
X-27987533Y58010435D01*
X-27910115Y57823533D01*
X-27870940Y57764903D01*
X-27987123Y57600206D01*
X-28077446Y57396864D01*
X-28094119Y57341874D01*
X-80355730Y57341874D01*
X-75614602Y62083001D01*
X-28440440Y62083001D01*
X-28389999Y62078033D01*
X-28339558Y62083001D01*
X-28339548Y62083001D01*
X-28188672Y62097861D01*
X-28143206Y62111653D01*
X-21702048Y62111653D01*
X-20390000Y60799605D01*
X-19077952Y62111653D01*
X-19233962Y62427214D01*
X-19608745Y62618020D01*
X-20013551Y62732044D01*
X-20432824Y62764902D01*
X-20850451Y62715334D01*
X-21250383Y62585243D01*
X-21546038Y62427214D01*
X-21702048Y62111653D01*
X-28143206Y62111653D01*
X-27995082Y62156586D01*
X-27816668Y62251950D01*
X-27660287Y62380289D01*
X-27628122Y62419482D01*
X-24174092Y65873511D01*
X-20177000Y65873511D01*
X-20177000Y65326489D01*
X-20070282Y64789979D01*
X-19860946Y64284597D01*
X-19557037Y63829766D01*
X-19170234Y63442963D01*
X-18715403Y63139054D01*
X-18210021Y62929718D01*
X-17673511Y62823000D01*
X-17126489Y62823000D01*
X-16589979Y62929718D01*
X-16084597Y63139054D01*
X-15629766Y63442963D01*
X-15242963Y63829766D01*
X-14939054Y64284597D01*
X-14729718Y64789979D01*
X-14623000Y65326489D01*
X-14623000Y65873511D01*
X-14729718Y66410021D01*
X-14939054Y66915403D01*
X-15242963Y67370234D01*
X-15629766Y67757037D01*
X-16084597Y68060946D01*
X-16589979Y68270282D01*
X-17126489Y68377000D01*
X-17673511Y68377000D01*
X-18210021Y68270282D01*
X-18715403Y68060946D01*
X-19170234Y67757037D01*
X-19557037Y67370234D01*
X-19860946Y66915403D01*
X-20070282Y66410021D01*
X-20177000Y65873511D01*
X-24174092Y65873511D01*
X-21974602Y68073000D01*
X-21749604Y68073000D01*
X-21454590Y68131681D01*
X-21176694Y68246790D01*
X-20926594Y68413901D01*
X-20713901Y68626594D01*
X-20546790Y68876694D01*
X-20431681Y69154590D01*
X-20373000Y69449604D01*
X-20373000Y69750396D01*
X-20431681Y70045410D01*
X-20433746Y70050396D01*
X-20177000Y70050396D01*
X-20177000Y69749604D01*
X-20118319Y69454590D01*
X-20003210Y69176694D01*
X-19836099Y68926594D01*
X-19623406Y68713901D01*
X-19373306Y68546790D01*
X-19095410Y68431681D01*
X-18800396Y68373000D01*
X-18499604Y68373000D01*
X-18204590Y68431681D01*
X-17926694Y68546790D01*
X-17676594Y68713901D01*
X-17463901Y68926594D01*
X-17296790Y69176694D01*
X-17181681Y69454590D01*
X-17123000Y69749604D01*
X-17123000Y70050396D01*
X-17181681Y70345410D01*
X-17296790Y70623306D01*
X-17463901Y70873406D01*
X-17676594Y71086099D01*
X-17926694Y71253210D01*
X-18204590Y71368319D01*
X-18499604Y71427000D01*
X-18800396Y71427000D01*
X-19095410Y71368319D01*
X-19373306Y71253210D01*
X-19623406Y71086099D01*
X-19836099Y70873406D01*
X-20003210Y70623306D01*
X-20118319Y70345410D01*
X-20177000Y70050396D01*
X-20433746Y70050396D01*
X-20546790Y70323306D01*
X-20713901Y70573406D01*
X-20926594Y70786099D01*
X-21176694Y70953210D01*
X-21454590Y71068319D01*
X-21749604Y71127000D01*
X-22050396Y71127000D01*
X-22345410Y71068319D01*
X-22623306Y70953210D01*
X-22873406Y70786099D01*
X-23086099Y70573406D01*
X-23253210Y70323306D01*
X-23368319Y70045410D01*
X-23400000Y69886136D01*
X-23431681Y70045410D01*
X-23546790Y70323306D01*
X-23713901Y70573406D01*
X-23926594Y70786099D01*
X-24176694Y70953210D01*
X-24454590Y71068319D01*
X-24749604Y71127000D01*
X-24974603Y71127000D01*
X-29895604Y76048000D01*
X-14424083Y76048000D01*
X-14309387Y76038125D01*
X-14228008Y76014605D01*
X-14152755Y75975730D01*
X-14086482Y75922975D01*
X-14031718Y75858353D01*
X-13990547Y75784322D01*
X-13964540Y75703706D01*
X-13952000Y75596620D01*
X-13951999Y-15579192D01*
X-13991289Y-15381668D01*
X-14125243Y-15058275D01*
X-14319714Y-14767229D01*
X-14567229Y-14519714D01*
X-14858275Y-14325243D01*
X-15181668Y-14191289D01*
X-15524981Y-14123000D01*
X-15875019Y-14123000D01*
X-16218332Y-14191289D01*
X-16541725Y-14325243D01*
X-16832771Y-14519714D01*
X-17080286Y-14767229D01*
X-17274757Y-15058275D01*
X-17408711Y-15381668D01*
X-17477000Y-15724981D01*
X-17477000Y-16075019D01*
X-17408711Y-16418332D01*
X-17274757Y-16741725D01*
X-17080286Y-17032771D01*
X-16832771Y-17280286D01*
X-16541725Y-17474757D01*
X-16218332Y-17608711D01*
X-15875019Y-17677000D01*
X-15524981Y-17677000D01*
X-15181668Y-17608711D01*
X-14858275Y-17474757D01*
X-14567229Y-17280286D01*
X-14319714Y-17032771D01*
X-14125243Y-16741725D01*
X-13991289Y-16418332D01*
X-13951999Y-16220808D01*
X-13951999Y-24086273D01*
X-14014835Y-25159337D01*
X-14223686Y-26190354D01*
X-14575722Y-27181654D01*
X-15063919Y-28113454D01*
X-15678546Y-28967184D01*
X-16407324Y-29725786D01*
X-17235726Y-30374139D01*
X-18147214Y-30899300D01*
X-19123605Y-31290791D01*
X-20145413Y-31540801D01*
X-21206175Y-31645720D01*
X-21502203Y-31648000D01*
X-33827109Y-31648000D01*
X-33840308Y-31649300D01*
X-35014971Y-31705723D01*
X-35022162Y-31706479D01*
X-35029395Y-31706605D01*
X-35072459Y-31711511D01*
X-36462077Y-31925394D01*
X-36471518Y-31927401D01*
X-36481067Y-31928658D01*
X-36523299Y-31938407D01*
X-37879771Y-32308224D01*
X-37888927Y-32311288D01*
X-37898269Y-32313617D01*
X-37939126Y-32328084D01*
X-39104264Y-32792926D01*
X-34037827Y-27726489D01*
X-30877000Y-27726489D01*
X-30877000Y-28273511D01*
X-30770282Y-28810021D01*
X-30560946Y-29315403D01*
X-30257037Y-29770234D01*
X-29870234Y-30157037D01*
X-29415403Y-30460946D01*
X-28910021Y-30670282D01*
X-28373511Y-30777000D01*
X-27826489Y-30777000D01*
X-27289979Y-30670282D01*
X-26784597Y-30460946D01*
X-26329766Y-30157037D01*
X-25942963Y-29770234D01*
X-25639054Y-29315403D01*
X-25429718Y-28810021D01*
X-25323000Y-28273511D01*
X-25323000Y-27726489D01*
X-25429718Y-27189979D01*
X-25639054Y-26684597D01*
X-25942963Y-26229766D01*
X-26329766Y-25842963D01*
X-26784597Y-25539054D01*
X-27289979Y-25329718D01*
X-27826489Y-25223000D01*
X-28373511Y-25223000D01*
X-28910021Y-25329718D01*
X-29415403Y-25539054D01*
X-29870234Y-25842963D01*
X-30257037Y-26229766D01*
X-30560946Y-26684597D01*
X-30770282Y-27189979D01*
X-30877000Y-27726489D01*
X-34037827Y-27726489D01*
X-31136319Y-24824981D01*
X-18677000Y-24824981D01*
X-18677000Y-25175019D01*
X-18608711Y-25518332D01*
X-18474757Y-25841725D01*
X-18280286Y-26132771D01*
X-18032771Y-26380286D01*
X-17741725Y-26574757D01*
X-17418332Y-26708711D01*
X-17075019Y-26777000D01*
X-16724981Y-26777000D01*
X-16381668Y-26708711D01*
X-16058275Y-26574757D01*
X-15767229Y-26380286D01*
X-15519714Y-26132771D01*
X-15325243Y-25841725D01*
X-15191289Y-25518332D01*
X-15123000Y-25175019D01*
X-15123000Y-24824981D01*
X-15191289Y-24481668D01*
X-15325243Y-24158275D01*
X-15519714Y-23867229D01*
X-15767229Y-23619714D01*
X-16058275Y-23425243D01*
X-16381668Y-23291289D01*
X-16724981Y-23223000D01*
X-17075019Y-23223000D01*
X-17418332Y-23291289D01*
X-17741725Y-23425243D01*
X-18032771Y-23619714D01*
X-18280286Y-23867229D01*
X-18474757Y-24158275D01*
X-18608711Y-24481668D01*
X-18677000Y-24824981D01*
X-31136319Y-24824981D01*
X-30161184Y-23849847D01*
X-30133447Y-23827084D01*
X-30042597Y-23716383D01*
X-29975090Y-23590087D01*
X-29941681Y-23479952D01*
X-29933520Y-23453048D01*
X-29919483Y-23310531D01*
X-29923000Y-23274823D01*
X-29923000Y-14951132D01*
X-27696425Y-12724559D01*
X-27529604Y-12691376D01*
X-27360901Y-12621496D01*
X-27209072Y-12520048D01*
X-27079952Y-12390928D01*
X-26978504Y-12239099D01*
X-26908624Y-12070396D01*
X-26873000Y-11891301D01*
X-26873000Y-11708699D01*
X-26908624Y-11529604D01*
X-26978504Y-11360901D01*
X-27079952Y-11209072D01*
X-27209072Y-11079952D01*
X-27360901Y-10978504D01*
X-27529604Y-10908624D01*
X-27702559Y-10874221D01*
X-23823350Y-6995012D01*
X-23797524Y-6973817D01*
X-23712922Y-6870731D01*
X-23650058Y-6753120D01*
X-23611346Y-6625505D01*
X-23601550Y-6526042D01*
X-23601550Y-6526036D01*
X-23598276Y-6492791D01*
X-23601550Y-6459546D01*
X-23601550Y-6029396D01*
X-23600000Y-6029549D01*
X-21900000Y-6029549D01*
X-21796690Y-6019374D01*
X-21697350Y-5989239D01*
X-21605798Y-5940304D01*
X-21525552Y-5874448D01*
X-21459696Y-5794202D01*
X-21410761Y-5702650D01*
X-21380626Y-5603310D01*
X-21370451Y-5500000D01*
X-21370451Y-3800000D01*
X-21380626Y-3696690D01*
X-21410761Y-3597350D01*
X-21459696Y-3505798D01*
X-21525552Y-3425552D01*
X-21605798Y-3359696D01*
X-21697350Y-3310761D01*
X-21796690Y-3280626D01*
X-21900000Y-3270451D01*
X-22008202Y-3270451D01*
X-21872213Y-3179586D01*
X-21680414Y-2987787D01*
X-21529718Y-2762254D01*
X-21425917Y-2511656D01*
X-21373000Y-2245623D01*
X-21373000Y-2024981D01*
X-18677000Y-2024981D01*
X-18677000Y-2375019D01*
X-18608711Y-2718332D01*
X-18474757Y-3041725D01*
X-18280286Y-3332771D01*
X-18032771Y-3580286D01*
X-17741725Y-3774757D01*
X-17418332Y-3908711D01*
X-17075019Y-3977000D01*
X-16724981Y-3977000D01*
X-16381668Y-3908711D01*
X-16058275Y-3774757D01*
X-15767229Y-3580286D01*
X-15519714Y-3332771D01*
X-15325243Y-3041725D01*
X-15191289Y-2718332D01*
X-15123000Y-2375019D01*
X-15123000Y-2024981D01*
X-15191289Y-1681668D01*
X-15325243Y-1358275D01*
X-15519714Y-1067229D01*
X-15767229Y-819714D01*
X-16058275Y-625243D01*
X-16381668Y-491289D01*
X-16724981Y-423000D01*
X-17075019Y-423000D01*
X-17418332Y-491289D01*
X-17741725Y-625243D01*
X-18032771Y-819714D01*
X-18280286Y-1067229D01*
X-18474757Y-1358275D01*
X-18608711Y-1681668D01*
X-18677000Y-2024981D01*
X-21373000Y-2024981D01*
X-21373000Y-1974377D01*
X-21425917Y-1708344D01*
X-21529718Y-1457746D01*
X-21680414Y-1232213D01*
X-21872213Y-1040414D01*
X-22097746Y-889718D01*
X-22217776Y-840000D01*
X-22097746Y-790282D01*
X-21872213Y-639586D01*
X-21680414Y-447787D01*
X-21529718Y-222254D01*
X-21425917Y28344D01*
X-21373000Y294377D01*
X-21373000Y565623D01*
X-21425917Y831656D01*
X-21529718Y1082254D01*
X-21680414Y1307787D01*
X-21872213Y1499586D01*
X-22097746Y1650282D01*
X-22217776Y1700000D01*
X-22097746Y1749718D01*
X-21872213Y1900414D01*
X-21680414Y2092213D01*
X-21529718Y2317746D01*
X-21425917Y2568344D01*
X-21373000Y2834377D01*
X-21373000Y3105623D01*
X-21425917Y3371656D01*
X-21529718Y3622254D01*
X-21680414Y3847787D01*
X-21872213Y4039586D01*
X-22097746Y4190282D01*
X-22217776Y4240000D01*
X-22097746Y4289718D01*
X-21872213Y4440414D01*
X-21680414Y4632213D01*
X-21529718Y4857746D01*
X-21425917Y5108344D01*
X-21373000Y5374377D01*
X-21373000Y5645623D01*
X-21425917Y5911656D01*
X-21529718Y6162254D01*
X-21680414Y6387787D01*
X-21872213Y6579586D01*
X-22097746Y6730282D01*
X-22217776Y6780000D01*
X-22097746Y6829718D01*
X-21872213Y6980414D01*
X-21680414Y7172213D01*
X-21529718Y7397746D01*
X-21425917Y7648344D01*
X-21373000Y7914377D01*
X-21373000Y8185623D01*
X-21425917Y8451656D01*
X-21529718Y8702254D01*
X-21680414Y8927787D01*
X-21872213Y9119586D01*
X-22097746Y9270282D01*
X-22217776Y9320000D01*
X-22097746Y9369718D01*
X-21872213Y9520414D01*
X-21680414Y9712213D01*
X-21529718Y9937746D01*
X-21425917Y10188344D01*
X-21373000Y10454377D01*
X-21373000Y10725623D01*
X-21425917Y10991656D01*
X-21529718Y11242254D01*
X-21680414Y11467787D01*
X-21872213Y11659586D01*
X-22097746Y11810282D01*
X-22217776Y11860000D01*
X-22097746Y11909718D01*
X-21872213Y12060414D01*
X-21680414Y12252213D01*
X-21529718Y12477746D01*
X-21425917Y12728344D01*
X-21373000Y12994377D01*
X-21373000Y13265623D01*
X-21425917Y13531656D01*
X-21529718Y13782254D01*
X-21680414Y14007787D01*
X-21872213Y14199586D01*
X-22097746Y14350282D01*
X-22348344Y14454083D01*
X-22614377Y14507000D01*
X-22885623Y14507000D01*
X-23151656Y14454083D01*
X-23402254Y14350282D01*
X-23627787Y14199586D01*
X-23819586Y14007787D01*
X-23970282Y13782254D01*
X-24074083Y13531656D01*
X-24127000Y13265623D01*
X-24127000Y12994377D01*
X-24079889Y12757533D01*
X-24905211Y11932211D01*
X-24931038Y11911015D01*
X-25015639Y11807929D01*
X-25078503Y11690318D01*
X-25117215Y11562703D01*
X-25127011Y11463240D01*
X-25127011Y11463234D01*
X-25130285Y11429989D01*
X-25127011Y11396744D01*
X-25127010Y8044653D01*
X-26018790Y7152872D01*
X-26044617Y7131676D01*
X-26065812Y7105850D01*
X-26065814Y7105848D01*
X-26073055Y7097025D01*
X-26129218Y7028590D01*
X-26192082Y6910979D01*
X-26230794Y6783364D01*
X-26240590Y6683901D01*
X-26240590Y6683895D01*
X-26243864Y6650650D01*
X-26240590Y6617405D01*
X-26240589Y3265314D01*
X-27156645Y2349257D01*
X-27182472Y2328061D01*
X-27267073Y2224975D01*
X-27329937Y2107364D01*
X-27368649Y1979749D01*
X-27378445Y1880286D01*
X-27378445Y1880280D01*
X-27381719Y1847035D01*
X-27378445Y1813790D01*
X-27378444Y-1538302D01*
X-28233820Y-2393678D01*
X-28259647Y-2414874D01*
X-28280842Y-2440700D01*
X-28280844Y-2440702D01*
X-28323990Y-2493276D01*
X-28344248Y-2517960D01*
X-28407112Y-2635571D01*
X-28445824Y-2763186D01*
X-28455620Y-2862649D01*
X-28455620Y-2862655D01*
X-28458894Y-2895900D01*
X-28455620Y-2929145D01*
X-28455619Y-4762596D01*
X-43166022Y-19473000D01*
X-45316024Y-19473000D01*
X-45359072Y-19429952D01*
X-45510901Y-19328504D01*
X-45679604Y-19258624D01*
X-45858699Y-19223000D01*
X-46041301Y-19223000D01*
X-46220396Y-19258624D01*
X-46389099Y-19328504D01*
X-46540928Y-19429952D01*
X-46670048Y-19559072D01*
X-46771496Y-19710901D01*
X-46841376Y-19879604D01*
X-46877000Y-20058699D01*
X-46877000Y-20241301D01*
X-46841376Y-20420396D01*
X-46771496Y-20589099D01*
X-46670048Y-20740928D01*
X-46610976Y-20800000D01*
X-46670048Y-20859072D01*
X-46771496Y-21010901D01*
X-46841376Y-21179604D01*
X-46877000Y-21358699D01*
X-46877000Y-21541301D01*
X-46841376Y-21720396D01*
X-46771496Y-21889099D01*
X-46670048Y-22040928D01*
X-46610976Y-22100000D01*
X-46620048Y-22109072D01*
X-46721496Y-22260901D01*
X-46791376Y-22429604D01*
X-46827000Y-22608699D01*
X-46827000Y-22791301D01*
X-46791376Y-22970396D01*
X-46721496Y-23139099D01*
X-46620048Y-23290928D01*
X-46510976Y-23400000D01*
X-46570048Y-23459072D01*
X-46671496Y-23610901D01*
X-46741376Y-23779604D01*
X-46777000Y-23958699D01*
X-46777000Y-24141301D01*
X-46741376Y-24320396D01*
X-46671496Y-24489099D01*
X-46570048Y-24640928D01*
X-46510976Y-24700000D01*
X-46520048Y-24709072D01*
X-46621496Y-24860901D01*
X-46691376Y-25029604D01*
X-46727000Y-25208699D01*
X-46727000Y-25391301D01*
X-46691376Y-25570396D01*
X-46621496Y-25739099D01*
X-46520048Y-25890928D01*
X-46460976Y-25950000D01*
X-46520048Y-26009072D01*
X-46621496Y-26160901D01*
X-46691376Y-26329604D01*
X-46727000Y-26508699D01*
X-46727000Y-26691301D01*
X-46691376Y-26870396D01*
X-46621496Y-27039099D01*
X-46520048Y-27190928D01*
X-46516307Y-27194669D01*
X-46525379Y-27203741D01*
X-46626827Y-27355570D01*
X-46696707Y-27524273D01*
X-46732331Y-27703368D01*
X-46732331Y-27885970D01*
X-46696707Y-28065065D01*
X-46626827Y-28233768D01*
X-46525379Y-28385597D01*
X-46437976Y-28473000D01*
X-46466024Y-28473000D01*
X-46509072Y-28429952D01*
X-46660901Y-28328504D01*
X-46829604Y-28258624D01*
X-47008699Y-28223000D01*
X-47191301Y-28223000D01*
X-47370396Y-28258624D01*
X-47539099Y-28328504D01*
X-47690928Y-28429952D01*
X-47820048Y-28559072D01*
X-47921496Y-28710901D01*
X-47991376Y-28879604D01*
X-48027000Y-29058699D01*
X-48027000Y-29241301D01*
X-47991376Y-29420396D01*
X-47921496Y-29589099D01*
X-47820048Y-29740928D01*
X-47690928Y-29870048D01*
X-47539099Y-29971496D01*
X-47370396Y-30041376D01*
X-47191301Y-30077000D01*
X-47008699Y-30077000D01*
X-46829604Y-30041376D01*
X-46660901Y-29971496D01*
X-46509072Y-29870048D01*
X-46466024Y-29827000D01*
X-46083905Y-29827000D01*
X-46050660Y-29830274D01*
X-46017415Y-29827000D01*
X-46017408Y-29827000D01*
X-45917945Y-29817204D01*
X-45790330Y-29778492D01*
X-45672719Y-29715628D01*
X-45569633Y-29631027D01*
X-45548434Y-29605196D01*
X-43741230Y-27797992D01*
X-43715404Y-27776797D01*
X-43630802Y-27673711D01*
X-43567938Y-27556100D01*
X-43529226Y-27428485D01*
X-43519430Y-27329022D01*
X-43519430Y-27329013D01*
X-43516156Y-27295771D01*
X-43519430Y-27262529D01*
X-43519430Y-26691092D01*
X-32719870Y-15891532D01*
X-32626999Y-16030525D01*
X-32627000Y-23410855D01*
X-51088811Y-41872667D01*
X-51116553Y-41895434D01*
X-51207402Y-42006135D01*
X-51274910Y-42132432D01*
X-51316480Y-42269471D01*
X-51330517Y-42411988D01*
X-51326999Y-42447706D01*
X-51327000Y-47014292D01*
X-51330517Y-47050000D01*
X-51327000Y-47085707D01*
X-51316480Y-47192516D01*
X-51274910Y-47329556D01*
X-51207403Y-47455852D01*
X-51116554Y-47566553D01*
X-51088810Y-47589322D01*
X-50739326Y-47938806D01*
X-50716554Y-47966554D01*
X-50605853Y-48057403D01*
X-50479557Y-48124910D01*
X-50342517Y-48166480D01*
X-50329549Y-48167757D01*
X-50329549Y-48300000D01*
X-50319374Y-48403310D01*
X-50289239Y-48502650D01*
X-50240304Y-48594202D01*
X-50174448Y-48674448D01*
X-50094202Y-48740304D01*
X-50002650Y-48789239D01*
X-49903310Y-48819374D01*
X-49800000Y-48829549D01*
X-48100000Y-48829549D01*
X-47996690Y-48819374D01*
X-47897350Y-48789239D01*
X-47805798Y-48740304D01*
X-47725552Y-48674448D01*
X-47659696Y-48594202D01*
X-47610761Y-48502650D01*
X-47580626Y-48403310D01*
X-47570451Y-48300000D01*
X-47570451Y-46600000D01*
X-47580626Y-46496690D01*
X-47610761Y-46397350D01*
X-47659696Y-46305798D01*
X-47725552Y-46225552D01*
X-47805798Y-46159696D01*
X-47897350Y-46110761D01*
X-47996690Y-46080626D01*
X-48100000Y-46070451D01*
X-48208202Y-46070451D01*
X-48072213Y-45979586D01*
X-47880414Y-45787787D01*
X-47729718Y-45562254D01*
X-47625917Y-45311656D01*
X-47573000Y-45045623D01*
X-47573000Y-44774377D01*
X-47625917Y-44508344D01*
X-47729718Y-44257746D01*
X-47880414Y-44032213D01*
X-48072213Y-43840414D01*
X-48223000Y-43739662D01*
X-48223000Y-41911662D01*
X-45592778Y-39281440D01*
X-45997809Y-40247331D01*
X-46001030Y-40256428D01*
X-46004948Y-40265227D01*
X-46018702Y-40306329D01*
X-46412136Y-41656141D01*
X-46414306Y-41665539D01*
X-46417204Y-41674731D01*
X-46426216Y-41717126D01*
X-46664318Y-43102799D01*
X-46665410Y-43112383D01*
X-46667249Y-43121843D01*
X-46671397Y-43164923D01*
X-46671404Y-43164985D01*
X-46671404Y-43165004D01*
X-46750464Y-44557301D01*
X-46752000Y-44572892D01*
X-46751999Y-57872989D01*
X-46785570Y-58215371D01*
X-46877159Y-58518726D01*
X-47025926Y-58798518D01*
X-47226206Y-59044084D01*
X-47255763Y-59068536D01*
X-52665000Y-59068331D01*
X-52665000Y-58727000D01*
X-53773000Y-58727000D01*
X-53773000Y-58747000D01*
X-54027000Y-58747000D01*
X-54027000Y-58727000D01*
X-55135000Y-58727000D01*
X-55135000Y-59068238D01*
X-59665000Y-59068066D01*
X-59665000Y-58727000D01*
X-60773000Y-58727000D01*
X-60773000Y-58747000D01*
X-61027000Y-58747000D01*
X-61027000Y-58727000D01*
X-62135000Y-58727000D01*
X-62135000Y-59067972D01*
X-92174309Y-59066834D01*
X-92605439Y-58879374D01*
X-93320394Y-58416849D01*
X-93950215Y-57843757D01*
X-94477975Y-57175495D01*
X-94889502Y-56430017D01*
X-94932462Y-56308699D01*
X-91152000Y-56308699D01*
X-91152000Y-56491301D01*
X-91116376Y-56670396D01*
X-91046496Y-56839099D01*
X-90945048Y-56990928D01*
X-90815928Y-57120048D01*
X-90664099Y-57221496D01*
X-90495396Y-57291376D01*
X-90316301Y-57327000D01*
X-90133699Y-57327000D01*
X-89954604Y-57291376D01*
X-89785901Y-57221496D01*
X-89634072Y-57120048D01*
X-89504952Y-56990928D01*
X-89433759Y-56884379D01*
X-88976379Y-56427000D01*
X-87660749Y-56427000D01*
X-87677000Y-56508699D01*
X-87677000Y-56691301D01*
X-87641376Y-56870396D01*
X-87571496Y-57039099D01*
X-87470048Y-57190928D01*
X-87340928Y-57320048D01*
X-87234379Y-57391241D01*
X-86185959Y-58439662D01*
X-86157716Y-58474076D01*
X-86123303Y-58502318D01*
X-86123301Y-58502320D01*
X-86121803Y-58503549D01*
X-86020369Y-58586794D01*
X-85863670Y-58670551D01*
X-85693643Y-58722128D01*
X-85561127Y-58735180D01*
X-85561120Y-58735180D01*
X-85516820Y-58739543D01*
X-85472521Y-58735180D01*
X-84458805Y-58735180D01*
X-84333121Y-58760180D01*
X-84150519Y-58760180D01*
X-83971424Y-58724556D01*
X-83802721Y-58654676D01*
X-83650892Y-58553228D01*
X-83521772Y-58424108D01*
X-83420324Y-58272279D01*
X-83350444Y-58103576D01*
X-83314820Y-57924481D01*
X-83314820Y-57741879D01*
X-83350444Y-57562784D01*
X-83420324Y-57394081D01*
X-83521772Y-57242252D01*
X-83650892Y-57113132D01*
X-83802721Y-57011684D01*
X-83971424Y-56941804D01*
X-84150519Y-56906180D01*
X-84333121Y-56906180D01*
X-84458805Y-56931180D01*
X-85143199Y-56931180D01*
X-85869202Y-56205178D01*
X-85779952Y-56115928D01*
X-85678504Y-55964099D01*
X-85608624Y-55795396D01*
X-85573000Y-55616301D01*
X-85573000Y-55527000D01*
X-85433699Y-55527000D01*
X-85308015Y-55502000D01*
X-83033976Y-55502000D01*
X-82965928Y-55570048D01*
X-82814099Y-55671496D01*
X-82645396Y-55741376D01*
X-82466301Y-55777000D01*
X-82283699Y-55777000D01*
X-82191694Y-55758699D01*
X-77702000Y-55758699D01*
X-77702000Y-55941301D01*
X-77677000Y-56066985D01*
X-77677000Y-56440749D01*
X-77681363Y-56485048D01*
X-77677000Y-56529347D01*
X-77677000Y-56529354D01*
X-77663948Y-56661870D01*
X-77612371Y-56831897D01*
X-77528614Y-56988596D01*
X-77415896Y-57125944D01*
X-77381477Y-57154191D01*
X-75929187Y-58606482D01*
X-75900944Y-58640896D01*
X-75866531Y-58669138D01*
X-75866529Y-58669140D01*
X-75786059Y-58735180D01*
X-75763597Y-58753614D01*
X-75606898Y-58837371D01*
X-75449302Y-58885177D01*
X-75436871Y-58888948D01*
X-75260048Y-58906364D01*
X-75215741Y-58902000D01*
X-66766985Y-58902000D01*
X-66641301Y-58927000D01*
X-66458699Y-58927000D01*
X-66279604Y-58891376D01*
X-66110901Y-58821496D01*
X-65959072Y-58720048D01*
X-65829952Y-58590928D01*
X-65728504Y-58439099D01*
X-65658624Y-58270396D01*
X-65629306Y-58123000D01*
X-62135000Y-58123000D01*
X-62135000Y-58473000D01*
X-61027000Y-58473000D01*
X-61027000Y-57181269D01*
X-60773000Y-57181269D01*
X-60773000Y-58473000D01*
X-59665000Y-58473000D01*
X-59665000Y-58123000D01*
X-59713507Y-57884504D01*
X-59807610Y-57660054D01*
X-59943693Y-57458275D01*
X-60116526Y-57286922D01*
X-60211836Y-57223829D01*
X-60094151Y-57252719D01*
X-59826518Y-57264604D01*
X-59561709Y-57224048D01*
X-59309900Y-57132609D01*
X-59202965Y-57075450D01*
X-59140472Y-56839133D01*
X-55659528Y-56839133D01*
X-55597035Y-57075450D01*
X-55354322Y-57188850D01*
X-55094151Y-57252719D01*
X-54826518Y-57264604D01*
X-54596558Y-57229385D01*
X-54683474Y-57286922D01*
X-54856307Y-57458275D01*
X-54992390Y-57660054D01*
X-55086493Y-57884504D01*
X-55135000Y-58123000D01*
X-55135000Y-58473000D01*
X-54027000Y-58473000D01*
X-54027000Y-57181269D01*
X-53773000Y-57181269D01*
X-53773000Y-58473000D01*
X-52665000Y-58473000D01*
X-52665000Y-58123000D01*
X-52713507Y-57884504D01*
X-52807610Y-57660054D01*
X-52943693Y-57458275D01*
X-53116526Y-57286922D01*
X-53319467Y-57152579D01*
X-53544718Y-57060409D01*
X-53582391Y-57056538D01*
X-53773000Y-57181269D01*
X-54027000Y-57181269D01*
X-54200862Y-57067497D01*
X-54140472Y-56839133D01*
X-54900000Y-56079605D01*
X-55659528Y-56839133D01*
X-59140472Y-56839133D01*
X-59900000Y-56079605D01*
X-60659528Y-56839133D01*
X-60599138Y-57067497D01*
X-60773000Y-57181269D01*
X-61027000Y-57181269D01*
X-61217609Y-57056538D01*
X-61255282Y-57060409D01*
X-61480533Y-57152579D01*
X-61683474Y-57286922D01*
X-61856307Y-57458275D01*
X-61992390Y-57660054D01*
X-62086493Y-57884504D01*
X-62135000Y-58123000D01*
X-65629306Y-58123000D01*
X-65623000Y-58091301D01*
X-65623000Y-57908699D01*
X-65658624Y-57729604D01*
X-65728504Y-57560901D01*
X-65777537Y-57487517D01*
X-65764099Y-57496496D01*
X-65595396Y-57566376D01*
X-65416301Y-57602000D01*
X-65233699Y-57602000D01*
X-65054604Y-57566376D01*
X-64885901Y-57496496D01*
X-64734072Y-57395048D01*
X-64604952Y-57265928D01*
X-64503504Y-57114099D01*
X-64433624Y-56945396D01*
X-64398000Y-56766301D01*
X-64398000Y-56583699D01*
X-64433624Y-56404604D01*
X-64503504Y-56235901D01*
X-64604952Y-56084072D01*
X-64715542Y-55973482D01*
X-61264604Y-55973482D01*
X-61224048Y-56238291D01*
X-61132609Y-56490100D01*
X-61075450Y-56597035D01*
X-60839133Y-56659528D01*
X-60079605Y-55900000D01*
X-59720395Y-55900000D01*
X-58960867Y-56659528D01*
X-58724550Y-56597035D01*
X-58611150Y-56354322D01*
X-58547281Y-56094151D01*
X-58541923Y-55973482D01*
X-56264604Y-55973482D01*
X-56224048Y-56238291D01*
X-56132609Y-56490100D01*
X-56075450Y-56597035D01*
X-55839133Y-56659528D01*
X-55079605Y-55900000D01*
X-54720395Y-55900000D01*
X-53960867Y-56659528D01*
X-53724550Y-56597035D01*
X-53611150Y-56354322D01*
X-53547281Y-56094151D01*
X-53535396Y-55826518D01*
X-53575952Y-55561709D01*
X-53667391Y-55309900D01*
X-53724550Y-55202965D01*
X-53960867Y-55140472D01*
X-54720395Y-55900000D01*
X-55079605Y-55900000D01*
X-55839133Y-55140472D01*
X-56075450Y-55202965D01*
X-56188850Y-55445678D01*
X-56252719Y-55705849D01*
X-56264604Y-55973482D01*
X-58541923Y-55973482D01*
X-58535396Y-55826518D01*
X-58575952Y-55561709D01*
X-58667391Y-55309900D01*
X-58724550Y-55202965D01*
X-58960867Y-55140472D01*
X-59720395Y-55900000D01*
X-60079605Y-55900000D01*
X-60839133Y-55140472D01*
X-61075450Y-55202965D01*
X-61188850Y-55445678D01*
X-61252719Y-55705849D01*
X-61264604Y-55973482D01*
X-64715542Y-55973482D01*
X-64734072Y-55954952D01*
X-64799955Y-55910931D01*
X-64729952Y-55840928D01*
X-64628504Y-55689099D01*
X-64558624Y-55520396D01*
X-64523000Y-55341301D01*
X-64523000Y-55158699D01*
X-64558624Y-54979604D01*
X-64566385Y-54960867D01*
X-60659528Y-54960867D01*
X-59900000Y-55720395D01*
X-59140472Y-54960867D01*
X-55659528Y-54960867D01*
X-54900000Y-55720395D01*
X-54140472Y-54960867D01*
X-54202965Y-54724550D01*
X-54445678Y-54611150D01*
X-54705849Y-54547281D01*
X-54973482Y-54535396D01*
X-55238291Y-54575952D01*
X-55490100Y-54667391D01*
X-55597035Y-54724550D01*
X-55659528Y-54960867D01*
X-59140472Y-54960867D01*
X-59202965Y-54724550D01*
X-59445678Y-54611150D01*
X-59705849Y-54547281D01*
X-59973482Y-54535396D01*
X-60238291Y-54575952D01*
X-60490100Y-54667391D01*
X-60597035Y-54724550D01*
X-60659528Y-54960867D01*
X-64566385Y-54960867D01*
X-64628504Y-54810901D01*
X-64729952Y-54659072D01*
X-64859072Y-54529952D01*
X-65010901Y-54428504D01*
X-65179604Y-54358624D01*
X-65358699Y-54323000D01*
X-65541301Y-54323000D01*
X-65613746Y-54337410D01*
X-65657951Y-54293205D01*
X-65657951Y-54168750D01*
X-65672329Y-54022764D01*
X-65714912Y-53882388D01*
X-65784062Y-53753017D01*
X-65877123Y-53639623D01*
X-65990517Y-53546562D01*
X-66119888Y-53477412D01*
X-66260264Y-53434829D01*
X-66406250Y-53420451D01*
X-66843750Y-53420451D01*
X-66989736Y-53434829D01*
X-67130112Y-53477412D01*
X-67259483Y-53546562D01*
X-67372877Y-53639623D01*
X-67412500Y-53687903D01*
X-67452123Y-53639623D01*
X-67565517Y-53546562D01*
X-67694888Y-53477412D01*
X-67835264Y-53434829D01*
X-67981250Y-53420451D01*
X-68418750Y-53420451D01*
X-68564736Y-53434829D01*
X-68705112Y-53477412D01*
X-68834483Y-53546562D01*
X-68947877Y-53639623D01*
X-68954752Y-53648000D01*
X-72938765Y-53648000D01*
X-72940517Y-53646562D01*
X-73069888Y-53577412D01*
X-73210264Y-53534829D01*
X-73356250Y-53520451D01*
X-73793750Y-53520451D01*
X-73939736Y-53534829D01*
X-74080112Y-53577412D01*
X-74209483Y-53646562D01*
X-74322877Y-53739623D01*
X-74362500Y-53787903D01*
X-74402123Y-53739623D01*
X-74515517Y-53646562D01*
X-74644888Y-53577412D01*
X-74785264Y-53534829D01*
X-74931250Y-53520451D01*
X-75368750Y-53520451D01*
X-75514736Y-53534829D01*
X-75655112Y-53577412D01*
X-75784483Y-53646562D01*
X-75897877Y-53739623D01*
X-75990938Y-53853017D01*
X-76060088Y-53982388D01*
X-76102671Y-54122764D01*
X-76117049Y-54268750D01*
X-76117049Y-54781250D01*
X-76102671Y-54927236D01*
X-76060088Y-55067612D01*
X-75990938Y-55196983D01*
X-75897996Y-55310232D01*
X-75916376Y-55354604D01*
X-75935986Y-55453192D01*
X-75953504Y-55410901D01*
X-76054952Y-55259072D01*
X-76184072Y-55129952D01*
X-76335901Y-55028504D01*
X-76504604Y-54958624D01*
X-76683699Y-54923000D01*
X-76866301Y-54923000D01*
X-77045396Y-54958624D01*
X-77214099Y-55028504D01*
X-77365928Y-55129952D01*
X-77495048Y-55259072D01*
X-77596496Y-55410901D01*
X-77666376Y-55579604D01*
X-77702000Y-55758699D01*
X-82191694Y-55758699D01*
X-82104604Y-55741376D01*
X-81935901Y-55671496D01*
X-81784072Y-55570048D01*
X-81654952Y-55440928D01*
X-81553504Y-55289099D01*
X-81483624Y-55120396D01*
X-81448000Y-54941301D01*
X-81448000Y-54758699D01*
X-81483624Y-54579604D01*
X-81553504Y-54410901D01*
X-81654952Y-54259072D01*
X-81784072Y-54129952D01*
X-81890623Y-54058758D01*
X-81955856Y-53993524D01*
X-81984104Y-53959104D01*
X-82121451Y-53846386D01*
X-82278150Y-53762629D01*
X-82448177Y-53711052D01*
X-82580693Y-53698000D01*
X-82580701Y-53698000D01*
X-82625000Y-53693637D01*
X-82669299Y-53698000D01*
X-85308015Y-53698000D01*
X-85433699Y-53673000D01*
X-85616301Y-53673000D01*
X-85795396Y-53708624D01*
X-85964099Y-53778504D01*
X-86115928Y-53879952D01*
X-86245048Y-54009072D01*
X-86346496Y-54160901D01*
X-86416376Y-54329604D01*
X-86452000Y-54508699D01*
X-86452000Y-54598000D01*
X-86591301Y-54598000D01*
X-86716985Y-54623000D01*
X-89305701Y-54623000D01*
X-89350000Y-54618637D01*
X-89394300Y-54623000D01*
X-89394307Y-54623000D01*
X-89526823Y-54636052D01*
X-89696850Y-54687629D01*
X-89853549Y-54771386D01*
X-89990896Y-54884104D01*
X-90019139Y-54918518D01*
X-90709379Y-55608759D01*
X-90815928Y-55679952D01*
X-90945048Y-55809072D01*
X-91046496Y-55960901D01*
X-91116376Y-56129604D01*
X-91152000Y-56308699D01*
X-94932462Y-56308699D01*
X-95173746Y-55627334D01*
X-95324776Y-54779459D01*
X-95348000Y-54286995D01*
X-95348000Y-49525000D01*
X-92429549Y-49525000D01*
X-92429549Y-51225000D01*
X-92419374Y-51328310D01*
X-92389239Y-51427650D01*
X-92340304Y-51519202D01*
X-92274448Y-51599448D01*
X-92194202Y-51665304D01*
X-92102650Y-51714239D01*
X-92003310Y-51744374D01*
X-91900000Y-51754549D01*
X-90200000Y-51754549D01*
X-90096690Y-51744374D01*
X-89997350Y-51714239D01*
X-89905798Y-51665304D01*
X-89825552Y-51599448D01*
X-89759696Y-51519202D01*
X-89710761Y-51427650D01*
X-89680626Y-51328310D01*
X-89670451Y-51225000D01*
X-89670451Y-51116798D01*
X-89579586Y-51252787D01*
X-89387787Y-51444586D01*
X-89162254Y-51595282D01*
X-88911656Y-51699083D01*
X-88645623Y-51752000D01*
X-88374377Y-51752000D01*
X-88108344Y-51699083D01*
X-87857746Y-51595282D01*
X-87632213Y-51444586D01*
X-87440414Y-51252787D01*
X-87289718Y-51027254D01*
X-87185917Y-50776656D01*
X-87133000Y-50510623D01*
X-87133000Y-50239377D01*
X-87185917Y-49973344D01*
X-87289718Y-49722746D01*
X-87440414Y-49497213D01*
X-87632213Y-49305414D01*
X-87857746Y-49154718D01*
X-88108344Y-49050917D01*
X-88374377Y-48998000D01*
X-88645623Y-48998000D01*
X-88911656Y-49050917D01*
X-89162254Y-49154718D01*
X-89387787Y-49305414D01*
X-89579586Y-49497213D01*
X-89670451Y-49633202D01*
X-89670451Y-49525000D01*
X-89680626Y-49421690D01*
X-89710761Y-49322350D01*
X-89759696Y-49230798D01*
X-89825552Y-49150552D01*
X-89905798Y-49084696D01*
X-89997350Y-49035761D01*
X-90096690Y-49005626D01*
X-90200000Y-48995451D01*
X-91900000Y-48995451D01*
X-92003310Y-49005626D01*
X-92102650Y-49035761D01*
X-92194202Y-49084696D01*
X-92274448Y-49150552D01*
X-92340304Y-49230798D01*
X-92389239Y-49322350D01*
X-92419374Y-49421690D01*
X-92429549Y-49525000D01*
X-95348000Y-49525000D01*
X-95348000Y-37705638D01*
X-86927000Y-37705638D01*
X-86927000Y-38794362D01*
X-86714601Y-39862166D01*
X-86297964Y-40868016D01*
X-85693101Y-41773257D01*
X-84923257Y-42543101D01*
X-84018016Y-43147964D01*
X-83012166Y-43564601D01*
X-81944362Y-43777000D01*
X-80855638Y-43777000D01*
X-79787834Y-43564601D01*
X-78781984Y-43147964D01*
X-77876743Y-42543101D01*
X-77106899Y-41773257D01*
X-76502036Y-40868016D01*
X-76085399Y-39862166D01*
X-75873000Y-38794362D01*
X-75873000Y-37705638D01*
X-76085399Y-36637834D01*
X-76502036Y-35631984D01*
X-77106899Y-34726743D01*
X-77108661Y-34724981D01*
X-59177000Y-34724981D01*
X-59177000Y-35075019D01*
X-59108711Y-35418332D01*
X-58974757Y-35741725D01*
X-58780286Y-36032771D01*
X-58532771Y-36280286D01*
X-58241725Y-36474757D01*
X-57918332Y-36608711D01*
X-57575019Y-36677000D01*
X-57224981Y-36677000D01*
X-56881668Y-36608711D01*
X-56558275Y-36474757D01*
X-56267229Y-36280286D01*
X-56019714Y-36032771D01*
X-55825243Y-35741725D01*
X-55691289Y-35418332D01*
X-55623000Y-35075019D01*
X-55623000Y-34724981D01*
X-55691289Y-34381668D01*
X-55825243Y-34058275D01*
X-56019714Y-33767229D01*
X-56267229Y-33519714D01*
X-56558275Y-33325243D01*
X-56881668Y-33191289D01*
X-57224981Y-33123000D01*
X-57575019Y-33123000D01*
X-57918332Y-33191289D01*
X-58241725Y-33325243D01*
X-58532771Y-33519714D01*
X-58780286Y-33767229D01*
X-58974757Y-34058275D01*
X-59108711Y-34381668D01*
X-59177000Y-34724981D01*
X-77108661Y-34724981D01*
X-77876743Y-33956899D01*
X-78781984Y-33352036D01*
X-79787834Y-32935399D01*
X-80855638Y-32723000D01*
X-81944362Y-32723000D01*
X-83012166Y-32935399D01*
X-84018016Y-33352036D01*
X-84923257Y-33956899D01*
X-85693101Y-34726743D01*
X-86297964Y-35631984D01*
X-86714601Y-36637834D01*
X-86927000Y-37705638D01*
X-95348000Y-37705638D01*
X-95348000Y-30024981D01*
X-67277000Y-30024981D01*
X-67277000Y-30375019D01*
X-67208711Y-30718332D01*
X-67074757Y-31041725D01*
X-66880286Y-31332771D01*
X-66632771Y-31580286D01*
X-66341725Y-31774757D01*
X-66018332Y-31908711D01*
X-65675019Y-31977000D01*
X-65324981Y-31977000D01*
X-64981668Y-31908711D01*
X-64658275Y-31774757D01*
X-64367229Y-31580286D01*
X-64119714Y-31332771D01*
X-63925243Y-31041725D01*
X-63791289Y-30718332D01*
X-63723000Y-30375019D01*
X-63723000Y-30024981D01*
X-63791289Y-29681668D01*
X-63925243Y-29358275D01*
X-64119714Y-29067229D01*
X-64367229Y-28819714D01*
X-64658275Y-28625243D01*
X-64981668Y-28491289D01*
X-65324981Y-28423000D01*
X-65675019Y-28423000D01*
X-66018332Y-28491289D01*
X-66341725Y-28625243D01*
X-66632771Y-28819714D01*
X-66880286Y-29067229D01*
X-67074757Y-29358275D01*
X-67208711Y-29681668D01*
X-67277000Y-30024981D01*
X-95348000Y-30024981D01*
X-95348000Y-27424981D01*
X-72077000Y-27424981D01*
X-72077000Y-27775019D01*
X-72008711Y-28118332D01*
X-71874757Y-28441725D01*
X-71680286Y-28732771D01*
X-71432771Y-28980286D01*
X-71141725Y-29174757D01*
X-70818332Y-29308711D01*
X-70475019Y-29377000D01*
X-70124981Y-29377000D01*
X-69781668Y-29308711D01*
X-69458275Y-29174757D01*
X-69167229Y-28980286D01*
X-68919714Y-28732771D01*
X-68725243Y-28441725D01*
X-68591289Y-28118332D01*
X-68523000Y-27775019D01*
X-68523000Y-27424981D01*
X-68591289Y-27081668D01*
X-68725243Y-26758275D01*
X-68919714Y-26467229D01*
X-69167229Y-26219714D01*
X-69458275Y-26025243D01*
X-69781668Y-25891289D01*
X-70124981Y-25823000D01*
X-70475019Y-25823000D01*
X-70818332Y-25891289D01*
X-71141725Y-26025243D01*
X-71432771Y-26219714D01*
X-71680286Y-26467229D01*
X-71874757Y-26758275D01*
X-72008711Y-27081668D01*
X-72077000Y-27424981D01*
X-95348000Y-27424981D01*
X-95348000Y-6624981D01*
X-93177000Y-6624981D01*
X-93177000Y-6975019D01*
X-93108711Y-7318332D01*
X-92974757Y-7641725D01*
X-92780286Y-7932771D01*
X-92532771Y-8180286D01*
X-92241725Y-8374757D01*
X-91918332Y-8508711D01*
X-91575019Y-8577000D01*
X-91224981Y-8577000D01*
X-90881668Y-8508711D01*
X-90558275Y-8374757D01*
X-90267229Y-8180286D01*
X-90019714Y-7932771D01*
X-89825243Y-7641725D01*
X-89691289Y-7318332D01*
X-89623000Y-6975019D01*
X-89623000Y-6624981D01*
X-89691289Y-6281668D01*
X-89825243Y-5958275D01*
X-90019714Y-5667229D01*
X-90267229Y-5419714D01*
X-90558275Y-5225243D01*
X-90881668Y-5091289D01*
X-91224981Y-5023000D01*
X-91575019Y-5023000D01*
X-91918332Y-5091289D01*
X-92241725Y-5225243D01*
X-92532771Y-5419714D01*
X-92780286Y-5667229D01*
X-92974757Y-5958275D01*
X-93108711Y-6281668D01*
X-93177000Y-6624981D01*
X-95348000Y-6624981D01*
X-95348000Y-1224981D01*
X-94677000Y-1224981D01*
X-94677000Y-1575019D01*
X-94608711Y-1918332D01*
X-94474757Y-2241725D01*
X-94280286Y-2532771D01*
X-94032771Y-2780286D01*
X-93741725Y-2974757D01*
X-93418332Y-3108711D01*
X-93075019Y-3177000D01*
X-92724981Y-3177000D01*
X-92381668Y-3108711D01*
X-92058275Y-2974757D01*
X-91767229Y-2780286D01*
X-91519714Y-2532771D01*
X-91325243Y-2241725D01*
X-91191289Y-1918332D01*
X-91123000Y-1575019D01*
X-91123000Y-1224981D01*
X-91191289Y-881668D01*
X-91325243Y-558275D01*
X-91519714Y-267229D01*
X-91767229Y-19714D01*
X-92058275Y174757D01*
X-92381668Y308711D01*
X-92724981Y377000D01*
X-93075019Y377000D01*
X-93418332Y308711D01*
X-93741725Y174757D01*
X-94032771Y-19714D01*
X-94280286Y-267229D01*
X-94474757Y-558275D01*
X-94608711Y-881668D01*
X-94677000Y-1224981D01*
X-95348000Y-1224981D01*
X-95348000Y15873511D01*
X-95177000Y15873511D01*
X-95177000Y15326489D01*
X-95070282Y14789979D01*
X-94860946Y14284597D01*
X-94557037Y13829766D01*
X-94170234Y13442963D01*
X-93715403Y13139054D01*
X-93210021Y12929718D01*
X-92673511Y12823000D01*
X-92126489Y12823000D01*
X-91589979Y12929718D01*
X-91084597Y13139054D01*
X-90629766Y13442963D01*
X-90242963Y13829766D01*
X-89939054Y14284597D01*
X-89729718Y14789979D01*
X-89623000Y15326489D01*
X-89623000Y15873511D01*
X-89729718Y16410021D01*
X-89939054Y16915403D01*
X-90242963Y17370234D01*
X-90629766Y17757037D01*
X-91084597Y18060946D01*
X-91589979Y18270282D01*
X-92126489Y18377000D01*
X-92673511Y18377000D01*
X-93210021Y18270282D01*
X-93715403Y18060946D01*
X-94170234Y17757037D01*
X-94557037Y17370234D01*
X-94860946Y16915403D01*
X-95070282Y16410021D01*
X-95177000Y15873511D01*
X-95348000Y15873511D01*
X-95348000Y21873511D01*
X-94177000Y21873511D01*
X-94177000Y21326489D01*
X-94070282Y20789979D01*
X-93860946Y20284597D01*
X-93557037Y19829766D01*
X-93170234Y19442963D01*
X-92715403Y19139054D01*
X-92210021Y18929718D01*
X-91673511Y18823000D01*
X-91126489Y18823000D01*
X-90589979Y18929718D01*
X-90084597Y19139054D01*
X-89629766Y19442963D01*
X-89242963Y19829766D01*
X-88939054Y20284597D01*
X-88729718Y20789979D01*
X-88623000Y21326489D01*
X-88623000Y21873511D01*
X-88729718Y22410021D01*
X-88939054Y22915403D01*
X-89242963Y23370234D01*
X-89629766Y23757037D01*
X-90084597Y24060946D01*
X-90589979Y24270282D01*
X-91126489Y24377000D01*
X-91673511Y24377000D01*
X-92210021Y24270282D01*
X-92715403Y24060946D01*
X-93170234Y23757037D01*
X-93557037Y23370234D01*
X-93860946Y22915403D01*
X-94070282Y22410021D01*
X-94177000Y21873511D01*
X-95348000Y21873511D01*
X-95348000Y65873511D01*
X-95177000Y65873511D01*
X-95177000Y65326489D01*
X-95070282Y64789979D01*
X-94860946Y64284597D01*
X-94557037Y63829766D01*
X-94170234Y63442963D01*
X-93715403Y63139054D01*
X-93210021Y62929718D01*
X-92673511Y62823000D01*
X-92126489Y62823000D01*
X-91589979Y62929718D01*
X-91084597Y63139054D01*
X-90629766Y63442963D01*
X-90242963Y63829766D01*
X-89939054Y64284597D01*
X-89729718Y64789979D01*
X-89623000Y65326489D01*
X-89623000Y65873511D01*
X-89729718Y66410021D01*
X-89939054Y66915403D01*
X-90242963Y67370234D01*
X-90629766Y67757037D01*
X-91084597Y68060946D01*
X-91589979Y68270282D01*
X-92126489Y68377000D01*
X-92673511Y68377000D01*
X-93210021Y68270282D01*
X-93715403Y68060946D01*
X-94170234Y67757037D01*
X-94557037Y67370234D01*
X-94860946Y66915403D01*
X-95070282Y66410021D01*
X-95177000Y65873511D01*
X-95348000Y65873511D01*
X-95348000Y78576276D01*
X-95338125Y78690972D01*
X-95314605Y78772351D01*
X-95275730Y78847604D01*
X-95222975Y78913877D01*
X-95158353Y78968641D01*
X-95084322Y79009812D01*
X-95003706Y79035819D01*
X-94896614Y79048360D01*
X-38423727Y79048000D01*
G37*
X-38423727Y79048000D02*
X-38309028Y79038125D01*
X-38227649Y79014605D01*
X-38152396Y78975730D01*
X-38086123Y78922975D01*
X-38031359Y78858353D01*
X-37990188Y78784322D01*
X-37964181Y78703706D01*
X-37951657Y78596755D01*
X-37952358Y77580426D01*
X-37952359Y77580420D01*
X-37952358Y77580342D01*
X-37952377Y77553514D01*
X-37949360Y77522664D01*
X-37949315Y77513433D01*
X-37948472Y77505772D01*
X-37926029Y77314126D01*
X-37915391Y77265252D01*
X-37905432Y77216210D01*
X-37903117Y77208859D01*
X-37843877Y77025223D01*
X-37823942Y76979331D01*
X-37804652Y76933171D01*
X-37800954Y76926409D01*
X-37707172Y76757777D01*
X-37678706Y76716636D01*
X-37650818Y76675101D01*
X-37645876Y76669186D01*
X-37634051Y76655233D01*
X-46251226Y76627164D01*
X-46300001Y76631968D01*
X-46352112Y76626835D01*
X-46353795Y76626830D01*
X-46402445Y76621878D01*
X-46501328Y76612139D01*
X-46502944Y76611649D01*
X-46504622Y76611478D01*
X-46599621Y76582322D01*
X-46694919Y76553414D01*
X-46696410Y76552617D01*
X-46698020Y76552123D01*
X-46785380Y76505061D01*
X-46873332Y76458050D01*
X-46874641Y76456976D01*
X-46876122Y76456178D01*
X-46952654Y76392952D01*
X-46990525Y76361872D01*
X-46991714Y76360683D01*
X-47032085Y76327331D01*
X-47063056Y76289341D01*
X-48825396Y74527000D01*
X-78099560Y74527000D01*
X-78150001Y74531968D01*
X-78200442Y74527000D01*
X-78200451Y74527000D01*
X-78351327Y74512140D01*
X-78544917Y74453415D01*
X-78723331Y74358051D01*
X-78879712Y74229712D01*
X-78911872Y74190525D01*
X-91840524Y61261872D01*
X-91879711Y61229712D01*
X-91911871Y61190525D01*
X-91911872Y61190524D01*
X-92008050Y61073331D01*
X-92103414Y60894917D01*
X-92162139Y60701327D01*
X-92181968Y60500000D01*
X-92176999Y60449549D01*
X-92177000Y37300441D01*
X-92181968Y37250000D01*
X-92177000Y37199559D01*
X-92177000Y37199550D01*
X-92162140Y37048674D01*
X-92103415Y36855084D01*
X-92008051Y36676669D01*
X-91879712Y36520288D01*
X-91840519Y36488123D01*
X-88276999Y32924602D01*
X-88277000Y-20174602D01*
X-91611872Y-23509476D01*
X-91708050Y-23626669D01*
X-91803414Y-23805083D01*
X-91862139Y-23998673D01*
X-91881968Y-24200000D01*
X-91862139Y-24401327D01*
X-91803414Y-24594917D01*
X-91708050Y-24773331D01*
X-91579712Y-24929712D01*
X-91423331Y-25058050D01*
X-91244917Y-25153414D01*
X-91051327Y-25212139D01*
X-90850000Y-25231968D01*
X-90648673Y-25212139D01*
X-90455083Y-25153414D01*
X-90276669Y-25058050D01*
X-90159476Y-24961872D01*
X-86559470Y-21361868D01*
X-86520288Y-21329712D01*
X-86488132Y-21290530D01*
X-86488127Y-21290525D01*
X-86391950Y-21173332D01*
X-86391949Y-21173331D01*
X-86296585Y-20994917D01*
X-86237860Y-20801327D01*
X-86223000Y-20650451D01*
X-86223000Y-20650444D01*
X-86218032Y-20600000D01*
X-86223000Y-20549557D01*
X-86223000Y-15724981D01*
X-45777000Y-15724981D01*
X-45777000Y-16075019D01*
X-45708711Y-16418332D01*
X-45574757Y-16741725D01*
X-45380286Y-17032771D01*
X-45132771Y-17280286D01*
X-44841725Y-17474757D01*
X-44518332Y-17608711D01*
X-44175019Y-17677000D01*
X-43824981Y-17677000D01*
X-43481668Y-17608711D01*
X-43158275Y-17474757D01*
X-42867229Y-17280286D01*
X-42619714Y-17032771D01*
X-42425243Y-16741725D01*
X-42291289Y-16418332D01*
X-42223000Y-16075019D01*
X-42223000Y-15724981D01*
X-42291289Y-15381668D01*
X-42425243Y-15058275D01*
X-42619714Y-14767229D01*
X-42867229Y-14519714D01*
X-43158275Y-14325243D01*
X-43481668Y-14191289D01*
X-43824981Y-14123000D01*
X-44175019Y-14123000D01*
X-44518332Y-14191289D01*
X-44841725Y-14325243D01*
X-45132771Y-14519714D01*
X-45380286Y-14767229D01*
X-45574757Y-15058275D01*
X-45708711Y-15381668D01*
X-45777000Y-15724981D01*
X-86223000Y-15724981D01*
X-86223000Y-7624981D01*
X-66777000Y-7624981D01*
X-66777000Y-7975019D01*
X-66708711Y-8318332D01*
X-66574757Y-8641725D01*
X-66380286Y-8932771D01*
X-66132771Y-9180286D01*
X-65841725Y-9374757D01*
X-65518332Y-9508711D01*
X-65175019Y-9577000D01*
X-64824981Y-9577000D01*
X-64481668Y-9508711D01*
X-64158275Y-9374757D01*
X-63867229Y-9180286D01*
X-63619714Y-8932771D01*
X-63425243Y-8641725D01*
X-63291289Y-8318332D01*
X-63223000Y-7975019D01*
X-63223000Y-7624981D01*
X-63291289Y-7281668D01*
X-63425243Y-6958275D01*
X-63619714Y-6667229D01*
X-63867229Y-6419714D01*
X-64158275Y-6225243D01*
X-64481668Y-6091289D01*
X-64824981Y-6023000D01*
X-65175019Y-6023000D01*
X-65518332Y-6091289D01*
X-65841725Y-6225243D01*
X-66132771Y-6419714D01*
X-66380286Y-6667229D01*
X-66574757Y-6958275D01*
X-66708711Y-7281668D01*
X-66777000Y-7624981D01*
X-86223000Y-7624981D01*
X-86223000Y28400000D01*
X-81779549Y28400000D01*
X-81779549Y26700000D01*
X-81769374Y26596690D01*
X-81739239Y26497350D01*
X-81690304Y26405798D01*
X-81624448Y26325552D01*
X-81544202Y26259696D01*
X-81452650Y26210761D01*
X-81353310Y26180626D01*
X-81250000Y26170451D01*
X-81141798Y26170451D01*
X-81277787Y26079586D01*
X-81469586Y25887787D01*
X-81620282Y25662254D01*
X-81724083Y25411656D01*
X-81777000Y25145623D01*
X-81777000Y24874377D01*
X-81724083Y24608344D01*
X-81620282Y24357746D01*
X-81469586Y24132213D01*
X-81277787Y23940414D01*
X-81052254Y23789718D01*
X-80801656Y23685917D01*
X-80577001Y23641231D01*
X-80577000Y21750452D01*
X-80581969Y21700001D01*
X-80577000Y21649550D01*
X-80562140Y21498674D01*
X-80503415Y21305084D01*
X-80408051Y21126670D01*
X-80279712Y20970289D01*
X-80240525Y20938129D01*
X-64261872Y4959475D01*
X-64229712Y4920288D01*
X-64073331Y4791949D01*
X-63894917Y4696585D01*
X-63701327Y4637860D01*
X-63550451Y4623000D01*
X-63550442Y4623000D01*
X-63500001Y4618032D01*
X-63496508Y4618376D01*
X-62226999Y3348866D01*
X-62227000Y-13869476D01*
X-62321496Y-14010901D01*
X-62391376Y-14179604D01*
X-62427000Y-14358699D01*
X-62427000Y-14541301D01*
X-62391376Y-14720396D01*
X-62321496Y-14889099D01*
X-62220048Y-15040928D01*
X-62090928Y-15170048D01*
X-61939099Y-15271496D01*
X-61770396Y-15341376D01*
X-61591301Y-15377000D01*
X-61408699Y-15377000D01*
X-61229604Y-15341376D01*
X-61060901Y-15271496D01*
X-60909072Y-15170048D01*
X-60779952Y-15040928D01*
X-60678504Y-14889099D01*
X-60608624Y-14720396D01*
X-60573000Y-14541301D01*
X-60573000Y-14358699D01*
X-60608624Y-14179604D01*
X-60678504Y-14010901D01*
X-60773000Y-13869476D01*
X-60773000Y-7724981D01*
X-40777000Y-7724981D01*
X-40777000Y-8075019D01*
X-40708711Y-8418332D01*
X-40574757Y-8741725D01*
X-40380286Y-9032771D01*
X-40132771Y-9280286D01*
X-39841725Y-9474757D01*
X-39518332Y-9608711D01*
X-39175019Y-9677000D01*
X-38824981Y-9677000D01*
X-38481668Y-9608711D01*
X-38158275Y-9474757D01*
X-37867229Y-9280286D01*
X-37619714Y-9032771D01*
X-37425243Y-8741725D01*
X-37291289Y-8418332D01*
X-37223000Y-8075019D01*
X-37223000Y-7724981D01*
X-37291289Y-7381668D01*
X-37425243Y-7058275D01*
X-37619714Y-6767229D01*
X-37867229Y-6519714D01*
X-38158275Y-6325243D01*
X-38481668Y-6191289D01*
X-38824981Y-6123000D01*
X-39175019Y-6123000D01*
X-39518332Y-6191289D01*
X-39841725Y-6325243D01*
X-40132771Y-6519714D01*
X-40380286Y-6767229D01*
X-40574757Y-7058275D01*
X-40708711Y-7381668D01*
X-40777000Y-7724981D01*
X-60773000Y-7724981D01*
X-60773000Y3614293D01*
X-60769483Y3650001D01*
X-60783520Y3792518D01*
X-60800286Y3847787D01*
X-60825090Y3929557D01*
X-60892597Y4055853D01*
X-60983446Y4166554D01*
X-61011188Y4189321D01*
X-61444867Y4623000D01*
X-37349549Y4623000D01*
X-37198673Y4637860D01*
X-37005083Y4696585D01*
X-36826669Y4791949D01*
X-36670288Y4920288D01*
X-36541949Y5076669D01*
X-36446585Y5255083D01*
X-36387860Y5448673D01*
X-36368031Y5650000D01*
X-36387860Y5851327D01*
X-36446585Y6044917D01*
X-36541949Y6223331D01*
X-36670288Y6379712D01*
X-36826669Y6508051D01*
X-37005083Y6603415D01*
X-37198673Y6662140D01*
X-37349549Y6677000D01*
X-63074603Y6677000D01*
X-72271114Y15873511D01*
X-20177000Y15873511D01*
X-20177000Y15326489D01*
X-20070282Y14789979D01*
X-19860946Y14284597D01*
X-19557037Y13829766D01*
X-19170234Y13442963D01*
X-18715403Y13139054D01*
X-18210021Y12929718D01*
X-17673511Y12823000D01*
X-17126489Y12823000D01*
X-16589979Y12929718D01*
X-16084597Y13139054D01*
X-15629766Y13442963D01*
X-15242963Y13829766D01*
X-14939054Y14284597D01*
X-14729718Y14789979D01*
X-14623000Y15326489D01*
X-14623000Y15873511D01*
X-14729718Y16410021D01*
X-14939054Y16915403D01*
X-15242963Y17370234D01*
X-15629766Y17757037D01*
X-16084597Y18060946D01*
X-16589979Y18270282D01*
X-17126489Y18377000D01*
X-17673511Y18377000D01*
X-18210021Y18270282D01*
X-18715403Y18060946D01*
X-19170234Y17757037D01*
X-19557037Y17370234D01*
X-19860946Y16915403D01*
X-20070282Y16410021D01*
X-20177000Y15873511D01*
X-72271114Y15873511D01*
X-78038904Y21641301D01*
X-65927000Y21641301D01*
X-65927000Y21458699D01*
X-65891376Y21279604D01*
X-65821496Y21110901D01*
X-65720048Y20959072D01*
X-65590928Y20829952D01*
X-65546101Y20800000D01*
X-65590928Y20770048D01*
X-65720048Y20640928D01*
X-65821496Y20489099D01*
X-65891376Y20320396D01*
X-65927000Y20141301D01*
X-65927000Y19958699D01*
X-65891376Y19779604D01*
X-65821496Y19610901D01*
X-65720048Y19459072D01*
X-65590928Y19329952D01*
X-65439099Y19228504D01*
X-65270396Y19158624D01*
X-65103573Y19125441D01*
X-64039321Y18061188D01*
X-64016554Y18033446D01*
X-63905853Y17942597D01*
X-63779557Y17875090D01*
X-63642517Y17833520D01*
X-63535708Y17823000D01*
X-63535706Y17823000D01*
X-63500001Y17819483D01*
X-63464295Y17823000D01*
X-62880524Y17823000D01*
X-62739099Y17728504D01*
X-62570396Y17658624D01*
X-62391301Y17623000D01*
X-62208699Y17623000D01*
X-62029604Y17658624D01*
X-61860901Y17728504D01*
X-61709072Y17829952D01*
X-61579952Y17959072D01*
X-61478504Y18110901D01*
X-61408624Y18279604D01*
X-61373000Y18458699D01*
X-61373000Y18641301D01*
X-61408624Y18820396D01*
X-61478504Y18989099D01*
X-61579952Y19140928D01*
X-61589024Y19150000D01*
X-61479952Y19259072D01*
X-61378504Y19410901D01*
X-61308624Y19579604D01*
X-61273000Y19758699D01*
X-61273000Y19941301D01*
X-61308624Y20120396D01*
X-61378504Y20289099D01*
X-61479952Y20440928D01*
X-61609072Y20570048D01*
X-61760901Y20671496D01*
X-61929604Y20741376D01*
X-62108699Y20777000D01*
X-62291301Y20777000D01*
X-62470396Y20741376D01*
X-62639099Y20671496D01*
X-62780524Y20577000D01*
X-62998867Y20577000D01*
X-63971867Y21550000D01*
X-35329549Y21550000D01*
X-35329549Y19950000D01*
X-35319374Y19846690D01*
X-35289239Y19747350D01*
X-35240304Y19655798D01*
X-35174448Y19575552D01*
X-35094202Y19509696D01*
X-35089895Y19507394D01*
X-35175972Y19378570D01*
X-35276004Y19137072D01*
X-35327000Y18880698D01*
X-35327000Y18619302D01*
X-35276004Y18362928D01*
X-35175972Y18121430D01*
X-35030748Y17904087D01*
X-34845913Y17719252D01*
X-34628570Y17574028D01*
X-34387072Y17473996D01*
X-34130698Y17423000D01*
X-33869302Y17423000D01*
X-33612928Y17473996D01*
X-33371430Y17574028D01*
X-33154087Y17719252D01*
X-32969252Y17904087D01*
X-32824028Y18121430D01*
X-32723996Y18362928D01*
X-32673000Y18619302D01*
X-32673000Y18880698D01*
X-32723996Y19137072D01*
X-32824028Y19378570D01*
X-32910105Y19507394D01*
X-32905798Y19509696D01*
X-32825552Y19575552D01*
X-32759696Y19655798D01*
X-32710761Y19747350D01*
X-32680626Y19846690D01*
X-32670451Y19950000D01*
X-32670451Y21550000D01*
X-32680626Y21653310D01*
X-32710761Y21752650D01*
X-32759696Y21844202D01*
X-32824783Y21923511D01*
X-21177000Y21923511D01*
X-21177000Y21376489D01*
X-21070282Y20839979D01*
X-20860946Y20334597D01*
X-20557037Y19879766D01*
X-20170234Y19492963D01*
X-19715403Y19189054D01*
X-19210021Y18979718D01*
X-18673511Y18873000D01*
X-18126489Y18873000D01*
X-17589979Y18979718D01*
X-17084597Y19189054D01*
X-16629766Y19492963D01*
X-16242963Y19879766D01*
X-15939054Y20334597D01*
X-15729718Y20839979D01*
X-15623000Y21376489D01*
X-15623000Y21923511D01*
X-15729718Y22460021D01*
X-15939054Y22965403D01*
X-16242963Y23420234D01*
X-16629766Y23807037D01*
X-17084597Y24110946D01*
X-17589979Y24320282D01*
X-18126489Y24427000D01*
X-18673511Y24427000D01*
X-19210021Y24320282D01*
X-19715403Y24110946D01*
X-20170234Y23807037D01*
X-20557037Y23420234D01*
X-20860946Y22965403D01*
X-21070282Y22460021D01*
X-21177000Y21923511D01*
X-32824783Y21923511D01*
X-32825552Y21924448D01*
X-32905798Y21990304D01*
X-32997350Y22039239D01*
X-33096690Y22069374D01*
X-33200000Y22079549D01*
X-34800000Y22079549D01*
X-34903310Y22069374D01*
X-35002650Y22039239D01*
X-35094202Y21990304D01*
X-35174448Y21924448D01*
X-35240304Y21844202D01*
X-35289239Y21752650D01*
X-35319374Y21653310D01*
X-35329549Y21550000D01*
X-63971867Y21550000D01*
X-64075441Y21653573D01*
X-64108624Y21820396D01*
X-64178504Y21989099D01*
X-64279952Y22140928D01*
X-64409072Y22270048D01*
X-64560901Y22371496D01*
X-64729604Y22441376D01*
X-64908699Y22477000D01*
X-65091301Y22477000D01*
X-65270396Y22441376D01*
X-65439099Y22371496D01*
X-65590928Y22270048D01*
X-65720048Y22140928D01*
X-65821496Y21989099D01*
X-65891376Y21820396D01*
X-65927000Y21641301D01*
X-78038904Y21641301D01*
X-78523001Y22125397D01*
X-78523001Y23796899D01*
X-78512254Y23789718D01*
X-78261656Y23685917D01*
X-77995623Y23633000D01*
X-77724377Y23633000D01*
X-77458344Y23685917D01*
X-77207746Y23789718D01*
X-76982213Y23940414D01*
X-76790414Y24132213D01*
X-76639718Y24357746D01*
X-76535917Y24608344D01*
X-76483000Y24874377D01*
X-76483000Y25145623D01*
X-76535917Y25411656D01*
X-76639718Y25662254D01*
X-76790414Y25887787D01*
X-76982213Y26079586D01*
X-77207746Y26230282D01*
X-77327776Y26280000D01*
X-77207746Y26329718D01*
X-76982213Y26480414D01*
X-76790414Y26672213D01*
X-76639718Y26897746D01*
X-76590000Y27017776D01*
X-76540282Y26897746D01*
X-76389586Y26672213D01*
X-76197787Y26480414D01*
X-75972254Y26329718D01*
X-75721656Y26225917D01*
X-75455623Y26173000D01*
X-75184377Y26173000D01*
X-74918344Y26225917D01*
X-74667746Y26329718D01*
X-74442213Y26480414D01*
X-74250414Y26672213D01*
X-74099718Y26897746D01*
X-74050000Y27017776D01*
X-74000282Y26897746D01*
X-73849586Y26672213D01*
X-73657787Y26480414D01*
X-73432254Y26329718D01*
X-73312224Y26280000D01*
X-73432254Y26230282D01*
X-73657787Y26079586D01*
X-73849586Y25887787D01*
X-74000282Y25662254D01*
X-74104083Y25411656D01*
X-74157000Y25145623D01*
X-74157000Y24874377D01*
X-74104083Y24608344D01*
X-74000282Y24357746D01*
X-73849586Y24132213D01*
X-73657787Y23940414D01*
X-73432254Y23789718D01*
X-73181656Y23685917D01*
X-72915623Y23633000D01*
X-72644377Y23633000D01*
X-72378344Y23685917D01*
X-72127746Y23789718D01*
X-71902213Y23940414D01*
X-71710414Y24132213D01*
X-71559718Y24357746D01*
X-71510000Y24477776D01*
X-71460282Y24357746D01*
X-71309586Y24132213D01*
X-71117787Y23940414D01*
X-70892254Y23789718D01*
X-70641656Y23685917D01*
X-70375623Y23633000D01*
X-70104377Y23633000D01*
X-69838344Y23685917D01*
X-69587746Y23789718D01*
X-69362213Y23940414D01*
X-69170414Y24132213D01*
X-69019718Y24357746D01*
X-68970000Y24477776D01*
X-68920282Y24357746D01*
X-68769586Y24132213D01*
X-68577787Y23940414D01*
X-68352254Y23789718D01*
X-68101656Y23685917D01*
X-67835623Y23633000D01*
X-67564377Y23633000D01*
X-67298344Y23685917D01*
X-67047746Y23789718D01*
X-66822213Y23940414D01*
X-66630414Y24132213D01*
X-66486025Y24348308D01*
X-66355178Y24128645D01*
X-66160269Y23912412D01*
X-65926920Y23738359D01*
X-65664099Y23613175D01*
X-65516890Y23568524D01*
X-65287000Y23689845D01*
X-65287000Y24883000D01*
X-65307000Y24883000D01*
X-65307000Y25137000D01*
X-65287000Y25137000D01*
X-65287000Y25157000D01*
X-65033000Y25157000D01*
X-65033000Y25137000D01*
X-65013000Y25137000D01*
X-65013000Y24883000D01*
X-65033000Y24883000D01*
X-65033000Y23689845D01*
X-64803110Y23568524D01*
X-64655901Y23613175D01*
X-64393080Y23738359D01*
X-64159731Y23912412D01*
X-63964822Y24128645D01*
X-63833975Y24348308D01*
X-63689586Y24132213D01*
X-63497787Y23940414D01*
X-63272254Y23789718D01*
X-63021656Y23685917D01*
X-62755623Y23633000D01*
X-62484377Y23633000D01*
X-62218344Y23685917D01*
X-61967746Y23789718D01*
X-61742213Y23940414D01*
X-61550414Y24132213D01*
X-61399718Y24357746D01*
X-61350000Y24477776D01*
X-61300282Y24357746D01*
X-61149586Y24132213D01*
X-60957787Y23940414D01*
X-60732254Y23789718D01*
X-60481656Y23685917D01*
X-60215623Y23633000D01*
X-59944377Y23633000D01*
X-59678344Y23685917D01*
X-59427746Y23789718D01*
X-59202213Y23940414D01*
X-59010414Y24132213D01*
X-58866025Y24348308D01*
X-58735178Y24128645D01*
X-58540269Y23912412D01*
X-58306920Y23738359D01*
X-58044099Y23613175D01*
X-57896890Y23568524D01*
X-57667000Y23689845D01*
X-57667000Y24883000D01*
X-57687000Y24883000D01*
X-57687000Y25137000D01*
X-57667000Y25137000D01*
X-57667000Y25157000D01*
X-57413000Y25157000D01*
X-57413000Y25137000D01*
X-57393000Y25137000D01*
X-57393000Y24883000D01*
X-57413000Y24883000D01*
X-57413000Y23689845D01*
X-57183110Y23568524D01*
X-57035901Y23613175D01*
X-56773080Y23738359D01*
X-56539731Y23912412D01*
X-56344822Y24128645D01*
X-56213975Y24348308D01*
X-56069586Y24132213D01*
X-55877787Y23940414D01*
X-55652254Y23789718D01*
X-55401656Y23685917D01*
X-55135623Y23633000D01*
X-54864377Y23633000D01*
X-54598344Y23685917D01*
X-54347746Y23789718D01*
X-54122213Y23940414D01*
X-53930414Y24132213D01*
X-53779718Y24357746D01*
X-53730000Y24477776D01*
X-53680282Y24357746D01*
X-53529586Y24132213D01*
X-53337787Y23940414D01*
X-53112254Y23789718D01*
X-52861656Y23685917D01*
X-52595623Y23633000D01*
X-52324377Y23633000D01*
X-52058344Y23685917D01*
X-51807746Y23789718D01*
X-51582213Y23940414D01*
X-51390414Y24132213D01*
X-51239718Y24357746D01*
X-51190000Y24477776D01*
X-51140282Y24357746D01*
X-50989586Y24132213D01*
X-50797787Y23940414D01*
X-50572254Y23789718D01*
X-50321656Y23685917D01*
X-50055623Y23633000D01*
X-49784377Y23633000D01*
X-49518344Y23685917D01*
X-49267746Y23789718D01*
X-49042213Y23940414D01*
X-48850414Y24132213D01*
X-48699718Y24357746D01*
X-48650000Y24477776D01*
X-48600282Y24357746D01*
X-48449586Y24132213D01*
X-48257787Y23940414D01*
X-48032254Y23789718D01*
X-47781656Y23685917D01*
X-47515623Y23633000D01*
X-47244377Y23633000D01*
X-46978344Y23685917D01*
X-46727746Y23789718D01*
X-46502213Y23940414D01*
X-46310414Y24132213D01*
X-46166025Y24348308D01*
X-46035178Y24128645D01*
X-45840269Y23912412D01*
X-45606920Y23738359D01*
X-45344099Y23613175D01*
X-45196890Y23568524D01*
X-44967000Y23689845D01*
X-44967000Y24883000D01*
X-44987000Y24883000D01*
X-44987000Y25137000D01*
X-44967000Y25137000D01*
X-44967000Y25157000D01*
X-44713000Y25157000D01*
X-44713000Y25137000D01*
X-44693000Y25137000D01*
X-44693000Y24883000D01*
X-44713000Y24883000D01*
X-44713000Y23689845D01*
X-44483110Y23568524D01*
X-44335901Y23613175D01*
X-44073080Y23738359D01*
X-43839731Y23912412D01*
X-43644822Y24128645D01*
X-43513975Y24348308D01*
X-43369586Y24132213D01*
X-43177787Y23940414D01*
X-42952254Y23789718D01*
X-42701656Y23685917D01*
X-42435623Y23633000D01*
X-42164377Y23633000D01*
X-41898344Y23685917D01*
X-41647746Y23789718D01*
X-41422213Y23940414D01*
X-41230414Y24132213D01*
X-41086025Y24348308D01*
X-40955178Y24128645D01*
X-40760269Y23912412D01*
X-40526920Y23738359D01*
X-40264099Y23613175D01*
X-40116890Y23568524D01*
X-39887000Y23689845D01*
X-39887000Y24883000D01*
X-39907000Y24883000D01*
X-39907000Y25137000D01*
X-39887000Y25137000D01*
X-39887000Y25157000D01*
X-39633000Y25157000D01*
X-39633000Y25137000D01*
X-39613000Y25137000D01*
X-39613000Y24883000D01*
X-39633000Y24883000D01*
X-39633000Y23689845D01*
X-39403110Y23568524D01*
X-39255901Y23613175D01*
X-38993080Y23738359D01*
X-38759731Y23912412D01*
X-38564822Y24128645D01*
X-38433975Y24348308D01*
X-38289586Y24132213D01*
X-38097787Y23940414D01*
X-37872254Y23789718D01*
X-37621656Y23685917D01*
X-37355623Y23633000D01*
X-37084377Y23633000D01*
X-36818344Y23685917D01*
X-36567746Y23789718D01*
X-36342213Y23940414D01*
X-36150414Y24132213D01*
X-35999718Y24357746D01*
X-35950000Y24477776D01*
X-35900282Y24357746D01*
X-35749586Y24132213D01*
X-35557787Y23940414D01*
X-35332254Y23789718D01*
X-35081656Y23685917D01*
X-34815623Y23633000D01*
X-34544377Y23633000D01*
X-34278344Y23685917D01*
X-34027746Y23789718D01*
X-33802213Y23940414D01*
X-33610414Y24132213D01*
X-33459718Y24357746D01*
X-33410000Y24477776D01*
X-33360282Y24357746D01*
X-33209586Y24132213D01*
X-33017787Y23940414D01*
X-32792254Y23789718D01*
X-32541656Y23685917D01*
X-32275623Y23633000D01*
X-32004377Y23633000D01*
X-31738344Y23685917D01*
X-31487746Y23789718D01*
X-31262213Y23940414D01*
X-31070414Y24132213D01*
X-30919718Y24357746D01*
X-30815917Y24608344D01*
X-30763000Y24874377D01*
X-30763000Y25145623D01*
X-30815917Y25411656D01*
X-30919718Y25662254D01*
X-31070414Y25887787D01*
X-31262213Y26079586D01*
X-31482032Y26226464D01*
X-31373080Y26278359D01*
X-31139731Y26452412D01*
X-30944822Y26668645D01*
X-30795843Y26918748D01*
X-30698519Y27193109D01*
X-30819186Y27423000D01*
X-32013000Y27423000D01*
X-32013000Y27403000D01*
X-32267000Y27403000D01*
X-32267000Y27423000D01*
X-32287000Y27423000D01*
X-32287000Y27677000D01*
X-32267000Y27677000D01*
X-32267000Y28870155D01*
X-32013000Y28870155D01*
X-32013000Y27677000D01*
X-30819186Y27677000D01*
X-30698519Y27906891D01*
X-30795843Y28181252D01*
X-30944822Y28431355D01*
X-31139731Y28647588D01*
X-31373080Y28821641D01*
X-31635901Y28946825D01*
X-31783110Y28991476D01*
X-32013000Y28870155D01*
X-32267000Y28870155D01*
X-32496890Y28991476D01*
X-32644099Y28946825D01*
X-32906920Y28821641D01*
X-33140269Y28647588D01*
X-33335178Y28431355D01*
X-33466025Y28211692D01*
X-33610414Y28427787D01*
X-33802213Y28619586D01*
X-34027746Y28770282D01*
X-34278344Y28874083D01*
X-34544377Y28927000D01*
X-34815623Y28927000D01*
X-34993487Y28891621D01*
X-43842414Y37740547D01*
X-26827000Y37740547D01*
X-26827000Y37459453D01*
X-26772162Y37183759D01*
X-26664591Y36924062D01*
X-26508424Y36690340D01*
X-26418084Y36600000D01*
X-26508424Y36509660D01*
X-26664591Y36275938D01*
X-26772162Y36016241D01*
X-26827000Y35740547D01*
X-26827000Y35459453D01*
X-26772162Y35183759D01*
X-26664591Y34924062D01*
X-26508424Y34690340D01*
X-26418084Y34600000D01*
X-26508424Y34509660D01*
X-26664591Y34275938D01*
X-26772162Y34016241D01*
X-26827000Y33740547D01*
X-26827000Y33459453D01*
X-26772162Y33183759D01*
X-26664591Y32924062D01*
X-26508424Y32690340D01*
X-26418084Y32600000D01*
X-26508424Y32509660D01*
X-26664591Y32275938D01*
X-26772162Y32016241D01*
X-26827000Y31740547D01*
X-26827000Y31459453D01*
X-26772162Y31183759D01*
X-26664591Y30924062D01*
X-26508424Y30690340D01*
X-26418084Y30600000D01*
X-26508424Y30509660D01*
X-26664591Y30275938D01*
X-26772162Y30016241D01*
X-26827000Y29740547D01*
X-26827000Y29459453D01*
X-26772162Y29183759D01*
X-26664591Y28924062D01*
X-26508424Y28690340D01*
X-26309660Y28491576D01*
X-26075938Y28335409D01*
X-25816241Y28227838D01*
X-25540547Y28173000D01*
X-25259453Y28173000D01*
X-24983759Y28227838D01*
X-24724062Y28335409D01*
X-24490340Y28491576D01*
X-24291576Y28690340D01*
X-24135409Y28924062D01*
X-24072079Y29076955D01*
X-16689000Y29076955D01*
X-16689000Y28823045D01*
X-16639465Y28574013D01*
X-16542297Y28339430D01*
X-16401232Y28128310D01*
X-16221690Y27948768D01*
X-16010570Y27807703D01*
X-15775987Y27710535D01*
X-15526955Y27661000D01*
X-15273045Y27661000D01*
X-15024013Y27710535D01*
X-14789430Y27807703D01*
X-14578310Y27948768D01*
X-14398768Y28128310D01*
X-14257703Y28339430D01*
X-14160535Y28574013D01*
X-14111000Y28823045D01*
X-14111000Y29076955D01*
X-14160535Y29325987D01*
X-14257703Y29560570D01*
X-14398768Y29771690D01*
X-14578310Y29951232D01*
X-14789430Y30092297D01*
X-15024013Y30189465D01*
X-15273045Y30239000D01*
X-15526955Y30239000D01*
X-15775987Y30189465D01*
X-16010570Y30092297D01*
X-16221690Y29951232D01*
X-16401232Y29771690D01*
X-16542297Y29560570D01*
X-16639465Y29325987D01*
X-16689000Y29076955D01*
X-24072079Y29076955D01*
X-24027838Y29183759D01*
X-23973000Y29459453D01*
X-23973000Y29740547D01*
X-24027838Y30016241D01*
X-24135409Y30275938D01*
X-24291576Y30509660D01*
X-24381916Y30600000D01*
X-24291576Y30690340D01*
X-24135409Y30924062D01*
X-24027838Y31183759D01*
X-23973000Y31459453D01*
X-23973000Y31740547D01*
X-24027838Y32016241D01*
X-24135409Y32275938D01*
X-24291576Y32509660D01*
X-24381916Y32600000D01*
X-24291576Y32690340D01*
X-24135409Y32924062D01*
X-24027838Y33183759D01*
X-23973000Y33459453D01*
X-23973000Y33740547D01*
X-24027838Y34016241D01*
X-24135409Y34275938D01*
X-24291576Y34509660D01*
X-24381916Y34600000D01*
X-24291576Y34690340D01*
X-24135409Y34924062D01*
X-24027838Y35183759D01*
X-23973000Y35459453D01*
X-23973000Y35740547D01*
X-24027838Y36016241D01*
X-24135409Y36275938D01*
X-24291576Y36509660D01*
X-24381916Y36600000D01*
X-24291576Y36690340D01*
X-24135409Y36924062D01*
X-24027838Y37183759D01*
X-23973000Y37459453D01*
X-23973000Y37740547D01*
X-24027838Y38016241D01*
X-24135409Y38275938D01*
X-24202905Y38376955D01*
X-16689000Y38376955D01*
X-16689000Y38123045D01*
X-16639465Y37874013D01*
X-16542297Y37639430D01*
X-16401232Y37428310D01*
X-16221690Y37248768D01*
X-16010570Y37107703D01*
X-15775987Y37010535D01*
X-15526955Y36961000D01*
X-15273045Y36961000D01*
X-15024013Y37010535D01*
X-14789430Y37107703D01*
X-14578310Y37248768D01*
X-14398768Y37428310D01*
X-14257703Y37639430D01*
X-14160535Y37874013D01*
X-14111000Y38123045D01*
X-14111000Y38376955D01*
X-14160535Y38625987D01*
X-14257703Y38860570D01*
X-14398768Y39071690D01*
X-14578310Y39251232D01*
X-14789430Y39392297D01*
X-15024013Y39489465D01*
X-15273045Y39539000D01*
X-15526955Y39539000D01*
X-15775987Y39489465D01*
X-16010570Y39392297D01*
X-16221690Y39251232D01*
X-16401232Y39071690D01*
X-16542297Y38860570D01*
X-16639465Y38625987D01*
X-16689000Y38376955D01*
X-24202905Y38376955D01*
X-24291576Y38509660D01*
X-24490340Y38708424D01*
X-24724062Y38864591D01*
X-24983759Y38972162D01*
X-25259453Y39027000D01*
X-25540547Y39027000D01*
X-25816241Y38972162D01*
X-26075938Y38864591D01*
X-26309660Y38708424D01*
X-26508424Y38509660D01*
X-26664591Y38275938D01*
X-26772162Y38016241D01*
X-26827000Y37740547D01*
X-43842414Y37740547D01*
X-45873000Y39771132D01*
X-45873000Y45988347D01*
X-21702048Y45988347D01*
X-21546038Y45672786D01*
X-21171255Y45481980D01*
X-20766449Y45367956D01*
X-20347176Y45335098D01*
X-19929549Y45384666D01*
X-19529617Y45514757D01*
X-19233962Y45672786D01*
X-19077952Y45988347D01*
X-20390000Y47300395D01*
X-21702048Y45988347D01*
X-45873000Y45988347D01*
X-45873000Y47437176D01*
X-22534902Y47437176D01*
X-22485334Y47019549D01*
X-22355243Y46619617D01*
X-22197214Y46323962D01*
X-21881653Y46167952D01*
X-20569605Y47480000D01*
X-20210395Y47480000D01*
X-18898347Y46167952D01*
X-18582786Y46323962D01*
X-18391980Y46698745D01*
X-18277956Y47103551D01*
X-18245098Y47522824D01*
X-18294666Y47940451D01*
X-18424757Y48340383D01*
X-18582786Y48636038D01*
X-18898347Y48792048D01*
X-20210395Y47480000D01*
X-20569605Y47480000D01*
X-21881653Y48792048D01*
X-22197214Y48636038D01*
X-22388020Y48261255D01*
X-22502044Y47856449D01*
X-22534902Y47437176D01*
X-45873000Y47437176D01*
X-45873000Y48971653D01*
X-21702048Y48971653D01*
X-20390000Y47659605D01*
X-19077952Y48971653D01*
X-19233962Y49287214D01*
X-19608745Y49478020D01*
X-20013551Y49592044D01*
X-20432824Y49624902D01*
X-20850451Y49575334D01*
X-21250383Y49445243D01*
X-21546038Y49287214D01*
X-21702048Y48971653D01*
X-45873000Y48971653D01*
X-45873000Y49557298D01*
X-23913097Y49557298D01*
X-23841514Y49313329D01*
X-23586004Y49192429D01*
X-23311816Y49123700D01*
X-23029488Y49109783D01*
X-22749870Y49151213D01*
X-22483708Y49246397D01*
X-22358486Y49313329D01*
X-22286903Y49557298D01*
X-23100000Y50370395D01*
X-23913097Y49557298D01*
X-45873000Y49557298D01*
X-45873000Y50479488D01*
X-24540217Y50479488D01*
X-24498787Y50199870D01*
X-24403603Y49933708D01*
X-24336671Y49808486D01*
X-24092702Y49736903D01*
X-23279605Y50550000D01*
X-22920395Y50550000D01*
X-22107298Y49736903D01*
X-21863329Y49808486D01*
X-21742429Y50063996D01*
X-21673700Y50338184D01*
X-21659783Y50620512D01*
X-21701213Y50900130D01*
X-21796397Y51166292D01*
X-21863329Y51291514D01*
X-22107298Y51363097D01*
X-22920395Y50550000D01*
X-23279605Y50550000D01*
X-24092702Y51363097D01*
X-24336671Y51291514D01*
X-24457571Y51036004D01*
X-24526300Y50761816D01*
X-24540217Y50479488D01*
X-45873000Y50479488D01*
X-45873000Y55269476D01*
X-45778504Y55410901D01*
X-45708624Y55579604D01*
X-45673000Y55758699D01*
X-45673000Y55941301D01*
X-45708624Y56120396D01*
X-45778504Y56289099D01*
X-45879952Y56440928D01*
X-46009072Y56570048D01*
X-46160901Y56671496D01*
X-46321757Y56738126D01*
X-28094119Y56738126D01*
X-28077446Y56683136D01*
X-27987123Y56479794D01*
X-27858865Y56297980D01*
X-27697601Y56144682D01*
X-27509529Y56025790D01*
X-27301876Y55945874D01*
X-27127000Y56070871D01*
X-27127000Y56913000D01*
X-26873000Y56913000D01*
X-26873000Y56070871D01*
X-26698124Y55945874D01*
X-26490471Y56025790D01*
X-26302399Y56144682D01*
X-26141135Y56297980D01*
X-26012877Y56479794D01*
X-25922554Y56683136D01*
X-25905881Y56738126D01*
X-26032046Y56913000D01*
X-26873000Y56913000D01*
X-27127000Y56913000D01*
X-27967954Y56913000D01*
X-28094119Y56738126D01*
X-46321757Y56738126D01*
X-46329604Y56741376D01*
X-46508699Y56777000D01*
X-46691301Y56777000D01*
X-46870396Y56741376D01*
X-47039099Y56671496D01*
X-47190928Y56570048D01*
X-47320048Y56440928D01*
X-47421496Y56289099D01*
X-47491376Y56120396D01*
X-47527000Y55941301D01*
X-47527000Y55758699D01*
X-47491376Y55579604D01*
X-47421496Y55410901D01*
X-47327000Y55269476D01*
X-47326999Y39505718D01*
X-47330517Y39470000D01*
X-47316480Y39327483D01*
X-47274910Y39190444D01*
X-47274909Y39190443D01*
X-47207402Y39064147D01*
X-47116553Y38953446D01*
X-47088811Y38930679D01*
X-37085134Y28927000D01*
X-37355623Y28927000D01*
X-37621656Y28874083D01*
X-37872254Y28770282D01*
X-38097787Y28619586D01*
X-38289586Y28427787D01*
X-38440282Y28202254D01*
X-38490000Y28082224D01*
X-38539718Y28202254D01*
X-38690414Y28427787D01*
X-38882213Y28619586D01*
X-39107746Y28770282D01*
X-39358344Y28874083D01*
X-39624377Y28927000D01*
X-39895623Y28927000D01*
X-40161656Y28874083D01*
X-40412254Y28770282D01*
X-40637787Y28619586D01*
X-40829586Y28427787D01*
X-40980282Y28202254D01*
X-41030000Y28082224D01*
X-41079718Y28202254D01*
X-41230414Y28427787D01*
X-41422213Y28619586D01*
X-41647746Y28770282D01*
X-41898344Y28874083D01*
X-42164377Y28927000D01*
X-42435623Y28927000D01*
X-42701656Y28874083D01*
X-42952254Y28770282D01*
X-43177787Y28619586D01*
X-43369586Y28427787D01*
X-43520282Y28202254D01*
X-43570000Y28082224D01*
X-43619718Y28202254D01*
X-43770414Y28427787D01*
X-43962213Y28619586D01*
X-44187746Y28770282D01*
X-44438344Y28874083D01*
X-44704377Y28927000D01*
X-44975623Y28927000D01*
X-45241656Y28874083D01*
X-45492254Y28770282D01*
X-45717787Y28619586D01*
X-45909586Y28427787D01*
X-46060282Y28202254D01*
X-46110000Y28082224D01*
X-46159718Y28202254D01*
X-46310414Y28427787D01*
X-46502213Y28619586D01*
X-46727746Y28770282D01*
X-46978344Y28874083D01*
X-47244377Y28927000D01*
X-47515623Y28927000D01*
X-47781656Y28874083D01*
X-48032254Y28770282D01*
X-48257787Y28619586D01*
X-48449586Y28427787D01*
X-48593975Y28211692D01*
X-48724822Y28431355D01*
X-48919731Y28647588D01*
X-49153080Y28821641D01*
X-49415901Y28946825D01*
X-49563110Y28991476D01*
X-49793000Y28870155D01*
X-49793000Y27677000D01*
X-49773000Y27677000D01*
X-49773000Y27423000D01*
X-49793000Y27423000D01*
X-49793000Y27403000D01*
X-50047000Y27403000D01*
X-50047000Y27423000D01*
X-50067000Y27423000D01*
X-50067000Y27677000D01*
X-50047000Y27677000D01*
X-50047000Y28870155D01*
X-50276890Y28991476D01*
X-50424099Y28946825D01*
X-50686920Y28821641D01*
X-50920269Y28647588D01*
X-51115178Y28431355D01*
X-51246025Y28211692D01*
X-51390414Y28427787D01*
X-51582213Y28619586D01*
X-51807746Y28770282D01*
X-51823000Y28776600D01*
X-51823000Y32616024D01*
X-51779952Y32659072D01*
X-51678504Y32810901D01*
X-51608624Y32979604D01*
X-51573000Y33158699D01*
X-51573000Y33341301D01*
X-51608624Y33520396D01*
X-51678504Y33689099D01*
X-51779952Y33840928D01*
X-51909072Y33970048D01*
X-52060901Y34071496D01*
X-52229604Y34141376D01*
X-52408699Y34177000D01*
X-52591301Y34177000D01*
X-52770396Y34141376D01*
X-52811332Y34124420D01*
X-52811332Y34279633D01*
X-52846956Y34458728D01*
X-52916836Y34627431D01*
X-53018284Y34779260D01*
X-53147404Y34908380D01*
X-53299233Y35009828D01*
X-53467936Y35079708D01*
X-53647031Y35115332D01*
X-53829633Y35115332D01*
X-54008728Y35079708D01*
X-54065079Y35056366D01*
X-54065079Y35196550D01*
X-54100703Y35375645D01*
X-54170583Y35544348D01*
X-54272031Y35696177D01*
X-54401151Y35825297D01*
X-54552980Y35926745D01*
X-54721683Y35996625D01*
X-54900778Y36032249D01*
X-55083380Y36032249D01*
X-55262475Y35996625D01*
X-55431178Y35926745D01*
X-55583007Y35825297D01*
X-55712127Y35696177D01*
X-55813575Y35544348D01*
X-55883455Y35375645D01*
X-55919079Y35196550D01*
X-55919079Y35013948D01*
X-55883455Y34834853D01*
X-55813575Y34666150D01*
X-55712127Y34514321D01*
X-55669079Y34471273D01*
X-55669078Y28759040D01*
X-55877787Y28619586D01*
X-56069586Y28427787D01*
X-56220282Y28202254D01*
X-56270000Y28082224D01*
X-56319718Y28202254D01*
X-56470414Y28427787D01*
X-56662213Y28619586D01*
X-56887746Y28770282D01*
X-56923000Y28784885D01*
X-56923000Y29816024D01*
X-56879952Y29859072D01*
X-56778504Y30010901D01*
X-56708624Y30179604D01*
X-56673000Y30358699D01*
X-56673000Y30541301D01*
X-56708624Y30720396D01*
X-56778504Y30889099D01*
X-56879952Y31040928D01*
X-57009072Y31170048D01*
X-57160901Y31271496D01*
X-57329604Y31341376D01*
X-57508699Y31377000D01*
X-57691301Y31377000D01*
X-57870396Y31341376D01*
X-58039099Y31271496D01*
X-58190928Y31170048D01*
X-58320048Y31040928D01*
X-58421496Y30889099D01*
X-58491376Y30720396D01*
X-58527000Y30541301D01*
X-58527000Y30358699D01*
X-58491376Y30179604D01*
X-58421496Y30010901D01*
X-58320048Y29859072D01*
X-58277000Y29816024D01*
X-58276999Y28713657D01*
X-58417787Y28619586D01*
X-58609586Y28427787D01*
X-58760282Y28202254D01*
X-58810000Y28082224D01*
X-58859718Y28202254D01*
X-59010414Y28427787D01*
X-59202213Y28619586D01*
X-59427746Y28770282D01*
X-59678344Y28874083D01*
X-59944377Y28927000D01*
X-60215623Y28927000D01*
X-60481656Y28874083D01*
X-60732254Y28770282D01*
X-60957787Y28619586D01*
X-61149586Y28427787D01*
X-61300282Y28202254D01*
X-61350000Y28082224D01*
X-61399718Y28202254D01*
X-61550414Y28427787D01*
X-61742213Y28619586D01*
X-61967746Y28770282D01*
X-62218344Y28874083D01*
X-62484377Y28927000D01*
X-62755623Y28927000D01*
X-63021656Y28874083D01*
X-63272254Y28770282D01*
X-63497787Y28619586D01*
X-63689586Y28427787D01*
X-63840282Y28202254D01*
X-63890000Y28082224D01*
X-63939718Y28202254D01*
X-64090414Y28427787D01*
X-64282213Y28619586D01*
X-64507746Y28770282D01*
X-64758344Y28874083D01*
X-65024377Y28927000D01*
X-65295623Y28927000D01*
X-65561656Y28874083D01*
X-65812254Y28770282D01*
X-66037787Y28619586D01*
X-66229586Y28427787D01*
X-66380282Y28202254D01*
X-66430000Y28082224D01*
X-66479718Y28202254D01*
X-66630414Y28427787D01*
X-66822213Y28619586D01*
X-67047746Y28770282D01*
X-67298344Y28874083D01*
X-67564377Y28927000D01*
X-67835623Y28927000D01*
X-68101656Y28874083D01*
X-68352254Y28770282D01*
X-68577787Y28619586D01*
X-68769586Y28427787D01*
X-68913975Y28211692D01*
X-69044822Y28431355D01*
X-69239731Y28647588D01*
X-69473080Y28821641D01*
X-69735901Y28946825D01*
X-69883110Y28991476D01*
X-70113000Y28870155D01*
X-70113000Y27677000D01*
X-70093000Y27677000D01*
X-70093000Y27423000D01*
X-70113000Y27423000D01*
X-70113000Y27403000D01*
X-70367000Y27403000D01*
X-70367000Y27423000D01*
X-70387000Y27423000D01*
X-70387000Y27677000D01*
X-70367000Y27677000D01*
X-70367000Y28870155D01*
X-70596890Y28991476D01*
X-70744099Y28946825D01*
X-71006920Y28821641D01*
X-71240269Y28647588D01*
X-71435178Y28431355D01*
X-71566025Y28211692D01*
X-71710414Y28427787D01*
X-71902213Y28619586D01*
X-72127746Y28770282D01*
X-72378344Y28874083D01*
X-72644377Y28927000D01*
X-72915623Y28927000D01*
X-73181656Y28874083D01*
X-73432254Y28770282D01*
X-73657787Y28619586D01*
X-73849586Y28427787D01*
X-74000282Y28202254D01*
X-74050000Y28082224D01*
X-74099718Y28202254D01*
X-74250414Y28427787D01*
X-74442213Y28619586D01*
X-74667746Y28770282D01*
X-74918344Y28874083D01*
X-75184377Y28927000D01*
X-75455623Y28927000D01*
X-75721656Y28874083D01*
X-75972254Y28770282D01*
X-76197787Y28619586D01*
X-76389586Y28427787D01*
X-76540282Y28202254D01*
X-76590000Y28082224D01*
X-76639718Y28202254D01*
X-76790414Y28427787D01*
X-76982213Y28619586D01*
X-77207746Y28770282D01*
X-77458344Y28874083D01*
X-77724377Y28927000D01*
X-77995623Y28927000D01*
X-78261656Y28874083D01*
X-78512254Y28770282D01*
X-78737787Y28619586D01*
X-78929586Y28427787D01*
X-79020451Y28291798D01*
X-79020451Y28400000D01*
X-79030626Y28503310D01*
X-79060761Y28602650D01*
X-79109696Y28694202D01*
X-79175552Y28774448D01*
X-79255798Y28840304D01*
X-79347350Y28889239D01*
X-79446690Y28919374D01*
X-79550000Y28929549D01*
X-81250000Y28929549D01*
X-81353310Y28919374D01*
X-81452650Y28889239D01*
X-81544202Y28840304D01*
X-81624448Y28774448D01*
X-81690304Y28694202D01*
X-81739239Y28602650D01*
X-81769374Y28503310D01*
X-81779549Y28400000D01*
X-86223000Y28400000D01*
X-86223000Y33299559D01*
X-86218032Y33350000D01*
X-86223000Y33400441D01*
X-86223000Y33400451D01*
X-86237860Y33551327D01*
X-86296585Y33744917D01*
X-86391949Y33923331D01*
X-86520288Y34079712D01*
X-86559475Y34111872D01*
X-90123000Y37675396D01*
X-90123000Y60074604D01*
X-80422585Y69775019D01*
X-79177000Y69775019D01*
X-79177000Y69424981D01*
X-79108711Y69081668D01*
X-78974757Y68758275D01*
X-78780286Y68467229D01*
X-78532771Y68219714D01*
X-78241725Y68025243D01*
X-77918332Y67891289D01*
X-77575019Y67823000D01*
X-77224981Y67823000D01*
X-76881668Y67891289D01*
X-76558275Y68025243D01*
X-76267229Y68219714D01*
X-76019714Y68467229D01*
X-75825243Y68758275D01*
X-75691289Y69081668D01*
X-75623000Y69424981D01*
X-75623000Y69775019D01*
X-75691289Y70118332D01*
X-75825243Y70441725D01*
X-76019714Y70732771D01*
X-76267229Y70980286D01*
X-76558275Y71174757D01*
X-76881668Y71308711D01*
X-77224981Y71377000D01*
X-77575019Y71377000D01*
X-77918332Y71308711D01*
X-78241725Y71174757D01*
X-78532771Y70980286D01*
X-78780286Y70732771D01*
X-78974757Y70441725D01*
X-79108711Y70118332D01*
X-79177000Y69775019D01*
X-80422585Y69775019D01*
X-78422585Y71775019D01*
X-43177000Y71775019D01*
X-43177000Y71424981D01*
X-43108711Y71081668D01*
X-42974757Y70758275D01*
X-42780286Y70467229D01*
X-42532771Y70219714D01*
X-42241725Y70025243D01*
X-41918332Y69891289D01*
X-41575019Y69823000D01*
X-41224981Y69823000D01*
X-40881668Y69891289D01*
X-40558275Y70025243D01*
X-40520631Y70050396D01*
X-32677000Y70050396D01*
X-32677000Y69749604D01*
X-32618319Y69454590D01*
X-32503210Y69176694D01*
X-32336099Y68926594D01*
X-32123406Y68713901D01*
X-31873306Y68546790D01*
X-31595410Y68431681D01*
X-31300396Y68373000D01*
X-30999604Y68373000D01*
X-30704590Y68431681D01*
X-30426694Y68546790D01*
X-30176594Y68713901D01*
X-29963901Y68926594D01*
X-29796790Y69176694D01*
X-29681681Y69454590D01*
X-29623000Y69749604D01*
X-29623000Y70050396D01*
X-29681681Y70345410D01*
X-29796790Y70623306D01*
X-29963901Y70873406D01*
X-30176594Y71086099D01*
X-30426694Y71253210D01*
X-30704590Y71368319D01*
X-30999604Y71427000D01*
X-31300396Y71427000D01*
X-31595410Y71368319D01*
X-31873306Y71253210D01*
X-32123406Y71086099D01*
X-32336099Y70873406D01*
X-32503210Y70623306D01*
X-32618319Y70345410D01*
X-32677000Y70050396D01*
X-40520631Y70050396D01*
X-40267229Y70219714D01*
X-40019714Y70467229D01*
X-39825243Y70758275D01*
X-39691289Y71081668D01*
X-39623000Y71424981D01*
X-39623000Y71775019D01*
X-39691289Y72118332D01*
X-39825243Y72441725D01*
X-40019714Y72732771D01*
X-40267229Y72980286D01*
X-40558275Y73174757D01*
X-40881668Y73308711D01*
X-41224981Y73377000D01*
X-41575019Y73377000D01*
X-41918332Y73308711D01*
X-42241725Y73174757D01*
X-42532771Y72980286D01*
X-42780286Y72732771D01*
X-42974757Y72441725D01*
X-43108711Y72118332D01*
X-43177000Y71775019D01*
X-78422585Y71775019D01*
X-77724603Y72473000D01*
X-48450441Y72473000D01*
X-48400000Y72468032D01*
X-48349559Y72473000D01*
X-48349549Y72473000D01*
X-48198673Y72487860D01*
X-48005083Y72546585D01*
X-47826669Y72641949D01*
X-47670288Y72770288D01*
X-47638123Y72809481D01*
X-45873218Y74574386D01*
X-31374010Y74621614D01*
X-27879397Y71127000D01*
X-28050396Y71127000D01*
X-28345410Y71068319D01*
X-28623306Y70953210D01*
X-28873406Y70786099D01*
X-29086099Y70573406D01*
X-29253210Y70323306D01*
X-29368319Y70045410D01*
X-29427000Y69750396D01*
X-29427000Y69449604D01*
X-29368319Y69154590D01*
X-29253210Y68876694D01*
X-29086099Y68626594D01*
X-28873406Y68413901D01*
X-28623306Y68246790D01*
X-28345410Y68131681D01*
X-28050396Y68073000D01*
X-27749604Y68073000D01*
X-27454590Y68131681D01*
X-27176694Y68246790D01*
X-26926594Y68413901D01*
X-26713901Y68626594D01*
X-26546790Y68876694D01*
X-26431681Y69154590D01*
X-26400000Y69313864D01*
X-26368319Y69154590D01*
X-26253210Y68876694D01*
X-26086099Y68626594D01*
X-25873406Y68413901D01*
X-25623306Y68246790D01*
X-25345410Y68131681D01*
X-25050396Y68073000D01*
X-24879397Y68073000D01*
X-28815395Y64137001D01*
X-75989559Y64137001D01*
X-76040000Y64141969D01*
X-76090441Y64137001D01*
X-76090450Y64137001D01*
X-76241326Y64122141D01*
X-76434916Y64063416D01*
X-76613330Y63968052D01*
X-76769711Y63839713D01*
X-76801871Y63800526D01*
X-89540524Y51061872D01*
X-89579711Y51029712D01*
X-89611871Y50990525D01*
X-89611872Y50990524D01*
X-89708050Y50873331D01*
X-89803414Y50694917D01*
X-89862139Y50501327D01*
X-89881968Y50300000D01*
X-89876999Y50249549D01*
X-89877000Y43949550D01*
X-89862140Y43798674D01*
X-89803415Y43605084D01*
X-89708051Y43426669D01*
X-89579712Y43270288D01*
X-89423331Y43141949D01*
X-89244917Y43046585D01*
X-89051327Y42987860D01*
X-88850000Y42968031D01*
X-88648674Y42987860D01*
X-88455084Y43046585D01*
X-88276669Y43141949D01*
X-88120288Y43270288D01*
X-87991949Y43426669D01*
X-87896585Y43605083D01*
X-87837860Y43798673D01*
X-87823000Y43949549D01*
X-87823000Y49874604D01*
X-80355730Y57341874D01*
X-28094119Y57341874D01*
X-27967954Y57167000D01*
X-27127000Y57167000D01*
X-27127000Y57187000D01*
X-26873000Y57187000D01*
X-26873000Y57167000D01*
X-26032046Y57167000D01*
X-25905881Y57341874D01*
X-25922554Y57396864D01*
X-26012877Y57600206D01*
X-26129060Y57764903D01*
X-26089885Y57823533D01*
X-26012467Y58010435D01*
X-25973000Y58208849D01*
X-25973000Y58350000D01*
X-24429549Y58350000D01*
X-24429549Y56750000D01*
X-24419374Y56646690D01*
X-24389239Y56547350D01*
X-24340304Y56455798D01*
X-24274448Y56375552D01*
X-24194202Y56309696D01*
X-24102650Y56260761D01*
X-24003310Y56230626D01*
X-23900000Y56220451D01*
X-23736833Y56220451D01*
X-23945913Y56080748D01*
X-24130748Y55895913D01*
X-24275972Y55678570D01*
X-24376004Y55437072D01*
X-24427000Y55180698D01*
X-24427000Y54919302D01*
X-24376004Y54662928D01*
X-24275972Y54421430D01*
X-24130748Y54204087D01*
X-23976661Y54050000D01*
X-24130748Y53895913D01*
X-24275972Y53678570D01*
X-24376004Y53437072D01*
X-24427000Y53180698D01*
X-24427000Y52919302D01*
X-24376004Y52662928D01*
X-24275972Y52421430D01*
X-24130748Y52204087D01*
X-23945913Y52019252D01*
X-23728570Y51874028D01*
X-23696418Y51860710D01*
X-23716292Y51853603D01*
X-23841514Y51786671D01*
X-23913097Y51542702D01*
X-23100000Y50729605D01*
X-22286903Y51542702D01*
X-22358486Y51786671D01*
X-22509649Y51858197D01*
X-22471430Y51874028D01*
X-22254087Y52019252D01*
X-22069252Y52204087D01*
X-21924028Y52421430D01*
X-21823996Y52662928D01*
X-21773000Y52919302D01*
X-21773000Y53180698D01*
X-21823996Y53437072D01*
X-21924028Y53678570D01*
X-22069252Y53895913D01*
X-22223339Y54050000D01*
X-22069252Y54204087D01*
X-21924028Y54421430D01*
X-21823996Y54662928D01*
X-21773000Y54919302D01*
X-21773000Y55180698D01*
X-21823996Y55437072D01*
X-21924028Y55678570D01*
X-22069252Y55895913D01*
X-22254087Y56080748D01*
X-22463167Y56220451D01*
X-22300000Y56220451D01*
X-22196690Y56230626D01*
X-22097350Y56260761D01*
X-22005798Y56309696D01*
X-21925552Y56375552D01*
X-21859696Y56455798D01*
X-21810761Y56547350D01*
X-21780626Y56646690D01*
X-21770451Y56750000D01*
X-21770451Y58350000D01*
X-21780626Y58453310D01*
X-21810761Y58552650D01*
X-21859696Y58644202D01*
X-21925552Y58724448D01*
X-22005798Y58790304D01*
X-22097350Y58839239D01*
X-22196690Y58869374D01*
X-22300000Y58879549D01*
X-23900000Y58879549D01*
X-24003310Y58869374D01*
X-24102650Y58839239D01*
X-24194202Y58790304D01*
X-24274448Y58724448D01*
X-24340304Y58644202D01*
X-24389239Y58552650D01*
X-24419374Y58453310D01*
X-24429549Y58350000D01*
X-25973000Y58350000D01*
X-25973000Y58411151D01*
X-26012467Y58609565D01*
X-26089885Y58796467D01*
X-26189131Y58945000D01*
X-26089885Y59093533D01*
X-26075465Y59128347D01*
X-21702048Y59128347D01*
X-21546038Y58812786D01*
X-21171255Y58621980D01*
X-20766449Y58507956D01*
X-20347176Y58475098D01*
X-19929549Y58524666D01*
X-19529617Y58654757D01*
X-19233962Y58812786D01*
X-19077952Y59128347D01*
X-20390000Y60440395D01*
X-21702048Y59128347D01*
X-26075465Y59128347D01*
X-26012467Y59280435D01*
X-25973000Y59478849D01*
X-25973000Y59681151D01*
X-26012467Y59879565D01*
X-26076822Y60034930D01*
X-26059696Y60055798D01*
X-26010761Y60147350D01*
X-25980626Y60246690D01*
X-25970451Y60350000D01*
X-25970451Y60577176D01*
X-22534902Y60577176D01*
X-22485334Y60159549D01*
X-22355243Y59759617D01*
X-22197214Y59463962D01*
X-21881653Y59307952D01*
X-20569605Y60620000D01*
X-20210395Y60620000D01*
X-18898347Y59307952D01*
X-18582786Y59463962D01*
X-18391980Y59838745D01*
X-18277956Y60243551D01*
X-18245098Y60662824D01*
X-18294666Y61080451D01*
X-18424757Y61480383D01*
X-18582786Y61776038D01*
X-18898347Y61932048D01*
X-20210395Y60620000D01*
X-20569605Y60620000D01*
X-21881653Y61932048D01*
X-22197214Y61776038D01*
X-22388020Y61401255D01*
X-22502044Y60996449D01*
X-22534902Y60577176D01*
X-25970451Y60577176D01*
X-25970451Y61350000D01*
X-25980626Y61453310D01*
X-26010761Y61552650D01*
X-26059696Y61644202D01*
X-26125552Y61724448D01*
X-26205798Y61790304D01*
X-26297350Y61839239D01*
X-26396690Y61869374D01*
X-26500000Y61879549D01*
X-27500000Y61879549D01*
X-27603310Y61869374D01*
X-27702650Y61839239D01*
X-27794202Y61790304D01*
X-27874448Y61724448D01*
X-27940304Y61644202D01*
X-27989239Y61552650D01*
X-28019374Y61453310D01*
X-28029549Y61350000D01*
X-28029549Y60350000D01*
X-28019374Y60246690D01*
X-27989239Y60147350D01*
X-27940304Y60055798D01*
X-27923178Y60034930D01*
X-27987533Y59879565D01*
X-28027000Y59681151D01*
X-28027000Y59478849D01*
X-27987533Y59280435D01*
X-27910115Y59093533D01*
X-27810869Y58945000D01*
X-27910115Y58796467D01*
X-27987533Y58609565D01*
X-28027000Y58411151D01*
X-28027000Y58208849D01*
X-27987533Y58010435D01*
X-27910115Y57823533D01*
X-27870940Y57764903D01*
X-27987123Y57600206D01*
X-28077446Y57396864D01*
X-28094119Y57341874D01*
X-80355730Y57341874D01*
X-75614602Y62083001D01*
X-28440440Y62083001D01*
X-28389999Y62078033D01*
X-28339558Y62083001D01*
X-28339548Y62083001D01*
X-28188672Y62097861D01*
X-28143206Y62111653D01*
X-21702048Y62111653D01*
X-20390000Y60799605D01*
X-19077952Y62111653D01*
X-19233962Y62427214D01*
X-19608745Y62618020D01*
X-20013551Y62732044D01*
X-20432824Y62764902D01*
X-20850451Y62715334D01*
X-21250383Y62585243D01*
X-21546038Y62427214D01*
X-21702048Y62111653D01*
X-28143206Y62111653D01*
X-27995082Y62156586D01*
X-27816668Y62251950D01*
X-27660287Y62380289D01*
X-27628122Y62419482D01*
X-24174092Y65873511D01*
X-20177000Y65873511D01*
X-20177000Y65326489D01*
X-20070282Y64789979D01*
X-19860946Y64284597D01*
X-19557037Y63829766D01*
X-19170234Y63442963D01*
X-18715403Y63139054D01*
X-18210021Y62929718D01*
X-17673511Y62823000D01*
X-17126489Y62823000D01*
X-16589979Y62929718D01*
X-16084597Y63139054D01*
X-15629766Y63442963D01*
X-15242963Y63829766D01*
X-14939054Y64284597D01*
X-14729718Y64789979D01*
X-14623000Y65326489D01*
X-14623000Y65873511D01*
X-14729718Y66410021D01*
X-14939054Y66915403D01*
X-15242963Y67370234D01*
X-15629766Y67757037D01*
X-16084597Y68060946D01*
X-16589979Y68270282D01*
X-17126489Y68377000D01*
X-17673511Y68377000D01*
X-18210021Y68270282D01*
X-18715403Y68060946D01*
X-19170234Y67757037D01*
X-19557037Y67370234D01*
X-19860946Y66915403D01*
X-20070282Y66410021D01*
X-20177000Y65873511D01*
X-24174092Y65873511D01*
X-21974602Y68073000D01*
X-21749604Y68073000D01*
X-21454590Y68131681D01*
X-21176694Y68246790D01*
X-20926594Y68413901D01*
X-20713901Y68626594D01*
X-20546790Y68876694D01*
X-20431681Y69154590D01*
X-20373000Y69449604D01*
X-20373000Y69750396D01*
X-20431681Y70045410D01*
X-20433746Y70050396D01*
X-20177000Y70050396D01*
X-20177000Y69749604D01*
X-20118319Y69454590D01*
X-20003210Y69176694D01*
X-19836099Y68926594D01*
X-19623406Y68713901D01*
X-19373306Y68546790D01*
X-19095410Y68431681D01*
X-18800396Y68373000D01*
X-18499604Y68373000D01*
X-18204590Y68431681D01*
X-17926694Y68546790D01*
X-17676594Y68713901D01*
X-17463901Y68926594D01*
X-17296790Y69176694D01*
X-17181681Y69454590D01*
X-17123000Y69749604D01*
X-17123000Y70050396D01*
X-17181681Y70345410D01*
X-17296790Y70623306D01*
X-17463901Y70873406D01*
X-17676594Y71086099D01*
X-17926694Y71253210D01*
X-18204590Y71368319D01*
X-18499604Y71427000D01*
X-18800396Y71427000D01*
X-19095410Y71368319D01*
X-19373306Y71253210D01*
X-19623406Y71086099D01*
X-19836099Y70873406D01*
X-20003210Y70623306D01*
X-20118319Y70345410D01*
X-20177000Y70050396D01*
X-20433746Y70050396D01*
X-20546790Y70323306D01*
X-20713901Y70573406D01*
X-20926594Y70786099D01*
X-21176694Y70953210D01*
X-21454590Y71068319D01*
X-21749604Y71127000D01*
X-22050396Y71127000D01*
X-22345410Y71068319D01*
X-22623306Y70953210D01*
X-22873406Y70786099D01*
X-23086099Y70573406D01*
X-23253210Y70323306D01*
X-23368319Y70045410D01*
X-23400000Y69886136D01*
X-23431681Y70045410D01*
X-23546790Y70323306D01*
X-23713901Y70573406D01*
X-23926594Y70786099D01*
X-24176694Y70953210D01*
X-24454590Y71068319D01*
X-24749604Y71127000D01*
X-24974603Y71127000D01*
X-29895604Y76048000D01*
X-14424083Y76048000D01*
X-14309387Y76038125D01*
X-14228008Y76014605D01*
X-14152755Y75975730D01*
X-14086482Y75922975D01*
X-14031718Y75858353D01*
X-13990547Y75784322D01*
X-13964540Y75703706D01*
X-13952000Y75596620D01*
X-13951999Y-15579192D01*
X-13991289Y-15381668D01*
X-14125243Y-15058275D01*
X-14319714Y-14767229D01*
X-14567229Y-14519714D01*
X-14858275Y-14325243D01*
X-15181668Y-14191289D01*
X-15524981Y-14123000D01*
X-15875019Y-14123000D01*
X-16218332Y-14191289D01*
X-16541725Y-14325243D01*
X-16832771Y-14519714D01*
X-17080286Y-14767229D01*
X-17274757Y-15058275D01*
X-17408711Y-15381668D01*
X-17477000Y-15724981D01*
X-17477000Y-16075019D01*
X-17408711Y-16418332D01*
X-17274757Y-16741725D01*
X-17080286Y-17032771D01*
X-16832771Y-17280286D01*
X-16541725Y-17474757D01*
X-16218332Y-17608711D01*
X-15875019Y-17677000D01*
X-15524981Y-17677000D01*
X-15181668Y-17608711D01*
X-14858275Y-17474757D01*
X-14567229Y-17280286D01*
X-14319714Y-17032771D01*
X-14125243Y-16741725D01*
X-13991289Y-16418332D01*
X-13951999Y-16220808D01*
X-13951999Y-24086273D01*
X-14014835Y-25159337D01*
X-14223686Y-26190354D01*
X-14575722Y-27181654D01*
X-15063919Y-28113454D01*
X-15678546Y-28967184D01*
X-16407324Y-29725786D01*
X-17235726Y-30374139D01*
X-18147214Y-30899300D01*
X-19123605Y-31290791D01*
X-20145413Y-31540801D01*
X-21206175Y-31645720D01*
X-21502203Y-31648000D01*
X-33827109Y-31648000D01*
X-33840308Y-31649300D01*
X-35014971Y-31705723D01*
X-35022162Y-31706479D01*
X-35029395Y-31706605D01*
X-35072459Y-31711511D01*
X-36462077Y-31925394D01*
X-36471518Y-31927401D01*
X-36481067Y-31928658D01*
X-36523299Y-31938407D01*
X-37879771Y-32308224D01*
X-37888927Y-32311288D01*
X-37898269Y-32313617D01*
X-37939126Y-32328084D01*
X-39104264Y-32792926D01*
X-34037827Y-27726489D01*
X-30877000Y-27726489D01*
X-30877000Y-28273511D01*
X-30770282Y-28810021D01*
X-30560946Y-29315403D01*
X-30257037Y-29770234D01*
X-29870234Y-30157037D01*
X-29415403Y-30460946D01*
X-28910021Y-30670282D01*
X-28373511Y-30777000D01*
X-27826489Y-30777000D01*
X-27289979Y-30670282D01*
X-26784597Y-30460946D01*
X-26329766Y-30157037D01*
X-25942963Y-29770234D01*
X-25639054Y-29315403D01*
X-25429718Y-28810021D01*
X-25323000Y-28273511D01*
X-25323000Y-27726489D01*
X-25429718Y-27189979D01*
X-25639054Y-26684597D01*
X-25942963Y-26229766D01*
X-26329766Y-25842963D01*
X-26784597Y-25539054D01*
X-27289979Y-25329718D01*
X-27826489Y-25223000D01*
X-28373511Y-25223000D01*
X-28910021Y-25329718D01*
X-29415403Y-25539054D01*
X-29870234Y-25842963D01*
X-30257037Y-26229766D01*
X-30560946Y-26684597D01*
X-30770282Y-27189979D01*
X-30877000Y-27726489D01*
X-34037827Y-27726489D01*
X-31136319Y-24824981D01*
X-18677000Y-24824981D01*
X-18677000Y-25175019D01*
X-18608711Y-25518332D01*
X-18474757Y-25841725D01*
X-18280286Y-26132771D01*
X-18032771Y-26380286D01*
X-17741725Y-26574757D01*
X-17418332Y-26708711D01*
X-17075019Y-26777000D01*
X-16724981Y-26777000D01*
X-16381668Y-26708711D01*
X-16058275Y-26574757D01*
X-15767229Y-26380286D01*
X-15519714Y-26132771D01*
X-15325243Y-25841725D01*
X-15191289Y-25518332D01*
X-15123000Y-25175019D01*
X-15123000Y-24824981D01*
X-15191289Y-24481668D01*
X-15325243Y-24158275D01*
X-15519714Y-23867229D01*
X-15767229Y-23619714D01*
X-16058275Y-23425243D01*
X-16381668Y-23291289D01*
X-16724981Y-23223000D01*
X-17075019Y-23223000D01*
X-17418332Y-23291289D01*
X-17741725Y-23425243D01*
X-18032771Y-23619714D01*
X-18280286Y-23867229D01*
X-18474757Y-24158275D01*
X-18608711Y-24481668D01*
X-18677000Y-24824981D01*
X-31136319Y-24824981D01*
X-30161184Y-23849847D01*
X-30133447Y-23827084D01*
X-30042597Y-23716383D01*
X-29975090Y-23590087D01*
X-29941681Y-23479952D01*
X-29933520Y-23453048D01*
X-29919483Y-23310531D01*
X-29923000Y-23274823D01*
X-29923000Y-14951132D01*
X-27696425Y-12724559D01*
X-27529604Y-12691376D01*
X-27360901Y-12621496D01*
X-27209072Y-12520048D01*
X-27079952Y-12390928D01*
X-26978504Y-12239099D01*
X-26908624Y-12070396D01*
X-26873000Y-11891301D01*
X-26873000Y-11708699D01*
X-26908624Y-11529604D01*
X-26978504Y-11360901D01*
X-27079952Y-11209072D01*
X-27209072Y-11079952D01*
X-27360901Y-10978504D01*
X-27529604Y-10908624D01*
X-27702559Y-10874221D01*
X-23823350Y-6995012D01*
X-23797524Y-6973817D01*
X-23712922Y-6870731D01*
X-23650058Y-6753120D01*
X-23611346Y-6625505D01*
X-23601550Y-6526042D01*
X-23601550Y-6526036D01*
X-23598276Y-6492791D01*
X-23601550Y-6459546D01*
X-23601550Y-6029396D01*
X-23600000Y-6029549D01*
X-21900000Y-6029549D01*
X-21796690Y-6019374D01*
X-21697350Y-5989239D01*
X-21605798Y-5940304D01*
X-21525552Y-5874448D01*
X-21459696Y-5794202D01*
X-21410761Y-5702650D01*
X-21380626Y-5603310D01*
X-21370451Y-5500000D01*
X-21370451Y-3800000D01*
X-21380626Y-3696690D01*
X-21410761Y-3597350D01*
X-21459696Y-3505798D01*
X-21525552Y-3425552D01*
X-21605798Y-3359696D01*
X-21697350Y-3310761D01*
X-21796690Y-3280626D01*
X-21900000Y-3270451D01*
X-22008202Y-3270451D01*
X-21872213Y-3179586D01*
X-21680414Y-2987787D01*
X-21529718Y-2762254D01*
X-21425917Y-2511656D01*
X-21373000Y-2245623D01*
X-21373000Y-2024981D01*
X-18677000Y-2024981D01*
X-18677000Y-2375019D01*
X-18608711Y-2718332D01*
X-18474757Y-3041725D01*
X-18280286Y-3332771D01*
X-18032771Y-3580286D01*
X-17741725Y-3774757D01*
X-17418332Y-3908711D01*
X-17075019Y-3977000D01*
X-16724981Y-3977000D01*
X-16381668Y-3908711D01*
X-16058275Y-3774757D01*
X-15767229Y-3580286D01*
X-15519714Y-3332771D01*
X-15325243Y-3041725D01*
X-15191289Y-2718332D01*
X-15123000Y-2375019D01*
X-15123000Y-2024981D01*
X-15191289Y-1681668D01*
X-15325243Y-1358275D01*
X-15519714Y-1067229D01*
X-15767229Y-819714D01*
X-16058275Y-625243D01*
X-16381668Y-491289D01*
X-16724981Y-423000D01*
X-17075019Y-423000D01*
X-17418332Y-491289D01*
X-17741725Y-625243D01*
X-18032771Y-819714D01*
X-18280286Y-1067229D01*
X-18474757Y-1358275D01*
X-18608711Y-1681668D01*
X-18677000Y-2024981D01*
X-21373000Y-2024981D01*
X-21373000Y-1974377D01*
X-21425917Y-1708344D01*
X-21529718Y-1457746D01*
X-21680414Y-1232213D01*
X-21872213Y-1040414D01*
X-22097746Y-889718D01*
X-22217776Y-840000D01*
X-22097746Y-790282D01*
X-21872213Y-639586D01*
X-21680414Y-447787D01*
X-21529718Y-222254D01*
X-21425917Y28344D01*
X-21373000Y294377D01*
X-21373000Y565623D01*
X-21425917Y831656D01*
X-21529718Y1082254D01*
X-21680414Y1307787D01*
X-21872213Y1499586D01*
X-22097746Y1650282D01*
X-22217776Y1700000D01*
X-22097746Y1749718D01*
X-21872213Y1900414D01*
X-21680414Y2092213D01*
X-21529718Y2317746D01*
X-21425917Y2568344D01*
X-21373000Y2834377D01*
X-21373000Y3105623D01*
X-21425917Y3371656D01*
X-21529718Y3622254D01*
X-21680414Y3847787D01*
X-21872213Y4039586D01*
X-22097746Y4190282D01*
X-22217776Y4240000D01*
X-22097746Y4289718D01*
X-21872213Y4440414D01*
X-21680414Y4632213D01*
X-21529718Y4857746D01*
X-21425917Y5108344D01*
X-21373000Y5374377D01*
X-21373000Y5645623D01*
X-21425917Y5911656D01*
X-21529718Y6162254D01*
X-21680414Y6387787D01*
X-21872213Y6579586D01*
X-22097746Y6730282D01*
X-22217776Y6780000D01*
X-22097746Y6829718D01*
X-21872213Y6980414D01*
X-21680414Y7172213D01*
X-21529718Y7397746D01*
X-21425917Y7648344D01*
X-21373000Y7914377D01*
X-21373000Y8185623D01*
X-21425917Y8451656D01*
X-21529718Y8702254D01*
X-21680414Y8927787D01*
X-21872213Y9119586D01*
X-22097746Y9270282D01*
X-22217776Y9320000D01*
X-22097746Y9369718D01*
X-21872213Y9520414D01*
X-21680414Y9712213D01*
X-21529718Y9937746D01*
X-21425917Y10188344D01*
X-21373000Y10454377D01*
X-21373000Y10725623D01*
X-21425917Y10991656D01*
X-21529718Y11242254D01*
X-21680414Y11467787D01*
X-21872213Y11659586D01*
X-22097746Y11810282D01*
X-22217776Y11860000D01*
X-22097746Y11909718D01*
X-21872213Y12060414D01*
X-21680414Y12252213D01*
X-21529718Y12477746D01*
X-21425917Y12728344D01*
X-21373000Y12994377D01*
X-21373000Y13265623D01*
X-21425917Y13531656D01*
X-21529718Y13782254D01*
X-21680414Y14007787D01*
X-21872213Y14199586D01*
X-22097746Y14350282D01*
X-22348344Y14454083D01*
X-22614377Y14507000D01*
X-22885623Y14507000D01*
X-23151656Y14454083D01*
X-23402254Y14350282D01*
X-23627787Y14199586D01*
X-23819586Y14007787D01*
X-23970282Y13782254D01*
X-24074083Y13531656D01*
X-24127000Y13265623D01*
X-24127000Y12994377D01*
X-24079889Y12757533D01*
X-24905211Y11932211D01*
X-24931038Y11911015D01*
X-25015639Y11807929D01*
X-25078503Y11690318D01*
X-25117215Y11562703D01*
X-25127011Y11463240D01*
X-25127011Y11463234D01*
X-25130285Y11429989D01*
X-25127011Y11396744D01*
X-25127010Y8044653D01*
X-26018790Y7152872D01*
X-26044617Y7131676D01*
X-26065812Y7105850D01*
X-26065814Y7105848D01*
X-26073055Y7097025D01*
X-26129218Y7028590D01*
X-26192082Y6910979D01*
X-26230794Y6783364D01*
X-26240590Y6683901D01*
X-26240590Y6683895D01*
X-26243864Y6650650D01*
X-26240590Y6617405D01*
X-26240589Y3265314D01*
X-27156645Y2349257D01*
X-27182472Y2328061D01*
X-27267073Y2224975D01*
X-27329937Y2107364D01*
X-27368649Y1979749D01*
X-27378445Y1880286D01*
X-27378445Y1880280D01*
X-27381719Y1847035D01*
X-27378445Y1813790D01*
X-27378444Y-1538302D01*
X-28233820Y-2393678D01*
X-28259647Y-2414874D01*
X-28280842Y-2440700D01*
X-28280844Y-2440702D01*
X-28323990Y-2493276D01*
X-28344248Y-2517960D01*
X-28407112Y-2635571D01*
X-28445824Y-2763186D01*
X-28455620Y-2862649D01*
X-28455620Y-2862655D01*
X-28458894Y-2895900D01*
X-28455620Y-2929145D01*
X-28455619Y-4762596D01*
X-43166022Y-19473000D01*
X-45316024Y-19473000D01*
X-45359072Y-19429952D01*
X-45510901Y-19328504D01*
X-45679604Y-19258624D01*
X-45858699Y-19223000D01*
X-46041301Y-19223000D01*
X-46220396Y-19258624D01*
X-46389099Y-19328504D01*
X-46540928Y-19429952D01*
X-46670048Y-19559072D01*
X-46771496Y-19710901D01*
X-46841376Y-19879604D01*
X-46877000Y-20058699D01*
X-46877000Y-20241301D01*
X-46841376Y-20420396D01*
X-46771496Y-20589099D01*
X-46670048Y-20740928D01*
X-46610976Y-20800000D01*
X-46670048Y-20859072D01*
X-46771496Y-21010901D01*
X-46841376Y-21179604D01*
X-46877000Y-21358699D01*
X-46877000Y-21541301D01*
X-46841376Y-21720396D01*
X-46771496Y-21889099D01*
X-46670048Y-22040928D01*
X-46610976Y-22100000D01*
X-46620048Y-22109072D01*
X-46721496Y-22260901D01*
X-46791376Y-22429604D01*
X-46827000Y-22608699D01*
X-46827000Y-22791301D01*
X-46791376Y-22970396D01*
X-46721496Y-23139099D01*
X-46620048Y-23290928D01*
X-46510976Y-23400000D01*
X-46570048Y-23459072D01*
X-46671496Y-23610901D01*
X-46741376Y-23779604D01*
X-46777000Y-23958699D01*
X-46777000Y-24141301D01*
X-46741376Y-24320396D01*
X-46671496Y-24489099D01*
X-46570048Y-24640928D01*
X-46510976Y-24700000D01*
X-46520048Y-24709072D01*
X-46621496Y-24860901D01*
X-46691376Y-25029604D01*
X-46727000Y-25208699D01*
X-46727000Y-25391301D01*
X-46691376Y-25570396D01*
X-46621496Y-25739099D01*
X-46520048Y-25890928D01*
X-46460976Y-25950000D01*
X-46520048Y-26009072D01*
X-46621496Y-26160901D01*
X-46691376Y-26329604D01*
X-46727000Y-26508699D01*
X-46727000Y-26691301D01*
X-46691376Y-26870396D01*
X-46621496Y-27039099D01*
X-46520048Y-27190928D01*
X-46516307Y-27194669D01*
X-46525379Y-27203741D01*
X-46626827Y-27355570D01*
X-46696707Y-27524273D01*
X-46732331Y-27703368D01*
X-46732331Y-27885970D01*
X-46696707Y-28065065D01*
X-46626827Y-28233768D01*
X-46525379Y-28385597D01*
X-46437976Y-28473000D01*
X-46466024Y-28473000D01*
X-46509072Y-28429952D01*
X-46660901Y-28328504D01*
X-46829604Y-28258624D01*
X-47008699Y-28223000D01*
X-47191301Y-28223000D01*
X-47370396Y-28258624D01*
X-47539099Y-28328504D01*
X-47690928Y-28429952D01*
X-47820048Y-28559072D01*
X-47921496Y-28710901D01*
X-47991376Y-28879604D01*
X-48027000Y-29058699D01*
X-48027000Y-29241301D01*
X-47991376Y-29420396D01*
X-47921496Y-29589099D01*
X-47820048Y-29740928D01*
X-47690928Y-29870048D01*
X-47539099Y-29971496D01*
X-47370396Y-30041376D01*
X-47191301Y-30077000D01*
X-47008699Y-30077000D01*
X-46829604Y-30041376D01*
X-46660901Y-29971496D01*
X-46509072Y-29870048D01*
X-46466024Y-29827000D01*
X-46083905Y-29827000D01*
X-46050660Y-29830274D01*
X-46017415Y-29827000D01*
X-46017408Y-29827000D01*
X-45917945Y-29817204D01*
X-45790330Y-29778492D01*
X-45672719Y-29715628D01*
X-45569633Y-29631027D01*
X-45548434Y-29605196D01*
X-43741230Y-27797992D01*
X-43715404Y-27776797D01*
X-43630802Y-27673711D01*
X-43567938Y-27556100D01*
X-43529226Y-27428485D01*
X-43519430Y-27329022D01*
X-43519430Y-27329013D01*
X-43516156Y-27295771D01*
X-43519430Y-27262529D01*
X-43519430Y-26691092D01*
X-32719870Y-15891532D01*
X-32626999Y-16030525D01*
X-32627000Y-23410855D01*
X-51088811Y-41872667D01*
X-51116553Y-41895434D01*
X-51207402Y-42006135D01*
X-51274910Y-42132432D01*
X-51316480Y-42269471D01*
X-51330517Y-42411988D01*
X-51326999Y-42447706D01*
X-51327000Y-47014292D01*
X-51330517Y-47050000D01*
X-51327000Y-47085707D01*
X-51316480Y-47192516D01*
X-51274910Y-47329556D01*
X-51207403Y-47455852D01*
X-51116554Y-47566553D01*
X-51088810Y-47589322D01*
X-50739326Y-47938806D01*
X-50716554Y-47966554D01*
X-50605853Y-48057403D01*
X-50479557Y-48124910D01*
X-50342517Y-48166480D01*
X-50329549Y-48167757D01*
X-50329549Y-48300000D01*
X-50319374Y-48403310D01*
X-50289239Y-48502650D01*
X-50240304Y-48594202D01*
X-50174448Y-48674448D01*
X-50094202Y-48740304D01*
X-50002650Y-48789239D01*
X-49903310Y-48819374D01*
X-49800000Y-48829549D01*
X-48100000Y-48829549D01*
X-47996690Y-48819374D01*
X-47897350Y-48789239D01*
X-47805798Y-48740304D01*
X-47725552Y-48674448D01*
X-47659696Y-48594202D01*
X-47610761Y-48502650D01*
X-47580626Y-48403310D01*
X-47570451Y-48300000D01*
X-47570451Y-46600000D01*
X-47580626Y-46496690D01*
X-47610761Y-46397350D01*
X-47659696Y-46305798D01*
X-47725552Y-46225552D01*
X-47805798Y-46159696D01*
X-47897350Y-46110761D01*
X-47996690Y-46080626D01*
X-48100000Y-46070451D01*
X-48208202Y-46070451D01*
X-48072213Y-45979586D01*
X-47880414Y-45787787D01*
X-47729718Y-45562254D01*
X-47625917Y-45311656D01*
X-47573000Y-45045623D01*
X-47573000Y-44774377D01*
X-47625917Y-44508344D01*
X-47729718Y-44257746D01*
X-47880414Y-44032213D01*
X-48072213Y-43840414D01*
X-48223000Y-43739662D01*
X-48223000Y-41911662D01*
X-45592778Y-39281440D01*
X-45997809Y-40247331D01*
X-46001030Y-40256428D01*
X-46004948Y-40265227D01*
X-46018702Y-40306329D01*
X-46412136Y-41656141D01*
X-46414306Y-41665539D01*
X-46417204Y-41674731D01*
X-46426216Y-41717126D01*
X-46664318Y-43102799D01*
X-46665410Y-43112383D01*
X-46667249Y-43121843D01*
X-46671397Y-43164923D01*
X-46671404Y-43164985D01*
X-46671404Y-43165004D01*
X-46750464Y-44557301D01*
X-46752000Y-44572892D01*
X-46751999Y-57872989D01*
X-46785570Y-58215371D01*
X-46877159Y-58518726D01*
X-47025926Y-58798518D01*
X-47226206Y-59044084D01*
X-47255763Y-59068536D01*
X-52665000Y-59068331D01*
X-52665000Y-58727000D01*
X-53773000Y-58727000D01*
X-53773000Y-58747000D01*
X-54027000Y-58747000D01*
X-54027000Y-58727000D01*
X-55135000Y-58727000D01*
X-55135000Y-59068238D01*
X-59665000Y-59068066D01*
X-59665000Y-58727000D01*
X-60773000Y-58727000D01*
X-60773000Y-58747000D01*
X-61027000Y-58747000D01*
X-61027000Y-58727000D01*
X-62135000Y-58727000D01*
X-62135000Y-59067972D01*
X-92174309Y-59066834D01*
X-92605439Y-58879374D01*
X-93320394Y-58416849D01*
X-93950215Y-57843757D01*
X-94477975Y-57175495D01*
X-94889502Y-56430017D01*
X-94932462Y-56308699D01*
X-91152000Y-56308699D01*
X-91152000Y-56491301D01*
X-91116376Y-56670396D01*
X-91046496Y-56839099D01*
X-90945048Y-56990928D01*
X-90815928Y-57120048D01*
X-90664099Y-57221496D01*
X-90495396Y-57291376D01*
X-90316301Y-57327000D01*
X-90133699Y-57327000D01*
X-89954604Y-57291376D01*
X-89785901Y-57221496D01*
X-89634072Y-57120048D01*
X-89504952Y-56990928D01*
X-89433759Y-56884379D01*
X-88976379Y-56427000D01*
X-87660749Y-56427000D01*
X-87677000Y-56508699D01*
X-87677000Y-56691301D01*
X-87641376Y-56870396D01*
X-87571496Y-57039099D01*
X-87470048Y-57190928D01*
X-87340928Y-57320048D01*
X-87234379Y-57391241D01*
X-86185959Y-58439662D01*
X-86157716Y-58474076D01*
X-86123303Y-58502318D01*
X-86123301Y-58502320D01*
X-86121803Y-58503549D01*
X-86020369Y-58586794D01*
X-85863670Y-58670551D01*
X-85693643Y-58722128D01*
X-85561127Y-58735180D01*
X-85561120Y-58735180D01*
X-85516820Y-58739543D01*
X-85472521Y-58735180D01*
X-84458805Y-58735180D01*
X-84333121Y-58760180D01*
X-84150519Y-58760180D01*
X-83971424Y-58724556D01*
X-83802721Y-58654676D01*
X-83650892Y-58553228D01*
X-83521772Y-58424108D01*
X-83420324Y-58272279D01*
X-83350444Y-58103576D01*
X-83314820Y-57924481D01*
X-83314820Y-57741879D01*
X-83350444Y-57562784D01*
X-83420324Y-57394081D01*
X-83521772Y-57242252D01*
X-83650892Y-57113132D01*
X-83802721Y-57011684D01*
X-83971424Y-56941804D01*
X-84150519Y-56906180D01*
X-84333121Y-56906180D01*
X-84458805Y-56931180D01*
X-85143199Y-56931180D01*
X-85869202Y-56205178D01*
X-85779952Y-56115928D01*
X-85678504Y-55964099D01*
X-85608624Y-55795396D01*
X-85573000Y-55616301D01*
X-85573000Y-55527000D01*
X-85433699Y-55527000D01*
X-85308015Y-55502000D01*
X-83033976Y-55502000D01*
X-82965928Y-55570048D01*
X-82814099Y-55671496D01*
X-82645396Y-55741376D01*
X-82466301Y-55777000D01*
X-82283699Y-55777000D01*
X-82191694Y-55758699D01*
X-77702000Y-55758699D01*
X-77702000Y-55941301D01*
X-77677000Y-56066985D01*
X-77677000Y-56440749D01*
X-77681363Y-56485048D01*
X-77677000Y-56529347D01*
X-77677000Y-56529354D01*
X-77663948Y-56661870D01*
X-77612371Y-56831897D01*
X-77528614Y-56988596D01*
X-77415896Y-57125944D01*
X-77381477Y-57154191D01*
X-75929187Y-58606482D01*
X-75900944Y-58640896D01*
X-75866531Y-58669138D01*
X-75866529Y-58669140D01*
X-75786059Y-58735180D01*
X-75763597Y-58753614D01*
X-75606898Y-58837371D01*
X-75449302Y-58885177D01*
X-75436871Y-58888948D01*
X-75260048Y-58906364D01*
X-75215741Y-58902000D01*
X-66766985Y-58902000D01*
X-66641301Y-58927000D01*
X-66458699Y-58927000D01*
X-66279604Y-58891376D01*
X-66110901Y-58821496D01*
X-65959072Y-58720048D01*
X-65829952Y-58590928D01*
X-65728504Y-58439099D01*
X-65658624Y-58270396D01*
X-65629306Y-58123000D01*
X-62135000Y-58123000D01*
X-62135000Y-58473000D01*
X-61027000Y-58473000D01*
X-61027000Y-57181269D01*
X-60773000Y-57181269D01*
X-60773000Y-58473000D01*
X-59665000Y-58473000D01*
X-59665000Y-58123000D01*
X-59713507Y-57884504D01*
X-59807610Y-57660054D01*
X-59943693Y-57458275D01*
X-60116526Y-57286922D01*
X-60211836Y-57223829D01*
X-60094151Y-57252719D01*
X-59826518Y-57264604D01*
X-59561709Y-57224048D01*
X-59309900Y-57132609D01*
X-59202965Y-57075450D01*
X-59140472Y-56839133D01*
X-55659528Y-56839133D01*
X-55597035Y-57075450D01*
X-55354322Y-57188850D01*
X-55094151Y-57252719D01*
X-54826518Y-57264604D01*
X-54596558Y-57229385D01*
X-54683474Y-57286922D01*
X-54856307Y-57458275D01*
X-54992390Y-57660054D01*
X-55086493Y-57884504D01*
X-55135000Y-58123000D01*
X-55135000Y-58473000D01*
X-54027000Y-58473000D01*
X-54027000Y-57181269D01*
X-53773000Y-57181269D01*
X-53773000Y-58473000D01*
X-52665000Y-58473000D01*
X-52665000Y-58123000D01*
X-52713507Y-57884504D01*
X-52807610Y-57660054D01*
X-52943693Y-57458275D01*
X-53116526Y-57286922D01*
X-53319467Y-57152579D01*
X-53544718Y-57060409D01*
X-53582391Y-57056538D01*
X-53773000Y-57181269D01*
X-54027000Y-57181269D01*
X-54200862Y-57067497D01*
X-54140472Y-56839133D01*
X-54900000Y-56079605D01*
X-55659528Y-56839133D01*
X-59140472Y-56839133D01*
X-59900000Y-56079605D01*
X-60659528Y-56839133D01*
X-60599138Y-57067497D01*
X-60773000Y-57181269D01*
X-61027000Y-57181269D01*
X-61217609Y-57056538D01*
X-61255282Y-57060409D01*
X-61480533Y-57152579D01*
X-61683474Y-57286922D01*
X-61856307Y-57458275D01*
X-61992390Y-57660054D01*
X-62086493Y-57884504D01*
X-62135000Y-58123000D01*
X-65629306Y-58123000D01*
X-65623000Y-58091301D01*
X-65623000Y-57908699D01*
X-65658624Y-57729604D01*
X-65728504Y-57560901D01*
X-65777537Y-57487517D01*
X-65764099Y-57496496D01*
X-65595396Y-57566376D01*
X-65416301Y-57602000D01*
X-65233699Y-57602000D01*
X-65054604Y-57566376D01*
X-64885901Y-57496496D01*
X-64734072Y-57395048D01*
X-64604952Y-57265928D01*
X-64503504Y-57114099D01*
X-64433624Y-56945396D01*
X-64398000Y-56766301D01*
X-64398000Y-56583699D01*
X-64433624Y-56404604D01*
X-64503504Y-56235901D01*
X-64604952Y-56084072D01*
X-64715542Y-55973482D01*
X-61264604Y-55973482D01*
X-61224048Y-56238291D01*
X-61132609Y-56490100D01*
X-61075450Y-56597035D01*
X-60839133Y-56659528D01*
X-60079605Y-55900000D01*
X-59720395Y-55900000D01*
X-58960867Y-56659528D01*
X-58724550Y-56597035D01*
X-58611150Y-56354322D01*
X-58547281Y-56094151D01*
X-58541923Y-55973482D01*
X-56264604Y-55973482D01*
X-56224048Y-56238291D01*
X-56132609Y-56490100D01*
X-56075450Y-56597035D01*
X-55839133Y-56659528D01*
X-55079605Y-55900000D01*
X-54720395Y-55900000D01*
X-53960867Y-56659528D01*
X-53724550Y-56597035D01*
X-53611150Y-56354322D01*
X-53547281Y-56094151D01*
X-53535396Y-55826518D01*
X-53575952Y-55561709D01*
X-53667391Y-55309900D01*
X-53724550Y-55202965D01*
X-53960867Y-55140472D01*
X-54720395Y-55900000D01*
X-55079605Y-55900000D01*
X-55839133Y-55140472D01*
X-56075450Y-55202965D01*
X-56188850Y-55445678D01*
X-56252719Y-55705849D01*
X-56264604Y-55973482D01*
X-58541923Y-55973482D01*
X-58535396Y-55826518D01*
X-58575952Y-55561709D01*
X-58667391Y-55309900D01*
X-58724550Y-55202965D01*
X-58960867Y-55140472D01*
X-59720395Y-55900000D01*
X-60079605Y-55900000D01*
X-60839133Y-55140472D01*
X-61075450Y-55202965D01*
X-61188850Y-55445678D01*
X-61252719Y-55705849D01*
X-61264604Y-55973482D01*
X-64715542Y-55973482D01*
X-64734072Y-55954952D01*
X-64799955Y-55910931D01*
X-64729952Y-55840928D01*
X-64628504Y-55689099D01*
X-64558624Y-55520396D01*
X-64523000Y-55341301D01*
X-64523000Y-55158699D01*
X-64558624Y-54979604D01*
X-64566385Y-54960867D01*
X-60659528Y-54960867D01*
X-59900000Y-55720395D01*
X-59140472Y-54960867D01*
X-55659528Y-54960867D01*
X-54900000Y-55720395D01*
X-54140472Y-54960867D01*
X-54202965Y-54724550D01*
X-54445678Y-54611150D01*
X-54705849Y-54547281D01*
X-54973482Y-54535396D01*
X-55238291Y-54575952D01*
X-55490100Y-54667391D01*
X-55597035Y-54724550D01*
X-55659528Y-54960867D01*
X-59140472Y-54960867D01*
X-59202965Y-54724550D01*
X-59445678Y-54611150D01*
X-59705849Y-54547281D01*
X-59973482Y-54535396D01*
X-60238291Y-54575952D01*
X-60490100Y-54667391D01*
X-60597035Y-54724550D01*
X-60659528Y-54960867D01*
X-64566385Y-54960867D01*
X-64628504Y-54810901D01*
X-64729952Y-54659072D01*
X-64859072Y-54529952D01*
X-65010901Y-54428504D01*
X-65179604Y-54358624D01*
X-65358699Y-54323000D01*
X-65541301Y-54323000D01*
X-65613746Y-54337410D01*
X-65657951Y-54293205D01*
X-65657951Y-54168750D01*
X-65672329Y-54022764D01*
X-65714912Y-53882388D01*
X-65784062Y-53753017D01*
X-65877123Y-53639623D01*
X-65990517Y-53546562D01*
X-66119888Y-53477412D01*
X-66260264Y-53434829D01*
X-66406250Y-53420451D01*
X-66843750Y-53420451D01*
X-66989736Y-53434829D01*
X-67130112Y-53477412D01*
X-67259483Y-53546562D01*
X-67372877Y-53639623D01*
X-67412500Y-53687903D01*
X-67452123Y-53639623D01*
X-67565517Y-53546562D01*
X-67694888Y-53477412D01*
X-67835264Y-53434829D01*
X-67981250Y-53420451D01*
X-68418750Y-53420451D01*
X-68564736Y-53434829D01*
X-68705112Y-53477412D01*
X-68834483Y-53546562D01*
X-68947877Y-53639623D01*
X-68954752Y-53648000D01*
X-72938765Y-53648000D01*
X-72940517Y-53646562D01*
X-73069888Y-53577412D01*
X-73210264Y-53534829D01*
X-73356250Y-53520451D01*
X-73793750Y-53520451D01*
X-73939736Y-53534829D01*
X-74080112Y-53577412D01*
X-74209483Y-53646562D01*
X-74322877Y-53739623D01*
X-74362500Y-53787903D01*
X-74402123Y-53739623D01*
X-74515517Y-53646562D01*
X-74644888Y-53577412D01*
X-74785264Y-53534829D01*
X-74931250Y-53520451D01*
X-75368750Y-53520451D01*
X-75514736Y-53534829D01*
X-75655112Y-53577412D01*
X-75784483Y-53646562D01*
X-75897877Y-53739623D01*
X-75990938Y-53853017D01*
X-76060088Y-53982388D01*
X-76102671Y-54122764D01*
X-76117049Y-54268750D01*
X-76117049Y-54781250D01*
X-76102671Y-54927236D01*
X-76060088Y-55067612D01*
X-75990938Y-55196983D01*
X-75897996Y-55310232D01*
X-75916376Y-55354604D01*
X-75935986Y-55453192D01*
X-75953504Y-55410901D01*
X-76054952Y-55259072D01*
X-76184072Y-55129952D01*
X-76335901Y-55028504D01*
X-76504604Y-54958624D01*
X-76683699Y-54923000D01*
X-76866301Y-54923000D01*
X-77045396Y-54958624D01*
X-77214099Y-55028504D01*
X-77365928Y-55129952D01*
X-77495048Y-55259072D01*
X-77596496Y-55410901D01*
X-77666376Y-55579604D01*
X-77702000Y-55758699D01*
X-82191694Y-55758699D01*
X-82104604Y-55741376D01*
X-81935901Y-55671496D01*
X-81784072Y-55570048D01*
X-81654952Y-55440928D01*
X-81553504Y-55289099D01*
X-81483624Y-55120396D01*
X-81448000Y-54941301D01*
X-81448000Y-54758699D01*
X-81483624Y-54579604D01*
X-81553504Y-54410901D01*
X-81654952Y-54259072D01*
X-81784072Y-54129952D01*
X-81890623Y-54058758D01*
X-81955856Y-53993524D01*
X-81984104Y-53959104D01*
X-82121451Y-53846386D01*
X-82278150Y-53762629D01*
X-82448177Y-53711052D01*
X-82580693Y-53698000D01*
X-82580701Y-53698000D01*
X-82625000Y-53693637D01*
X-82669299Y-53698000D01*
X-85308015Y-53698000D01*
X-85433699Y-53673000D01*
X-85616301Y-53673000D01*
X-85795396Y-53708624D01*
X-85964099Y-53778504D01*
X-86115928Y-53879952D01*
X-86245048Y-54009072D01*
X-86346496Y-54160901D01*
X-86416376Y-54329604D01*
X-86452000Y-54508699D01*
X-86452000Y-54598000D01*
X-86591301Y-54598000D01*
X-86716985Y-54623000D01*
X-89305701Y-54623000D01*
X-89350000Y-54618637D01*
X-89394300Y-54623000D01*
X-89394307Y-54623000D01*
X-89526823Y-54636052D01*
X-89696850Y-54687629D01*
X-89853549Y-54771386D01*
X-89990896Y-54884104D01*
X-90019139Y-54918518D01*
X-90709379Y-55608759D01*
X-90815928Y-55679952D01*
X-90945048Y-55809072D01*
X-91046496Y-55960901D01*
X-91116376Y-56129604D01*
X-91152000Y-56308699D01*
X-94932462Y-56308699D01*
X-95173746Y-55627334D01*
X-95324776Y-54779459D01*
X-95348000Y-54286995D01*
X-95348000Y-49525000D01*
X-92429549Y-49525000D01*
X-92429549Y-51225000D01*
X-92419374Y-51328310D01*
X-92389239Y-51427650D01*
X-92340304Y-51519202D01*
X-92274448Y-51599448D01*
X-92194202Y-51665304D01*
X-92102650Y-51714239D01*
X-92003310Y-51744374D01*
X-91900000Y-51754549D01*
X-90200000Y-51754549D01*
X-90096690Y-51744374D01*
X-89997350Y-51714239D01*
X-89905798Y-51665304D01*
X-89825552Y-51599448D01*
X-89759696Y-51519202D01*
X-89710761Y-51427650D01*
X-89680626Y-51328310D01*
X-89670451Y-51225000D01*
X-89670451Y-51116798D01*
X-89579586Y-51252787D01*
X-89387787Y-51444586D01*
X-89162254Y-51595282D01*
X-88911656Y-51699083D01*
X-88645623Y-51752000D01*
X-88374377Y-51752000D01*
X-88108344Y-51699083D01*
X-87857746Y-51595282D01*
X-87632213Y-51444586D01*
X-87440414Y-51252787D01*
X-87289718Y-51027254D01*
X-87185917Y-50776656D01*
X-87133000Y-50510623D01*
X-87133000Y-50239377D01*
X-87185917Y-49973344D01*
X-87289718Y-49722746D01*
X-87440414Y-49497213D01*
X-87632213Y-49305414D01*
X-87857746Y-49154718D01*
X-88108344Y-49050917D01*
X-88374377Y-48998000D01*
X-88645623Y-48998000D01*
X-88911656Y-49050917D01*
X-89162254Y-49154718D01*
X-89387787Y-49305414D01*
X-89579586Y-49497213D01*
X-89670451Y-49633202D01*
X-89670451Y-49525000D01*
X-89680626Y-49421690D01*
X-89710761Y-49322350D01*
X-89759696Y-49230798D01*
X-89825552Y-49150552D01*
X-89905798Y-49084696D01*
X-89997350Y-49035761D01*
X-90096690Y-49005626D01*
X-90200000Y-48995451D01*
X-91900000Y-48995451D01*
X-92003310Y-49005626D01*
X-92102650Y-49035761D01*
X-92194202Y-49084696D01*
X-92274448Y-49150552D01*
X-92340304Y-49230798D01*
X-92389239Y-49322350D01*
X-92419374Y-49421690D01*
X-92429549Y-49525000D01*
X-95348000Y-49525000D01*
X-95348000Y-37705638D01*
X-86927000Y-37705638D01*
X-86927000Y-38794362D01*
X-86714601Y-39862166D01*
X-86297964Y-40868016D01*
X-85693101Y-41773257D01*
X-84923257Y-42543101D01*
X-84018016Y-43147964D01*
X-83012166Y-43564601D01*
X-81944362Y-43777000D01*
X-80855638Y-43777000D01*
X-79787834Y-43564601D01*
X-78781984Y-43147964D01*
X-77876743Y-42543101D01*
X-77106899Y-41773257D01*
X-76502036Y-40868016D01*
X-76085399Y-39862166D01*
X-75873000Y-38794362D01*
X-75873000Y-37705638D01*
X-76085399Y-36637834D01*
X-76502036Y-35631984D01*
X-77106899Y-34726743D01*
X-77108661Y-34724981D01*
X-59177000Y-34724981D01*
X-59177000Y-35075019D01*
X-59108711Y-35418332D01*
X-58974757Y-35741725D01*
X-58780286Y-36032771D01*
X-58532771Y-36280286D01*
X-58241725Y-36474757D01*
X-57918332Y-36608711D01*
X-57575019Y-36677000D01*
X-57224981Y-36677000D01*
X-56881668Y-36608711D01*
X-56558275Y-36474757D01*
X-56267229Y-36280286D01*
X-56019714Y-36032771D01*
X-55825243Y-35741725D01*
X-55691289Y-35418332D01*
X-55623000Y-35075019D01*
X-55623000Y-34724981D01*
X-55691289Y-34381668D01*
X-55825243Y-34058275D01*
X-56019714Y-33767229D01*
X-56267229Y-33519714D01*
X-56558275Y-33325243D01*
X-56881668Y-33191289D01*
X-57224981Y-33123000D01*
X-57575019Y-33123000D01*
X-57918332Y-33191289D01*
X-58241725Y-33325243D01*
X-58532771Y-33519714D01*
X-58780286Y-33767229D01*
X-58974757Y-34058275D01*
X-59108711Y-34381668D01*
X-59177000Y-34724981D01*
X-77108661Y-34724981D01*
X-77876743Y-33956899D01*
X-78781984Y-33352036D01*
X-79787834Y-32935399D01*
X-80855638Y-32723000D01*
X-81944362Y-32723000D01*
X-83012166Y-32935399D01*
X-84018016Y-33352036D01*
X-84923257Y-33956899D01*
X-85693101Y-34726743D01*
X-86297964Y-35631984D01*
X-86714601Y-36637834D01*
X-86927000Y-37705638D01*
X-95348000Y-37705638D01*
X-95348000Y-30024981D01*
X-67277000Y-30024981D01*
X-67277000Y-30375019D01*
X-67208711Y-30718332D01*
X-67074757Y-31041725D01*
X-66880286Y-31332771D01*
X-66632771Y-31580286D01*
X-66341725Y-31774757D01*
X-66018332Y-31908711D01*
X-65675019Y-31977000D01*
X-65324981Y-31977000D01*
X-64981668Y-31908711D01*
X-64658275Y-31774757D01*
X-64367229Y-31580286D01*
X-64119714Y-31332771D01*
X-63925243Y-31041725D01*
X-63791289Y-30718332D01*
X-63723000Y-30375019D01*
X-63723000Y-30024981D01*
X-63791289Y-29681668D01*
X-63925243Y-29358275D01*
X-64119714Y-29067229D01*
X-64367229Y-28819714D01*
X-64658275Y-28625243D01*
X-64981668Y-28491289D01*
X-65324981Y-28423000D01*
X-65675019Y-28423000D01*
X-66018332Y-28491289D01*
X-66341725Y-28625243D01*
X-66632771Y-28819714D01*
X-66880286Y-29067229D01*
X-67074757Y-29358275D01*
X-67208711Y-29681668D01*
X-67277000Y-30024981D01*
X-95348000Y-30024981D01*
X-95348000Y-27424981D01*
X-72077000Y-27424981D01*
X-72077000Y-27775019D01*
X-72008711Y-28118332D01*
X-71874757Y-28441725D01*
X-71680286Y-28732771D01*
X-71432771Y-28980286D01*
X-71141725Y-29174757D01*
X-70818332Y-29308711D01*
X-70475019Y-29377000D01*
X-70124981Y-29377000D01*
X-69781668Y-29308711D01*
X-69458275Y-29174757D01*
X-69167229Y-28980286D01*
X-68919714Y-28732771D01*
X-68725243Y-28441725D01*
X-68591289Y-28118332D01*
X-68523000Y-27775019D01*
X-68523000Y-27424981D01*
X-68591289Y-27081668D01*
X-68725243Y-26758275D01*
X-68919714Y-26467229D01*
X-69167229Y-26219714D01*
X-69458275Y-26025243D01*
X-69781668Y-25891289D01*
X-70124981Y-25823000D01*
X-70475019Y-25823000D01*
X-70818332Y-25891289D01*
X-71141725Y-26025243D01*
X-71432771Y-26219714D01*
X-71680286Y-26467229D01*
X-71874757Y-26758275D01*
X-72008711Y-27081668D01*
X-72077000Y-27424981D01*
X-95348000Y-27424981D01*
X-95348000Y-6624981D01*
X-93177000Y-6624981D01*
X-93177000Y-6975019D01*
X-93108711Y-7318332D01*
X-92974757Y-7641725D01*
X-92780286Y-7932771D01*
X-92532771Y-8180286D01*
X-92241725Y-8374757D01*
X-91918332Y-8508711D01*
X-91575019Y-8577000D01*
X-91224981Y-8577000D01*
X-90881668Y-8508711D01*
X-90558275Y-8374757D01*
X-90267229Y-8180286D01*
X-90019714Y-7932771D01*
X-89825243Y-7641725D01*
X-89691289Y-7318332D01*
X-89623000Y-6975019D01*
X-89623000Y-6624981D01*
X-89691289Y-6281668D01*
X-89825243Y-5958275D01*
X-90019714Y-5667229D01*
X-90267229Y-5419714D01*
X-90558275Y-5225243D01*
X-90881668Y-5091289D01*
X-91224981Y-5023000D01*
X-91575019Y-5023000D01*
X-91918332Y-5091289D01*
X-92241725Y-5225243D01*
X-92532771Y-5419714D01*
X-92780286Y-5667229D01*
X-92974757Y-5958275D01*
X-93108711Y-6281668D01*
X-93177000Y-6624981D01*
X-95348000Y-6624981D01*
X-95348000Y-1224981D01*
X-94677000Y-1224981D01*
X-94677000Y-1575019D01*
X-94608711Y-1918332D01*
X-94474757Y-2241725D01*
X-94280286Y-2532771D01*
X-94032771Y-2780286D01*
X-93741725Y-2974757D01*
X-93418332Y-3108711D01*
X-93075019Y-3177000D01*
X-92724981Y-3177000D01*
X-92381668Y-3108711D01*
X-92058275Y-2974757D01*
X-91767229Y-2780286D01*
X-91519714Y-2532771D01*
X-91325243Y-2241725D01*
X-91191289Y-1918332D01*
X-91123000Y-1575019D01*
X-91123000Y-1224981D01*
X-91191289Y-881668D01*
X-91325243Y-558275D01*
X-91519714Y-267229D01*
X-91767229Y-19714D01*
X-92058275Y174757D01*
X-92381668Y308711D01*
X-92724981Y377000D01*
X-93075019Y377000D01*
X-93418332Y308711D01*
X-93741725Y174757D01*
X-94032771Y-19714D01*
X-94280286Y-267229D01*
X-94474757Y-558275D01*
X-94608711Y-881668D01*
X-94677000Y-1224981D01*
X-95348000Y-1224981D01*
X-95348000Y15873511D01*
X-95177000Y15873511D01*
X-95177000Y15326489D01*
X-95070282Y14789979D01*
X-94860946Y14284597D01*
X-94557037Y13829766D01*
X-94170234Y13442963D01*
X-93715403Y13139054D01*
X-93210021Y12929718D01*
X-92673511Y12823000D01*
X-92126489Y12823000D01*
X-91589979Y12929718D01*
X-91084597Y13139054D01*
X-90629766Y13442963D01*
X-90242963Y13829766D01*
X-89939054Y14284597D01*
X-89729718Y14789979D01*
X-89623000Y15326489D01*
X-89623000Y15873511D01*
X-89729718Y16410021D01*
X-89939054Y16915403D01*
X-90242963Y17370234D01*
X-90629766Y17757037D01*
X-91084597Y18060946D01*
X-91589979Y18270282D01*
X-92126489Y18377000D01*
X-92673511Y18377000D01*
X-93210021Y18270282D01*
X-93715403Y18060946D01*
X-94170234Y17757037D01*
X-94557037Y17370234D01*
X-94860946Y16915403D01*
X-95070282Y16410021D01*
X-95177000Y15873511D01*
X-95348000Y15873511D01*
X-95348000Y21873511D01*
X-94177000Y21873511D01*
X-94177000Y21326489D01*
X-94070282Y20789979D01*
X-93860946Y20284597D01*
X-93557037Y19829766D01*
X-93170234Y19442963D01*
X-92715403Y19139054D01*
X-92210021Y18929718D01*
X-91673511Y18823000D01*
X-91126489Y18823000D01*
X-90589979Y18929718D01*
X-90084597Y19139054D01*
X-89629766Y19442963D01*
X-89242963Y19829766D01*
X-88939054Y20284597D01*
X-88729718Y20789979D01*
X-88623000Y21326489D01*
X-88623000Y21873511D01*
X-88729718Y22410021D01*
X-88939054Y22915403D01*
X-89242963Y23370234D01*
X-89629766Y23757037D01*
X-90084597Y24060946D01*
X-90589979Y24270282D01*
X-91126489Y24377000D01*
X-91673511Y24377000D01*
X-92210021Y24270282D01*
X-92715403Y24060946D01*
X-93170234Y23757037D01*
X-93557037Y23370234D01*
X-93860946Y22915403D01*
X-94070282Y22410021D01*
X-94177000Y21873511D01*
X-95348000Y21873511D01*
X-95348000Y65873511D01*
X-95177000Y65873511D01*
X-95177000Y65326489D01*
X-95070282Y64789979D01*
X-94860946Y64284597D01*
X-94557037Y63829766D01*
X-94170234Y63442963D01*
X-93715403Y63139054D01*
X-93210021Y62929718D01*
X-92673511Y62823000D01*
X-92126489Y62823000D01*
X-91589979Y62929718D01*
X-91084597Y63139054D01*
X-90629766Y63442963D01*
X-90242963Y63829766D01*
X-89939054Y64284597D01*
X-89729718Y64789979D01*
X-89623000Y65326489D01*
X-89623000Y65873511D01*
X-89729718Y66410021D01*
X-89939054Y66915403D01*
X-90242963Y67370234D01*
X-90629766Y67757037D01*
X-91084597Y68060946D01*
X-91589979Y68270282D01*
X-92126489Y68377000D01*
X-92673511Y68377000D01*
X-93210021Y68270282D01*
X-93715403Y68060946D01*
X-94170234Y67757037D01*
X-94557037Y67370234D01*
X-94860946Y66915403D01*
X-95070282Y66410021D01*
X-95177000Y65873511D01*
X-95348000Y65873511D01*
X-95348000Y78576276D01*
X-95338125Y78690972D01*
X-95314605Y78772351D01*
X-95275730Y78847604D01*
X-95222975Y78913877D01*
X-95158353Y78968641D01*
X-95084322Y79009812D01*
X-95003706Y79035819D01*
X-94896614Y79048360D01*
X-38423727Y79048000D01*
M02*
